M48
; DRILL file {KiCad 9.0.3} date 2026-05-06T23:48:05-0400
; FORMAT={-:-/ absolute / inch / decimal}
; #@! TF.CreationDate,2026-05-06T23:48:05-04:00
; #@! TF.GenerationSoftware,Kicad,Pcbnew,9.0.3
; #@! TF.FileFunction,Plated,1,2,PTH
FMAT,2
INCH
; #@! TA.AperFunction,Plated,PTH,ViaDrill
T1C0.0118
; #@! TA.AperFunction,Plated,PTH,ComponentDrill
T2C0.0236
; #@! TA.AperFunction,Plated,PTH,ComponentDrill
T3C0.0276
; #@! TA.AperFunction,Plated,PTH,ComponentDrill
T4C0.0315
; #@! TA.AperFunction,Plated,PTH,ComponentDrill
T5C0.0394
; #@! TA.AperFunction,Plated,PTH,ComponentDrill
T6C0.0413
%
G90
G05
T1
X3.5669Y-3.2598
X3.5728Y-3.3169
X3.622Y-3.6614
X3.6319Y-3.4055
X3.6929Y-3.4882
X3.7598Y-3.4449
X3.7697Y-3.3563
X3.8189Y-3.4449
X3.8484Y-3.622
X3.8583Y-3.2874
X4.0256Y-3.5531
X4.064Y-3.6506
X4.1929Y-3.3957
T3
X4.0906Y-2.7953
X4.0906Y-2.8937
X4.0906Y-2.9724
X4.0906Y-3.0709
X4.1496Y-2.7756
X4.1496Y-2.8543
X4.1496Y-2.9331
X4.1496Y-3.0118
X4.1496Y-3.0906
T4
X4.7874Y-2.7126
X4.7874Y-3.5787
X4.8661Y-2.7126
X4.8661Y-3.5787
X4.9449Y-2.7126
X4.9449Y-3.5787
X5.0236Y-2.7126
X5.0236Y-3.5787
X5.1024Y-2.7126
X5.1024Y-3.5787
X5.1811Y-2.7126
X5.1811Y-3.5787
X5.2598Y-2.7126
X5.2598Y-3.5787
X5.3386Y-2.7126
X5.3386Y-3.5787
X5.4173Y-2.7126
X5.4173Y-3.5787
X5.4961Y-2.7126
X5.4961Y-3.5787
T5
X3.6843Y-3.7904
X3.6843Y-4.4904
X3.7843Y-3.7904
X3.7843Y-4.4904
X3.8843Y-3.7904
X3.8843Y-4.4904
X3.9843Y-3.7904
X3.9843Y-4.4904
X4.0843Y-3.7904
X4.0843Y-4.4904
X4.1843Y-3.7904
X4.1843Y-4.4904
X4.2843Y-3.7904
X4.2843Y-4.4904
X4.3829Y-2.7805
X4.3829Y-2.8789
X4.3829Y-2.9774
X4.3843Y-3.7904
X4.3843Y-4.4904
X4.4843Y-3.7904
X4.4843Y-4.4904
X4.5843Y-3.7904
X4.5843Y-4.4904
X4.6843Y-3.7904
X4.6843Y-4.4904
X4.7843Y-3.7904
X4.7843Y-4.4904
X4.8843Y-3.7904
X4.8843Y-4.4904
X4.9843Y-3.7904
X4.9843Y-4.4904
X5.0843Y-3.7904
X5.0843Y-4.4904
X5.1843Y-3.7904
X5.1843Y-4.4904
X5.2843Y-3.7904
X5.2843Y-4.4904
X5.3843Y-3.7904
X5.3843Y-4.4904
X5.4843Y-3.7904
X5.4843Y-4.4904
X5.5843Y-3.7904
X5.5843Y-4.4904
T6
X4.3799Y-3.3563
X4.3799Y-3.4547
T2
G00X3.8012Y-2.6811
M15
G01X3.7697Y-2.6811
M16
G05
G00X3.8012Y-3.185
M15
G01X3.7697Y-3.185
M16
G05
G00X4.1417Y-2.6811
M15
G01X4.0984Y-2.6811
M16
G05
G00X4.1417Y-3.185
M15
G01X4.0984Y-3.185
M16
G05
M30
