%TF.GenerationSoftware,KiCad,Pcbnew,9.0.3*%
%TF.CreationDate,2026-05-06T23:48:05-04:00*%
%TF.ProjectId,controller_pcb,636f6e74-726f-46c6-9c65-725f7063622e,rev?*%
%TF.SameCoordinates,Original*%
%TF.FileFunction,Legend,Top*%
%TF.FilePolarity,Positive*%
%FSLAX46Y46*%
G04 Gerber Fmt 4.6, Leading zero omitted, Abs format (unit mm)*
G04 Created by KiCad (PCBNEW 9.0.3) date 2026-05-06 23:48:05*
%MOMM*%
%LPD*%
G01*
G04 APERTURE LIST*
G04 Aperture macros list*
%AMRoundRect*
0 Rectangle with rounded corners*
0 $1 Rounding radius*
0 $2 $3 $4 $5 $6 $7 $8 $9 X,Y pos of 4 corners*
0 Add a 4 corners polygon primitive as box body*
4,1,4,$2,$3,$4,$5,$6,$7,$8,$9,$2,$3,0*
0 Add four circle primitives for the rounded corners*
1,1,$1+$1,$2,$3*
1,1,$1+$1,$4,$5*
1,1,$1+$1,$6,$7*
1,1,$1+$1,$8,$9*
0 Add four rect primitives between the rounded corners*
20,1,$1+$1,$2,$3,$4,$5,0*
20,1,$1+$1,$4,$5,$6,$7,0*
20,1,$1+$1,$6,$7,$8,$9,0*
20,1,$1+$1,$8,$9,$2,$3,0*%
%AMFreePoly0*
4,1,37,0.603843,0.796157,0.639018,0.796157,0.711114,0.766294,0.766294,0.711114,0.796157,0.639018,0.796157,0.603843,0.800000,0.600000,0.800000,-0.600000,0.796157,-0.603843,0.796157,-0.639018,0.766294,-0.711114,0.711114,-0.766294,0.639018,-0.796157,0.603843,-0.796157,0.600000,-0.800000,0.000000,-0.800000,0.000000,-0.796148,-0.078414,-0.796148,-0.232228,-0.765552,-0.377117,-0.705537,
-0.507515,-0.618408,-0.618408,-0.507515,-0.705537,-0.377117,-0.765552,-0.232228,-0.796148,-0.078414,-0.796148,0.078414,-0.765552,0.232228,-0.705537,0.377117,-0.618408,0.507515,-0.507515,0.618408,-0.377117,0.705537,-0.232228,0.765552,-0.078414,0.796148,0.000000,0.796148,0.000000,0.800000,0.600000,0.800000,0.603843,0.796157,0.603843,0.796157,$1*%
%AMFreePoly1*
4,1,37,0.000000,0.796148,0.078414,0.796148,0.232228,0.765552,0.377117,0.705537,0.507515,0.618408,0.618408,0.507515,0.705537,0.377117,0.765552,0.232228,0.796148,0.078414,0.796148,-0.078414,0.765552,-0.232228,0.705537,-0.377117,0.618408,-0.507515,0.507515,-0.618408,0.377117,-0.705537,0.232228,-0.765552,0.078414,-0.796148,0.000000,-0.796148,0.000000,-0.800000,-0.600000,-0.800000,
-0.603843,-0.796157,-0.639018,-0.796157,-0.711114,-0.766294,-0.766294,-0.711114,-0.796157,-0.639018,-0.796157,-0.603843,-0.800000,-0.600000,-0.800000,0.600000,-0.796157,0.603843,-0.796157,0.639018,-0.766294,0.711114,-0.711114,0.766294,-0.639018,0.796157,-0.603843,0.796157,-0.600000,0.800000,0.000000,0.800000,0.000000,0.796148,0.000000,0.796148,$1*%
G04 Aperture macros list end*
%ADD10C,0.100000*%
%ADD11C,0.140000*%
%ADD12C,0.120000*%
%ADD13C,0.127000*%
%ADD14C,0.200000*%
%ADD15C,0.000000*%
%ADD16R,1.500000X2.400000*%
%ADD17RoundRect,0.102000X0.754000X-0.754000X0.754000X0.754000X-0.754000X0.754000X-0.754000X-0.754000X0*%
%ADD18C,1.712000*%
%ADD19C,1.700000*%
%ADD20RoundRect,0.237500X0.237500X-0.300000X0.237500X0.300000X-0.237500X0.300000X-0.237500X-0.300000X0*%
%ADD21RoundRect,0.150000X0.512500X0.150000X-0.512500X0.150000X-0.512500X-0.150000X0.512500X-0.150000X0*%
%ADD22C,3.200000*%
%ADD23RoundRect,0.250000X-0.650000X0.412500X-0.650000X-0.412500X0.650000X-0.412500X0.650000X0.412500X0*%
%ADD24RoundRect,0.200000X-0.275000X0.200000X-0.275000X-0.200000X0.275000X-0.200000X0.275000X0.200000X0*%
%ADD25RoundRect,0.200000X0.600000X-0.600000X0.600000X0.600000X-0.600000X0.600000X-0.600000X-0.600000X0*%
%ADD26C,1.600000*%
%ADD27FreePoly0,90.000000*%
%ADD28FreePoly1,90.000000*%
%ADD29RoundRect,0.225000X-0.225000X-0.250000X0.225000X-0.250000X0.225000X0.250000X-0.225000X0.250000X0*%
%ADD30RoundRect,0.102000X0.787500X-0.787500X0.787500X0.787500X-0.787500X0.787500X-0.787500X-0.787500X0*%
%ADD31C,1.779000*%
%ADD32RoundRect,0.250000X-0.350000X0.350000X-0.350000X-0.350000X0.350000X-0.350000X0.350000X0.350000X0*%
%ADD33C,1.200000*%
%ADD34O,2.400000X1.200000*%
%ADD35O,2.100000X1.200000*%
%ADD36RoundRect,0.237500X-0.300000X-0.237500X0.300000X-0.237500X0.300000X0.237500X-0.300000X0.237500X0*%
%ADD37RoundRect,0.250000X0.262500X0.450000X-0.262500X0.450000X-0.262500X-0.450000X0.262500X-0.450000X0*%
G04 APERTURE END LIST*
D10*
X117547419Y-106971115D02*
X116547419Y-106971115D01*
X116547419Y-106971115D02*
X116547419Y-106590163D01*
X116547419Y-106590163D02*
X116595038Y-106494925D01*
X116595038Y-106494925D02*
X116642657Y-106447306D01*
X116642657Y-106447306D02*
X116737895Y-106399687D01*
X116737895Y-106399687D02*
X116880752Y-106399687D01*
X116880752Y-106399687D02*
X116975990Y-106447306D01*
X116975990Y-106447306D02*
X117023609Y-106494925D01*
X117023609Y-106494925D02*
X117071228Y-106590163D01*
X117071228Y-106590163D02*
X117071228Y-106971115D01*
X117547419Y-105971115D02*
X116880752Y-105971115D01*
X116547419Y-105971115D02*
X116595038Y-106018734D01*
X116595038Y-106018734D02*
X116642657Y-105971115D01*
X116642657Y-105971115D02*
X116595038Y-105923496D01*
X116595038Y-105923496D02*
X116547419Y-105971115D01*
X116547419Y-105971115D02*
X116642657Y-105971115D01*
X117499800Y-105066354D02*
X117547419Y-105161592D01*
X117547419Y-105161592D02*
X117547419Y-105352068D01*
X117547419Y-105352068D02*
X117499800Y-105447306D01*
X117499800Y-105447306D02*
X117452180Y-105494925D01*
X117452180Y-105494925D02*
X117356942Y-105542544D01*
X117356942Y-105542544D02*
X117071228Y-105542544D01*
X117071228Y-105542544D02*
X116975990Y-105494925D01*
X116975990Y-105494925D02*
X116928371Y-105447306D01*
X116928371Y-105447306D02*
X116880752Y-105352068D01*
X116880752Y-105352068D02*
X116880752Y-105161592D01*
X116880752Y-105161592D02*
X116928371Y-105066354D01*
X117547419Y-104494925D02*
X117499800Y-104590163D01*
X117499800Y-104590163D02*
X117452180Y-104637782D01*
X117452180Y-104637782D02*
X117356942Y-104685401D01*
X117356942Y-104685401D02*
X117071228Y-104685401D01*
X117071228Y-104685401D02*
X116975990Y-104637782D01*
X116975990Y-104637782D02*
X116928371Y-104590163D01*
X116928371Y-104590163D02*
X116880752Y-104494925D01*
X116880752Y-104494925D02*
X116880752Y-104352068D01*
X116880752Y-104352068D02*
X116928371Y-104256830D01*
X116928371Y-104256830D02*
X116975990Y-104209211D01*
X116975990Y-104209211D02*
X117071228Y-104161592D01*
X117071228Y-104161592D02*
X117356942Y-104161592D01*
X117356942Y-104161592D02*
X117452180Y-104209211D01*
X117452180Y-104209211D02*
X117499800Y-104256830D01*
X117499800Y-104256830D02*
X117547419Y-104352068D01*
X117547419Y-104352068D02*
X117547419Y-104494925D01*
X116547419Y-103066353D02*
X117547419Y-102828258D01*
X117547419Y-102828258D02*
X116833133Y-102637782D01*
X116833133Y-102637782D02*
X117547419Y-102447306D01*
X117547419Y-102447306D02*
X116547419Y-102209211D01*
D11*
X146075012Y-103679323D02*
X146117870Y-103722180D01*
X146117870Y-103722180D02*
X146160727Y-103850752D01*
X146160727Y-103850752D02*
X146160727Y-103936466D01*
X146160727Y-103936466D02*
X146117870Y-104065037D01*
X146117870Y-104065037D02*
X146032155Y-104150752D01*
X146032155Y-104150752D02*
X145946441Y-104193609D01*
X145946441Y-104193609D02*
X145775012Y-104236466D01*
X145775012Y-104236466D02*
X145646441Y-104236466D01*
X145646441Y-104236466D02*
X145475012Y-104193609D01*
X145475012Y-104193609D02*
X145389298Y-104150752D01*
X145389298Y-104150752D02*
X145303584Y-104065037D01*
X145303584Y-104065037D02*
X145260727Y-103936466D01*
X145260727Y-103936466D02*
X145260727Y-103850752D01*
X145260727Y-103850752D02*
X145303584Y-103722180D01*
X145303584Y-103722180D02*
X145346441Y-103679323D01*
X146160727Y-103165037D02*
X146117870Y-103250752D01*
X146117870Y-103250752D02*
X146075012Y-103293609D01*
X146075012Y-103293609D02*
X145989298Y-103336466D01*
X145989298Y-103336466D02*
X145732155Y-103336466D01*
X145732155Y-103336466D02*
X145646441Y-103293609D01*
X145646441Y-103293609D02*
X145603584Y-103250752D01*
X145603584Y-103250752D02*
X145560727Y-103165037D01*
X145560727Y-103165037D02*
X145560727Y-103036466D01*
X145560727Y-103036466D02*
X145603584Y-102950752D01*
X145603584Y-102950752D02*
X145646441Y-102907895D01*
X145646441Y-102907895D02*
X145732155Y-102865037D01*
X145732155Y-102865037D02*
X145989298Y-102865037D01*
X145989298Y-102865037D02*
X146075012Y-102907895D01*
X146075012Y-102907895D02*
X146117870Y-102950752D01*
X146117870Y-102950752D02*
X146160727Y-103036466D01*
X146160727Y-103036466D02*
X146160727Y-103165037D01*
X145560727Y-102479323D02*
X146160727Y-102479323D01*
X145646441Y-102479323D02*
X145603584Y-102436466D01*
X145603584Y-102436466D02*
X145560727Y-102350751D01*
X145560727Y-102350751D02*
X145560727Y-102222180D01*
X145560727Y-102222180D02*
X145603584Y-102136466D01*
X145603584Y-102136466D02*
X145689298Y-102093609D01*
X145689298Y-102093609D02*
X146160727Y-102093609D01*
X145560727Y-101793608D02*
X145560727Y-101450751D01*
X145260727Y-101665037D02*
X146032155Y-101665037D01*
X146032155Y-101665037D02*
X146117870Y-101622180D01*
X146117870Y-101622180D02*
X146160727Y-101536465D01*
X146160727Y-101536465D02*
X146160727Y-101450751D01*
X146160727Y-101150751D02*
X145560727Y-101150751D01*
X145732155Y-101150751D02*
X145646441Y-101107894D01*
X145646441Y-101107894D02*
X145603584Y-101065037D01*
X145603584Y-101065037D02*
X145560727Y-100979322D01*
X145560727Y-100979322D02*
X145560727Y-100893608D01*
X146160727Y-100465036D02*
X146117870Y-100550751D01*
X146117870Y-100550751D02*
X146075012Y-100593608D01*
X146075012Y-100593608D02*
X145989298Y-100636465D01*
X145989298Y-100636465D02*
X145732155Y-100636465D01*
X145732155Y-100636465D02*
X145646441Y-100593608D01*
X145646441Y-100593608D02*
X145603584Y-100550751D01*
X145603584Y-100550751D02*
X145560727Y-100465036D01*
X145560727Y-100465036D02*
X145560727Y-100336465D01*
X145560727Y-100336465D02*
X145603584Y-100250751D01*
X145603584Y-100250751D02*
X145646441Y-100207894D01*
X145646441Y-100207894D02*
X145732155Y-100165036D01*
X145732155Y-100165036D02*
X145989298Y-100165036D01*
X145989298Y-100165036D02*
X146075012Y-100207894D01*
X146075012Y-100207894D02*
X146117870Y-100250751D01*
X146117870Y-100250751D02*
X146160727Y-100336465D01*
X146160727Y-100336465D02*
X146160727Y-100465036D01*
X146160727Y-99650750D02*
X146117870Y-99736465D01*
X146117870Y-99736465D02*
X146032155Y-99779322D01*
X146032155Y-99779322D02*
X145260727Y-99779322D01*
X146160727Y-99179321D02*
X146117870Y-99265036D01*
X146117870Y-99265036D02*
X146032155Y-99307893D01*
X146032155Y-99307893D02*
X145260727Y-99307893D01*
X146117870Y-98493607D02*
X146160727Y-98579321D01*
X146160727Y-98579321D02*
X146160727Y-98750750D01*
X146160727Y-98750750D02*
X146117870Y-98836464D01*
X146117870Y-98836464D02*
X146032155Y-98879321D01*
X146032155Y-98879321D02*
X145689298Y-98879321D01*
X145689298Y-98879321D02*
X145603584Y-98836464D01*
X145603584Y-98836464D02*
X145560727Y-98750750D01*
X145560727Y-98750750D02*
X145560727Y-98579321D01*
X145560727Y-98579321D02*
X145603584Y-98493607D01*
X145603584Y-98493607D02*
X145689298Y-98450750D01*
X145689298Y-98450750D02*
X145775012Y-98450750D01*
X145775012Y-98450750D02*
X145860727Y-98879321D01*
X146160727Y-98065035D02*
X145560727Y-98065035D01*
X145732155Y-98065035D02*
X145646441Y-98022178D01*
X145646441Y-98022178D02*
X145603584Y-97979321D01*
X145603584Y-97979321D02*
X145560727Y-97893606D01*
X145560727Y-97893606D02*
X145560727Y-97807892D01*
X146160727Y-96822178D02*
X145260727Y-96822178D01*
X145260727Y-96822178D02*
X145260727Y-96479321D01*
X145260727Y-96479321D02*
X145303584Y-96393606D01*
X145303584Y-96393606D02*
X145346441Y-96350749D01*
X145346441Y-96350749D02*
X145432155Y-96307892D01*
X145432155Y-96307892D02*
X145560727Y-96307892D01*
X145560727Y-96307892D02*
X145646441Y-96350749D01*
X145646441Y-96350749D02*
X145689298Y-96393606D01*
X145689298Y-96393606D02*
X145732155Y-96479321D01*
X145732155Y-96479321D02*
X145732155Y-96822178D01*
X146075012Y-95407892D02*
X146117870Y-95450749D01*
X146117870Y-95450749D02*
X146160727Y-95579321D01*
X146160727Y-95579321D02*
X146160727Y-95665035D01*
X146160727Y-95665035D02*
X146117870Y-95793606D01*
X146117870Y-95793606D02*
X146032155Y-95879321D01*
X146032155Y-95879321D02*
X145946441Y-95922178D01*
X145946441Y-95922178D02*
X145775012Y-95965035D01*
X145775012Y-95965035D02*
X145646441Y-95965035D01*
X145646441Y-95965035D02*
X145475012Y-95922178D01*
X145475012Y-95922178D02*
X145389298Y-95879321D01*
X145389298Y-95879321D02*
X145303584Y-95793606D01*
X145303584Y-95793606D02*
X145260727Y-95665035D01*
X145260727Y-95665035D02*
X145260727Y-95579321D01*
X145260727Y-95579321D02*
X145303584Y-95450749D01*
X145303584Y-95450749D02*
X145346441Y-95407892D01*
X145689298Y-94722178D02*
X145732155Y-94593606D01*
X145732155Y-94593606D02*
X145775012Y-94550749D01*
X145775012Y-94550749D02*
X145860727Y-94507892D01*
X145860727Y-94507892D02*
X145989298Y-94507892D01*
X145989298Y-94507892D02*
X146075012Y-94550749D01*
X146075012Y-94550749D02*
X146117870Y-94593606D01*
X146117870Y-94593606D02*
X146160727Y-94679321D01*
X146160727Y-94679321D02*
X146160727Y-95022178D01*
X146160727Y-95022178D02*
X145260727Y-95022178D01*
X145260727Y-95022178D02*
X145260727Y-94722178D01*
X145260727Y-94722178D02*
X145303584Y-94636464D01*
X145303584Y-94636464D02*
X145346441Y-94593606D01*
X145346441Y-94593606D02*
X145432155Y-94550749D01*
X145432155Y-94550749D02*
X145517870Y-94550749D01*
X145517870Y-94550749D02*
X145603584Y-94593606D01*
X145603584Y-94593606D02*
X145646441Y-94636464D01*
X145646441Y-94636464D02*
X145689298Y-94722178D01*
X145689298Y-94722178D02*
X145689298Y-95022178D01*
X147566820Y-104236466D02*
X147609677Y-104107895D01*
X147609677Y-104107895D02*
X147609677Y-103893609D01*
X147609677Y-103893609D02*
X147566820Y-103807895D01*
X147566820Y-103807895D02*
X147523962Y-103765037D01*
X147523962Y-103765037D02*
X147438248Y-103722180D01*
X147438248Y-103722180D02*
X147352534Y-103722180D01*
X147352534Y-103722180D02*
X147266820Y-103765037D01*
X147266820Y-103765037D02*
X147223962Y-103807895D01*
X147223962Y-103807895D02*
X147181105Y-103893609D01*
X147181105Y-103893609D02*
X147138248Y-104065037D01*
X147138248Y-104065037D02*
X147095391Y-104150752D01*
X147095391Y-104150752D02*
X147052534Y-104193609D01*
X147052534Y-104193609D02*
X146966820Y-104236466D01*
X146966820Y-104236466D02*
X146881105Y-104236466D01*
X146881105Y-104236466D02*
X146795391Y-104193609D01*
X146795391Y-104193609D02*
X146752534Y-104150752D01*
X146752534Y-104150752D02*
X146709677Y-104065037D01*
X146709677Y-104065037D02*
X146709677Y-103850752D01*
X146709677Y-103850752D02*
X146752534Y-103722180D01*
X147609677Y-103336466D02*
X146709677Y-103336466D01*
X146709677Y-103336466D02*
X146709677Y-102993609D01*
X146709677Y-102993609D02*
X146752534Y-102907894D01*
X146752534Y-102907894D02*
X146795391Y-102865037D01*
X146795391Y-102865037D02*
X146881105Y-102822180D01*
X146881105Y-102822180D02*
X147009677Y-102822180D01*
X147009677Y-102822180D02*
X147095391Y-102865037D01*
X147095391Y-102865037D02*
X147138248Y-102907894D01*
X147138248Y-102907894D02*
X147181105Y-102993609D01*
X147181105Y-102993609D02*
X147181105Y-103336466D01*
X146795391Y-102479323D02*
X146752534Y-102436466D01*
X146752534Y-102436466D02*
X146709677Y-102350752D01*
X146709677Y-102350752D02*
X146709677Y-102136466D01*
X146709677Y-102136466D02*
X146752534Y-102050752D01*
X146752534Y-102050752D02*
X146795391Y-102007894D01*
X146795391Y-102007894D02*
X146881105Y-101965037D01*
X146881105Y-101965037D02*
X146966820Y-101965037D01*
X146966820Y-101965037D02*
X147095391Y-102007894D01*
X147095391Y-102007894D02*
X147609677Y-102522180D01*
X147609677Y-102522180D02*
X147609677Y-101965037D01*
X146709677Y-101193609D02*
X146709677Y-101365037D01*
X146709677Y-101365037D02*
X146752534Y-101450751D01*
X146752534Y-101450751D02*
X146795391Y-101493609D01*
X146795391Y-101493609D02*
X146923962Y-101579323D01*
X146923962Y-101579323D02*
X147095391Y-101622180D01*
X147095391Y-101622180D02*
X147438248Y-101622180D01*
X147438248Y-101622180D02*
X147523962Y-101579323D01*
X147523962Y-101579323D02*
X147566820Y-101536466D01*
X147566820Y-101536466D02*
X147609677Y-101450751D01*
X147609677Y-101450751D02*
X147609677Y-101279323D01*
X147609677Y-101279323D02*
X147566820Y-101193609D01*
X147566820Y-101193609D02*
X147523962Y-101150751D01*
X147523962Y-101150751D02*
X147438248Y-101107894D01*
X147438248Y-101107894D02*
X147223962Y-101107894D01*
X147223962Y-101107894D02*
X147138248Y-101150751D01*
X147138248Y-101150751D02*
X147095391Y-101193609D01*
X147095391Y-101193609D02*
X147052534Y-101279323D01*
X147052534Y-101279323D02*
X147052534Y-101450751D01*
X147052534Y-101450751D02*
X147095391Y-101536466D01*
X147095391Y-101536466D02*
X147138248Y-101579323D01*
X147138248Y-101579323D02*
X147223962Y-101622180D01*
X149058627Y-103765037D02*
X149058627Y-104193609D01*
X149058627Y-104193609D02*
X148158627Y-104193609D01*
X148458627Y-103079324D02*
X149058627Y-103079324D01*
X148458627Y-103465038D02*
X148930055Y-103465038D01*
X148930055Y-103465038D02*
X149015770Y-103422181D01*
X149015770Y-103422181D02*
X149058627Y-103336466D01*
X149058627Y-103336466D02*
X149058627Y-103207895D01*
X149058627Y-103207895D02*
X149015770Y-103122181D01*
X149015770Y-103122181D02*
X148972912Y-103079324D01*
X149058627Y-102265038D02*
X148158627Y-102265038D01*
X149015770Y-102265038D02*
X149058627Y-102350752D01*
X149058627Y-102350752D02*
X149058627Y-102522180D01*
X149058627Y-102522180D02*
X149015770Y-102607895D01*
X149015770Y-102607895D02*
X148972912Y-102650752D01*
X148972912Y-102650752D02*
X148887198Y-102693609D01*
X148887198Y-102693609D02*
X148630055Y-102693609D01*
X148630055Y-102693609D02*
X148544341Y-102650752D01*
X148544341Y-102650752D02*
X148501484Y-102607895D01*
X148501484Y-102607895D02*
X148458627Y-102522180D01*
X148458627Y-102522180D02*
X148458627Y-102350752D01*
X148458627Y-102350752D02*
X148501484Y-102265038D01*
X148458627Y-101922180D02*
X149058627Y-101707894D01*
X149058627Y-101707894D02*
X148458627Y-101493609D01*
X149058627Y-101150752D02*
X148458627Y-101150752D01*
X148158627Y-101150752D02*
X148201484Y-101193609D01*
X148201484Y-101193609D02*
X148244341Y-101150752D01*
X148244341Y-101150752D02*
X148201484Y-101107895D01*
X148201484Y-101107895D02*
X148158627Y-101150752D01*
X148158627Y-101150752D02*
X148244341Y-101150752D01*
X148458627Y-100336467D02*
X149187198Y-100336467D01*
X149187198Y-100336467D02*
X149272912Y-100379324D01*
X149272912Y-100379324D02*
X149315770Y-100422181D01*
X149315770Y-100422181D02*
X149358627Y-100507895D01*
X149358627Y-100507895D02*
X149358627Y-100636467D01*
X149358627Y-100636467D02*
X149315770Y-100722181D01*
X149015770Y-100336467D02*
X149058627Y-100422181D01*
X149058627Y-100422181D02*
X149058627Y-100593609D01*
X149058627Y-100593609D02*
X149015770Y-100679324D01*
X149015770Y-100679324D02*
X148972912Y-100722181D01*
X148972912Y-100722181D02*
X148887198Y-100765038D01*
X148887198Y-100765038D02*
X148630055Y-100765038D01*
X148630055Y-100765038D02*
X148544341Y-100722181D01*
X148544341Y-100722181D02*
X148501484Y-100679324D01*
X148501484Y-100679324D02*
X148458627Y-100593609D01*
X148458627Y-100593609D02*
X148458627Y-100422181D01*
X148458627Y-100422181D02*
X148501484Y-100336467D01*
X148587198Y-98922181D02*
X148587198Y-99222181D01*
X149058627Y-99222181D02*
X148158627Y-99222181D01*
X148158627Y-99222181D02*
X148158627Y-98793609D01*
X149015770Y-98107895D02*
X149058627Y-98193609D01*
X149058627Y-98193609D02*
X149058627Y-98365038D01*
X149058627Y-98365038D02*
X149015770Y-98450752D01*
X149015770Y-98450752D02*
X148930055Y-98493609D01*
X148930055Y-98493609D02*
X148587198Y-98493609D01*
X148587198Y-98493609D02*
X148501484Y-98450752D01*
X148501484Y-98450752D02*
X148458627Y-98365038D01*
X148458627Y-98365038D02*
X148458627Y-98193609D01*
X148458627Y-98193609D02*
X148501484Y-98107895D01*
X148501484Y-98107895D02*
X148587198Y-98065038D01*
X148587198Y-98065038D02*
X148672912Y-98065038D01*
X148672912Y-98065038D02*
X148758627Y-98493609D01*
X149058627Y-97550751D02*
X149015770Y-97636466D01*
X149015770Y-97636466D02*
X148930055Y-97679323D01*
X148930055Y-97679323D02*
X148158627Y-97679323D01*
X149058627Y-97079322D02*
X149015770Y-97165037D01*
X149015770Y-97165037D02*
X148930055Y-97207894D01*
X148930055Y-97207894D02*
X148158627Y-97207894D01*
X149015770Y-96779322D02*
X149058627Y-96693608D01*
X149058627Y-96693608D02*
X149058627Y-96522179D01*
X149058627Y-96522179D02*
X149015770Y-96436465D01*
X149015770Y-96436465D02*
X148930055Y-96393608D01*
X148930055Y-96393608D02*
X148887198Y-96393608D01*
X148887198Y-96393608D02*
X148801484Y-96436465D01*
X148801484Y-96436465D02*
X148758627Y-96522179D01*
X148758627Y-96522179D02*
X148758627Y-96650751D01*
X148758627Y-96650751D02*
X148715770Y-96736465D01*
X148715770Y-96736465D02*
X148630055Y-96779322D01*
X148630055Y-96779322D02*
X148587198Y-96779322D01*
X148587198Y-96779322D02*
X148501484Y-96736465D01*
X148501484Y-96736465D02*
X148458627Y-96650751D01*
X148458627Y-96650751D02*
X148458627Y-96522179D01*
X148458627Y-96522179D02*
X148501484Y-96436465D01*
X148458627Y-96136465D02*
X148458627Y-95793608D01*
X148158627Y-96007894D02*
X148930055Y-96007894D01*
X148930055Y-96007894D02*
X149015770Y-95965037D01*
X149015770Y-95965037D02*
X149058627Y-95879322D01*
X149058627Y-95879322D02*
X149058627Y-95793608D01*
X149058627Y-95493608D02*
X148458627Y-95493608D01*
X148630055Y-95493608D02*
X148544341Y-95450751D01*
X148544341Y-95450751D02*
X148501484Y-95407894D01*
X148501484Y-95407894D02*
X148458627Y-95322179D01*
X148458627Y-95322179D02*
X148458627Y-95236465D01*
X149058627Y-94807893D02*
X149015770Y-94893608D01*
X149015770Y-94893608D02*
X148972912Y-94936465D01*
X148972912Y-94936465D02*
X148887198Y-94979322D01*
X148887198Y-94979322D02*
X148630055Y-94979322D01*
X148630055Y-94979322D02*
X148544341Y-94936465D01*
X148544341Y-94936465D02*
X148501484Y-94893608D01*
X148501484Y-94893608D02*
X148458627Y-94807893D01*
X148458627Y-94807893D02*
X148458627Y-94679322D01*
X148458627Y-94679322D02*
X148501484Y-94593608D01*
X148501484Y-94593608D02*
X148544341Y-94550751D01*
X148544341Y-94550751D02*
X148630055Y-94507893D01*
X148630055Y-94507893D02*
X148887198Y-94507893D01*
X148887198Y-94507893D02*
X148972912Y-94550751D01*
X148972912Y-94550751D02*
X149015770Y-94593608D01*
X149015770Y-94593608D02*
X149058627Y-94679322D01*
X149058627Y-94679322D02*
X149058627Y-94807893D01*
X149058627Y-94122179D02*
X148458627Y-94122179D01*
X148544341Y-94122179D02*
X148501484Y-94079322D01*
X148501484Y-94079322D02*
X148458627Y-93993607D01*
X148458627Y-93993607D02*
X148458627Y-93865036D01*
X148458627Y-93865036D02*
X148501484Y-93779322D01*
X148501484Y-93779322D02*
X148587198Y-93736465D01*
X148587198Y-93736465D02*
X149058627Y-93736465D01*
X148587198Y-93736465D02*
X148501484Y-93693607D01*
X148501484Y-93693607D02*
X148458627Y-93607893D01*
X148458627Y-93607893D02*
X148458627Y-93479322D01*
X148458627Y-93479322D02*
X148501484Y-93393607D01*
X148501484Y-93393607D02*
X148587198Y-93350750D01*
X148587198Y-93350750D02*
X149058627Y-93350750D01*
X150507577Y-103765037D02*
X150507577Y-104193609D01*
X150507577Y-104193609D02*
X149607577Y-104193609D01*
X150507577Y-103465038D02*
X149907577Y-103465038D01*
X149607577Y-103465038D02*
X149650434Y-103507895D01*
X149650434Y-103507895D02*
X149693291Y-103465038D01*
X149693291Y-103465038D02*
X149650434Y-103422181D01*
X149650434Y-103422181D02*
X149607577Y-103465038D01*
X149607577Y-103465038D02*
X149693291Y-103465038D01*
X149907577Y-103036467D02*
X150507577Y-103036467D01*
X149993291Y-103036467D02*
X149950434Y-102993610D01*
X149950434Y-102993610D02*
X149907577Y-102907895D01*
X149907577Y-102907895D02*
X149907577Y-102779324D01*
X149907577Y-102779324D02*
X149950434Y-102693610D01*
X149950434Y-102693610D02*
X150036148Y-102650753D01*
X150036148Y-102650753D02*
X150507577Y-102650753D01*
X149907577Y-102222181D02*
X150507577Y-102222181D01*
X149993291Y-102222181D02*
X149950434Y-102179324D01*
X149950434Y-102179324D02*
X149907577Y-102093609D01*
X149907577Y-102093609D02*
X149907577Y-101965038D01*
X149907577Y-101965038D02*
X149950434Y-101879324D01*
X149950434Y-101879324D02*
X150036148Y-101836467D01*
X150036148Y-101836467D02*
X150507577Y-101836467D01*
X150464720Y-101065038D02*
X150507577Y-101150752D01*
X150507577Y-101150752D02*
X150507577Y-101322181D01*
X150507577Y-101322181D02*
X150464720Y-101407895D01*
X150464720Y-101407895D02*
X150379005Y-101450752D01*
X150379005Y-101450752D02*
X150036148Y-101450752D01*
X150036148Y-101450752D02*
X149950434Y-101407895D01*
X149950434Y-101407895D02*
X149907577Y-101322181D01*
X149907577Y-101322181D02*
X149907577Y-101150752D01*
X149907577Y-101150752D02*
X149950434Y-101065038D01*
X149950434Y-101065038D02*
X150036148Y-101022181D01*
X150036148Y-101022181D02*
X150121862Y-101022181D01*
X150121862Y-101022181D02*
X150207577Y-101450752D01*
X150507577Y-100250752D02*
X150036148Y-100250752D01*
X150036148Y-100250752D02*
X149950434Y-100293609D01*
X149950434Y-100293609D02*
X149907577Y-100379323D01*
X149907577Y-100379323D02*
X149907577Y-100550752D01*
X149907577Y-100550752D02*
X149950434Y-100636466D01*
X150464720Y-100250752D02*
X150507577Y-100336466D01*
X150507577Y-100336466D02*
X150507577Y-100550752D01*
X150507577Y-100550752D02*
X150464720Y-100636466D01*
X150464720Y-100636466D02*
X150379005Y-100679323D01*
X150379005Y-100679323D02*
X150293291Y-100679323D01*
X150293291Y-100679323D02*
X150207577Y-100636466D01*
X150207577Y-100636466D02*
X150164720Y-100550752D01*
X150164720Y-100550752D02*
X150164720Y-100336466D01*
X150164720Y-100336466D02*
X150121862Y-100250752D01*
X150036148Y-98836466D02*
X150036148Y-99136466D01*
X150507577Y-99136466D02*
X149607577Y-99136466D01*
X149607577Y-99136466D02*
X149607577Y-98707894D01*
X149907577Y-97979323D02*
X150507577Y-97979323D01*
X149907577Y-98365037D02*
X150379005Y-98365037D01*
X150379005Y-98365037D02*
X150464720Y-98322180D01*
X150464720Y-98322180D02*
X150507577Y-98236465D01*
X150507577Y-98236465D02*
X150507577Y-98107894D01*
X150507577Y-98107894D02*
X150464720Y-98022180D01*
X150464720Y-98022180D02*
X150421862Y-97979323D01*
X150507577Y-97550751D02*
X149907577Y-97550751D01*
X150079005Y-97550751D02*
X149993291Y-97507894D01*
X149993291Y-97507894D02*
X149950434Y-97465037D01*
X149950434Y-97465037D02*
X149907577Y-97379322D01*
X149907577Y-97379322D02*
X149907577Y-97293608D01*
X150507577Y-96865036D02*
X150464720Y-96950751D01*
X150464720Y-96950751D02*
X150379005Y-96993608D01*
X150379005Y-96993608D02*
X149607577Y-96993608D01*
X150507577Y-96136465D02*
X150036148Y-96136465D01*
X150036148Y-96136465D02*
X149950434Y-96179322D01*
X149950434Y-96179322D02*
X149907577Y-96265036D01*
X149907577Y-96265036D02*
X149907577Y-96436465D01*
X149907577Y-96436465D02*
X149950434Y-96522179D01*
X150464720Y-96136465D02*
X150507577Y-96222179D01*
X150507577Y-96222179D02*
X150507577Y-96436465D01*
X150507577Y-96436465D02*
X150464720Y-96522179D01*
X150464720Y-96522179D02*
X150379005Y-96565036D01*
X150379005Y-96565036D02*
X150293291Y-96565036D01*
X150293291Y-96565036D02*
X150207577Y-96522179D01*
X150207577Y-96522179D02*
X150164720Y-96436465D01*
X150164720Y-96436465D02*
X150164720Y-96222179D01*
X150164720Y-96222179D02*
X150121862Y-96136465D01*
X149907577Y-95707893D02*
X150507577Y-95707893D01*
X149993291Y-95707893D02*
X149950434Y-95665036D01*
X149950434Y-95665036D02*
X149907577Y-95579321D01*
X149907577Y-95579321D02*
X149907577Y-95450750D01*
X149907577Y-95450750D02*
X149950434Y-95365036D01*
X149950434Y-95365036D02*
X150036148Y-95322179D01*
X150036148Y-95322179D02*
X150507577Y-95322179D01*
D10*
X132822419Y-82066353D02*
X133822419Y-81399687D01*
X132822419Y-81399687D02*
X133822419Y-82066353D01*
X133298609Y-80685401D02*
X133346228Y-80542544D01*
X133346228Y-80542544D02*
X133393847Y-80494925D01*
X133393847Y-80494925D02*
X133489085Y-80447306D01*
X133489085Y-80447306D02*
X133631942Y-80447306D01*
X133631942Y-80447306D02*
X133727180Y-80494925D01*
X133727180Y-80494925D02*
X133774800Y-80542544D01*
X133774800Y-80542544D02*
X133822419Y-80637782D01*
X133822419Y-80637782D02*
X133822419Y-81018734D01*
X133822419Y-81018734D02*
X132822419Y-81018734D01*
X132822419Y-81018734D02*
X132822419Y-80685401D01*
X132822419Y-80685401D02*
X132870038Y-80590163D01*
X132870038Y-80590163D02*
X132917657Y-80542544D01*
X132917657Y-80542544D02*
X133012895Y-80494925D01*
X133012895Y-80494925D02*
X133108133Y-80494925D01*
X133108133Y-80494925D02*
X133203371Y-80542544D01*
X133203371Y-80542544D02*
X133250990Y-80590163D01*
X133250990Y-80590163D02*
X133298609Y-80685401D01*
X133298609Y-80685401D02*
X133298609Y-81018734D01*
X133774800Y-79637782D02*
X133822419Y-79733020D01*
X133822419Y-79733020D02*
X133822419Y-79923496D01*
X133822419Y-79923496D02*
X133774800Y-80018734D01*
X133774800Y-80018734D02*
X133679561Y-80066353D01*
X133679561Y-80066353D02*
X133298609Y-80066353D01*
X133298609Y-80066353D02*
X133203371Y-80018734D01*
X133203371Y-80018734D02*
X133155752Y-79923496D01*
X133155752Y-79923496D02*
X133155752Y-79733020D01*
X133155752Y-79733020D02*
X133203371Y-79637782D01*
X133203371Y-79637782D02*
X133298609Y-79590163D01*
X133298609Y-79590163D02*
X133393847Y-79590163D01*
X133393847Y-79590163D02*
X133489085Y-80066353D01*
X133774800Y-78780639D02*
X133822419Y-78875877D01*
X133822419Y-78875877D02*
X133822419Y-79066353D01*
X133822419Y-79066353D02*
X133774800Y-79161591D01*
X133774800Y-79161591D02*
X133679561Y-79209210D01*
X133679561Y-79209210D02*
X133298609Y-79209210D01*
X133298609Y-79209210D02*
X133203371Y-79161591D01*
X133203371Y-79161591D02*
X133155752Y-79066353D01*
X133155752Y-79066353D02*
X133155752Y-78875877D01*
X133155752Y-78875877D02*
X133203371Y-78780639D01*
X133203371Y-78780639D02*
X133298609Y-78733020D01*
X133298609Y-78733020D02*
X133393847Y-78733020D01*
X133393847Y-78733020D02*
X133489085Y-79209210D01*
D12*
%TO.C,L1*%
X98950000Y-83050000D02*
X105550000Y-83050000D01*
X98950000Y-84750000D02*
X98950000Y-83050000D01*
X98950000Y-89450000D02*
X98950000Y-87750000D01*
X105550000Y-83050000D02*
X105550000Y-84750000D01*
X105550000Y-87750000D02*
X105550000Y-89450000D01*
X105550000Y-89450000D02*
X98950000Y-89450000D01*
D13*
%TO.C,PWR_SW1*%
X107925000Y-68175000D02*
X113675000Y-68175000D01*
X107925000Y-78075000D02*
X107925000Y-68175000D01*
X113675000Y-68175000D02*
X113675000Y-78075000D01*
X113675000Y-78075000D02*
X107925000Y-78075000D01*
D14*
X111425000Y-67375000D02*
G75*
G02*
X111225000Y-67375000I-100000J0D01*
G01*
X111225000Y-67375000D02*
G75*
G02*
X111425000Y-67375000I100000J0D01*
G01*
D10*
%TO.C,U2*%
X114600000Y-67400000D02*
X150600000Y-67400000D01*
X114600000Y-92400000D02*
X114600000Y-67400000D01*
X150600000Y-67400000D02*
X150600000Y-92400000D01*
X150600000Y-92400000D02*
X114600000Y-92400000D01*
D12*
%TO.C,C4*%
X94490000Y-89646267D02*
X94490000Y-89353733D01*
X95510000Y-89646267D02*
X95510000Y-89353733D01*
%TO.C,U3*%
X93250000Y-82690000D02*
X92450000Y-82690000D01*
X93250000Y-82690000D02*
X94050000Y-82690000D01*
X93250000Y-85810000D02*
X92450000Y-85810000D01*
X93250000Y-85810000D02*
X94050000Y-85810000D01*
X94790000Y-86090000D02*
X94310000Y-86090000D01*
X94550000Y-85760000D01*
X94790000Y-86090000D01*
G36*
X94790000Y-86090000D02*
G01*
X94310000Y-86090000D01*
X94550000Y-85760000D01*
X94790000Y-86090000D01*
G37*
%TO.C,C1*%
X91090000Y-89288748D02*
X91090000Y-90711252D01*
X92910000Y-89288748D02*
X92910000Y-90711252D01*
%TO.C,R_Buck_3*%
X96477500Y-84087742D02*
X96477500Y-84562258D01*
X97522500Y-84087742D02*
X97522500Y-84562258D01*
%TO.C,U1*%
X90800000Y-101055000D02*
X91620000Y-101055000D01*
X90800000Y-109275000D02*
X90800000Y-101055000D01*
X90800000Y-109275000D02*
X91620000Y-109275000D01*
X91620000Y-101055000D02*
X91620000Y-101265000D01*
X91620000Y-101265000D02*
X93016000Y-101265000D01*
X91620000Y-109065000D02*
X93016000Y-109065000D01*
X91620000Y-109275000D02*
X91620000Y-109065000D01*
X92100000Y-95165000D02*
X92100000Y-97655000D01*
X92100000Y-97655000D02*
X93013520Y-97655000D01*
X92100000Y-99002939D02*
X92100000Y-97655000D01*
X92100000Y-100930000D02*
X92100000Y-99927061D01*
X92100000Y-109400000D02*
X92100000Y-100930000D01*
X92100000Y-110402939D02*
X92100000Y-109400000D01*
X92100000Y-112675000D02*
X92100000Y-111327060D01*
X92100000Y-112675000D02*
X93013520Y-112675000D01*
X92100000Y-115165000D02*
X92100000Y-112675000D01*
X92163000Y-115435000D02*
X143257000Y-115435000D01*
X92710000Y-94555000D02*
X142710000Y-94555000D01*
X92710000Y-115775000D02*
X142710000Y-115775000D01*
X94380000Y-116095000D02*
X92780000Y-116095000D01*
X95404000Y-101265000D02*
X96620000Y-101265000D01*
X95404000Y-109065000D02*
X96620000Y-109065000D01*
X95406480Y-97655000D02*
X140013520Y-97655000D01*
X95406480Y-112675000D02*
X140013520Y-112675000D01*
X96620000Y-101265000D02*
X96620000Y-109065000D01*
X142406480Y-97655000D02*
X143320000Y-97655000D01*
X142406480Y-112675000D02*
X143320000Y-112675000D01*
X143257000Y-94895000D02*
X92163000Y-94895000D01*
X143320000Y-99002939D02*
X143320000Y-95165000D01*
X143320000Y-99927061D02*
X143320000Y-101565000D01*
X143320000Y-101565000D02*
X143320000Y-108765000D01*
X143320000Y-108765000D02*
X143320000Y-110402939D01*
X143320000Y-115165000D02*
X143320000Y-111327061D01*
X92100000Y-95165000D02*
G75*
G02*
X92710000Y-94555000I610000J0D01*
G01*
X92710000Y-115775000D02*
G75*
G02*
X92100000Y-115165000I0J610000D01*
G01*
X142710000Y-94555000D02*
G75*
G02*
X143320000Y-95165000I0J-610000D01*
G01*
X143320000Y-115165000D02*
G75*
G02*
X142710000Y-115775000I-609901J-99D01*
G01*
%TO.C,R1*%
X111909420Y-79840000D02*
X112190580Y-79840000D01*
X111909420Y-80860000D02*
X112190580Y-80860000D01*
D13*
%TO.C,D1*%
X107850000Y-82800000D02*
X113600000Y-82800000D01*
X107850000Y-90200000D02*
X107850000Y-82800000D01*
X113600000Y-82800000D02*
X113600000Y-90200000D01*
X113600000Y-90200000D02*
X107850000Y-90200000D01*
D14*
X111350000Y-82060000D02*
G75*
G02*
X111150000Y-82060000I-100000J0D01*
G01*
X111150000Y-82060000D02*
G75*
G02*
X111350000Y-82060000I100000J0D01*
G01*
D15*
%TO.C,G\u002A\u002A\u002A*%
G36*
X147881721Y-107953033D02*
G01*
X148017944Y-107967611D01*
X148107858Y-107984924D01*
X148163467Y-108015760D01*
X148196772Y-108070903D01*
X148219777Y-108161139D01*
X148240556Y-108275484D01*
X148263544Y-108400253D01*
X148284335Y-108507028D01*
X148299721Y-108579596D01*
X148304153Y-108597197D01*
X148303389Y-108620520D01*
X148274430Y-108616741D01*
X148208967Y-108583482D01*
X148162722Y-108556691D01*
X147847396Y-108402266D01*
X147485916Y-108284167D01*
X147078174Y-108202358D01*
X147049514Y-108198218D01*
X147019171Y-108189315D01*
X147025237Y-108172331D01*
X147073605Y-108142119D01*
X147168331Y-108094422D01*
X147423249Y-107997407D01*
X147678964Y-107951237D01*
X147881721Y-107953033D01*
G37*
G36*
X147579483Y-104974624D02*
G01*
X147726439Y-104993620D01*
X147839279Y-105023471D01*
X148069093Y-105139869D01*
X148295170Y-105311045D01*
X148514474Y-105532917D01*
X148723971Y-105801404D01*
X148920624Y-106112422D01*
X149101399Y-106461891D01*
X149263261Y-106845727D01*
X149328215Y-107025935D01*
X149448741Y-107417610D01*
X149534824Y-107786258D01*
X149585615Y-108126275D01*
X149600260Y-108432057D01*
X149580194Y-108683988D01*
X149556704Y-108809565D01*
X149527052Y-108938512D01*
X149512272Y-108993026D01*
X149470924Y-109133836D01*
X149450609Y-108883662D01*
X149433382Y-108710786D01*
X149411439Y-108548970D01*
X149386983Y-108411173D01*
X149362215Y-108310356D01*
X149346293Y-108269492D01*
X149323072Y-108271162D01*
X149281327Y-108327797D01*
X149220815Y-108439737D01*
X149210359Y-108460801D01*
X149113591Y-108631255D01*
X148994064Y-108787878D01*
X148883772Y-108905736D01*
X148792763Y-108994870D01*
X148716245Y-109065734D01*
X148664066Y-109109442D01*
X148647356Y-109119120D01*
X148637922Y-109091301D01*
X148618485Y-109012104D01*
X148590344Y-108887923D01*
X148554800Y-108725149D01*
X148513152Y-108530173D01*
X148466700Y-108309389D01*
X148416743Y-108069188D01*
X148364582Y-107815961D01*
X148311517Y-107556102D01*
X148258846Y-107296002D01*
X148207870Y-107042052D01*
X148159888Y-106800646D01*
X148116200Y-106578175D01*
X148078107Y-106381031D01*
X148046908Y-106215606D01*
X148023902Y-106088292D01*
X148010389Y-106005481D01*
X148007669Y-105973566D01*
X148007720Y-105973504D01*
X148033771Y-105985150D01*
X148091625Y-106026376D01*
X148166760Y-106086615D01*
X148254244Y-106154910D01*
X148301700Y-106180473D01*
X148308496Y-106163807D01*
X148274005Y-106105413D01*
X148225087Y-106040142D01*
X148066968Y-105877877D01*
X147882326Y-105753217D01*
X147685052Y-105674616D01*
X147594605Y-105656353D01*
X147477877Y-105652996D01*
X147388659Y-105681952D01*
X147324630Y-105747784D01*
X147283472Y-105855055D01*
X147262865Y-106008332D01*
X147260488Y-106212176D01*
X147264022Y-106306791D01*
X147272084Y-106449145D01*
X147281469Y-106572701D01*
X147290998Y-106664004D01*
X147299296Y-106709113D01*
X147337572Y-106743150D01*
X147419597Y-106780419D01*
X147503320Y-106806943D01*
X147689664Y-106864925D01*
X147838630Y-106926824D01*
X147943775Y-106989327D01*
X147998653Y-107049120D01*
X148004022Y-107064397D01*
X148036591Y-107220531D01*
X148067053Y-107376512D01*
X148093516Y-107521443D01*
X148114091Y-107644429D01*
X148126889Y-107734572D01*
X148130018Y-107780977D01*
X148128941Y-107784613D01*
X148095474Y-107783892D01*
X148025383Y-107766470D01*
X147972061Y-107749257D01*
X147837630Y-107716170D01*
X147666744Y-107693578D01*
X147481072Y-107682662D01*
X147302280Y-107684600D01*
X147152038Y-107700575D01*
X147135898Y-107703710D01*
X146986622Y-107746382D01*
X146818479Y-107812505D01*
X146655407Y-107891376D01*
X146521345Y-107972295D01*
X146499624Y-107988161D01*
X146418972Y-108042652D01*
X146371332Y-108051526D01*
X146348535Y-108011228D01*
X146342421Y-107919757D01*
X146315883Y-107675715D01*
X146236854Y-107429416D01*
X146206973Y-107362729D01*
X146166097Y-107271889D01*
X146149741Y-107214891D01*
X146155594Y-107173183D01*
X146178343Y-107132772D01*
X146308369Y-106984439D01*
X146479724Y-106864505D01*
X146678462Y-106781135D01*
X146836233Y-106747621D01*
X146927706Y-106733000D01*
X146971454Y-106715295D01*
X146978575Y-106689125D01*
X146975689Y-106679993D01*
X146936415Y-106558752D01*
X146895352Y-106399621D01*
X146857141Y-106223220D01*
X146826424Y-106050171D01*
X146814318Y-105963163D01*
X146799858Y-105738487D01*
X146811412Y-105533079D01*
X146847655Y-105360260D01*
X146882976Y-105273328D01*
X146960843Y-105163315D01*
X147065254Y-105065700D01*
X147173400Y-105001682D01*
X147176517Y-105000482D01*
X147282898Y-104977306D01*
X147424428Y-104968936D01*
X147579483Y-104974624D01*
G37*
D12*
%TO.C,J1*%
X97250000Y-67490000D02*
X103400000Y-67490000D01*
X97250000Y-81510000D02*
X103400000Y-81510000D01*
X104500000Y-67200000D02*
X103300000Y-67200000D01*
X106510000Y-67490000D02*
X105900000Y-67490000D01*
X106510000Y-67490000D02*
X106510000Y-81510000D01*
X106510000Y-81510000D02*
X105900000Y-81510000D01*
%TO.C,C2*%
X103941233Y-90990000D02*
X104233767Y-90990000D01*
X103941233Y-92010000D02*
X104233767Y-92010000D01*
%TO.C,R3*%
X100314564Y-90765000D02*
X99860436Y-90765000D01*
X100314564Y-92235000D02*
X99860436Y-92235000D01*
%TO.C,C3*%
X96490000Y-89646267D02*
X96490000Y-89353733D01*
X97510000Y-89646267D02*
X97510000Y-89353733D01*
%TD*%
%LPC*%
D16*
%TO.C,L1*%
X105000000Y-86250000D03*
X99500000Y-86250000D03*
%TD*%
D17*
%TO.C,PWR_SW1*%
X111325000Y-70625000D03*
D18*
X111325000Y-73125000D03*
X111325000Y-75625000D03*
%TD*%
D19*
%TO.C,U2*%
X139600000Y-68900000D03*
X137600000Y-68900000D03*
X135600000Y-68900000D03*
X133600000Y-68900000D03*
X131600000Y-68900000D03*
X129600000Y-68900000D03*
X127600000Y-68900000D03*
X125600000Y-68900000D03*
X123600000Y-68900000D03*
X121600000Y-68900000D03*
X121600000Y-90900000D03*
X123600000Y-90900000D03*
X125600000Y-90900000D03*
X127600000Y-90900000D03*
X129600000Y-90900000D03*
X131600000Y-90900000D03*
X133600000Y-90900000D03*
X135600000Y-90900000D03*
X137600000Y-90900000D03*
X139600000Y-90900000D03*
%TD*%
D20*
%TO.C,C4*%
X95000000Y-90362500D03*
X95000000Y-88637500D03*
%TD*%
D21*
%TO.C,U3*%
X94387500Y-85200000D03*
X94387500Y-84250000D03*
X94387500Y-83300000D03*
X92112500Y-83300000D03*
X92112500Y-84250000D03*
X92112500Y-85200000D03*
%TD*%
D22*
%TO.C,H1*%
X120000000Y-75000000D03*
%TD*%
D23*
%TO.C,C1*%
X92000000Y-88437500D03*
X92000000Y-91562500D03*
%TD*%
D24*
%TO.C,R_Buck_3*%
X97000000Y-83500000D03*
X97000000Y-85150000D03*
%TD*%
D25*
%TO.C,U1*%
X93580000Y-114055000D03*
D26*
X96120000Y-114055000D03*
D27*
X98660000Y-114055000D03*
D26*
X101200000Y-114055000D03*
X103740000Y-114055000D03*
X106280000Y-114055000D03*
X108820000Y-114055000D03*
D27*
X111360000Y-114055000D03*
D26*
X113900000Y-114055000D03*
X116440000Y-114055000D03*
X118980000Y-114055000D03*
X121520000Y-114055000D03*
D27*
X124060000Y-114055000D03*
D26*
X126600000Y-114055000D03*
X129140000Y-114055000D03*
X131680000Y-114055000D03*
X134220000Y-114055000D03*
D27*
X136760000Y-114055000D03*
D26*
X139300000Y-114055000D03*
X141840000Y-114055000D03*
X141840000Y-96275000D03*
X139300000Y-96275000D03*
D28*
X136760000Y-96275000D03*
D26*
X134220000Y-96275000D03*
X131680000Y-96275000D03*
X129140000Y-96275000D03*
X126600000Y-96275000D03*
D28*
X124060000Y-96275000D03*
D26*
X121520000Y-96275000D03*
X118980000Y-96275000D03*
X116440000Y-96275000D03*
X113900000Y-96275000D03*
D28*
X111360000Y-96275000D03*
D26*
X108820000Y-96275000D03*
X106280000Y-96275000D03*
X103740000Y-96275000D03*
X101200000Y-96275000D03*
D28*
X98660000Y-96275000D03*
D26*
X96120000Y-96275000D03*
X93580000Y-96275000D03*
%TD*%
D29*
%TO.C,R1*%
X111275000Y-80350000D03*
X112825000Y-80350000D03*
%TD*%
D30*
%TO.C,D1*%
X111250000Y-85250000D03*
D31*
X111250000Y-87750000D03*
%TD*%
D32*
%TO.C,J1*%
X103900000Y-71000000D03*
D33*
X103900000Y-73500000D03*
X103900000Y-75500000D03*
X103900000Y-78000000D03*
X105400000Y-78500000D03*
X105400000Y-76500000D03*
X105400000Y-74500000D03*
X105400000Y-72500000D03*
X105400000Y-70500000D03*
D34*
X104650000Y-68100000D03*
D35*
X96150000Y-68100000D03*
D34*
X104650000Y-80900000D03*
D35*
X96150000Y-80900000D03*
%TD*%
D36*
%TO.C,C2*%
X103225000Y-91500000D03*
X104950000Y-91500000D03*
%TD*%
D37*
%TO.C,R3*%
X101000000Y-91500000D03*
X99175000Y-91500000D03*
%TD*%
D22*
%TO.C,H2*%
X148000000Y-113000000D03*
%TD*%
D20*
%TO.C,C3*%
X97000000Y-90362500D03*
X97000000Y-88637500D03*
%TD*%
%LPD*%
M02*
