%TF.GenerationSoftware,KiCad,Pcbnew,9.0.3*%
%TF.CreationDate,2026-05-06T23:48:05-04:00*%
%TF.ProjectId,controller_pcb,636f6e74-726f-46c6-9c65-725f7063622e,rev?*%
%TF.SameCoordinates,Original*%
%TF.FileFunction,Legend,Bot*%
%TF.FilePolarity,Positive*%
%FSLAX46Y46*%
G04 Gerber Fmt 4.6, Leading zero omitted, Abs format (unit mm)*
G04 Created by KiCad (PCBNEW 9.0.3) date 2026-05-06 23:48:05*
%MOMM*%
%LPD*%
G01*
G04 APERTURE LIST*
G04 Aperture macros list*
%AMRoundRect*
0 Rectangle with rounded corners*
0 $1 Rounding radius*
0 $2 $3 $4 $5 $6 $7 $8 $9 X,Y pos of 4 corners*
0 Add a 4 corners polygon primitive as box body*
4,1,4,$2,$3,$4,$5,$6,$7,$8,$9,$2,$3,0*
0 Add four circle primitives for the rounded corners*
1,1,$1+$1,$2,$3*
1,1,$1+$1,$4,$5*
1,1,$1+$1,$6,$7*
1,1,$1+$1,$8,$9*
0 Add four rect primitives between the rounded corners*
20,1,$1+$1,$2,$3,$4,$5,0*
20,1,$1+$1,$4,$5,$6,$7,0*
20,1,$1+$1,$6,$7,$8,$9,0*
20,1,$1+$1,$8,$9,$2,$3,0*%
%AMFreePoly0*
4,1,37,0.603843,0.796157,0.639018,0.796157,0.711114,0.766294,0.766294,0.711114,0.796157,0.639018,0.796157,0.603843,0.800000,0.600000,0.800000,-0.600000,0.796157,-0.603843,0.796157,-0.639018,0.766294,-0.711114,0.711114,-0.766294,0.639018,-0.796157,0.603843,-0.796157,0.600000,-0.800000,0.000000,-0.800000,0.000000,-0.796148,-0.078414,-0.796148,-0.232228,-0.765552,-0.377117,-0.705537,
-0.507515,-0.618408,-0.618408,-0.507515,-0.705537,-0.377117,-0.765552,-0.232228,-0.796148,-0.078414,-0.796148,0.078414,-0.765552,0.232228,-0.705537,0.377117,-0.618408,0.507515,-0.507515,0.618408,-0.377117,0.705537,-0.232228,0.765552,-0.078414,0.796148,0.000000,0.796148,0.000000,0.800000,0.600000,0.800000,0.603843,0.796157,0.603843,0.796157,$1*%
%AMFreePoly1*
4,1,37,0.000000,0.796148,0.078414,0.796148,0.232228,0.765552,0.377117,0.705537,0.507515,0.618408,0.618408,0.507515,0.705537,0.377117,0.765552,0.232228,0.796148,0.078414,0.796148,-0.078414,0.765552,-0.232228,0.705537,-0.377117,0.618408,-0.507515,0.507515,-0.618408,0.377117,-0.705537,0.232228,-0.765552,0.078414,-0.796148,0.000000,-0.796148,0.000000,-0.800000,-0.600000,-0.800000,
-0.603843,-0.796157,-0.639018,-0.796157,-0.711114,-0.766294,-0.766294,-0.711114,-0.796157,-0.639018,-0.796157,-0.603843,-0.800000,-0.600000,-0.800000,0.600000,-0.796157,0.603843,-0.796157,0.639018,-0.766294,0.711114,-0.711114,0.766294,-0.639018,0.796157,-0.603843,0.796157,-0.600000,0.800000,0.000000,0.800000,0.000000,0.796148,0.000000,0.796148,$1*%
G04 Aperture macros list end*
%ADD10RoundRect,0.102000X0.754000X-0.754000X0.754000X0.754000X-0.754000X0.754000X-0.754000X-0.754000X0*%
%ADD11C,1.712000*%
%ADD12C,1.700000*%
%ADD13C,3.200000*%
%ADD14RoundRect,0.200000X0.600000X-0.600000X0.600000X0.600000X-0.600000X0.600000X-0.600000X-0.600000X0*%
%ADD15C,1.600000*%
%ADD16FreePoly0,90.000000*%
%ADD17FreePoly1,90.000000*%
%ADD18RoundRect,0.102000X0.787500X-0.787500X0.787500X0.787500X-0.787500X0.787500X-0.787500X-0.787500X0*%
%ADD19C,1.779000*%
%ADD20RoundRect,0.250000X-0.350000X0.350000X-0.350000X-0.350000X0.350000X-0.350000X0.350000X0.350000X0*%
%ADD21C,1.200000*%
%ADD22O,2.400000X1.200000*%
%ADD23O,2.100000X1.200000*%
G04 APERTURE END LIST*
%LPC*%
D10*
%TO.C,PWR_SW1*%
X111325000Y-70625000D03*
D11*
X111325000Y-73125000D03*
X111325000Y-75625000D03*
%TD*%
D12*
%TO.C,U2*%
X139600000Y-68900000D03*
X137600000Y-68900000D03*
X135600000Y-68900000D03*
X133600000Y-68900000D03*
X131600000Y-68900000D03*
X129600000Y-68900000D03*
X127600000Y-68900000D03*
X125600000Y-68900000D03*
X123600000Y-68900000D03*
X121600000Y-68900000D03*
X121600000Y-90900000D03*
X123600000Y-90900000D03*
X125600000Y-90900000D03*
X127600000Y-90900000D03*
X129600000Y-90900000D03*
X131600000Y-90900000D03*
X133600000Y-90900000D03*
X135600000Y-90900000D03*
X137600000Y-90900000D03*
X139600000Y-90900000D03*
%TD*%
D13*
%TO.C,H1*%
X120000000Y-75000000D03*
%TD*%
D14*
%TO.C,U1*%
X93580000Y-114055000D03*
D15*
X96120000Y-114055000D03*
D16*
X98660000Y-114055000D03*
D15*
X101200000Y-114055000D03*
X103740000Y-114055000D03*
X106280000Y-114055000D03*
X108820000Y-114055000D03*
D16*
X111360000Y-114055000D03*
D15*
X113900000Y-114055000D03*
X116440000Y-114055000D03*
X118980000Y-114055000D03*
X121520000Y-114055000D03*
D16*
X124060000Y-114055000D03*
D15*
X126600000Y-114055000D03*
X129140000Y-114055000D03*
X131680000Y-114055000D03*
X134220000Y-114055000D03*
D16*
X136760000Y-114055000D03*
D15*
X139300000Y-114055000D03*
X141840000Y-114055000D03*
X141840000Y-96275000D03*
X139300000Y-96275000D03*
D17*
X136760000Y-96275000D03*
D15*
X134220000Y-96275000D03*
X131680000Y-96275000D03*
X129140000Y-96275000D03*
X126600000Y-96275000D03*
D17*
X124060000Y-96275000D03*
D15*
X121520000Y-96275000D03*
X118980000Y-96275000D03*
X116440000Y-96275000D03*
X113900000Y-96275000D03*
D17*
X111360000Y-96275000D03*
D15*
X108820000Y-96275000D03*
X106280000Y-96275000D03*
X103740000Y-96275000D03*
X101200000Y-96275000D03*
D17*
X98660000Y-96275000D03*
D15*
X96120000Y-96275000D03*
X93580000Y-96275000D03*
%TD*%
D18*
%TO.C,D1*%
X111250000Y-85250000D03*
D19*
X111250000Y-87750000D03*
%TD*%
D20*
%TO.C,J1*%
X103900000Y-71000000D03*
D21*
X103900000Y-73500000D03*
X103900000Y-75500000D03*
X103900000Y-78000000D03*
X105400000Y-78500000D03*
X105400000Y-76500000D03*
X105400000Y-74500000D03*
X105400000Y-72500000D03*
X105400000Y-70500000D03*
D22*
X104650000Y-68100000D03*
D23*
X96150000Y-68100000D03*
D22*
X104650000Y-80900000D03*
D23*
X96150000Y-80900000D03*
%TD*%
D13*
%TO.C,H2*%
X148000000Y-113000000D03*
%TD*%
%LPD*%
M02*
