M48
; DRILL file {KiCad 9.0.3} date 2026-04-27T18:58:43-0400
; FORMAT={-:-/ absolute / inch / decimal}
; #@! TF.CreationDate,2026-04-27T18:58:43-04:00
; #@! TF.GenerationSoftware,Kicad,Pcbnew,9.0.3
; #@! TF.FileFunction,Plated,1,4,PTH
FMAT,2
INCH
; #@! TA.AperFunction,Plated,PTH,ComponentDrill
T1C0.0080
; #@! TA.AperFunction,Plated,PTH,ViaDrill
T2C0.0130
; #@! TA.AperFunction,Plated,PTH,ViaDrill
T3C0.0150
; #@! TA.AperFunction,Plated,PTH,ComponentDrill
T4C0.0280
; #@! TA.AperFunction,Plated,PTH,ComponentDrill
T5C0.0315
; #@! TA.AperFunction,Plated,PTH,ComponentDrill
T6C0.0394
; #@! TA.AperFunction,Plated,PTH,ComponentDrill
T7C0.0400
; #@! TA.AperFunction,Plated,PTH,ComponentDrill
T8C0.0551
; #@! TA.AperFunction,Plated,PTH,ComponentDrill
T9C0.0669
; #@! TA.AperFunction,Plated,PTH,ComponentDrill
T10C0.0910
%
G90
G05
T1
X2.9444Y-2.2975
X2.9444Y-2.3286
X2.9444Y-2.3576
X2.97Y-2.2975
X2.97Y-2.3286
X2.97Y-2.3576
X3.0212Y-2.2975
X3.0212Y-2.3286
X3.0212Y-2.3576
X3.0468Y-2.2975
X3.0468Y-2.3286
X3.0468Y-2.3576
T2
X2.1972Y-1.872
X2.4536Y-1.7831
X2.4925Y-1.985
X2.4945Y-1.9161
X2.4953Y-1.9512
X2.6035Y-2.1484
X2.6308Y-2.0669
X2.8673Y-2.1681
X2.8673Y-2.2012
X2.8717Y-2.3366
X2.8945Y-2.1972
X2.8996Y-2.1669
X2.9354Y-2.1661
X2.9484Y-2.7035
X3.0976Y-2.3192
X3.0976Y-2.3527
X3.602Y-2.0823
X3.6169Y-2.1083
X3.6315Y-2.0823
X3.6476Y-1.8929
X3.672Y-1.8929
X3.6969Y-1.8929
X3.7106Y-2.0276
X3.7382Y-2.0276
X3.7776Y-2.1972
X3.8197Y-2.0839
X3.8508Y-2.0839
X3.8685Y-3.3917
X4.5043Y-1.865
X4.6138Y-4.476
T3
X2.3728Y-1.8913
X2.3728Y-1.9272
X2.3728Y-1.963
X2.3728Y-1.998
X2.4047Y-1.9642
X2.4067Y-1.9283
X2.4067Y-1.998
X2.4106Y-1.8925
X2.6571Y-1.7665
X2.6713Y-1.8094
X2.6728Y-1.8528
X2.876Y-5.2063
X2.9102Y-2.0783
X2.922Y-5.2063
X2.9256Y-1.8311
X2.9283Y-1.7264
X2.9283Y-1.7791
X2.9441Y-2.0772
X2.9654Y-5.2063
X2.9791Y-2.0772
X3.0114Y-5.2063
X3.0528Y-5.2083
X3.0988Y-5.2083
X3.1102Y-2.385
X3.114Y-2.4236
X3.1142Y-2.4626
X3.1156Y-2.522
X3.1157Y-2.561
X3.1171Y-2.6177
X3.1173Y-2.6567
X3.1421Y-5.2083
X3.1453Y-2.3866
X3.1531Y-2.4236
X3.1533Y-2.4626
X3.1547Y-2.522
X3.1549Y-2.561
X3.1563Y-2.6177
X3.1565Y-2.6567
X3.1864Y-2.385
X3.1882Y-5.2083
X3.1923Y-2.4236
X3.1925Y-2.4626
X3.1939Y-2.522
X3.1941Y-2.561
X3.1955Y-2.6177
X3.1957Y-2.6567
X3.2256Y-2.385
X3.2329Y-1.9906
X3.2331Y-2.0295
X3.2335Y-2.0689
X3.272Y-1.9906
X3.2722Y-2.0295
X3.2726Y-2.0689
X3.3112Y-1.9906
X3.3114Y-2.0295
X3.3118Y-2.0689
X3.3846Y-1.9917
X3.3848Y-2.0307
X3.3852Y-2.0701
X3.4238Y-1.9917
X3.424Y-2.0307
X3.4244Y-2.0701
X3.463Y-1.9917
X3.4632Y-2.0307
X3.4636Y-2.0701
X3.5614Y-1.9535
X3.7831Y-5.0854
X3.7929Y-5.3512
X3.8291Y-5.0854
X3.839Y-5.3512
X3.8724Y-5.0854
X3.8823Y-5.3512
X3.9185Y-5.0854
X3.9283Y-5.3512
X3.9598Y-5.0874
X3.9697Y-5.3531
X3.9935Y-1.9677
X3.9935Y-2.0465
X3.9937Y-2.0067
X3.9937Y-2.0854
X4.0059Y-5.0874
X4.0157Y-5.3531
X4.0327Y-1.9677
X4.0327Y-2.0465
X4.0329Y-2.0067
X4.0329Y-2.0854
X4.0492Y-5.0874
X4.0591Y-5.3531
X4.0719Y-1.9677
X4.0719Y-2.0465
X4.072Y-2.0067
X4.072Y-2.0854
X4.0953Y-5.0874
X4.1051Y-5.3531
X4.1679Y-2.0528
X4.1681Y-2.0917
X4.2071Y-2.0528
X4.2073Y-2.0917
X4.2463Y-2.0528
X4.2465Y-2.0917
X4.3278Y-2.0504
X4.328Y-2.0894
X4.3669Y-2.0504
X4.3671Y-2.0894
X4.4061Y-2.0504
X4.4063Y-2.0894
X4.4354Y-2.4445
X4.4382Y-2.5028
X4.4953Y-2.5043
X4.4957Y-2.4469
X4.4996Y-2.7465
X4.5004Y-2.8031
X4.5539Y-2.4492
X4.5547Y-2.5059
X4.5587Y-2.8055
X4.5591Y-2.748
X4.589Y-1.724
X4.6268Y-1.724
X4.6626Y-1.7232
X4.6752Y-1.5059
X4.6772Y-1.5512
X4.678Y-1.5969
X4.6835Y-5.3594
X4.6984Y-1.724
X4.7035Y-1.6327
X4.7295Y-5.3594
X4.7346Y-1.724
X4.7346Y-1.7602
X4.7346Y-1.7949
X4.7346Y-1.8307
X4.735Y-1.8669
X4.7469Y-1.6327
X4.7728Y-5.3594
X4.7906Y-1.6327
X4.8079Y-5.2205
X4.8189Y-5.3594
X4.8559Y-5.2209
X4.8602Y-5.3614
X4.9039Y-5.2217
X4.9063Y-5.3614
X4.9437Y-5.2224
X4.9496Y-5.3614
X4.9614Y-2.4492
X4.9839Y-5.2213
X4.9957Y-5.3614
X5.0197Y-2.4516
X5.0799Y-2.4539
X5.137Y-2.4555
X5.1965Y-2.4571
T4
X4.2287Y-5.598
X4.2484Y-5.6571
X4.3075Y-5.598
X4.3469Y-5.6571
X4.3862Y-5.598
X4.4252Y-5.6571
X4.465Y-5.598
X4.5236Y-5.6571
X4.5437Y-5.598
T5
X2.35Y-3.9248
X2.35Y-4.2248
X2.6256Y-2.8421
X2.6256Y-3.7083
X2.7043Y-2.8421
X2.7043Y-3.7083
X2.7831Y-2.8421
X2.7831Y-3.7083
X2.798Y-3.9248
X2.798Y-4.2248
X2.8618Y-2.8421
X2.8618Y-3.7083
X2.9406Y-2.8421
X2.9406Y-3.7083
X3.0193Y-2.8421
X3.0193Y-3.7083
X3.098Y-2.8421
X3.098Y-3.7083
X3.1768Y-2.8421
X3.1768Y-3.7083
X3.2555Y-2.8421
X3.2555Y-3.7083
X3.2555Y-3.9272
X3.2555Y-4.2272
X3.3343Y-2.8421
X3.3343Y-3.7083
X3.7083Y-3.9197
X3.7083Y-4.2197
X4.161Y-3.9228
X4.161Y-4.2228
X4.6016Y-3.9248
X4.6016Y-4.2248
X5.0665Y-3.9248
X5.0665Y-4.2248
X5.5146Y-3.9248
X5.5146Y-4.2248
T6
X3.9819Y-2.9748
X3.9819Y-3.5748
X4.0819Y-2.9748
X4.0819Y-3.5748
X4.1819Y-2.9748
X4.1819Y-3.5748
X4.2819Y-2.9748
X4.2819Y-3.5748
X4.3819Y-2.9748
X4.3819Y-3.5748
X4.4819Y-2.9748
X4.4819Y-3.5748
X4.5819Y-2.9748
X4.5819Y-3.5748
X4.6819Y-2.9748
X4.6819Y-3.5748
X4.7819Y-2.9748
X4.7819Y-3.5748
X4.8819Y-2.9748
X4.8819Y-3.5748
X4.9819Y-2.9748
X4.9819Y-3.5748
X5.0819Y-2.9748
X5.0819Y-3.5748
X5.1819Y-2.9748
X5.1819Y-3.5748
X5.2819Y-2.9748
X5.2819Y-3.5748
X5.3819Y-2.9748
X5.3819Y-3.5748
X5.5576Y-2.0264
X5.5576Y-2.4594
T7
X2.4354Y-4.3748
X2.4354Y-4.9748
X2.4354Y-5.1748
X2.4354Y-5.3748
X2.5854Y-4.3748
X2.7354Y-4.3748
X2.7354Y-4.9748
X2.7354Y-5.1748
X2.7354Y-5.3748
X3.3295Y-4.3776
X3.3295Y-4.9776
X3.3295Y-5.1776
X3.3295Y-5.3776
X3.4795Y-4.3776
X3.6295Y-4.3776
X3.6295Y-4.9776
X3.6295Y-5.1776
X3.6295Y-5.3776
X4.235Y-4.3776
X4.235Y-4.9776
X4.235Y-5.1776
X4.235Y-5.3776
X4.385Y-4.3776
X4.535Y-4.3776
X4.535Y-4.9776
X4.535Y-5.1776
X4.535Y-5.3776
X5.1406Y-4.3776
X5.1406Y-4.9776
X5.1406Y-5.1776
X5.1406Y-5.3776
X5.2906Y-4.3776
X5.4406Y-4.3776
X5.4406Y-4.9776
X5.4406Y-5.1776
X5.4406Y-5.3776
T8
X2.3264Y-5.6374
X2.3264Y-5.8539
X2.4917Y-5.6374
X2.4917Y-5.8539
X2.6571Y-5.6374
X2.6571Y-5.8539
X2.8224Y-5.6374
X2.8224Y-5.8539
X3.3146Y-5.6374
X3.3146Y-5.8539
X3.4799Y-5.6374
X3.4799Y-5.8539
X3.6453Y-5.6374
X3.6453Y-5.8539
X5.2043Y-5.6248
X5.2043Y-5.8413
X5.3697Y-5.6248
X5.3697Y-5.8413
T9
X5.1639Y-2.1445
X5.1639Y-2.3413
T10
X4.1222Y-5.7358
X4.6498Y-5.7358
M30
