%TF.GenerationSoftware,KiCad,Pcbnew,9.0.3*%
%TF.CreationDate,2026-04-27T18:58:43-04:00*%
%TF.ProjectId,PowerDistributionPCB,506f7765-7244-4697-9374-726962757469,rev?*%
%TF.SameCoordinates,Original*%
%TF.FileFunction,Legend,Bot*%
%TF.FilePolarity,Positive*%
%FSLAX46Y46*%
G04 Gerber Fmt 4.6, Leading zero omitted, Abs format (unit mm)*
G04 Created by KiCad (PCBNEW 9.0.3) date 2026-04-27 18:58:43*
%MOMM*%
%LPD*%
G01*
G04 APERTURE LIST*
G04 Aperture macros list*
%AMRoundRect*
0 Rectangle with rounded corners*
0 $1 Rounding radius*
0 $2 $3 $4 $5 $6 $7 $8 $9 X,Y pos of 4 corners*
0 Add a 4 corners polygon primitive as box body*
4,1,4,$2,$3,$4,$5,$6,$7,$8,$9,$2,$3,0*
0 Add four circle primitives for the rounded corners*
1,1,$1+$1,$2,$3*
1,1,$1+$1,$4,$5*
1,1,$1+$1,$6,$7*
1,1,$1+$1,$8,$9*
0 Add four rect primitives between the rounded corners*
20,1,$1+$1,$2,$3,$4,$5,0*
20,1,$1+$1,$4,$5,$6,$7,0*
20,1,$1+$1,$6,$7,$8,$9,0*
20,1,$1+$1,$8,$9,$2,$3,0*%
G04 Aperture macros list end*
%ADD10C,0.508000*%
%ADD11C,1.524000*%
%ADD12C,0.499999*%
%ADD13C,2.754000*%
%ADD14RoundRect,0.102000X-1.275000X1.275000X-1.275000X-1.275000X1.275000X-1.275000X1.275000X1.275000X0*%
%ADD15C,1.712000*%
%ADD16RoundRect,0.250001X-1.099999X-1.399999X1.099999X-1.399999X1.099999X1.399999X-1.099999X1.399999X0*%
%ADD17O,2.700000X3.300000*%
%ADD18RoundRect,0.250000X-0.550000X0.550000X-0.550000X-0.550000X0.550000X-0.550000X0.550000X0.550000X0*%
%ADD19C,1.600000*%
%ADD20C,3.200000*%
%ADD21R,1.600000X1.600000*%
%ADD22O,1.600000X1.600000*%
%ADD23C,1.092200*%
%ADD24C,2.692400*%
%ADD25C,1.700000*%
G04 APERTURE END LIST*
D10*
%TO.C,USB_Connect1*%
X101580801Y-143690000D02*
G75*
G02*
X100818801Y-143690000I-381000J0D01*
G01*
X100818801Y-143690000D02*
G75*
G02*
X101580801Y-143690000I381000J0D01*
G01*
%TD*%
%LPC*%
D11*
%TO.C,K1*%
X84570000Y-126430000D03*
X92190000Y-126430000D03*
X84570000Y-131510000D03*
X92190000Y-131510000D03*
X84570000Y-136590000D03*
X92190000Y-136590000D03*
X84570000Y-111190000D03*
X92190000Y-111190000D03*
X88380000Y-111190000D03*
%TD*%
D12*
%TO.C,12V*%
X74787501Y-58357454D03*
X74787501Y-59145453D03*
X74787501Y-59882452D03*
X75437500Y-58357454D03*
X75437500Y-59145453D03*
X75437500Y-59882452D03*
X76737502Y-58357454D03*
X76737502Y-59145453D03*
X76737502Y-59882452D03*
X77387501Y-58357454D03*
X77387501Y-59145453D03*
X77387501Y-59882452D03*
%TD*%
D13*
%TO.C,22V_BATT_IN*%
X131164250Y-59470000D03*
D14*
X131164250Y-54470000D03*
D15*
X141164250Y-62470000D03*
X141164250Y-51470000D03*
%TD*%
D16*
%TO.C,5V_OUT1*%
X84190000Y-143190000D03*
D17*
X88390000Y-143190000D03*
X92590000Y-143190000D03*
X84190000Y-148690000D03*
X88390000Y-148690000D03*
X92590000Y-148690000D03*
%TD*%
D18*
%TO.C,D4*%
X105690000Y-99640000D03*
D19*
X105690000Y-107260000D03*
%TD*%
D16*
%TO.C,3.3V_OUT1*%
X132190000Y-142870000D03*
D17*
X136390000Y-142870000D03*
X132190000Y-148370000D03*
X136390000Y-148370000D03*
%TD*%
D20*
%TO.C,H3*%
X55300000Y-155870000D03*
%TD*%
D11*
%TO.C,K2*%
X130570000Y-126430000D03*
X138190000Y-126430000D03*
X130570000Y-131510000D03*
X138190000Y-131510000D03*
X130570000Y-136590000D03*
X138190000Y-136590000D03*
X130570000Y-111190000D03*
X138190000Y-111190000D03*
X134380000Y-111190000D03*
%TD*%
%TO.C,K4*%
X61860000Y-126360000D03*
X69480000Y-126360000D03*
X61860000Y-131440000D03*
X69480000Y-131440000D03*
X61860000Y-136520000D03*
X69480000Y-136520000D03*
X61860000Y-111120000D03*
X69480000Y-111120000D03*
X65670000Y-111120000D03*
%TD*%
D18*
%TO.C,D7*%
X59690000Y-99690000D03*
D19*
X59690000Y-107310000D03*
%TD*%
D20*
%TO.C,H1*%
X55610000Y-36890000D03*
%TD*%
D21*
%TO.C,A1*%
X101140000Y-90800000D03*
D22*
X103680000Y-90800000D03*
X106220000Y-90800000D03*
X108760000Y-90800000D03*
X111300000Y-90800000D03*
X113840000Y-90800000D03*
X116380000Y-90800000D03*
X118920000Y-90800000D03*
X121460000Y-90800000D03*
X124000000Y-90800000D03*
X126540000Y-90800000D03*
X129080000Y-90800000D03*
X131620000Y-90800000D03*
X134160000Y-90800000D03*
X136700000Y-90800000D03*
X136700000Y-75560000D03*
X134160000Y-75560000D03*
X131620000Y-75560000D03*
X129080000Y-75560000D03*
X126540000Y-75560000D03*
X124000000Y-75560000D03*
X121460000Y-75560000D03*
X118920000Y-75560000D03*
X116380000Y-75560000D03*
X113840000Y-75560000D03*
X111300000Y-75560000D03*
X108760000Y-75560000D03*
X106220000Y-75560000D03*
X103680000Y-75560000D03*
X101140000Y-75560000D03*
%TD*%
D20*
%TO.C,H2*%
X144470000Y-36890000D03*
%TD*%
D23*
%TO.C,USB_Connect1*%
X107910001Y-143690000D03*
X110410002Y-143690000D03*
X112399999Y-143690000D03*
X114900000Y-143690000D03*
X115410000Y-142189999D03*
X113410000Y-142189999D03*
X111409999Y-142189999D03*
X109410002Y-142189999D03*
X107410001Y-142189999D03*
D24*
X104705001Y-145690058D03*
X118105000Y-145690058D03*
%TD*%
D11*
%TO.C,K3*%
X107570000Y-126430000D03*
X115190000Y-126430000D03*
X107570000Y-131510000D03*
X115190000Y-131510000D03*
X107570000Y-136590000D03*
X115190000Y-136590000D03*
X107570000Y-111190000D03*
X115190000Y-111190000D03*
X111380000Y-111190000D03*
%TD*%
D18*
%TO.C,D2*%
X82690000Y-99750000D03*
D19*
X82690000Y-107370000D03*
%TD*%
D18*
%TO.C,D5*%
X116880000Y-99690000D03*
D19*
X116880000Y-107310000D03*
%TD*%
D18*
%TO.C,D3*%
X94190000Y-99560000D03*
D19*
X94190000Y-107180000D03*
%TD*%
D25*
%TO.C,XBee1*%
X66690000Y-94190000D03*
X68690000Y-94190000D03*
X70690000Y-94190000D03*
X72690000Y-94190000D03*
X74690000Y-94190000D03*
X76690000Y-94190000D03*
X78690000Y-94190000D03*
X80690000Y-94190000D03*
X82690000Y-94190000D03*
X84690000Y-94190000D03*
X84690000Y-72190000D03*
X82690000Y-72190000D03*
X80690000Y-72190000D03*
X78690000Y-72190000D03*
X76690000Y-72190000D03*
X74690000Y-72190000D03*
X72690000Y-72190000D03*
X70690000Y-72190000D03*
X68690000Y-72190000D03*
X66690000Y-72190000D03*
%TD*%
D20*
%TO.C,H4*%
X144560000Y-155440000D03*
%TD*%
D18*
%TO.C,D8*%
X71070000Y-99690000D03*
D19*
X71070000Y-107310000D03*
%TD*%
D16*
%TO.C,12V_OUT1*%
X59090000Y-143190000D03*
D17*
X63290000Y-143190000D03*
X67490000Y-143190000D03*
X71690000Y-143190000D03*
X59090000Y-148690000D03*
X63290000Y-148690000D03*
X67490000Y-148690000D03*
X71690000Y-148690000D03*
%TD*%
D18*
%TO.C,D6*%
X140070000Y-99690000D03*
D19*
X140070000Y-107310000D03*
%TD*%
D18*
%TO.C,D10*%
X128690000Y-99690000D03*
D19*
X128690000Y-107310000D03*
%TD*%
%LPD*%
M02*
