%TF.GenerationSoftware,KiCad,Pcbnew,9.0.3*%
%TF.CreationDate,2026-04-17T17:54:18-04:00*%
%TF.ProjectId,PowerDistributionPCB,506f7765-7244-4697-9374-726962757469,rev?*%
%TF.SameCoordinates,Original*%
%TF.FileFunction,Paste,Top*%
%TF.FilePolarity,Positive*%
%FSLAX46Y46*%
G04 Gerber Fmt 4.6, Leading zero omitted, Abs format (unit mm)*
G04 Created by KiCad (PCBNEW 9.0.3) date 2026-04-17 17:54:18*
%MOMM*%
%LPD*%
G01*
G04 APERTURE LIST*
G04 Aperture macros list*
%AMRoundRect*
0 Rectangle with rounded corners*
0 $1 Rounding radius*
0 $2 $3 $4 $5 $6 $7 $8 $9 X,Y pos of 4 corners*
0 Add a 4 corners polygon primitive as box body*
4,1,4,$2,$3,$4,$5,$6,$7,$8,$9,$2,$3,0*
0 Add four circle primitives for the rounded corners*
1,1,$1+$1,$2,$3*
1,1,$1+$1,$4,$5*
1,1,$1+$1,$6,$7*
1,1,$1+$1,$8,$9*
0 Add four rect primitives between the rounded corners*
20,1,$1+$1,$2,$3,$4,$5,0*
20,1,$1+$1,$4,$5,$6,$7,0*
20,1,$1+$1,$6,$7,$8,$9,0*
20,1,$1+$1,$8,$9,$2,$3,0*%
%AMFreePoly0*
4,1,13,0.162501,0.362501,0.162501,0.162502,0.262501,0.062502,0.987501,0.062502,1.037501,0.012499,1.037501,-0.137500,0.987501,-0.187498,-0.137498,-0.187500,-0.187498,-0.137498,-0.187498,0.362501,-0.137498,0.412501,0.112501,0.412501,0.162501,0.362501,0.162501,0.362501,$1*%
%AMFreePoly1*
4,1,13,0.175001,0.100000,0.175001,-0.400001,0.125001,-0.450001,-0.999998,-0.449999,-1.049998,-0.400001,-1.049998,-0.249999,-0.999998,-0.199999,-0.274998,-0.199999,-0.174998,-0.099999,-0.174998,0.100000,-0.124998,0.150000,0.125001,0.150000,0.175001,0.100000,0.175001,0.100000,$1*%
G04 Aperture macros list end*
%ADD10C,0.000000*%
%ADD11RoundRect,0.250000X-0.450000X0.350000X-0.450000X-0.350000X0.450000X-0.350000X0.450000X0.350000X0*%
%ADD12RoundRect,0.250000X0.412500X0.650000X-0.412500X0.650000X-0.412500X-0.650000X0.412500X-0.650000X0*%
%ADD13RoundRect,0.090000X-0.090000X0.139000X-0.090000X-0.139000X0.090000X-0.139000X0.090000X0.139000X0*%
%ADD14RoundRect,0.150000X-0.587500X-0.150000X0.587500X-0.150000X0.587500X0.150000X-0.587500X0.150000X0*%
%ADD15RoundRect,0.237500X0.300000X0.237500X-0.300000X0.237500X-0.300000X-0.237500X0.300000X-0.237500X0*%
%ADD16RoundRect,0.250000X-0.350000X-0.450000X0.350000X-0.450000X0.350000X0.450000X-0.350000X0.450000X0*%
%ADD17RoundRect,0.250000X-0.412500X-0.650000X0.412500X-0.650000X0.412500X0.650000X-0.412500X0.650000X0*%
%ADD18R,0.800001X0.249999*%
%ADD19FreePoly0,0.000000*%
%ADD20R,0.299999X0.549999*%
%ADD21FreePoly1,0.000000*%
%ADD22RoundRect,0.250000X-0.412500X-1.100000X0.412500X-1.100000X0.412500X1.100000X-0.412500X1.100000X0*%
%ADD23RoundRect,0.150000X0.512500X0.150000X-0.512500X0.150000X-0.512500X-0.150000X0.512500X-0.150000X0*%
%ADD24RoundRect,0.250000X0.350000X0.450000X-0.350000X0.450000X-0.350000X-0.450000X0.350000X-0.450000X0*%
%ADD25RoundRect,0.090000X0.139000X0.090000X-0.139000X0.090000X-0.139000X-0.090000X0.139000X-0.090000X0*%
%ADD26R,1.075000X0.500000*%
%ADD27RoundRect,0.090000X0.090000X-0.139000X0.090000X0.139000X-0.090000X0.139000X-0.090000X-0.139000X0*%
%ADD28R,0.889000X2.438400*%
%ADD29R,5.511800X5.791200*%
%ADD30RoundRect,0.250000X-1.100000X0.412500X-1.100000X-0.412500X1.100000X-0.412500X1.100000X0.412500X0*%
%ADD31RoundRect,0.250000X1.950000X1.000000X-1.950000X1.000000X-1.950000X-1.000000X1.950000X-1.000000X0*%
%ADD32RoundRect,0.250000X0.650000X-1.000000X0.650000X1.000000X-0.650000X1.000000X-0.650000X-1.000000X0*%
%ADD33RoundRect,0.237500X-0.300000X-0.237500X0.300000X-0.237500X0.300000X0.237500X-0.300000X0.237500X0*%
%ADD34R,1.300000X4.400000*%
G04 APERTURE END LIST*
D10*
%TO.C,12V1*%
G36*
X86200001Y-53452452D02*
G01*
X86200001Y-53602452D01*
X86150001Y-53652452D01*
X85800002Y-53652452D01*
X85750002Y-53602452D01*
X85750002Y-53452452D01*
X85800002Y-53402452D01*
X86150001Y-53402452D01*
X86200001Y-53452452D01*
G37*
G36*
X86200001Y-52952453D02*
G01*
X86200001Y-53102453D01*
X86150001Y-53152453D01*
X85800002Y-53152453D01*
X85750002Y-53102453D01*
X85750002Y-52952453D01*
X85800002Y-52902453D01*
X86150001Y-52902453D01*
X86200001Y-52952453D01*
G37*
G36*
X86200001Y-52452452D02*
G01*
X86200001Y-52602454D01*
X86150001Y-52652454D01*
X85800002Y-52652454D01*
X85750002Y-52602454D01*
X85750002Y-52452452D01*
X85800002Y-52402452D01*
X86150001Y-52402452D01*
X86200001Y-52452452D01*
G37*
G36*
X89450000Y-52452452D02*
G01*
X89450000Y-52602454D01*
X89400000Y-52652454D01*
X89050001Y-52652454D01*
X89000001Y-52602454D01*
X89000001Y-52452452D01*
X89050001Y-52402452D01*
X89400000Y-52402452D01*
X89450000Y-52452452D01*
G37*
G36*
X89450000Y-53452452D02*
G01*
X89450000Y-53602452D01*
X89400000Y-53652452D01*
X89050001Y-53652452D01*
X89000001Y-53602452D01*
X89000001Y-53452452D01*
X89050001Y-53402452D01*
X89400000Y-53402452D01*
X89450000Y-53452452D01*
G37*
G36*
X89450000Y-52952453D02*
G01*
X89450000Y-53102453D01*
X89400000Y-53152453D01*
X89050001Y-53152453D01*
X89000001Y-53102453D01*
X89000001Y-52952453D01*
X89050001Y-52902453D01*
X89400000Y-52902453D01*
X89450000Y-52952453D01*
G37*
G36*
X89450000Y-50312454D02*
G01*
X89450000Y-50462453D01*
X89400000Y-50512453D01*
X89100001Y-50512453D01*
X89050001Y-50562453D01*
X89050001Y-50712453D01*
X89100001Y-50762453D01*
X89400000Y-50762453D01*
X89450000Y-50812453D01*
X89450000Y-50962452D01*
X89400000Y-51012452D01*
X88300002Y-51012452D01*
X88250002Y-50962452D01*
X88250002Y-50312454D01*
X88300002Y-50262454D01*
X89400000Y-50262454D01*
X89450000Y-50312454D01*
G37*
%TO.C,5V1*%
G36*
X105633000Y-53675099D02*
G01*
X105633000Y-53825099D01*
X105583000Y-53875099D01*
X105233001Y-53875099D01*
X105183001Y-53825099D01*
X105183001Y-53675099D01*
X105233001Y-53625099D01*
X105583000Y-53625099D01*
X105633000Y-53675099D01*
G37*
G36*
X105633000Y-53175100D02*
G01*
X105633000Y-53325100D01*
X105583000Y-53375100D01*
X105233001Y-53375100D01*
X105183001Y-53325100D01*
X105183001Y-53175100D01*
X105233001Y-53125100D01*
X105583000Y-53125100D01*
X105633000Y-53175100D01*
G37*
G36*
X105633000Y-52675099D02*
G01*
X105633000Y-52825101D01*
X105583000Y-52875101D01*
X105233001Y-52875101D01*
X105183001Y-52825101D01*
X105183001Y-52675099D01*
X105233001Y-52625099D01*
X105583000Y-52625099D01*
X105633000Y-52675099D01*
G37*
G36*
X108882999Y-52675099D02*
G01*
X108882999Y-52825101D01*
X108832999Y-52875101D01*
X108483000Y-52875101D01*
X108433000Y-52825101D01*
X108433000Y-52675099D01*
X108483000Y-52625099D01*
X108832999Y-52625099D01*
X108882999Y-52675099D01*
G37*
G36*
X108882999Y-53675099D02*
G01*
X108882999Y-53825099D01*
X108832999Y-53875099D01*
X108483000Y-53875099D01*
X108433000Y-53825099D01*
X108433000Y-53675099D01*
X108483000Y-53625099D01*
X108832999Y-53625099D01*
X108882999Y-53675099D01*
G37*
G36*
X108882999Y-53175100D02*
G01*
X108882999Y-53325100D01*
X108832999Y-53375100D01*
X108483000Y-53375100D01*
X108433000Y-53325100D01*
X108433000Y-53175100D01*
X108483000Y-53125100D01*
X108832999Y-53125100D01*
X108882999Y-53175100D01*
G37*
G36*
X108882999Y-50535101D02*
G01*
X108882999Y-50685100D01*
X108832999Y-50735100D01*
X108533000Y-50735100D01*
X108483000Y-50785100D01*
X108483000Y-50935100D01*
X108533000Y-50985100D01*
X108832999Y-50985100D01*
X108882999Y-51035100D01*
X108882999Y-51185099D01*
X108832999Y-51235099D01*
X107733001Y-51235099D01*
X107683001Y-51185099D01*
X107683001Y-50535101D01*
X107733001Y-50485101D01*
X108832999Y-50485101D01*
X108882999Y-50535101D01*
G37*
%TD*%
D11*
%TO.C,R4*%
X89690000Y-99690000D03*
X89690000Y-101690000D03*
%TD*%
D12*
%TO.C,C1*%
X72252998Y-51471098D03*
X69127998Y-51471098D03*
%TD*%
D13*
%TO.C,Rfbb1*%
X102974000Y-51191600D03*
X102974000Y-52056600D03*
%TD*%
D14*
%TO.C,Q6*%
X131632500Y-104240000D03*
X131632500Y-106140000D03*
X133507500Y-105190000D03*
%TD*%
%TO.C,Q7*%
X108252500Y-104240000D03*
X108252500Y-106140000D03*
X110127500Y-105190000D03*
%TD*%
D15*
%TO.C,C2*%
X71552998Y-57401098D03*
X69827998Y-57401098D03*
%TD*%
D16*
%TO.C,R9*%
X93190000Y-86190000D03*
X95190000Y-86190000D03*
%TD*%
D17*
%TO.C,Cout6*%
X105557000Y-60484100D03*
X108682000Y-60484100D03*
%TD*%
D16*
%TO.C,R2*%
X122276000Y-47063300D03*
X124276000Y-47063300D03*
%TD*%
D18*
%TO.C,12V1*%
X86150001Y-50387452D03*
X86150001Y-50887454D03*
D19*
X88412499Y-49824954D03*
D20*
X87375000Y-49687454D03*
D21*
X86800000Y-49562453D03*
%TD*%
D22*
%TO.C,Main_Bulk(electrolytic)1*%
X121627500Y-67190000D03*
X124752500Y-67190000D03*
%TD*%
D23*
%TO.C,U1*%
X72112998Y-55441098D03*
X72112998Y-54491098D03*
X72112998Y-53541098D03*
X69837998Y-53541098D03*
X69837998Y-54491098D03*
X69837998Y-55441098D03*
%TD*%
D24*
%TO.C,R8*%
X95190000Y-80190000D03*
X93190000Y-80190000D03*
%TD*%
D16*
%TO.C,R1*%
X122256000Y-49273300D03*
X124256000Y-49273300D03*
%TD*%
D13*
%TO.C,C2a1*%
X109484000Y-50939100D03*
X109484000Y-51804100D03*
%TD*%
D14*
%TO.C,Q8*%
X112315000Y-104240000D03*
X112315000Y-106140000D03*
X114190000Y-105190000D03*
%TD*%
D25*
%TO.C,Rmode1a1*%
X107577000Y-49054100D03*
X106712000Y-49054100D03*
%TD*%
D17*
%TO.C,Cout2*%
X85950000Y-58330000D03*
X89075000Y-58330000D03*
%TD*%
D26*
%TO.C,D1*%
X122146000Y-51693300D03*
X124470000Y-51693300D03*
%TD*%
D11*
%TO.C,R11*%
X136070000Y-99690000D03*
X136070000Y-101690000D03*
%TD*%
D27*
%TO.C,Rfbt1*%
X103924000Y-52054100D03*
X103924000Y-51189100D03*
%TD*%
D11*
%TO.C,R15*%
X64070000Y-99690000D03*
X64070000Y-101690000D03*
%TD*%
D28*
%TO.C,Q1*%
X125476000Y-54394100D03*
D29*
X123190000Y-61125100D03*
D28*
X120904000Y-54394100D03*
%TD*%
D11*
%TO.C,R16*%
X67070000Y-99690000D03*
X67070000Y-101690000D03*
%TD*%
D14*
%TO.C,Q11*%
X89690000Y-104240000D03*
X89690000Y-106140000D03*
X91565000Y-105190000D03*
%TD*%
D30*
%TO.C,C1a1*%
X111507000Y-49754100D03*
X111507000Y-52879100D03*
%TD*%
D24*
%TO.C,R3b1*%
X68327998Y-48601098D03*
X66327998Y-48601098D03*
%TD*%
D14*
%TO.C,Q2*%
X135570000Y-104240000D03*
X135570000Y-106140000D03*
X137445000Y-105190000D03*
%TD*%
%TO.C,Q9*%
X62442500Y-104240000D03*
X62442500Y-106140000D03*
X64317500Y-105190000D03*
%TD*%
D31*
%TO.C,C5*%
X101890000Y-67690000D03*
X94490000Y-67690000D03*
%TD*%
D11*
%TO.C,R6*%
X112880000Y-99690000D03*
X112880000Y-101690000D03*
%TD*%
D17*
%TO.C,Cout5*%
X105537000Y-58044100D03*
X108662000Y-58044100D03*
%TD*%
D11*
%TO.C,R5*%
X109880000Y-99690000D03*
X109880000Y-101690000D03*
%TD*%
D13*
%TO.C,C2b1*%
X90232002Y-50786402D03*
X90232002Y-51651402D03*
%TD*%
D14*
%TO.C,Q12*%
X66695000Y-104240000D03*
X66695000Y-106140000D03*
X68570000Y-105190000D03*
%TD*%
D18*
%TO.C,5V1*%
X105583000Y-50610099D03*
X105583000Y-51110101D03*
D19*
X107845498Y-50047601D03*
D20*
X106807999Y-49910101D03*
D21*
X106232999Y-49785100D03*
%TD*%
D32*
%TO.C,D9*%
X109190000Y-71690000D03*
X109190000Y-67690000D03*
%TD*%
D27*
%TO.C,Rfbt2*%
X84450000Y-52262500D03*
X84450000Y-51397500D03*
%TD*%
D17*
%TO.C,Cout3*%
X85950000Y-55830000D03*
X89075000Y-55830000D03*
%TD*%
D27*
%TO.C,Rfbb2*%
X82950000Y-52195000D03*
X82950000Y-51330000D03*
%TD*%
D11*
%TO.C,R3*%
X86690000Y-99690000D03*
X86690000Y-101690000D03*
%TD*%
D14*
%TO.C,Q10*%
X85315000Y-104240000D03*
X85315000Y-106140000D03*
X87190000Y-105190000D03*
%TD*%
D33*
%TO.C,C4*%
X64227998Y-50471098D03*
X65952998Y-50471098D03*
%TD*%
D30*
%TO.C,C1b1*%
X92502002Y-49813902D03*
X92502002Y-52938902D03*
%TD*%
D17*
%TO.C,Cout4*%
X105494000Y-55554100D03*
X108619000Y-55554100D03*
%TD*%
D25*
%TO.C,Rmode1b1*%
X88004502Y-48750000D03*
X87139502Y-48750000D03*
%TD*%
D34*
%TO.C,L1*%
X66327998Y-56201098D03*
X63527998Y-56201098D03*
%TD*%
D33*
%TO.C,C3*%
X64267998Y-52061098D03*
X65992998Y-52061098D03*
%TD*%
D11*
%TO.C,R7*%
X133070000Y-99690000D03*
X133070000Y-101690000D03*
%TD*%
D16*
%TO.C,R3a1*%
X70297998Y-48601098D03*
X72297998Y-48601098D03*
%TD*%
D17*
%TO.C,Cout1*%
X85950000Y-60830000D03*
X89075000Y-60830000D03*
%TD*%
M02*
