%TF.GenerationSoftware,KiCad,Pcbnew,9.0.3*%
%TF.CreationDate,2026-04-27T18:58:43-04:00*%
%TF.ProjectId,PowerDistributionPCB,506f7765-7244-4697-9374-726962757469,rev?*%
%TF.SameCoordinates,Original*%
%TF.FileFunction,Soldermask,Top*%
%TF.FilePolarity,Negative*%
%FSLAX46Y46*%
G04 Gerber Fmt 4.6, Leading zero omitted, Abs format (unit mm)*
G04 Created by KiCad (PCBNEW 9.0.3) date 2026-04-27 18:58:43*
%MOMM*%
%LPD*%
G01*
G04 APERTURE LIST*
G04 Aperture macros list*
%AMRoundRect*
0 Rectangle with rounded corners*
0 $1 Rounding radius*
0 $2 $3 $4 $5 $6 $7 $8 $9 X,Y pos of 4 corners*
0 Add a 4 corners polygon primitive as box body*
4,1,4,$2,$3,$4,$5,$6,$7,$8,$9,$2,$3,0*
0 Add four circle primitives for the rounded corners*
1,1,$1+$1,$2,$3*
1,1,$1+$1,$4,$5*
1,1,$1+$1,$6,$7*
1,1,$1+$1,$8,$9*
0 Add four rect primitives between the rounded corners*
20,1,$1+$1,$2,$3,$4,$5,0*
20,1,$1+$1,$4,$5,$6,$7,0*
20,1,$1+$1,$6,$7,$8,$9,0*
20,1,$1+$1,$8,$9,$2,$3,0*%
%AMFreePoly0*
4,1,27,0.160002,0.849998,0.160002,0.124998,0.210002,0.074999,0.670001,0.074999,0.720001,0.024999,0.720001,-0.125001,0.670001,-0.175001,0.160002,-0.175001,0.160002,-0.425000,0.670001,-0.425000,0.720001,-0.475000,0.720001,-0.625000,0.670001,-0.675000,0.160002,-0.675000,0.160002,-0.925002,0.670001,-0.925002,0.720001,-0.975002,0.720001,-1.125002,0.670001,-1.175002,0.160002,-1.175002,
0.160002,-1.200000,-0.189997,-1.200000,-0.239997,-1.150000,-0.239997,0.849998,-0.189997,0.899998,0.110002,0.899998,0.160002,0.849998,0.160002,0.849998,$1*%
G04 Aperture macros list end*
%ADD10C,0.000000*%
%ADD11RoundRect,0.250000X-0.450000X0.350000X-0.450000X-0.350000X0.450000X-0.350000X0.450000X0.350000X0*%
%ADD12RoundRect,0.250000X0.412500X0.650000X-0.412500X0.650000X-0.412500X-0.650000X0.412500X-0.650000X0*%
%ADD13C,1.524000*%
%ADD14RoundRect,0.100000X-0.217500X-0.100000X0.217500X-0.100000X0.217500X0.100000X-0.217500X0.100000X0*%
%ADD15RoundRect,0.150000X-0.587500X-0.150000X0.587500X-0.150000X0.587500X0.150000X-0.587500X0.150000X0*%
%ADD16RoundRect,0.250000X-0.475000X0.337500X-0.475000X-0.337500X0.475000X-0.337500X0.475000X0.337500X0*%
%ADD17RoundRect,0.237500X0.300000X0.237500X-0.300000X0.237500X-0.300000X-0.237500X0.300000X-0.237500X0*%
%ADD18RoundRect,0.250000X-0.350000X-0.450000X0.350000X-0.450000X0.350000X0.450000X-0.350000X0.450000X0*%
%ADD19RoundRect,0.250000X0.350000X0.450000X-0.350000X0.450000X-0.350000X-0.450000X0.350000X-0.450000X0*%
%ADD20C,0.499999*%
%ADD21RoundRect,0.102000X1.750000X0.800000X-1.750000X0.800000X-1.750000X-0.800000X1.750000X-0.800000X0*%
%ADD22RoundRect,0.150000X0.512500X0.150000X-0.512500X0.150000X-0.512500X-0.150000X0.512500X-0.150000X0*%
%ADD23RoundRect,0.160000X-0.160000X0.197500X-0.160000X-0.197500X0.160000X-0.197500X0.160000X0.197500X0*%
%ADD24RoundRect,0.155000X-0.155000X0.212500X-0.155000X-0.212500X0.155000X-0.212500X0.155000X0.212500X0*%
%ADD25R,0.249999X0.599999*%
%ADD26R,0.599999X0.249999*%
%ADD27R,1.699999X0.249999*%
%ADD28FreePoly0,90.000000*%
%ADD29R,2.100001X0.399999*%
%ADD30RoundRect,0.249999X-0.710001X-3.000001X0.710001X-3.000001X0.710001X3.000001X-0.710001X3.000001X0*%
%ADD31C,2.754000*%
%ADD32RoundRect,0.102000X-1.275000X1.275000X-1.275000X-1.275000X1.275000X-1.275000X1.275000X1.275000X0*%
%ADD33C,1.712000*%
%ADD34RoundRect,0.250000X-0.412500X-0.650000X0.412500X-0.650000X0.412500X0.650000X-0.412500X0.650000X0*%
%ADD35R,1.075000X0.500000*%
%ADD36R,0.889000X2.438400*%
%ADD37R,5.511800X5.791200*%
%ADD38RoundRect,0.250000X-1.100000X0.412500X-1.100000X-0.412500X1.100000X-0.412500X1.100000X0.412500X0*%
%ADD39RoundRect,0.250001X-1.099999X-1.399999X1.099999X-1.399999X1.099999X1.399999X-1.099999X1.399999X0*%
%ADD40O,2.700000X3.300000*%
%ADD41RoundRect,0.250000X0.450000X-0.350000X0.450000X0.350000X-0.450000X0.350000X-0.450000X-0.350000X0*%
%ADD42RoundRect,0.250000X-0.550000X0.550000X-0.550000X-0.550000X0.550000X-0.550000X0.550000X0.550000X0*%
%ADD43C,1.600000*%
%ADD44RoundRect,0.140000X-0.170000X0.140000X-0.170000X-0.140000X0.170000X-0.140000X0.170000X0.140000X0*%
%ADD45RoundRect,0.250000X1.950000X1.000000X-1.950000X1.000000X-1.950000X-1.000000X1.950000X-1.000000X0*%
%ADD46R,1.600000X1.600000*%
%ADD47O,1.600000X1.600000*%
%ADD48C,1.092200*%
%ADD49C,2.692400*%
%ADD50RoundRect,0.250000X0.650000X-1.000000X0.650000X1.000000X-0.650000X1.000000X-0.650000X-1.000000X0*%
%ADD51RoundRect,0.100000X0.100000X-0.217500X0.100000X0.217500X-0.100000X0.217500X-0.100000X-0.217500X0*%
%ADD52C,1.700000*%
%ADD53RoundRect,0.155000X0.212500X0.155000X-0.212500X0.155000X-0.212500X-0.155000X0.212500X-0.155000X0*%
%ADD54RoundRect,0.237500X-0.300000X-0.237500X0.300000X-0.237500X0.300000X0.237500X-0.300000X0.237500X0*%
%ADD55RoundRect,0.100000X0.217500X0.100000X-0.217500X0.100000X-0.217500X-0.100000X0.217500X-0.100000X0*%
%ADD56R,1.300000X4.400000*%
G04 APERTURE END LIST*
D10*
%TO.C,12V*%
G36*
X75087500Y-56482454D02*
G01*
X75087500Y-56632453D01*
X74987501Y-56732453D01*
X74287502Y-56732453D01*
X74187502Y-56632453D01*
X74187502Y-56482454D01*
X74287502Y-56382454D01*
X74987501Y-56382454D01*
X75087500Y-56482454D01*
G37*
G36*
X75087500Y-56982453D02*
G01*
X75087500Y-57132452D01*
X74987501Y-57232452D01*
X74287502Y-57232452D01*
X74187502Y-57132452D01*
X74187502Y-56982453D01*
X74287502Y-56882453D01*
X74987501Y-56882453D01*
X75087500Y-56982453D01*
G37*
G36*
X76062500Y-55632453D02*
G01*
X76062500Y-56082452D01*
X75962500Y-56182454D01*
X75762500Y-56182454D01*
X75662501Y-56082452D01*
X75662501Y-55632453D01*
X75762500Y-55532453D01*
X75962500Y-55532453D01*
X76062500Y-55632453D01*
G37*
G36*
X75512501Y-55632453D02*
G01*
X75512501Y-56132452D01*
X75412501Y-56232454D01*
X74287502Y-56232454D01*
X74187502Y-56132454D01*
X74187502Y-55982455D01*
X74287502Y-55882452D01*
X75012502Y-55882452D01*
X75062502Y-55832455D01*
X75062502Y-55632453D01*
X75162502Y-55532453D01*
X75412501Y-55532453D01*
X75512501Y-55632453D01*
G37*
G36*
X77112500Y-55632453D02*
G01*
X77112500Y-55832455D01*
X77162500Y-55882452D01*
X77887500Y-55882452D01*
X77987502Y-55982455D01*
X77987500Y-56132454D01*
X77887500Y-56232454D01*
X76762501Y-56232454D01*
X76662501Y-56132452D01*
X76662501Y-55632453D01*
X76762501Y-55532453D01*
X77012498Y-55532453D01*
X77112500Y-55632453D01*
G37*
G36*
X76012500Y-56432454D02*
G01*
X76012500Y-57656952D01*
X75912500Y-57756952D01*
X74287502Y-57756954D01*
X74187502Y-57656955D01*
X74187500Y-57481954D01*
X74287502Y-57381954D01*
X75481500Y-57381954D01*
X75516501Y-57367453D01*
X75647502Y-57235452D01*
X75662501Y-57200453D01*
X75662501Y-56432454D01*
X75762503Y-56332454D01*
X75912503Y-56332454D01*
X76012500Y-56432454D01*
G37*
G36*
X77937500Y-56482454D02*
G01*
X77937500Y-56632453D01*
X77887500Y-56682453D01*
X77587501Y-56682453D01*
X77537501Y-56732453D01*
X77537501Y-56882453D01*
X77587501Y-56932453D01*
X77887500Y-56932453D01*
X77937500Y-56982453D01*
X77937500Y-57132452D01*
X77887500Y-57182452D01*
X76787502Y-57182452D01*
X76737502Y-57132452D01*
X76737502Y-56482454D01*
X76787502Y-56432454D01*
X77887500Y-56432454D01*
X77937500Y-56482454D01*
G37*
G36*
X75587499Y-58157454D02*
G01*
X75637502Y-58207451D01*
X75637499Y-60032452D01*
X75587502Y-60082451D01*
X74687501Y-60082451D01*
X74637501Y-60032454D01*
X74637501Y-59872452D01*
X74587501Y-59822452D01*
X74287502Y-59822452D01*
X74237502Y-59772452D01*
X74237502Y-59622452D01*
X74287502Y-59572452D01*
X74587501Y-59572452D01*
X74637501Y-59522453D01*
X74637501Y-59372453D01*
X74587501Y-59322453D01*
X74287502Y-59322453D01*
X74237502Y-59272453D01*
X74237502Y-59122453D01*
X74287502Y-59072453D01*
X74587501Y-59072453D01*
X74637501Y-59022454D01*
X74637501Y-58872454D01*
X74587501Y-58822454D01*
X74287502Y-58822454D01*
X74237502Y-58772454D01*
X74237502Y-58622454D01*
X74287502Y-58572452D01*
X74587501Y-58572452D01*
X74637501Y-58522452D01*
X74637501Y-58207451D01*
X74687501Y-58157451D01*
X75587499Y-58157454D01*
G37*
G36*
X77537501Y-58207451D02*
G01*
X77537501Y-58522452D01*
X77587501Y-58572452D01*
X77887500Y-58572452D01*
X77937500Y-58622454D01*
X77937500Y-58772452D01*
X77887502Y-58822454D01*
X77587501Y-58822451D01*
X77537501Y-58872454D01*
X77537501Y-59022454D01*
X77587501Y-59072453D01*
X77887500Y-59072453D01*
X77937500Y-59122453D01*
X77937500Y-59272453D01*
X77887502Y-59322453D01*
X77587501Y-59322453D01*
X77537501Y-59372453D01*
X77537501Y-59522453D01*
X77587501Y-59572452D01*
X77887500Y-59572452D01*
X77937500Y-59622452D01*
X77937500Y-59772452D01*
X77887502Y-59822454D01*
X77587501Y-59822452D01*
X77537501Y-59872452D01*
X77537501Y-60032452D01*
X77487501Y-60082451D01*
X76587497Y-60082451D01*
X76537500Y-60032452D01*
X76537500Y-58207451D01*
X76587500Y-58157454D01*
X77487501Y-58157449D01*
X77537501Y-58207451D01*
G37*
%TD*%
D11*
%TO.C,R4*%
X89690000Y-99690000D03*
X89690000Y-101690000D03*
%TD*%
D12*
%TO.C,C1*%
X65277500Y-49490000D03*
X62152500Y-49490000D03*
%TD*%
D13*
%TO.C,K1*%
X84570000Y-126430000D03*
X92190000Y-126430000D03*
X84570000Y-131510000D03*
X92190000Y-131510000D03*
X84570000Y-136590000D03*
X92190000Y-136590000D03*
X84570000Y-111190000D03*
X92190000Y-111190000D03*
X88380000Y-111190000D03*
%TD*%
D14*
%TO.C,Rfbb1*%
X93560000Y-50760000D03*
X94375000Y-50760000D03*
%TD*%
D15*
%TO.C,Q6*%
X131632500Y-104240000D03*
X131632500Y-106140000D03*
X133507500Y-105190000D03*
%TD*%
%TO.C,Q7*%
X108252500Y-104240000D03*
X108252500Y-106140000D03*
X110127500Y-105190000D03*
%TD*%
D16*
%TO.C,Cinx1*%
X90990000Y-46205000D03*
X90990000Y-48280000D03*
%TD*%
D17*
%TO.C,C2*%
X64577500Y-55420000D03*
X62852500Y-55420000D03*
%TD*%
D18*
%TO.C,R9*%
X93190000Y-86190000D03*
X95190000Y-86190000D03*
%TD*%
D19*
%TO.C,R2*%
X125928250Y-60251800D03*
X123928250Y-60251800D03*
%TD*%
D20*
%TO.C,12V*%
X74787501Y-58357454D03*
X74787501Y-59145453D03*
X74787501Y-59882452D03*
X75437500Y-58357454D03*
X75437500Y-59145453D03*
X75437500Y-59882452D03*
X76737502Y-58357454D03*
X76737502Y-59145453D03*
X76737502Y-59882452D03*
X77387501Y-58357454D03*
X77387501Y-59145453D03*
X77387501Y-59882452D03*
%TD*%
D21*
%TO.C,Main_Bulk*%
X122250000Y-38350000D03*
X127850000Y-38350000D03*
%TD*%
D22*
%TO.C,U1*%
X65137500Y-53460000D03*
X65137500Y-52510000D03*
X65137500Y-51560000D03*
X62862500Y-51560000D03*
X62862500Y-52510000D03*
X62862500Y-53460000D03*
%TD*%
D19*
%TO.C,R8*%
X95190000Y-80190000D03*
X93190000Y-80190000D03*
%TD*%
D23*
%TO.C,Rpg1*%
X95840000Y-50585000D03*
X95840000Y-51780000D03*
%TD*%
D24*
%TO.C,Css1*%
X97270000Y-50675000D03*
X97270000Y-51810000D03*
%TD*%
D25*
%TO.C,5V1*%
X93309998Y-49269999D03*
X93809999Y-49269999D03*
X94309999Y-49269999D03*
X94810000Y-49269999D03*
D26*
X95459999Y-48800000D03*
D27*
X94910000Y-47500000D03*
D26*
X95459999Y-46999998D03*
D28*
X93259998Y-46880001D03*
D29*
X93409998Y-48079999D03*
D26*
X92659999Y-48800000D03*
%TD*%
D30*
%TO.C,L1a1*%
X98090000Y-45000000D03*
X102910000Y-45000000D03*
%TD*%
D31*
%TO.C,22V_BATT_IN*%
X131164250Y-59470000D03*
D32*
X131164250Y-54470000D03*
D33*
X141164250Y-62470000D03*
X141164250Y-51470000D03*
%TD*%
D19*
%TO.C,R1*%
X125948250Y-58041800D03*
X123948250Y-58041800D03*
%TD*%
D15*
%TO.C,Q8*%
X112315000Y-104240000D03*
X112315000Y-106140000D03*
X114190000Y-105190000D03*
%TD*%
D34*
%TO.C,Cout2b1*%
X74437500Y-64500000D03*
X77562500Y-64500000D03*
%TD*%
D35*
%TO.C,D1*%
X126058250Y-55621800D03*
X123734250Y-55621800D03*
%TD*%
D11*
%TO.C,R11*%
X136070000Y-99690000D03*
X136070000Y-101690000D03*
%TD*%
%TO.C,R15*%
X64070000Y-99690000D03*
X64070000Y-101690000D03*
%TD*%
D36*
%TO.C,Q1*%
X122728250Y-52921000D03*
D37*
X125014250Y-46190000D03*
D36*
X127300250Y-52921000D03*
%TD*%
D38*
%TO.C,Cin2*%
X86990000Y-45855000D03*
X86990000Y-48980000D03*
%TD*%
D39*
%TO.C,5V_OUT1*%
X84190000Y-143190000D03*
D40*
X88390000Y-143190000D03*
X92590000Y-143190000D03*
X84190000Y-148690000D03*
X88390000Y-148690000D03*
X92590000Y-148690000D03*
%TD*%
D41*
%TO.C,Rfbt1*%
X93800000Y-55800000D03*
X93800000Y-53800000D03*
%TD*%
D42*
%TO.C,D4*%
X105690000Y-99640000D03*
D43*
X105690000Y-107260000D03*
%TD*%
D11*
%TO.C,R16*%
X67070000Y-99690000D03*
X67070000Y-101690000D03*
%TD*%
D15*
%TO.C,Q11*%
X89690000Y-104240000D03*
X89690000Y-106140000D03*
X91565000Y-105190000D03*
%TD*%
D44*
%TO.C,Cboot1*%
X95450000Y-44747500D03*
X95450000Y-45707500D03*
%TD*%
D39*
%TO.C,3.3V_OUT1*%
X132190000Y-142870000D03*
D40*
X136390000Y-142870000D03*
X132190000Y-148370000D03*
X136390000Y-148370000D03*
%TD*%
D19*
%TO.C,R3b1*%
X61352500Y-46620000D03*
X59352500Y-46620000D03*
%TD*%
D38*
%TO.C,Cout2a1*%
X110910000Y-47375000D03*
X110910000Y-50500000D03*
%TD*%
D15*
%TO.C,Q2*%
X135570000Y-104240000D03*
X135570000Y-106140000D03*
X137445000Y-105190000D03*
%TD*%
D23*
%TO.C,Rmode1a1*%
X92140000Y-50775000D03*
X92140000Y-51970000D03*
%TD*%
D15*
%TO.C,Q9*%
X62442500Y-104240000D03*
X62442500Y-106140000D03*
X64317500Y-105190000D03*
%TD*%
D13*
%TO.C,K2*%
X130570000Y-126430000D03*
X138190000Y-126430000D03*
X130570000Y-131510000D03*
X138190000Y-131510000D03*
X130570000Y-136590000D03*
X138190000Y-136590000D03*
X130570000Y-111190000D03*
X138190000Y-111190000D03*
X134380000Y-111190000D03*
%TD*%
D45*
%TO.C,C5*%
X101890000Y-67690000D03*
X94490000Y-67690000D03*
%TD*%
D11*
%TO.C,R6*%
X112880000Y-99690000D03*
X112880000Y-101690000D03*
%TD*%
D13*
%TO.C,K4*%
X61860000Y-126360000D03*
X69480000Y-126360000D03*
X61860000Y-131440000D03*
X69480000Y-131440000D03*
X61860000Y-136520000D03*
X69480000Y-136520000D03*
X61860000Y-111120000D03*
X69480000Y-111120000D03*
X65670000Y-111120000D03*
%TD*%
D42*
%TO.C,D7*%
X59690000Y-99690000D03*
D43*
X59690000Y-107310000D03*
%TD*%
D46*
%TO.C,A1*%
X101140000Y-90800000D03*
D47*
X103680000Y-90800000D03*
X106220000Y-90800000D03*
X108760000Y-90800000D03*
X111300000Y-90800000D03*
X113840000Y-90800000D03*
X116380000Y-90800000D03*
X118920000Y-90800000D03*
X121460000Y-90800000D03*
X124000000Y-90800000D03*
X126540000Y-90800000D03*
X129080000Y-90800000D03*
X131620000Y-90800000D03*
X134160000Y-90800000D03*
X136700000Y-90800000D03*
X136700000Y-75560000D03*
X134160000Y-75560000D03*
X131620000Y-75560000D03*
X129080000Y-75560000D03*
X126540000Y-75560000D03*
X124000000Y-75560000D03*
X121460000Y-75560000D03*
X118920000Y-75560000D03*
X116380000Y-75560000D03*
X113840000Y-75560000D03*
X111300000Y-75560000D03*
X108760000Y-75560000D03*
X106220000Y-75560000D03*
X103680000Y-75560000D03*
X101140000Y-75560000D03*
%TD*%
D11*
%TO.C,R5*%
X109880000Y-99690000D03*
X109880000Y-101690000D03*
%TD*%
D44*
%TO.C,C2b1*%
X78719502Y-56908902D03*
X78719502Y-57868902D03*
%TD*%
D15*
%TO.C,Q12*%
X66695000Y-104240000D03*
X66695000Y-106140000D03*
X68570000Y-105190000D03*
%TD*%
D48*
%TO.C,USB_Connect1*%
X107910001Y-143690000D03*
X110410002Y-143690000D03*
X112399999Y-143690000D03*
X114900000Y-143690000D03*
X115410000Y-142189999D03*
X113410000Y-142189999D03*
X111409999Y-142189999D03*
X109410002Y-142189999D03*
X107410001Y-142189999D03*
D49*
X104705001Y-145690058D03*
X118105000Y-145690058D03*
%TD*%
D13*
%TO.C,K3*%
X107570000Y-126430000D03*
X115190000Y-126430000D03*
X107570000Y-131510000D03*
X115190000Y-131510000D03*
X107570000Y-136590000D03*
X115190000Y-136590000D03*
X107570000Y-111190000D03*
X115190000Y-111190000D03*
X111380000Y-111190000D03*
%TD*%
D50*
%TO.C,D9*%
X109190000Y-71690000D03*
X109190000Y-67690000D03*
%TD*%
D42*
%TO.C,D2*%
X82690000Y-99750000D03*
D43*
X82690000Y-107370000D03*
%TD*%
D42*
%TO.C,D5*%
X116880000Y-99690000D03*
D43*
X116880000Y-107310000D03*
%TD*%
D38*
%TO.C,Cin1*%
X83110000Y-45765000D03*
X83110000Y-48890000D03*
%TD*%
D51*
%TO.C,Rfbt2*%
X72937500Y-58407500D03*
X72937500Y-57592500D03*
%TD*%
D34*
%TO.C,Cout3b1*%
X74437500Y-62000000D03*
X77562500Y-62000000D03*
%TD*%
D51*
%TO.C,Rfbb2*%
X71437500Y-58340000D03*
X71437500Y-57525000D03*
%TD*%
D11*
%TO.C,R3*%
X86690000Y-99690000D03*
X86690000Y-101690000D03*
%TD*%
D42*
%TO.C,D3*%
X94190000Y-99560000D03*
D43*
X94190000Y-107180000D03*
%TD*%
D52*
%TO.C,XBee1*%
X66690000Y-94190000D03*
X68690000Y-94190000D03*
X70690000Y-94190000D03*
X72690000Y-94190000D03*
X74690000Y-94190000D03*
X76690000Y-94190000D03*
X78690000Y-94190000D03*
X80690000Y-94190000D03*
X82690000Y-94190000D03*
X84690000Y-94190000D03*
X84690000Y-72190000D03*
X82690000Y-72190000D03*
X80690000Y-72190000D03*
X78690000Y-72190000D03*
X76690000Y-72190000D03*
X74690000Y-72190000D03*
X72690000Y-72190000D03*
X70690000Y-72190000D03*
X68690000Y-72190000D03*
X66690000Y-72190000D03*
%TD*%
D15*
%TO.C,Q10*%
X85315000Y-104240000D03*
X85315000Y-106140000D03*
X87190000Y-105190000D03*
%TD*%
D53*
%TO.C,Cff1*%
X94515000Y-52400000D03*
X93380000Y-52400000D03*
%TD*%
D42*
%TO.C,D8*%
X71070000Y-99690000D03*
D43*
X71070000Y-107310000D03*
%TD*%
D54*
%TO.C,C4*%
X57252500Y-48490000D03*
X58977500Y-48490000D03*
%TD*%
D38*
%TO.C,Cout1a1*%
X106910000Y-47375000D03*
X106910000Y-50500000D03*
%TD*%
%TO.C,C1b1*%
X80989502Y-55983902D03*
X80989502Y-59108902D03*
%TD*%
D55*
%TO.C,Rmode1b1*%
X76467002Y-54920000D03*
X75652002Y-54920000D03*
%TD*%
D39*
%TO.C,12V_OUT1*%
X59090000Y-143190000D03*
D40*
X63290000Y-143190000D03*
X67490000Y-143190000D03*
X71690000Y-143190000D03*
X59090000Y-148690000D03*
X63290000Y-148690000D03*
X67490000Y-148690000D03*
X71690000Y-148690000D03*
%TD*%
D56*
%TO.C,L1b1*%
X59352500Y-54220000D03*
X56552500Y-54220000D03*
%TD*%
D42*
%TO.C,D6*%
X140070000Y-99690000D03*
D43*
X140070000Y-107310000D03*
%TD*%
D54*
%TO.C,C3*%
X57292500Y-50080000D03*
X59017500Y-50080000D03*
%TD*%
D11*
%TO.C,R7*%
X133070000Y-99690000D03*
X133070000Y-101690000D03*
%TD*%
D18*
%TO.C,R3a1*%
X63322500Y-46620000D03*
X65322500Y-46620000D03*
%TD*%
D42*
%TO.C,D10*%
X128690000Y-99690000D03*
D43*
X128690000Y-107310000D03*
%TD*%
D34*
%TO.C,Cout1b1*%
X74437500Y-67000000D03*
X77562500Y-67000000D03*
%TD*%
M02*
