%TF.GenerationSoftware,KiCad,Pcbnew,9.0.3*%
%TF.CreationDate,2026-04-17T17:54:18-04:00*%
%TF.ProjectId,PowerDistributionPCB,506f7765-7244-4697-9374-726962757469,rev?*%
%TF.SameCoordinates,Original*%
%TF.FileFunction,Soldermask,Bot*%
%TF.FilePolarity,Negative*%
%FSLAX46Y46*%
G04 Gerber Fmt 4.6, Leading zero omitted, Abs format (unit mm)*
G04 Created by KiCad (PCBNEW 9.0.3) date 2026-04-17 17:54:18*
%MOMM*%
%LPD*%
G01*
G04 APERTURE LIST*
G04 Aperture macros list*
%AMRoundRect*
0 Rectangle with rounded corners*
0 $1 Rounding radius*
0 $2 $3 $4 $5 $6 $7 $8 $9 X,Y pos of 4 corners*
0 Add a 4 corners polygon primitive as box body*
4,1,4,$2,$3,$4,$5,$6,$7,$8,$9,$2,$3,0*
0 Add four circle primitives for the rounded corners*
1,1,$1+$1,$2,$3*
1,1,$1+$1,$4,$5*
1,1,$1+$1,$6,$7*
1,1,$1+$1,$8,$9*
0 Add four rect primitives between the rounded corners*
20,1,$1+$1,$2,$3,$4,$5,0*
20,1,$1+$1,$4,$5,$6,$7,0*
20,1,$1+$1,$6,$7,$8,$9,0*
20,1,$1+$1,$8,$9,$2,$3,0*%
G04 Aperture macros list end*
%ADD10C,1.524000*%
%ADD11C,0.499999*%
%ADD12C,2.754000*%
%ADD13RoundRect,0.102000X-1.275000X1.275000X-1.275000X-1.275000X1.275000X-1.275000X1.275000X1.275000X0*%
%ADD14C,1.712000*%
%ADD15C,3.200000*%
%ADD16RoundRect,0.250001X-1.099999X-1.399999X1.099999X-1.399999X1.099999X1.399999X-1.099999X1.399999X0*%
%ADD17O,2.700000X3.300000*%
%ADD18RoundRect,0.250000X-0.550000X0.550000X-0.550000X-0.550000X0.550000X-0.550000X0.550000X0.550000X0*%
%ADD19C,1.600000*%
%ADD20R,1.600000X1.600000*%
%ADD21O,1.600000X1.600000*%
%ADD22C,1.092200*%
%ADD23C,2.692400*%
%ADD24C,1.700000*%
G04 APERTURE END LIST*
D10*
%TO.C,K1*%
X84570000Y-126430000D03*
X92190000Y-126430000D03*
X84570000Y-131510000D03*
X92190000Y-131510000D03*
X84570000Y-136590000D03*
X92190000Y-136590000D03*
X84570000Y-111190000D03*
X92190000Y-111190000D03*
X88380000Y-111190000D03*
%TD*%
D11*
%TO.C,12V1*%
X86300001Y-52187454D03*
X86300001Y-52975453D03*
X86300001Y-53712452D03*
X86950000Y-52187454D03*
X86950000Y-52975453D03*
X86950000Y-53712452D03*
X88250002Y-52187454D03*
X88250002Y-52975453D03*
X88250002Y-53712452D03*
X88900001Y-52187454D03*
X88900001Y-52975453D03*
X88900001Y-53712452D03*
%TD*%
D12*
%TO.C,22V_BATT_IN1*%
X131294250Y-64500000D03*
D13*
X131294250Y-59500000D03*
D14*
X141294250Y-67500000D03*
X141294250Y-56500000D03*
%TD*%
D15*
%TO.C,H2*%
X57000000Y-155500000D03*
%TD*%
D16*
%TO.C,5V_OUT1*%
X86795000Y-143750000D03*
D17*
X90995000Y-143750000D03*
X95195000Y-143750000D03*
X86795000Y-149250000D03*
X90995000Y-149250000D03*
X95195000Y-149250000D03*
%TD*%
D18*
%TO.C,D4*%
X105690000Y-99640000D03*
D19*
X105690000Y-107260000D03*
%TD*%
D16*
%TO.C,3.3V_OUT1*%
X128400000Y-143250000D03*
D17*
X132600000Y-143250000D03*
X128400000Y-148750000D03*
X132600000Y-148750000D03*
%TD*%
D15*
%TO.C,H1*%
X57000000Y-48000000D03*
%TD*%
D10*
%TO.C,K2*%
X130570000Y-126430000D03*
X138190000Y-126430000D03*
X130570000Y-131510000D03*
X138190000Y-131510000D03*
X130570000Y-136590000D03*
X138190000Y-136590000D03*
X130570000Y-111190000D03*
X138190000Y-111190000D03*
X134380000Y-111190000D03*
%TD*%
%TO.C,K4*%
X61860000Y-126360000D03*
X69480000Y-126360000D03*
X61860000Y-131440000D03*
X69480000Y-131440000D03*
X61860000Y-136520000D03*
X69480000Y-136520000D03*
X61860000Y-111120000D03*
X69480000Y-111120000D03*
X65670000Y-111120000D03*
%TD*%
D18*
%TO.C,D7*%
X59690000Y-99690000D03*
D19*
X59690000Y-107310000D03*
%TD*%
D20*
%TO.C,A1*%
X101140000Y-90800000D03*
D21*
X103680000Y-90800000D03*
X106220000Y-90800000D03*
X108760000Y-90800000D03*
X111300000Y-90800000D03*
X113840000Y-90800000D03*
X116380000Y-90800000D03*
X118920000Y-90800000D03*
X121460000Y-90800000D03*
X124000000Y-90800000D03*
X126540000Y-90800000D03*
X129080000Y-90800000D03*
X131620000Y-90800000D03*
X134160000Y-90800000D03*
X136700000Y-90800000D03*
X136700000Y-75560000D03*
X134160000Y-75560000D03*
X131620000Y-75560000D03*
X129080000Y-75560000D03*
X126540000Y-75560000D03*
X124000000Y-75560000D03*
X121460000Y-75560000D03*
X118920000Y-75560000D03*
X116380000Y-75560000D03*
X113840000Y-75560000D03*
X111300000Y-75560000D03*
X108760000Y-75560000D03*
X106220000Y-75560000D03*
X103680000Y-75560000D03*
X101140000Y-75560000D03*
%TD*%
D11*
%TO.C,5V1*%
X105733000Y-52410101D03*
X105733000Y-53198100D03*
X105733000Y-53935099D03*
X106382999Y-52410101D03*
X106382999Y-53198100D03*
X106382999Y-53935099D03*
X107683001Y-52410101D03*
X107683001Y-53198100D03*
X107683001Y-53935099D03*
X108333000Y-52410101D03*
X108333000Y-53198100D03*
X108333000Y-53935099D03*
%TD*%
D22*
%TO.C,USB_OUT1*%
X108010002Y-143690000D03*
X110510003Y-143690000D03*
X112500000Y-143690000D03*
X115000001Y-143690000D03*
X115510001Y-142189999D03*
X113510001Y-142189999D03*
X111510000Y-142189999D03*
X109510003Y-142189999D03*
X107510002Y-142189999D03*
D23*
X104805002Y-145690058D03*
X118205001Y-145690058D03*
%TD*%
D10*
%TO.C,K3*%
X107570000Y-126430000D03*
X115190000Y-126430000D03*
X107570000Y-131510000D03*
X115190000Y-131510000D03*
X107570000Y-136590000D03*
X115190000Y-136590000D03*
X107570000Y-111190000D03*
X115190000Y-111190000D03*
X111380000Y-111190000D03*
%TD*%
D18*
%TO.C,D2*%
X82690000Y-99750000D03*
D19*
X82690000Y-107370000D03*
%TD*%
D18*
%TO.C,D5*%
X116880000Y-99690000D03*
D19*
X116880000Y-107310000D03*
%TD*%
D18*
%TO.C,D3*%
X94190000Y-99560000D03*
D19*
X94190000Y-107180000D03*
%TD*%
D15*
%TO.C,H3*%
X142000000Y-48000000D03*
%TD*%
D24*
%TO.C,XBee1*%
X66690000Y-94190000D03*
X68690000Y-94190000D03*
X70690000Y-94190000D03*
X72690000Y-94190000D03*
X74690000Y-94190000D03*
X76690000Y-94190000D03*
X78690000Y-94190000D03*
X80690000Y-94190000D03*
X82690000Y-94190000D03*
X84690000Y-94190000D03*
X84690000Y-72190000D03*
X82690000Y-72190000D03*
X80690000Y-72190000D03*
X78690000Y-72190000D03*
X76690000Y-72190000D03*
X74690000Y-72190000D03*
X72690000Y-72190000D03*
X70690000Y-72190000D03*
X68690000Y-72190000D03*
X66690000Y-72190000D03*
%TD*%
D15*
%TO.C,H4*%
X142000000Y-155000000D03*
%TD*%
D18*
%TO.C,D8*%
X71070000Y-99690000D03*
D19*
X71070000Y-107310000D03*
%TD*%
D16*
%TO.C,12V_OUT1*%
X65132000Y-143842000D03*
D17*
X69332000Y-143842000D03*
X73532000Y-143842000D03*
X77732000Y-143842000D03*
X65132000Y-149342000D03*
X69332000Y-149342000D03*
X73532000Y-149342000D03*
X77732000Y-149342000D03*
%TD*%
D18*
%TO.C,D6*%
X140070000Y-99690000D03*
D19*
X140070000Y-107310000D03*
%TD*%
D18*
%TO.C,D10*%
X128690000Y-99690000D03*
D19*
X128690000Y-107310000D03*
%TD*%
M02*
