M48
; DRILL file {KiCad 9.0.3} date 2026-04-17T17:54:18-0400
; FORMAT={-:-/ absolute / inch / decimal}
; #@! TF.CreationDate,2026-04-17T17:54:18-04:00
; #@! TF.GenerationSoftware,Kicad,Pcbnew,9.0.3
; #@! TF.FileFunction,Plated,1,4,PTH
FMAT,2
INCH
; #@! TA.AperFunction,Plated,PTH,ComponentDrill
T1C0.0080
; #@! TA.AperFunction,Plated,PTH,ViaDrill
T2C0.0130
; #@! TA.AperFunction,Plated,PTH,ViaDrill
T3C0.0150
; #@! TA.AperFunction,Plated,PTH,ComponentDrill
T4C0.0280
; #@! TA.AperFunction,Plated,PTH,ComponentDrill
T5C0.0315
; #@! TA.AperFunction,Plated,PTH,ComponentDrill
T6C0.0394
; #@! TA.AperFunction,Plated,PTH,ComponentDrill
T7C0.0400
; #@! TA.AperFunction,Plated,PTH,ComponentDrill
T8C0.0551
; #@! TA.AperFunction,Plated,PTH,ComponentDrill
T9C0.0669
; #@! TA.AperFunction,Plated,PTH,ComponentDrill
T10C0.0910
%
G90
G05
T1
X3.3976Y-2.0546
X3.3976Y-2.0856
X3.3976Y-2.1147
X3.4232Y-2.0546
X3.4232Y-2.0856
X3.4232Y-2.1147
X3.4744Y-2.0546
X3.4744Y-2.0856
X3.4744Y-2.1147
X3.5Y-2.0546
X3.5Y-2.0856
X3.5Y-2.1147
X4.1627Y-2.0634
X4.1627Y-2.0944
X4.1627Y-2.1234
X4.1883Y-2.0634
X4.1883Y-2.0944
X4.1883Y-2.1234
X4.2395Y-2.0634
X4.2395Y-2.0944
X4.2395Y-2.1234
X4.2651Y-2.0634
X4.2651Y-2.0944
X4.2651Y-2.1234
T2
X2.7283Y-1.8611
X2.7854Y-1.9914
X2.7861Y-2.028
X2.7861Y-2.0622
X2.9054Y-2.1449
X3.2339Y-2.0055
X3.2461Y-1.9768
X3.274Y-1.9453
X3.3008Y-1.9236
X3.3362Y-1.9228
X3.4327Y-2.6059
X3.5509Y-2.0763
X3.5509Y-2.1098
X3.5635Y-2.1421
X3.5985Y-2.1437
X3.7969Y-3.4047
X3.998Y-1.9996
X4.011Y-1.9602
X4.0427Y-1.9366
X4.0786Y-1.936
X4.1141Y-1.9352
X4.2965Y-2.4901
X4.343Y-2.1641
X4.3711Y-2.1411
X4.4113Y-2.1407
X4.4507Y-2.1407
X4.6138Y-4.476
T3
X2.6621Y-1.9823
X2.6621Y-2.0225
X2.6621Y-2.0619
T4
X4.2327Y-5.598
X4.2524Y-5.6571
X4.3114Y-5.598
X4.3508Y-5.6571
X4.3902Y-5.598
X4.4291Y-5.6571
X4.4689Y-5.598
X4.5276Y-5.6571
X4.5476Y-5.598
T5
X2.35Y-3.9248
X2.35Y-4.2248
X2.6256Y-2.8421
X2.6256Y-3.7083
X2.7043Y-2.8421
X2.7043Y-3.7083
X2.7831Y-2.8421
X2.7831Y-3.7083
X2.798Y-3.9248
X2.798Y-4.2248
X2.8618Y-2.8421
X2.8618Y-3.7083
X2.9406Y-2.8421
X2.9406Y-3.7083
X3.0193Y-2.8421
X3.0193Y-3.7083
X3.098Y-2.8421
X3.098Y-3.7083
X3.1768Y-2.8421
X3.1768Y-3.7083
X3.2555Y-2.8421
X3.2555Y-3.7083
X3.2555Y-3.9272
X3.2555Y-4.2272
X3.3343Y-2.8421
X3.3343Y-3.7083
X3.7083Y-3.9197
X3.7083Y-4.2197
X4.161Y-3.9228
X4.161Y-4.2228
X4.6016Y-3.9248
X4.6016Y-4.2248
X5.0665Y-3.9248
X5.0665Y-4.2248
X5.5146Y-3.9248
X5.5146Y-4.2248
T6
X3.9819Y-2.9748
X3.9819Y-3.5748
X4.0819Y-2.9748
X4.0819Y-3.5748
X4.1819Y-2.9748
X4.1819Y-3.5748
X4.2819Y-2.9748
X4.2819Y-3.5748
X4.3819Y-2.9748
X4.3819Y-3.5748
X4.4819Y-2.9748
X4.4819Y-3.5748
X4.5819Y-2.9748
X4.5819Y-3.5748
X4.6819Y-2.9748
X4.6819Y-3.5748
X4.7819Y-2.9748
X4.7819Y-3.5748
X4.8819Y-2.9748
X4.8819Y-3.5748
X4.9819Y-2.9748
X4.9819Y-3.5748
X5.0819Y-2.9748
X5.0819Y-3.5748
X5.1819Y-2.9748
X5.1819Y-3.5748
X5.2819Y-2.9748
X5.2819Y-3.5748
X5.3819Y-2.9748
X5.3819Y-3.5748
X5.5628Y-2.2244
X5.5628Y-2.6575
T7
X2.4354Y-4.3748
X2.4354Y-4.9748
X2.4354Y-5.1748
X2.4354Y-5.3748
X2.5854Y-4.3748
X2.7354Y-4.3748
X2.7354Y-4.9748
X2.7354Y-5.1748
X2.7354Y-5.3748
X3.3295Y-4.3776
X3.3295Y-4.9776
X3.3295Y-5.1776
X3.3295Y-5.3776
X3.4795Y-4.3776
X3.6295Y-4.3776
X3.6295Y-4.9776
X3.6295Y-5.1776
X3.6295Y-5.3776
X4.235Y-4.3776
X4.235Y-4.9776
X4.235Y-5.1776
X4.235Y-5.3776
X4.385Y-4.3776
X4.535Y-4.3776
X4.535Y-4.9776
X4.535Y-5.1776
X4.535Y-5.3776
X5.1406Y-4.3776
X5.1406Y-4.9776
X5.1406Y-5.1776
X5.1406Y-5.3776
X5.2906Y-4.3776
X5.4406Y-4.3776
X5.4406Y-4.9776
X5.4406Y-5.1776
X5.4406Y-5.3776
T8
X2.5643Y-5.6631
X2.5643Y-5.8796
X2.7296Y-5.6631
X2.7296Y-5.8796
X2.895Y-5.6631
X2.895Y-5.8796
X3.0603Y-5.6631
X3.0603Y-5.8796
X3.4171Y-5.6594
X3.4171Y-5.876
X3.5825Y-5.6594
X3.5825Y-5.876
X3.7478Y-5.6594
X3.7478Y-5.876
X5.0551Y-5.6398
X5.0551Y-5.8563
X5.2205Y-5.6398
X5.2205Y-5.8563
T9
X5.1691Y-2.3425
X5.1691Y-2.5394
T10
X4.1262Y-5.7358
X4.6537Y-5.7358
M30
