%TF.GenerationSoftware,KiCad,Pcbnew,9.0.3*%
%TF.CreationDate,2026-04-16T20:45:40-04:00*%
%TF.ProjectId,Switchbox,53776974-6368-4626-9f78-2e6b69636164,rev?*%
%TF.SameCoordinates,Original*%
%TF.FileFunction,Copper,L4,Bot*%
%TF.FilePolarity,Positive*%
%FSLAX46Y46*%
G04 Gerber Fmt 4.6, Leading zero omitted, Abs format (unit mm)*
G04 Created by KiCad (PCBNEW 9.0.3) date 2026-04-16 20:45:40*
%MOMM*%
%LPD*%
G01*
G04 APERTURE LIST*
%TA.AperFunction,ComponentPad*%
%ADD10R,1.575000X1.575000*%
%TD*%
%TA.AperFunction,ComponentPad*%
%ADD11C,1.575000*%
%TD*%
%TA.AperFunction,ComponentPad*%
%ADD12R,1.508000X1.508000*%
%TD*%
%TA.AperFunction,ComponentPad*%
%ADD13C,1.508000*%
%TD*%
%TA.AperFunction,WasherPad*%
%ADD14O,1.701800X1.092200*%
%TD*%
%TA.AperFunction,ComponentPad*%
%ADD15C,1.700000*%
%TD*%
%TA.AperFunction,ComponentPad*%
%ADD16R,1.600000X1.600000*%
%TD*%
%TA.AperFunction,ComponentPad*%
%ADD17O,1.600000X1.600000*%
%TD*%
%TA.AperFunction,ViaPad*%
%ADD18C,0.600000*%
%TD*%
%TA.AperFunction,Conductor*%
%ADD19C,0.127000*%
%TD*%
G04 APERTURE END LIST*
D10*
%TO.P,D6,1,K*%
%TO.N,GND*%
X164000000Y-90000000D03*
D11*
%TO.P,D6,2,A*%
%TO.N,Net-(D6-A)*%
X166500000Y-90000000D03*
%TD*%
D10*
%TO.P,D5,1,K*%
%TO.N,GND*%
X154500000Y-90000000D03*
D11*
%TO.P,D5,2,A*%
%TO.N,Net-(D5-A)*%
X157000000Y-90000000D03*
%TD*%
D12*
%TO.P,SW2,1,A*%
%TO.N,GND*%
X153200000Y-131125000D03*
D13*
%TO.P,SW2,2,B*%
%TO.N,LED2_STATE*%
X150700000Y-131125000D03*
%TO.P,SW2,3,C*%
%TO.N,Net-(D2-K)*%
X148200000Y-131125000D03*
%TD*%
D10*
%TO.P,D3,1,K*%
%TO.N,Net-(D3-K)*%
X161500000Y-118000000D03*
D11*
%TO.P,D3,2,A*%
%TO.N,Net-(D3-A)*%
X164000000Y-118000000D03*
%TD*%
D12*
%TO.P,SW4,1,A*%
%TO.N,GND*%
X177200000Y-131000000D03*
D13*
%TO.P,SW4,2,B*%
%TO.N,LED4_STATE*%
X174700000Y-131000000D03*
%TO.P,SW4,3,C*%
%TO.N,Net-(D4-K)*%
X172200000Y-131000000D03*
%TD*%
D10*
%TO.P,D1,1,K*%
%TO.N,Net-(D1-K)*%
X144000000Y-118000000D03*
D11*
%TO.P,D1,2,A*%
%TO.N,Net-(D1-A)*%
X146500000Y-118000000D03*
%TD*%
D12*
%TO.P,SW3,1,A*%
%TO.N,GND*%
X165000000Y-131000000D03*
D13*
%TO.P,SW3,2,B*%
%TO.N,LED3_STATE*%
X162500000Y-131000000D03*
%TO.P,SW3,3,C*%
%TO.N,Net-(D3-K)*%
X160000000Y-131000000D03*
%TD*%
D10*
%TO.P,D2,1,K*%
%TO.N,Net-(D2-K)*%
X152800000Y-118100000D03*
D11*
%TO.P,D2,2,A*%
%TO.N,Net-(D2-A)*%
X155300000Y-118100000D03*
%TD*%
D12*
%TO.P,SW5,1,1*%
%TO.N,GND*%
X114585000Y-132310000D03*
D13*
%TO.P,SW5,2,2*%
%TO.N,Net-(SW5-A)*%
X112085000Y-132310000D03*
%TO.P,SW5,3,K*%
%TO.N,GND*%
X109585000Y-132310000D03*
%TO.P,SW5,4,A*%
%TO.N,Net-(SW5-A)*%
X107085000Y-132310000D03*
%TD*%
D12*
%TO.P,SW1,1,A*%
%TO.N,GND*%
X141500000Y-131000000D03*
D13*
%TO.P,SW1,2,B*%
%TO.N,LED1_STATE*%
X139000000Y-131000000D03*
%TO.P,SW1,3,C*%
%TO.N,Net-(D1-K)*%
X136500000Y-131000000D03*
%TD*%
D14*
%TO.P,J1,*%
%TO.N,*%
X184690500Y-144300002D03*
X188490500Y-144299999D03*
X188490500Y-135660001D03*
X184690500Y-135659998D03*
%TD*%
D15*
%TO.P,XBEE1,1,VCC*%
%TO.N,BOX_STATE*%
X115000000Y-119650000D03*
%TO.P,XBEE1,2,DOUT*%
%TO.N,FROM_XBEE*%
X117000000Y-119650000D03*
%TO.P,XBEE1,3,DIN/CONFIG*%
%TO.N,TO_XBEE*%
X119000000Y-119650000D03*
%TO.P,XBEE1,4,DIO12*%
%TO.N,unconnected-(XBEE1-DIO12-Pad4)*%
X121000000Y-119650000D03*
%TO.P,XBEE1,5,RESET*%
%TO.N,unconnected-(XBEE1-RESET-Pad5)*%
X123000000Y-119650000D03*
%TO.P,XBEE1,6,PWM0/RSSI/DIO10*%
%TO.N,unconnected-(XBEE1-PWM0{slash}RSSI{slash}DIO10-Pad6)*%
X125000000Y-119650000D03*
%TO.P,XBEE1,7,DIO11*%
%TO.N,unconnected-(XBEE1-DIO11-Pad7)*%
X127000000Y-119650000D03*
%TO.P,XBEE1,8,RESERVED*%
%TO.N,unconnected-(XBEE1-RESERVED-Pad8)*%
X129000000Y-119650000D03*
%TO.P,XBEE1,9,DET/SLEEP_RQ/DIO8*%
%TO.N,unconnected-(XBEE1-DET{slash}SLEEP_RQ{slash}DIO8-Pad9)*%
X131000000Y-119650000D03*
%TO.P,XBEE1,10,GND*%
%TO.N,GND*%
X133000000Y-119650000D03*
%TO.P,XBEE1,11,DIO4*%
%TO.N,unconnected-(XBEE1-DIO4-Pad11)*%
X133000000Y-97650000D03*
%TO.P,XBEE1,12,CTS/DIO7*%
%TO.N,unconnected-(XBEE1-CTS{slash}DIO7-Pad12)*%
X131000000Y-97650000D03*
%TO.P,XBEE1,13,ON/SLEEP*%
%TO.N,unconnected-(XBEE1-ON{slash}SLEEP-Pad13)*%
X129000000Y-97650000D03*
%TO.P,XBEE1,14,VREF*%
%TO.N,unconnected-(XBEE1-VREF-Pad14)*%
X127000000Y-97650000D03*
%TO.P,XBEE1,15,ASC/DIO5*%
%TO.N,unconnected-(XBEE1-ASC{slash}DIO5-Pad15)*%
X125000000Y-97650000D03*
%TO.P,XBEE1,16,RTS/DIO6*%
%TO.N,unconnected-(XBEE1-RTS{slash}DIO6-Pad16)*%
X123000000Y-97650000D03*
%TO.P,XBEE1,17,AD3/DIO3*%
%TO.N,unconnected-(XBEE1-AD3{slash}DIO3-Pad17)*%
X121000000Y-97650000D03*
%TO.P,XBEE1,18,AD2/DIO2*%
%TO.N,unconnected-(XBEE1-AD2{slash}DIO2-Pad18)*%
X119000000Y-97650000D03*
%TO.P,XBEE1,19,AD1/DIO1*%
%TO.N,unconnected-(XBEE1-AD1{slash}DIO1-Pad19)*%
X117000000Y-97650000D03*
%TO.P,XBEE1,20,AD0/DIO0/CMSN_BTN*%
%TO.N,unconnected-(XBEE1-AD0{slash}DIO0{slash}CMSN_BTN-Pad20)*%
X115000000Y-97650000D03*
%TD*%
D16*
%TO.P,A2,1,D1/TX*%
%TO.N,TO_XBEE*%
X149600000Y-111500000D03*
D17*
%TO.P,A2,2,D0/RX*%
%TO.N,FROM_XBEE*%
X152140000Y-111500000D03*
%TO.P,A2,3,~{RESET}*%
%TO.N,unconnected-(A2-~{RESET}-Pad3)*%
X154680000Y-111500000D03*
%TO.P,A2,4,GND*%
%TO.N,GND*%
X157220000Y-111500000D03*
%TO.P,A2,5,D2*%
%TO.N,LED4_STATE*%
X159760000Y-111500000D03*
%TO.P,A2,6,D3*%
%TO.N,LED3_STATE*%
X162300000Y-111500000D03*
%TO.P,A2,7,D4*%
%TO.N,LED2_STATE*%
X164840000Y-111500000D03*
%TO.P,A2,8,D5*%
%TO.N,LED1_STATE*%
X167380000Y-111500000D03*
%TO.P,A2,9,D6*%
%TO.N,LED1_PWR*%
X169920000Y-111500000D03*
%TO.P,A2,10,D7*%
%TO.N,LED2_PWR*%
X172460000Y-111500000D03*
%TO.P,A2,11,D8*%
%TO.N,LED3_PWR*%
X175000000Y-111500000D03*
%TO.P,A2,12,D9*%
%TO.N,LED4_PWR*%
X177540000Y-111500000D03*
%TO.P,A2,13,D10*%
%TO.N,LED5_PWR*%
X180080000Y-111500000D03*
%TO.P,A2,14,D11*%
%TO.N,LED6_PWR*%
X182620000Y-111500000D03*
%TO.P,A2,15,D12*%
%TO.N,BUTTON*%
X185160000Y-111500000D03*
%TO.P,A2,16,D13*%
%TO.N,unconnected-(A2-D13-Pad16)*%
X185160000Y-96260000D03*
%TO.P,A2,17,3V3*%
%TO.N,BOX_STATE*%
X182620000Y-96260000D03*
%TO.P,A2,18,AREF*%
%TO.N,unconnected-(A2-AREF-Pad18)*%
X180080000Y-96260000D03*
%TO.P,A2,19,A0*%
%TO.N,unconnected-(A2-A0-Pad19)*%
X177540000Y-96260000D03*
%TO.P,A2,20,A1*%
%TO.N,unconnected-(A2-A1-Pad20)*%
X175000000Y-96260000D03*
%TO.P,A2,21,A2*%
%TO.N,unconnected-(A2-A2-Pad21)*%
X172460000Y-96260000D03*
%TO.P,A2,22,A3*%
%TO.N,unconnected-(A2-A3-Pad22)*%
X169920000Y-96260000D03*
%TO.P,A2,23,A4*%
%TO.N,unconnected-(A2-A4-Pad23)*%
X167380000Y-96260000D03*
%TO.P,A2,24,A5*%
%TO.N,unconnected-(A2-A5-Pad24)*%
X164840000Y-96260000D03*
%TO.P,A2,25,A6*%
%TO.N,unconnected-(A2-A6-Pad25)*%
X162300000Y-96260000D03*
%TO.P,A2,26,A7*%
%TO.N,unconnected-(A2-A7-Pad26)*%
X159760000Y-96260000D03*
%TO.P,A2,27,+5V*%
%TO.N,+5V*%
X157220000Y-96260000D03*
%TO.P,A2,28,~{RESET}*%
%TO.N,unconnected-(A2-~{RESET}-Pad28)*%
X154680000Y-96260000D03*
%TO.P,A2,29,GND*%
%TO.N,GND*%
X152140000Y-96260000D03*
%TO.P,A2,30,VIN*%
%TO.N,unconnected-(A2-VIN-Pad30)*%
X149600000Y-96260000D03*
%TD*%
D12*
%TO.P,SW6,1,A*%
%TO.N,GND*%
X179350000Y-90800000D03*
D13*
%TO.P,SW6,2,B*%
%TO.N,BOX_STATE*%
X176850000Y-90800000D03*
%TO.P,SW6,3,C*%
%TO.N,3.3VBuck*%
X174350000Y-90800000D03*
%TD*%
D10*
%TO.P,D4,1,K*%
%TO.N,Net-(D4-K)*%
X170500000Y-118000000D03*
D11*
%TO.P,D4,2,A*%
%TO.N,Net-(D4-A)*%
X173000000Y-118000000D03*
%TD*%
D18*
%TO.N,GND*%
X163068000Y-143002000D03*
X158430000Y-146400000D03*
X133040000Y-121610000D03*
X151000000Y-91500000D03*
X123700000Y-123040000D03*
X163500000Y-147510000D03*
X168410000Y-132380000D03*
X182118000Y-144018000D03*
X157250000Y-113940000D03*
X157500000Y-149000000D03*
%TO.N,BOX_STATE*%
X149500000Y-106200000D03*
X149500000Y-100500000D03*
%TO.N,LED2_STATE*%
X164500000Y-127000000D03*
%TO.N,BUTTON*%
X185000000Y-134000000D03*
%TO.N,LED2_PWR*%
X182500000Y-114000000D03*
X182500000Y-120500000D03*
%TO.N,LED1_STATE*%
X167500000Y-126000000D03*
%TO.N,LED1_PWR*%
X178500000Y-120500000D03*
X178500000Y-114500000D03*
%TO.N,LED4_STATE*%
X158500000Y-125000000D03*
%TO.N,Net-(D2-K)*%
X152325000Y-127000000D03*
%TO.N,Net-(D3-K)*%
X161000000Y-130000000D03*
%TO.N,Net-(D4-K)*%
X170500000Y-130500000D03*
%TO.N,3.3VBuck*%
X169000000Y-141000000D03*
%TD*%
D19*
%TO.N,LED3_STATE*%
X162500000Y-111700000D02*
X162300000Y-111500000D01*
X162500000Y-131000000D02*
X162500000Y-111700000D01*
%TO.N,GND*%
X141500000Y-131000000D02*
X141500000Y-131690000D01*
%TO.N,BOX_STATE*%
X149500000Y-100500000D02*
X149500000Y-106200000D01*
%TO.N,LED2_STATE*%
X164840000Y-111500000D02*
X165639999Y-112299999D01*
X165639999Y-125860001D02*
X164500000Y-127000000D01*
X165639999Y-112299999D02*
X165639999Y-125860001D01*
%TO.N,BUTTON*%
X185160000Y-111500000D02*
X184008500Y-112651500D01*
X184008500Y-133008500D02*
X185000000Y-134000000D01*
X184008500Y-112651500D02*
X184008500Y-133008500D01*
%TO.N,LED2_PWR*%
X182500000Y-114000000D02*
X182500000Y-120500000D01*
%TO.N,LED1_STATE*%
X168051500Y-125448500D02*
X168051500Y-112171500D01*
X167500000Y-126000000D02*
X168051500Y-125448500D01*
X168051500Y-112171500D02*
X167380000Y-111500000D01*
%TO.N,LED1_PWR*%
X178500000Y-120500000D02*
X178500000Y-114500000D01*
%TO.N,LED4_STATE*%
X158500000Y-112760000D02*
X158500000Y-125000000D01*
X159760000Y-111500000D02*
X158500000Y-112760000D01*
%TO.N,Net-(D2-K)*%
X152325000Y-127000000D02*
X152500000Y-127000000D01*
X152800000Y-126700000D02*
X152800000Y-118100000D01*
X152500000Y-127000000D02*
X152800000Y-126700000D01*
%TO.N,Net-(D3-K)*%
X161000000Y-130000000D02*
X161500000Y-129500000D01*
X161500000Y-129500000D02*
X161500000Y-118000000D01*
%TO.N,Net-(D4-K)*%
X170500000Y-130500000D02*
X170500000Y-118000000D01*
%TO.N,3.3VBuck*%
X169000000Y-131094914D02*
X169000000Y-141000000D01*
X172200000Y-90800000D02*
X168500000Y-94500000D01*
X168500000Y-94500000D02*
X168500000Y-130594914D01*
X174350000Y-90800000D02*
X172200000Y-90800000D01*
X168500000Y-130594914D02*
X169000000Y-131094914D01*
%TD*%
%TA.AperFunction,Conductor*%
%TO.N,GND*%
G36*
X188502855Y-85500632D02*
G01*
X188863310Y-85517296D01*
X188874700Y-85518352D01*
X189229238Y-85567808D01*
X189240482Y-85569910D01*
X189588944Y-85651867D01*
X189599934Y-85654994D01*
X189939368Y-85768761D01*
X189950022Y-85772889D01*
X190277488Y-85917479D01*
X190287731Y-85922579D01*
X190356871Y-85961090D01*
X190600452Y-86096765D01*
X190610190Y-86102794D01*
X190905512Y-86305093D01*
X190914649Y-86311994D01*
X191190035Y-86540671D01*
X191198499Y-86548387D01*
X191451612Y-86801500D01*
X191459328Y-86809964D01*
X191688003Y-87085347D01*
X191694906Y-87094487D01*
X191897205Y-87389809D01*
X191903234Y-87399547D01*
X192077418Y-87712264D01*
X192082523Y-87722517D01*
X192227105Y-88049964D01*
X192231243Y-88060644D01*
X192345001Y-88400052D01*
X192348135Y-88411068D01*
X192430087Y-88759509D01*
X192432192Y-88770768D01*
X192481646Y-89125292D01*
X192482703Y-89136696D01*
X192499368Y-89497144D01*
X192499500Y-89502871D01*
X192499500Y-149796519D01*
X192499305Y-149803472D01*
X192482916Y-150095296D01*
X192481359Y-150109114D01*
X192432984Y-150393827D01*
X192429890Y-150407384D01*
X192349939Y-150684899D01*
X192345346Y-150698024D01*
X192234830Y-150964834D01*
X192228797Y-150977362D01*
X192089100Y-151230125D01*
X192081702Y-151241899D01*
X191914584Y-151477430D01*
X191905914Y-151488302D01*
X191713475Y-151703642D01*
X191703642Y-151713475D01*
X191488302Y-151905914D01*
X191477430Y-151914584D01*
X191241899Y-152081702D01*
X191230125Y-152089100D01*
X190977362Y-152228797D01*
X190964834Y-152234830D01*
X190698024Y-152345346D01*
X190684899Y-152349939D01*
X190407384Y-152429890D01*
X190393827Y-152432984D01*
X190109114Y-152481359D01*
X190095296Y-152482916D01*
X189803472Y-152499305D01*
X189796519Y-152499500D01*
X106603246Y-152499500D01*
X106596756Y-152499330D01*
X106282500Y-152482860D01*
X106269592Y-152481503D01*
X105961999Y-152432785D01*
X105949304Y-152430087D01*
X105648480Y-152349482D01*
X105636135Y-152345471D01*
X105345387Y-152233863D01*
X105333530Y-152228584D01*
X105056029Y-152087190D01*
X105044810Y-152080713D01*
X104783606Y-151911085D01*
X104773112Y-151903460D01*
X104531076Y-151707463D01*
X104521431Y-151698778D01*
X104301221Y-151478568D01*
X104292536Y-151468923D01*
X104096539Y-151226887D01*
X104088917Y-151216396D01*
X103919282Y-150955183D01*
X103912812Y-150943977D01*
X103771410Y-150666459D01*
X103766141Y-150654623D01*
X103654525Y-150363855D01*
X103650520Y-150351528D01*
X103569908Y-150050680D01*
X103567217Y-150038015D01*
X103518495Y-149730406D01*
X103517139Y-149717498D01*
X103500670Y-149403242D01*
X103500500Y-149396753D01*
X103500500Y-149297648D01*
X105299500Y-149297648D01*
X105299500Y-149502351D01*
X105331522Y-149704534D01*
X105394781Y-149899223D01*
X105487715Y-150081613D01*
X105608028Y-150247213D01*
X105752786Y-150391971D01*
X105907749Y-150504556D01*
X105918390Y-150512287D01*
X106028669Y-150568477D01*
X106100776Y-150605218D01*
X106100778Y-150605218D01*
X106100781Y-150605220D01*
X106205137Y-150639127D01*
X106295465Y-150668477D01*
X106396557Y-150684488D01*
X106497648Y-150700500D01*
X106497649Y-150700500D01*
X106702351Y-150700500D01*
X106702352Y-150700500D01*
X106904534Y-150668477D01*
X107099219Y-150605220D01*
X107281610Y-150512287D01*
X107374590Y-150444732D01*
X107447213Y-150391971D01*
X107447215Y-150391968D01*
X107447219Y-150391966D01*
X107591966Y-150247219D01*
X107591968Y-150247215D01*
X107591971Y-150247213D01*
X107644732Y-150174590D01*
X107712287Y-150081610D01*
X107805220Y-149899219D01*
X107868477Y-149704534D01*
X107900500Y-149502352D01*
X107900500Y-149297648D01*
X107884661Y-149197648D01*
X187999500Y-149197648D01*
X187999500Y-149402351D01*
X188031522Y-149604534D01*
X188094781Y-149799223D01*
X188158691Y-149924653D01*
X188180327Y-149967115D01*
X188187715Y-149981613D01*
X188308028Y-150147213D01*
X188452786Y-150291971D01*
X188590420Y-150391966D01*
X188618390Y-150412287D01*
X188734607Y-150471503D01*
X188800776Y-150505218D01*
X188800778Y-150505218D01*
X188800781Y-150505220D01*
X188905137Y-150539127D01*
X188995465Y-150568477D01*
X189096557Y-150584488D01*
X189197648Y-150600500D01*
X189197649Y-150600500D01*
X189402351Y-150600500D01*
X189402352Y-150600500D01*
X189604534Y-150568477D01*
X189799219Y-150505220D01*
X189981610Y-150412287D01*
X190081360Y-150339815D01*
X190147213Y-150291971D01*
X190147215Y-150291968D01*
X190147219Y-150291966D01*
X190291966Y-150147219D01*
X190291968Y-150147215D01*
X190291971Y-150147213D01*
X190366652Y-150044422D01*
X190412287Y-149981610D01*
X190505220Y-149799219D01*
X190568477Y-149604534D01*
X190600500Y-149402352D01*
X190600500Y-149197648D01*
X190568477Y-148995466D01*
X190505220Y-148800781D01*
X190505218Y-148800778D01*
X190505218Y-148800776D01*
X190471503Y-148734607D01*
X190412287Y-148618390D01*
X190404556Y-148607749D01*
X190291971Y-148452786D01*
X190147213Y-148308028D01*
X189981613Y-148187715D01*
X189981612Y-148187714D01*
X189981610Y-148187713D01*
X189924653Y-148158691D01*
X189799223Y-148094781D01*
X189604534Y-148031522D01*
X189429995Y-148003878D01*
X189402352Y-147999500D01*
X189197648Y-147999500D01*
X189173329Y-148003351D01*
X188995465Y-148031522D01*
X188800776Y-148094781D01*
X188618386Y-148187715D01*
X188452786Y-148308028D01*
X188308028Y-148452786D01*
X188187715Y-148618386D01*
X188094781Y-148800776D01*
X188031522Y-148995465D01*
X187999500Y-149197648D01*
X107884661Y-149197648D01*
X107868477Y-149095466D01*
X107805220Y-148900781D01*
X107805218Y-148900778D01*
X107805218Y-148900776D01*
X107754265Y-148800776D01*
X107712287Y-148718390D01*
X107704556Y-148707749D01*
X107591971Y-148552786D01*
X107447213Y-148408028D01*
X107281613Y-148287715D01*
X107281612Y-148287714D01*
X107281610Y-148287713D01*
X107224653Y-148258691D01*
X107099223Y-148194781D01*
X106904534Y-148131522D01*
X106729995Y-148103878D01*
X106702352Y-148099500D01*
X106497648Y-148099500D01*
X106473329Y-148103351D01*
X106295465Y-148131522D01*
X106100776Y-148194781D01*
X105918386Y-148287715D01*
X105752786Y-148408028D01*
X105608028Y-148552786D01*
X105487715Y-148718386D01*
X105394781Y-148900776D01*
X105331522Y-149095465D01*
X105299500Y-149297648D01*
X103500500Y-149297648D01*
X103500500Y-144196916D01*
X183339100Y-144196916D01*
X183339100Y-144403087D01*
X183379318Y-144605276D01*
X183379320Y-144605284D01*
X183458213Y-144795750D01*
X183458218Y-144795759D01*
X183572752Y-144967170D01*
X183572755Y-144967174D01*
X183718527Y-145112946D01*
X183718531Y-145112949D01*
X183889942Y-145227483D01*
X183889946Y-145227485D01*
X183889949Y-145227487D01*
X184080418Y-145306382D01*
X184282599Y-145346598D01*
X184282614Y-145346601D01*
X184282618Y-145346602D01*
X184282619Y-145346602D01*
X185098382Y-145346602D01*
X185098383Y-145346601D01*
X185300582Y-145306382D01*
X185491051Y-145227487D01*
X185662469Y-145112949D01*
X185808247Y-144967171D01*
X185922785Y-144795753D01*
X186001680Y-144605284D01*
X186041900Y-144403083D01*
X186041900Y-144196921D01*
X186041899Y-144196915D01*
X186041899Y-144196913D01*
X187139100Y-144196913D01*
X187139100Y-144403084D01*
X187179318Y-144605273D01*
X187179320Y-144605281D01*
X187258213Y-144795747D01*
X187258218Y-144795756D01*
X187372752Y-144967167D01*
X187372755Y-144967171D01*
X187518527Y-145112943D01*
X187518531Y-145112946D01*
X187689942Y-145227480D01*
X187689951Y-145227485D01*
X187733099Y-145245357D01*
X187880418Y-145306379D01*
X188082614Y-145346598D01*
X188082618Y-145346599D01*
X188082619Y-145346599D01*
X188898382Y-145346599D01*
X188898383Y-145346598D01*
X189100582Y-145306379D01*
X189291051Y-145227484D01*
X189462469Y-145112946D01*
X189608247Y-144967168D01*
X189722785Y-144795750D01*
X189801680Y-144605281D01*
X189841900Y-144403080D01*
X189841900Y-144196918D01*
X189841899Y-144196915D01*
X189841899Y-144196913D01*
X189801681Y-143994724D01*
X189801680Y-143994717D01*
X189722785Y-143804248D01*
X189722784Y-143804247D01*
X189722781Y-143804241D01*
X189608247Y-143632830D01*
X189608244Y-143632826D01*
X189462472Y-143487054D01*
X189462468Y-143487051D01*
X189291057Y-143372517D01*
X189291048Y-143372512D01*
X189100582Y-143293619D01*
X189100574Y-143293617D01*
X188898385Y-143253399D01*
X188898381Y-143253399D01*
X188082619Y-143253399D01*
X188082614Y-143253399D01*
X187880425Y-143293617D01*
X187880417Y-143293619D01*
X187689951Y-143372512D01*
X187689942Y-143372517D01*
X187518531Y-143487051D01*
X187518527Y-143487054D01*
X187372755Y-143632826D01*
X187372752Y-143632830D01*
X187258218Y-143804241D01*
X187258213Y-143804250D01*
X187179320Y-143994716D01*
X187179318Y-143994724D01*
X187139100Y-144196913D01*
X186041899Y-144196913D01*
X186001681Y-143994727D01*
X186001680Y-143994720D01*
X185922785Y-143804251D01*
X185922783Y-143804248D01*
X185922781Y-143804244D01*
X185808247Y-143632833D01*
X185808244Y-143632829D01*
X185662472Y-143487057D01*
X185662468Y-143487054D01*
X185491057Y-143372520D01*
X185491048Y-143372515D01*
X185300582Y-143293622D01*
X185300574Y-143293620D01*
X185098385Y-143253402D01*
X185098381Y-143253402D01*
X184282619Y-143253402D01*
X184282614Y-143253402D01*
X184080425Y-143293620D01*
X184080417Y-143293622D01*
X183889951Y-143372515D01*
X183889942Y-143372520D01*
X183718531Y-143487054D01*
X183718527Y-143487057D01*
X183572755Y-143632829D01*
X183572752Y-143632833D01*
X183458218Y-143804244D01*
X183458213Y-143804253D01*
X183379320Y-143994719D01*
X183379318Y-143994727D01*
X183339100Y-144196916D01*
X103500500Y-144196916D01*
X103500500Y-132211263D01*
X105830500Y-132211263D01*
X105830500Y-132408736D01*
X105861389Y-132603763D01*
X105920440Y-132785502D01*
X105922409Y-132791561D01*
X106011923Y-132967239D01*
X106012058Y-132967504D01*
X106128115Y-133127246D01*
X106267753Y-133266884D01*
X106388767Y-133354804D01*
X106427499Y-133382944D01*
X106603439Y-133472591D01*
X106710417Y-133507350D01*
X106791236Y-133533610D01*
X106986264Y-133564500D01*
X106986269Y-133564500D01*
X107183736Y-133564500D01*
X107378763Y-133533610D01*
X107380262Y-133533123D01*
X107566561Y-133472591D01*
X107742501Y-133382944D01*
X107848288Y-133306086D01*
X107902246Y-133266884D01*
X107902248Y-133266881D01*
X107902252Y-133266879D01*
X108041879Y-133127252D01*
X108041881Y-133127248D01*
X108041884Y-133127246D01*
X108157941Y-132967505D01*
X108157942Y-132967504D01*
X108157944Y-132967501D01*
X108224797Y-132836295D01*
X108272769Y-132785502D01*
X108340590Y-132768707D01*
X108406725Y-132791244D01*
X108445765Y-132836298D01*
X108512483Y-132967239D01*
X108538457Y-133002988D01*
X108538457Y-133002989D01*
X109102037Y-132439409D01*
X109119075Y-132502993D01*
X109184901Y-132617007D01*
X109277993Y-132710099D01*
X109392007Y-132775925D01*
X109455590Y-132792962D01*
X108892009Y-133356541D01*
X108892010Y-133356542D01*
X108927755Y-133382512D01*
X108927768Y-133382520D01*
X109103626Y-133472126D01*
X109291353Y-133533123D01*
X109486303Y-133564000D01*
X109683697Y-133564000D01*
X109878646Y-133533123D01*
X110066373Y-133472126D01*
X110242241Y-133382516D01*
X110277988Y-133356543D01*
X110277988Y-133356541D01*
X109714410Y-132792962D01*
X109777993Y-132775925D01*
X109892007Y-132710099D01*
X109985099Y-132617007D01*
X110050925Y-132502993D01*
X110067962Y-132439409D01*
X110631541Y-133002988D01*
X110631543Y-133002988D01*
X110657516Y-132967241D01*
X110724235Y-132836298D01*
X110772209Y-132785502D01*
X110840030Y-132768707D01*
X110906165Y-132791244D01*
X110945202Y-132836294D01*
X110995112Y-132934247D01*
X111012058Y-132967505D01*
X111128115Y-133127246D01*
X111267753Y-133266884D01*
X111388767Y-133354804D01*
X111427499Y-133382944D01*
X111603439Y-133472591D01*
X111710417Y-133507350D01*
X111791236Y-133533610D01*
X111986264Y-133564500D01*
X111986269Y-133564500D01*
X112183736Y-133564500D01*
X112378763Y-133533610D01*
X112380262Y-133533123D01*
X112566561Y-133472591D01*
X112742501Y-133382944D01*
X112848288Y-133306086D01*
X112902246Y-133266884D01*
X112902248Y-133266881D01*
X112902252Y-133266879D01*
X113041879Y-133127252D01*
X113053074Y-133111844D01*
X113106681Y-133038059D01*
X113162011Y-132995392D01*
X113231624Y-132989413D01*
X113293419Y-133022018D01*
X113327777Y-133082856D01*
X113330722Y-133108526D01*
X113330823Y-133108521D01*
X113330911Y-133110169D01*
X113331000Y-133110943D01*
X113331000Y-133111844D01*
X113337401Y-133171372D01*
X113337403Y-133171379D01*
X113387645Y-133306086D01*
X113387649Y-133306093D01*
X113473809Y-133421187D01*
X113473812Y-133421190D01*
X113588906Y-133507350D01*
X113588913Y-133507354D01*
X113723620Y-133557596D01*
X113723627Y-133557598D01*
X113783155Y-133563999D01*
X113783172Y-133564000D01*
X114335000Y-133564000D01*
X114335000Y-132743012D01*
X114392007Y-132775925D01*
X114519174Y-132810000D01*
X114650826Y-132810000D01*
X114777993Y-132775925D01*
X114835000Y-132743012D01*
X114835000Y-133564000D01*
X115386828Y-133564000D01*
X115386844Y-133563999D01*
X115446372Y-133557598D01*
X115446379Y-133557596D01*
X115581086Y-133507354D01*
X115581093Y-133507350D01*
X115696187Y-133421190D01*
X115696190Y-133421187D01*
X115782350Y-133306093D01*
X115782354Y-133306086D01*
X115832596Y-133171379D01*
X115832598Y-133171372D01*
X115838999Y-133111844D01*
X115839000Y-133111827D01*
X115839000Y-132560000D01*
X115018012Y-132560000D01*
X115050925Y-132502993D01*
X115085000Y-132375826D01*
X115085000Y-132244174D01*
X115050925Y-132117007D01*
X115018012Y-132060000D01*
X115839000Y-132060000D01*
X115839000Y-131508172D01*
X115838999Y-131508155D01*
X115832598Y-131448627D01*
X115832596Y-131448620D01*
X115782354Y-131313913D01*
X115782350Y-131313906D01*
X115696190Y-131198812D01*
X115696187Y-131198809D01*
X115581093Y-131112649D01*
X115581086Y-131112645D01*
X115446379Y-131062403D01*
X115446372Y-131062401D01*
X115386844Y-131056000D01*
X114835000Y-131056000D01*
X114835000Y-131876988D01*
X114777993Y-131844075D01*
X114650826Y-131810000D01*
X114519174Y-131810000D01*
X114392007Y-131844075D01*
X114335000Y-131876988D01*
X114335000Y-131056000D01*
X113783155Y-131056000D01*
X113723627Y-131062401D01*
X113723620Y-131062403D01*
X113588913Y-131112645D01*
X113588906Y-131112649D01*
X113473812Y-131198809D01*
X113473809Y-131198812D01*
X113387649Y-131313906D01*
X113387645Y-131313913D01*
X113337403Y-131448620D01*
X113337401Y-131448627D01*
X113331000Y-131508155D01*
X113331000Y-131509056D01*
X113330942Y-131509252D01*
X113330823Y-131511479D01*
X113330644Y-131511469D01*
X113330644Y-131511475D01*
X113330540Y-131511463D01*
X113330296Y-131511450D01*
X113311315Y-131576095D01*
X113258511Y-131621850D01*
X113189353Y-131631794D01*
X113125797Y-131602769D01*
X113106682Y-131581941D01*
X113041884Y-131492754D01*
X113041880Y-131492749D01*
X112902246Y-131353115D01*
X112742504Y-131237058D01*
X112742503Y-131237057D01*
X112742501Y-131237056D01*
X112566561Y-131147409D01*
X112566558Y-131147408D01*
X112378763Y-131086389D01*
X112183736Y-131055500D01*
X112183731Y-131055500D01*
X111986269Y-131055500D01*
X111986264Y-131055500D01*
X111791236Y-131086389D01*
X111603441Y-131147408D01*
X111427495Y-131237058D01*
X111267753Y-131353115D01*
X111128115Y-131492753D01*
X111012056Y-131652497D01*
X110945203Y-131783702D01*
X110897229Y-131834497D01*
X110829407Y-131851292D01*
X110763273Y-131828754D01*
X110724234Y-131783701D01*
X110657520Y-131652768D01*
X110657512Y-131652755D01*
X110631542Y-131617010D01*
X110631541Y-131617009D01*
X110067962Y-132180589D01*
X110050925Y-132117007D01*
X109985099Y-132002993D01*
X109892007Y-131909901D01*
X109777993Y-131844075D01*
X109714409Y-131827037D01*
X110277989Y-131263457D01*
X110242239Y-131237483D01*
X110066373Y-131147873D01*
X109878646Y-131086876D01*
X109683697Y-131056000D01*
X109486303Y-131056000D01*
X109291353Y-131086876D01*
X109103626Y-131147873D01*
X108927762Y-131237482D01*
X108927760Y-131237483D01*
X108892010Y-131263456D01*
X108892010Y-131263457D01*
X109455591Y-131827037D01*
X109392007Y-131844075D01*
X109277993Y-131909901D01*
X109184901Y-132002993D01*
X109119075Y-132117007D01*
X109102037Y-132180590D01*
X108538457Y-131617010D01*
X108538456Y-131617010D01*
X108512483Y-131652760D01*
X108512482Y-131652762D01*
X108445765Y-131783701D01*
X108397790Y-131834497D01*
X108329969Y-131851292D01*
X108263834Y-131828754D01*
X108224796Y-131783702D01*
X108157944Y-131652499D01*
X108137965Y-131625000D01*
X108041884Y-131492753D01*
X107902246Y-131353115D01*
X107742504Y-131237058D01*
X107742503Y-131237057D01*
X107742501Y-131237056D01*
X107566561Y-131147409D01*
X107566558Y-131147408D01*
X107378763Y-131086389D01*
X107183736Y-131055500D01*
X107183731Y-131055500D01*
X106986269Y-131055500D01*
X106986264Y-131055500D01*
X106791236Y-131086389D01*
X106603441Y-131147408D01*
X106427495Y-131237058D01*
X106267753Y-131353115D01*
X106128115Y-131492753D01*
X106012058Y-131652495D01*
X105922408Y-131828441D01*
X105861389Y-132016236D01*
X105830500Y-132211263D01*
X103500500Y-132211263D01*
X103500500Y-130901263D01*
X135245500Y-130901263D01*
X135245500Y-131098736D01*
X135276389Y-131293763D01*
X135335619Y-131476052D01*
X135337409Y-131481561D01*
X135427056Y-131657501D01*
X135427058Y-131657504D01*
X135543115Y-131817246D01*
X135682753Y-131956884D01*
X135824683Y-132060000D01*
X135842499Y-132072944D01*
X136018439Y-132162591D01*
X136125417Y-132197350D01*
X136206236Y-132223610D01*
X136401264Y-132254500D01*
X136401269Y-132254500D01*
X136598736Y-132254500D01*
X136793763Y-132223610D01*
X136981561Y-132162591D01*
X137157501Y-132072944D01*
X137263288Y-131996086D01*
X137317246Y-131956884D01*
X137317248Y-131956881D01*
X137317252Y-131956879D01*
X137456879Y-131817252D01*
X137456881Y-131817248D01*
X137456884Y-131817246D01*
X137572941Y-131657505D01*
X137572942Y-131657504D01*
X137572944Y-131657501D01*
X137639516Y-131526846D01*
X137687490Y-131476052D01*
X137755311Y-131459257D01*
X137821446Y-131481794D01*
X137860482Y-131526845D01*
X137924166Y-131651830D01*
X137927058Y-131657505D01*
X138043115Y-131817246D01*
X138182753Y-131956884D01*
X138324683Y-132060000D01*
X138342499Y-132072944D01*
X138518439Y-132162591D01*
X138625417Y-132197350D01*
X138706236Y-132223610D01*
X138901264Y-132254500D01*
X138901269Y-132254500D01*
X139098736Y-132254500D01*
X139293763Y-132223610D01*
X139481561Y-132162591D01*
X139657501Y-132072944D01*
X139763288Y-131996086D01*
X139817246Y-131956884D01*
X139817248Y-131956881D01*
X139817252Y-131956879D01*
X139956879Y-131817252D01*
X139968074Y-131801844D01*
X140021681Y-131728059D01*
X140077011Y-131685392D01*
X140146624Y-131679413D01*
X140208419Y-131712018D01*
X140242777Y-131772856D01*
X140245722Y-131798526D01*
X140245823Y-131798521D01*
X140245911Y-131800169D01*
X140246000Y-131800943D01*
X140246000Y-131801844D01*
X140252401Y-131861372D01*
X140252403Y-131861379D01*
X140302645Y-131996086D01*
X140302649Y-131996093D01*
X140388809Y-132111187D01*
X140388812Y-132111190D01*
X140503906Y-132197350D01*
X140503913Y-132197354D01*
X140638620Y-132247596D01*
X140638627Y-132247598D01*
X140698155Y-132253999D01*
X140698172Y-132254000D01*
X141250000Y-132254000D01*
X141250000Y-131433012D01*
X141307007Y-131465925D01*
X141434174Y-131500000D01*
X141565826Y-131500000D01*
X141692993Y-131465925D01*
X141750000Y-131433012D01*
X141750000Y-132254000D01*
X142301828Y-132254000D01*
X142301844Y-132253999D01*
X142361372Y-132247598D01*
X142361379Y-132247596D01*
X142496086Y-132197354D01*
X142496093Y-132197350D01*
X142611187Y-132111190D01*
X142611190Y-132111187D01*
X142697350Y-131996093D01*
X142697354Y-131996086D01*
X142747596Y-131861379D01*
X142747598Y-131861372D01*
X142753999Y-131801844D01*
X142754000Y-131801827D01*
X142754000Y-131250000D01*
X141933012Y-131250000D01*
X141965925Y-131192993D01*
X142000000Y-131065826D01*
X142000000Y-131026263D01*
X146945500Y-131026263D01*
X146945500Y-131223736D01*
X146976389Y-131418763D01*
X147035619Y-131601052D01*
X147037409Y-131606561D01*
X147122142Y-131772856D01*
X147127058Y-131782504D01*
X147243115Y-131942246D01*
X147382753Y-132081884D01*
X147493839Y-132162591D01*
X147542499Y-132197944D01*
X147718439Y-132287591D01*
X147825417Y-132322350D01*
X147906236Y-132348610D01*
X148101264Y-132379500D01*
X148101269Y-132379500D01*
X148298736Y-132379500D01*
X148493763Y-132348610D01*
X148681561Y-132287591D01*
X148857501Y-132197944D01*
X148976913Y-132111187D01*
X149017246Y-132081884D01*
X149017248Y-132081881D01*
X149017252Y-132081879D01*
X149156879Y-131942252D01*
X149156881Y-131942248D01*
X149156884Y-131942246D01*
X149272941Y-131782505D01*
X149272942Y-131782504D01*
X149272944Y-131782501D01*
X149339516Y-131651846D01*
X149387490Y-131601052D01*
X149455311Y-131584257D01*
X149521446Y-131606794D01*
X149560482Y-131651845D01*
X149591143Y-131712018D01*
X149627058Y-131782505D01*
X149743115Y-131942246D01*
X149882753Y-132081884D01*
X149993839Y-132162591D01*
X150042499Y-132197944D01*
X150218439Y-132287591D01*
X150325417Y-132322350D01*
X150406236Y-132348610D01*
X150601264Y-132379500D01*
X150601269Y-132379500D01*
X150798736Y-132379500D01*
X150993763Y-132348610D01*
X151181561Y-132287591D01*
X151357501Y-132197944D01*
X151476913Y-132111187D01*
X151517246Y-132081884D01*
X151517248Y-132081881D01*
X151517252Y-132081879D01*
X151656879Y-131942252D01*
X151668074Y-131926844D01*
X151721681Y-131853059D01*
X151777011Y-131810392D01*
X151846624Y-131804413D01*
X151908419Y-131837018D01*
X151942777Y-131897856D01*
X151945722Y-131923526D01*
X151945823Y-131923521D01*
X151945911Y-131925169D01*
X151946000Y-131925943D01*
X151946000Y-131926844D01*
X151952401Y-131986372D01*
X151952403Y-131986379D01*
X152002645Y-132121086D01*
X152002649Y-132121093D01*
X152088809Y-132236187D01*
X152088812Y-132236190D01*
X152203906Y-132322350D01*
X152203913Y-132322354D01*
X152338620Y-132372596D01*
X152338627Y-132372598D01*
X152398155Y-132378999D01*
X152398172Y-132379000D01*
X152950000Y-132379000D01*
X152950000Y-131558012D01*
X153007007Y-131590925D01*
X153134174Y-131625000D01*
X153265826Y-131625000D01*
X153392993Y-131590925D01*
X153450000Y-131558012D01*
X153450000Y-132379000D01*
X154001828Y-132379000D01*
X154001844Y-132378999D01*
X154061372Y-132372598D01*
X154061379Y-132372596D01*
X154196086Y-132322354D01*
X154196093Y-132322350D01*
X154311187Y-132236190D01*
X154311190Y-132236187D01*
X154397350Y-132121093D01*
X154397354Y-132121086D01*
X154447596Y-131986379D01*
X154447598Y-131986372D01*
X154453999Y-131926844D01*
X154454000Y-131926827D01*
X154454000Y-131375000D01*
X153633012Y-131375000D01*
X153665925Y-131317993D01*
X153700000Y-131190826D01*
X153700000Y-131059174D01*
X153665925Y-130932007D01*
X153633012Y-130875000D01*
X154454000Y-130875000D01*
X154454000Y-130323172D01*
X154453999Y-130323155D01*
X154447598Y-130263627D01*
X154447596Y-130263620D01*
X154397354Y-130128913D01*
X154397350Y-130128906D01*
X154311190Y-130013812D01*
X154311187Y-130013809D01*
X154196093Y-129927649D01*
X154196086Y-129927645D01*
X154061379Y-129877403D01*
X154061372Y-129877401D01*
X154001844Y-129871000D01*
X153450000Y-129871000D01*
X153450000Y-130691988D01*
X153392993Y-130659075D01*
X153265826Y-130625000D01*
X153134174Y-130625000D01*
X153007007Y-130659075D01*
X152950000Y-130691988D01*
X152950000Y-129871000D01*
X152398155Y-129871000D01*
X152338627Y-129877401D01*
X152338620Y-129877403D01*
X152203913Y-129927645D01*
X152203906Y-129927649D01*
X152088812Y-130013809D01*
X152088809Y-130013812D01*
X152002649Y-130128906D01*
X152002645Y-130128913D01*
X151952403Y-130263620D01*
X151952401Y-130263627D01*
X151946000Y-130323155D01*
X151946000Y-130324056D01*
X151945942Y-130324252D01*
X151945823Y-130326479D01*
X151945644Y-130326469D01*
X151945644Y-130326475D01*
X151945540Y-130326463D01*
X151945296Y-130326450D01*
X151926315Y-130391095D01*
X151873511Y-130436850D01*
X151804353Y-130446794D01*
X151740797Y-130417769D01*
X151721682Y-130396941D01*
X151656884Y-130307754D01*
X151656880Y-130307749D01*
X151517246Y-130168115D01*
X151357504Y-130052058D01*
X151357503Y-130052057D01*
X151357501Y-130052056D01*
X151181561Y-129962409D01*
X151161550Y-129955907D01*
X150993763Y-129901389D01*
X150798736Y-129870500D01*
X150798731Y-129870500D01*
X150601269Y-129870500D01*
X150601264Y-129870500D01*
X150406236Y-129901389D01*
X150218441Y-129962408D01*
X150042495Y-130052058D01*
X149882753Y-130168115D01*
X149743115Y-130307753D01*
X149627058Y-130467495D01*
X149627056Y-130467499D01*
X149589737Y-130540742D01*
X149560485Y-130598151D01*
X149512510Y-130648947D01*
X149444689Y-130665742D01*
X149378554Y-130643204D01*
X149339515Y-130598151D01*
X149272944Y-130467499D01*
X149257901Y-130446794D01*
X149156884Y-130307753D01*
X149017246Y-130168115D01*
X148857504Y-130052058D01*
X148857503Y-130052057D01*
X148857501Y-130052056D01*
X148681561Y-129962409D01*
X148661550Y-129955907D01*
X148493763Y-129901389D01*
X148298736Y-129870500D01*
X148298731Y-129870500D01*
X148101269Y-129870500D01*
X148101264Y-129870500D01*
X147906236Y-129901389D01*
X147718441Y-129962408D01*
X147542495Y-130052058D01*
X147382753Y-130168115D01*
X147243115Y-130307753D01*
X147127058Y-130467495D01*
X147037408Y-130643441D01*
X146976389Y-130831236D01*
X146945500Y-131026263D01*
X142000000Y-131026263D01*
X142000000Y-130934174D01*
X141965925Y-130807007D01*
X141933012Y-130750000D01*
X142754000Y-130750000D01*
X142754000Y-130198172D01*
X142753999Y-130198155D01*
X142747598Y-130138627D01*
X142747596Y-130138620D01*
X142697354Y-130003913D01*
X142697350Y-130003906D01*
X142611190Y-129888812D01*
X142611187Y-129888809D01*
X142496093Y-129802649D01*
X142496086Y-129802645D01*
X142361379Y-129752403D01*
X142361372Y-129752401D01*
X142301844Y-129746000D01*
X141750000Y-129746000D01*
X141750000Y-130566988D01*
X141692993Y-130534075D01*
X141565826Y-130500000D01*
X141434174Y-130500000D01*
X141307007Y-130534075D01*
X141250000Y-130566988D01*
X141250000Y-129746000D01*
X140698155Y-129746000D01*
X140638627Y-129752401D01*
X140638620Y-129752403D01*
X140503913Y-129802645D01*
X140503906Y-129802649D01*
X140388812Y-129888809D01*
X140388809Y-129888812D01*
X140302649Y-130003906D01*
X140302645Y-130003913D01*
X140252403Y-130138620D01*
X140252401Y-130138627D01*
X140246000Y-130198155D01*
X140246000Y-130199056D01*
X140245942Y-130199252D01*
X140245823Y-130201479D01*
X140245644Y-130201469D01*
X140245644Y-130201475D01*
X140245540Y-130201463D01*
X140245296Y-130201450D01*
X140226315Y-130266095D01*
X140173511Y-130311850D01*
X140104353Y-130321794D01*
X140040797Y-130292769D01*
X140021682Y-130271941D01*
X139956884Y-130182754D01*
X139956880Y-130182749D01*
X139817246Y-130043115D01*
X139657504Y-129927058D01*
X139657503Y-129927057D01*
X139657501Y-129927056D01*
X139481561Y-129837409D01*
X139481558Y-129837408D01*
X139293763Y-129776389D01*
X139098736Y-129745500D01*
X139098731Y-129745500D01*
X138901269Y-129745500D01*
X138901264Y-129745500D01*
X138706236Y-129776389D01*
X138518441Y-129837408D01*
X138342495Y-129927058D01*
X138182753Y-130043115D01*
X138043115Y-130182753D01*
X137927058Y-130342495D01*
X137927056Y-130342499D01*
X137873915Y-130446794D01*
X137860485Y-130473151D01*
X137812510Y-130523947D01*
X137744689Y-130540742D01*
X137678554Y-130518204D01*
X137639515Y-130473151D01*
X137636633Y-130467495D01*
X137572944Y-130342499D01*
X137559687Y-130324252D01*
X137456884Y-130182753D01*
X137317246Y-130043115D01*
X137157504Y-129927058D01*
X137157503Y-129927057D01*
X137157501Y-129927056D01*
X136981561Y-129837409D01*
X136981558Y-129837408D01*
X136793763Y-129776389D01*
X136598736Y-129745500D01*
X136598731Y-129745500D01*
X136401269Y-129745500D01*
X136401264Y-129745500D01*
X136206236Y-129776389D01*
X136018441Y-129837408D01*
X135842495Y-129927058D01*
X135682753Y-130043115D01*
X135543115Y-130182753D01*
X135427058Y-130342495D01*
X135337408Y-130518441D01*
X135276389Y-130706236D01*
X135245500Y-130901263D01*
X103500500Y-130901263D01*
X103500500Y-119543713D01*
X113649500Y-119543713D01*
X113649500Y-119756286D01*
X113682735Y-119966127D01*
X113682754Y-119966243D01*
X113746782Y-120163301D01*
X113748444Y-120168414D01*
X113844951Y-120357820D01*
X113969890Y-120529786D01*
X114120213Y-120680109D01*
X114292179Y-120805048D01*
X114292181Y-120805049D01*
X114292184Y-120805051D01*
X114481588Y-120901557D01*
X114683757Y-120967246D01*
X114893713Y-121000500D01*
X114893714Y-121000500D01*
X115106286Y-121000500D01*
X115106287Y-121000500D01*
X115316243Y-120967246D01*
X115518412Y-120901557D01*
X115707816Y-120805051D01*
X115806297Y-120733501D01*
X115879786Y-120680109D01*
X115879788Y-120680106D01*
X115879792Y-120680104D01*
X115912319Y-120647577D01*
X115973642Y-120614092D01*
X116043334Y-120619076D01*
X116087681Y-120647577D01*
X116120213Y-120680109D01*
X116292179Y-120805048D01*
X116292181Y-120805049D01*
X116292184Y-120805051D01*
X116481588Y-120901557D01*
X116683757Y-120967246D01*
X116893713Y-121000500D01*
X116893714Y-121000500D01*
X117106286Y-121000500D01*
X117106287Y-121000500D01*
X117316243Y-120967246D01*
X117518412Y-120901557D01*
X117707816Y-120805051D01*
X117806297Y-120733501D01*
X117879786Y-120680109D01*
X117879788Y-120680106D01*
X117879792Y-120680104D01*
X117912319Y-120647577D01*
X117973642Y-120614092D01*
X118043334Y-120619076D01*
X118087681Y-120647577D01*
X118120213Y-120680109D01*
X118292179Y-120805048D01*
X118292181Y-120805049D01*
X118292184Y-120805051D01*
X118481588Y-120901557D01*
X118683757Y-120967246D01*
X118893713Y-121000500D01*
X118893714Y-121000500D01*
X119106286Y-121000500D01*
X119106287Y-121000500D01*
X119316243Y-120967246D01*
X119518412Y-120901557D01*
X119707816Y-120805051D01*
X119806297Y-120733501D01*
X119879786Y-120680109D01*
X119879788Y-120680106D01*
X119879792Y-120680104D01*
X119912319Y-120647577D01*
X119973642Y-120614092D01*
X120043334Y-120619076D01*
X120087681Y-120647577D01*
X120120213Y-120680109D01*
X120292179Y-120805048D01*
X120292181Y-120805049D01*
X120292184Y-120805051D01*
X120481588Y-120901557D01*
X120683757Y-120967246D01*
X120893713Y-121000500D01*
X120893714Y-121000500D01*
X121106286Y-121000500D01*
X121106287Y-121000500D01*
X121316243Y-120967246D01*
X121518412Y-120901557D01*
X121707816Y-120805051D01*
X121806297Y-120733501D01*
X121879786Y-120680109D01*
X121879788Y-120680106D01*
X121879792Y-120680104D01*
X121912319Y-120647577D01*
X121973642Y-120614092D01*
X122043334Y-120619076D01*
X122087681Y-120647577D01*
X122120213Y-120680109D01*
X122292179Y-120805048D01*
X122292181Y-120805049D01*
X122292184Y-120805051D01*
X122481588Y-120901557D01*
X122683757Y-120967246D01*
X122893713Y-121000500D01*
X122893714Y-121000500D01*
X123106286Y-121000500D01*
X123106287Y-121000500D01*
X123316243Y-120967246D01*
X123518412Y-120901557D01*
X123707816Y-120805051D01*
X123806297Y-120733501D01*
X123879786Y-120680109D01*
X123879788Y-120680106D01*
X123879792Y-120680104D01*
X123912319Y-120647577D01*
X123973642Y-120614092D01*
X124043334Y-120619076D01*
X124087681Y-120647577D01*
X124120213Y-120680109D01*
X124292179Y-120805048D01*
X124292181Y-120805049D01*
X124292184Y-120805051D01*
X124481588Y-120901557D01*
X124683757Y-120967246D01*
X124893713Y-121000500D01*
X124893714Y-121000500D01*
X125106286Y-121000500D01*
X125106287Y-121000500D01*
X125316243Y-120967246D01*
X125518412Y-120901557D01*
X125707816Y-120805051D01*
X125806297Y-120733501D01*
X125879786Y-120680109D01*
X125879788Y-120680106D01*
X125879792Y-120680104D01*
X125912319Y-120647577D01*
X125973642Y-120614092D01*
X126043334Y-120619076D01*
X126087681Y-120647577D01*
X126120213Y-120680109D01*
X126292179Y-120805048D01*
X126292181Y-120805049D01*
X126292184Y-120805051D01*
X126481588Y-120901557D01*
X126683757Y-120967246D01*
X126893713Y-121000500D01*
X126893714Y-121000500D01*
X127106286Y-121000500D01*
X127106287Y-121000500D01*
X127316243Y-120967246D01*
X127518412Y-120901557D01*
X127707816Y-120805051D01*
X127806297Y-120733501D01*
X127879786Y-120680109D01*
X127879788Y-120680106D01*
X127879792Y-120680104D01*
X127912319Y-120647577D01*
X127973642Y-120614092D01*
X128043334Y-120619076D01*
X128087681Y-120647577D01*
X128120213Y-120680109D01*
X128292179Y-120805048D01*
X128292181Y-120805049D01*
X128292184Y-120805051D01*
X128481588Y-120901557D01*
X128683757Y-120967246D01*
X128893713Y-121000500D01*
X128893714Y-121000500D01*
X129106286Y-121000500D01*
X129106287Y-121000500D01*
X129316243Y-120967246D01*
X129518412Y-120901557D01*
X129707816Y-120805051D01*
X129806297Y-120733501D01*
X129879786Y-120680109D01*
X129879788Y-120680106D01*
X129879792Y-120680104D01*
X129912319Y-120647577D01*
X129973642Y-120614092D01*
X130043334Y-120619076D01*
X130087681Y-120647577D01*
X130120213Y-120680109D01*
X130292179Y-120805048D01*
X130292181Y-120805049D01*
X130292184Y-120805051D01*
X130481588Y-120901557D01*
X130683757Y-120967246D01*
X130893713Y-121000500D01*
X130893714Y-121000500D01*
X131106286Y-121000500D01*
X131106287Y-121000500D01*
X131316243Y-120967246D01*
X131518412Y-120901557D01*
X131707816Y-120805051D01*
X131806297Y-120733501D01*
X131879786Y-120680109D01*
X131879788Y-120680106D01*
X131879792Y-120680104D01*
X132030104Y-120529792D01*
X132030106Y-120529788D01*
X132030109Y-120529786D01*
X132155048Y-120357820D01*
X132155047Y-120357820D01*
X132155051Y-120357816D01*
X132251557Y-120168412D01*
X132301811Y-120013744D01*
X132332059Y-119964384D01*
X132600000Y-119696443D01*
X132600000Y-119702661D01*
X132627259Y-119804394D01*
X132679920Y-119895606D01*
X132754394Y-119970080D01*
X132845606Y-120022741D01*
X132947339Y-120050000D01*
X132953554Y-120050000D01*
X132238282Y-120765269D01*
X132238282Y-120765270D01*
X132292449Y-120804624D01*
X132481782Y-120901095D01*
X132683870Y-120966757D01*
X132893754Y-121000000D01*
X133106246Y-121000000D01*
X133316127Y-120966757D01*
X133316130Y-120966757D01*
X133518217Y-120901095D01*
X133707554Y-120804622D01*
X133761716Y-120765270D01*
X133761717Y-120765270D01*
X133046446Y-120050000D01*
X133052661Y-120050000D01*
X133154394Y-120022741D01*
X133245606Y-119970080D01*
X133320080Y-119895606D01*
X133372741Y-119804394D01*
X133400000Y-119702661D01*
X133400000Y-119696446D01*
X134115270Y-120411717D01*
X134115270Y-120411716D01*
X134154622Y-120357554D01*
X134251095Y-120168217D01*
X134316757Y-119966130D01*
X134316757Y-119966127D01*
X134350000Y-119756246D01*
X134350000Y-119543753D01*
X134316757Y-119333872D01*
X134316757Y-119333869D01*
X134251095Y-119131782D01*
X134154624Y-118942449D01*
X134115270Y-118888282D01*
X134115269Y-118888282D01*
X133400000Y-119603552D01*
X133400000Y-119597339D01*
X133372741Y-119495606D01*
X133320080Y-119404394D01*
X133245606Y-119329920D01*
X133154394Y-119277259D01*
X133052661Y-119250000D01*
X133046447Y-119250000D01*
X133761716Y-118534728D01*
X133707550Y-118495375D01*
X133518217Y-118398904D01*
X133316129Y-118333242D01*
X133106246Y-118300000D01*
X132893754Y-118300000D01*
X132683872Y-118333242D01*
X132683869Y-118333242D01*
X132481782Y-118398904D01*
X132292439Y-118495380D01*
X132238282Y-118534727D01*
X132238282Y-118534728D01*
X132953554Y-119250000D01*
X132947339Y-119250000D01*
X132845606Y-119277259D01*
X132754394Y-119329920D01*
X132679920Y-119404394D01*
X132627259Y-119495606D01*
X132600000Y-119597339D01*
X132600000Y-119603554D01*
X132332060Y-119335614D01*
X132301810Y-119286251D01*
X132300295Y-119281589D01*
X132251557Y-119131588D01*
X132155051Y-118942184D01*
X132155049Y-118942181D01*
X132155048Y-118942179D01*
X132030109Y-118770213D01*
X131879786Y-118619890D01*
X131707820Y-118494951D01*
X131518414Y-118398444D01*
X131518413Y-118398443D01*
X131518412Y-118398443D01*
X131316243Y-118332754D01*
X131316241Y-118332753D01*
X131316240Y-118332753D01*
X131119596Y-118301608D01*
X131106287Y-118299500D01*
X130893713Y-118299500D01*
X130880404Y-118301608D01*
X130683760Y-118332753D01*
X130481585Y-118398444D01*
X130292179Y-118494951D01*
X130120213Y-118619890D01*
X130120209Y-118619894D01*
X130087681Y-118652423D01*
X130026358Y-118685908D01*
X129956666Y-118680924D01*
X129912319Y-118652423D01*
X129879786Y-118619890D01*
X129707820Y-118494951D01*
X129518414Y-118398444D01*
X129518413Y-118398443D01*
X129518412Y-118398443D01*
X129316243Y-118332754D01*
X129316241Y-118332753D01*
X129316240Y-118332753D01*
X129119596Y-118301608D01*
X129106287Y-118299500D01*
X128893713Y-118299500D01*
X128880404Y-118301608D01*
X128683760Y-118332753D01*
X128481585Y-118398444D01*
X128292179Y-118494951D01*
X128120213Y-118619890D01*
X128120209Y-118619894D01*
X128087681Y-118652423D01*
X128026358Y-118685908D01*
X127956666Y-118680924D01*
X127912319Y-118652423D01*
X127879786Y-118619890D01*
X127707820Y-118494951D01*
X127518414Y-118398444D01*
X127518413Y-118398443D01*
X127518412Y-118398443D01*
X127316243Y-118332754D01*
X127316241Y-118332753D01*
X127316240Y-118332753D01*
X127119596Y-118301608D01*
X127106287Y-118299500D01*
X126893713Y-118299500D01*
X126880404Y-118301608D01*
X126683760Y-118332753D01*
X126481585Y-118398444D01*
X126292179Y-118494951D01*
X126120213Y-118619890D01*
X126120209Y-118619894D01*
X126087681Y-118652423D01*
X126026358Y-118685908D01*
X125956666Y-118680924D01*
X125912319Y-118652423D01*
X125879786Y-118619890D01*
X125707820Y-118494951D01*
X125518414Y-118398444D01*
X125518413Y-118398443D01*
X125518412Y-118398443D01*
X125316243Y-118332754D01*
X125316241Y-118332753D01*
X125316240Y-118332753D01*
X125119596Y-118301608D01*
X125106287Y-118299500D01*
X124893713Y-118299500D01*
X124880404Y-118301608D01*
X124683760Y-118332753D01*
X124481585Y-118398444D01*
X124292179Y-118494951D01*
X124120213Y-118619890D01*
X124120209Y-118619894D01*
X124087681Y-118652423D01*
X124026358Y-118685908D01*
X123956666Y-118680924D01*
X123912319Y-118652423D01*
X123879786Y-118619890D01*
X123707820Y-118494951D01*
X123518414Y-118398444D01*
X123518413Y-118398443D01*
X123518412Y-118398443D01*
X123316243Y-118332754D01*
X123316241Y-118332753D01*
X123316240Y-118332753D01*
X123119596Y-118301608D01*
X123106287Y-118299500D01*
X122893713Y-118299500D01*
X122880404Y-118301608D01*
X122683760Y-118332753D01*
X122481585Y-118398444D01*
X122292179Y-118494951D01*
X122120213Y-118619890D01*
X122120209Y-118619894D01*
X122087681Y-118652423D01*
X122026358Y-118685908D01*
X121956666Y-118680924D01*
X121912319Y-118652423D01*
X121879786Y-118619890D01*
X121707820Y-118494951D01*
X121518414Y-118398444D01*
X121518413Y-118398443D01*
X121518412Y-118398443D01*
X121316243Y-118332754D01*
X121316241Y-118332753D01*
X121316240Y-118332753D01*
X121119596Y-118301608D01*
X121106287Y-118299500D01*
X120893713Y-118299500D01*
X120880404Y-118301608D01*
X120683760Y-118332753D01*
X120481585Y-118398444D01*
X120292179Y-118494951D01*
X120120213Y-118619890D01*
X120120209Y-118619894D01*
X120087681Y-118652423D01*
X120026358Y-118685908D01*
X119956666Y-118680924D01*
X119912319Y-118652423D01*
X119879786Y-118619890D01*
X119707820Y-118494951D01*
X119518414Y-118398444D01*
X119518413Y-118398443D01*
X119518412Y-118398443D01*
X119316243Y-118332754D01*
X119316241Y-118332753D01*
X119316240Y-118332753D01*
X119119596Y-118301608D01*
X119106287Y-118299500D01*
X118893713Y-118299500D01*
X118880404Y-118301608D01*
X118683760Y-118332753D01*
X118481585Y-118398444D01*
X118292179Y-118494951D01*
X118120213Y-118619890D01*
X118120209Y-118619894D01*
X118087681Y-118652423D01*
X118026358Y-118685908D01*
X117956666Y-118680924D01*
X117912319Y-118652423D01*
X117879786Y-118619890D01*
X117707820Y-118494951D01*
X117518414Y-118398444D01*
X117518413Y-118398443D01*
X117518412Y-118398443D01*
X117316243Y-118332754D01*
X117316241Y-118332753D01*
X117316240Y-118332753D01*
X117119596Y-118301608D01*
X117106287Y-118299500D01*
X116893713Y-118299500D01*
X116880404Y-118301608D01*
X116683760Y-118332753D01*
X116481585Y-118398444D01*
X116292179Y-118494951D01*
X116120213Y-118619890D01*
X116120209Y-118619894D01*
X116087681Y-118652423D01*
X116026358Y-118685908D01*
X115956666Y-118680924D01*
X115912319Y-118652423D01*
X115879786Y-118619890D01*
X115707820Y-118494951D01*
X115518414Y-118398444D01*
X115518413Y-118398443D01*
X115518412Y-118398443D01*
X115316243Y-118332754D01*
X115316241Y-118332753D01*
X115316240Y-118332753D01*
X115119596Y-118301608D01*
X115106287Y-118299500D01*
X114893713Y-118299500D01*
X114880404Y-118301608D01*
X114683760Y-118332753D01*
X114481585Y-118398444D01*
X114292179Y-118494951D01*
X114120213Y-118619890D01*
X113969890Y-118770213D01*
X113844951Y-118942179D01*
X113748444Y-119131585D01*
X113682753Y-119333760D01*
X113649500Y-119543713D01*
X103500500Y-119543713D01*
X103500500Y-117164635D01*
X142712000Y-117164635D01*
X142712001Y-118835363D01*
X142712001Y-118835376D01*
X142718408Y-118894983D01*
X142768702Y-119029828D01*
X142768706Y-119029835D01*
X142854952Y-119145044D01*
X142854955Y-119145047D01*
X142970164Y-119231293D01*
X142970171Y-119231297D01*
X143105017Y-119281591D01*
X143105016Y-119281591D01*
X143111944Y-119282335D01*
X143164627Y-119288000D01*
X144835372Y-119287999D01*
X144894983Y-119281591D01*
X145029831Y-119231296D01*
X145145046Y-119145046D01*
X145231296Y-119029831D01*
X145281591Y-118894983D01*
X145282836Y-118883398D01*
X145309570Y-118818850D01*
X145366960Y-118778999D01*
X145436785Y-118776501D01*
X145496876Y-118812151D01*
X145506442Y-118823764D01*
X145517564Y-118839072D01*
X145660925Y-118982433D01*
X145660930Y-118982437D01*
X145746864Y-119044871D01*
X145824941Y-119101597D01*
X145943026Y-119161764D01*
X146005579Y-119193637D01*
X146005582Y-119193638D01*
X146101986Y-119224961D01*
X146198393Y-119256285D01*
X146398632Y-119288000D01*
X146398633Y-119288000D01*
X146601367Y-119288000D01*
X146601368Y-119288000D01*
X146801607Y-119256285D01*
X146994420Y-119193637D01*
X147175059Y-119101597D01*
X147339076Y-118982432D01*
X147482432Y-118839076D01*
X147601597Y-118675059D01*
X147693637Y-118494420D01*
X147756285Y-118301607D01*
X147788000Y-118101368D01*
X147788000Y-117898632D01*
X147756285Y-117698393D01*
X147693637Y-117505580D01*
X147693637Y-117505579D01*
X147601599Y-117324945D01*
X147601589Y-117324929D01*
X147557783Y-117264635D01*
X151512000Y-117264635D01*
X151512001Y-118935363D01*
X151512001Y-118935376D01*
X151518408Y-118994983D01*
X151568702Y-119129828D01*
X151568706Y-119129835D01*
X151654952Y-119245044D01*
X151654955Y-119245047D01*
X151770164Y-119331293D01*
X151770171Y-119331297D01*
X151781746Y-119335614D01*
X151905017Y-119381591D01*
X151964627Y-119388000D01*
X152112000Y-119387999D01*
X152179039Y-119407683D01*
X152224794Y-119460487D01*
X152236000Y-119511999D01*
X152236000Y-126099756D01*
X152216315Y-126166795D01*
X152163511Y-126212550D01*
X152136192Y-126221373D01*
X152091508Y-126230261D01*
X152091498Y-126230264D01*
X151945827Y-126290602D01*
X151945814Y-126290609D01*
X151814711Y-126378210D01*
X151814707Y-126378213D01*
X151703213Y-126489707D01*
X151703210Y-126489711D01*
X151615609Y-126620814D01*
X151615602Y-126620827D01*
X151555264Y-126766498D01*
X151555261Y-126766510D01*
X151524500Y-126921153D01*
X151524500Y-127078846D01*
X151555261Y-127233489D01*
X151555264Y-127233501D01*
X151615602Y-127379172D01*
X151615609Y-127379185D01*
X151703210Y-127510288D01*
X151703213Y-127510292D01*
X151814707Y-127621786D01*
X151814711Y-127621789D01*
X151945814Y-127709390D01*
X151945827Y-127709397D01*
X152091498Y-127769735D01*
X152091503Y-127769737D01*
X152246153Y-127800499D01*
X152246156Y-127800500D01*
X152246158Y-127800500D01*
X152403844Y-127800500D01*
X152403845Y-127800499D01*
X152558497Y-127769737D01*
X152704179Y-127709394D01*
X152835289Y-127621789D01*
X152946789Y-127510289D01*
X153034394Y-127379179D01*
X153094737Y-127233497D01*
X153094999Y-127232175D01*
X153095329Y-127231545D01*
X153096503Y-127227675D01*
X153097236Y-127227897D01*
X153103765Y-127215414D01*
X153107786Y-127196931D01*
X153126516Y-127171910D01*
X153127378Y-127170263D01*
X153128879Y-127168735D01*
X153136094Y-127161521D01*
X153136099Y-127161517D01*
X153146302Y-127151313D01*
X153146304Y-127151313D01*
X153251313Y-127046304D01*
X153325565Y-126917696D01*
X153364000Y-126774252D01*
X153364000Y-119511999D01*
X153383685Y-119444960D01*
X153436489Y-119399205D01*
X153488000Y-119387999D01*
X153635371Y-119387999D01*
X153635372Y-119387999D01*
X153694983Y-119381591D01*
X153829831Y-119331296D01*
X153945046Y-119245046D01*
X154031296Y-119129831D01*
X154081591Y-118994983D01*
X154082836Y-118983398D01*
X154109570Y-118918850D01*
X154166960Y-118878999D01*
X154236785Y-118876501D01*
X154296876Y-118912151D01*
X154306442Y-118923764D01*
X154317564Y-118939072D01*
X154460925Y-119082433D01*
X154460930Y-119082437D01*
X154547102Y-119145044D01*
X154624941Y-119201597D01*
X154743026Y-119261764D01*
X154805579Y-119293637D01*
X154805582Y-119293638D01*
X154901986Y-119324961D01*
X154998393Y-119356285D01*
X155198632Y-119388000D01*
X155198633Y-119388000D01*
X155401367Y-119388000D01*
X155401368Y-119388000D01*
X155601607Y-119356285D01*
X155794420Y-119293637D01*
X155975059Y-119201597D01*
X156139076Y-119082432D01*
X156282432Y-118939076D01*
X156401597Y-118775059D01*
X156493637Y-118594420D01*
X156556285Y-118401607D01*
X156588000Y-118201368D01*
X156588000Y-117998632D01*
X156556285Y-117798393D01*
X156493637Y-117605580D01*
X156493637Y-117605579D01*
X156461764Y-117543026D01*
X156401597Y-117424941D01*
X156328940Y-117324937D01*
X156282437Y-117260930D01*
X156282433Y-117260925D01*
X156139074Y-117117566D01*
X156139069Y-117117562D01*
X155975062Y-116998405D01*
X155975061Y-116998404D01*
X155975059Y-116998403D01*
X155890129Y-116955129D01*
X155794420Y-116906362D01*
X155794417Y-116906361D01*
X155601608Y-116843715D01*
X155501487Y-116827857D01*
X155401368Y-116812000D01*
X155198632Y-116812000D01*
X155131885Y-116822571D01*
X154998391Y-116843715D01*
X154805582Y-116906361D01*
X154805579Y-116906362D01*
X154624937Y-116998405D01*
X154460930Y-117117562D01*
X154460925Y-117117566D01*
X154317566Y-117260925D01*
X154317560Y-117260932D01*
X154306443Y-117276234D01*
X154251113Y-117318900D01*
X154181499Y-117324878D01*
X154119705Y-117292271D01*
X154085348Y-117231432D01*
X154082836Y-117216599D01*
X154081591Y-117205016D01*
X154031297Y-117070171D01*
X154031293Y-117070164D01*
X153945047Y-116954955D01*
X153945044Y-116954952D01*
X153829835Y-116868706D01*
X153829828Y-116868702D01*
X153694982Y-116818408D01*
X153694983Y-116818408D01*
X153635383Y-116812001D01*
X153635381Y-116812000D01*
X153635373Y-116812000D01*
X153635364Y-116812000D01*
X151964629Y-116812000D01*
X151964623Y-116812001D01*
X151905016Y-116818408D01*
X151770171Y-116868702D01*
X151770164Y-116868706D01*
X151654955Y-116954952D01*
X151654952Y-116954955D01*
X151568706Y-117070164D01*
X151568702Y-117070171D01*
X151518408Y-117205017D01*
X151512001Y-117264616D01*
X151512000Y-117264635D01*
X147557783Y-117264635D01*
X147482437Y-117160930D01*
X147482433Y-117160925D01*
X147339074Y-117017566D01*
X147339069Y-117017562D01*
X147175062Y-116898405D01*
X147175061Y-116898404D01*
X147175059Y-116898403D01*
X147116767Y-116868702D01*
X146994420Y-116806362D01*
X146994417Y-116806361D01*
X146801608Y-116743715D01*
X146701487Y-116727857D01*
X146601368Y-116712000D01*
X146398632Y-116712000D01*
X146331885Y-116722571D01*
X146198391Y-116743715D01*
X146005582Y-116806361D01*
X146005579Y-116806362D01*
X145824937Y-116898405D01*
X145660930Y-117017562D01*
X145660925Y-117017566D01*
X145517566Y-117160925D01*
X145517560Y-117160932D01*
X145506443Y-117176234D01*
X145451113Y-117218900D01*
X145381499Y-117224878D01*
X145319705Y-117192271D01*
X145285348Y-117131432D01*
X145282836Y-117116599D01*
X145281591Y-117105016D01*
X145231297Y-116970171D01*
X145231293Y-116970164D01*
X145145047Y-116854955D01*
X145145044Y-116854952D01*
X145029835Y-116768706D01*
X145029828Y-116768702D01*
X144894982Y-116718408D01*
X144894983Y-116718408D01*
X144835383Y-116712001D01*
X144835381Y-116712000D01*
X144835373Y-116712000D01*
X144835364Y-116712000D01*
X143164629Y-116712000D01*
X143164623Y-116712001D01*
X143105016Y-116718408D01*
X142970171Y-116768702D01*
X142970164Y-116768706D01*
X142854955Y-116854952D01*
X142854952Y-116854955D01*
X142768706Y-116970164D01*
X142768702Y-116970171D01*
X142718408Y-117105017D01*
X142712001Y-117164616D01*
X142712000Y-117164635D01*
X103500500Y-117164635D01*
X103500500Y-100421153D01*
X148699500Y-100421153D01*
X148699500Y-100578846D01*
X148730261Y-100733489D01*
X148730264Y-100733501D01*
X148790602Y-100879172D01*
X148790609Y-100879185D01*
X148878209Y-101010287D01*
X148878210Y-101010288D01*
X148878211Y-101010289D01*
X148899681Y-101031759D01*
X148933166Y-101093080D01*
X148936000Y-101119440D01*
X148936000Y-105580559D01*
X148916315Y-105647598D01*
X148899681Y-105668240D01*
X148878213Y-105689707D01*
X148878210Y-105689711D01*
X148790609Y-105820814D01*
X148790602Y-105820827D01*
X148730264Y-105966498D01*
X148730261Y-105966510D01*
X148699500Y-106121153D01*
X148699500Y-106278846D01*
X148730261Y-106433489D01*
X148730264Y-106433501D01*
X148790602Y-106579172D01*
X148790609Y-106579185D01*
X148878210Y-106710288D01*
X148878213Y-106710292D01*
X148989707Y-106821786D01*
X148989711Y-106821789D01*
X149120814Y-106909390D01*
X149120827Y-106909397D01*
X149266498Y-106969735D01*
X149266503Y-106969737D01*
X149421153Y-107000499D01*
X149421156Y-107000500D01*
X149421158Y-107000500D01*
X149578844Y-107000500D01*
X149578845Y-107000499D01*
X149733497Y-106969737D01*
X149879179Y-106909394D01*
X150010289Y-106821789D01*
X150121789Y-106710289D01*
X150209394Y-106579179D01*
X150269737Y-106433497D01*
X150300500Y-106278842D01*
X150300500Y-106121158D01*
X150300500Y-106121155D01*
X150300499Y-106121153D01*
X150269738Y-105966510D01*
X150269737Y-105966503D01*
X150269735Y-105966498D01*
X150209397Y-105820827D01*
X150209390Y-105820814D01*
X150121789Y-105689711D01*
X150121786Y-105689707D01*
X150100319Y-105668240D01*
X150066834Y-105606917D01*
X150064000Y-105580559D01*
X150064000Y-101119440D01*
X150083685Y-101052401D01*
X150100315Y-101031762D01*
X150121789Y-101010289D01*
X150209394Y-100879179D01*
X150269737Y-100733497D01*
X150300500Y-100578842D01*
X150300500Y-100421158D01*
X150300500Y-100421155D01*
X150300499Y-100421153D01*
X150269738Y-100266510D01*
X150269737Y-100266503D01*
X150269735Y-100266498D01*
X150209397Y-100120827D01*
X150209390Y-100120814D01*
X150121789Y-99989711D01*
X150121786Y-99989707D01*
X150010292Y-99878213D01*
X150010288Y-99878210D01*
X149879185Y-99790609D01*
X149879172Y-99790602D01*
X149733501Y-99730264D01*
X149733489Y-99730261D01*
X149578845Y-99699500D01*
X149578842Y-99699500D01*
X149421158Y-99699500D01*
X149421155Y-99699500D01*
X149266510Y-99730261D01*
X149266498Y-99730264D01*
X149120827Y-99790602D01*
X149120814Y-99790609D01*
X148989711Y-99878210D01*
X148989707Y-99878213D01*
X148878213Y-99989707D01*
X148878210Y-99989711D01*
X148790609Y-100120814D01*
X148790602Y-100120827D01*
X148730264Y-100266498D01*
X148730261Y-100266510D01*
X148699500Y-100421153D01*
X103500500Y-100421153D01*
X103500500Y-97543713D01*
X113649500Y-97543713D01*
X113649500Y-97756286D01*
X113682753Y-97966239D01*
X113748444Y-98168414D01*
X113844951Y-98357820D01*
X113969890Y-98529786D01*
X114120213Y-98680109D01*
X114292179Y-98805048D01*
X114292181Y-98805049D01*
X114292184Y-98805051D01*
X114481588Y-98901557D01*
X114683757Y-98967246D01*
X114893713Y-99000500D01*
X114893714Y-99000500D01*
X115106286Y-99000500D01*
X115106287Y-99000500D01*
X115316243Y-98967246D01*
X115518412Y-98901557D01*
X115707816Y-98805051D01*
X115729789Y-98789086D01*
X115879786Y-98680109D01*
X115879788Y-98680106D01*
X115879792Y-98680104D01*
X115912319Y-98647577D01*
X115973642Y-98614092D01*
X116043334Y-98619076D01*
X116087681Y-98647577D01*
X116120213Y-98680109D01*
X116292179Y-98805048D01*
X116292181Y-98805049D01*
X116292184Y-98805051D01*
X116481588Y-98901557D01*
X116683757Y-98967246D01*
X116893713Y-99000500D01*
X116893714Y-99000500D01*
X117106286Y-99000500D01*
X117106287Y-99000500D01*
X117316243Y-98967246D01*
X117518412Y-98901557D01*
X117707816Y-98805051D01*
X117729789Y-98789086D01*
X117879786Y-98680109D01*
X117879788Y-98680106D01*
X117879792Y-98680104D01*
X117912319Y-98647577D01*
X117973642Y-98614092D01*
X118043334Y-98619076D01*
X118087681Y-98647577D01*
X118120213Y-98680109D01*
X118292179Y-98805048D01*
X118292181Y-98805049D01*
X118292184Y-98805051D01*
X118481588Y-98901557D01*
X118683757Y-98967246D01*
X118893713Y-99000500D01*
X118893714Y-99000500D01*
X119106286Y-99000500D01*
X119106287Y-99000500D01*
X119316243Y-98967246D01*
X119518412Y-98901557D01*
X119707816Y-98805051D01*
X119729789Y-98789086D01*
X119879786Y-98680109D01*
X119879788Y-98680106D01*
X119879792Y-98680104D01*
X119912319Y-98647577D01*
X119973642Y-98614092D01*
X120043334Y-98619076D01*
X120087681Y-98647577D01*
X120120213Y-98680109D01*
X120292179Y-98805048D01*
X120292181Y-98805049D01*
X120292184Y-98805051D01*
X120481588Y-98901557D01*
X120683757Y-98967246D01*
X120893713Y-99000500D01*
X120893714Y-99000500D01*
X121106286Y-99000500D01*
X121106287Y-99000500D01*
X121316243Y-98967246D01*
X121518412Y-98901557D01*
X121707816Y-98805051D01*
X121729789Y-98789086D01*
X121879786Y-98680109D01*
X121879788Y-98680106D01*
X121879792Y-98680104D01*
X121912319Y-98647577D01*
X121973642Y-98614092D01*
X122043334Y-98619076D01*
X122087681Y-98647577D01*
X122120213Y-98680109D01*
X122292179Y-98805048D01*
X122292181Y-98805049D01*
X122292184Y-98805051D01*
X122481588Y-98901557D01*
X122683757Y-98967246D01*
X122893713Y-99000500D01*
X122893714Y-99000500D01*
X123106286Y-99000500D01*
X123106287Y-99000500D01*
X123316243Y-98967246D01*
X123518412Y-98901557D01*
X123707816Y-98805051D01*
X123729789Y-98789086D01*
X123879786Y-98680109D01*
X123879788Y-98680106D01*
X123879792Y-98680104D01*
X123912319Y-98647577D01*
X123973642Y-98614092D01*
X124043334Y-98619076D01*
X124087681Y-98647577D01*
X124120213Y-98680109D01*
X124292179Y-98805048D01*
X124292181Y-98805049D01*
X124292184Y-98805051D01*
X124481588Y-98901557D01*
X124683757Y-98967246D01*
X124893713Y-99000500D01*
X124893714Y-99000500D01*
X125106286Y-99000500D01*
X125106287Y-99000500D01*
X125316243Y-98967246D01*
X125518412Y-98901557D01*
X125707816Y-98805051D01*
X125729789Y-98789086D01*
X125879786Y-98680109D01*
X125879788Y-98680106D01*
X125879792Y-98680104D01*
X125912319Y-98647577D01*
X125973642Y-98614092D01*
X126043334Y-98619076D01*
X126087681Y-98647577D01*
X126120213Y-98680109D01*
X126292179Y-98805048D01*
X126292181Y-98805049D01*
X126292184Y-98805051D01*
X126481588Y-98901557D01*
X126683757Y-98967246D01*
X126893713Y-99000500D01*
X126893714Y-99000500D01*
X127106286Y-99000500D01*
X127106287Y-99000500D01*
X127316243Y-98967246D01*
X127518412Y-98901557D01*
X127707816Y-98805051D01*
X127729789Y-98789086D01*
X127879786Y-98680109D01*
X127879788Y-98680106D01*
X127879792Y-98680104D01*
X127912319Y-98647577D01*
X127973642Y-98614092D01*
X128043334Y-98619076D01*
X128087681Y-98647577D01*
X128120213Y-98680109D01*
X128292179Y-98805048D01*
X128292181Y-98805049D01*
X128292184Y-98805051D01*
X128481588Y-98901557D01*
X128683757Y-98967246D01*
X128893713Y-99000500D01*
X128893714Y-99000500D01*
X129106286Y-99000500D01*
X129106287Y-99000500D01*
X129316243Y-98967246D01*
X129518412Y-98901557D01*
X129707816Y-98805051D01*
X129729789Y-98789086D01*
X129879786Y-98680109D01*
X129879788Y-98680106D01*
X129879792Y-98680104D01*
X129912319Y-98647577D01*
X129973642Y-98614092D01*
X130043334Y-98619076D01*
X130087681Y-98647577D01*
X130120213Y-98680109D01*
X130292179Y-98805048D01*
X130292181Y-98805049D01*
X130292184Y-98805051D01*
X130481588Y-98901557D01*
X130683757Y-98967246D01*
X130893713Y-99000500D01*
X130893714Y-99000500D01*
X131106286Y-99000500D01*
X131106287Y-99000500D01*
X131316243Y-98967246D01*
X131518412Y-98901557D01*
X131707816Y-98805051D01*
X131729789Y-98789086D01*
X131879786Y-98680109D01*
X131879788Y-98680106D01*
X131879792Y-98680104D01*
X131912319Y-98647577D01*
X131973642Y-98614092D01*
X132043334Y-98619076D01*
X132087681Y-98647577D01*
X132120213Y-98680109D01*
X132292179Y-98805048D01*
X132292181Y-98805049D01*
X132292184Y-98805051D01*
X132481588Y-98901557D01*
X132683757Y-98967246D01*
X132893713Y-99000500D01*
X132893714Y-99000500D01*
X133106286Y-99000500D01*
X133106287Y-99000500D01*
X133316243Y-98967246D01*
X133518412Y-98901557D01*
X133707816Y-98805051D01*
X133729789Y-98789086D01*
X133879786Y-98680109D01*
X133879788Y-98680106D01*
X133879792Y-98680104D01*
X134030104Y-98529792D01*
X134030106Y-98529788D01*
X134030109Y-98529786D01*
X134155048Y-98357820D01*
X134155047Y-98357820D01*
X134155051Y-98357816D01*
X134251557Y-98168412D01*
X134317246Y-97966243D01*
X134350500Y-97756287D01*
X134350500Y-97543713D01*
X134317246Y-97333757D01*
X134251557Y-97131588D01*
X134155051Y-96942184D01*
X134155049Y-96942181D01*
X134155048Y-96942179D01*
X134030109Y-96770213D01*
X133879786Y-96619890D01*
X133707820Y-96494951D01*
X133518414Y-96398444D01*
X133518413Y-96398443D01*
X133518412Y-96398443D01*
X133316243Y-96332754D01*
X133316241Y-96332753D01*
X133316240Y-96332753D01*
X133154957Y-96307208D01*
X133106287Y-96299500D01*
X132893713Y-96299500D01*
X132845042Y-96307208D01*
X132683760Y-96332753D01*
X132481585Y-96398444D01*
X132292179Y-96494951D01*
X132120213Y-96619890D01*
X132120209Y-96619894D01*
X132087681Y-96652423D01*
X132026358Y-96685908D01*
X131956666Y-96680924D01*
X131912319Y-96652423D01*
X131879786Y-96619890D01*
X131707820Y-96494951D01*
X131518414Y-96398444D01*
X131518413Y-96398443D01*
X131518412Y-96398443D01*
X131316243Y-96332754D01*
X131316241Y-96332753D01*
X131316240Y-96332753D01*
X131154957Y-96307208D01*
X131106287Y-96299500D01*
X130893713Y-96299500D01*
X130845042Y-96307208D01*
X130683760Y-96332753D01*
X130481585Y-96398444D01*
X130292179Y-96494951D01*
X130120213Y-96619890D01*
X130120209Y-96619894D01*
X130087681Y-96652423D01*
X130026358Y-96685908D01*
X129956666Y-96680924D01*
X129912319Y-96652423D01*
X129879786Y-96619890D01*
X129707820Y-96494951D01*
X129518414Y-96398444D01*
X129518413Y-96398443D01*
X129518412Y-96398443D01*
X129316243Y-96332754D01*
X129316241Y-96332753D01*
X129316240Y-96332753D01*
X129154957Y-96307208D01*
X129106287Y-96299500D01*
X128893713Y-96299500D01*
X128845042Y-96307208D01*
X128683760Y-96332753D01*
X128481585Y-96398444D01*
X128292179Y-96494951D01*
X128120213Y-96619890D01*
X128120209Y-96619894D01*
X128087681Y-96652423D01*
X128026358Y-96685908D01*
X127956666Y-96680924D01*
X127912319Y-96652423D01*
X127879786Y-96619890D01*
X127707820Y-96494951D01*
X127518414Y-96398444D01*
X127518413Y-96398443D01*
X127518412Y-96398443D01*
X127316243Y-96332754D01*
X127316241Y-96332753D01*
X127316240Y-96332753D01*
X127154957Y-96307208D01*
X127106287Y-96299500D01*
X126893713Y-96299500D01*
X126845042Y-96307208D01*
X126683760Y-96332753D01*
X126481585Y-96398444D01*
X126292179Y-96494951D01*
X126120213Y-96619890D01*
X126120209Y-96619894D01*
X126087681Y-96652423D01*
X126026358Y-96685908D01*
X125956666Y-96680924D01*
X125912319Y-96652423D01*
X125879786Y-96619890D01*
X125707820Y-96494951D01*
X125518414Y-96398444D01*
X125518413Y-96398443D01*
X125518412Y-96398443D01*
X125316243Y-96332754D01*
X125316241Y-96332753D01*
X125316240Y-96332753D01*
X125154957Y-96307208D01*
X125106287Y-96299500D01*
X124893713Y-96299500D01*
X124845042Y-96307208D01*
X124683760Y-96332753D01*
X124481585Y-96398444D01*
X124292179Y-96494951D01*
X124120213Y-96619890D01*
X124120209Y-96619894D01*
X124087681Y-96652423D01*
X124026358Y-96685908D01*
X123956666Y-96680924D01*
X123912319Y-96652423D01*
X123879786Y-96619890D01*
X123707820Y-96494951D01*
X123518414Y-96398444D01*
X123518413Y-96398443D01*
X123518412Y-96398443D01*
X123316243Y-96332754D01*
X123316241Y-96332753D01*
X123316240Y-96332753D01*
X123154957Y-96307208D01*
X123106287Y-96299500D01*
X122893713Y-96299500D01*
X122845042Y-96307208D01*
X122683760Y-96332753D01*
X122481585Y-96398444D01*
X122292179Y-96494951D01*
X122120213Y-96619890D01*
X122120209Y-96619894D01*
X122087681Y-96652423D01*
X122026358Y-96685908D01*
X121956666Y-96680924D01*
X121912319Y-96652423D01*
X121879786Y-96619890D01*
X121707820Y-96494951D01*
X121518414Y-96398444D01*
X121518413Y-96398443D01*
X121518412Y-96398443D01*
X121316243Y-96332754D01*
X121316241Y-96332753D01*
X121316240Y-96332753D01*
X121154957Y-96307208D01*
X121106287Y-96299500D01*
X120893713Y-96299500D01*
X120845042Y-96307208D01*
X120683760Y-96332753D01*
X120481585Y-96398444D01*
X120292179Y-96494951D01*
X120120213Y-96619890D01*
X120120209Y-96619894D01*
X120087681Y-96652423D01*
X120026358Y-96685908D01*
X119956666Y-96680924D01*
X119912319Y-96652423D01*
X119879786Y-96619890D01*
X119707820Y-96494951D01*
X119518414Y-96398444D01*
X119518413Y-96398443D01*
X119518412Y-96398443D01*
X119316243Y-96332754D01*
X119316241Y-96332753D01*
X119316240Y-96332753D01*
X119154957Y-96307208D01*
X119106287Y-96299500D01*
X118893713Y-96299500D01*
X118845042Y-96307208D01*
X118683760Y-96332753D01*
X118481585Y-96398444D01*
X118292179Y-96494951D01*
X118120213Y-96619890D01*
X118120209Y-96619894D01*
X118087681Y-96652423D01*
X118026358Y-96685908D01*
X117956666Y-96680924D01*
X117912319Y-96652423D01*
X117879786Y-96619890D01*
X117707820Y-96494951D01*
X117518414Y-96398444D01*
X117518413Y-96398443D01*
X117518412Y-96398443D01*
X117316243Y-96332754D01*
X117316241Y-96332753D01*
X117316240Y-96332753D01*
X117154957Y-96307208D01*
X117106287Y-96299500D01*
X116893713Y-96299500D01*
X116845042Y-96307208D01*
X116683760Y-96332753D01*
X116481585Y-96398444D01*
X116292179Y-96494951D01*
X116120213Y-96619890D01*
X116120209Y-96619894D01*
X116087681Y-96652423D01*
X116026358Y-96685908D01*
X115956666Y-96680924D01*
X115912319Y-96652423D01*
X115879786Y-96619890D01*
X115707820Y-96494951D01*
X115518414Y-96398444D01*
X115518413Y-96398443D01*
X115518412Y-96398443D01*
X115316243Y-96332754D01*
X115316241Y-96332753D01*
X115316240Y-96332753D01*
X115154957Y-96307208D01*
X115106287Y-96299500D01*
X114893713Y-96299500D01*
X114845042Y-96307208D01*
X114683760Y-96332753D01*
X114481585Y-96398444D01*
X114292179Y-96494951D01*
X114120213Y-96619890D01*
X113969890Y-96770213D01*
X113844951Y-96942179D01*
X113748444Y-97131585D01*
X113682753Y-97333760D01*
X113649500Y-97543713D01*
X103500500Y-97543713D01*
X103500500Y-96157648D01*
X148299500Y-96157648D01*
X148299500Y-96362351D01*
X148331522Y-96564534D01*
X148394781Y-96759223D01*
X148487715Y-96941613D01*
X148608028Y-97107213D01*
X148752786Y-97251971D01*
X148905665Y-97363042D01*
X148918390Y-97372287D01*
X149009561Y-97418741D01*
X149100776Y-97465218D01*
X149100778Y-97465218D01*
X149100781Y-97465220D01*
X149200178Y-97497516D01*
X149295465Y-97528477D01*
X149391661Y-97543713D01*
X149497648Y-97560500D01*
X149497649Y-97560500D01*
X149702351Y-97560500D01*
X149702352Y-97560500D01*
X149904534Y-97528477D01*
X150099219Y-97465220D01*
X150281610Y-97372287D01*
X150374590Y-97304732D01*
X150447213Y-97251971D01*
X150447215Y-97251968D01*
X150447219Y-97251966D01*
X150591966Y-97107219D01*
X150591968Y-97107215D01*
X150591971Y-97107213D01*
X150712284Y-96941614D01*
X150712286Y-96941611D01*
X150712287Y-96941610D01*
X150759795Y-96848369D01*
X150807770Y-96797574D01*
X150875591Y-96780779D01*
X150941725Y-96803316D01*
X150980765Y-96848370D01*
X151028140Y-96941349D01*
X151148417Y-97106894D01*
X151148417Y-97106895D01*
X151293104Y-97251582D01*
X151458650Y-97371859D01*
X151640968Y-97464754D01*
X151835578Y-97527988D01*
X151890000Y-97536607D01*
X151890000Y-96693012D01*
X151947007Y-96725925D01*
X152074174Y-96760000D01*
X152205826Y-96760000D01*
X152332993Y-96725925D01*
X152390000Y-96693012D01*
X152390000Y-97536606D01*
X152444421Y-97527988D01*
X152639031Y-97464754D01*
X152821349Y-97371859D01*
X152986894Y-97251582D01*
X152986895Y-97251582D01*
X153131582Y-97106895D01*
X153131582Y-97106894D01*
X153251861Y-96941347D01*
X153299234Y-96848371D01*
X153347208Y-96797575D01*
X153415028Y-96780779D01*
X153481164Y-96803316D01*
X153520203Y-96848369D01*
X153567713Y-96941611D01*
X153688028Y-97107213D01*
X153832786Y-97251971D01*
X153985665Y-97363042D01*
X153998390Y-97372287D01*
X154089561Y-97418741D01*
X154180776Y-97465218D01*
X154180778Y-97465218D01*
X154180781Y-97465220D01*
X154280178Y-97497516D01*
X154375465Y-97528477D01*
X154471661Y-97543713D01*
X154577648Y-97560500D01*
X154577649Y-97560500D01*
X154782351Y-97560500D01*
X154782352Y-97560500D01*
X154984534Y-97528477D01*
X155179219Y-97465220D01*
X155361610Y-97372287D01*
X155454590Y-97304732D01*
X155527213Y-97251971D01*
X155527215Y-97251968D01*
X155527219Y-97251966D01*
X155671966Y-97107219D01*
X155671968Y-97107215D01*
X155671971Y-97107213D01*
X155792284Y-96941614D01*
X155792286Y-96941611D01*
X155792287Y-96941610D01*
X155839516Y-96848917D01*
X155887489Y-96798123D01*
X155955310Y-96781328D01*
X156021445Y-96803865D01*
X156060485Y-96848919D01*
X156107715Y-96941614D01*
X156228028Y-97107213D01*
X156372786Y-97251971D01*
X156525665Y-97363042D01*
X156538390Y-97372287D01*
X156629561Y-97418741D01*
X156720776Y-97465218D01*
X156720778Y-97465218D01*
X156720781Y-97465220D01*
X156820178Y-97497516D01*
X156915465Y-97528477D01*
X157011661Y-97543713D01*
X157117648Y-97560500D01*
X157117649Y-97560500D01*
X157322351Y-97560500D01*
X157322352Y-97560500D01*
X157524534Y-97528477D01*
X157719219Y-97465220D01*
X157901610Y-97372287D01*
X157994590Y-97304732D01*
X158067213Y-97251971D01*
X158067215Y-97251968D01*
X158067219Y-97251966D01*
X158211966Y-97107219D01*
X158211968Y-97107215D01*
X158211971Y-97107213D01*
X158332284Y-96941614D01*
X158332286Y-96941611D01*
X158332287Y-96941610D01*
X158379516Y-96848917D01*
X158427489Y-96798123D01*
X158495310Y-96781328D01*
X158561445Y-96803865D01*
X158600485Y-96848919D01*
X158647715Y-96941614D01*
X158768028Y-97107213D01*
X158912786Y-97251971D01*
X159065665Y-97363042D01*
X159078390Y-97372287D01*
X159169561Y-97418741D01*
X159260776Y-97465218D01*
X159260778Y-97465218D01*
X159260781Y-97465220D01*
X159360178Y-97497516D01*
X159455465Y-97528477D01*
X159551661Y-97543713D01*
X159657648Y-97560500D01*
X159657649Y-97560500D01*
X159862351Y-97560500D01*
X159862352Y-97560500D01*
X160064534Y-97528477D01*
X160259219Y-97465220D01*
X160441610Y-97372287D01*
X160534590Y-97304732D01*
X160607213Y-97251971D01*
X160607215Y-97251968D01*
X160607219Y-97251966D01*
X160751966Y-97107219D01*
X160751968Y-97107215D01*
X160751971Y-97107213D01*
X160872284Y-96941614D01*
X160872286Y-96941611D01*
X160872287Y-96941610D01*
X160919516Y-96848917D01*
X160967489Y-96798123D01*
X161035310Y-96781328D01*
X161101445Y-96803865D01*
X161140485Y-96848919D01*
X161187715Y-96941614D01*
X161308028Y-97107213D01*
X161452786Y-97251971D01*
X161605665Y-97363042D01*
X161618390Y-97372287D01*
X161709561Y-97418741D01*
X161800776Y-97465218D01*
X161800778Y-97465218D01*
X161800781Y-97465220D01*
X161900178Y-97497516D01*
X161995465Y-97528477D01*
X162091661Y-97543713D01*
X162197648Y-97560500D01*
X162197649Y-97560500D01*
X162402351Y-97560500D01*
X162402352Y-97560500D01*
X162604534Y-97528477D01*
X162799219Y-97465220D01*
X162981610Y-97372287D01*
X163074590Y-97304732D01*
X163147213Y-97251971D01*
X163147215Y-97251968D01*
X163147219Y-97251966D01*
X163291966Y-97107219D01*
X163291968Y-97107215D01*
X163291971Y-97107213D01*
X163412284Y-96941614D01*
X163412286Y-96941611D01*
X163412287Y-96941610D01*
X163459516Y-96848917D01*
X163507489Y-96798123D01*
X163575310Y-96781328D01*
X163641445Y-96803865D01*
X163680485Y-96848919D01*
X163727715Y-96941614D01*
X163848028Y-97107213D01*
X163992786Y-97251971D01*
X164145665Y-97363042D01*
X164158390Y-97372287D01*
X164249561Y-97418741D01*
X164340776Y-97465218D01*
X164340778Y-97465218D01*
X164340781Y-97465220D01*
X164440178Y-97497516D01*
X164535465Y-97528477D01*
X164631661Y-97543713D01*
X164737648Y-97560500D01*
X164737649Y-97560500D01*
X164942351Y-97560500D01*
X164942352Y-97560500D01*
X165144534Y-97528477D01*
X165339219Y-97465220D01*
X165521610Y-97372287D01*
X165614590Y-97304732D01*
X165687213Y-97251971D01*
X165687215Y-97251968D01*
X165687219Y-97251966D01*
X165831966Y-97107219D01*
X165831968Y-97107215D01*
X165831971Y-97107213D01*
X165952284Y-96941614D01*
X165952286Y-96941611D01*
X165952287Y-96941610D01*
X165999516Y-96848917D01*
X166047489Y-96798123D01*
X166115310Y-96781328D01*
X166181445Y-96803865D01*
X166220485Y-96848919D01*
X166267715Y-96941614D01*
X166388028Y-97107213D01*
X166532786Y-97251971D01*
X166685665Y-97363042D01*
X166698390Y-97372287D01*
X166789561Y-97418741D01*
X166880776Y-97465218D01*
X166880778Y-97465218D01*
X166880781Y-97465220D01*
X166980178Y-97497516D01*
X167075465Y-97528477D01*
X167171661Y-97543713D01*
X167277648Y-97560500D01*
X167277649Y-97560500D01*
X167482351Y-97560500D01*
X167482352Y-97560500D01*
X167684534Y-97528477D01*
X167773682Y-97499510D01*
X167843522Y-97497516D01*
X167903355Y-97533596D01*
X167934184Y-97596296D01*
X167936000Y-97617442D01*
X167936000Y-110142557D01*
X167916315Y-110209596D01*
X167863511Y-110255351D01*
X167794353Y-110265295D01*
X167773682Y-110260488D01*
X167684537Y-110231523D01*
X167522810Y-110205908D01*
X167482352Y-110199500D01*
X167277648Y-110199500D01*
X167253329Y-110203351D01*
X167075465Y-110231522D01*
X166880776Y-110294781D01*
X166698386Y-110387715D01*
X166532786Y-110508028D01*
X166388028Y-110652786D01*
X166267715Y-110818386D01*
X166220485Y-110911080D01*
X166172510Y-110961876D01*
X166104689Y-110978671D01*
X166038554Y-110956134D01*
X165999515Y-110911080D01*
X165952419Y-110818650D01*
X165952287Y-110818390D01*
X165944556Y-110807749D01*
X165831971Y-110652786D01*
X165687213Y-110508028D01*
X165521613Y-110387715D01*
X165521612Y-110387714D01*
X165521610Y-110387713D01*
X165464653Y-110358691D01*
X165339223Y-110294781D01*
X165144534Y-110231522D01*
X164969995Y-110203878D01*
X164942352Y-110199500D01*
X164737648Y-110199500D01*
X164713329Y-110203351D01*
X164535465Y-110231522D01*
X164340776Y-110294781D01*
X164158386Y-110387715D01*
X163992786Y-110508028D01*
X163848028Y-110652786D01*
X163727715Y-110818386D01*
X163680485Y-110911080D01*
X163632510Y-110961876D01*
X163564689Y-110978671D01*
X163498554Y-110956134D01*
X163459515Y-110911080D01*
X163412419Y-110818650D01*
X163412287Y-110818390D01*
X163404556Y-110807749D01*
X163291971Y-110652786D01*
X163147213Y-110508028D01*
X162981613Y-110387715D01*
X162981612Y-110387714D01*
X162981610Y-110387713D01*
X162924653Y-110358691D01*
X162799223Y-110294781D01*
X162604534Y-110231522D01*
X162429995Y-110203878D01*
X162402352Y-110199500D01*
X162197648Y-110199500D01*
X162173329Y-110203351D01*
X161995465Y-110231522D01*
X161800776Y-110294781D01*
X161618386Y-110387715D01*
X161452786Y-110508028D01*
X161308028Y-110652786D01*
X161187715Y-110818386D01*
X161140485Y-110911080D01*
X161092510Y-110961876D01*
X161024689Y-110978671D01*
X160958554Y-110956134D01*
X160919515Y-110911080D01*
X160872419Y-110818650D01*
X160872287Y-110818390D01*
X160864556Y-110807749D01*
X160751971Y-110652786D01*
X160607213Y-110508028D01*
X160441613Y-110387715D01*
X160441612Y-110387714D01*
X160441610Y-110387713D01*
X160384653Y-110358691D01*
X160259223Y-110294781D01*
X160064534Y-110231522D01*
X159889995Y-110203878D01*
X159862352Y-110199500D01*
X159657648Y-110199500D01*
X159633329Y-110203351D01*
X159455465Y-110231522D01*
X159260776Y-110294781D01*
X159078386Y-110387715D01*
X158912786Y-110508028D01*
X158768028Y-110652786D01*
X158647713Y-110818388D01*
X158600203Y-110911630D01*
X158552228Y-110962426D01*
X158484407Y-110979220D01*
X158418272Y-110956682D01*
X158379234Y-110911628D01*
X158331861Y-110818652D01*
X158211582Y-110653105D01*
X158211582Y-110653104D01*
X158066895Y-110508417D01*
X157901349Y-110388140D01*
X157719029Y-110295244D01*
X157524413Y-110232009D01*
X157470000Y-110223390D01*
X157470000Y-111066988D01*
X157412993Y-111034075D01*
X157285826Y-111000000D01*
X157154174Y-111000000D01*
X157027007Y-111034075D01*
X156970000Y-111066988D01*
X156970000Y-110223390D01*
X156915586Y-110232009D01*
X156720970Y-110295244D01*
X156538650Y-110388140D01*
X156373105Y-110508417D01*
X156373104Y-110508417D01*
X156228417Y-110653104D01*
X156228417Y-110653105D01*
X156108140Y-110818650D01*
X156060765Y-110911629D01*
X156012790Y-110962425D01*
X155944969Y-110979220D01*
X155878834Y-110956682D01*
X155839795Y-110911629D01*
X155792419Y-110818650D01*
X155792287Y-110818390D01*
X155784556Y-110807749D01*
X155671971Y-110652786D01*
X155527213Y-110508028D01*
X155361613Y-110387715D01*
X155361612Y-110387714D01*
X155361610Y-110387713D01*
X155304653Y-110358691D01*
X155179223Y-110294781D01*
X154984534Y-110231522D01*
X154809995Y-110203878D01*
X154782352Y-110199500D01*
X154577648Y-110199500D01*
X154553329Y-110203351D01*
X154375465Y-110231522D01*
X154180776Y-110294781D01*
X153998386Y-110387715D01*
X153832786Y-110508028D01*
X153688028Y-110652786D01*
X153567715Y-110818386D01*
X153520485Y-110911080D01*
X153472510Y-110961876D01*
X153404689Y-110978671D01*
X153338554Y-110956134D01*
X153299515Y-110911080D01*
X153252419Y-110818650D01*
X153252287Y-110818390D01*
X153244556Y-110807749D01*
X153131971Y-110652786D01*
X152987213Y-110508028D01*
X152821613Y-110387715D01*
X152821612Y-110387714D01*
X152821610Y-110387713D01*
X152764653Y-110358691D01*
X152639223Y-110294781D01*
X152444534Y-110231522D01*
X152269995Y-110203878D01*
X152242352Y-110199500D01*
X152037648Y-110199500D01*
X152013329Y-110203351D01*
X151835465Y-110231522D01*
X151640776Y-110294781D01*
X151458386Y-110387715D01*
X151292786Y-110508028D01*
X151148032Y-110652782D01*
X151121668Y-110689070D01*
X151066338Y-110731735D01*
X150996724Y-110737714D01*
X150934929Y-110705108D01*
X150900572Y-110644269D01*
X150898060Y-110629438D01*
X150897640Y-110625533D01*
X150894091Y-110592517D01*
X150843796Y-110457669D01*
X150843795Y-110457668D01*
X150843793Y-110457664D01*
X150757547Y-110342455D01*
X150757544Y-110342452D01*
X150642335Y-110256206D01*
X150642328Y-110256202D01*
X150507482Y-110205908D01*
X150507483Y-110205908D01*
X150447883Y-110199501D01*
X150447881Y-110199500D01*
X150447873Y-110199500D01*
X150447864Y-110199500D01*
X148752129Y-110199500D01*
X148752123Y-110199501D01*
X148692516Y-110205908D01*
X148557671Y-110256202D01*
X148557664Y-110256206D01*
X148442455Y-110342452D01*
X148442452Y-110342455D01*
X148356206Y-110457664D01*
X148356202Y-110457671D01*
X148305908Y-110592517D01*
X148299501Y-110652116D01*
X148299500Y-110652135D01*
X148299500Y-112347870D01*
X148299501Y-112347876D01*
X148305908Y-112407483D01*
X148356202Y-112542328D01*
X148356206Y-112542335D01*
X148442452Y-112657544D01*
X148442455Y-112657547D01*
X148557664Y-112743793D01*
X148557671Y-112743797D01*
X148692517Y-112794091D01*
X148692516Y-112794091D01*
X148699444Y-112794835D01*
X148752127Y-112800500D01*
X150447872Y-112800499D01*
X150507483Y-112794091D01*
X150642331Y-112743796D01*
X150757546Y-112657546D01*
X150843796Y-112542331D01*
X150894091Y-112407483D01*
X150898061Y-112370556D01*
X150924796Y-112306011D01*
X150982188Y-112266161D01*
X151052013Y-112263666D01*
X151112102Y-112299317D01*
X151121667Y-112310929D01*
X151148032Y-112347217D01*
X151292786Y-112491971D01*
X151445665Y-112603042D01*
X151458390Y-112612287D01*
X151547212Y-112657544D01*
X151640776Y-112705218D01*
X151640778Y-112705218D01*
X151640781Y-112705220D01*
X151745137Y-112739127D01*
X151835465Y-112768477D01*
X151917171Y-112781418D01*
X152037648Y-112800500D01*
X152037649Y-112800500D01*
X152242351Y-112800500D01*
X152242352Y-112800500D01*
X152444534Y-112768477D01*
X152639219Y-112705220D01*
X152821610Y-112612287D01*
X152955119Y-112515288D01*
X152987213Y-112491971D01*
X152987215Y-112491968D01*
X152987219Y-112491966D01*
X153131966Y-112347219D01*
X153131968Y-112347215D01*
X153131971Y-112347213D01*
X153252284Y-112181614D01*
X153252285Y-112181613D01*
X153252287Y-112181610D01*
X153299516Y-112088917D01*
X153347489Y-112038123D01*
X153415310Y-112021328D01*
X153481445Y-112043865D01*
X153520485Y-112088919D01*
X153567715Y-112181614D01*
X153688028Y-112347213D01*
X153832786Y-112491971D01*
X153985665Y-112603042D01*
X153998390Y-112612287D01*
X154087212Y-112657544D01*
X154180776Y-112705218D01*
X154180778Y-112705218D01*
X154180781Y-112705220D01*
X154285137Y-112739127D01*
X154375465Y-112768477D01*
X154457171Y-112781418D01*
X154577648Y-112800500D01*
X154577649Y-112800500D01*
X154782351Y-112800500D01*
X154782352Y-112800500D01*
X154984534Y-112768477D01*
X155179219Y-112705220D01*
X155361610Y-112612287D01*
X155495119Y-112515288D01*
X155527213Y-112491971D01*
X155527215Y-112491968D01*
X155527219Y-112491966D01*
X155671966Y-112347219D01*
X155671968Y-112347215D01*
X155671971Y-112347213D01*
X155792284Y-112181614D01*
X155792285Y-112181613D01*
X155792287Y-112181610D01*
X155839795Y-112088369D01*
X155887770Y-112037574D01*
X155955591Y-112020779D01*
X156021725Y-112043316D01*
X156060765Y-112088370D01*
X156108140Y-112181349D01*
X156228417Y-112346894D01*
X156228417Y-112346895D01*
X156373104Y-112491582D01*
X156538650Y-112611859D01*
X156720968Y-112704754D01*
X156915578Y-112767988D01*
X156970000Y-112776607D01*
X156970000Y-111933012D01*
X157027007Y-111965925D01*
X157154174Y-112000000D01*
X157285826Y-112000000D01*
X157412993Y-111965925D01*
X157470000Y-111933012D01*
X157470000Y-112776606D01*
X157524421Y-112767988D01*
X157719033Y-112704754D01*
X157755704Y-112686069D01*
X157824373Y-112673172D01*
X157889113Y-112699447D01*
X157929371Y-112756553D01*
X157936000Y-112796553D01*
X157936000Y-124380559D01*
X157916315Y-124447598D01*
X157899681Y-124468240D01*
X157878213Y-124489707D01*
X157878210Y-124489711D01*
X157790609Y-124620814D01*
X157790602Y-124620827D01*
X157730264Y-124766498D01*
X157730261Y-124766510D01*
X157699500Y-124921153D01*
X157699500Y-125078846D01*
X157730261Y-125233489D01*
X157730264Y-125233501D01*
X157790602Y-125379172D01*
X157790609Y-125379185D01*
X157878210Y-125510288D01*
X157878213Y-125510292D01*
X157989707Y-125621786D01*
X157989711Y-125621789D01*
X158120814Y-125709390D01*
X158120827Y-125709397D01*
X158258683Y-125766498D01*
X158266503Y-125769737D01*
X158421153Y-125800499D01*
X158421156Y-125800500D01*
X158421158Y-125800500D01*
X158578844Y-125800500D01*
X158578845Y-125800499D01*
X158733497Y-125769737D01*
X158879179Y-125709394D01*
X159010289Y-125621789D01*
X159121789Y-125510289D01*
X159209394Y-125379179D01*
X159269737Y-125233497D01*
X159300500Y-125078842D01*
X159300500Y-124921158D01*
X159300500Y-124921155D01*
X159300499Y-124921153D01*
X159269738Y-124766510D01*
X159269737Y-124766503D01*
X159269735Y-124766498D01*
X159209397Y-124620827D01*
X159209390Y-124620814D01*
X159121789Y-124489711D01*
X159121786Y-124489707D01*
X159100319Y-124468240D01*
X159066834Y-124406917D01*
X159064000Y-124380559D01*
X159064000Y-113044977D01*
X159072644Y-113015536D01*
X159079168Y-112985550D01*
X159082922Y-112980534D01*
X159083685Y-112977938D01*
X159100315Y-112957300D01*
X159276198Y-112781416D01*
X159337519Y-112747933D01*
X159402194Y-112751167D01*
X159455466Y-112768477D01*
X159657648Y-112800500D01*
X159657649Y-112800500D01*
X159862351Y-112800500D01*
X159862352Y-112800500D01*
X160064534Y-112768477D01*
X160259219Y-112705220D01*
X160441610Y-112612287D01*
X160575119Y-112515288D01*
X160607213Y-112491971D01*
X160607215Y-112491968D01*
X160607219Y-112491966D01*
X160751966Y-112347219D01*
X160751968Y-112347215D01*
X160751971Y-112347213D01*
X160872284Y-112181614D01*
X160872285Y-112181613D01*
X160872287Y-112181610D01*
X160919516Y-112088917D01*
X160967489Y-112038123D01*
X161035310Y-112021328D01*
X161101445Y-112043865D01*
X161140485Y-112088919D01*
X161187715Y-112181614D01*
X161308028Y-112347213D01*
X161452786Y-112491971D01*
X161605665Y-112603042D01*
X161618390Y-112612287D01*
X161800781Y-112705220D01*
X161850318Y-112721315D01*
X161907992Y-112760751D01*
X161935192Y-112825109D01*
X161936000Y-112839246D01*
X161936000Y-116588000D01*
X161916315Y-116655039D01*
X161863511Y-116700794D01*
X161812000Y-116712000D01*
X160664629Y-116712000D01*
X160664623Y-116712001D01*
X160605016Y-116718408D01*
X160470171Y-116768702D01*
X160470164Y-116768706D01*
X160354955Y-116854952D01*
X160354952Y-116854955D01*
X160268706Y-116970164D01*
X160268702Y-116970171D01*
X160218408Y-117105017D01*
X160212001Y-117164616D01*
X160212000Y-117164635D01*
X160212001Y-118835363D01*
X160212001Y-118835376D01*
X160218408Y-118894983D01*
X160268702Y-119029828D01*
X160268706Y-119029835D01*
X160354952Y-119145044D01*
X160354955Y-119145047D01*
X160470164Y-119231293D01*
X160470171Y-119231297D01*
X160507029Y-119245044D01*
X160605017Y-119281591D01*
X160664627Y-119288000D01*
X160812000Y-119287999D01*
X160879039Y-119307683D01*
X160924794Y-119360487D01*
X160936000Y-119411999D01*
X160936000Y-129094783D01*
X160916315Y-129161822D01*
X160863511Y-129207577D01*
X160836192Y-129216400D01*
X160766508Y-129230261D01*
X160766498Y-129230264D01*
X160620827Y-129290602D01*
X160620814Y-129290609D01*
X160489711Y-129378210D01*
X160489707Y-129378213D01*
X160378213Y-129489707D01*
X160378210Y-129489711D01*
X160290609Y-129620814D01*
X160290606Y-129620820D01*
X160267737Y-129676031D01*
X160223895Y-129730434D01*
X160157601Y-129752498D01*
X160133778Y-129751050D01*
X160098736Y-129745500D01*
X160098731Y-129745500D01*
X159901269Y-129745500D01*
X159901264Y-129745500D01*
X159706236Y-129776389D01*
X159518441Y-129837408D01*
X159342495Y-129927058D01*
X159182753Y-130043115D01*
X159043115Y-130182753D01*
X158927058Y-130342495D01*
X158837408Y-130518441D01*
X158776389Y-130706236D01*
X158745500Y-130901263D01*
X158745500Y-131098736D01*
X158776389Y-131293763D01*
X158835619Y-131476052D01*
X158837409Y-131481561D01*
X158927056Y-131657501D01*
X158927058Y-131657504D01*
X159043115Y-131817246D01*
X159182753Y-131956884D01*
X159324683Y-132060000D01*
X159342499Y-132072944D01*
X159518439Y-132162591D01*
X159625417Y-132197350D01*
X159706236Y-132223610D01*
X159901264Y-132254500D01*
X159901269Y-132254500D01*
X160098736Y-132254500D01*
X160293763Y-132223610D01*
X160481561Y-132162591D01*
X160657501Y-132072944D01*
X160763288Y-131996086D01*
X160817246Y-131956884D01*
X160817248Y-131956881D01*
X160817252Y-131956879D01*
X160956879Y-131817252D01*
X160956881Y-131817248D01*
X160956884Y-131817246D01*
X161072941Y-131657505D01*
X161072942Y-131657504D01*
X161072944Y-131657501D01*
X161139516Y-131526846D01*
X161187490Y-131476052D01*
X161255311Y-131459257D01*
X161321446Y-131481794D01*
X161360482Y-131526845D01*
X161424166Y-131651830D01*
X161427058Y-131657505D01*
X161543115Y-131817246D01*
X161682753Y-131956884D01*
X161824683Y-132060000D01*
X161842499Y-132072944D01*
X162018439Y-132162591D01*
X162125417Y-132197350D01*
X162206236Y-132223610D01*
X162401264Y-132254500D01*
X162401269Y-132254500D01*
X162598736Y-132254500D01*
X162793763Y-132223610D01*
X162981561Y-132162591D01*
X163157501Y-132072944D01*
X163263288Y-131996086D01*
X163317246Y-131956884D01*
X163317248Y-131956881D01*
X163317252Y-131956879D01*
X163456879Y-131817252D01*
X163468074Y-131801844D01*
X163521681Y-131728059D01*
X163577011Y-131685392D01*
X163646624Y-131679413D01*
X163708419Y-131712018D01*
X163742777Y-131772856D01*
X163745722Y-131798526D01*
X163745823Y-131798521D01*
X163745911Y-131800169D01*
X163746000Y-131800943D01*
X163746000Y-131801844D01*
X163752401Y-131861372D01*
X163752403Y-131861379D01*
X163802645Y-131996086D01*
X163802649Y-131996093D01*
X163888809Y-132111187D01*
X163888812Y-132111190D01*
X164003906Y-132197350D01*
X164003913Y-132197354D01*
X164138620Y-132247596D01*
X164138627Y-132247598D01*
X164198155Y-132253999D01*
X164198172Y-132254000D01*
X164750000Y-132254000D01*
X164750000Y-131433012D01*
X164807007Y-131465925D01*
X164934174Y-131500000D01*
X165065826Y-131500000D01*
X165192993Y-131465925D01*
X165250000Y-131433012D01*
X165250000Y-132254000D01*
X165801828Y-132254000D01*
X165801844Y-132253999D01*
X165861372Y-132247598D01*
X165861379Y-132247596D01*
X165996086Y-132197354D01*
X165996093Y-132197350D01*
X166111187Y-132111190D01*
X166111190Y-132111187D01*
X166197350Y-131996093D01*
X166197354Y-131996086D01*
X166247596Y-131861379D01*
X166247598Y-131861372D01*
X166253999Y-131801844D01*
X166254000Y-131801827D01*
X166254000Y-131250000D01*
X165433012Y-131250000D01*
X165465925Y-131192993D01*
X165500000Y-131065826D01*
X165500000Y-130934174D01*
X165465925Y-130807007D01*
X165433012Y-130750000D01*
X166254000Y-130750000D01*
X166254000Y-130198172D01*
X166253999Y-130198155D01*
X166247598Y-130138627D01*
X166247596Y-130138620D01*
X166197354Y-130003913D01*
X166197350Y-130003906D01*
X166111190Y-129888812D01*
X166111187Y-129888809D01*
X165996093Y-129802649D01*
X165996086Y-129802645D01*
X165861379Y-129752403D01*
X165861372Y-129752401D01*
X165801844Y-129746000D01*
X165250000Y-129746000D01*
X165250000Y-130566988D01*
X165192993Y-130534075D01*
X165065826Y-130500000D01*
X164934174Y-130500000D01*
X164807007Y-130534075D01*
X164750000Y-130566988D01*
X164750000Y-129746000D01*
X164198155Y-129746000D01*
X164138627Y-129752401D01*
X164138620Y-129752403D01*
X164003913Y-129802645D01*
X164003906Y-129802649D01*
X163888812Y-129888809D01*
X163888809Y-129888812D01*
X163802649Y-130003906D01*
X163802645Y-130003913D01*
X163752403Y-130138620D01*
X163752401Y-130138627D01*
X163746000Y-130198155D01*
X163746000Y-130199056D01*
X163745942Y-130199252D01*
X163745823Y-130201479D01*
X163745644Y-130201469D01*
X163745644Y-130201475D01*
X163745540Y-130201463D01*
X163745296Y-130201450D01*
X163726315Y-130266095D01*
X163673511Y-130311850D01*
X163604353Y-130321794D01*
X163540797Y-130292769D01*
X163521682Y-130271941D01*
X163456884Y-130182754D01*
X163456880Y-130182749D01*
X163317246Y-130043115D01*
X163157502Y-129927056D01*
X163131704Y-129913911D01*
X163080908Y-129865936D01*
X163064000Y-129803427D01*
X163064000Y-119155376D01*
X163083685Y-119088337D01*
X163136489Y-119042582D01*
X163205647Y-119032638D01*
X163260884Y-119055057D01*
X163324941Y-119101597D01*
X163383796Y-119131585D01*
X163505579Y-119193637D01*
X163505582Y-119193638D01*
X163601986Y-119224961D01*
X163698393Y-119256285D01*
X163898632Y-119288000D01*
X163898633Y-119288000D01*
X164101367Y-119288000D01*
X164101368Y-119288000D01*
X164301607Y-119256285D01*
X164494420Y-119193637D01*
X164675059Y-119101597D01*
X164839076Y-118982432D01*
X164864318Y-118957190D01*
X164925641Y-118923705D01*
X164995333Y-118928689D01*
X165051266Y-118970561D01*
X165075683Y-119036025D01*
X165075999Y-119044871D01*
X165075999Y-125575023D01*
X165056314Y-125642062D01*
X165039680Y-125662704D01*
X164539203Y-126163181D01*
X164477880Y-126196666D01*
X164451522Y-126199500D01*
X164421155Y-126199500D01*
X164266510Y-126230261D01*
X164266498Y-126230264D01*
X164120827Y-126290602D01*
X164120814Y-126290609D01*
X163989711Y-126378210D01*
X163989707Y-126378213D01*
X163878213Y-126489707D01*
X163878210Y-126489711D01*
X163790609Y-126620814D01*
X163790602Y-126620827D01*
X163730264Y-126766498D01*
X163730261Y-126766510D01*
X163699500Y-126921153D01*
X163699500Y-127078846D01*
X163730261Y-127233489D01*
X163730264Y-127233501D01*
X163790602Y-127379172D01*
X163790609Y-127379185D01*
X163878210Y-127510288D01*
X163878213Y-127510292D01*
X163989707Y-127621786D01*
X163989711Y-127621789D01*
X164120814Y-127709390D01*
X164120827Y-127709397D01*
X164266498Y-127769735D01*
X164266503Y-127769737D01*
X164421153Y-127800499D01*
X164421156Y-127800500D01*
X164421158Y-127800500D01*
X164578844Y-127800500D01*
X164578845Y-127800499D01*
X164733497Y-127769737D01*
X164879179Y-127709394D01*
X165010289Y-127621789D01*
X165121789Y-127510289D01*
X165209394Y-127379179D01*
X165269737Y-127233497D01*
X165300500Y-127078842D01*
X165300500Y-127048477D01*
X165320185Y-126981438D01*
X165336815Y-126960800D01*
X165976093Y-126321521D01*
X165976098Y-126321518D01*
X165986301Y-126311314D01*
X165986303Y-126311314D01*
X166091312Y-126206305D01*
X166165564Y-126077697D01*
X166193332Y-125974065D01*
X166203999Y-125934254D01*
X166203999Y-125785748D01*
X166203999Y-112462546D01*
X166223684Y-112395507D01*
X166276488Y-112349752D01*
X166345646Y-112339808D01*
X166409202Y-112368833D01*
X166415680Y-112374865D01*
X166532786Y-112491971D01*
X166685665Y-112603042D01*
X166698390Y-112612287D01*
X166787212Y-112657544D01*
X166880776Y-112705218D01*
X166880778Y-112705218D01*
X166880781Y-112705220D01*
X166985137Y-112739127D01*
X167075465Y-112768477D01*
X167157171Y-112781418D01*
X167277648Y-112800500D01*
X167277649Y-112800500D01*
X167363500Y-112800500D01*
X167430539Y-112820185D01*
X167476294Y-112872989D01*
X167487500Y-112924500D01*
X167487500Y-125084539D01*
X167467815Y-125151578D01*
X167415011Y-125197333D01*
X167387692Y-125206156D01*
X167266508Y-125230261D01*
X167266498Y-125230264D01*
X167120827Y-125290602D01*
X167120814Y-125290609D01*
X166989711Y-125378210D01*
X166989707Y-125378213D01*
X166878213Y-125489707D01*
X166878210Y-125489711D01*
X166790609Y-125620814D01*
X166790602Y-125620827D01*
X166730264Y-125766498D01*
X166730261Y-125766510D01*
X166699500Y-125921153D01*
X166699500Y-126078846D01*
X166730261Y-126233489D01*
X166730264Y-126233501D01*
X166790602Y-126379172D01*
X166790609Y-126379185D01*
X166878210Y-126510288D01*
X166878213Y-126510292D01*
X166989707Y-126621786D01*
X166989711Y-126621789D01*
X167120814Y-126709390D01*
X167120827Y-126709397D01*
X167217419Y-126749406D01*
X167266503Y-126769737D01*
X167421153Y-126800499D01*
X167421156Y-126800500D01*
X167421158Y-126800500D01*
X167578844Y-126800500D01*
X167578845Y-126800499D01*
X167733497Y-126769737D01*
X167764549Y-126756874D01*
X167834015Y-126749406D01*
X167896495Y-126780680D01*
X167932148Y-126840769D01*
X167936000Y-126871436D01*
X167936000Y-130669168D01*
X167962946Y-130769735D01*
X167974434Y-130812608D01*
X167974436Y-130812613D01*
X168048684Y-130941214D01*
X168048689Y-130941220D01*
X168160761Y-131053292D01*
X168160767Y-131053297D01*
X168399681Y-131292211D01*
X168433166Y-131353534D01*
X168436000Y-131379892D01*
X168436000Y-140380559D01*
X168416315Y-140447598D01*
X168399681Y-140468240D01*
X168378213Y-140489707D01*
X168378210Y-140489711D01*
X168290609Y-140620814D01*
X168290602Y-140620827D01*
X168230264Y-140766498D01*
X168230261Y-140766510D01*
X168199500Y-140921153D01*
X168199500Y-141078846D01*
X168230261Y-141233489D01*
X168230264Y-141233501D01*
X168290602Y-141379172D01*
X168290609Y-141379185D01*
X168378210Y-141510288D01*
X168378213Y-141510292D01*
X168489707Y-141621786D01*
X168489711Y-141621789D01*
X168620814Y-141709390D01*
X168620827Y-141709397D01*
X168766498Y-141769735D01*
X168766503Y-141769737D01*
X168921153Y-141800499D01*
X168921156Y-141800500D01*
X168921158Y-141800500D01*
X169078844Y-141800500D01*
X169078845Y-141800499D01*
X169233497Y-141769737D01*
X169379179Y-141709394D01*
X169510289Y-141621789D01*
X169621789Y-141510289D01*
X169709394Y-141379179D01*
X169769737Y-141233497D01*
X169800500Y-141078842D01*
X169800500Y-140921158D01*
X169800500Y-140921155D01*
X169800499Y-140921153D01*
X169769738Y-140766510D01*
X169769737Y-140766503D01*
X169769735Y-140766498D01*
X169709397Y-140620827D01*
X169709390Y-140620814D01*
X169621789Y-140489711D01*
X169621786Y-140489707D01*
X169600319Y-140468240D01*
X169566834Y-140406917D01*
X169564000Y-140380559D01*
X169564000Y-131179169D01*
X169564001Y-131179156D01*
X169564001Y-131020664D01*
X169564001Y-131020662D01*
X169531162Y-130898106D01*
X169531595Y-130879905D01*
X169529099Y-130876730D01*
X169525585Y-130874291D01*
X169514751Y-130858487D01*
X169500132Y-130833167D01*
X169500131Y-130833165D01*
X169488265Y-130812613D01*
X169451313Y-130748610D01*
X169346304Y-130643601D01*
X169346303Y-130643600D01*
X169341973Y-130639270D01*
X169341962Y-130639260D01*
X169100319Y-130397617D01*
X169066834Y-130336294D01*
X169064000Y-130309936D01*
X169064000Y-119128938D01*
X169083685Y-119061899D01*
X169136489Y-119016144D01*
X169205647Y-119006200D01*
X169269203Y-119035225D01*
X169287263Y-119054623D01*
X169354954Y-119145046D01*
X169401143Y-119179623D01*
X169470164Y-119231293D01*
X169470171Y-119231297D01*
X169507029Y-119245044D01*
X169605017Y-119281591D01*
X169664627Y-119288000D01*
X169812000Y-119287999D01*
X169879039Y-119307683D01*
X169924794Y-119360487D01*
X169936000Y-119411999D01*
X169936000Y-129880559D01*
X169916315Y-129947598D01*
X169899681Y-129968240D01*
X169878213Y-129989707D01*
X169878210Y-129989711D01*
X169790609Y-130120814D01*
X169790602Y-130120827D01*
X169730264Y-130266498D01*
X169730261Y-130266510D01*
X169699500Y-130421153D01*
X169699500Y-130578846D01*
X169728553Y-130724901D01*
X169730263Y-130733497D01*
X169736523Y-130748611D01*
X169736698Y-130749032D01*
X169739598Y-130776011D01*
X169742653Y-130788601D01*
X169756818Y-130801478D01*
X169765498Y-130818564D01*
X169790604Y-130879175D01*
X169790609Y-130879185D01*
X169878210Y-131010288D01*
X169878213Y-131010292D01*
X169989707Y-131121786D01*
X169989711Y-131121789D01*
X170120814Y-131209390D01*
X170120827Y-131209397D01*
X170266498Y-131269735D01*
X170266503Y-131269737D01*
X170379487Y-131292211D01*
X170421153Y-131300499D01*
X170421156Y-131300500D01*
X170421158Y-131300500D01*
X170578844Y-131300500D01*
X170578845Y-131300499D01*
X170733497Y-131269737D01*
X170816766Y-131235245D01*
X170886235Y-131227777D01*
X170948714Y-131259052D01*
X170982149Y-131311489D01*
X171017005Y-131418763D01*
X171037409Y-131481561D01*
X171127056Y-131657501D01*
X171127058Y-131657504D01*
X171243115Y-131817246D01*
X171382753Y-131956884D01*
X171524683Y-132060000D01*
X171542499Y-132072944D01*
X171718439Y-132162591D01*
X171825417Y-132197350D01*
X171906236Y-132223610D01*
X172101264Y-132254500D01*
X172101269Y-132254500D01*
X172298736Y-132254500D01*
X172493763Y-132223610D01*
X172681561Y-132162591D01*
X172857501Y-132072944D01*
X172963288Y-131996086D01*
X173017246Y-131956884D01*
X173017248Y-131956881D01*
X173017252Y-131956879D01*
X173156879Y-131817252D01*
X173156881Y-131817248D01*
X173156884Y-131817246D01*
X173272941Y-131657505D01*
X173272942Y-131657504D01*
X173272944Y-131657501D01*
X173339516Y-131526846D01*
X173387490Y-131476052D01*
X173455311Y-131459257D01*
X173521446Y-131481794D01*
X173560482Y-131526845D01*
X173624166Y-131651830D01*
X173627058Y-131657505D01*
X173743115Y-131817246D01*
X173882753Y-131956884D01*
X174024683Y-132060000D01*
X174042499Y-132072944D01*
X174218439Y-132162591D01*
X174325417Y-132197350D01*
X174406236Y-132223610D01*
X174601264Y-132254500D01*
X174601269Y-132254500D01*
X174798736Y-132254500D01*
X174993763Y-132223610D01*
X175181561Y-132162591D01*
X175357501Y-132072944D01*
X175463288Y-131996086D01*
X175517246Y-131956884D01*
X175517248Y-131956881D01*
X175517252Y-131956879D01*
X175656879Y-131817252D01*
X175668074Y-131801844D01*
X175721681Y-131728059D01*
X175777011Y-131685392D01*
X175846624Y-131679413D01*
X175908419Y-131712018D01*
X175942777Y-131772856D01*
X175945722Y-131798526D01*
X175945823Y-131798521D01*
X175945911Y-131800169D01*
X175946000Y-131800943D01*
X175946000Y-131801844D01*
X175952401Y-131861372D01*
X175952403Y-131861379D01*
X176002645Y-131996086D01*
X176002649Y-131996093D01*
X176088809Y-132111187D01*
X176088812Y-132111190D01*
X176203906Y-132197350D01*
X176203913Y-132197354D01*
X176338620Y-132247596D01*
X176338627Y-132247598D01*
X176398155Y-132253999D01*
X176398172Y-132254000D01*
X176950000Y-132254000D01*
X176950000Y-131433012D01*
X177007007Y-131465925D01*
X177134174Y-131500000D01*
X177265826Y-131500000D01*
X177392993Y-131465925D01*
X177450000Y-131433012D01*
X177450000Y-132254000D01*
X178001828Y-132254000D01*
X178001844Y-132253999D01*
X178061372Y-132247598D01*
X178061379Y-132247596D01*
X178196086Y-132197354D01*
X178196093Y-132197350D01*
X178311187Y-132111190D01*
X178311190Y-132111187D01*
X178397350Y-131996093D01*
X178397354Y-131996086D01*
X178447596Y-131861379D01*
X178447598Y-131861372D01*
X178453999Y-131801844D01*
X178454000Y-131801827D01*
X178454000Y-131250000D01*
X177633012Y-131250000D01*
X177665925Y-131192993D01*
X177700000Y-131065826D01*
X177700000Y-130934174D01*
X177665925Y-130807007D01*
X177633012Y-130750000D01*
X178454000Y-130750000D01*
X178454000Y-130198172D01*
X178453999Y-130198155D01*
X178447598Y-130138627D01*
X178447596Y-130138620D01*
X178397354Y-130003913D01*
X178397350Y-130003906D01*
X178311190Y-129888812D01*
X178311187Y-129888809D01*
X178196093Y-129802649D01*
X178196086Y-129802645D01*
X178061379Y-129752403D01*
X178061372Y-129752401D01*
X178001844Y-129746000D01*
X177450000Y-129746000D01*
X177450000Y-130566988D01*
X177392993Y-130534075D01*
X177265826Y-130500000D01*
X177134174Y-130500000D01*
X177007007Y-130534075D01*
X176950000Y-130566988D01*
X176950000Y-129746000D01*
X176398155Y-129746000D01*
X176338627Y-129752401D01*
X176338620Y-129752403D01*
X176203913Y-129802645D01*
X176203906Y-129802649D01*
X176088812Y-129888809D01*
X176088809Y-129888812D01*
X176002649Y-130003906D01*
X176002645Y-130003913D01*
X175952403Y-130138620D01*
X175952401Y-130138627D01*
X175946000Y-130198155D01*
X175946000Y-130199056D01*
X175945942Y-130199252D01*
X175945823Y-130201479D01*
X175945644Y-130201469D01*
X175945644Y-130201475D01*
X175945540Y-130201463D01*
X175945296Y-130201450D01*
X175926315Y-130266095D01*
X175873511Y-130311850D01*
X175804353Y-130321794D01*
X175740797Y-130292769D01*
X175721682Y-130271941D01*
X175656884Y-130182754D01*
X175656880Y-130182749D01*
X175517246Y-130043115D01*
X175357504Y-129927058D01*
X175357503Y-129927057D01*
X175357501Y-129927056D01*
X175181561Y-129837409D01*
X175181558Y-129837408D01*
X174993763Y-129776389D01*
X174798736Y-129745500D01*
X174798731Y-129745500D01*
X174601269Y-129745500D01*
X174601264Y-129745500D01*
X174406236Y-129776389D01*
X174218441Y-129837408D01*
X174042495Y-129927058D01*
X173882753Y-130043115D01*
X173743115Y-130182753D01*
X173627058Y-130342495D01*
X173627056Y-130342499D01*
X173573915Y-130446794D01*
X173560485Y-130473151D01*
X173512510Y-130523947D01*
X173444689Y-130540742D01*
X173378554Y-130518204D01*
X173339515Y-130473151D01*
X173336633Y-130467495D01*
X173272944Y-130342499D01*
X173259687Y-130324252D01*
X173156884Y-130182753D01*
X173017246Y-130043115D01*
X172857504Y-129927058D01*
X172857503Y-129927057D01*
X172857501Y-129927056D01*
X172681561Y-129837409D01*
X172681558Y-129837408D01*
X172493763Y-129776389D01*
X172298736Y-129745500D01*
X172298731Y-129745500D01*
X172101269Y-129745500D01*
X172101264Y-129745500D01*
X171906236Y-129776389D01*
X171718441Y-129837408D01*
X171542495Y-129927058D01*
X171382754Y-130043114D01*
X171354546Y-130071323D01*
X171339457Y-130079561D01*
X171327431Y-130091843D01*
X171309430Y-130095957D01*
X171293222Y-130104807D01*
X171276075Y-130103580D01*
X171259318Y-130107410D01*
X171241949Y-130101138D01*
X171223531Y-130099821D01*
X171209473Y-130089412D01*
X171193601Y-130083681D01*
X171173767Y-130062974D01*
X171168384Y-130058988D01*
X171165971Y-130055835D01*
X171121789Y-129989711D01*
X171094510Y-129962432D01*
X171089518Y-129955907D01*
X171079798Y-129930659D01*
X171066834Y-129906917D01*
X171065351Y-129893133D01*
X171064416Y-129890702D01*
X171064859Y-129888554D01*
X171064000Y-129880559D01*
X171064000Y-119411999D01*
X171083685Y-119344960D01*
X171136489Y-119299205D01*
X171188000Y-119287999D01*
X171335371Y-119287999D01*
X171335372Y-119287999D01*
X171394983Y-119281591D01*
X171529831Y-119231296D01*
X171645046Y-119145046D01*
X171731296Y-119029831D01*
X171781591Y-118894983D01*
X171782836Y-118883398D01*
X171809570Y-118818850D01*
X171866960Y-118778999D01*
X171936785Y-118776501D01*
X171996876Y-118812151D01*
X172006442Y-118823764D01*
X172017564Y-118839072D01*
X172160925Y-118982433D01*
X172160930Y-118982437D01*
X172246864Y-119044871D01*
X172324941Y-119101597D01*
X172443026Y-119161764D01*
X172505579Y-119193637D01*
X172505582Y-119193638D01*
X172601986Y-119224961D01*
X172698393Y-119256285D01*
X172898632Y-119288000D01*
X172898633Y-119288000D01*
X173101367Y-119288000D01*
X173101368Y-119288000D01*
X173301607Y-119256285D01*
X173494420Y-119193637D01*
X173675059Y-119101597D01*
X173839076Y-118982432D01*
X173982432Y-118839076D01*
X174101597Y-118675059D01*
X174193637Y-118494420D01*
X174256285Y-118301607D01*
X174288000Y-118101368D01*
X174288000Y-117898632D01*
X174256285Y-117698393D01*
X174193637Y-117505580D01*
X174193637Y-117505579D01*
X174152547Y-117424937D01*
X174101597Y-117324941D01*
X174075999Y-117289708D01*
X173982437Y-117160930D01*
X173982433Y-117160925D01*
X173839074Y-117017566D01*
X173839069Y-117017562D01*
X173675062Y-116898405D01*
X173675061Y-116898404D01*
X173675059Y-116898403D01*
X173616767Y-116868702D01*
X173494420Y-116806362D01*
X173494417Y-116806361D01*
X173301608Y-116743715D01*
X173201487Y-116727857D01*
X173101368Y-116712000D01*
X172898632Y-116712000D01*
X172831885Y-116722571D01*
X172698391Y-116743715D01*
X172505582Y-116806361D01*
X172505579Y-116806362D01*
X172324937Y-116898405D01*
X172160930Y-117017562D01*
X172160925Y-117017566D01*
X172017566Y-117160925D01*
X172017560Y-117160932D01*
X172006443Y-117176234D01*
X171951113Y-117218900D01*
X171881499Y-117224878D01*
X171819705Y-117192271D01*
X171785348Y-117131432D01*
X171782836Y-117116599D01*
X171781591Y-117105016D01*
X171731297Y-116970171D01*
X171731293Y-116970164D01*
X171645047Y-116854955D01*
X171645044Y-116854952D01*
X171529835Y-116768706D01*
X171529828Y-116768702D01*
X171394982Y-116718408D01*
X171394983Y-116718408D01*
X171335383Y-116712001D01*
X171335381Y-116712000D01*
X171335373Y-116712000D01*
X171335364Y-116712000D01*
X169664629Y-116712000D01*
X169664623Y-116712001D01*
X169605016Y-116718408D01*
X169470171Y-116768702D01*
X169470164Y-116768706D01*
X169354955Y-116854952D01*
X169287266Y-116945373D01*
X169231332Y-116987243D01*
X169161641Y-116992227D01*
X169100318Y-116958741D01*
X169066833Y-116897418D01*
X169064000Y-116871061D01*
X169064000Y-114421153D01*
X177699500Y-114421153D01*
X177699500Y-114578846D01*
X177730261Y-114733489D01*
X177730264Y-114733501D01*
X177790602Y-114879172D01*
X177790609Y-114879185D01*
X177878209Y-115010287D01*
X177878210Y-115010288D01*
X177878211Y-115010289D01*
X177899681Y-115031759D01*
X177933166Y-115093080D01*
X177936000Y-115119440D01*
X177936000Y-119880559D01*
X177916315Y-119947598D01*
X177899681Y-119968240D01*
X177878213Y-119989707D01*
X177878210Y-119989711D01*
X177790609Y-120120814D01*
X177790602Y-120120827D01*
X177730264Y-120266498D01*
X177730261Y-120266510D01*
X177699500Y-120421153D01*
X177699500Y-120578846D01*
X177730261Y-120733489D01*
X177730264Y-120733501D01*
X177790602Y-120879172D01*
X177790609Y-120879185D01*
X177878210Y-121010288D01*
X177878213Y-121010292D01*
X177989707Y-121121786D01*
X177989711Y-121121789D01*
X178120814Y-121209390D01*
X178120827Y-121209397D01*
X178266498Y-121269735D01*
X178266503Y-121269737D01*
X178421153Y-121300499D01*
X178421156Y-121300500D01*
X178421158Y-121300500D01*
X178578844Y-121300500D01*
X178578845Y-121300499D01*
X178733497Y-121269737D01*
X178879179Y-121209394D01*
X179010289Y-121121789D01*
X179121789Y-121010289D01*
X179209394Y-120879179D01*
X179211471Y-120874166D01*
X179223067Y-120846166D01*
X179269737Y-120733497D01*
X179300500Y-120578842D01*
X179300500Y-120421158D01*
X179300500Y-120421155D01*
X179300499Y-120421153D01*
X179269738Y-120266510D01*
X179269737Y-120266503D01*
X179232385Y-120176326D01*
X179209397Y-120120827D01*
X179209390Y-120120814D01*
X179121789Y-119989711D01*
X179121786Y-119989707D01*
X179100319Y-119968240D01*
X179066834Y-119906917D01*
X179064000Y-119880559D01*
X179064000Y-115119440D01*
X179083685Y-115052401D01*
X179100315Y-115031762D01*
X179121789Y-115010289D01*
X179209394Y-114879179D01*
X179269737Y-114733497D01*
X179300500Y-114578842D01*
X179300500Y-114421158D01*
X179300500Y-114421155D01*
X179300499Y-114421153D01*
X179291142Y-114374114D01*
X179269737Y-114266503D01*
X179256062Y-114233489D01*
X179209397Y-114120827D01*
X179209390Y-114120814D01*
X179121789Y-113989711D01*
X179121786Y-113989707D01*
X179010292Y-113878213D01*
X179010288Y-113878210D01*
X178879185Y-113790609D01*
X178879172Y-113790602D01*
X178733501Y-113730264D01*
X178733489Y-113730261D01*
X178578845Y-113699500D01*
X178578842Y-113699500D01*
X178421158Y-113699500D01*
X178421155Y-113699500D01*
X178266510Y-113730261D01*
X178266498Y-113730264D01*
X178120827Y-113790602D01*
X178120814Y-113790609D01*
X177989711Y-113878210D01*
X177989707Y-113878213D01*
X177878213Y-113989707D01*
X177878210Y-113989711D01*
X177790609Y-114120814D01*
X177790602Y-114120827D01*
X177730264Y-114266498D01*
X177730261Y-114266510D01*
X177699500Y-114421153D01*
X169064000Y-114421153D01*
X169064000Y-112725780D01*
X169083685Y-112658741D01*
X169136489Y-112612986D01*
X169205647Y-112603042D01*
X169244291Y-112615293D01*
X169327212Y-112657544D01*
X169420776Y-112705218D01*
X169420778Y-112705218D01*
X169420781Y-112705220D01*
X169525137Y-112739127D01*
X169615465Y-112768477D01*
X169697171Y-112781418D01*
X169817648Y-112800500D01*
X169817649Y-112800500D01*
X170022351Y-112800500D01*
X170022352Y-112800500D01*
X170224534Y-112768477D01*
X170419219Y-112705220D01*
X170601610Y-112612287D01*
X170735119Y-112515288D01*
X170767213Y-112491971D01*
X170767215Y-112491968D01*
X170767219Y-112491966D01*
X170911966Y-112347219D01*
X170911968Y-112347215D01*
X170911971Y-112347213D01*
X171032284Y-112181614D01*
X171032285Y-112181613D01*
X171032287Y-112181610D01*
X171079516Y-112088917D01*
X171127489Y-112038123D01*
X171195310Y-112021328D01*
X171261445Y-112043865D01*
X171300485Y-112088919D01*
X171347715Y-112181614D01*
X171468028Y-112347213D01*
X171612786Y-112491971D01*
X171765665Y-112603042D01*
X171778390Y-112612287D01*
X171867212Y-112657544D01*
X171960776Y-112705218D01*
X171960778Y-112705218D01*
X171960781Y-112705220D01*
X172065137Y-112739127D01*
X172155465Y-112768477D01*
X172237171Y-112781418D01*
X172357648Y-112800500D01*
X172357649Y-112800500D01*
X172562351Y-112800500D01*
X172562352Y-112800500D01*
X172764534Y-112768477D01*
X172959219Y-112705220D01*
X173141610Y-112612287D01*
X173275119Y-112515288D01*
X173307213Y-112491971D01*
X173307215Y-112491968D01*
X173307219Y-112491966D01*
X173451966Y-112347219D01*
X173451968Y-112347215D01*
X173451971Y-112347213D01*
X173572284Y-112181614D01*
X173572285Y-112181613D01*
X173572287Y-112181610D01*
X173619516Y-112088917D01*
X173667489Y-112038123D01*
X173735310Y-112021328D01*
X173801445Y-112043865D01*
X173840485Y-112088919D01*
X173887715Y-112181614D01*
X174008028Y-112347213D01*
X174152786Y-112491971D01*
X174305665Y-112603042D01*
X174318390Y-112612287D01*
X174407212Y-112657544D01*
X174500776Y-112705218D01*
X174500778Y-112705218D01*
X174500781Y-112705220D01*
X174605137Y-112739127D01*
X174695465Y-112768477D01*
X174777171Y-112781418D01*
X174897648Y-112800500D01*
X174897649Y-112800500D01*
X175102351Y-112800500D01*
X175102352Y-112800500D01*
X175304534Y-112768477D01*
X175499219Y-112705220D01*
X175681610Y-112612287D01*
X175815119Y-112515288D01*
X175847213Y-112491971D01*
X175847215Y-112491968D01*
X175847219Y-112491966D01*
X175991966Y-112347219D01*
X175991968Y-112347215D01*
X175991971Y-112347213D01*
X176112284Y-112181614D01*
X176112285Y-112181613D01*
X176112287Y-112181610D01*
X176159516Y-112088917D01*
X176207489Y-112038123D01*
X176275310Y-112021328D01*
X176341445Y-112043865D01*
X176380485Y-112088919D01*
X176427715Y-112181614D01*
X176548028Y-112347213D01*
X176692786Y-112491971D01*
X176845665Y-112603042D01*
X176858390Y-112612287D01*
X176947212Y-112657544D01*
X177040776Y-112705218D01*
X177040778Y-112705218D01*
X177040781Y-112705220D01*
X177145137Y-112739127D01*
X177235465Y-112768477D01*
X177317171Y-112781418D01*
X177437648Y-112800500D01*
X177437649Y-112800500D01*
X177642351Y-112800500D01*
X177642352Y-112800500D01*
X177844534Y-112768477D01*
X178039219Y-112705220D01*
X178221610Y-112612287D01*
X178355119Y-112515288D01*
X178387213Y-112491971D01*
X178387215Y-112491968D01*
X178387219Y-112491966D01*
X178531966Y-112347219D01*
X178531968Y-112347215D01*
X178531971Y-112347213D01*
X178652284Y-112181614D01*
X178652285Y-112181613D01*
X178652287Y-112181610D01*
X178699516Y-112088917D01*
X178747489Y-112038123D01*
X178815310Y-112021328D01*
X178881445Y-112043865D01*
X178920485Y-112088919D01*
X178967715Y-112181614D01*
X179088028Y-112347213D01*
X179232786Y-112491971D01*
X179385665Y-112603042D01*
X179398390Y-112612287D01*
X179487212Y-112657544D01*
X179580776Y-112705218D01*
X179580778Y-112705218D01*
X179580781Y-112705220D01*
X179685137Y-112739127D01*
X179775465Y-112768477D01*
X179857171Y-112781418D01*
X179977648Y-112800500D01*
X179977649Y-112800500D01*
X180182351Y-112800500D01*
X180182352Y-112800500D01*
X180384534Y-112768477D01*
X180579219Y-112705220D01*
X180761610Y-112612287D01*
X180895119Y-112515288D01*
X180927213Y-112491971D01*
X180927215Y-112491968D01*
X180927219Y-112491966D01*
X181071966Y-112347219D01*
X181071968Y-112347215D01*
X181071971Y-112347213D01*
X181192284Y-112181614D01*
X181192285Y-112181613D01*
X181192287Y-112181610D01*
X181239516Y-112088917D01*
X181287489Y-112038123D01*
X181355310Y-112021328D01*
X181421445Y-112043865D01*
X181460485Y-112088919D01*
X181507715Y-112181614D01*
X181628028Y-112347213D01*
X181772786Y-112491971D01*
X181925665Y-112603042D01*
X181938390Y-112612287D01*
X182027212Y-112657544D01*
X182120776Y-112705218D01*
X182120778Y-112705218D01*
X182120781Y-112705220D01*
X182225137Y-112739127D01*
X182315465Y-112768477D01*
X182397171Y-112781418D01*
X182517648Y-112800500D01*
X182517649Y-112800500D01*
X182722351Y-112800500D01*
X182722352Y-112800500D01*
X182924534Y-112768477D01*
X183119219Y-112705220D01*
X183119224Y-112705217D01*
X183119228Y-112705216D01*
X183264205Y-112631346D01*
X183332874Y-112618449D01*
X183397614Y-112644725D01*
X183437872Y-112701831D01*
X183444500Y-112741830D01*
X183444500Y-113565637D01*
X183424815Y-113632676D01*
X183372011Y-113678431D01*
X183302853Y-113688375D01*
X183239297Y-113659350D01*
X183211140Y-113624088D01*
X183209390Y-113620814D01*
X183121789Y-113489711D01*
X183121786Y-113489707D01*
X183010292Y-113378213D01*
X183010288Y-113378210D01*
X182879185Y-113290609D01*
X182879172Y-113290602D01*
X182733501Y-113230264D01*
X182733489Y-113230261D01*
X182578845Y-113199500D01*
X182578842Y-113199500D01*
X182421158Y-113199500D01*
X182421155Y-113199500D01*
X182266510Y-113230261D01*
X182266498Y-113230264D01*
X182120827Y-113290602D01*
X182120814Y-113290609D01*
X181989711Y-113378210D01*
X181989707Y-113378213D01*
X181878213Y-113489707D01*
X181878210Y-113489711D01*
X181790609Y-113620814D01*
X181790602Y-113620827D01*
X181730264Y-113766498D01*
X181730261Y-113766510D01*
X181699500Y-113921153D01*
X181699500Y-114078846D01*
X181730261Y-114233489D01*
X181730264Y-114233501D01*
X181790602Y-114379172D01*
X181790609Y-114379185D01*
X181878209Y-114510287D01*
X181878210Y-114510288D01*
X181878211Y-114510289D01*
X181899681Y-114531759D01*
X181933166Y-114593080D01*
X181936000Y-114619440D01*
X181936000Y-119880559D01*
X181916315Y-119947598D01*
X181899681Y-119968240D01*
X181878213Y-119989707D01*
X181878210Y-119989711D01*
X181790609Y-120120814D01*
X181790602Y-120120827D01*
X181730264Y-120266498D01*
X181730261Y-120266510D01*
X181699500Y-120421153D01*
X181699500Y-120578846D01*
X181730261Y-120733489D01*
X181730264Y-120733501D01*
X181790602Y-120879172D01*
X181790609Y-120879185D01*
X181878210Y-121010288D01*
X181878213Y-121010292D01*
X181989707Y-121121786D01*
X181989711Y-121121789D01*
X182120814Y-121209390D01*
X182120827Y-121209397D01*
X182266498Y-121269735D01*
X182266503Y-121269737D01*
X182421153Y-121300499D01*
X182421156Y-121300500D01*
X182421158Y-121300500D01*
X182578844Y-121300500D01*
X182578845Y-121300499D01*
X182733497Y-121269737D01*
X182879179Y-121209394D01*
X183010289Y-121121789D01*
X183121789Y-121010289D01*
X183209394Y-120879179D01*
X183209397Y-120879172D01*
X183211138Y-120875916D01*
X183212504Y-120874524D01*
X183212779Y-120874114D01*
X183212856Y-120874166D01*
X183260097Y-120826069D01*
X183328233Y-120810603D01*
X183393915Y-120834430D01*
X183436287Y-120889985D01*
X183444500Y-120934362D01*
X183444500Y-133082754D01*
X183475012Y-133196630D01*
X183482934Y-133226194D01*
X183482936Y-133226199D01*
X183557184Y-133354800D01*
X183557189Y-133354806D01*
X183669261Y-133466878D01*
X183669267Y-133466883D01*
X184163181Y-133960797D01*
X184196666Y-134022120D01*
X184199500Y-134048478D01*
X184199500Y-134078846D01*
X184230261Y-134233489D01*
X184230264Y-134233501D01*
X184290602Y-134379172D01*
X184290609Y-134379185D01*
X184324706Y-134430214D01*
X184345584Y-134496891D01*
X184327100Y-134564272D01*
X184275121Y-134610962D01*
X184245795Y-134620722D01*
X184080425Y-134653616D01*
X184080417Y-134653618D01*
X183889951Y-134732511D01*
X183889942Y-134732516D01*
X183718531Y-134847050D01*
X183718527Y-134847053D01*
X183572755Y-134992825D01*
X183572752Y-134992829D01*
X183458218Y-135164240D01*
X183458213Y-135164249D01*
X183379320Y-135354715D01*
X183379318Y-135354723D01*
X183339100Y-135556912D01*
X183339100Y-135763083D01*
X183379318Y-135965272D01*
X183379320Y-135965280D01*
X183458213Y-136155746D01*
X183458218Y-136155755D01*
X183572752Y-136327166D01*
X183572755Y-136327170D01*
X183718527Y-136472942D01*
X183718531Y-136472945D01*
X183889942Y-136587479D01*
X183889951Y-136587484D01*
X183933099Y-136605356D01*
X184080418Y-136666378D01*
X184282614Y-136706597D01*
X184282618Y-136706598D01*
X184282619Y-136706598D01*
X185098382Y-136706598D01*
X185098383Y-136706597D01*
X185300582Y-136666378D01*
X185491051Y-136587483D01*
X185662469Y-136472945D01*
X185808247Y-136327167D01*
X185922785Y-136155749D01*
X186001680Y-135965280D01*
X186041900Y-135763079D01*
X186041900Y-135556917D01*
X186041900Y-135556915D01*
X187139100Y-135556915D01*
X187139100Y-135763086D01*
X187179318Y-135965275D01*
X187179320Y-135965283D01*
X187258213Y-136155749D01*
X187258218Y-136155758D01*
X187372752Y-136327169D01*
X187372755Y-136327173D01*
X187518527Y-136472945D01*
X187518531Y-136472948D01*
X187689942Y-136587482D01*
X187689946Y-136587484D01*
X187689949Y-136587486D01*
X187880418Y-136666381D01*
X188082599Y-136706597D01*
X188082614Y-136706600D01*
X188082618Y-136706601D01*
X188082619Y-136706601D01*
X188898382Y-136706601D01*
X188898383Y-136706600D01*
X189100582Y-136666381D01*
X189291051Y-136587486D01*
X189462469Y-136472948D01*
X189608247Y-136327170D01*
X189722785Y-136155752D01*
X189801680Y-135965283D01*
X189841900Y-135763082D01*
X189841900Y-135556920D01*
X189841899Y-135556917D01*
X189841899Y-135556915D01*
X189801681Y-135354726D01*
X189801680Y-135354719D01*
X189722785Y-135164250D01*
X189722783Y-135164247D01*
X189722781Y-135164243D01*
X189608247Y-134992832D01*
X189608244Y-134992828D01*
X189462472Y-134847056D01*
X189462468Y-134847053D01*
X189291057Y-134732519D01*
X189291048Y-134732514D01*
X189100582Y-134653621D01*
X189100574Y-134653619D01*
X188898385Y-134613401D01*
X188898381Y-134613401D01*
X188082619Y-134613401D01*
X188082614Y-134613401D01*
X187880425Y-134653619D01*
X187880417Y-134653621D01*
X187689951Y-134732514D01*
X187689942Y-134732519D01*
X187518531Y-134847053D01*
X187518527Y-134847056D01*
X187372755Y-134992828D01*
X187372752Y-134992832D01*
X187258218Y-135164243D01*
X187258213Y-135164252D01*
X187179320Y-135354718D01*
X187179318Y-135354726D01*
X187139100Y-135556915D01*
X186041900Y-135556915D01*
X186001680Y-135354716D01*
X185922785Y-135164247D01*
X185922784Y-135164246D01*
X185922781Y-135164240D01*
X185808247Y-134992829D01*
X185808244Y-134992825D01*
X185662469Y-134847050D01*
X185561839Y-134779812D01*
X185517034Y-134726200D01*
X185508327Y-134656875D01*
X185538481Y-134593848D01*
X185543030Y-134589047D01*
X185621789Y-134510289D01*
X185709394Y-134379179D01*
X185769737Y-134233497D01*
X185800500Y-134078842D01*
X185800500Y-133921158D01*
X185800500Y-133921155D01*
X185800499Y-133921153D01*
X185769738Y-133766510D01*
X185769737Y-133766503D01*
X185769735Y-133766498D01*
X185709397Y-133620827D01*
X185709390Y-133620814D01*
X185621789Y-133489711D01*
X185621786Y-133489707D01*
X185510292Y-133378213D01*
X185510288Y-133378210D01*
X185379185Y-133290609D01*
X185379172Y-133290602D01*
X185233501Y-133230264D01*
X185233489Y-133230261D01*
X185078845Y-133199500D01*
X185078842Y-133199500D01*
X185048478Y-133199500D01*
X184981439Y-133179815D01*
X184960797Y-133163181D01*
X184608819Y-132811203D01*
X184575334Y-132749880D01*
X184572500Y-132723522D01*
X184572500Y-112936478D01*
X184581143Y-112907041D01*
X184587667Y-112877052D01*
X184591422Y-112872034D01*
X184592185Y-112869439D01*
X184608814Y-112848800D01*
X184676198Y-112781416D01*
X184737519Y-112747933D01*
X184802194Y-112751167D01*
X184855466Y-112768477D01*
X185057648Y-112800500D01*
X185057649Y-112800500D01*
X185262351Y-112800500D01*
X185262352Y-112800500D01*
X185464534Y-112768477D01*
X185659219Y-112705220D01*
X185841610Y-112612287D01*
X185975119Y-112515288D01*
X186007213Y-112491971D01*
X186007215Y-112491968D01*
X186007219Y-112491966D01*
X186151966Y-112347219D01*
X186151968Y-112347215D01*
X186151971Y-112347213D01*
X186212670Y-112263666D01*
X186272287Y-112181610D01*
X186365220Y-111999219D01*
X186428477Y-111804534D01*
X186460500Y-111602352D01*
X186460500Y-111397648D01*
X186428477Y-111195466D01*
X186427673Y-111192993D01*
X186365218Y-111000776D01*
X186272419Y-110818650D01*
X186272287Y-110818390D01*
X186264556Y-110807749D01*
X186151971Y-110652786D01*
X186007213Y-110508028D01*
X185841613Y-110387715D01*
X185841612Y-110387714D01*
X185841610Y-110387713D01*
X185784653Y-110358691D01*
X185659223Y-110294781D01*
X185464534Y-110231522D01*
X185289995Y-110203878D01*
X185262352Y-110199500D01*
X185057648Y-110199500D01*
X185033329Y-110203351D01*
X184855465Y-110231522D01*
X184660776Y-110294781D01*
X184478386Y-110387715D01*
X184312786Y-110508028D01*
X184168028Y-110652786D01*
X184047715Y-110818386D01*
X184000485Y-110911080D01*
X183952510Y-110961876D01*
X183884689Y-110978671D01*
X183818554Y-110956134D01*
X183779515Y-110911080D01*
X183732419Y-110818650D01*
X183732287Y-110818390D01*
X183724556Y-110807749D01*
X183611971Y-110652786D01*
X183467213Y-110508028D01*
X183301613Y-110387715D01*
X183301612Y-110387714D01*
X183301610Y-110387713D01*
X183244653Y-110358691D01*
X183119223Y-110294781D01*
X182924534Y-110231522D01*
X182749995Y-110203878D01*
X182722352Y-110199500D01*
X182517648Y-110199500D01*
X182493329Y-110203351D01*
X182315465Y-110231522D01*
X182120776Y-110294781D01*
X181938386Y-110387715D01*
X181772786Y-110508028D01*
X181628028Y-110652786D01*
X181507715Y-110818386D01*
X181460485Y-110911080D01*
X181412510Y-110961876D01*
X181344689Y-110978671D01*
X181278554Y-110956134D01*
X181239515Y-110911080D01*
X181192419Y-110818650D01*
X181192287Y-110818390D01*
X181184556Y-110807749D01*
X181071971Y-110652786D01*
X180927213Y-110508028D01*
X180761613Y-110387715D01*
X180761612Y-110387714D01*
X180761610Y-110387713D01*
X180704653Y-110358691D01*
X180579223Y-110294781D01*
X180384534Y-110231522D01*
X180209995Y-110203878D01*
X180182352Y-110199500D01*
X179977648Y-110199500D01*
X179953329Y-110203351D01*
X179775465Y-110231522D01*
X179580776Y-110294781D01*
X179398386Y-110387715D01*
X179232786Y-110508028D01*
X179088028Y-110652786D01*
X178967715Y-110818386D01*
X178920485Y-110911080D01*
X178872510Y-110961876D01*
X178804689Y-110978671D01*
X178738554Y-110956134D01*
X178699515Y-110911080D01*
X178652419Y-110818650D01*
X178652287Y-110818390D01*
X178644556Y-110807749D01*
X178531971Y-110652786D01*
X178387213Y-110508028D01*
X178221613Y-110387715D01*
X178221612Y-110387714D01*
X178221610Y-110387713D01*
X178164653Y-110358691D01*
X178039223Y-110294781D01*
X177844534Y-110231522D01*
X177669995Y-110203878D01*
X177642352Y-110199500D01*
X177437648Y-110199500D01*
X177413329Y-110203351D01*
X177235465Y-110231522D01*
X177040776Y-110294781D01*
X176858386Y-110387715D01*
X176692786Y-110508028D01*
X176548028Y-110652786D01*
X176427715Y-110818386D01*
X176380485Y-110911080D01*
X176332510Y-110961876D01*
X176264689Y-110978671D01*
X176198554Y-110956134D01*
X176159515Y-110911080D01*
X176112419Y-110818650D01*
X176112287Y-110818390D01*
X176104556Y-110807749D01*
X175991971Y-110652786D01*
X175847213Y-110508028D01*
X175681613Y-110387715D01*
X175681612Y-110387714D01*
X175681610Y-110387713D01*
X175624653Y-110358691D01*
X175499223Y-110294781D01*
X175304534Y-110231522D01*
X175129995Y-110203878D01*
X175102352Y-110199500D01*
X174897648Y-110199500D01*
X174873329Y-110203351D01*
X174695465Y-110231522D01*
X174500776Y-110294781D01*
X174318386Y-110387715D01*
X174152786Y-110508028D01*
X174008028Y-110652786D01*
X173887715Y-110818386D01*
X173840485Y-110911080D01*
X173792510Y-110961876D01*
X173724689Y-110978671D01*
X173658554Y-110956134D01*
X173619515Y-110911080D01*
X173572419Y-110818650D01*
X173572287Y-110818390D01*
X173564556Y-110807749D01*
X173451971Y-110652786D01*
X173307213Y-110508028D01*
X173141613Y-110387715D01*
X173141612Y-110387714D01*
X173141610Y-110387713D01*
X173084653Y-110358691D01*
X172959223Y-110294781D01*
X172764534Y-110231522D01*
X172589995Y-110203878D01*
X172562352Y-110199500D01*
X172357648Y-110199500D01*
X172333329Y-110203351D01*
X172155465Y-110231522D01*
X171960776Y-110294781D01*
X171778386Y-110387715D01*
X171612786Y-110508028D01*
X171468028Y-110652786D01*
X171347715Y-110818386D01*
X171300485Y-110911080D01*
X171252510Y-110961876D01*
X171184689Y-110978671D01*
X171118554Y-110956134D01*
X171079515Y-110911080D01*
X171032419Y-110818650D01*
X171032287Y-110818390D01*
X171024556Y-110807749D01*
X170911971Y-110652786D01*
X170767213Y-110508028D01*
X170601613Y-110387715D01*
X170601612Y-110387714D01*
X170601610Y-110387713D01*
X170544653Y-110358691D01*
X170419223Y-110294781D01*
X170224534Y-110231522D01*
X170049995Y-110203878D01*
X170022352Y-110199500D01*
X169817648Y-110199500D01*
X169793329Y-110203351D01*
X169615465Y-110231522D01*
X169420776Y-110294781D01*
X169244295Y-110384704D01*
X169175626Y-110397600D01*
X169110885Y-110371324D01*
X169070628Y-110314217D01*
X169064000Y-110274219D01*
X169064000Y-97485780D01*
X169083685Y-97418741D01*
X169136489Y-97372986D01*
X169205647Y-97363042D01*
X169244291Y-97375293D01*
X169329561Y-97418741D01*
X169420776Y-97465218D01*
X169420778Y-97465218D01*
X169420781Y-97465220D01*
X169520178Y-97497516D01*
X169615465Y-97528477D01*
X169711661Y-97543713D01*
X169817648Y-97560500D01*
X169817649Y-97560500D01*
X170022351Y-97560500D01*
X170022352Y-97560500D01*
X170224534Y-97528477D01*
X170419219Y-97465220D01*
X170601610Y-97372287D01*
X170694590Y-97304732D01*
X170767213Y-97251971D01*
X170767215Y-97251968D01*
X170767219Y-97251966D01*
X170911966Y-97107219D01*
X170911968Y-97107215D01*
X170911971Y-97107213D01*
X171032284Y-96941614D01*
X171032286Y-96941611D01*
X171032287Y-96941610D01*
X171079516Y-96848917D01*
X171127489Y-96798123D01*
X171195310Y-96781328D01*
X171261445Y-96803865D01*
X171300485Y-96848919D01*
X171347715Y-96941614D01*
X171468028Y-97107213D01*
X171612786Y-97251971D01*
X171765665Y-97363042D01*
X171778390Y-97372287D01*
X171869561Y-97418741D01*
X171960776Y-97465218D01*
X171960778Y-97465218D01*
X171960781Y-97465220D01*
X172060178Y-97497516D01*
X172155465Y-97528477D01*
X172251661Y-97543713D01*
X172357648Y-97560500D01*
X172357649Y-97560500D01*
X172562351Y-97560500D01*
X172562352Y-97560500D01*
X172764534Y-97528477D01*
X172959219Y-97465220D01*
X173141610Y-97372287D01*
X173234590Y-97304732D01*
X173307213Y-97251971D01*
X173307215Y-97251968D01*
X173307219Y-97251966D01*
X173451966Y-97107219D01*
X173451968Y-97107215D01*
X173451971Y-97107213D01*
X173572284Y-96941614D01*
X173572286Y-96941611D01*
X173572287Y-96941610D01*
X173619516Y-96848917D01*
X173667489Y-96798123D01*
X173735310Y-96781328D01*
X173801445Y-96803865D01*
X173840485Y-96848919D01*
X173887715Y-96941614D01*
X174008028Y-97107213D01*
X174152786Y-97251971D01*
X174305665Y-97363042D01*
X174318390Y-97372287D01*
X174409561Y-97418741D01*
X174500776Y-97465218D01*
X174500778Y-97465218D01*
X174500781Y-97465220D01*
X174600178Y-97497516D01*
X174695465Y-97528477D01*
X174791661Y-97543713D01*
X174897648Y-97560500D01*
X174897649Y-97560500D01*
X175102351Y-97560500D01*
X175102352Y-97560500D01*
X175304534Y-97528477D01*
X175499219Y-97465220D01*
X175681610Y-97372287D01*
X175774590Y-97304732D01*
X175847213Y-97251971D01*
X175847215Y-97251968D01*
X175847219Y-97251966D01*
X175991966Y-97107219D01*
X175991968Y-97107215D01*
X175991971Y-97107213D01*
X176112284Y-96941614D01*
X176112286Y-96941611D01*
X176112287Y-96941610D01*
X176159516Y-96848917D01*
X176207489Y-96798123D01*
X176275310Y-96781328D01*
X176341445Y-96803865D01*
X176380485Y-96848919D01*
X176427715Y-96941614D01*
X176548028Y-97107213D01*
X176692786Y-97251971D01*
X176845665Y-97363042D01*
X176858390Y-97372287D01*
X176949561Y-97418741D01*
X177040776Y-97465218D01*
X177040778Y-97465218D01*
X177040781Y-97465220D01*
X177140178Y-97497516D01*
X177235465Y-97528477D01*
X177331661Y-97543713D01*
X177437648Y-97560500D01*
X177437649Y-97560500D01*
X177642351Y-97560500D01*
X177642352Y-97560500D01*
X177844534Y-97528477D01*
X178039219Y-97465220D01*
X178221610Y-97372287D01*
X178314590Y-97304732D01*
X178387213Y-97251971D01*
X178387215Y-97251968D01*
X178387219Y-97251966D01*
X178531966Y-97107219D01*
X178531968Y-97107215D01*
X178531971Y-97107213D01*
X178652284Y-96941614D01*
X178652286Y-96941611D01*
X178652287Y-96941610D01*
X178699516Y-96848917D01*
X178747489Y-96798123D01*
X178815310Y-96781328D01*
X178881445Y-96803865D01*
X178920485Y-96848919D01*
X178967715Y-96941614D01*
X179088028Y-97107213D01*
X179232786Y-97251971D01*
X179385665Y-97363042D01*
X179398390Y-97372287D01*
X179489561Y-97418741D01*
X179580776Y-97465218D01*
X179580778Y-97465218D01*
X179580781Y-97465220D01*
X179680178Y-97497516D01*
X179775465Y-97528477D01*
X179871661Y-97543713D01*
X179977648Y-97560500D01*
X179977649Y-97560500D01*
X180182351Y-97560500D01*
X180182352Y-97560500D01*
X180384534Y-97528477D01*
X180579219Y-97465220D01*
X180761610Y-97372287D01*
X180854590Y-97304732D01*
X180927213Y-97251971D01*
X180927215Y-97251968D01*
X180927219Y-97251966D01*
X181071966Y-97107219D01*
X181071968Y-97107215D01*
X181071971Y-97107213D01*
X181192284Y-96941614D01*
X181192286Y-96941611D01*
X181192287Y-96941610D01*
X181239516Y-96848917D01*
X181287489Y-96798123D01*
X181355310Y-96781328D01*
X181421445Y-96803865D01*
X181460485Y-96848919D01*
X181507715Y-96941614D01*
X181628028Y-97107213D01*
X181772786Y-97251971D01*
X181925665Y-97363042D01*
X181938390Y-97372287D01*
X182029561Y-97418741D01*
X182120776Y-97465218D01*
X182120778Y-97465218D01*
X182120781Y-97465220D01*
X182220178Y-97497516D01*
X182315465Y-97528477D01*
X182411661Y-97543713D01*
X182517648Y-97560500D01*
X182517649Y-97560500D01*
X182722351Y-97560500D01*
X182722352Y-97560500D01*
X182924534Y-97528477D01*
X183119219Y-97465220D01*
X183301610Y-97372287D01*
X183394590Y-97304732D01*
X183467213Y-97251971D01*
X183467215Y-97251968D01*
X183467219Y-97251966D01*
X183611966Y-97107219D01*
X183611968Y-97107215D01*
X183611971Y-97107213D01*
X183732284Y-96941614D01*
X183732286Y-96941611D01*
X183732287Y-96941610D01*
X183779516Y-96848917D01*
X183827489Y-96798123D01*
X183895310Y-96781328D01*
X183961445Y-96803865D01*
X184000485Y-96848919D01*
X184047715Y-96941614D01*
X184168028Y-97107213D01*
X184312786Y-97251971D01*
X184465665Y-97363042D01*
X184478390Y-97372287D01*
X184569561Y-97418741D01*
X184660776Y-97465218D01*
X184660778Y-97465218D01*
X184660781Y-97465220D01*
X184760178Y-97497516D01*
X184855465Y-97528477D01*
X184951661Y-97543713D01*
X185057648Y-97560500D01*
X185057649Y-97560500D01*
X185262351Y-97560500D01*
X185262352Y-97560500D01*
X185464534Y-97528477D01*
X185659219Y-97465220D01*
X185841610Y-97372287D01*
X185934590Y-97304732D01*
X186007213Y-97251971D01*
X186007215Y-97251968D01*
X186007219Y-97251966D01*
X186151966Y-97107219D01*
X186151968Y-97107215D01*
X186151971Y-97107213D01*
X186204732Y-97034590D01*
X186272287Y-96941610D01*
X186365220Y-96759219D01*
X186428477Y-96564534D01*
X186460500Y-96362352D01*
X186460500Y-96157648D01*
X186428477Y-95955466D01*
X186427673Y-95952993D01*
X186365218Y-95760776D01*
X186272419Y-95578650D01*
X186272287Y-95578390D01*
X186264556Y-95567749D01*
X186151971Y-95412786D01*
X186007213Y-95268028D01*
X185841613Y-95147715D01*
X185841612Y-95147714D01*
X185841610Y-95147713D01*
X185784653Y-95118691D01*
X185659223Y-95054781D01*
X185464534Y-94991522D01*
X185289995Y-94963878D01*
X185262352Y-94959500D01*
X185057648Y-94959500D01*
X185033329Y-94963351D01*
X184855465Y-94991522D01*
X184660776Y-95054781D01*
X184478386Y-95147715D01*
X184312786Y-95268028D01*
X184168028Y-95412786D01*
X184047715Y-95578386D01*
X184000485Y-95671080D01*
X183952510Y-95721876D01*
X183884689Y-95738671D01*
X183818554Y-95716134D01*
X183779515Y-95671080D01*
X183732419Y-95578650D01*
X183732287Y-95578390D01*
X183724556Y-95567749D01*
X183611971Y-95412786D01*
X183467213Y-95268028D01*
X183301613Y-95147715D01*
X183301612Y-95147714D01*
X183301610Y-95147713D01*
X183244653Y-95118691D01*
X183119223Y-95054781D01*
X182924534Y-94991522D01*
X182749995Y-94963878D01*
X182722352Y-94959500D01*
X182517648Y-94959500D01*
X182493329Y-94963351D01*
X182315465Y-94991522D01*
X182120776Y-95054781D01*
X181938386Y-95147715D01*
X181772786Y-95268028D01*
X181628028Y-95412786D01*
X181507715Y-95578386D01*
X181460485Y-95671080D01*
X181412510Y-95721876D01*
X181344689Y-95738671D01*
X181278554Y-95716134D01*
X181239515Y-95671080D01*
X181192419Y-95578650D01*
X181192287Y-95578390D01*
X181184556Y-95567749D01*
X181071971Y-95412786D01*
X180927213Y-95268028D01*
X180761613Y-95147715D01*
X180761612Y-95147714D01*
X180761610Y-95147713D01*
X180704653Y-95118691D01*
X180579223Y-95054781D01*
X180384534Y-94991522D01*
X180209995Y-94963878D01*
X180182352Y-94959500D01*
X179977648Y-94959500D01*
X179953329Y-94963351D01*
X179775465Y-94991522D01*
X179580776Y-95054781D01*
X179398386Y-95147715D01*
X179232786Y-95268028D01*
X179088028Y-95412786D01*
X178967715Y-95578386D01*
X178920485Y-95671080D01*
X178872510Y-95721876D01*
X178804689Y-95738671D01*
X178738554Y-95716134D01*
X178699515Y-95671080D01*
X178652419Y-95578650D01*
X178652287Y-95578390D01*
X178644556Y-95567749D01*
X178531971Y-95412786D01*
X178387213Y-95268028D01*
X178221613Y-95147715D01*
X178221612Y-95147714D01*
X178221610Y-95147713D01*
X178164653Y-95118691D01*
X178039223Y-95054781D01*
X177844534Y-94991522D01*
X177669995Y-94963878D01*
X177642352Y-94959500D01*
X177437648Y-94959500D01*
X177413329Y-94963351D01*
X177235465Y-94991522D01*
X177040776Y-95054781D01*
X176858386Y-95147715D01*
X176692786Y-95268028D01*
X176548028Y-95412786D01*
X176427715Y-95578386D01*
X176380485Y-95671080D01*
X176332510Y-95721876D01*
X176264689Y-95738671D01*
X176198554Y-95716134D01*
X176159515Y-95671080D01*
X176112419Y-95578650D01*
X176112287Y-95578390D01*
X176104556Y-95567749D01*
X175991971Y-95412786D01*
X175847213Y-95268028D01*
X175681613Y-95147715D01*
X175681612Y-95147714D01*
X175681610Y-95147713D01*
X175624653Y-95118691D01*
X175499223Y-95054781D01*
X175304534Y-94991522D01*
X175129995Y-94963878D01*
X175102352Y-94959500D01*
X174897648Y-94959500D01*
X174873329Y-94963351D01*
X174695465Y-94991522D01*
X174500776Y-95054781D01*
X174318386Y-95147715D01*
X174152786Y-95268028D01*
X174008028Y-95412786D01*
X173887715Y-95578386D01*
X173840485Y-95671080D01*
X173792510Y-95721876D01*
X173724689Y-95738671D01*
X173658554Y-95716134D01*
X173619515Y-95671080D01*
X173572419Y-95578650D01*
X173572287Y-95578390D01*
X173564556Y-95567749D01*
X173451971Y-95412786D01*
X173307213Y-95268028D01*
X173141613Y-95147715D01*
X173141612Y-95147714D01*
X173141610Y-95147713D01*
X173084653Y-95118691D01*
X172959223Y-95054781D01*
X172764534Y-94991522D01*
X172589995Y-94963878D01*
X172562352Y-94959500D01*
X172357648Y-94959500D01*
X172333329Y-94963351D01*
X172155465Y-94991522D01*
X171960776Y-95054781D01*
X171778386Y-95147715D01*
X171612786Y-95268028D01*
X171468028Y-95412786D01*
X171347715Y-95578386D01*
X171300485Y-95671080D01*
X171252510Y-95721876D01*
X171184689Y-95738671D01*
X171118554Y-95716134D01*
X171079515Y-95671080D01*
X171032419Y-95578650D01*
X171032287Y-95578390D01*
X171024556Y-95567749D01*
X170911971Y-95412786D01*
X170767213Y-95268028D01*
X170601613Y-95147715D01*
X170601612Y-95147714D01*
X170601610Y-95147713D01*
X170544653Y-95118691D01*
X170419223Y-95054781D01*
X170224534Y-94991522D01*
X170049995Y-94963878D01*
X170022352Y-94959500D01*
X169817648Y-94959500D01*
X169793329Y-94963351D01*
X169615465Y-94991522D01*
X169420776Y-95054781D01*
X169244295Y-95144704D01*
X169241589Y-95145212D01*
X169239511Y-95147013D01*
X169207461Y-95151621D01*
X169175626Y-95157600D01*
X169173076Y-95156565D01*
X169170353Y-95156957D01*
X169140894Y-95143503D01*
X169110885Y-95131324D01*
X169109299Y-95129074D01*
X169106797Y-95127932D01*
X169089288Y-95100688D01*
X169070628Y-95074217D01*
X169070055Y-95070760D01*
X169069023Y-95069154D01*
X169064000Y-95034219D01*
X169064000Y-94784978D01*
X169083685Y-94717939D01*
X169100319Y-94697297D01*
X172397297Y-91400319D01*
X172458620Y-91366834D01*
X172484978Y-91364000D01*
X173153427Y-91364000D01*
X173220466Y-91383685D01*
X173263911Y-91431704D01*
X173277056Y-91457502D01*
X173393115Y-91617246D01*
X173532753Y-91756884D01*
X173682234Y-91865486D01*
X173692499Y-91872944D01*
X173868439Y-91962591D01*
X173975417Y-91997350D01*
X174056236Y-92023610D01*
X174251264Y-92054500D01*
X174251269Y-92054500D01*
X174448736Y-92054500D01*
X174643763Y-92023610D01*
X174831561Y-91962591D01*
X175007501Y-91872944D01*
X175113288Y-91796086D01*
X175167246Y-91756884D01*
X175167248Y-91756881D01*
X175167252Y-91756879D01*
X175306879Y-91617252D01*
X175306881Y-91617248D01*
X175306884Y-91617246D01*
X175422941Y-91457505D01*
X175422943Y-91457502D01*
X175422944Y-91457501D01*
X175489516Y-91326846D01*
X175537490Y-91276052D01*
X175605311Y-91259257D01*
X175671446Y-91281794D01*
X175710482Y-91326845D01*
X175747920Y-91400319D01*
X175777058Y-91457505D01*
X175893115Y-91617246D01*
X176032753Y-91756884D01*
X176182234Y-91865486D01*
X176192499Y-91872944D01*
X176368439Y-91962591D01*
X176475417Y-91997350D01*
X176556236Y-92023610D01*
X176751264Y-92054500D01*
X176751269Y-92054500D01*
X176948736Y-92054500D01*
X177143763Y-92023610D01*
X177331561Y-91962591D01*
X177507501Y-91872944D01*
X177613288Y-91796086D01*
X177667246Y-91756884D01*
X177667248Y-91756881D01*
X177667252Y-91756879D01*
X177806879Y-91617252D01*
X177818074Y-91601844D01*
X177871681Y-91528059D01*
X177927011Y-91485392D01*
X177996624Y-91479413D01*
X178058419Y-91512018D01*
X178092777Y-91572856D01*
X178095722Y-91598526D01*
X178095823Y-91598521D01*
X178095911Y-91600169D01*
X178096000Y-91600943D01*
X178096000Y-91601844D01*
X178102401Y-91661372D01*
X178102403Y-91661379D01*
X178152645Y-91796086D01*
X178152649Y-91796093D01*
X178238809Y-91911187D01*
X178238812Y-91911190D01*
X178353906Y-91997350D01*
X178353913Y-91997354D01*
X178488620Y-92047596D01*
X178488627Y-92047598D01*
X178548155Y-92053999D01*
X178548172Y-92054000D01*
X179100000Y-92054000D01*
X179100000Y-91233012D01*
X179157007Y-91265925D01*
X179284174Y-91300000D01*
X179415826Y-91300000D01*
X179542993Y-91265925D01*
X179600000Y-91233012D01*
X179600000Y-92054000D01*
X180151828Y-92054000D01*
X180151844Y-92053999D01*
X180211372Y-92047598D01*
X180211379Y-92047596D01*
X180346086Y-91997354D01*
X180346093Y-91997350D01*
X180461187Y-91911190D01*
X180461190Y-91911187D01*
X180547350Y-91796093D01*
X180547354Y-91796086D01*
X180597596Y-91661379D01*
X180597598Y-91661372D01*
X180603999Y-91601844D01*
X180604000Y-91601827D01*
X180604000Y-91050000D01*
X179783012Y-91050000D01*
X179815925Y-90992993D01*
X179850000Y-90865826D01*
X179850000Y-90734174D01*
X179815925Y-90607007D01*
X179783012Y-90550000D01*
X180604000Y-90550000D01*
X180604000Y-89998172D01*
X180603999Y-89998155D01*
X180597598Y-89938627D01*
X180597596Y-89938620D01*
X180547354Y-89803913D01*
X180547350Y-89803906D01*
X180461190Y-89688812D01*
X180461187Y-89688809D01*
X180346091Y-89602647D01*
X180346088Y-89602646D01*
X180211379Y-89552403D01*
X180211372Y-89552401D01*
X180151844Y-89546000D01*
X179600000Y-89546000D01*
X179600000Y-90366988D01*
X179542993Y-90334075D01*
X179415826Y-90300000D01*
X179284174Y-90300000D01*
X179157007Y-90334075D01*
X179100000Y-90366988D01*
X179100000Y-89546000D01*
X178548155Y-89546000D01*
X178488627Y-89552401D01*
X178488620Y-89552403D01*
X178353913Y-89602645D01*
X178353906Y-89602649D01*
X178238812Y-89688809D01*
X178238809Y-89688812D01*
X178152649Y-89803906D01*
X178152645Y-89803913D01*
X178102403Y-89938620D01*
X178102401Y-89938627D01*
X178096000Y-89998155D01*
X178096000Y-89999056D01*
X178095942Y-89999252D01*
X178095823Y-90001479D01*
X178095644Y-90001469D01*
X178095644Y-90001475D01*
X178095540Y-90001463D01*
X178095296Y-90001450D01*
X178076315Y-90066095D01*
X178023511Y-90111850D01*
X177954353Y-90121794D01*
X177890797Y-90092769D01*
X177871682Y-90071941D01*
X177806884Y-89982754D01*
X177806880Y-89982749D01*
X177667246Y-89843115D01*
X177507504Y-89727058D01*
X177507503Y-89727057D01*
X177507501Y-89727056D01*
X177331561Y-89637409D01*
X177331558Y-89637408D01*
X177143763Y-89576389D01*
X176948736Y-89545500D01*
X176948731Y-89545500D01*
X176751269Y-89545500D01*
X176751264Y-89545500D01*
X176556236Y-89576389D01*
X176368441Y-89637408D01*
X176192495Y-89727058D01*
X176032753Y-89843115D01*
X175893115Y-89982753D01*
X175777058Y-90142495D01*
X175777057Y-90142497D01*
X175777056Y-90142499D01*
X175729415Y-90236000D01*
X175710485Y-90273151D01*
X175662510Y-90323947D01*
X175594689Y-90340742D01*
X175528554Y-90318204D01*
X175489515Y-90273151D01*
X175477719Y-90250000D01*
X175422944Y-90142499D01*
X175407901Y-90121794D01*
X175306884Y-89982753D01*
X175167246Y-89843115D01*
X175007504Y-89727058D01*
X175007503Y-89727057D01*
X175007501Y-89727056D01*
X174831561Y-89637409D01*
X174831558Y-89637408D01*
X174643763Y-89576389D01*
X174448736Y-89545500D01*
X174448731Y-89545500D01*
X174251269Y-89545500D01*
X174251264Y-89545500D01*
X174056236Y-89576389D01*
X173868441Y-89637408D01*
X173692495Y-89727058D01*
X173532753Y-89843115D01*
X173393115Y-89982753D01*
X173277056Y-90142497D01*
X173263911Y-90168296D01*
X173215936Y-90219092D01*
X173153427Y-90236000D01*
X172125747Y-90236000D01*
X171982304Y-90274435D01*
X171982301Y-90274436D01*
X171853699Y-90348685D01*
X171853693Y-90348689D01*
X168048689Y-94153693D01*
X168048685Y-94153699D01*
X167974436Y-94282301D01*
X167974435Y-94282304D01*
X167936000Y-94425748D01*
X167936000Y-94902557D01*
X167916315Y-94969596D01*
X167863511Y-95015351D01*
X167794353Y-95025295D01*
X167773682Y-95020488D01*
X167684537Y-94991523D01*
X167532897Y-94967505D01*
X167482352Y-94959500D01*
X167277648Y-94959500D01*
X167253329Y-94963351D01*
X167075465Y-94991522D01*
X166880776Y-95054781D01*
X166698386Y-95147715D01*
X166532786Y-95268028D01*
X166388028Y-95412786D01*
X166267715Y-95578386D01*
X166220485Y-95671080D01*
X166172510Y-95721876D01*
X166104689Y-95738671D01*
X166038554Y-95716134D01*
X165999515Y-95671080D01*
X165952419Y-95578650D01*
X165952287Y-95578390D01*
X165944556Y-95567749D01*
X165831971Y-95412786D01*
X165687213Y-95268028D01*
X165521613Y-95147715D01*
X165521612Y-95147714D01*
X165521610Y-95147713D01*
X165464653Y-95118691D01*
X165339223Y-95054781D01*
X165144534Y-94991522D01*
X164969995Y-94963878D01*
X164942352Y-94959500D01*
X164737648Y-94959500D01*
X164713329Y-94963351D01*
X164535465Y-94991522D01*
X164340776Y-95054781D01*
X164158386Y-95147715D01*
X163992786Y-95268028D01*
X163848028Y-95412786D01*
X163727715Y-95578386D01*
X163680485Y-95671080D01*
X163632510Y-95721876D01*
X163564689Y-95738671D01*
X163498554Y-95716134D01*
X163459515Y-95671080D01*
X163412419Y-95578650D01*
X163412287Y-95578390D01*
X163404556Y-95567749D01*
X163291971Y-95412786D01*
X163147213Y-95268028D01*
X162981613Y-95147715D01*
X162981612Y-95147714D01*
X162981610Y-95147713D01*
X162924653Y-95118691D01*
X162799223Y-95054781D01*
X162604534Y-94991522D01*
X162429995Y-94963878D01*
X162402352Y-94959500D01*
X162197648Y-94959500D01*
X162173329Y-94963351D01*
X161995465Y-94991522D01*
X161800776Y-95054781D01*
X161618386Y-95147715D01*
X161452786Y-95268028D01*
X161308028Y-95412786D01*
X161187715Y-95578386D01*
X161140485Y-95671080D01*
X161092510Y-95721876D01*
X161024689Y-95738671D01*
X160958554Y-95716134D01*
X160919515Y-95671080D01*
X160872419Y-95578650D01*
X160872287Y-95578390D01*
X160864556Y-95567749D01*
X160751971Y-95412786D01*
X160607213Y-95268028D01*
X160441613Y-95147715D01*
X160441612Y-95147714D01*
X160441610Y-95147713D01*
X160384653Y-95118691D01*
X160259223Y-95054781D01*
X160064534Y-94991522D01*
X159889995Y-94963878D01*
X159862352Y-94959500D01*
X159657648Y-94959500D01*
X159633329Y-94963351D01*
X159455465Y-94991522D01*
X159260776Y-95054781D01*
X159078386Y-95147715D01*
X158912786Y-95268028D01*
X158768028Y-95412786D01*
X158647715Y-95578386D01*
X158600485Y-95671080D01*
X158552510Y-95721876D01*
X158484689Y-95738671D01*
X158418554Y-95716134D01*
X158379515Y-95671080D01*
X158332419Y-95578650D01*
X158332287Y-95578390D01*
X158324556Y-95567749D01*
X158211971Y-95412786D01*
X158067213Y-95268028D01*
X157901613Y-95147715D01*
X157901612Y-95147714D01*
X157901610Y-95147713D01*
X157844653Y-95118691D01*
X157719223Y-95054781D01*
X157524534Y-94991522D01*
X157349995Y-94963878D01*
X157322352Y-94959500D01*
X157117648Y-94959500D01*
X157093329Y-94963351D01*
X156915465Y-94991522D01*
X156720776Y-95054781D01*
X156538386Y-95147715D01*
X156372786Y-95268028D01*
X156228028Y-95412786D01*
X156107715Y-95578386D01*
X156060485Y-95671080D01*
X156012510Y-95721876D01*
X155944689Y-95738671D01*
X155878554Y-95716134D01*
X155839515Y-95671080D01*
X155792419Y-95578650D01*
X155792287Y-95578390D01*
X155784556Y-95567749D01*
X155671971Y-95412786D01*
X155527213Y-95268028D01*
X155361613Y-95147715D01*
X155361612Y-95147714D01*
X155361610Y-95147713D01*
X155304653Y-95118691D01*
X155179223Y-95054781D01*
X154984534Y-94991522D01*
X154809995Y-94963878D01*
X154782352Y-94959500D01*
X154577648Y-94959500D01*
X154553329Y-94963351D01*
X154375465Y-94991522D01*
X154180776Y-95054781D01*
X153998386Y-95147715D01*
X153832786Y-95268028D01*
X153688028Y-95412786D01*
X153567713Y-95578388D01*
X153520203Y-95671630D01*
X153472228Y-95722426D01*
X153404407Y-95739220D01*
X153338272Y-95716682D01*
X153299234Y-95671628D01*
X153251861Y-95578652D01*
X153131582Y-95413105D01*
X153131582Y-95413104D01*
X152986895Y-95268417D01*
X152821349Y-95148140D01*
X152639029Y-95055244D01*
X152444413Y-94992009D01*
X152390000Y-94983390D01*
X152390000Y-95826988D01*
X152332993Y-95794075D01*
X152205826Y-95760000D01*
X152074174Y-95760000D01*
X151947007Y-95794075D01*
X151890000Y-95826988D01*
X151890000Y-94983390D01*
X151835586Y-94992009D01*
X151640970Y-95055244D01*
X151458650Y-95148140D01*
X151293105Y-95268417D01*
X151293104Y-95268417D01*
X151148417Y-95413104D01*
X151148417Y-95413105D01*
X151028140Y-95578650D01*
X150980765Y-95671629D01*
X150932790Y-95722425D01*
X150864969Y-95739220D01*
X150798834Y-95716682D01*
X150759795Y-95671629D01*
X150712419Y-95578650D01*
X150712287Y-95578390D01*
X150704556Y-95567749D01*
X150591971Y-95412786D01*
X150447213Y-95268028D01*
X150281613Y-95147715D01*
X150281612Y-95147714D01*
X150281610Y-95147713D01*
X150224653Y-95118691D01*
X150099223Y-95054781D01*
X149904534Y-94991522D01*
X149729995Y-94963878D01*
X149702352Y-94959500D01*
X149497648Y-94959500D01*
X149473329Y-94963351D01*
X149295465Y-94991522D01*
X149100776Y-95054781D01*
X148918386Y-95147715D01*
X148752786Y-95268028D01*
X148608028Y-95412786D01*
X148487715Y-95578386D01*
X148394781Y-95760776D01*
X148331522Y-95955465D01*
X148299500Y-96157648D01*
X103500500Y-96157648D01*
X103500500Y-89447648D01*
X106249500Y-89447648D01*
X106249500Y-89652351D01*
X106281522Y-89854534D01*
X106344781Y-90049223D01*
X106437715Y-90231613D01*
X106558028Y-90397213D01*
X106702786Y-90541971D01*
X106857749Y-90654556D01*
X106868390Y-90662287D01*
X106984607Y-90721503D01*
X107050776Y-90755218D01*
X107050778Y-90755218D01*
X107050781Y-90755220D01*
X107122097Y-90778392D01*
X107245465Y-90818477D01*
X107346557Y-90834488D01*
X107447648Y-90850500D01*
X107447649Y-90850500D01*
X107652351Y-90850500D01*
X107652352Y-90850500D01*
X107854534Y-90818477D01*
X108049219Y-90755220D01*
X108231610Y-90662287D01*
X108324590Y-90594732D01*
X108397213Y-90541971D01*
X108397215Y-90541968D01*
X108397219Y-90541966D01*
X108541966Y-90397219D01*
X108541968Y-90397215D01*
X108541971Y-90397213D01*
X108596356Y-90322357D01*
X108662287Y-90231610D01*
X108704305Y-90149144D01*
X108707771Y-90142343D01*
X108755218Y-90049223D01*
X108755218Y-90049222D01*
X108755220Y-90049219D01*
X108818477Y-89854534D01*
X108850500Y-89652352D01*
X108850500Y-89447648D01*
X108818477Y-89245466D01*
X108792220Y-89164655D01*
X153212500Y-89164655D01*
X153212500Y-89750000D01*
X154038120Y-89750000D01*
X154010778Y-89797358D01*
X153975000Y-89930882D01*
X153975000Y-90069118D01*
X154010778Y-90202642D01*
X154038120Y-90250000D01*
X153212500Y-90250000D01*
X153212500Y-90835344D01*
X153218901Y-90894872D01*
X153218903Y-90894879D01*
X153269145Y-91029586D01*
X153269149Y-91029593D01*
X153355309Y-91144687D01*
X153355312Y-91144690D01*
X153470406Y-91230850D01*
X153470413Y-91230854D01*
X153605120Y-91281096D01*
X153605127Y-91281098D01*
X153664655Y-91287499D01*
X153664672Y-91287500D01*
X154250000Y-91287500D01*
X154250000Y-90461879D01*
X154297358Y-90489222D01*
X154430882Y-90525000D01*
X154569118Y-90525000D01*
X154702642Y-90489222D01*
X154750000Y-90461879D01*
X154750000Y-91287500D01*
X155335328Y-91287500D01*
X155335344Y-91287499D01*
X155394872Y-91281098D01*
X155394879Y-91281096D01*
X155529586Y-91230854D01*
X155529593Y-91230850D01*
X155644687Y-91144690D01*
X155644690Y-91144687D01*
X155730850Y-91029593D01*
X155730854Y-91029586D01*
X155781096Y-90894879D01*
X155782396Y-90882793D01*
X155809133Y-90818242D01*
X155866525Y-90778392D01*
X155936350Y-90775897D01*
X155996439Y-90811548D01*
X156006004Y-90823160D01*
X156017566Y-90839074D01*
X156160925Y-90982433D01*
X156160930Y-90982437D01*
X156303986Y-91086372D01*
X156324941Y-91101597D01*
X156409516Y-91144690D01*
X156505579Y-91193637D01*
X156505582Y-91193638D01*
X156601986Y-91224961D01*
X156698393Y-91256285D01*
X156898632Y-91288000D01*
X156898633Y-91288000D01*
X157101367Y-91288000D01*
X157101368Y-91288000D01*
X157301607Y-91256285D01*
X157494420Y-91193637D01*
X157675059Y-91101597D01*
X157839076Y-90982432D01*
X157982432Y-90839076D01*
X158101597Y-90675059D01*
X158193637Y-90494420D01*
X158256285Y-90301607D01*
X158288000Y-90101368D01*
X158288000Y-89898632D01*
X158256285Y-89698393D01*
X158224961Y-89601986D01*
X158193638Y-89505582D01*
X158193637Y-89505579D01*
X158157220Y-89434108D01*
X158101597Y-89324941D01*
X158080182Y-89295466D01*
X158035697Y-89234236D01*
X157985143Y-89164655D01*
X162712500Y-89164655D01*
X162712500Y-89750000D01*
X163538120Y-89750000D01*
X163510778Y-89797358D01*
X163475000Y-89930882D01*
X163475000Y-90069118D01*
X163510778Y-90202642D01*
X163538120Y-90250000D01*
X162712500Y-90250000D01*
X162712500Y-90835344D01*
X162718901Y-90894872D01*
X162718903Y-90894879D01*
X162769145Y-91029586D01*
X162769149Y-91029593D01*
X162855309Y-91144687D01*
X162855312Y-91144690D01*
X162970406Y-91230850D01*
X162970413Y-91230854D01*
X163105120Y-91281096D01*
X163105127Y-91281098D01*
X163164655Y-91287499D01*
X163164672Y-91287500D01*
X163750000Y-91287500D01*
X163750000Y-90461879D01*
X163797358Y-90489222D01*
X163930882Y-90525000D01*
X164069118Y-90525000D01*
X164202642Y-90489222D01*
X164250000Y-90461879D01*
X164250000Y-91287500D01*
X164835328Y-91287500D01*
X164835344Y-91287499D01*
X164894872Y-91281098D01*
X164894879Y-91281096D01*
X165029586Y-91230854D01*
X165029593Y-91230850D01*
X165144687Y-91144690D01*
X165144690Y-91144687D01*
X165230850Y-91029593D01*
X165230854Y-91029586D01*
X165281096Y-90894879D01*
X165282396Y-90882793D01*
X165309133Y-90818242D01*
X165366525Y-90778392D01*
X165436350Y-90775897D01*
X165496439Y-90811548D01*
X165506004Y-90823160D01*
X165517566Y-90839074D01*
X165660925Y-90982433D01*
X165660930Y-90982437D01*
X165803986Y-91086372D01*
X165824941Y-91101597D01*
X165909516Y-91144690D01*
X166005579Y-91193637D01*
X166005582Y-91193638D01*
X166101986Y-91224961D01*
X166198393Y-91256285D01*
X166398632Y-91288000D01*
X166398633Y-91288000D01*
X166601367Y-91288000D01*
X166601368Y-91288000D01*
X166801607Y-91256285D01*
X166994420Y-91193637D01*
X167175059Y-91101597D01*
X167339076Y-90982432D01*
X167482432Y-90839076D01*
X167601597Y-90675059D01*
X167693637Y-90494420D01*
X167756285Y-90301607D01*
X167788000Y-90101368D01*
X167788000Y-89898632D01*
X167756285Y-89698393D01*
X167724961Y-89601986D01*
X167693638Y-89505582D01*
X167693637Y-89505579D01*
X167689596Y-89497648D01*
X187199500Y-89497648D01*
X187199500Y-89702351D01*
X187231522Y-89904534D01*
X187294781Y-90099223D01*
X187347477Y-90202642D01*
X187384057Y-90274435D01*
X187387715Y-90281613D01*
X187508028Y-90447213D01*
X187652786Y-90591971D01*
X187803225Y-90701269D01*
X187818390Y-90712287D01*
X187902647Y-90755218D01*
X188000776Y-90805218D01*
X188000778Y-90805218D01*
X188000781Y-90805220D01*
X188055995Y-90823160D01*
X188195465Y-90868477D01*
X188285852Y-90882793D01*
X188397648Y-90900500D01*
X188397649Y-90900500D01*
X188602351Y-90900500D01*
X188602352Y-90900500D01*
X188804534Y-90868477D01*
X188999219Y-90805220D01*
X189181610Y-90712287D01*
X189326517Y-90607007D01*
X189347213Y-90591971D01*
X189347215Y-90591968D01*
X189347219Y-90591966D01*
X189491966Y-90447219D01*
X189491968Y-90447215D01*
X189491971Y-90447213D01*
X189544732Y-90374590D01*
X189612287Y-90281610D01*
X189705220Y-90099219D01*
X189768477Y-89904534D01*
X189800500Y-89702352D01*
X189800500Y-89497648D01*
X189790436Y-89434108D01*
X189768477Y-89295465D01*
X189725974Y-89164655D01*
X189705220Y-89100781D01*
X189705218Y-89100778D01*
X189705218Y-89100776D01*
X189638794Y-88970413D01*
X189612287Y-88918390D01*
X189585083Y-88880946D01*
X189491971Y-88752786D01*
X189347213Y-88608028D01*
X189181613Y-88487715D01*
X189181612Y-88487714D01*
X189181610Y-88487713D01*
X189095899Y-88444041D01*
X188999223Y-88394781D01*
X188804534Y-88331522D01*
X188629995Y-88303878D01*
X188602352Y-88299500D01*
X188397648Y-88299500D01*
X188373329Y-88303351D01*
X188195465Y-88331522D01*
X188000776Y-88394781D01*
X187818386Y-88487715D01*
X187652786Y-88608028D01*
X187508028Y-88752786D01*
X187387715Y-88918386D01*
X187294781Y-89100776D01*
X187231522Y-89295465D01*
X187199500Y-89497648D01*
X167689596Y-89497648D01*
X167657220Y-89434108D01*
X167601597Y-89324941D01*
X167580182Y-89295466D01*
X167482437Y-89160930D01*
X167482433Y-89160925D01*
X167339074Y-89017566D01*
X167339069Y-89017562D01*
X167175062Y-88898405D01*
X167175061Y-88898404D01*
X167175059Y-88898403D01*
X167090488Y-88855312D01*
X166994420Y-88806362D01*
X166994417Y-88806361D01*
X166801608Y-88743715D01*
X166644951Y-88718903D01*
X166601368Y-88712000D01*
X166398632Y-88712000D01*
X166355049Y-88718903D01*
X166198391Y-88743715D01*
X166005582Y-88806361D01*
X166005579Y-88806362D01*
X165824937Y-88898405D01*
X165660930Y-89017562D01*
X165660925Y-89017566D01*
X165517562Y-89160929D01*
X165506002Y-89176841D01*
X165450671Y-89219505D01*
X165381058Y-89225483D01*
X165319263Y-89192875D01*
X165284908Y-89132036D01*
X165282396Y-89117206D01*
X165281096Y-89105120D01*
X165230854Y-88970413D01*
X165230850Y-88970406D01*
X165144690Y-88855312D01*
X165144687Y-88855309D01*
X165029593Y-88769149D01*
X165029586Y-88769145D01*
X164894879Y-88718903D01*
X164894872Y-88718901D01*
X164835344Y-88712500D01*
X164250000Y-88712500D01*
X164250000Y-89538120D01*
X164202642Y-89510778D01*
X164069118Y-89475000D01*
X163930882Y-89475000D01*
X163797358Y-89510778D01*
X163750000Y-89538120D01*
X163750000Y-88712500D01*
X163164655Y-88712500D01*
X163105127Y-88718901D01*
X163105120Y-88718903D01*
X162970413Y-88769145D01*
X162970406Y-88769149D01*
X162855312Y-88855309D01*
X162855309Y-88855312D01*
X162769149Y-88970406D01*
X162769145Y-88970413D01*
X162718903Y-89105120D01*
X162718901Y-89105127D01*
X162712500Y-89164655D01*
X157985143Y-89164655D01*
X157982437Y-89160930D01*
X157982433Y-89160925D01*
X157839074Y-89017566D01*
X157839069Y-89017562D01*
X157675062Y-88898405D01*
X157675061Y-88898404D01*
X157675059Y-88898403D01*
X157590488Y-88855312D01*
X157494420Y-88806362D01*
X157494417Y-88806361D01*
X157301608Y-88743715D01*
X157144951Y-88718903D01*
X157101368Y-88712000D01*
X156898632Y-88712000D01*
X156855049Y-88718903D01*
X156698391Y-88743715D01*
X156505582Y-88806361D01*
X156505579Y-88806362D01*
X156324937Y-88898405D01*
X156160930Y-89017562D01*
X156160925Y-89017566D01*
X156017562Y-89160929D01*
X156006002Y-89176841D01*
X155950671Y-89219505D01*
X155881058Y-89225483D01*
X155819263Y-89192875D01*
X155784908Y-89132036D01*
X155782396Y-89117206D01*
X155781096Y-89105120D01*
X155730854Y-88970413D01*
X155730850Y-88970406D01*
X155644690Y-88855312D01*
X155644687Y-88855309D01*
X155529593Y-88769149D01*
X155529586Y-88769145D01*
X155394879Y-88718903D01*
X155394872Y-88718901D01*
X155335344Y-88712500D01*
X154750000Y-88712500D01*
X154750000Y-89538120D01*
X154702642Y-89510778D01*
X154569118Y-89475000D01*
X154430882Y-89475000D01*
X154297358Y-89510778D01*
X154250000Y-89538120D01*
X154250000Y-88712500D01*
X153664655Y-88712500D01*
X153605127Y-88718901D01*
X153605120Y-88718903D01*
X153470413Y-88769145D01*
X153470406Y-88769149D01*
X153355312Y-88855309D01*
X153355309Y-88855312D01*
X153269149Y-88970406D01*
X153269145Y-88970413D01*
X153218903Y-89105120D01*
X153218901Y-89105127D01*
X153212500Y-89164655D01*
X108792220Y-89164655D01*
X108755220Y-89050781D01*
X108755218Y-89050778D01*
X108755218Y-89050776D01*
X108677579Y-88898403D01*
X108662287Y-88868390D01*
X108652783Y-88855309D01*
X108541971Y-88702786D01*
X108397213Y-88558028D01*
X108231613Y-88437715D01*
X108231612Y-88437714D01*
X108231610Y-88437713D01*
X108168359Y-88405485D01*
X108049223Y-88344781D01*
X107854534Y-88281522D01*
X107679995Y-88253878D01*
X107652352Y-88249500D01*
X107447648Y-88249500D01*
X107423329Y-88253351D01*
X107245465Y-88281522D01*
X107050776Y-88344781D01*
X106868386Y-88437715D01*
X106702786Y-88558028D01*
X106558028Y-88702786D01*
X106437715Y-88868386D01*
X106344781Y-89050776D01*
X106281522Y-89245465D01*
X106249500Y-89447648D01*
X103500500Y-89447648D01*
X103500500Y-89153050D01*
X103500649Y-89146966D01*
X103512860Y-88898403D01*
X103517774Y-88798365D01*
X103518967Y-88786258D01*
X103521505Y-88769149D01*
X103569732Y-88444029D01*
X103572100Y-88432122D01*
X103656169Y-88096500D01*
X103659699Y-88084867D01*
X103668367Y-88060644D01*
X103776249Y-87759133D01*
X103780904Y-87747896D01*
X103815453Y-87674846D01*
X103928831Y-87435127D01*
X103934550Y-87424427D01*
X104112425Y-87127662D01*
X104119168Y-87117569D01*
X104325280Y-86839659D01*
X104332983Y-86830274D01*
X104565339Y-86573909D01*
X104573909Y-86565339D01*
X104830274Y-86332983D01*
X104839659Y-86325280D01*
X105117569Y-86119168D01*
X105127662Y-86112425D01*
X105424427Y-85934550D01*
X105435127Y-85928831D01*
X105747896Y-85780904D01*
X105759133Y-85776249D01*
X106084875Y-85659696D01*
X106096500Y-85656169D01*
X106432122Y-85572100D01*
X106444029Y-85569732D01*
X106786261Y-85518966D01*
X106798365Y-85517774D01*
X107146967Y-85500649D01*
X107153051Y-85500500D01*
X107215892Y-85500500D01*
X188434108Y-85500500D01*
X188497128Y-85500500D01*
X188502855Y-85500632D01*
G37*
%TD.AperFunction*%
%TD*%
M02*
