%TF.GenerationSoftware,KiCad,Pcbnew,9.0.3*%
%TF.CreationDate,2026-04-16T20:45:40-04:00*%
%TF.ProjectId,Switchbox,53776974-6368-4626-9f78-2e6b69636164,rev?*%
%TF.SameCoordinates,Original*%
%TF.FileFunction,Paste,Top*%
%TF.FilePolarity,Positive*%
%FSLAX46Y46*%
G04 Gerber Fmt 4.6, Leading zero omitted, Abs format (unit mm)*
G04 Created by KiCad (PCBNEW 9.0.3) date 2026-04-16 20:45:40*
%MOMM*%
%LPD*%
G01*
G04 APERTURE LIST*
G04 Aperture macros list*
%AMRoundRect*
0 Rectangle with rounded corners*
0 $1 Rounding radius*
0 $2 $3 $4 $5 $6 $7 $8 $9 X,Y pos of 4 corners*
0 Add a 4 corners polygon primitive as box body*
4,1,4,$2,$3,$4,$5,$6,$7,$8,$9,$2,$3,0*
0 Add four circle primitives for the rounded corners*
1,1,$1+$1,$2,$3*
1,1,$1+$1,$4,$5*
1,1,$1+$1,$6,$7*
1,1,$1+$1,$8,$9*
0 Add four rect primitives between the rounded corners*
20,1,$1+$1,$2,$3,$4,$5,0*
20,1,$1+$1,$4,$5,$6,$7,0*
20,1,$1+$1,$6,$7,$8,$9,0*
20,1,$1+$1,$8,$9,$2,$3,0*%
G04 Aperture macros list end*
%ADD10RoundRect,0.250000X-0.450000X0.350000X-0.450000X-0.350000X0.450000X-0.350000X0.450000X0.350000X0*%
%ADD11RoundRect,0.250000X0.350000X0.450000X-0.350000X0.450000X-0.350000X-0.450000X0.350000X-0.450000X0*%
%ADD12RoundRect,0.250000X0.450000X-0.350000X0.450000X0.350000X-0.450000X0.350000X-0.450000X-0.350000X0*%
%ADD13R,0.400000X0.380000*%
%ADD14RoundRect,0.138750X-0.416250X-0.596250X0.416250X-0.596250X0.416250X0.596250X-0.416250X0.596250X0*%
%ADD15R,1.320000X1.910000*%
%ADD16RoundRect,0.250000X-0.350000X-0.450000X0.350000X-0.450000X0.350000X0.450000X-0.350000X0.450000X0*%
%ADD17RoundRect,0.150000X-0.512500X-0.150000X0.512500X-0.150000X0.512500X0.150000X-0.512500X0.150000X0*%
%ADD18R,1.193800X0.711200*%
%ADD19R,1.193800X0.762000*%
%ADD20R,1.193800X0.812800*%
%ADD21R,0.380000X0.400000*%
%ADD22R,0.640000X0.720000*%
%ADD23RoundRect,0.090000X0.139000X0.090000X-0.139000X0.090000X-0.139000X-0.090000X0.139000X-0.090000X0*%
G04 APERTURE END LIST*
D10*
%TO.C,R3a1*%
X141000000Y-143000000D03*
X141000000Y-145000000D03*
%TD*%
D11*
%TO.C,R6*%
X149000000Y-92500000D03*
X147000000Y-92500000D03*
%TD*%
D12*
%TO.C,R4*%
X190500000Y-119500000D03*
X190500000Y-117500000D03*
%TD*%
D13*
%TO.C,C2*%
X160000000Y-144719000D03*
X160000000Y-145281000D03*
%TD*%
D14*
%TO.C,C6*%
X120100000Y-123000000D03*
X121900000Y-123000000D03*
%TD*%
D15*
%TO.C,C3*%
X167946000Y-143000000D03*
X165054000Y-143000000D03*
%TD*%
D16*
%TO.C,R3b1*%
X140190000Y-139000000D03*
X142190000Y-139000000D03*
%TD*%
D17*
%TO.C,U2*%
X154696000Y-144500000D03*
X154696000Y-145450000D03*
X154696000Y-146400000D03*
X156971000Y-146400000D03*
X156971000Y-145450000D03*
X156971000Y-144500000D03*
%TD*%
D13*
%TO.C,C7*%
X120775000Y-128810000D03*
X120775000Y-128248000D03*
%TD*%
D18*
%TO.C,J1*%
X184610500Y-140479999D03*
D19*
X184610500Y-138460000D03*
D20*
X184610500Y-137230000D03*
D18*
X184610500Y-139480001D03*
D19*
X184610500Y-141500000D03*
D20*
X184610500Y-142730000D03*
%TD*%
D12*
%TO.C,R3*%
X187000000Y-119500000D03*
X187000000Y-117500000D03*
%TD*%
D11*
%TO.C,R5*%
X149000000Y-88500000D03*
X147000000Y-88500000D03*
%TD*%
%TO.C,R7*%
X122500000Y-134000000D03*
X120500000Y-134000000D03*
%TD*%
D21*
%TO.C,C5*%
X120479000Y-125090000D03*
X121041000Y-125090000D03*
%TD*%
D22*
%TO.C,C1*%
X155507000Y-149000000D03*
X156385000Y-149000000D03*
%TD*%
D15*
%TO.C,C4*%
X167946000Y-147500000D03*
X165054000Y-147500000D03*
%TD*%
D23*
%TO.C,L1*%
X156432500Y-142000000D03*
X155567500Y-142000000D03*
%TD*%
D12*
%TO.C,R2*%
X182500000Y-124000000D03*
X182500000Y-122000000D03*
%TD*%
%TO.C,R1*%
X178500000Y-124000000D03*
X178500000Y-122000000D03*
%TD*%
M02*
