%TF.GenerationSoftware,KiCad,Pcbnew,9.0.3*%
%TF.CreationDate,2026-04-16T20:45:40-04:00*%
%TF.ProjectId,Switchbox,53776974-6368-4626-9f78-2e6b69636164,rev?*%
%TF.SameCoordinates,Original*%
%TF.FileFunction,Copper,L1,Top*%
%TF.FilePolarity,Positive*%
%FSLAX46Y46*%
G04 Gerber Fmt 4.6, Leading zero omitted, Abs format (unit mm)*
G04 Created by KiCad (PCBNEW 9.0.3) date 2026-04-16 20:45:40*
%MOMM*%
%LPD*%
G01*
G04 APERTURE LIST*
G04 Aperture macros list*
%AMRoundRect*
0 Rectangle with rounded corners*
0 $1 Rounding radius*
0 $2 $3 $4 $5 $6 $7 $8 $9 X,Y pos of 4 corners*
0 Add a 4 corners polygon primitive as box body*
4,1,4,$2,$3,$4,$5,$6,$7,$8,$9,$2,$3,0*
0 Add four circle primitives for the rounded corners*
1,1,$1+$1,$2,$3*
1,1,$1+$1,$4,$5*
1,1,$1+$1,$6,$7*
1,1,$1+$1,$8,$9*
0 Add four rect primitives between the rounded corners*
20,1,$1+$1,$2,$3,$4,$5,0*
20,1,$1+$1,$4,$5,$6,$7,0*
20,1,$1+$1,$6,$7,$8,$9,0*
20,1,$1+$1,$8,$9,$2,$3,0*%
G04 Aperture macros list end*
%TA.AperFunction,ComponentPad*%
%ADD10R,1.575000X1.575000*%
%TD*%
%TA.AperFunction,ComponentPad*%
%ADD11C,1.575000*%
%TD*%
%TA.AperFunction,ComponentPad*%
%ADD12R,1.508000X1.508000*%
%TD*%
%TA.AperFunction,ComponentPad*%
%ADD13C,1.508000*%
%TD*%
%TA.AperFunction,SMDPad,CuDef*%
%ADD14RoundRect,0.250000X-0.450000X0.350000X-0.450000X-0.350000X0.450000X-0.350000X0.450000X0.350000X0*%
%TD*%
%TA.AperFunction,SMDPad,CuDef*%
%ADD15RoundRect,0.250000X0.350000X0.450000X-0.350000X0.450000X-0.350000X-0.450000X0.350000X-0.450000X0*%
%TD*%
%TA.AperFunction,SMDPad,CuDef*%
%ADD16RoundRect,0.250000X0.450000X-0.350000X0.450000X0.350000X-0.450000X0.350000X-0.450000X-0.350000X0*%
%TD*%
%TA.AperFunction,SMDPad,CuDef*%
%ADD17R,0.400000X0.380000*%
%TD*%
%TA.AperFunction,SMDPad,CuDef*%
%ADD18RoundRect,0.138750X-0.416250X-0.596250X0.416250X-0.596250X0.416250X0.596250X-0.416250X0.596250X0*%
%TD*%
%TA.AperFunction,SMDPad,CuDef*%
%ADD19R,1.320000X1.910000*%
%TD*%
%TA.AperFunction,SMDPad,CuDef*%
%ADD20RoundRect,0.250000X-0.350000X-0.450000X0.350000X-0.450000X0.350000X0.450000X-0.350000X0.450000X0*%
%TD*%
%TA.AperFunction,SMDPad,CuDef*%
%ADD21RoundRect,0.150000X-0.512500X-0.150000X0.512500X-0.150000X0.512500X0.150000X-0.512500X0.150000X0*%
%TD*%
%TA.AperFunction,WasherPad*%
%ADD22O,1.701800X1.092200*%
%TD*%
%TA.AperFunction,SMDPad,CuDef*%
%ADD23R,1.193800X0.711200*%
%TD*%
%TA.AperFunction,SMDPad,CuDef*%
%ADD24R,1.193800X0.762000*%
%TD*%
%TA.AperFunction,SMDPad,CuDef*%
%ADD25R,1.193800X0.812800*%
%TD*%
%TA.AperFunction,ComponentPad*%
%ADD26C,1.700000*%
%TD*%
%TA.AperFunction,ComponentPad*%
%ADD27R,1.600000X1.600000*%
%TD*%
%TA.AperFunction,ComponentPad*%
%ADD28O,1.600000X1.600000*%
%TD*%
%TA.AperFunction,SMDPad,CuDef*%
%ADD29R,0.380000X0.400000*%
%TD*%
%TA.AperFunction,SMDPad,CuDef*%
%ADD30R,0.640000X0.720000*%
%TD*%
%TA.AperFunction,SMDPad,CuDef*%
%ADD31RoundRect,0.100000X0.217500X0.100000X-0.217500X0.100000X-0.217500X-0.100000X0.217500X-0.100000X0*%
%TD*%
%TA.AperFunction,ViaPad*%
%ADD32C,0.600000*%
%TD*%
%TA.AperFunction,Conductor*%
%ADD33C,0.127000*%
%TD*%
%TA.AperFunction,Conductor*%
%ADD34C,0.600000*%
%TD*%
%TA.AperFunction,Conductor*%
%ADD35C,0.150000*%
%TD*%
G04 APERTURE END LIST*
D10*
%TO.P,D6,1,K*%
%TO.N,GND*%
X164000000Y-90000000D03*
D11*
%TO.P,D6,2,A*%
%TO.N,Net-(D6-A)*%
X166500000Y-90000000D03*
%TD*%
D10*
%TO.P,D5,1,K*%
%TO.N,GND*%
X154500000Y-90000000D03*
D11*
%TO.P,D5,2,A*%
%TO.N,Net-(D5-A)*%
X157000000Y-90000000D03*
%TD*%
D12*
%TO.P,SW2,1,A*%
%TO.N,GND*%
X153200000Y-131125000D03*
D13*
%TO.P,SW2,2,B*%
%TO.N,LED2_STATE*%
X150700000Y-131125000D03*
%TO.P,SW2,3,C*%
%TO.N,Net-(D2-K)*%
X148200000Y-131125000D03*
%TD*%
D10*
%TO.P,D3,1,K*%
%TO.N,Net-(D3-K)*%
X161500000Y-118000000D03*
D11*
%TO.P,D3,2,A*%
%TO.N,Net-(D3-A)*%
X164000000Y-118000000D03*
%TD*%
D14*
%TO.P,R3a1,1*%
%TO.N,Net-(U2-EN)*%
X141000000Y-143000000D03*
%TO.P,R3a1,2*%
%TO.N,Sys_Vin*%
X141000000Y-145000000D03*
%TD*%
D15*
%TO.P,R6,1*%
%TO.N,Net-(D6-A)*%
X149000000Y-92500000D03*
%TO.P,R6,2*%
%TO.N,LED6_PWR*%
X147000000Y-92500000D03*
%TD*%
D16*
%TO.P,R4,1*%
%TO.N,Net-(D4-A)*%
X190500000Y-119500000D03*
%TO.P,R4,2*%
%TO.N,LED4_PWR*%
X190500000Y-117500000D03*
%TD*%
D17*
%TO.P,C2,1*%
%TO.N,Net-(U2-BST)*%
X160000000Y-144719000D03*
%TO.P,C2,2*%
%TO.N,Net-(U2-SW)*%
X160000000Y-145281000D03*
%TD*%
D12*
%TO.P,SW4,1,A*%
%TO.N,GND*%
X177200000Y-131000000D03*
D13*
%TO.P,SW4,2,B*%
%TO.N,LED4_STATE*%
X174700000Y-131000000D03*
%TO.P,SW4,3,C*%
%TO.N,Net-(D4-K)*%
X172200000Y-131000000D03*
%TD*%
D18*
%TO.P,C6,1*%
%TO.N,BOX_STATE*%
X120100000Y-123000000D03*
%TO.P,C6,2*%
%TO.N,GND*%
X121900000Y-123000000D03*
%TD*%
D10*
%TO.P,D1,1,K*%
%TO.N,Net-(D1-K)*%
X144000000Y-118000000D03*
D11*
%TO.P,D1,2,A*%
%TO.N,Net-(D1-A)*%
X146500000Y-118000000D03*
%TD*%
D12*
%TO.P,SW3,1,A*%
%TO.N,GND*%
X165000000Y-131000000D03*
D13*
%TO.P,SW3,2,B*%
%TO.N,LED3_STATE*%
X162500000Y-131000000D03*
%TO.P,SW3,3,C*%
%TO.N,Net-(D3-K)*%
X160000000Y-131000000D03*
%TD*%
D19*
%TO.P,C3,1*%
%TO.N,3.3VBuck*%
X167946000Y-143000000D03*
%TO.P,C3,2*%
%TO.N,GND*%
X165054000Y-143000000D03*
%TD*%
D20*
%TO.P,R3b1,1*%
%TO.N,Net-(U2-EN)*%
X140190000Y-139000000D03*
%TO.P,R3b1,2*%
%TO.N,GND*%
X142190000Y-139000000D03*
%TD*%
D21*
%TO.P,U2,1,FB*%
%TO.N,3.3VBuck*%
X154696000Y-144500000D03*
%TO.P,U2,2,EN*%
%TO.N,Net-(U2-EN)*%
X154696000Y-145450000D03*
%TO.P,U2,3,IN*%
%TO.N,Sys_Vin*%
X154696000Y-146400000D03*
%TO.P,U2,4,GND*%
%TO.N,GND*%
X156971000Y-146400000D03*
%TO.P,U2,5,SW*%
%TO.N,Net-(U2-SW)*%
X156971000Y-145450000D03*
%TO.P,U2,6,BST*%
%TO.N,Net-(U2-BST)*%
X156971000Y-144500000D03*
%TD*%
D10*
%TO.P,D2,1,K*%
%TO.N,Net-(D2-K)*%
X152800000Y-118100000D03*
D11*
%TO.P,D2,2,A*%
%TO.N,Net-(D2-A)*%
X155300000Y-118100000D03*
%TD*%
D17*
%TO.P,C7,1*%
%TO.N,Net-(SW5-A)*%
X120775000Y-128810000D03*
%TO.P,C7,2*%
%TO.N,GND*%
X120775000Y-128248000D03*
%TD*%
D12*
%TO.P,SW5,1,1*%
%TO.N,GND*%
X114585000Y-132310000D03*
D13*
%TO.P,SW5,2,2*%
%TO.N,Net-(SW5-A)*%
X112085000Y-132310000D03*
%TO.P,SW5,3,K*%
%TO.N,GND*%
X109585000Y-132310000D03*
%TO.P,SW5,4,A*%
%TO.N,Net-(SW5-A)*%
X107085000Y-132310000D03*
%TD*%
D12*
%TO.P,SW1,1,A*%
%TO.N,GND*%
X141500000Y-131000000D03*
D13*
%TO.P,SW1,2,B*%
%TO.N,LED1_STATE*%
X139000000Y-131000000D03*
%TO.P,SW1,3,C*%
%TO.N,Net-(D1-K)*%
X136500000Y-131000000D03*
%TD*%
D22*
%TO.P,J1,*%
%TO.N,*%
X184690500Y-144300002D03*
X188490500Y-144299999D03*
X188490500Y-135660001D03*
X184690500Y-135659998D03*
D23*
%TO.P,J1,A5,CC1*%
%TO.N,unconnected-(J1-CC1-PadA5)*%
X184610500Y-140479999D03*
D24*
%TO.P,J1,A9,GND*%
%TO.N,unconnected-(J1-GND-PadA9)*%
X184610500Y-138460000D03*
D25*
%TO.P,J1,A12,VBUS*%
%TO.N,unconnected-(J1-VBUS-PadA12)*%
X184610500Y-137230000D03*
D23*
%TO.P,J1,B5,VBUS*%
%TO.N,Sys_Vin*%
X184610500Y-139480001D03*
D24*
%TO.P,J1,B9,CC2*%
%TO.N,unconnected-(J1-CC2-PadB9)*%
X184610500Y-141500000D03*
D25*
%TO.P,J1,B12,GND*%
%TO.N,GND*%
X184610500Y-142730000D03*
%TD*%
D16*
%TO.P,R3,1*%
%TO.N,Net-(D3-A)*%
X187000000Y-119500000D03*
%TO.P,R3,2*%
%TO.N,LED3_PWR*%
X187000000Y-117500000D03*
%TD*%
D15*
%TO.P,R5,1*%
%TO.N,Net-(D5-A)*%
X149000000Y-88500000D03*
%TO.P,R5,2*%
%TO.N,LED5_PWR*%
X147000000Y-88500000D03*
%TD*%
%TO.P,R7,1*%
%TO.N,BUTTON*%
X122500000Y-134000000D03*
%TO.P,R7,2*%
%TO.N,Net-(SW5-A)*%
X120500000Y-134000000D03*
%TD*%
D26*
%TO.P,XBEE1,1,VCC*%
%TO.N,BOX_STATE*%
X115000000Y-119650000D03*
%TO.P,XBEE1,2,DOUT*%
%TO.N,FROM_XBEE*%
X117000000Y-119650000D03*
%TO.P,XBEE1,3,DIN/CONFIG*%
%TO.N,TO_XBEE*%
X119000000Y-119650000D03*
%TO.P,XBEE1,4,DIO12*%
%TO.N,unconnected-(XBEE1-DIO12-Pad4)*%
X121000000Y-119650000D03*
%TO.P,XBEE1,5,RESET*%
%TO.N,unconnected-(XBEE1-RESET-Pad5)*%
X123000000Y-119650000D03*
%TO.P,XBEE1,6,PWM0/RSSI/DIO10*%
%TO.N,unconnected-(XBEE1-PWM0{slash}RSSI{slash}DIO10-Pad6)*%
X125000000Y-119650000D03*
%TO.P,XBEE1,7,DIO11*%
%TO.N,unconnected-(XBEE1-DIO11-Pad7)*%
X127000000Y-119650000D03*
%TO.P,XBEE1,8,RESERVED*%
%TO.N,unconnected-(XBEE1-RESERVED-Pad8)*%
X129000000Y-119650000D03*
%TO.P,XBEE1,9,DET/SLEEP_RQ/DIO8*%
%TO.N,unconnected-(XBEE1-DET{slash}SLEEP_RQ{slash}DIO8-Pad9)*%
X131000000Y-119650000D03*
%TO.P,XBEE1,10,GND*%
%TO.N,GND*%
X133000000Y-119650000D03*
%TO.P,XBEE1,11,DIO4*%
%TO.N,unconnected-(XBEE1-DIO4-Pad11)*%
X133000000Y-97650000D03*
%TO.P,XBEE1,12,CTS/DIO7*%
%TO.N,unconnected-(XBEE1-CTS{slash}DIO7-Pad12)*%
X131000000Y-97650000D03*
%TO.P,XBEE1,13,ON/SLEEP*%
%TO.N,unconnected-(XBEE1-ON{slash}SLEEP-Pad13)*%
X129000000Y-97650000D03*
%TO.P,XBEE1,14,VREF*%
%TO.N,unconnected-(XBEE1-VREF-Pad14)*%
X127000000Y-97650000D03*
%TO.P,XBEE1,15,ASC/DIO5*%
%TO.N,unconnected-(XBEE1-ASC{slash}DIO5-Pad15)*%
X125000000Y-97650000D03*
%TO.P,XBEE1,16,RTS/DIO6*%
%TO.N,unconnected-(XBEE1-RTS{slash}DIO6-Pad16)*%
X123000000Y-97650000D03*
%TO.P,XBEE1,17,AD3/DIO3*%
%TO.N,unconnected-(XBEE1-AD3{slash}DIO3-Pad17)*%
X121000000Y-97650000D03*
%TO.P,XBEE1,18,AD2/DIO2*%
%TO.N,unconnected-(XBEE1-AD2{slash}DIO2-Pad18)*%
X119000000Y-97650000D03*
%TO.P,XBEE1,19,AD1/DIO1*%
%TO.N,unconnected-(XBEE1-AD1{slash}DIO1-Pad19)*%
X117000000Y-97650000D03*
%TO.P,XBEE1,20,AD0/DIO0/CMSN_BTN*%
%TO.N,unconnected-(XBEE1-AD0{slash}DIO0{slash}CMSN_BTN-Pad20)*%
X115000000Y-97650000D03*
%TD*%
D27*
%TO.P,A2,1,D1/TX*%
%TO.N,TO_XBEE*%
X149600000Y-111500000D03*
D28*
%TO.P,A2,2,D0/RX*%
%TO.N,FROM_XBEE*%
X152140000Y-111500000D03*
%TO.P,A2,3,~{RESET}*%
%TO.N,unconnected-(A2-~{RESET}-Pad3)*%
X154680000Y-111500000D03*
%TO.P,A2,4,GND*%
%TO.N,GND*%
X157220000Y-111500000D03*
%TO.P,A2,5,D2*%
%TO.N,LED4_STATE*%
X159760000Y-111500000D03*
%TO.P,A2,6,D3*%
%TO.N,LED3_STATE*%
X162300000Y-111500000D03*
%TO.P,A2,7,D4*%
%TO.N,LED2_STATE*%
X164840000Y-111500000D03*
%TO.P,A2,8,D5*%
%TO.N,LED1_STATE*%
X167380000Y-111500000D03*
%TO.P,A2,9,D6*%
%TO.N,LED1_PWR*%
X169920000Y-111500000D03*
%TO.P,A2,10,D7*%
%TO.N,LED2_PWR*%
X172460000Y-111500000D03*
%TO.P,A2,11,D8*%
%TO.N,LED3_PWR*%
X175000000Y-111500000D03*
%TO.P,A2,12,D9*%
%TO.N,LED4_PWR*%
X177540000Y-111500000D03*
%TO.P,A2,13,D10*%
%TO.N,LED5_PWR*%
X180080000Y-111500000D03*
%TO.P,A2,14,D11*%
%TO.N,LED6_PWR*%
X182620000Y-111500000D03*
%TO.P,A2,15,D12*%
%TO.N,BUTTON*%
X185160000Y-111500000D03*
%TO.P,A2,16,D13*%
%TO.N,unconnected-(A2-D13-Pad16)*%
X185160000Y-96260000D03*
%TO.P,A2,17,3V3*%
%TO.N,BOX_STATE*%
X182620000Y-96260000D03*
%TO.P,A2,18,AREF*%
%TO.N,unconnected-(A2-AREF-Pad18)*%
X180080000Y-96260000D03*
%TO.P,A2,19,A0*%
%TO.N,unconnected-(A2-A0-Pad19)*%
X177540000Y-96260000D03*
%TO.P,A2,20,A1*%
%TO.N,unconnected-(A2-A1-Pad20)*%
X175000000Y-96260000D03*
%TO.P,A2,21,A2*%
%TO.N,unconnected-(A2-A2-Pad21)*%
X172460000Y-96260000D03*
%TO.P,A2,22,A3*%
%TO.N,unconnected-(A2-A3-Pad22)*%
X169920000Y-96260000D03*
%TO.P,A2,23,A4*%
%TO.N,unconnected-(A2-A4-Pad23)*%
X167380000Y-96260000D03*
%TO.P,A2,24,A5*%
%TO.N,unconnected-(A2-A5-Pad24)*%
X164840000Y-96260000D03*
%TO.P,A2,25,A6*%
%TO.N,unconnected-(A2-A6-Pad25)*%
X162300000Y-96260000D03*
%TO.P,A2,26,A7*%
%TO.N,unconnected-(A2-A7-Pad26)*%
X159760000Y-96260000D03*
%TO.P,A2,27,+5V*%
%TO.N,+5V*%
X157220000Y-96260000D03*
%TO.P,A2,28,~{RESET}*%
%TO.N,unconnected-(A2-~{RESET}-Pad28)*%
X154680000Y-96260000D03*
%TO.P,A2,29,GND*%
%TO.N,GND*%
X152140000Y-96260000D03*
%TO.P,A2,30,VIN*%
%TO.N,unconnected-(A2-VIN-Pad30)*%
X149600000Y-96260000D03*
%TD*%
D29*
%TO.P,C5,1*%
%TO.N,BOX_STATE*%
X120479000Y-125090000D03*
%TO.P,C5,2*%
%TO.N,GND*%
X121041000Y-125090000D03*
%TD*%
D12*
%TO.P,SW6,1,A*%
%TO.N,GND*%
X179350000Y-90800000D03*
D13*
%TO.P,SW6,2,B*%
%TO.N,BOX_STATE*%
X176850000Y-90800000D03*
%TO.P,SW6,3,C*%
%TO.N,3.3VBuck*%
X174350000Y-90800000D03*
%TD*%
D30*
%TO.P,C1,1*%
%TO.N,Sys_Vin*%
X155507000Y-149000000D03*
%TO.P,C1,2*%
%TO.N,GND*%
X156385000Y-149000000D03*
%TD*%
D19*
%TO.P,C4,1*%
%TO.N,3.3VBuck*%
X167946000Y-147500000D03*
%TO.P,C4,2*%
%TO.N,GND*%
X165054000Y-147500000D03*
%TD*%
D31*
%TO.P,L1,1,1*%
%TO.N,Net-(U2-SW)*%
X156407500Y-142000000D03*
%TO.P,L1,2,2*%
%TO.N,3.3VBuck*%
X155592500Y-142000000D03*
%TD*%
D16*
%TO.P,R2,1*%
%TO.N,Net-(D2-A)*%
X182500000Y-124000000D03*
%TO.P,R2,2*%
%TO.N,LED2_PWR*%
X182500000Y-122000000D03*
%TD*%
%TO.P,R1,1*%
%TO.N,Net-(D1-A)*%
X178500000Y-124000000D03*
%TO.P,R1,2*%
%TO.N,LED1_PWR*%
X178500000Y-122000000D03*
%TD*%
D10*
%TO.P,D4,1,K*%
%TO.N,Net-(D4-K)*%
X170500000Y-118000000D03*
D11*
%TO.P,D4,2,A*%
%TO.N,Net-(D4-A)*%
X173000000Y-118000000D03*
%TD*%
D32*
%TO.N,GND*%
X163068000Y-143002000D03*
X158430000Y-146400000D03*
X133040000Y-121610000D03*
X151000000Y-91500000D03*
X123700000Y-123040000D03*
X163500000Y-147510000D03*
X168410000Y-132380000D03*
X182118000Y-144018000D03*
X157250000Y-113940000D03*
X157500000Y-149000000D03*
%TO.N,BOX_STATE*%
X149500000Y-106200000D03*
X149500000Y-100500000D03*
%TO.N,LED2_STATE*%
X164500000Y-127000000D03*
%TO.N,BUTTON*%
X185000000Y-134000000D03*
%TO.N,LED2_PWR*%
X182500000Y-114000000D03*
X182500000Y-120500000D03*
%TO.N,LED1_STATE*%
X167500000Y-126000000D03*
%TO.N,LED1_PWR*%
X178500000Y-120500000D03*
X178500000Y-114500000D03*
%TO.N,LED4_STATE*%
X158500000Y-125000000D03*
%TO.N,Net-(D2-K)*%
X152325000Y-127000000D03*
%TO.N,Net-(D3-K)*%
X161000000Y-130000000D03*
%TO.N,Net-(D4-K)*%
X170500000Y-130500000D03*
%TO.N,3.3VBuck*%
X169000000Y-141000000D03*
%TD*%
D33*
%TO.N,LED6_PWR*%
X181000000Y-107000000D02*
X182620000Y-108620000D01*
X140500000Y-92500000D02*
X147000000Y-92500000D01*
X140440000Y-92560000D02*
X154880000Y-107000000D01*
X154880000Y-107000000D02*
X181000000Y-107000000D01*
X182620000Y-108620000D02*
X182620000Y-111500000D01*
X140440000Y-92560000D02*
X140500000Y-92500000D01*
D34*
%TO.N,GND*%
X183406000Y-142730000D02*
X182118000Y-144018000D01*
X156971000Y-146400000D02*
X158430000Y-146400000D01*
X154500000Y-90000000D02*
X153000000Y-91500000D01*
D33*
X120775000Y-128248000D02*
X121041000Y-127982000D01*
D34*
X156385000Y-149000000D02*
X157500000Y-149000000D01*
X166380000Y-132380000D02*
X168410000Y-132380000D01*
X157220000Y-111500000D02*
X157220000Y-113910000D01*
X121900000Y-123000000D02*
X123660000Y-123000000D01*
D33*
X120775000Y-128248000D02*
X118647000Y-128248000D01*
D34*
X165054000Y-143000000D02*
X163070000Y-143000000D01*
X165054000Y-147500000D02*
X163510000Y-147500000D01*
X163070000Y-143000000D02*
X163068000Y-143002000D01*
X184610500Y-142730000D02*
X183406000Y-142730000D01*
D33*
X123660000Y-123000000D02*
X123700000Y-123040000D01*
X121900000Y-123000000D02*
X121900000Y-124231000D01*
D34*
X133000000Y-119650000D02*
X133000000Y-121570000D01*
X165000000Y-131000000D02*
X166380000Y-132380000D01*
D33*
X157220000Y-113910000D02*
X157250000Y-113940000D01*
X121041000Y-127982000D02*
X121041000Y-125090000D01*
X118647000Y-128248000D02*
X114585000Y-132310000D01*
D35*
X133000000Y-121570000D02*
X133040000Y-121610000D01*
D34*
X163510000Y-147500000D02*
X163500000Y-147510000D01*
X153000000Y-91500000D02*
X151000000Y-91500000D01*
D33*
X121900000Y-124231000D02*
X121041000Y-125090000D01*
%TO.N,BOX_STATE*%
X118350000Y-123000000D02*
X115000000Y-119650000D01*
X150500000Y-99500000D02*
X149500000Y-100500000D01*
X177160000Y-90800000D02*
X176850000Y-90800000D01*
X120479000Y-123379000D02*
X120100000Y-123000000D01*
X120479000Y-125090000D02*
X120479000Y-123379000D01*
X149500000Y-106200000D02*
X128450000Y-106200000D01*
X150500000Y-99500000D02*
X179380000Y-99500000D01*
X120100000Y-123000000D02*
X118350000Y-123000000D01*
X182620000Y-96260000D02*
X177160000Y-90800000D01*
X128450000Y-106200000D02*
X115000000Y-119650000D01*
X179380000Y-99500000D02*
X182620000Y-96260000D01*
%TO.N,LED2_STATE*%
X150700000Y-131125000D02*
X154825000Y-127000000D01*
X154825000Y-127000000D02*
X164500000Y-127000000D01*
%TO.N,LED4_PWR*%
X185491500Y-112491500D02*
X190500000Y-117500000D01*
X178531500Y-112491500D02*
X185491500Y-112491500D01*
X177540000Y-111500000D02*
X178531500Y-112491500D01*
%TO.N,BUTTON*%
X185000000Y-134000000D02*
X122500000Y-134000000D01*
%TO.N,TO_XBEE*%
X127150000Y-111500000D02*
X149600000Y-111500000D01*
X119000000Y-119650000D02*
X127150000Y-111500000D01*
%TO.N,LED2_PWR*%
X172460000Y-111500000D02*
X174960000Y-114000000D01*
X182500000Y-120500000D02*
X182500000Y-122000000D01*
X174960000Y-114000000D02*
X182500000Y-114000000D01*
%TO.N,LED1_STATE*%
X144000000Y-126000000D02*
X167500000Y-126000000D01*
X139000000Y-131000000D02*
X144000000Y-126000000D01*
%TO.N,LED3_PWR*%
X177008500Y-113508500D02*
X183008500Y-113508500D01*
X175000000Y-111500000D02*
X177008500Y-113508500D01*
X183008500Y-113508500D02*
X187000000Y-117500000D01*
%TO.N,LED1_PWR*%
X172920000Y-114500000D02*
X178500000Y-114500000D01*
X169976667Y-111500000D02*
X169920000Y-111500000D01*
X172920000Y-114500000D02*
X169920000Y-111500000D01*
X178500000Y-120500000D02*
X178500000Y-122000000D01*
%TO.N,LED4_STATE*%
X168700000Y-125000000D02*
X174700000Y-131000000D01*
X158500000Y-125000000D02*
X168700000Y-125000000D01*
%TO.N,LED5_PWR*%
X140380000Y-88500000D02*
X139388500Y-89491500D01*
X177080000Y-108500000D02*
X180080000Y-111500000D01*
X139388500Y-94388500D02*
X153500000Y-108500000D01*
X153500000Y-108500000D02*
X177080000Y-108500000D01*
X140380000Y-88500000D02*
X147000000Y-88500000D01*
X139388500Y-89491500D02*
X139388500Y-94388500D01*
%TO.N,FROM_XBEE*%
X117000000Y-119650000D02*
X126141500Y-110508500D01*
X126141500Y-110508500D02*
X151148500Y-110508500D01*
X151148500Y-110508500D02*
X152140000Y-111500000D01*
%TO.N,Net-(D1-A)*%
X152500000Y-124000000D02*
X178500000Y-124000000D01*
X146500000Y-118000000D02*
X152500000Y-124000000D01*
%TO.N,Net-(D1-K)*%
X144000000Y-123500000D02*
X144000000Y-118000000D01*
X136500000Y-131000000D02*
X144000000Y-123500000D01*
%TO.N,Net-(D2-K)*%
X148200000Y-131125000D02*
X152325000Y-127000000D01*
%TO.N,Net-(D2-A)*%
X180000000Y-121500000D02*
X182500000Y-124000000D01*
X157200000Y-120000000D02*
X180000000Y-120000000D01*
X180000000Y-120000000D02*
X180000000Y-121500000D01*
X155300000Y-118100000D02*
X157200000Y-120000000D01*
%TO.N,Net-(D3-A)*%
X165500000Y-119500000D02*
X187000000Y-119500000D01*
X165500000Y-119500000D02*
X164000000Y-118000000D01*
%TO.N,Net-(D3-K)*%
X160000000Y-131000000D02*
X161000000Y-130000000D01*
%TO.N,Net-(D4-K)*%
X171000000Y-131000000D02*
X170500000Y-130500000D01*
X172000000Y-131000000D02*
X171000000Y-131000000D01*
%TO.N,Net-(D4-A)*%
X190500000Y-118931302D02*
X190500000Y-119500000D01*
X173000000Y-118000000D02*
X173291500Y-118291500D01*
X189291500Y-118291500D02*
X190500000Y-119500000D01*
X173291500Y-118291500D02*
X189291500Y-118291500D01*
%TO.N,Net-(D5-A)*%
X149000000Y-88500000D02*
X155500000Y-88500000D01*
X155500000Y-88500000D02*
X157000000Y-90000000D01*
%TO.N,Net-(D6-A)*%
X164000000Y-92500000D02*
X166500000Y-90000000D01*
X149000000Y-92500000D02*
X164000000Y-92500000D01*
%TO.N,Sys_Vin*%
X155507000Y-147507000D02*
X155507000Y-149000000D01*
X154696000Y-146696000D02*
X155507000Y-147507000D01*
X154696000Y-146400000D02*
X150900000Y-146400000D01*
X150900000Y-146400000D02*
X149500000Y-145000000D01*
X184019999Y-139480001D02*
X171500000Y-152000000D01*
X171500000Y-152000000D02*
X158020000Y-152000000D01*
X158020000Y-152000000D02*
X155507000Y-149487000D01*
X154696000Y-146400000D02*
X154696000Y-146696000D01*
X184610500Y-139480001D02*
X184019999Y-139480001D01*
X149500000Y-145000000D02*
X141000000Y-145000000D01*
X155507000Y-149487000D02*
X155507000Y-149000000D01*
%TO.N,3.3VBuck*%
X155592500Y-142000000D02*
X154696000Y-142896500D01*
X154696000Y-142896500D02*
X154696000Y-144500000D01*
X167946000Y-143000000D02*
X166554500Y-141608500D01*
X167946000Y-143000000D02*
X167946000Y-142054000D01*
X167946000Y-143000000D02*
X167946000Y-147500000D01*
X166554500Y-141608500D02*
X155984000Y-141608500D01*
X167946000Y-142054000D02*
X169000000Y-141000000D01*
X155984000Y-141608500D02*
X155592500Y-142000000D01*
%TO.N,Net-(U2-SW)*%
X156117000Y-142290500D02*
X156117000Y-145258499D01*
X156308501Y-145450000D02*
X156971000Y-145450000D01*
X156407500Y-142000000D02*
X156117000Y-142290500D01*
X156117000Y-145258499D02*
X156308501Y-145450000D01*
X157140000Y-145281000D02*
X156971000Y-145450000D01*
X160000000Y-145281000D02*
X157140000Y-145281000D01*
%TO.N,Net-(U2-EN)*%
X140190000Y-141690000D02*
X140190000Y-139000000D01*
X152950000Y-145450000D02*
X150500000Y-143000000D01*
X141000000Y-142500000D02*
X140190000Y-141690000D01*
X154696000Y-145450000D02*
X152950000Y-145450000D01*
X141000000Y-143000000D02*
X141000000Y-142500000D01*
X150500000Y-143000000D02*
X141000000Y-143000000D01*
%TO.N,Net-(SW5-A)*%
X113275000Y-133500000D02*
X120190000Y-133500000D01*
X108085000Y-133310000D02*
X111085000Y-133310000D01*
X112085000Y-132310000D02*
X113275000Y-133500000D01*
X120775000Y-128810000D02*
X120775000Y-133225000D01*
X111085000Y-133310000D02*
X112085000Y-132310000D01*
X120775000Y-133225000D02*
X120500000Y-133500000D01*
X107085000Y-132310000D02*
X108085000Y-133310000D01*
%TO.N,Net-(U2-BST)*%
X160000000Y-144719000D02*
X157190000Y-144719000D01*
X157190000Y-144719000D02*
X156971000Y-144500000D01*
%TD*%
%TA.AperFunction,Conductor*%
%TO.N,GND*%
G36*
X150448096Y-106262885D02*
G01*
X150494524Y-106292141D01*
X153153696Y-108951313D01*
X153153697Y-108951314D01*
X153153699Y-108951315D01*
X153282300Y-109025563D01*
X153282301Y-109025563D01*
X153282304Y-109025565D01*
X153425748Y-109064001D01*
X153425751Y-109064001D01*
X153581849Y-109064001D01*
X153581865Y-109064000D01*
X176795022Y-109064000D01*
X176862061Y-109083685D01*
X176882703Y-109100319D01*
X177775925Y-109993542D01*
X177809410Y-110054865D01*
X177804426Y-110124557D01*
X177762554Y-110180490D01*
X177697090Y-110204907D01*
X177668851Y-110203697D01*
X177642352Y-110199500D01*
X177437648Y-110199500D01*
X177413329Y-110203351D01*
X177235465Y-110231522D01*
X177040776Y-110294781D01*
X176858386Y-110387715D01*
X176692786Y-110508028D01*
X176548028Y-110652786D01*
X176427715Y-110818386D01*
X176380485Y-110911080D01*
X176332510Y-110961876D01*
X176264689Y-110978671D01*
X176198554Y-110956134D01*
X176159515Y-110911080D01*
X176112419Y-110818650D01*
X176112287Y-110818390D01*
X176104556Y-110807749D01*
X175991971Y-110652786D01*
X175847213Y-110508028D01*
X175681613Y-110387715D01*
X175681612Y-110387714D01*
X175681610Y-110387713D01*
X175624653Y-110358691D01*
X175499223Y-110294781D01*
X175304534Y-110231522D01*
X175128850Y-110203697D01*
X175102352Y-110199500D01*
X174897648Y-110199500D01*
X174873329Y-110203351D01*
X174695465Y-110231522D01*
X174500776Y-110294781D01*
X174318386Y-110387715D01*
X174152786Y-110508028D01*
X174008028Y-110652786D01*
X173887715Y-110818386D01*
X173840485Y-110911080D01*
X173792510Y-110961876D01*
X173724689Y-110978671D01*
X173658554Y-110956134D01*
X173619515Y-110911080D01*
X173572419Y-110818650D01*
X173572287Y-110818390D01*
X173564556Y-110807749D01*
X173451971Y-110652786D01*
X173307213Y-110508028D01*
X173141613Y-110387715D01*
X173141612Y-110387714D01*
X173141610Y-110387713D01*
X173084653Y-110358691D01*
X172959223Y-110294781D01*
X172764534Y-110231522D01*
X172588850Y-110203697D01*
X172562352Y-110199500D01*
X172357648Y-110199500D01*
X172333329Y-110203351D01*
X172155465Y-110231522D01*
X171960776Y-110294781D01*
X171778386Y-110387715D01*
X171612786Y-110508028D01*
X171468028Y-110652786D01*
X171347715Y-110818386D01*
X171300485Y-110911080D01*
X171252510Y-110961876D01*
X171184689Y-110978671D01*
X171118554Y-110956134D01*
X171079515Y-110911080D01*
X171032419Y-110818650D01*
X171032287Y-110818390D01*
X171024556Y-110807749D01*
X170911971Y-110652786D01*
X170767213Y-110508028D01*
X170601613Y-110387715D01*
X170601612Y-110387714D01*
X170601610Y-110387713D01*
X170544653Y-110358691D01*
X170419223Y-110294781D01*
X170224534Y-110231522D01*
X170048850Y-110203697D01*
X170022352Y-110199500D01*
X169817648Y-110199500D01*
X169793329Y-110203351D01*
X169615465Y-110231522D01*
X169420776Y-110294781D01*
X169238386Y-110387715D01*
X169072786Y-110508028D01*
X168928028Y-110652786D01*
X168807715Y-110818386D01*
X168760485Y-110911080D01*
X168712510Y-110961876D01*
X168644689Y-110978671D01*
X168578554Y-110956134D01*
X168539515Y-110911080D01*
X168492419Y-110818650D01*
X168492287Y-110818390D01*
X168484556Y-110807749D01*
X168371971Y-110652786D01*
X168227213Y-110508028D01*
X168061613Y-110387715D01*
X168061612Y-110387714D01*
X168061610Y-110387713D01*
X168004653Y-110358691D01*
X167879223Y-110294781D01*
X167684534Y-110231522D01*
X167508850Y-110203697D01*
X167482352Y-110199500D01*
X167277648Y-110199500D01*
X167253329Y-110203351D01*
X167075465Y-110231522D01*
X166880776Y-110294781D01*
X166698386Y-110387715D01*
X166532786Y-110508028D01*
X166388028Y-110652786D01*
X166267715Y-110818386D01*
X166220485Y-110911080D01*
X166172510Y-110961876D01*
X166104689Y-110978671D01*
X166038554Y-110956134D01*
X165999515Y-110911080D01*
X165952419Y-110818650D01*
X165952287Y-110818390D01*
X165944556Y-110807749D01*
X165831971Y-110652786D01*
X165687213Y-110508028D01*
X165521613Y-110387715D01*
X165521612Y-110387714D01*
X165521610Y-110387713D01*
X165464653Y-110358691D01*
X165339223Y-110294781D01*
X165144534Y-110231522D01*
X164968850Y-110203697D01*
X164942352Y-110199500D01*
X164737648Y-110199500D01*
X164713329Y-110203351D01*
X164535465Y-110231522D01*
X164340776Y-110294781D01*
X164158386Y-110387715D01*
X163992786Y-110508028D01*
X163848028Y-110652786D01*
X163727715Y-110818386D01*
X163680485Y-110911080D01*
X163632510Y-110961876D01*
X163564689Y-110978671D01*
X163498554Y-110956134D01*
X163459515Y-110911080D01*
X163412419Y-110818650D01*
X163412287Y-110818390D01*
X163404556Y-110807749D01*
X163291971Y-110652786D01*
X163147213Y-110508028D01*
X162981613Y-110387715D01*
X162981612Y-110387714D01*
X162981610Y-110387713D01*
X162924653Y-110358691D01*
X162799223Y-110294781D01*
X162604534Y-110231522D01*
X162428850Y-110203697D01*
X162402352Y-110199500D01*
X162197648Y-110199500D01*
X162173329Y-110203351D01*
X161995465Y-110231522D01*
X161800776Y-110294781D01*
X161618386Y-110387715D01*
X161452786Y-110508028D01*
X161308028Y-110652786D01*
X161187715Y-110818386D01*
X161140485Y-110911080D01*
X161092510Y-110961876D01*
X161024689Y-110978671D01*
X160958554Y-110956134D01*
X160919515Y-110911080D01*
X160872419Y-110818650D01*
X160872287Y-110818390D01*
X160864556Y-110807749D01*
X160751971Y-110652786D01*
X160607213Y-110508028D01*
X160441613Y-110387715D01*
X160441612Y-110387714D01*
X160441610Y-110387713D01*
X160384653Y-110358691D01*
X160259223Y-110294781D01*
X160064534Y-110231522D01*
X159888850Y-110203697D01*
X159862352Y-110199500D01*
X159657648Y-110199500D01*
X159633329Y-110203351D01*
X159455465Y-110231522D01*
X159260776Y-110294781D01*
X159078386Y-110387715D01*
X158912786Y-110508028D01*
X158768028Y-110652786D01*
X158647713Y-110818388D01*
X158600203Y-110911630D01*
X158552228Y-110962426D01*
X158484407Y-110979220D01*
X158418272Y-110956682D01*
X158379234Y-110911628D01*
X158331861Y-110818652D01*
X158211582Y-110653105D01*
X158211582Y-110653104D01*
X158066895Y-110508417D01*
X157901349Y-110388140D01*
X157719029Y-110295244D01*
X157524413Y-110232009D01*
X157470000Y-110223390D01*
X157470000Y-111066988D01*
X157412993Y-111034075D01*
X157285826Y-111000000D01*
X157154174Y-111000000D01*
X157027007Y-111034075D01*
X156970000Y-111066988D01*
X156970000Y-110223390D01*
X156915586Y-110232009D01*
X156720970Y-110295244D01*
X156538650Y-110388140D01*
X156373105Y-110508417D01*
X156373104Y-110508417D01*
X156228417Y-110653104D01*
X156228417Y-110653105D01*
X156108140Y-110818650D01*
X156060765Y-110911629D01*
X156012790Y-110962425D01*
X155944969Y-110979220D01*
X155878834Y-110956682D01*
X155839795Y-110911629D01*
X155792419Y-110818650D01*
X155792287Y-110818390D01*
X155784556Y-110807749D01*
X155671971Y-110652786D01*
X155527213Y-110508028D01*
X155361613Y-110387715D01*
X155361612Y-110387714D01*
X155361610Y-110387713D01*
X155304653Y-110358691D01*
X155179223Y-110294781D01*
X154984534Y-110231522D01*
X154808850Y-110203697D01*
X154782352Y-110199500D01*
X154577648Y-110199500D01*
X154553329Y-110203351D01*
X154375465Y-110231522D01*
X154180776Y-110294781D01*
X153998386Y-110387715D01*
X153832786Y-110508028D01*
X153688028Y-110652786D01*
X153567715Y-110818386D01*
X153520485Y-110911080D01*
X153472510Y-110961876D01*
X153404689Y-110978671D01*
X153338554Y-110956134D01*
X153299515Y-110911080D01*
X153252419Y-110818650D01*
X153252287Y-110818390D01*
X153244556Y-110807749D01*
X153131971Y-110652786D01*
X152987213Y-110508028D01*
X152821613Y-110387715D01*
X152821612Y-110387714D01*
X152821610Y-110387713D01*
X152764653Y-110358691D01*
X152639223Y-110294781D01*
X152444534Y-110231522D01*
X152268850Y-110203697D01*
X152242352Y-110199500D01*
X152037648Y-110199500D01*
X151970254Y-110210174D01*
X151835464Y-110231523D01*
X151782196Y-110248831D01*
X151766983Y-110249265D01*
X151752724Y-110254584D01*
X151732768Y-110250242D01*
X151712355Y-110250826D01*
X151698268Y-110242737D01*
X151684451Y-110239732D01*
X151656197Y-110218581D01*
X151606883Y-110169267D01*
X151606881Y-110169264D01*
X151494806Y-110057189D01*
X151494804Y-110057187D01*
X151366196Y-109982935D01*
X151222753Y-109944500D01*
X151222752Y-109944500D01*
X126215752Y-109944500D01*
X126067247Y-109944500D01*
X125923804Y-109982935D01*
X125923801Y-109982936D01*
X125795199Y-110057185D01*
X125795193Y-110057189D01*
X125690185Y-110162198D01*
X117523482Y-118328900D01*
X117510125Y-118336193D01*
X117499836Y-118347405D01*
X117480084Y-118352597D01*
X117462159Y-118362385D01*
X117445935Y-118361573D01*
X117432262Y-118365168D01*
X117397485Y-118359151D01*
X117377313Y-118352597D01*
X117356692Y-118345896D01*
X117299018Y-118306461D01*
X117271819Y-118242103D01*
X117283732Y-118173257D01*
X117307326Y-118140288D01*
X128647297Y-106800319D01*
X128708620Y-106766834D01*
X128734978Y-106764000D01*
X148880559Y-106764000D01*
X148947598Y-106783685D01*
X148968240Y-106800319D01*
X148989707Y-106821786D01*
X148989711Y-106821789D01*
X149120814Y-106909390D01*
X149120827Y-106909397D01*
X149266498Y-106969735D01*
X149266503Y-106969737D01*
X149421153Y-107000499D01*
X149421156Y-107000500D01*
X149421158Y-107000500D01*
X149578844Y-107000500D01*
X149578845Y-107000499D01*
X149733497Y-106969737D01*
X149879179Y-106909394D01*
X150010289Y-106821789D01*
X150121789Y-106710289D01*
X150209394Y-106579179D01*
X150269737Y-106433497D01*
X150285226Y-106355631D01*
X150317611Y-106293720D01*
X150378326Y-106259146D01*
X150448096Y-106262885D01*
G37*
%TD.AperFunction*%
%TA.AperFunction,Conductor*%
G36*
X188502855Y-85500632D02*
G01*
X188863310Y-85517296D01*
X188874700Y-85518352D01*
X189229238Y-85567808D01*
X189240482Y-85569910D01*
X189588944Y-85651867D01*
X189599934Y-85654994D01*
X189939368Y-85768761D01*
X189950022Y-85772889D01*
X190277488Y-85917479D01*
X190287731Y-85922579D01*
X190356871Y-85961090D01*
X190600452Y-86096765D01*
X190610190Y-86102794D01*
X190905512Y-86305093D01*
X190914649Y-86311994D01*
X191190035Y-86540671D01*
X191198499Y-86548387D01*
X191451612Y-86801500D01*
X191459328Y-86809964D01*
X191688003Y-87085347D01*
X191694906Y-87094487D01*
X191897205Y-87389809D01*
X191903234Y-87399547D01*
X192077418Y-87712264D01*
X192082523Y-87722517D01*
X192227105Y-88049964D01*
X192231243Y-88060644D01*
X192345001Y-88400052D01*
X192348135Y-88411068D01*
X192430087Y-88759509D01*
X192432192Y-88770768D01*
X192481646Y-89125292D01*
X192482703Y-89136696D01*
X192499368Y-89497144D01*
X192499500Y-89502871D01*
X192499500Y-149796519D01*
X192499305Y-149803472D01*
X192482916Y-150095296D01*
X192481359Y-150109114D01*
X192432984Y-150393827D01*
X192429890Y-150407384D01*
X192349939Y-150684899D01*
X192345346Y-150698024D01*
X192234830Y-150964834D01*
X192228797Y-150977362D01*
X192089100Y-151230125D01*
X192081702Y-151241899D01*
X191914584Y-151477430D01*
X191905914Y-151488302D01*
X191713475Y-151703642D01*
X191703642Y-151713475D01*
X191488302Y-151905914D01*
X191477430Y-151914584D01*
X191241899Y-152081702D01*
X191230125Y-152089100D01*
X190977362Y-152228797D01*
X190964834Y-152234830D01*
X190698024Y-152345346D01*
X190684899Y-152349939D01*
X190407384Y-152429890D01*
X190393827Y-152432984D01*
X190109114Y-152481359D01*
X190095296Y-152482916D01*
X189803472Y-152499305D01*
X189796519Y-152499500D01*
X172097477Y-152499500D01*
X172030438Y-152479815D01*
X171984683Y-152427011D01*
X171974739Y-152357853D01*
X172003764Y-152294297D01*
X172009796Y-152287819D01*
X175099967Y-149197648D01*
X187999500Y-149197648D01*
X187999500Y-149402352D01*
X188000375Y-149407876D01*
X188031522Y-149604534D01*
X188094781Y-149799223D01*
X188158691Y-149924653D01*
X188180327Y-149967115D01*
X188187715Y-149981613D01*
X188308028Y-150147213D01*
X188452786Y-150291971D01*
X188590420Y-150391966D01*
X188618390Y-150412287D01*
X188734607Y-150471503D01*
X188800776Y-150505218D01*
X188800778Y-150505218D01*
X188800781Y-150505220D01*
X188905137Y-150539127D01*
X188995465Y-150568477D01*
X189096557Y-150584488D01*
X189197648Y-150600500D01*
X189197649Y-150600500D01*
X189402351Y-150600500D01*
X189402352Y-150600500D01*
X189604534Y-150568477D01*
X189799219Y-150505220D01*
X189981610Y-150412287D01*
X190081360Y-150339815D01*
X190147213Y-150291971D01*
X190147215Y-150291968D01*
X190147219Y-150291966D01*
X190291966Y-150147219D01*
X190291968Y-150147215D01*
X190291971Y-150147213D01*
X190366652Y-150044422D01*
X190412287Y-149981610D01*
X190505220Y-149799219D01*
X190568477Y-149604534D01*
X190600500Y-149402352D01*
X190600500Y-149197648D01*
X190568477Y-148995466D01*
X190555328Y-148954999D01*
X190509043Y-148812547D01*
X190505220Y-148800781D01*
X190505218Y-148800778D01*
X190505218Y-148800776D01*
X190471503Y-148734607D01*
X190412287Y-148618390D01*
X190393212Y-148592135D01*
X190291971Y-148452786D01*
X190147213Y-148308028D01*
X189981613Y-148187715D01*
X189981612Y-148187714D01*
X189981610Y-148187713D01*
X189900531Y-148146401D01*
X189799223Y-148094781D01*
X189604534Y-148031522D01*
X189429995Y-148003878D01*
X189402352Y-147999500D01*
X189197648Y-147999500D01*
X189173329Y-148003351D01*
X188995465Y-148031522D01*
X188800776Y-148094781D01*
X188618386Y-148187715D01*
X188452786Y-148308028D01*
X188308028Y-148452786D01*
X188187715Y-148618386D01*
X188094781Y-148800776D01*
X188031522Y-148995465D01*
X188002689Y-149177511D01*
X187999500Y-149197648D01*
X175099967Y-149197648D01*
X175192520Y-149105095D01*
X177681921Y-146615694D01*
X180100699Y-144196916D01*
X183339100Y-144196916D01*
X183339100Y-144403087D01*
X183379318Y-144605276D01*
X183379320Y-144605284D01*
X183458213Y-144795750D01*
X183458218Y-144795759D01*
X183572752Y-144967170D01*
X183572755Y-144967174D01*
X183718527Y-145112946D01*
X183718531Y-145112949D01*
X183889942Y-145227483D01*
X183889946Y-145227485D01*
X183889949Y-145227487D01*
X184080418Y-145306382D01*
X184282599Y-145346598D01*
X184282614Y-145346601D01*
X184282618Y-145346602D01*
X184282619Y-145346602D01*
X185098382Y-145346602D01*
X185098383Y-145346601D01*
X185300582Y-145306382D01*
X185491051Y-145227487D01*
X185662469Y-145112949D01*
X185808247Y-144967171D01*
X185922785Y-144795753D01*
X186001680Y-144605284D01*
X186041900Y-144403083D01*
X186041900Y-144196921D01*
X186041899Y-144196915D01*
X186041899Y-144196913D01*
X187139100Y-144196913D01*
X187139100Y-144403084D01*
X187179318Y-144605273D01*
X187179320Y-144605281D01*
X187258213Y-144795747D01*
X187258218Y-144795756D01*
X187372752Y-144967167D01*
X187372755Y-144967171D01*
X187518527Y-145112943D01*
X187518531Y-145112946D01*
X187689942Y-145227480D01*
X187689951Y-145227485D01*
X187733099Y-145245357D01*
X187880418Y-145306379D01*
X188082614Y-145346598D01*
X188082618Y-145346599D01*
X188082619Y-145346599D01*
X188898382Y-145346599D01*
X188898383Y-145346598D01*
X189100582Y-145306379D01*
X189291051Y-145227484D01*
X189462469Y-145112946D01*
X189608247Y-144967168D01*
X189722785Y-144795750D01*
X189801680Y-144605281D01*
X189841900Y-144403080D01*
X189841900Y-144196918D01*
X189841899Y-144196915D01*
X189841899Y-144196913D01*
X189836835Y-144171454D01*
X189801680Y-143994717D01*
X189734246Y-143831917D01*
X189722786Y-143804250D01*
X189722781Y-143804241D01*
X189608247Y-143632830D01*
X189608244Y-143632826D01*
X189462472Y-143487054D01*
X189462468Y-143487051D01*
X189291057Y-143372517D01*
X189291048Y-143372512D01*
X189100582Y-143293619D01*
X189100574Y-143293617D01*
X188898385Y-143253399D01*
X188898381Y-143253399D01*
X188082619Y-143253399D01*
X188082614Y-143253399D01*
X187880425Y-143293617D01*
X187880417Y-143293619D01*
X187689951Y-143372512D01*
X187689942Y-143372517D01*
X187518531Y-143487051D01*
X187518527Y-143487054D01*
X187372755Y-143632826D01*
X187372752Y-143632830D01*
X187258218Y-143804241D01*
X187258213Y-143804250D01*
X187179320Y-143994716D01*
X187179318Y-143994724D01*
X187139100Y-144196913D01*
X186041899Y-144196913D01*
X186028617Y-144130145D01*
X186001680Y-143994720D01*
X185934247Y-143831923D01*
X185922786Y-143804253D01*
X185922781Y-143804244D01*
X185808247Y-143632833D01*
X185808244Y-143632829D01*
X185680792Y-143505377D01*
X185647307Y-143444054D01*
X185652291Y-143374362D01*
X185700997Y-143243776D01*
X185700998Y-143243772D01*
X185707399Y-143184244D01*
X185707400Y-143184227D01*
X185707400Y-142980000D01*
X183513600Y-142980000D01*
X183513600Y-143184244D01*
X183520001Y-143243772D01*
X183520003Y-143243779D01*
X183570245Y-143378486D01*
X183570249Y-143378493D01*
X183615816Y-143439362D01*
X183640234Y-143504826D01*
X183625383Y-143573099D01*
X183604232Y-143601353D01*
X183572754Y-143632831D01*
X183572750Y-143632836D01*
X183458218Y-143804244D01*
X183458213Y-143804253D01*
X183379320Y-143994719D01*
X183379318Y-143994727D01*
X183339100Y-144196916D01*
X180100699Y-144196916D01*
X183301421Y-140996193D01*
X183362742Y-140962710D01*
X183432434Y-140967694D01*
X183488367Y-141009566D01*
X183512784Y-141075030D01*
X183513100Y-141083876D01*
X183513100Y-141928870D01*
X183513101Y-141928876D01*
X183519509Y-141988485D01*
X183546063Y-142059682D01*
X183551047Y-142129374D01*
X183546064Y-142146345D01*
X183520002Y-142216221D01*
X183520001Y-142216227D01*
X183513600Y-142275755D01*
X183513600Y-142480000D01*
X185707400Y-142480000D01*
X185707400Y-142275772D01*
X185707399Y-142275755D01*
X185700998Y-142216223D01*
X185674935Y-142146347D01*
X185669951Y-142076655D01*
X185674928Y-142059699D01*
X185701491Y-141988483D01*
X185707900Y-141928873D01*
X185707899Y-141071128D01*
X185701491Y-141011517D01*
X185701488Y-141011510D01*
X185700146Y-141005830D01*
X185700145Y-140948772D01*
X185701487Y-140943090D01*
X185701491Y-140943082D01*
X185707900Y-140883472D01*
X185707899Y-140076527D01*
X185701491Y-140016916D01*
X185701490Y-140016914D01*
X185701490Y-140016911D01*
X185699708Y-140009368D01*
X185702837Y-140008628D01*
X185698894Y-139953668D01*
X185699780Y-139950649D01*
X185699707Y-139950632D01*
X185701488Y-139943090D01*
X185701491Y-139943084D01*
X185707900Y-139883474D01*
X185707899Y-139076529D01*
X185701491Y-139016918D01*
X185701488Y-139016911D01*
X185700146Y-139011231D01*
X185700145Y-138954173D01*
X185701487Y-138948491D01*
X185701491Y-138948483D01*
X185707900Y-138888873D01*
X185707899Y-138031128D01*
X185701491Y-137971517D01*
X185675201Y-137901032D01*
X185670218Y-137831342D01*
X185675202Y-137814367D01*
X185701491Y-137743883D01*
X185707900Y-137684273D01*
X185707899Y-136775728D01*
X185701491Y-136716117D01*
X185697941Y-136706600D01*
X185652680Y-136585247D01*
X185647696Y-136515555D01*
X185681179Y-136454234D01*
X185808247Y-136327167D01*
X185922785Y-136155749D01*
X186001680Y-135965280D01*
X186041900Y-135763079D01*
X186041900Y-135556917D01*
X186041900Y-135556915D01*
X187139100Y-135556915D01*
X187139100Y-135763086D01*
X187179318Y-135965275D01*
X187179320Y-135965283D01*
X187258213Y-136155749D01*
X187258218Y-136155758D01*
X187372752Y-136327169D01*
X187372755Y-136327173D01*
X187518527Y-136472945D01*
X187518531Y-136472948D01*
X187689942Y-136587482D01*
X187689948Y-136587485D01*
X187689949Y-136587486D01*
X187880418Y-136666381D01*
X188082614Y-136706600D01*
X188082618Y-136706601D01*
X188082619Y-136706601D01*
X188898382Y-136706601D01*
X188898383Y-136706600D01*
X189100582Y-136666381D01*
X189291051Y-136587486D01*
X189462469Y-136472948D01*
X189608247Y-136327170D01*
X189722785Y-136155752D01*
X189801680Y-135965283D01*
X189841900Y-135763082D01*
X189841900Y-135556920D01*
X189841899Y-135556917D01*
X189841899Y-135556915D01*
X189801681Y-135354726D01*
X189801680Y-135354719D01*
X189722785Y-135164250D01*
X189722783Y-135164247D01*
X189722781Y-135164243D01*
X189608247Y-134992832D01*
X189608244Y-134992828D01*
X189462472Y-134847056D01*
X189462468Y-134847053D01*
X189291057Y-134732519D01*
X189291048Y-134732514D01*
X189100582Y-134653621D01*
X189100574Y-134653619D01*
X188898385Y-134613401D01*
X188898381Y-134613401D01*
X188082619Y-134613401D01*
X188082614Y-134613401D01*
X187880425Y-134653619D01*
X187880417Y-134653621D01*
X187689951Y-134732514D01*
X187689942Y-134732519D01*
X187518531Y-134847053D01*
X187518527Y-134847056D01*
X187372755Y-134992828D01*
X187372752Y-134992832D01*
X187258218Y-135164243D01*
X187258213Y-135164252D01*
X187179320Y-135354718D01*
X187179318Y-135354726D01*
X187139100Y-135556915D01*
X186041900Y-135556915D01*
X186001680Y-135354716D01*
X185933452Y-135189999D01*
X185922786Y-135164249D01*
X185922781Y-135164240D01*
X185808247Y-134992829D01*
X185808244Y-134992825D01*
X185662469Y-134847050D01*
X185561839Y-134779812D01*
X185517034Y-134726200D01*
X185508327Y-134656875D01*
X185538481Y-134593848D01*
X185543030Y-134589047D01*
X185621789Y-134510289D01*
X185709394Y-134379179D01*
X185769737Y-134233497D01*
X185800500Y-134078842D01*
X185800500Y-133921158D01*
X185800500Y-133921155D01*
X185800499Y-133921153D01*
X185791119Y-133873999D01*
X185769737Y-133766503D01*
X185767586Y-133761310D01*
X185709397Y-133620827D01*
X185709390Y-133620814D01*
X185621789Y-133489711D01*
X185621786Y-133489707D01*
X185510292Y-133378213D01*
X185510288Y-133378210D01*
X185379185Y-133290609D01*
X185379172Y-133290602D01*
X185233501Y-133230264D01*
X185233489Y-133230261D01*
X185078845Y-133199500D01*
X185078842Y-133199500D01*
X184921158Y-133199500D01*
X184921155Y-133199500D01*
X184766510Y-133230261D01*
X184766498Y-133230264D01*
X184620827Y-133290602D01*
X184620814Y-133290609D01*
X184489711Y-133378210D01*
X184489707Y-133378213D01*
X184468240Y-133399681D01*
X184406917Y-133433166D01*
X184380559Y-133436000D01*
X123692396Y-133436000D01*
X123625357Y-133416315D01*
X123579602Y-133363511D01*
X123574690Y-133351004D01*
X123554676Y-133290606D01*
X123534814Y-133230666D01*
X123442712Y-133081344D01*
X123318656Y-132957288D01*
X123169334Y-132865186D01*
X123002797Y-132810001D01*
X123002795Y-132810000D01*
X122900010Y-132799500D01*
X122099998Y-132799500D01*
X122099980Y-132799501D01*
X121997203Y-132810000D01*
X121997200Y-132810001D01*
X121830668Y-132865185D01*
X121830663Y-132865187D01*
X121681342Y-132957289D01*
X121587681Y-133050951D01*
X121579735Y-133055289D01*
X121574310Y-133062537D01*
X121549550Y-133071771D01*
X121526358Y-133084436D01*
X121517328Y-133083790D01*
X121508846Y-133086954D01*
X121483025Y-133081337D01*
X121456666Y-133079452D01*
X121447612Y-133073633D01*
X121440573Y-133072102D01*
X121412319Y-133050951D01*
X121375319Y-133013951D01*
X121341834Y-132952628D01*
X121339000Y-132926270D01*
X121339000Y-129390195D01*
X121358685Y-129323156D01*
X121363725Y-129315894D01*
X121418796Y-129242331D01*
X121469091Y-129107483D01*
X121475500Y-129047873D01*
X121475499Y-128572128D01*
X121469091Y-128512517D01*
X121418796Y-128377669D01*
X121332546Y-128262454D01*
X121332545Y-128262453D01*
X121327947Y-128256311D01*
X121303530Y-128190847D01*
X121318381Y-128122574D01*
X121367786Y-128073168D01*
X121427214Y-128058000D01*
X121475000Y-128058000D01*
X121475000Y-128010172D01*
X121474999Y-128010155D01*
X121468598Y-127950627D01*
X121468596Y-127950620D01*
X121418354Y-127815913D01*
X121418350Y-127815906D01*
X121332190Y-127700812D01*
X121332187Y-127700809D01*
X121217093Y-127614649D01*
X121217086Y-127614645D01*
X121082379Y-127564403D01*
X121082372Y-127564401D01*
X121022844Y-127558000D01*
X120965000Y-127558000D01*
X120965000Y-127995500D01*
X120962449Y-128004185D01*
X120963738Y-128013147D01*
X120952759Y-128037187D01*
X120945315Y-128062539D01*
X120938474Y-128068466D01*
X120934713Y-128076703D01*
X120912478Y-128090992D01*
X120892511Y-128108294D01*
X120881996Y-128110581D01*
X120875935Y-128114477D01*
X120841000Y-128119500D01*
X120709000Y-128119500D01*
X120641961Y-128099815D01*
X120596206Y-128047011D01*
X120585000Y-127995500D01*
X120585000Y-127558000D01*
X120527155Y-127558000D01*
X120467627Y-127564401D01*
X120467620Y-127564403D01*
X120332913Y-127614645D01*
X120332906Y-127614649D01*
X120217812Y-127700809D01*
X120217809Y-127700812D01*
X120131649Y-127815906D01*
X120131645Y-127815913D01*
X120081403Y-127950620D01*
X120081401Y-127950627D01*
X120075000Y-128010155D01*
X120075000Y-128058000D01*
X120122786Y-128058000D01*
X120135504Y-128061734D01*
X120148722Y-128060743D01*
X120168378Y-128071387D01*
X120189825Y-128077685D01*
X120198504Y-128087701D01*
X120210161Y-128094014D01*
X120220943Y-128113597D01*
X120235580Y-128130489D01*
X120237466Y-128143607D01*
X120243860Y-128155220D01*
X120242342Y-128177522D01*
X120245524Y-128199647D01*
X120239911Y-128213263D01*
X120239118Y-128224928D01*
X120222528Y-128255437D01*
X120222311Y-128255964D01*
X120217530Y-128262396D01*
X120217454Y-128262454D01*
X120131204Y-128377669D01*
X120130539Y-128379451D01*
X120124213Y-128387964D01*
X120109041Y-128399403D01*
X120111319Y-128401681D01*
X120075000Y-128438000D01*
X120075000Y-128485838D01*
X120077963Y-128513401D01*
X120077963Y-128539904D01*
X120074500Y-128572118D01*
X120074500Y-129047870D01*
X120074501Y-129047876D01*
X120080908Y-129107483D01*
X120131202Y-129242328D01*
X120131204Y-129242331D01*
X120186266Y-129315884D01*
X120210684Y-129381347D01*
X120211000Y-129390195D01*
X120211000Y-132676182D01*
X120191315Y-132743221D01*
X120138511Y-132788976D01*
X120099602Y-132799540D01*
X119997202Y-132810001D01*
X119997200Y-132810001D01*
X119830668Y-132865185D01*
X119830659Y-132865189D01*
X119745787Y-132917539D01*
X119680691Y-132936000D01*
X115963000Y-132936000D01*
X115895961Y-132916315D01*
X115850206Y-132863511D01*
X115839000Y-132812000D01*
X115839000Y-132560000D01*
X115018012Y-132560000D01*
X115050925Y-132502993D01*
X115085000Y-132375826D01*
X115085000Y-132244174D01*
X115050925Y-132117007D01*
X115018012Y-132060000D01*
X115839000Y-132060000D01*
X115839000Y-131508172D01*
X115838999Y-131508155D01*
X115832598Y-131448627D01*
X115832596Y-131448620D01*
X115782354Y-131313913D01*
X115782350Y-131313906D01*
X115696190Y-131198812D01*
X115696187Y-131198809D01*
X115581093Y-131112649D01*
X115581086Y-131112645D01*
X115446379Y-131062403D01*
X115446372Y-131062401D01*
X115386844Y-131056000D01*
X114835000Y-131056000D01*
X114835000Y-131876988D01*
X114777993Y-131844075D01*
X114650826Y-131810000D01*
X114519174Y-131810000D01*
X114392007Y-131844075D01*
X114335000Y-131876988D01*
X114335000Y-131056000D01*
X113783155Y-131056000D01*
X113723627Y-131062401D01*
X113723620Y-131062403D01*
X113588913Y-131112645D01*
X113588906Y-131112649D01*
X113473812Y-131198809D01*
X113473809Y-131198812D01*
X113387649Y-131313906D01*
X113387645Y-131313913D01*
X113337403Y-131448620D01*
X113337401Y-131448627D01*
X113331000Y-131508155D01*
X113331000Y-131509056D01*
X113330942Y-131509252D01*
X113330823Y-131511479D01*
X113330644Y-131511469D01*
X113330644Y-131511475D01*
X113330540Y-131511463D01*
X113330296Y-131511450D01*
X113311315Y-131576095D01*
X113258511Y-131621850D01*
X113189353Y-131631794D01*
X113125797Y-131602769D01*
X113106682Y-131581941D01*
X113041884Y-131492754D01*
X113041880Y-131492749D01*
X112902246Y-131353115D01*
X112742504Y-131237058D01*
X112742503Y-131237057D01*
X112742501Y-131237056D01*
X112566561Y-131147409D01*
X112566558Y-131147408D01*
X112378763Y-131086389D01*
X112183736Y-131055500D01*
X112183731Y-131055500D01*
X111986269Y-131055500D01*
X111986264Y-131055500D01*
X111791236Y-131086389D01*
X111603441Y-131147408D01*
X111427495Y-131237058D01*
X111267753Y-131353115D01*
X111128115Y-131492753D01*
X111012056Y-131652497D01*
X110945203Y-131783702D01*
X110897229Y-131834497D01*
X110829407Y-131851292D01*
X110763273Y-131828754D01*
X110724234Y-131783701D01*
X110657520Y-131652768D01*
X110657512Y-131652755D01*
X110631542Y-131617010D01*
X110631541Y-131617009D01*
X110067962Y-132180589D01*
X110050925Y-132117007D01*
X109985099Y-132002993D01*
X109892007Y-131909901D01*
X109777993Y-131844075D01*
X109714409Y-131827037D01*
X110277989Y-131263457D01*
X110242239Y-131237483D01*
X110066373Y-131147873D01*
X109878646Y-131086876D01*
X109683697Y-131056000D01*
X109486303Y-131056000D01*
X109291353Y-131086876D01*
X109103626Y-131147873D01*
X108927762Y-131237482D01*
X108927760Y-131237483D01*
X108892010Y-131263456D01*
X108892010Y-131263457D01*
X109455591Y-131827037D01*
X109392007Y-131844075D01*
X109277993Y-131909901D01*
X109184901Y-132002993D01*
X109119075Y-132117007D01*
X109102037Y-132180590D01*
X108538457Y-131617010D01*
X108538456Y-131617010D01*
X108512483Y-131652760D01*
X108512482Y-131652762D01*
X108445765Y-131783701D01*
X108397790Y-131834497D01*
X108329969Y-131851292D01*
X108263834Y-131828754D01*
X108224796Y-131783702D01*
X108157944Y-131652499D01*
X108137965Y-131625000D01*
X108041884Y-131492753D01*
X107902246Y-131353115D01*
X107742504Y-131237058D01*
X107742503Y-131237057D01*
X107742501Y-131237056D01*
X107566561Y-131147409D01*
X107566558Y-131147408D01*
X107378763Y-131086389D01*
X107183736Y-131055500D01*
X107183731Y-131055500D01*
X106986269Y-131055500D01*
X106986264Y-131055500D01*
X106791236Y-131086389D01*
X106603441Y-131147408D01*
X106427495Y-131237058D01*
X106267753Y-131353115D01*
X106128115Y-131492753D01*
X106012058Y-131652495D01*
X105922408Y-131828441D01*
X105861389Y-132016236D01*
X105830500Y-132211263D01*
X105830500Y-132408736D01*
X105861389Y-132603763D01*
X105921569Y-132788976D01*
X105922409Y-132791561D01*
X106006853Y-132957289D01*
X106012058Y-132967504D01*
X106128115Y-133127246D01*
X106267753Y-133266884D01*
X106417234Y-133375486D01*
X106427499Y-133382944D01*
X106603439Y-133472591D01*
X106728637Y-133513270D01*
X106791236Y-133533610D01*
X106986264Y-133564500D01*
X106986269Y-133564500D01*
X107183736Y-133564500D01*
X107378757Y-133533611D01*
X107378757Y-133533610D01*
X107378763Y-133533610D01*
X107406298Y-133524662D01*
X107476137Y-133522668D01*
X107532296Y-133554913D01*
X107738696Y-133761313D01*
X107738697Y-133761314D01*
X107738699Y-133761315D01*
X107867300Y-133835563D01*
X107867301Y-133835563D01*
X107867304Y-133835565D01*
X108010748Y-133874001D01*
X108010751Y-133874001D01*
X108166849Y-133874001D01*
X108166865Y-133874000D01*
X111159251Y-133874000D01*
X111159253Y-133874000D01*
X111302696Y-133835565D01*
X111346532Y-133810256D01*
X111431304Y-133761313D01*
X111536313Y-133656304D01*
X111536313Y-133656302D01*
X111546517Y-133646099D01*
X111546523Y-133646092D01*
X111571801Y-133620814D01*
X111637703Y-133554912D01*
X111699025Y-133521428D01*
X111763703Y-133524664D01*
X111791229Y-133533608D01*
X111791232Y-133533608D01*
X111791237Y-133533610D01*
X111881564Y-133547916D01*
X111986264Y-133564500D01*
X111986269Y-133564500D01*
X112183736Y-133564500D01*
X112278283Y-133549524D01*
X112378763Y-133533610D01*
X112406296Y-133524663D01*
X112476136Y-133522667D01*
X112532297Y-133554913D01*
X112819346Y-133841962D01*
X112819356Y-133841973D01*
X112823686Y-133846303D01*
X112823687Y-133846304D01*
X112928696Y-133951313D01*
X113057304Y-134025565D01*
X113200747Y-134064000D01*
X113200748Y-134064000D01*
X119275501Y-134064000D01*
X119342540Y-134083685D01*
X119388295Y-134136489D01*
X119399501Y-134188000D01*
X119399501Y-134500018D01*
X119410000Y-134602796D01*
X119410001Y-134602799D01*
X119465185Y-134769331D01*
X119465187Y-134769336D01*
X119499999Y-134825776D01*
X119557288Y-134918656D01*
X119681344Y-135042712D01*
X119830666Y-135134814D01*
X119997203Y-135189999D01*
X120099991Y-135200500D01*
X120900008Y-135200499D01*
X120900016Y-135200498D01*
X120900019Y-135200498D01*
X120956302Y-135194748D01*
X121002797Y-135189999D01*
X121169334Y-135134814D01*
X121318656Y-135042712D01*
X121412319Y-134949049D01*
X121473642Y-134915564D01*
X121543334Y-134920548D01*
X121587681Y-134949049D01*
X121681344Y-135042712D01*
X121830666Y-135134814D01*
X121997203Y-135189999D01*
X122099991Y-135200500D01*
X122900008Y-135200499D01*
X122900016Y-135200498D01*
X122900019Y-135200498D01*
X122956302Y-135194748D01*
X123002797Y-135189999D01*
X123169334Y-135134814D01*
X123318656Y-135042712D01*
X123442712Y-134918656D01*
X123534814Y-134769334D01*
X123574690Y-134648995D01*
X123614463Y-134591551D01*
X123678979Y-134564728D01*
X123692396Y-134564000D01*
X183733373Y-134564000D01*
X183800412Y-134583685D01*
X183846167Y-134636489D01*
X183856111Y-134705647D01*
X183827086Y-134769203D01*
X183802264Y-134791102D01*
X183718531Y-134847050D01*
X183718527Y-134847053D01*
X183572755Y-134992825D01*
X183572752Y-134992829D01*
X183458218Y-135164240D01*
X183458213Y-135164249D01*
X183379320Y-135354715D01*
X183379318Y-135354723D01*
X183339100Y-135556912D01*
X183339100Y-135763083D01*
X183379318Y-135965272D01*
X183379320Y-135965280D01*
X183458213Y-136155746D01*
X183458218Y-136155755D01*
X183572752Y-136327166D01*
X183572755Y-136327170D01*
X183603873Y-136358288D01*
X183637358Y-136419611D01*
X183632374Y-136489303D01*
X183615460Y-136520279D01*
X183569803Y-136581269D01*
X183569802Y-136581271D01*
X183519508Y-136716117D01*
X183513101Y-136775716D01*
X183513101Y-136775723D01*
X183513100Y-136775735D01*
X183513100Y-137684270D01*
X183513101Y-137684276D01*
X183519508Y-137743883D01*
X183545797Y-137814367D01*
X183550781Y-137884058D01*
X183545797Y-137901031D01*
X183519509Y-137971514D01*
X183519508Y-137971516D01*
X183513101Y-138031116D01*
X183513101Y-138031123D01*
X183513100Y-138031135D01*
X183513100Y-138888870D01*
X183513101Y-138888876D01*
X183519508Y-138948483D01*
X183520857Y-138954189D01*
X183523864Y-138991529D01*
X183522653Y-139008486D01*
X183519509Y-139016918D01*
X183513100Y-139076528D01*
X183513100Y-139142335D01*
X183512785Y-139146749D01*
X183502062Y-139175511D01*
X183493415Y-139204960D01*
X183489076Y-139210344D01*
X183488378Y-139212217D01*
X183486333Y-139213748D01*
X183476781Y-139225602D01*
X171302703Y-151399681D01*
X171241380Y-151433166D01*
X171215022Y-151436000D01*
X158304979Y-151436000D01*
X158237940Y-151416315D01*
X158217298Y-151399681D01*
X157761581Y-150943964D01*
X156845995Y-150028379D01*
X156812511Y-149967057D01*
X156817495Y-149897365D01*
X156859367Y-149841432D01*
X156890345Y-149824516D01*
X156947090Y-149803352D01*
X156947093Y-149803350D01*
X157062187Y-149717190D01*
X157062190Y-149717187D01*
X157148350Y-149602093D01*
X157148354Y-149602086D01*
X157198596Y-149467379D01*
X157198598Y-149467372D01*
X157204999Y-149407844D01*
X157205000Y-149407827D01*
X157205000Y-149250000D01*
X156509000Y-149250000D01*
X156441961Y-149230315D01*
X156396206Y-149177511D01*
X156388557Y-149155488D01*
X156331056Y-148920625D01*
X156331131Y-148918958D01*
X156330333Y-148917495D01*
X156327499Y-148891137D01*
X156327499Y-148750000D01*
X156635000Y-148750000D01*
X157205000Y-148750000D01*
X157205000Y-148592172D01*
X157204999Y-148592155D01*
X157198598Y-148532627D01*
X157198596Y-148532620D01*
X157187490Y-148502844D01*
X163894000Y-148502844D01*
X163900401Y-148562372D01*
X163900403Y-148562379D01*
X163950645Y-148697086D01*
X163950649Y-148697093D01*
X164036809Y-148812187D01*
X164036812Y-148812190D01*
X164151906Y-148898350D01*
X164151913Y-148898354D01*
X164286620Y-148948596D01*
X164286627Y-148948598D01*
X164346155Y-148954999D01*
X164346172Y-148955000D01*
X164804000Y-148955000D01*
X165304000Y-148955000D01*
X165761828Y-148955000D01*
X165761844Y-148954999D01*
X165821372Y-148948598D01*
X165821379Y-148948596D01*
X165956086Y-148898354D01*
X165956093Y-148898350D01*
X166071187Y-148812190D01*
X166071190Y-148812187D01*
X166157350Y-148697093D01*
X166157354Y-148697086D01*
X166207596Y-148562379D01*
X166207598Y-148562372D01*
X166213999Y-148502844D01*
X166214000Y-148502827D01*
X166214000Y-147750000D01*
X165304000Y-147750000D01*
X165304000Y-148955000D01*
X164804000Y-148955000D01*
X164804000Y-147750000D01*
X163894000Y-147750000D01*
X163894000Y-148502844D01*
X157187490Y-148502844D01*
X157148354Y-148397913D01*
X157148350Y-148397906D01*
X157062190Y-148282812D01*
X157062187Y-148282809D01*
X156947093Y-148196649D01*
X156947086Y-148196645D01*
X156812379Y-148146403D01*
X156812372Y-148146401D01*
X156752844Y-148140000D01*
X156635000Y-148140000D01*
X156635000Y-148750000D01*
X156327499Y-148750000D01*
X156327499Y-148592129D01*
X156327498Y-148592123D01*
X156327497Y-148592116D01*
X156321091Y-148532517D01*
X156310038Y-148502883D01*
X156270797Y-148397671D01*
X156270793Y-148397664D01*
X156184547Y-148282455D01*
X156180193Y-148278101D01*
X156177797Y-148277007D01*
X156161202Y-148251185D01*
X156142814Y-148226616D01*
X156141799Y-148220994D01*
X156140023Y-148218229D01*
X156135000Y-148183294D01*
X156135000Y-148140000D01*
X156107319Y-148112319D01*
X156073834Y-148050996D01*
X156071000Y-148024638D01*
X156071000Y-147432750D01*
X156071000Y-147432748D01*
X156035381Y-147299813D01*
X156037044Y-147229966D01*
X156076207Y-147172104D01*
X156140435Y-147144600D01*
X156190015Y-147151839D01*
X156190810Y-147149106D01*
X156356004Y-147197099D01*
X156356010Y-147197100D01*
X156392850Y-147199999D01*
X156392866Y-147200000D01*
X156721000Y-147200000D01*
X157221000Y-147200000D01*
X157549134Y-147200000D01*
X157549149Y-147199999D01*
X157585989Y-147197100D01*
X157585995Y-147197099D01*
X157743693Y-147151283D01*
X157743696Y-147151282D01*
X157885052Y-147067685D01*
X157885061Y-147067678D01*
X158001178Y-146951561D01*
X158001185Y-146951552D01*
X158084781Y-146810198D01*
X158130600Y-146652486D01*
X158130795Y-146650001D01*
X158130795Y-146650000D01*
X157221000Y-146650000D01*
X157221000Y-147200000D01*
X156721000Y-147200000D01*
X156721000Y-146524000D01*
X156728883Y-146497155D01*
X163894000Y-146497155D01*
X163894000Y-147250000D01*
X164804000Y-147250000D01*
X165304000Y-147250000D01*
X166214000Y-147250000D01*
X166214000Y-146497172D01*
X166213999Y-146497155D01*
X166207598Y-146437627D01*
X166207596Y-146437620D01*
X166157354Y-146302913D01*
X166157350Y-146302906D01*
X166071190Y-146187812D01*
X166071187Y-146187809D01*
X165956093Y-146101649D01*
X165956086Y-146101645D01*
X165821379Y-146051403D01*
X165821372Y-146051401D01*
X165761844Y-146045000D01*
X165304000Y-146045000D01*
X165304000Y-147250000D01*
X164804000Y-147250000D01*
X164804000Y-146045000D01*
X164346155Y-146045000D01*
X164286627Y-146051401D01*
X164286620Y-146051403D01*
X164151913Y-146101645D01*
X164151906Y-146101649D01*
X164036812Y-146187809D01*
X164036809Y-146187812D01*
X163950649Y-146302906D01*
X163950645Y-146302913D01*
X163900403Y-146437620D01*
X163900401Y-146437627D01*
X163894000Y-146497155D01*
X156728883Y-146497155D01*
X156740685Y-146456961D01*
X156793489Y-146411206D01*
X156845000Y-146400000D01*
X156971000Y-146400000D01*
X156971000Y-146374500D01*
X156990685Y-146307461D01*
X157043489Y-146261706D01*
X157095000Y-146250500D01*
X157549186Y-146250500D01*
X157549194Y-146250500D01*
X157586069Y-146247598D01*
X157586071Y-146247597D01*
X157586073Y-146247597D01*
X157627691Y-146235505D01*
X157743898Y-146201744D01*
X157802194Y-146167268D01*
X157865315Y-146150000D01*
X158130795Y-146150000D01*
X158130795Y-146149998D01*
X158130600Y-146147511D01*
X158088789Y-146003594D01*
X158088989Y-145933725D01*
X158126932Y-145875055D01*
X158190570Y-145846212D01*
X158207866Y-145845000D01*
X159423162Y-145845000D01*
X159490201Y-145864685D01*
X159497473Y-145869733D01*
X159557669Y-145914796D01*
X159557671Y-145914797D01*
X159572962Y-145920500D01*
X159692517Y-145965091D01*
X159752127Y-145971500D01*
X160247872Y-145971499D01*
X160307483Y-145965091D01*
X160442331Y-145914796D01*
X160557546Y-145828546D01*
X160643796Y-145713331D01*
X160694091Y-145578483D01*
X160700500Y-145518873D01*
X160700499Y-145043128D01*
X160697287Y-145013247D01*
X160697287Y-144986747D01*
X160700500Y-144956873D01*
X160700499Y-144481128D01*
X160694091Y-144421517D01*
X160687214Y-144403080D01*
X160643797Y-144286671D01*
X160643793Y-144286664D01*
X160557547Y-144171455D01*
X160557544Y-144171452D01*
X160442335Y-144085206D01*
X160442328Y-144085202D01*
X160307486Y-144034910D01*
X160307485Y-144034909D01*
X160307483Y-144034909D01*
X160247873Y-144028500D01*
X160247863Y-144028500D01*
X159752129Y-144028500D01*
X159752123Y-144028501D01*
X159692516Y-144034908D01*
X159557671Y-144085202D01*
X159557669Y-144085203D01*
X159497473Y-144130267D01*
X159432009Y-144154684D01*
X159423162Y-144155000D01*
X158194648Y-144155000D01*
X158127609Y-144135315D01*
X158087916Y-144094121D01*
X158085244Y-144089603D01*
X158085244Y-144089602D01*
X158033936Y-144002844D01*
X163894000Y-144002844D01*
X163900401Y-144062372D01*
X163900403Y-144062379D01*
X163950645Y-144197086D01*
X163950649Y-144197093D01*
X164036809Y-144312187D01*
X164036812Y-144312190D01*
X164151906Y-144398350D01*
X164151913Y-144398354D01*
X164286620Y-144448596D01*
X164286627Y-144448598D01*
X164346155Y-144454999D01*
X164346172Y-144455000D01*
X164804000Y-144455000D01*
X165304000Y-144455000D01*
X165761828Y-144455000D01*
X165761844Y-144454999D01*
X165821372Y-144448598D01*
X165821379Y-144448596D01*
X165956086Y-144398354D01*
X165956093Y-144398350D01*
X166071187Y-144312190D01*
X166071190Y-144312187D01*
X166157350Y-144197093D01*
X166157354Y-144197086D01*
X166207596Y-144062379D01*
X166207598Y-144062372D01*
X166213999Y-144002844D01*
X166214000Y-144002827D01*
X166214000Y-143250000D01*
X165304000Y-143250000D01*
X165304000Y-144455000D01*
X164804000Y-144455000D01*
X164804000Y-143250000D01*
X163894000Y-143250000D01*
X163894000Y-144002844D01*
X158033936Y-144002844D01*
X158001581Y-143948135D01*
X158001579Y-143948133D01*
X158001576Y-143948129D01*
X157885370Y-143831923D01*
X157885362Y-143831917D01*
X157743896Y-143748255D01*
X157743893Y-143748254D01*
X157586073Y-143702402D01*
X157586067Y-143702401D01*
X157549201Y-143699500D01*
X157549194Y-143699500D01*
X156805000Y-143699500D01*
X156737961Y-143679815D01*
X156692206Y-143627011D01*
X156681000Y-143575500D01*
X156681000Y-142807055D01*
X156700685Y-142740016D01*
X156753489Y-142694261D01*
X156774217Y-142688310D01*
X156773906Y-142687149D01*
X156781754Y-142685044D01*
X156781762Y-142685044D01*
X156927841Y-142624536D01*
X157053282Y-142528282D01*
X157149536Y-142402841D01*
X157210044Y-142256762D01*
X157210044Y-142256760D01*
X157213154Y-142249253D01*
X157216425Y-142250608D01*
X157244278Y-142204821D01*
X157307098Y-142174235D01*
X157327770Y-142172500D01*
X163770000Y-142172500D01*
X163837039Y-142192185D01*
X163882794Y-142244989D01*
X163894000Y-142296500D01*
X163894000Y-142750000D01*
X166214000Y-142750000D01*
X166214000Y-142364978D01*
X166233685Y-142297939D01*
X166286489Y-142252184D01*
X166355647Y-142242240D01*
X166419203Y-142271265D01*
X166425681Y-142277297D01*
X166749181Y-142600797D01*
X166782666Y-142662120D01*
X166785500Y-142688478D01*
X166785500Y-144002870D01*
X166785501Y-144002876D01*
X166791908Y-144062483D01*
X166842202Y-144197328D01*
X166842206Y-144197335D01*
X166928452Y-144312544D01*
X166928455Y-144312547D01*
X167043664Y-144398793D01*
X167043671Y-144398797D01*
X167088618Y-144415561D01*
X167178517Y-144449091D01*
X167238127Y-144455500D01*
X167257997Y-144455499D01*
X167325035Y-144475181D01*
X167370792Y-144527983D01*
X167382000Y-144579499D01*
X167382000Y-145920500D01*
X167362315Y-145987539D01*
X167309511Y-146033294D01*
X167258005Y-146044500D01*
X167238132Y-146044500D01*
X167238123Y-146044501D01*
X167178516Y-146050908D01*
X167043671Y-146101202D01*
X167043664Y-146101206D01*
X166928455Y-146187452D01*
X166928452Y-146187455D01*
X166842206Y-146302664D01*
X166842202Y-146302671D01*
X166791908Y-146437517D01*
X166789818Y-146456961D01*
X166785501Y-146497123D01*
X166785500Y-146497135D01*
X166785500Y-148502870D01*
X166785501Y-148502876D01*
X166791908Y-148562483D01*
X166842202Y-148697328D01*
X166842206Y-148697335D01*
X166928452Y-148812544D01*
X166928455Y-148812547D01*
X167043664Y-148898793D01*
X167043671Y-148898797D01*
X167178517Y-148949091D01*
X167178516Y-148949091D01*
X167185444Y-148949835D01*
X167238127Y-148955500D01*
X168653872Y-148955499D01*
X168713483Y-148949091D01*
X168848331Y-148898796D01*
X168963546Y-148812546D01*
X169049796Y-148697331D01*
X169100091Y-148562483D01*
X169106500Y-148502873D01*
X169106499Y-146497128D01*
X169100091Y-146437517D01*
X169076587Y-146374500D01*
X169049797Y-146302671D01*
X169049793Y-146302664D01*
X168963547Y-146187455D01*
X168963544Y-146187452D01*
X168848335Y-146101206D01*
X168848328Y-146101202D01*
X168713482Y-146050908D01*
X168713483Y-146050908D01*
X168653883Y-146044501D01*
X168653881Y-146044500D01*
X168653873Y-146044500D01*
X168653865Y-146044500D01*
X168634000Y-146044500D01*
X168566961Y-146024815D01*
X168521206Y-145972011D01*
X168510000Y-145920500D01*
X168510000Y-144579499D01*
X168529685Y-144512460D01*
X168582489Y-144466705D01*
X168634000Y-144455499D01*
X168653871Y-144455499D01*
X168653872Y-144455499D01*
X168713483Y-144449091D01*
X168848331Y-144398796D01*
X168963546Y-144312546D01*
X169049796Y-144197331D01*
X169100091Y-144062483D01*
X169106500Y-144002873D01*
X169106499Y-141997128D01*
X169100091Y-141937517D01*
X169100090Y-141937515D01*
X169100090Y-141937512D01*
X169098308Y-141929969D01*
X169101021Y-141929327D01*
X169096987Y-141872849D01*
X169130478Y-141811529D01*
X169191804Y-141778049D01*
X169193846Y-141777623D01*
X169233497Y-141769737D01*
X169379179Y-141709394D01*
X169510289Y-141621789D01*
X169621789Y-141510289D01*
X169709394Y-141379179D01*
X169769737Y-141233497D01*
X169800500Y-141078842D01*
X169800500Y-140921158D01*
X169800500Y-140921155D01*
X169800499Y-140921153D01*
X169793004Y-140883472D01*
X169769737Y-140766503D01*
X169769735Y-140766498D01*
X169709397Y-140620827D01*
X169709390Y-140620814D01*
X169621789Y-140489711D01*
X169621786Y-140489707D01*
X169510292Y-140378213D01*
X169510288Y-140378210D01*
X169379185Y-140290609D01*
X169379172Y-140290602D01*
X169233501Y-140230264D01*
X169233489Y-140230261D01*
X169078845Y-140199500D01*
X169078842Y-140199500D01*
X168921158Y-140199500D01*
X168921155Y-140199500D01*
X168766510Y-140230261D01*
X168766498Y-140230264D01*
X168620827Y-140290602D01*
X168620814Y-140290609D01*
X168489711Y-140378210D01*
X168489707Y-140378213D01*
X168378213Y-140489707D01*
X168378210Y-140489711D01*
X168290609Y-140620814D01*
X168290602Y-140620827D01*
X168230264Y-140766498D01*
X168230261Y-140766510D01*
X168199500Y-140921153D01*
X168199500Y-140951521D01*
X168179815Y-141018560D01*
X168163181Y-141039202D01*
X167694202Y-141508181D01*
X167632879Y-141541666D01*
X167606521Y-141544500D01*
X167339478Y-141544500D01*
X167272439Y-141524815D01*
X167251797Y-141508181D01*
X167012883Y-141269267D01*
X167012881Y-141269264D01*
X166900806Y-141157189D01*
X166900804Y-141157187D01*
X166772196Y-141082935D01*
X166628753Y-141044500D01*
X166628752Y-141044500D01*
X156065865Y-141044500D01*
X156065849Y-141044499D01*
X156058253Y-141044499D01*
X155909748Y-141044499D01*
X155766304Y-141082935D01*
X155637700Y-141157185D01*
X155637693Y-141157189D01*
X155531699Y-141263182D01*
X155470376Y-141296666D01*
X155444020Y-141299500D01*
X155335637Y-141299500D01*
X155218246Y-141314953D01*
X155218237Y-141314956D01*
X155072160Y-141375463D01*
X154946718Y-141471718D01*
X154850463Y-141597160D01*
X154789956Y-141743237D01*
X154789955Y-141743239D01*
X154774501Y-141860629D01*
X154774500Y-141860645D01*
X154774500Y-141969021D01*
X154754815Y-142036060D01*
X154738181Y-142056702D01*
X154244688Y-142550194D01*
X154244684Y-142550199D01*
X154207205Y-142615115D01*
X154207202Y-142615120D01*
X154201767Y-142624536D01*
X154170435Y-142678804D01*
X154133657Y-142816065D01*
X154132261Y-142821271D01*
X154132259Y-142821279D01*
X154132000Y-142822247D01*
X154132000Y-143594463D01*
X154112315Y-143661502D01*
X154059511Y-143707257D01*
X154042595Y-143713539D01*
X153923106Y-143748253D01*
X153923103Y-143748255D01*
X153781637Y-143831917D01*
X153781629Y-143831923D01*
X153665423Y-143948129D01*
X153665417Y-143948137D01*
X153581755Y-144089603D01*
X153581754Y-144089606D01*
X153535902Y-144247426D01*
X153535901Y-144247432D01*
X153533000Y-144284298D01*
X153533000Y-144284306D01*
X153533000Y-144715694D01*
X153535878Y-144752271D01*
X153533019Y-144765881D01*
X153534999Y-144779647D01*
X153525978Y-144799398D01*
X153521515Y-144820648D01*
X153511751Y-144830552D01*
X153505974Y-144843203D01*
X153487707Y-144854942D01*
X153472464Y-144870405D01*
X153457692Y-144874231D01*
X153447196Y-144880977D01*
X153412261Y-144886000D01*
X153234978Y-144886000D01*
X153167939Y-144866315D01*
X153147297Y-144849681D01*
X150958383Y-142660767D01*
X150958381Y-142660764D01*
X150846306Y-142548689D01*
X150846304Y-142548687D01*
X150717696Y-142474435D01*
X150574253Y-142436000D01*
X150574252Y-142436000D01*
X142259259Y-142436000D01*
X142192220Y-142416315D01*
X142146465Y-142363511D01*
X142141553Y-142351004D01*
X142134814Y-142330666D01*
X142042712Y-142181344D01*
X141918656Y-142057288D01*
X141769334Y-141965186D01*
X141602797Y-141910001D01*
X141602795Y-141910000D01*
X141500016Y-141899500D01*
X141500009Y-141899500D01*
X141248478Y-141899500D01*
X141181439Y-141879815D01*
X141160797Y-141863181D01*
X140790319Y-141492703D01*
X140756834Y-141431380D01*
X140754000Y-141405022D01*
X140754000Y-140259258D01*
X140773685Y-140192219D01*
X140826489Y-140146464D01*
X140838977Y-140141559D01*
X140859334Y-140134814D01*
X141008656Y-140042712D01*
X141102675Y-139948692D01*
X141163994Y-139915210D01*
X141233686Y-139920194D01*
X141278034Y-139948695D01*
X141371654Y-140042315D01*
X141520875Y-140134356D01*
X141520880Y-140134358D01*
X141687302Y-140189505D01*
X141687309Y-140189506D01*
X141790019Y-140199999D01*
X141939999Y-140199999D01*
X142440000Y-140199999D01*
X142589972Y-140199999D01*
X142589986Y-140199998D01*
X142692697Y-140189505D01*
X142859119Y-140134358D01*
X142859124Y-140134356D01*
X143008345Y-140042315D01*
X143132315Y-139918345D01*
X143224356Y-139769124D01*
X143224358Y-139769119D01*
X143279505Y-139602697D01*
X143279506Y-139602690D01*
X143289999Y-139499986D01*
X143290000Y-139499973D01*
X143290000Y-139250000D01*
X142440000Y-139250000D01*
X142440000Y-140199999D01*
X141939999Y-140199999D01*
X141940000Y-140199998D01*
X141940000Y-138750000D01*
X142440000Y-138750000D01*
X143289999Y-138750000D01*
X143289999Y-138500028D01*
X143289998Y-138500013D01*
X143279505Y-138397302D01*
X143224358Y-138230880D01*
X143224356Y-138230875D01*
X143132315Y-138081654D01*
X143008345Y-137957684D01*
X142859124Y-137865643D01*
X142859119Y-137865641D01*
X142692697Y-137810494D01*
X142692690Y-137810493D01*
X142589986Y-137800000D01*
X142440000Y-137800000D01*
X142440000Y-138750000D01*
X141940000Y-138750000D01*
X141940000Y-137800000D01*
X141790027Y-137800000D01*
X141790012Y-137800001D01*
X141687302Y-137810494D01*
X141520880Y-137865641D01*
X141520875Y-137865643D01*
X141371657Y-137957682D01*
X141278034Y-138051305D01*
X141216710Y-138084789D01*
X141147019Y-138079805D01*
X141102672Y-138051304D01*
X141008657Y-137957289D01*
X141008656Y-137957288D01*
X140859334Y-137865186D01*
X140692797Y-137810001D01*
X140692795Y-137810000D01*
X140590010Y-137799500D01*
X139789998Y-137799500D01*
X139789980Y-137799501D01*
X139687203Y-137810000D01*
X139687200Y-137810001D01*
X139520668Y-137865185D01*
X139520663Y-137865187D01*
X139371342Y-137957289D01*
X139247289Y-138081342D01*
X139155187Y-138230663D01*
X139155185Y-138230668D01*
X139155115Y-138230880D01*
X139100001Y-138397203D01*
X139100001Y-138397204D01*
X139100000Y-138397204D01*
X139089500Y-138499983D01*
X139089500Y-139500001D01*
X139089501Y-139500019D01*
X139100000Y-139602796D01*
X139100001Y-139602799D01*
X139155115Y-139769119D01*
X139155186Y-139769334D01*
X139247288Y-139918656D01*
X139371344Y-140042712D01*
X139520666Y-140134814D01*
X139541004Y-140141553D01*
X139598447Y-140181322D01*
X139625272Y-140245837D01*
X139626000Y-140259258D01*
X139626000Y-141615747D01*
X139626000Y-141764253D01*
X139629697Y-141778049D01*
X139645306Y-141836304D01*
X139664435Y-141907697D01*
X139664436Y-141907698D01*
X139676663Y-141928876D01*
X139738687Y-142036304D01*
X139738689Y-142036306D01*
X139850761Y-142148378D01*
X139850767Y-142148383D01*
X139859896Y-142157512D01*
X139893381Y-142218835D01*
X139888397Y-142288527D01*
X139877755Y-142310288D01*
X139865188Y-142330661D01*
X139865185Y-142330668D01*
X139837349Y-142414670D01*
X139810001Y-142497203D01*
X139810001Y-142497204D01*
X139810000Y-142497204D01*
X139799500Y-142599983D01*
X139799500Y-143400001D01*
X139799501Y-143400019D01*
X139810000Y-143502796D01*
X139810001Y-143502799D01*
X139865185Y-143669331D01*
X139865187Y-143669336D01*
X139871651Y-143679815D01*
X139948404Y-143804253D01*
X139957289Y-143818657D01*
X140050951Y-143912319D01*
X140084436Y-143973642D01*
X140079452Y-144043334D01*
X140050951Y-144087681D01*
X139957289Y-144181342D01*
X139865187Y-144330663D01*
X139865185Y-144330668D01*
X139854302Y-144363511D01*
X139810001Y-144497203D01*
X139810001Y-144497204D01*
X139810000Y-144497204D01*
X139799500Y-144599983D01*
X139799500Y-145400001D01*
X139799501Y-145400019D01*
X139810000Y-145502796D01*
X139810001Y-145502799D01*
X139850269Y-145624319D01*
X139865186Y-145669334D01*
X139957288Y-145818656D01*
X140081344Y-145942712D01*
X140230666Y-146034814D01*
X140397203Y-146089999D01*
X140499991Y-146100500D01*
X141500008Y-146100499D01*
X141500016Y-146100498D01*
X141500019Y-146100498D01*
X141556302Y-146094748D01*
X141602797Y-146089999D01*
X141769334Y-146034814D01*
X141918656Y-145942712D01*
X142042712Y-145818656D01*
X142134814Y-145669334D01*
X142141553Y-145648995D01*
X142181326Y-145591551D01*
X142245842Y-145564728D01*
X142259259Y-145564000D01*
X149215022Y-145564000D01*
X149282061Y-145583685D01*
X149302703Y-145600319D01*
X150444346Y-146741962D01*
X150444356Y-146741973D01*
X150448686Y-146746303D01*
X150448687Y-146746304D01*
X150553696Y-146851313D01*
X150682304Y-146925565D01*
X150825747Y-146964000D01*
X150825748Y-146964000D01*
X153626192Y-146964000D01*
X153693231Y-146983685D01*
X153713868Y-147000314D01*
X153781635Y-147068081D01*
X153923102Y-147151744D01*
X153953915Y-147160696D01*
X154080926Y-147197597D01*
X154080929Y-147197597D01*
X154080931Y-147197598D01*
X154117806Y-147200500D01*
X154351522Y-147200500D01*
X154418561Y-147220185D01*
X154439203Y-147236819D01*
X154906681Y-147704297D01*
X154940166Y-147765620D01*
X154943000Y-147791978D01*
X154943000Y-148135383D01*
X154923315Y-148202422D01*
X154893312Y-148234649D01*
X154829457Y-148282451D01*
X154829451Y-148282457D01*
X154743206Y-148397664D01*
X154743202Y-148397671D01*
X154692908Y-148532517D01*
X154689699Y-148562372D01*
X154686501Y-148592123D01*
X154686500Y-148592135D01*
X154686500Y-149407870D01*
X154686501Y-149407876D01*
X154692908Y-149467483D01*
X154743202Y-149602328D01*
X154743206Y-149602335D01*
X154829452Y-149717544D01*
X154829455Y-149717547D01*
X154944664Y-149803793D01*
X154944673Y-149803798D01*
X155049388Y-149842853D01*
X155058440Y-149848670D01*
X155065482Y-149850202D01*
X155093727Y-149871346D01*
X155093733Y-149871350D01*
X155160696Y-149938313D01*
X155160698Y-149938314D01*
X155167768Y-149945384D01*
X157510202Y-152287819D01*
X157543687Y-152349142D01*
X157538703Y-152418834D01*
X157496831Y-152474767D01*
X157431367Y-152499184D01*
X157422521Y-152499500D01*
X106603246Y-152499500D01*
X106596756Y-152499330D01*
X106282500Y-152482860D01*
X106269592Y-152481503D01*
X105961999Y-152432785D01*
X105949304Y-152430087D01*
X105648480Y-152349482D01*
X105636135Y-152345471D01*
X105345387Y-152233863D01*
X105333530Y-152228584D01*
X105056029Y-152087190D01*
X105044810Y-152080713D01*
X104783606Y-151911085D01*
X104773112Y-151903460D01*
X104531076Y-151707463D01*
X104521431Y-151698778D01*
X104301221Y-151478568D01*
X104292536Y-151468923D01*
X104096539Y-151226887D01*
X104088917Y-151216396D01*
X103919282Y-150955183D01*
X103912812Y-150943977D01*
X103771410Y-150666459D01*
X103766141Y-150654623D01*
X103654525Y-150363855D01*
X103650520Y-150351528D01*
X103569908Y-150050680D01*
X103567217Y-150038015D01*
X103518495Y-149730406D01*
X103517139Y-149717498D01*
X103500670Y-149403242D01*
X103500500Y-149396753D01*
X103500500Y-149297648D01*
X105299500Y-149297648D01*
X105299500Y-149502351D01*
X105331522Y-149704534D01*
X105394781Y-149899223D01*
X105487715Y-150081613D01*
X105608028Y-150247213D01*
X105752786Y-150391971D01*
X105907749Y-150504556D01*
X105918390Y-150512287D01*
X106028669Y-150568477D01*
X106100776Y-150605218D01*
X106100778Y-150605218D01*
X106100781Y-150605220D01*
X106205137Y-150639127D01*
X106295465Y-150668477D01*
X106396557Y-150684488D01*
X106497648Y-150700500D01*
X106497649Y-150700500D01*
X106702351Y-150700500D01*
X106702352Y-150700500D01*
X106904534Y-150668477D01*
X107099219Y-150605220D01*
X107281610Y-150512287D01*
X107374590Y-150444732D01*
X107447213Y-150391971D01*
X107447215Y-150391968D01*
X107447219Y-150391966D01*
X107591966Y-150247219D01*
X107591968Y-150247215D01*
X107591971Y-150247213D01*
X107644732Y-150174590D01*
X107712287Y-150081610D01*
X107805220Y-149899219D01*
X107868477Y-149704534D01*
X107900500Y-149502352D01*
X107900500Y-149297648D01*
X107868477Y-149095466D01*
X107805220Y-148900781D01*
X107805218Y-148900778D01*
X107805218Y-148900776D01*
X107760261Y-148812544D01*
X107712287Y-148718390D01*
X107696809Y-148697086D01*
X107591971Y-148552786D01*
X107447213Y-148408028D01*
X107281613Y-148287715D01*
X107281612Y-148287714D01*
X107281610Y-148287713D01*
X107209920Y-148251185D01*
X107099223Y-148194781D01*
X106904534Y-148131522D01*
X106729995Y-148103878D01*
X106702352Y-148099500D01*
X106497648Y-148099500D01*
X106473329Y-148103351D01*
X106295465Y-148131522D01*
X106100776Y-148194781D01*
X105918386Y-148287715D01*
X105752786Y-148408028D01*
X105608028Y-148552786D01*
X105487715Y-148718386D01*
X105394781Y-148900776D01*
X105331522Y-149095465D01*
X105299500Y-149297648D01*
X103500500Y-149297648D01*
X103500500Y-119543713D01*
X113649500Y-119543713D01*
X113649500Y-119756286D01*
X113682735Y-119966127D01*
X113682754Y-119966243D01*
X113747653Y-120165982D01*
X113748444Y-120168414D01*
X113844951Y-120357820D01*
X113969890Y-120529786D01*
X114120213Y-120680109D01*
X114292179Y-120805048D01*
X114292181Y-120805049D01*
X114292184Y-120805051D01*
X114481588Y-120901557D01*
X114683757Y-120967246D01*
X114893713Y-121000500D01*
X114893714Y-121000500D01*
X115106286Y-121000500D01*
X115106287Y-121000500D01*
X115316243Y-120967246D01*
X115397486Y-120940847D01*
X115467323Y-120938852D01*
X115523482Y-120971098D01*
X117894346Y-123341962D01*
X117894356Y-123341973D01*
X117898686Y-123346303D01*
X117898687Y-123346304D01*
X118003696Y-123451313D01*
X118083180Y-123497203D01*
X118132303Y-123525565D01*
X118275747Y-123564000D01*
X118275748Y-123564000D01*
X118922257Y-123564000D01*
X118989296Y-123583685D01*
X119035051Y-123636489D01*
X119045875Y-123678274D01*
X119047351Y-123697043D01*
X119092412Y-123852145D01*
X119174626Y-123991161D01*
X119174633Y-123991170D01*
X119288829Y-124105366D01*
X119288833Y-124105369D01*
X119288835Y-124105371D01*
X119427855Y-124187588D01*
X119582954Y-124232648D01*
X119619191Y-124235500D01*
X119791000Y-124235499D01*
X119799685Y-124238049D01*
X119808647Y-124236761D01*
X119832684Y-124247738D01*
X119858039Y-124255183D01*
X119863967Y-124262025D01*
X119872203Y-124265786D01*
X119886489Y-124288017D01*
X119903794Y-124307987D01*
X119906081Y-124318502D01*
X119909977Y-124324564D01*
X119915000Y-124359499D01*
X119915000Y-124513161D01*
X119895315Y-124580200D01*
X119890267Y-124587472D01*
X119845204Y-124647668D01*
X119845202Y-124647671D01*
X119794910Y-124782513D01*
X119794909Y-124782517D01*
X119788500Y-124842127D01*
X119788500Y-124842134D01*
X119788500Y-124842135D01*
X119788500Y-125337870D01*
X119788501Y-125337876D01*
X119794908Y-125397483D01*
X119845202Y-125532328D01*
X119845206Y-125532335D01*
X119931452Y-125647544D01*
X119931455Y-125647547D01*
X120046664Y-125733793D01*
X120046671Y-125733797D01*
X120051106Y-125735451D01*
X120181517Y-125784091D01*
X120241127Y-125790500D01*
X120716872Y-125790499D01*
X120776483Y-125784091D01*
X120911331Y-125733796D01*
X121026546Y-125647546D01*
X121026547Y-125647543D01*
X121032688Y-125642947D01*
X121098152Y-125618529D01*
X121166425Y-125633380D01*
X121215831Y-125682785D01*
X121231000Y-125742213D01*
X121231000Y-125790000D01*
X121278828Y-125790000D01*
X121278844Y-125789999D01*
X121338372Y-125783598D01*
X121338379Y-125783596D01*
X121473086Y-125733354D01*
X121473093Y-125733350D01*
X121588187Y-125647190D01*
X121588190Y-125647187D01*
X121674350Y-125532093D01*
X121674354Y-125532086D01*
X121724596Y-125397379D01*
X121724598Y-125397372D01*
X121730999Y-125337844D01*
X121731000Y-125337827D01*
X121731000Y-125280000D01*
X121293500Y-125280000D01*
X121284814Y-125277449D01*
X121275854Y-125278738D01*
X121251812Y-125267759D01*
X121226461Y-125260315D01*
X121220534Y-125253475D01*
X121212298Y-125249714D01*
X121198007Y-125227478D01*
X121180706Y-125207511D01*
X121178418Y-125196998D01*
X121174523Y-125190936D01*
X121169500Y-125156001D01*
X121169499Y-125024001D01*
X121189183Y-124956961D01*
X121241987Y-124911206D01*
X121293499Y-124900000D01*
X121731000Y-124900000D01*
X121731000Y-124842172D01*
X121730999Y-124842155D01*
X121724598Y-124782627D01*
X121724596Y-124782620D01*
X121674354Y-124647913D01*
X121674350Y-124647906D01*
X121588190Y-124532812D01*
X121588187Y-124532809D01*
X121488611Y-124458266D01*
X121446740Y-124402332D01*
X121441756Y-124332641D01*
X121475242Y-124271318D01*
X121536565Y-124237834D01*
X121562922Y-124235000D01*
X121650000Y-124235000D01*
X122150000Y-124235000D01*
X122380750Y-124235000D01*
X122380761Y-124234999D01*
X122416965Y-124232150D01*
X122416971Y-124232149D01*
X122571940Y-124187126D01*
X122571945Y-124187124D01*
X122710852Y-124104975D01*
X122710861Y-124104968D01*
X122824968Y-123990861D01*
X122824975Y-123990852D01*
X122907124Y-123851945D01*
X122907126Y-123851940D01*
X122952149Y-123696971D01*
X122952150Y-123696965D01*
X122954999Y-123660761D01*
X122955000Y-123660749D01*
X122955000Y-123250000D01*
X122150000Y-123250000D01*
X122150000Y-124235000D01*
X121650000Y-124235000D01*
X121650000Y-122750000D01*
X122150000Y-122750000D01*
X122955000Y-122750000D01*
X122955000Y-122339250D01*
X122954999Y-122339238D01*
X122952150Y-122303034D01*
X122952149Y-122303028D01*
X122907126Y-122148059D01*
X122907124Y-122148054D01*
X122824975Y-122009147D01*
X122824968Y-122009138D01*
X122710861Y-121895031D01*
X122710852Y-121895024D01*
X122571945Y-121812875D01*
X122571940Y-121812873D01*
X122416971Y-121767850D01*
X122416965Y-121767849D01*
X122380761Y-121765000D01*
X122150000Y-121765000D01*
X122150000Y-122750000D01*
X121650000Y-122750000D01*
X121650000Y-121765000D01*
X121419238Y-121765000D01*
X121383034Y-121767849D01*
X121383028Y-121767850D01*
X121228059Y-121812873D01*
X121228054Y-121812875D01*
X121089149Y-121895023D01*
X121089132Y-121895036D01*
X121088021Y-121896148D01*
X121086937Y-121896739D01*
X121082983Y-121899807D01*
X121082487Y-121899168D01*
X121026693Y-121929624D01*
X120957002Y-121924629D01*
X120917477Y-121899223D01*
X120917331Y-121899412D01*
X120915206Y-121897763D01*
X120912672Y-121896135D01*
X120911170Y-121894633D01*
X120911161Y-121894626D01*
X120772145Y-121812412D01*
X120624649Y-121769561D01*
X120617046Y-121767352D01*
X120617044Y-121767351D01*
X120617040Y-121767351D01*
X120585509Y-121764869D01*
X120580809Y-121764500D01*
X120580808Y-121764500D01*
X119619202Y-121764500D01*
X119619180Y-121764501D01*
X119582956Y-121767351D01*
X119427854Y-121812412D01*
X119288838Y-121894626D01*
X119288829Y-121894633D01*
X119174633Y-122008829D01*
X119174626Y-122008838D01*
X119092412Y-122147854D01*
X119047352Y-122302954D01*
X119047351Y-122302959D01*
X119045874Y-122321730D01*
X119020989Y-122387018D01*
X118964758Y-122428489D01*
X118922256Y-122436000D01*
X118634978Y-122436000D01*
X118567939Y-122416315D01*
X118547297Y-122399681D01*
X117307331Y-121159715D01*
X117273846Y-121098392D01*
X117278830Y-121028700D01*
X117320702Y-120972767D01*
X117356693Y-120954103D01*
X117403630Y-120938852D01*
X117518412Y-120901557D01*
X117707816Y-120805051D01*
X117806297Y-120733501D01*
X117879786Y-120680109D01*
X117879788Y-120680106D01*
X117879792Y-120680104D01*
X117912319Y-120647577D01*
X117973642Y-120614092D01*
X118043334Y-120619076D01*
X118087681Y-120647577D01*
X118120213Y-120680109D01*
X118292179Y-120805048D01*
X118292181Y-120805049D01*
X118292184Y-120805051D01*
X118481588Y-120901557D01*
X118683757Y-120967246D01*
X118893713Y-121000500D01*
X118893714Y-121000500D01*
X119106286Y-121000500D01*
X119106287Y-121000500D01*
X119316243Y-120967246D01*
X119518412Y-120901557D01*
X119707816Y-120805051D01*
X119806297Y-120733501D01*
X119879786Y-120680109D01*
X119879788Y-120680106D01*
X119879792Y-120680104D01*
X119912319Y-120647577D01*
X119973642Y-120614092D01*
X120043334Y-120619076D01*
X120087681Y-120647577D01*
X120120213Y-120680109D01*
X120292179Y-120805048D01*
X120292181Y-120805049D01*
X120292184Y-120805051D01*
X120481588Y-120901557D01*
X120683757Y-120967246D01*
X120893713Y-121000500D01*
X120893714Y-121000500D01*
X121106286Y-121000500D01*
X121106287Y-121000500D01*
X121316243Y-120967246D01*
X121518412Y-120901557D01*
X121707816Y-120805051D01*
X121806297Y-120733501D01*
X121879786Y-120680109D01*
X121879788Y-120680106D01*
X121879792Y-120680104D01*
X121912319Y-120647577D01*
X121973642Y-120614092D01*
X122043334Y-120619076D01*
X122087681Y-120647577D01*
X122120213Y-120680109D01*
X122292179Y-120805048D01*
X122292181Y-120805049D01*
X122292184Y-120805051D01*
X122481588Y-120901557D01*
X122683757Y-120967246D01*
X122893713Y-121000500D01*
X122893714Y-121000500D01*
X123106286Y-121000500D01*
X123106287Y-121000500D01*
X123316243Y-120967246D01*
X123518412Y-120901557D01*
X123707816Y-120805051D01*
X123806297Y-120733501D01*
X123879786Y-120680109D01*
X123879788Y-120680106D01*
X123879792Y-120680104D01*
X123912319Y-120647577D01*
X123973642Y-120614092D01*
X124043334Y-120619076D01*
X124087681Y-120647577D01*
X124120213Y-120680109D01*
X124292179Y-120805048D01*
X124292181Y-120805049D01*
X124292184Y-120805051D01*
X124481588Y-120901557D01*
X124683757Y-120967246D01*
X124893713Y-121000500D01*
X124893714Y-121000500D01*
X125106286Y-121000500D01*
X125106287Y-121000500D01*
X125316243Y-120967246D01*
X125518412Y-120901557D01*
X125707816Y-120805051D01*
X125806297Y-120733501D01*
X125879786Y-120680109D01*
X125879788Y-120680106D01*
X125879792Y-120680104D01*
X125912319Y-120647577D01*
X125973642Y-120614092D01*
X126043334Y-120619076D01*
X126087681Y-120647577D01*
X126120213Y-120680109D01*
X126292179Y-120805048D01*
X126292181Y-120805049D01*
X126292184Y-120805051D01*
X126481588Y-120901557D01*
X126683757Y-120967246D01*
X126893713Y-121000500D01*
X126893714Y-121000500D01*
X127106286Y-121000500D01*
X127106287Y-121000500D01*
X127316243Y-120967246D01*
X127518412Y-120901557D01*
X127707816Y-120805051D01*
X127806297Y-120733501D01*
X127879786Y-120680109D01*
X127879788Y-120680106D01*
X127879792Y-120680104D01*
X127912319Y-120647577D01*
X127973642Y-120614092D01*
X128043334Y-120619076D01*
X128087681Y-120647577D01*
X128120213Y-120680109D01*
X128292179Y-120805048D01*
X128292181Y-120805049D01*
X128292184Y-120805051D01*
X128481588Y-120901557D01*
X128683757Y-120967246D01*
X128893713Y-121000500D01*
X128893714Y-121000500D01*
X129106286Y-121000500D01*
X129106287Y-121000500D01*
X129316243Y-120967246D01*
X129518412Y-120901557D01*
X129707816Y-120805051D01*
X129806297Y-120733501D01*
X129879786Y-120680109D01*
X129879788Y-120680106D01*
X129879792Y-120680104D01*
X129912319Y-120647577D01*
X129973642Y-120614092D01*
X130043334Y-120619076D01*
X130087681Y-120647577D01*
X130120213Y-120680109D01*
X130292179Y-120805048D01*
X130292181Y-120805049D01*
X130292184Y-120805051D01*
X130481588Y-120901557D01*
X130683757Y-120967246D01*
X130893713Y-121000500D01*
X130893714Y-121000500D01*
X131106286Y-121000500D01*
X131106287Y-121000500D01*
X131316243Y-120967246D01*
X131518412Y-120901557D01*
X131707816Y-120805051D01*
X131806297Y-120733501D01*
X131879786Y-120680109D01*
X131879788Y-120680106D01*
X131879792Y-120680104D01*
X132030104Y-120529792D01*
X132030106Y-120529788D01*
X132030109Y-120529786D01*
X132155048Y-120357820D01*
X132155047Y-120357820D01*
X132155051Y-120357816D01*
X132251557Y-120168412D01*
X132301811Y-120013744D01*
X132332059Y-119964384D01*
X132600000Y-119696443D01*
X132600000Y-119702661D01*
X132627259Y-119804394D01*
X132679920Y-119895606D01*
X132754394Y-119970080D01*
X132845606Y-120022741D01*
X132947339Y-120050000D01*
X132953554Y-120050000D01*
X132238282Y-120765269D01*
X132238282Y-120765270D01*
X132292449Y-120804624D01*
X132481782Y-120901095D01*
X132683870Y-120966757D01*
X132893754Y-121000000D01*
X133106246Y-121000000D01*
X133316127Y-120966757D01*
X133316130Y-120966757D01*
X133518217Y-120901095D01*
X133707554Y-120804622D01*
X133761716Y-120765270D01*
X133761717Y-120765270D01*
X133046446Y-120050000D01*
X133052661Y-120050000D01*
X133154394Y-120022741D01*
X133245606Y-119970080D01*
X133320080Y-119895606D01*
X133372741Y-119804394D01*
X133400000Y-119702661D01*
X133400000Y-119696446D01*
X134115270Y-120411717D01*
X134115270Y-120411716D01*
X134154622Y-120357554D01*
X134251095Y-120168217D01*
X134316757Y-119966130D01*
X134316757Y-119966127D01*
X134350000Y-119756246D01*
X134350000Y-119543753D01*
X134316757Y-119333872D01*
X134316757Y-119333869D01*
X134251095Y-119131782D01*
X134154624Y-118942449D01*
X134115270Y-118888282D01*
X134115269Y-118888282D01*
X133400000Y-119603552D01*
X133400000Y-119597339D01*
X133372741Y-119495606D01*
X133320080Y-119404394D01*
X133245606Y-119329920D01*
X133154394Y-119277259D01*
X133052661Y-119250000D01*
X133046447Y-119250000D01*
X133761716Y-118534728D01*
X133707550Y-118495375D01*
X133518217Y-118398904D01*
X133316129Y-118333242D01*
X133106246Y-118300000D01*
X132893754Y-118300000D01*
X132683872Y-118333242D01*
X132683869Y-118333242D01*
X132481782Y-118398904D01*
X132292439Y-118495380D01*
X132238282Y-118534727D01*
X132238282Y-118534728D01*
X132953554Y-119250000D01*
X132947339Y-119250000D01*
X132845606Y-119277259D01*
X132754394Y-119329920D01*
X132679920Y-119404394D01*
X132627259Y-119495606D01*
X132600000Y-119597339D01*
X132600000Y-119603554D01*
X132332060Y-119335614D01*
X132301810Y-119286251D01*
X132300295Y-119281589D01*
X132251557Y-119131588D01*
X132155051Y-118942184D01*
X132155049Y-118942181D01*
X132155048Y-118942179D01*
X132030109Y-118770213D01*
X131879786Y-118619890D01*
X131707820Y-118494951D01*
X131518414Y-118398444D01*
X131518413Y-118398443D01*
X131518412Y-118398443D01*
X131316243Y-118332754D01*
X131316241Y-118332753D01*
X131316240Y-118332753D01*
X131142395Y-118305219D01*
X131106287Y-118299500D01*
X130893713Y-118299500D01*
X130857605Y-118305219D01*
X130683760Y-118332753D01*
X130481585Y-118398444D01*
X130292179Y-118494951D01*
X130120213Y-118619890D01*
X130120209Y-118619894D01*
X130087681Y-118652423D01*
X130026358Y-118685908D01*
X129956666Y-118680924D01*
X129912319Y-118652423D01*
X129879786Y-118619890D01*
X129707820Y-118494951D01*
X129518414Y-118398444D01*
X129518413Y-118398443D01*
X129518412Y-118398443D01*
X129316243Y-118332754D01*
X129316241Y-118332753D01*
X129316240Y-118332753D01*
X129142395Y-118305219D01*
X129106287Y-118299500D01*
X128893713Y-118299500D01*
X128857605Y-118305219D01*
X128683760Y-118332753D01*
X128481585Y-118398444D01*
X128292179Y-118494951D01*
X128120213Y-118619890D01*
X128120209Y-118619894D01*
X128087681Y-118652423D01*
X128026358Y-118685908D01*
X127956666Y-118680924D01*
X127912319Y-118652423D01*
X127879786Y-118619890D01*
X127707820Y-118494951D01*
X127518414Y-118398444D01*
X127518413Y-118398443D01*
X127518412Y-118398443D01*
X127316243Y-118332754D01*
X127316241Y-118332753D01*
X127316240Y-118332753D01*
X127142395Y-118305219D01*
X127106287Y-118299500D01*
X126893713Y-118299500D01*
X126857605Y-118305219D01*
X126683760Y-118332753D01*
X126481585Y-118398444D01*
X126292179Y-118494951D01*
X126120213Y-118619890D01*
X126120209Y-118619894D01*
X126087681Y-118652423D01*
X126026358Y-118685908D01*
X125956666Y-118680924D01*
X125912319Y-118652423D01*
X125879786Y-118619890D01*
X125707820Y-118494951D01*
X125518414Y-118398444D01*
X125518413Y-118398443D01*
X125518412Y-118398443D01*
X125316243Y-118332754D01*
X125316241Y-118332753D01*
X125316240Y-118332753D01*
X125142395Y-118305219D01*
X125106287Y-118299500D01*
X124893713Y-118299500D01*
X124857605Y-118305219D01*
X124683760Y-118332753D01*
X124481585Y-118398444D01*
X124292179Y-118494951D01*
X124120213Y-118619890D01*
X124120209Y-118619894D01*
X124087681Y-118652423D01*
X124026358Y-118685908D01*
X123956666Y-118680924D01*
X123912319Y-118652423D01*
X123879786Y-118619890D01*
X123707820Y-118494951D01*
X123518414Y-118398444D01*
X123518413Y-118398443D01*
X123518412Y-118398443D01*
X123316243Y-118332754D01*
X123316241Y-118332753D01*
X123316240Y-118332753D01*
X123142395Y-118305219D01*
X123106287Y-118299500D01*
X122893713Y-118299500D01*
X122857605Y-118305219D01*
X122683760Y-118332753D01*
X122481585Y-118398444D01*
X122292179Y-118494951D01*
X122120213Y-118619890D01*
X122120209Y-118619894D01*
X122087681Y-118652423D01*
X122026358Y-118685908D01*
X121956666Y-118680924D01*
X121912319Y-118652423D01*
X121879786Y-118619890D01*
X121707820Y-118494951D01*
X121518414Y-118398444D01*
X121518413Y-118398443D01*
X121518412Y-118398443D01*
X121356691Y-118345896D01*
X121299016Y-118306459D01*
X121271818Y-118242101D01*
X121283733Y-118173254D01*
X121307326Y-118140288D01*
X127347298Y-112100319D01*
X127408621Y-112066834D01*
X127434979Y-112064000D01*
X148175501Y-112064000D01*
X148242540Y-112083685D01*
X148288295Y-112136489D01*
X148299501Y-112188000D01*
X148299501Y-112347876D01*
X148305908Y-112407483D01*
X148356202Y-112542328D01*
X148356206Y-112542335D01*
X148442452Y-112657544D01*
X148442455Y-112657547D01*
X148557664Y-112743793D01*
X148557671Y-112743797D01*
X148692517Y-112794091D01*
X148692516Y-112794091D01*
X148699444Y-112794835D01*
X148752127Y-112800500D01*
X150447872Y-112800499D01*
X150507483Y-112794091D01*
X150642331Y-112743796D01*
X150757546Y-112657546D01*
X150843796Y-112542331D01*
X150894091Y-112407483D01*
X150898061Y-112370556D01*
X150924796Y-112306011D01*
X150982188Y-112266161D01*
X151052013Y-112263666D01*
X151112102Y-112299317D01*
X151121667Y-112310929D01*
X151148032Y-112347217D01*
X151292786Y-112491971D01*
X151447749Y-112604556D01*
X151458390Y-112612287D01*
X151547212Y-112657544D01*
X151640776Y-112705218D01*
X151640778Y-112705218D01*
X151640781Y-112705220D01*
X151745137Y-112739127D01*
X151835465Y-112768477D01*
X151917171Y-112781418D01*
X152037648Y-112800500D01*
X152037649Y-112800500D01*
X152242351Y-112800500D01*
X152242352Y-112800500D01*
X152444534Y-112768477D01*
X152639219Y-112705220D01*
X152821610Y-112612287D01*
X152917901Y-112542328D01*
X152987213Y-112491971D01*
X152987215Y-112491968D01*
X152987219Y-112491966D01*
X153131966Y-112347219D01*
X153131968Y-112347215D01*
X153131971Y-112347213D01*
X153252284Y-112181614D01*
X153252286Y-112181611D01*
X153252287Y-112181610D01*
X153299516Y-112088917D01*
X153347489Y-112038123D01*
X153415310Y-112021328D01*
X153481445Y-112043865D01*
X153520483Y-112088917D01*
X153544723Y-112136489D01*
X153567715Y-112181614D01*
X153688028Y-112347213D01*
X153832786Y-112491971D01*
X153987749Y-112604556D01*
X153998390Y-112612287D01*
X154087212Y-112657544D01*
X154180776Y-112705218D01*
X154180778Y-112705218D01*
X154180781Y-112705220D01*
X154285137Y-112739127D01*
X154375465Y-112768477D01*
X154457171Y-112781418D01*
X154577648Y-112800500D01*
X154577649Y-112800500D01*
X154782351Y-112800500D01*
X154782352Y-112800500D01*
X154984534Y-112768477D01*
X155179219Y-112705220D01*
X155361610Y-112612287D01*
X155457901Y-112542328D01*
X155527213Y-112491971D01*
X155527215Y-112491968D01*
X155527219Y-112491966D01*
X155671966Y-112347219D01*
X155671968Y-112347215D01*
X155671971Y-112347213D01*
X155792284Y-112181614D01*
X155792286Y-112181611D01*
X155792287Y-112181610D01*
X155839795Y-112088369D01*
X155887770Y-112037574D01*
X155955591Y-112020779D01*
X156021725Y-112043316D01*
X156060765Y-112088370D01*
X156108140Y-112181349D01*
X156228417Y-112346894D01*
X156228417Y-112346895D01*
X156373104Y-112491582D01*
X156538650Y-112611859D01*
X156720968Y-112704754D01*
X156915578Y-112767988D01*
X156970000Y-112776607D01*
X156970000Y-111933012D01*
X157027007Y-111965925D01*
X157154174Y-112000000D01*
X157285826Y-112000000D01*
X157412993Y-111965925D01*
X157470000Y-111933012D01*
X157470000Y-112776606D01*
X157524421Y-112767988D01*
X157719031Y-112704754D01*
X157901349Y-112611859D01*
X158066894Y-112491582D01*
X158066895Y-112491582D01*
X158211582Y-112346895D01*
X158211582Y-112346894D01*
X158331861Y-112181347D01*
X158379234Y-112088371D01*
X158427208Y-112037575D01*
X158495028Y-112020779D01*
X158561164Y-112043316D01*
X158600203Y-112088369D01*
X158647713Y-112181611D01*
X158768028Y-112347213D01*
X158912786Y-112491971D01*
X159067749Y-112604556D01*
X159078390Y-112612287D01*
X159167212Y-112657544D01*
X159260776Y-112705218D01*
X159260778Y-112705218D01*
X159260781Y-112705220D01*
X159365137Y-112739127D01*
X159455465Y-112768477D01*
X159537171Y-112781418D01*
X159657648Y-112800500D01*
X159657649Y-112800500D01*
X159862351Y-112800500D01*
X159862352Y-112800500D01*
X160064534Y-112768477D01*
X160259219Y-112705220D01*
X160441610Y-112612287D01*
X160537901Y-112542328D01*
X160607213Y-112491971D01*
X160607215Y-112491968D01*
X160607219Y-112491966D01*
X160751966Y-112347219D01*
X160751968Y-112347215D01*
X160751971Y-112347213D01*
X160872284Y-112181614D01*
X160872286Y-112181611D01*
X160872287Y-112181610D01*
X160919516Y-112088917D01*
X160967489Y-112038123D01*
X161035310Y-112021328D01*
X161101445Y-112043865D01*
X161140483Y-112088917D01*
X161164723Y-112136489D01*
X161187715Y-112181614D01*
X161308028Y-112347213D01*
X161452786Y-112491971D01*
X161607749Y-112604556D01*
X161618390Y-112612287D01*
X161707212Y-112657544D01*
X161800776Y-112705218D01*
X161800778Y-112705218D01*
X161800781Y-112705220D01*
X161905137Y-112739127D01*
X161995465Y-112768477D01*
X162077171Y-112781418D01*
X162197648Y-112800500D01*
X162197649Y-112800500D01*
X162402351Y-112800500D01*
X162402352Y-112800500D01*
X162604534Y-112768477D01*
X162799219Y-112705220D01*
X162981610Y-112612287D01*
X163077901Y-112542328D01*
X163147213Y-112491971D01*
X163147215Y-112491968D01*
X163147219Y-112491966D01*
X163291966Y-112347219D01*
X163291968Y-112347215D01*
X163291971Y-112347213D01*
X163412284Y-112181614D01*
X163412286Y-112181611D01*
X163412287Y-112181610D01*
X163459516Y-112088917D01*
X163507489Y-112038123D01*
X163575310Y-112021328D01*
X163641445Y-112043865D01*
X163680483Y-112088917D01*
X163704723Y-112136489D01*
X163727715Y-112181614D01*
X163848028Y-112347213D01*
X163992786Y-112491971D01*
X164147749Y-112604556D01*
X164158390Y-112612287D01*
X164247212Y-112657544D01*
X164340776Y-112705218D01*
X164340778Y-112705218D01*
X164340781Y-112705220D01*
X164445137Y-112739127D01*
X164535465Y-112768477D01*
X164617171Y-112781418D01*
X164737648Y-112800500D01*
X164737649Y-112800500D01*
X164942351Y-112800500D01*
X164942352Y-112800500D01*
X165144534Y-112768477D01*
X165339219Y-112705220D01*
X165521610Y-112612287D01*
X165617901Y-112542328D01*
X165687213Y-112491971D01*
X165687215Y-112491968D01*
X165687219Y-112491966D01*
X165831966Y-112347219D01*
X165831968Y-112347215D01*
X165831971Y-112347213D01*
X165952284Y-112181614D01*
X165952286Y-112181611D01*
X165952287Y-112181610D01*
X165999516Y-112088917D01*
X166047489Y-112038123D01*
X166115310Y-112021328D01*
X166181445Y-112043865D01*
X166220483Y-112088917D01*
X166244723Y-112136489D01*
X166267715Y-112181614D01*
X166388028Y-112347213D01*
X166532786Y-112491971D01*
X166687749Y-112604556D01*
X166698390Y-112612287D01*
X166787212Y-112657544D01*
X166880776Y-112705218D01*
X166880778Y-112705218D01*
X166880781Y-112705220D01*
X166985137Y-112739127D01*
X167075465Y-112768477D01*
X167157171Y-112781418D01*
X167277648Y-112800500D01*
X167277649Y-112800500D01*
X167482351Y-112800500D01*
X167482352Y-112800500D01*
X167684534Y-112768477D01*
X167879219Y-112705220D01*
X168061610Y-112612287D01*
X168157901Y-112542328D01*
X168227213Y-112491971D01*
X168227215Y-112491968D01*
X168227219Y-112491966D01*
X168371966Y-112347219D01*
X168371968Y-112347215D01*
X168371971Y-112347213D01*
X168492284Y-112181614D01*
X168492286Y-112181611D01*
X168492287Y-112181610D01*
X168539516Y-112088917D01*
X168587489Y-112038123D01*
X168655310Y-112021328D01*
X168721445Y-112043865D01*
X168760483Y-112088917D01*
X168784723Y-112136489D01*
X168807715Y-112181614D01*
X168928028Y-112347213D01*
X169072786Y-112491971D01*
X169227749Y-112604556D01*
X169238390Y-112612287D01*
X169327212Y-112657544D01*
X169420776Y-112705218D01*
X169420778Y-112705218D01*
X169420781Y-112705220D01*
X169525137Y-112739127D01*
X169615465Y-112768477D01*
X169697171Y-112781418D01*
X169817648Y-112800500D01*
X169817649Y-112800500D01*
X170022351Y-112800500D01*
X170022352Y-112800500D01*
X170224534Y-112768477D01*
X170277805Y-112751167D01*
X170347643Y-112749173D01*
X170403801Y-112781417D01*
X172573696Y-114951313D01*
X172573697Y-114951314D01*
X172573699Y-114951315D01*
X172702300Y-115025563D01*
X172702301Y-115025563D01*
X172702304Y-115025565D01*
X172845748Y-115064001D01*
X172845751Y-115064001D01*
X173001849Y-115064001D01*
X173001865Y-115064000D01*
X177880559Y-115064000D01*
X177947598Y-115083685D01*
X177968240Y-115100319D01*
X177989707Y-115121786D01*
X177989711Y-115121789D01*
X178120814Y-115209390D01*
X178120827Y-115209397D01*
X178266498Y-115269735D01*
X178266503Y-115269737D01*
X178421153Y-115300499D01*
X178421156Y-115300500D01*
X178421158Y-115300500D01*
X178578844Y-115300500D01*
X178578845Y-115300499D01*
X178733497Y-115269737D01*
X178879179Y-115209394D01*
X179010289Y-115121789D01*
X179121789Y-115010289D01*
X179209394Y-114879179D01*
X179269737Y-114733497D01*
X179283599Y-114663809D01*
X179315983Y-114601898D01*
X179376699Y-114567324D01*
X179405216Y-114564000D01*
X181880559Y-114564000D01*
X181947598Y-114583685D01*
X181968240Y-114600319D01*
X181989707Y-114621786D01*
X181989711Y-114621789D01*
X182120814Y-114709390D01*
X182120827Y-114709397D01*
X182266498Y-114769735D01*
X182266503Y-114769737D01*
X182421153Y-114800499D01*
X182421156Y-114800500D01*
X182421158Y-114800500D01*
X182578844Y-114800500D01*
X182578845Y-114800499D01*
X182733497Y-114769737D01*
X182879179Y-114709394D01*
X183010289Y-114621789D01*
X183079551Y-114552526D01*
X183140872Y-114519043D01*
X183210564Y-114524027D01*
X183254912Y-114552528D01*
X185763181Y-117060797D01*
X185796666Y-117122120D01*
X185799500Y-117148478D01*
X185799501Y-117603500D01*
X185779817Y-117670539D01*
X185727013Y-117716294D01*
X185675501Y-117727500D01*
X174355834Y-117727500D01*
X174288795Y-117707815D01*
X174243040Y-117655011D01*
X174237903Y-117641818D01*
X174193638Y-117505582D01*
X174193637Y-117505579D01*
X174152547Y-117424937D01*
X174101597Y-117324941D01*
X174077861Y-117292271D01*
X173982437Y-117160930D01*
X173982433Y-117160925D01*
X173839074Y-117017566D01*
X173839069Y-117017562D01*
X173675062Y-116898405D01*
X173675061Y-116898404D01*
X173675059Y-116898403D01*
X173616767Y-116868702D01*
X173494420Y-116806362D01*
X173494417Y-116806361D01*
X173301608Y-116743715D01*
X173201487Y-116727857D01*
X173101368Y-116712000D01*
X172898632Y-116712000D01*
X172831885Y-116722571D01*
X172698391Y-116743715D01*
X172505582Y-116806361D01*
X172505579Y-116806362D01*
X172324937Y-116898405D01*
X172160930Y-117017562D01*
X172160925Y-117017566D01*
X172017566Y-117160925D01*
X172017560Y-117160932D01*
X172006443Y-117176234D01*
X171951113Y-117218900D01*
X171881499Y-117224878D01*
X171819705Y-117192271D01*
X171785348Y-117131432D01*
X171782836Y-117116599D01*
X171781591Y-117105016D01*
X171731297Y-116970171D01*
X171731293Y-116970164D01*
X171645047Y-116854955D01*
X171645044Y-116854952D01*
X171529835Y-116768706D01*
X171529828Y-116768702D01*
X171394982Y-116718408D01*
X171394983Y-116718408D01*
X171335383Y-116712001D01*
X171335381Y-116712000D01*
X171335373Y-116712000D01*
X171335364Y-116712000D01*
X169664629Y-116712000D01*
X169664623Y-116712001D01*
X169605016Y-116718408D01*
X169470171Y-116768702D01*
X169470164Y-116768706D01*
X169354955Y-116854952D01*
X169354952Y-116854955D01*
X169268706Y-116970164D01*
X169268702Y-116970171D01*
X169218408Y-117105017D01*
X169213736Y-117148478D01*
X169212000Y-117164627D01*
X169212000Y-117998632D01*
X169212001Y-118812000D01*
X169192316Y-118879039D01*
X169139513Y-118924794D01*
X169088001Y-118936000D01*
X165784978Y-118936000D01*
X165717939Y-118916315D01*
X165697297Y-118899681D01*
X165271498Y-118473882D01*
X165238013Y-118412559D01*
X165241247Y-118347885D01*
X165256285Y-118301607D01*
X165288000Y-118101368D01*
X165288000Y-117898632D01*
X165256285Y-117698393D01*
X165193637Y-117505580D01*
X165193637Y-117505579D01*
X165152547Y-117424937D01*
X165101597Y-117324941D01*
X165077861Y-117292271D01*
X164982437Y-117160930D01*
X164982433Y-117160925D01*
X164839074Y-117017566D01*
X164839069Y-117017562D01*
X164675062Y-116898405D01*
X164675061Y-116898404D01*
X164675059Y-116898403D01*
X164616767Y-116868702D01*
X164494420Y-116806362D01*
X164494417Y-116806361D01*
X164301608Y-116743715D01*
X164201487Y-116727857D01*
X164101368Y-116712000D01*
X163898632Y-116712000D01*
X163831885Y-116722571D01*
X163698391Y-116743715D01*
X163505582Y-116806361D01*
X163505579Y-116806362D01*
X163324937Y-116898405D01*
X163160930Y-117017562D01*
X163160925Y-117017566D01*
X163017566Y-117160925D01*
X163017560Y-117160932D01*
X163006443Y-117176234D01*
X162951113Y-117218900D01*
X162881499Y-117224878D01*
X162819705Y-117192271D01*
X162785348Y-117131432D01*
X162782836Y-117116599D01*
X162781591Y-117105016D01*
X162731297Y-116970171D01*
X162731293Y-116970164D01*
X162645047Y-116854955D01*
X162645044Y-116854952D01*
X162529835Y-116768706D01*
X162529828Y-116768702D01*
X162394982Y-116718408D01*
X162394983Y-116718408D01*
X162335383Y-116712001D01*
X162335381Y-116712000D01*
X162335373Y-116712000D01*
X162335364Y-116712000D01*
X160664629Y-116712000D01*
X160664623Y-116712001D01*
X160605016Y-116718408D01*
X160470171Y-116768702D01*
X160470164Y-116768706D01*
X160354955Y-116854952D01*
X160354952Y-116854955D01*
X160268706Y-116970164D01*
X160268702Y-116970171D01*
X160218408Y-117105017D01*
X160212001Y-117164616D01*
X160212000Y-117164635D01*
X160212001Y-118835363D01*
X160212001Y-118835376D01*
X160218408Y-118894983D01*
X160268702Y-119029828D01*
X160268706Y-119029835D01*
X160354952Y-119145044D01*
X160354953Y-119145044D01*
X160354954Y-119145046D01*
X160359539Y-119148478D01*
X160445373Y-119212734D01*
X160487243Y-119268668D01*
X160492227Y-119338359D01*
X160458741Y-119399682D01*
X160397418Y-119433167D01*
X160371061Y-119436000D01*
X157484978Y-119436000D01*
X157417939Y-119416315D01*
X157397297Y-119399681D01*
X156571498Y-118573882D01*
X156538013Y-118512559D01*
X156541247Y-118447885D01*
X156556285Y-118401607D01*
X156588000Y-118201368D01*
X156588000Y-117998632D01*
X156556285Y-117798393D01*
X156509698Y-117655011D01*
X156493638Y-117605582D01*
X156493637Y-117605579D01*
X156461764Y-117543026D01*
X156401597Y-117424941D01*
X156328940Y-117324937D01*
X156282437Y-117260930D01*
X156282433Y-117260925D01*
X156139074Y-117117566D01*
X156139069Y-117117562D01*
X155975062Y-116998405D01*
X155975061Y-116998404D01*
X155975059Y-116998403D01*
X155917186Y-116968915D01*
X155794420Y-116906362D01*
X155794417Y-116906361D01*
X155601608Y-116843715D01*
X155501487Y-116827857D01*
X155401368Y-116812000D01*
X155198632Y-116812000D01*
X155131885Y-116822571D01*
X154998391Y-116843715D01*
X154805582Y-116906361D01*
X154805579Y-116906362D01*
X154624937Y-116998405D01*
X154460930Y-117117562D01*
X154460925Y-117117566D01*
X154317566Y-117260925D01*
X154317560Y-117260932D01*
X154306443Y-117276234D01*
X154251113Y-117318900D01*
X154181499Y-117324878D01*
X154119705Y-117292271D01*
X154085348Y-117231432D01*
X154082836Y-117216599D01*
X154081591Y-117205016D01*
X154031297Y-117070171D01*
X154031293Y-117070164D01*
X153945047Y-116954955D01*
X153945044Y-116954952D01*
X153829835Y-116868706D01*
X153829828Y-116868702D01*
X153694982Y-116818408D01*
X153694983Y-116818408D01*
X153635383Y-116812001D01*
X153635381Y-116812000D01*
X153635373Y-116812000D01*
X153635364Y-116812000D01*
X151964629Y-116812000D01*
X151964623Y-116812001D01*
X151905016Y-116818408D01*
X151770171Y-116868702D01*
X151770164Y-116868706D01*
X151654955Y-116954952D01*
X151654952Y-116954955D01*
X151568706Y-117070164D01*
X151568702Y-117070171D01*
X151518408Y-117205017D01*
X151512001Y-117264616D01*
X151512000Y-117264635D01*
X151512001Y-118935363D01*
X151512001Y-118935376D01*
X151518408Y-118994983D01*
X151568702Y-119129828D01*
X151568706Y-119129835D01*
X151654952Y-119245044D01*
X151654955Y-119245047D01*
X151770164Y-119331293D01*
X151770171Y-119331297D01*
X151905017Y-119381591D01*
X151905016Y-119381591D01*
X151911944Y-119382335D01*
X151964627Y-119388000D01*
X153635372Y-119387999D01*
X153694983Y-119381591D01*
X153829831Y-119331296D01*
X153945046Y-119245046D01*
X154031296Y-119129831D01*
X154081591Y-118994983D01*
X154082836Y-118983398D01*
X154109570Y-118918850D01*
X154166960Y-118878999D01*
X154236785Y-118876501D01*
X154296876Y-118912151D01*
X154306442Y-118923764D01*
X154317564Y-118939072D01*
X154460925Y-119082433D01*
X154460930Y-119082437D01*
X154603986Y-119186372D01*
X154624941Y-119201597D01*
X154743026Y-119261764D01*
X154805579Y-119293637D01*
X154805582Y-119293638D01*
X154879845Y-119317767D01*
X154998393Y-119356285D01*
X155198632Y-119388000D01*
X155198633Y-119388000D01*
X155401367Y-119388000D01*
X155401368Y-119388000D01*
X155601607Y-119356285D01*
X155647885Y-119341247D01*
X155717723Y-119339252D01*
X155773882Y-119371498D01*
X156744346Y-120341962D01*
X156744356Y-120341973D01*
X156748686Y-120346303D01*
X156748687Y-120346304D01*
X156853696Y-120451313D01*
X156853698Y-120451314D01*
X156853699Y-120451315D01*
X156982300Y-120525563D01*
X156982301Y-120525563D01*
X156982304Y-120525565D01*
X157125748Y-120564001D01*
X157125751Y-120564001D01*
X157281849Y-120564001D01*
X157281865Y-120564000D01*
X177594784Y-120564000D01*
X177618930Y-120571090D01*
X177643914Y-120574148D01*
X177651885Y-120580766D01*
X177661823Y-120583685D01*
X177678300Y-120602701D01*
X177697668Y-120618783D01*
X177702685Y-120630842D01*
X177707578Y-120636489D01*
X177713001Y-120650573D01*
X177715065Y-120657092D01*
X177730263Y-120733497D01*
X177768417Y-120825610D01*
X177770030Y-120830704D01*
X177770656Y-120860509D01*
X177773843Y-120890148D01*
X177771382Y-120895063D01*
X177771498Y-120900558D01*
X177755909Y-120925972D01*
X177742567Y-120952627D01*
X177736518Y-120957587D01*
X177734967Y-120960117D01*
X177731245Y-120961911D01*
X177716910Y-120973669D01*
X177581347Y-121057285D01*
X177581343Y-121057288D01*
X177457289Y-121181342D01*
X177365187Y-121330663D01*
X177365186Y-121330666D01*
X177310001Y-121497203D01*
X177310001Y-121497204D01*
X177310000Y-121497204D01*
X177299500Y-121599983D01*
X177299500Y-122400001D01*
X177299501Y-122400019D01*
X177310000Y-122502796D01*
X177310001Y-122502799D01*
X177365185Y-122669331D01*
X177365187Y-122669336D01*
X177457289Y-122818657D01*
X177550951Y-122912319D01*
X177584436Y-122973642D01*
X177579452Y-123043334D01*
X177550951Y-123087681D01*
X177457289Y-123181342D01*
X177365187Y-123330663D01*
X177365185Y-123330668D01*
X177358447Y-123351004D01*
X177318674Y-123408449D01*
X177254158Y-123435272D01*
X177240741Y-123436000D01*
X152784978Y-123436000D01*
X152717939Y-123416315D01*
X152697297Y-123399681D01*
X147771498Y-118473882D01*
X147738013Y-118412559D01*
X147741247Y-118347885D01*
X147756285Y-118301607D01*
X147788000Y-118101368D01*
X147788000Y-117898632D01*
X147756285Y-117698393D01*
X147693637Y-117505580D01*
X147693637Y-117505579D01*
X147652547Y-117424937D01*
X147601597Y-117324941D01*
X147577861Y-117292271D01*
X147482437Y-117160930D01*
X147482433Y-117160925D01*
X147339074Y-117017566D01*
X147339069Y-117017562D01*
X147175062Y-116898405D01*
X147175061Y-116898404D01*
X147175059Y-116898403D01*
X147116767Y-116868702D01*
X146994420Y-116806362D01*
X146994417Y-116806361D01*
X146801608Y-116743715D01*
X146701487Y-116727857D01*
X146601368Y-116712000D01*
X146398632Y-116712000D01*
X146331885Y-116722571D01*
X146198391Y-116743715D01*
X146005582Y-116806361D01*
X146005579Y-116806362D01*
X145824937Y-116898405D01*
X145660930Y-117017562D01*
X145660925Y-117017566D01*
X145517566Y-117160925D01*
X145517560Y-117160932D01*
X145506443Y-117176234D01*
X145451113Y-117218900D01*
X145381499Y-117224878D01*
X145319705Y-117192271D01*
X145285348Y-117131432D01*
X145282836Y-117116599D01*
X145281591Y-117105016D01*
X145231297Y-116970171D01*
X145231293Y-116970164D01*
X145145047Y-116854955D01*
X145145044Y-116854952D01*
X145029835Y-116768706D01*
X145029828Y-116768702D01*
X144894982Y-116718408D01*
X144894983Y-116718408D01*
X144835383Y-116712001D01*
X144835381Y-116712000D01*
X144835373Y-116712000D01*
X144835364Y-116712000D01*
X143164629Y-116712000D01*
X143164623Y-116712001D01*
X143105016Y-116718408D01*
X142970171Y-116768702D01*
X142970164Y-116768706D01*
X142854955Y-116854952D01*
X142854952Y-116854955D01*
X142768706Y-116970164D01*
X142768702Y-116970171D01*
X142718408Y-117105017D01*
X142712001Y-117164616D01*
X142712000Y-117164635D01*
X142712001Y-118835363D01*
X142712001Y-118835376D01*
X142718408Y-118894983D01*
X142768702Y-119029828D01*
X142768706Y-119029835D01*
X142854952Y-119145044D01*
X142854955Y-119145047D01*
X142970164Y-119231293D01*
X142970171Y-119231297D01*
X143007029Y-119245044D01*
X143105017Y-119281591D01*
X143164627Y-119288000D01*
X143312000Y-119287999D01*
X143379039Y-119307683D01*
X143424794Y-119360487D01*
X143436000Y-119411999D01*
X143436000Y-123215021D01*
X143416315Y-123282060D01*
X143399681Y-123302702D01*
X136947296Y-129755086D01*
X136885973Y-129788571D01*
X136821297Y-129785336D01*
X136793763Y-129776389D01*
X136598736Y-129745500D01*
X136598731Y-129745500D01*
X136401269Y-129745500D01*
X136401264Y-129745500D01*
X136206236Y-129776389D01*
X136018441Y-129837408D01*
X135842495Y-129927058D01*
X135682753Y-130043115D01*
X135543115Y-130182753D01*
X135427058Y-130342495D01*
X135337408Y-130518441D01*
X135276389Y-130706236D01*
X135245500Y-130901263D01*
X135245500Y-131098736D01*
X135276389Y-131293763D01*
X135335619Y-131476052D01*
X135337409Y-131481561D01*
X135427056Y-131657501D01*
X135427058Y-131657504D01*
X135543115Y-131817246D01*
X135682753Y-131956884D01*
X135824683Y-132060000D01*
X135842499Y-132072944D01*
X136018439Y-132162591D01*
X136125417Y-132197350D01*
X136206236Y-132223610D01*
X136401264Y-132254500D01*
X136401269Y-132254500D01*
X136598736Y-132254500D01*
X136793763Y-132223610D01*
X136981561Y-132162591D01*
X137157501Y-132072944D01*
X137263288Y-131996086D01*
X137317246Y-131956884D01*
X137317248Y-131956881D01*
X137317252Y-131956879D01*
X137456879Y-131817252D01*
X137456881Y-131817248D01*
X137456884Y-131817246D01*
X137572941Y-131657505D01*
X137572942Y-131657504D01*
X137572944Y-131657501D01*
X137639516Y-131526846D01*
X137687490Y-131476052D01*
X137755311Y-131459257D01*
X137821446Y-131481794D01*
X137860482Y-131526845D01*
X137924166Y-131651830D01*
X137927058Y-131657505D01*
X138043115Y-131817246D01*
X138182753Y-131956884D01*
X138324683Y-132060000D01*
X138342499Y-132072944D01*
X138518439Y-132162591D01*
X138625417Y-132197350D01*
X138706236Y-132223610D01*
X138901264Y-132254500D01*
X138901269Y-132254500D01*
X139098736Y-132254500D01*
X139293763Y-132223610D01*
X139481561Y-132162591D01*
X139657501Y-132072944D01*
X139763288Y-131996086D01*
X139817246Y-131956884D01*
X139817248Y-131956881D01*
X139817252Y-131956879D01*
X139956879Y-131817252D01*
X139968074Y-131801844D01*
X140021681Y-131728059D01*
X140077011Y-131685392D01*
X140146624Y-131679413D01*
X140208419Y-131712018D01*
X140242777Y-131772856D01*
X140245722Y-131798526D01*
X140245823Y-131798521D01*
X140245911Y-131800169D01*
X140246000Y-131800943D01*
X140246000Y-131801844D01*
X140252401Y-131861372D01*
X140252403Y-131861379D01*
X140302645Y-131996086D01*
X140302649Y-131996093D01*
X140388809Y-132111187D01*
X140388812Y-132111190D01*
X140503906Y-132197350D01*
X140503913Y-132197354D01*
X140638620Y-132247596D01*
X140638627Y-132247598D01*
X140698155Y-132253999D01*
X140698172Y-132254000D01*
X141250000Y-132254000D01*
X141250000Y-131433012D01*
X141307007Y-131465925D01*
X141434174Y-131500000D01*
X141565826Y-131500000D01*
X141692993Y-131465925D01*
X141750000Y-131433012D01*
X141750000Y-132254000D01*
X142301828Y-132254000D01*
X142301844Y-132253999D01*
X142361372Y-132247598D01*
X142361379Y-132247596D01*
X142496086Y-132197354D01*
X142496093Y-132197350D01*
X142611187Y-132111190D01*
X142611190Y-132111187D01*
X142697350Y-131996093D01*
X142697354Y-131996086D01*
X142747596Y-131861379D01*
X142747598Y-131861372D01*
X142753999Y-131801844D01*
X142754000Y-131801827D01*
X142754000Y-131250000D01*
X141933012Y-131250000D01*
X141965925Y-131192993D01*
X142000000Y-131065826D01*
X142000000Y-130934174D01*
X141965925Y-130807007D01*
X141933012Y-130750000D01*
X142754000Y-130750000D01*
X142754000Y-130198172D01*
X142753999Y-130198155D01*
X142747598Y-130138627D01*
X142747596Y-130138620D01*
X142697354Y-130003913D01*
X142697350Y-130003906D01*
X142611190Y-129888812D01*
X142611187Y-129888809D01*
X142496093Y-129802649D01*
X142496086Y-129802645D01*
X142361379Y-129752403D01*
X142361372Y-129752401D01*
X142301844Y-129746000D01*
X141750000Y-129746000D01*
X141750000Y-130566988D01*
X141692993Y-130534075D01*
X141565826Y-130500000D01*
X141434174Y-130500000D01*
X141307007Y-130534075D01*
X141250000Y-130566988D01*
X141250000Y-129746000D01*
X141238488Y-129734488D01*
X141205003Y-129673165D01*
X141209987Y-129603473D01*
X141238485Y-129559129D01*
X144197297Y-126600319D01*
X144258620Y-126566834D01*
X144284978Y-126564000D01*
X151453563Y-126564000D01*
X151520602Y-126583685D01*
X151566357Y-126636489D01*
X151576301Y-126705647D01*
X151568125Y-126735451D01*
X151555263Y-126766503D01*
X151555261Y-126766510D01*
X151524500Y-126921153D01*
X151524500Y-126951521D01*
X151504815Y-127018560D01*
X151488181Y-127039202D01*
X148647296Y-129880086D01*
X148585973Y-129913571D01*
X148521297Y-129910336D01*
X148493763Y-129901389D01*
X148298736Y-129870500D01*
X148298731Y-129870500D01*
X148101269Y-129870500D01*
X148101264Y-129870500D01*
X147906236Y-129901389D01*
X147718441Y-129962408D01*
X147542495Y-130052058D01*
X147382753Y-130168115D01*
X147243115Y-130307753D01*
X147127058Y-130467495D01*
X147037408Y-130643441D01*
X146976389Y-130831236D01*
X146945500Y-131026263D01*
X146945500Y-131223736D01*
X146976389Y-131418763D01*
X147035619Y-131601052D01*
X147037409Y-131606561D01*
X147122142Y-131772856D01*
X147127058Y-131782504D01*
X147243115Y-131942246D01*
X147382753Y-132081884D01*
X147493839Y-132162591D01*
X147542499Y-132197944D01*
X147718439Y-132287591D01*
X147825417Y-132322350D01*
X147906236Y-132348610D01*
X148101264Y-132379500D01*
X148101269Y-132379500D01*
X148298736Y-132379500D01*
X148493763Y-132348610D01*
X148681561Y-132287591D01*
X148857501Y-132197944D01*
X148976913Y-132111187D01*
X149017246Y-132081884D01*
X149017248Y-132081881D01*
X149017252Y-132081879D01*
X149156879Y-131942252D01*
X149156881Y-131942248D01*
X149156884Y-131942246D01*
X149272941Y-131782505D01*
X149272942Y-131782504D01*
X149272944Y-131782501D01*
X149339516Y-131651846D01*
X149387490Y-131601052D01*
X149455311Y-131584257D01*
X149521446Y-131606794D01*
X149560482Y-131651845D01*
X149591143Y-131712018D01*
X149627058Y-131782505D01*
X149743115Y-131942246D01*
X149882753Y-132081884D01*
X149993839Y-132162591D01*
X150042499Y-132197944D01*
X150218439Y-132287591D01*
X150325417Y-132322350D01*
X150406236Y-132348610D01*
X150601264Y-132379500D01*
X150601269Y-132379500D01*
X150798736Y-132379500D01*
X150993763Y-132348610D01*
X151181561Y-132287591D01*
X151357501Y-132197944D01*
X151476913Y-132111187D01*
X151517246Y-132081884D01*
X151517248Y-132081881D01*
X151517252Y-132081879D01*
X151656879Y-131942252D01*
X151668074Y-131926844D01*
X151721681Y-131853059D01*
X151777011Y-131810392D01*
X151846624Y-131804413D01*
X151908419Y-131837018D01*
X151942777Y-131897856D01*
X151945722Y-131923526D01*
X151945823Y-131923521D01*
X151945911Y-131925169D01*
X151946000Y-131925943D01*
X151946000Y-131926844D01*
X151952401Y-131986372D01*
X151952403Y-131986379D01*
X152002645Y-132121086D01*
X152002649Y-132121093D01*
X152088809Y-132236187D01*
X152088812Y-132236190D01*
X152203906Y-132322350D01*
X152203913Y-132322354D01*
X152338620Y-132372596D01*
X152338627Y-132372598D01*
X152398155Y-132378999D01*
X152398172Y-132379000D01*
X152950000Y-132379000D01*
X152950000Y-131558012D01*
X153007007Y-131590925D01*
X153134174Y-131625000D01*
X153265826Y-131625000D01*
X153392993Y-131590925D01*
X153450000Y-131558012D01*
X153450000Y-132379000D01*
X154001828Y-132379000D01*
X154001844Y-132378999D01*
X154061372Y-132372598D01*
X154061379Y-132372596D01*
X154196086Y-132322354D01*
X154196093Y-132322350D01*
X154311187Y-132236190D01*
X154311190Y-132236187D01*
X154397350Y-132121093D01*
X154397354Y-132121086D01*
X154447596Y-131986379D01*
X154447598Y-131986372D01*
X154453999Y-131926844D01*
X154454000Y-131926827D01*
X154454000Y-131375000D01*
X153633012Y-131375000D01*
X153665925Y-131317993D01*
X153700000Y-131190826D01*
X153700000Y-131059174D01*
X153665925Y-130932007D01*
X153648175Y-130901263D01*
X158745500Y-130901263D01*
X158745500Y-131098736D01*
X158776389Y-131293763D01*
X158835619Y-131476052D01*
X158837409Y-131481561D01*
X158927056Y-131657501D01*
X158927058Y-131657504D01*
X159043115Y-131817246D01*
X159182753Y-131956884D01*
X159324683Y-132060000D01*
X159342499Y-132072944D01*
X159518439Y-132162591D01*
X159625417Y-132197350D01*
X159706236Y-132223610D01*
X159901264Y-132254500D01*
X159901269Y-132254500D01*
X160098736Y-132254500D01*
X160293763Y-132223610D01*
X160481561Y-132162591D01*
X160657501Y-132072944D01*
X160763288Y-131996086D01*
X160817246Y-131956884D01*
X160817248Y-131956881D01*
X160817252Y-131956879D01*
X160956879Y-131817252D01*
X160956881Y-131817248D01*
X160956884Y-131817246D01*
X161072941Y-131657505D01*
X161072942Y-131657504D01*
X161072944Y-131657501D01*
X161139516Y-131526846D01*
X161187490Y-131476052D01*
X161255311Y-131459257D01*
X161321446Y-131481794D01*
X161360482Y-131526845D01*
X161424166Y-131651830D01*
X161427058Y-131657505D01*
X161543115Y-131817246D01*
X161682753Y-131956884D01*
X161824683Y-132060000D01*
X161842499Y-132072944D01*
X162018439Y-132162591D01*
X162125417Y-132197350D01*
X162206236Y-132223610D01*
X162401264Y-132254500D01*
X162401269Y-132254500D01*
X162598736Y-132254500D01*
X162793763Y-132223610D01*
X162981561Y-132162591D01*
X163157501Y-132072944D01*
X163263288Y-131996086D01*
X163317246Y-131956884D01*
X163317248Y-131956881D01*
X163317252Y-131956879D01*
X163456879Y-131817252D01*
X163468074Y-131801844D01*
X163521681Y-131728059D01*
X163577011Y-131685392D01*
X163646624Y-131679413D01*
X163708419Y-131712018D01*
X163742777Y-131772856D01*
X163745722Y-131798526D01*
X163745823Y-131798521D01*
X163745911Y-131800169D01*
X163746000Y-131800943D01*
X163746000Y-131801844D01*
X163752401Y-131861372D01*
X163752403Y-131861379D01*
X163802645Y-131996086D01*
X163802649Y-131996093D01*
X163888809Y-132111187D01*
X163888812Y-132111190D01*
X164003906Y-132197350D01*
X164003913Y-132197354D01*
X164138620Y-132247596D01*
X164138627Y-132247598D01*
X164198155Y-132253999D01*
X164198172Y-132254000D01*
X164750000Y-132254000D01*
X164750000Y-131433012D01*
X164807007Y-131465925D01*
X164934174Y-131500000D01*
X165065826Y-131500000D01*
X165192993Y-131465925D01*
X165250000Y-131433012D01*
X165250000Y-132254000D01*
X165801828Y-132254000D01*
X165801844Y-132253999D01*
X165861372Y-132247598D01*
X165861379Y-132247596D01*
X165996086Y-132197354D01*
X165996093Y-132197350D01*
X166111187Y-132111190D01*
X166111190Y-132111187D01*
X166197350Y-131996093D01*
X166197354Y-131996086D01*
X166247596Y-131861379D01*
X166247598Y-131861372D01*
X166253999Y-131801844D01*
X166254000Y-131801827D01*
X166254000Y-131250000D01*
X165433012Y-131250000D01*
X165465925Y-131192993D01*
X165500000Y-131065826D01*
X165500000Y-130934174D01*
X165465925Y-130807007D01*
X165433012Y-130750000D01*
X166254000Y-130750000D01*
X166254000Y-130198172D01*
X166253999Y-130198155D01*
X166247598Y-130138627D01*
X166247596Y-130138620D01*
X166197354Y-130003913D01*
X166197350Y-130003906D01*
X166111190Y-129888812D01*
X166111187Y-129888809D01*
X165996093Y-129802649D01*
X165996086Y-129802645D01*
X165861379Y-129752403D01*
X165861372Y-129752401D01*
X165801844Y-129746000D01*
X165250000Y-129746000D01*
X165250000Y-130566988D01*
X165192993Y-130534075D01*
X165065826Y-130500000D01*
X164934174Y-130500000D01*
X164807007Y-130534075D01*
X164750000Y-130566988D01*
X164750000Y-129746000D01*
X164198155Y-129746000D01*
X164138627Y-129752401D01*
X164138620Y-129752403D01*
X164003913Y-129802645D01*
X164003906Y-129802649D01*
X163888812Y-129888809D01*
X163888809Y-129888812D01*
X163802649Y-130003906D01*
X163802645Y-130003913D01*
X163752403Y-130138620D01*
X163752401Y-130138627D01*
X163746000Y-130198155D01*
X163746000Y-130199056D01*
X163745942Y-130199252D01*
X163745823Y-130201479D01*
X163745644Y-130201469D01*
X163745644Y-130201475D01*
X163745540Y-130201463D01*
X163745296Y-130201450D01*
X163726315Y-130266095D01*
X163673511Y-130311850D01*
X163604353Y-130321794D01*
X163540797Y-130292769D01*
X163521682Y-130271941D01*
X163456884Y-130182754D01*
X163456880Y-130182749D01*
X163317246Y-130043115D01*
X163157504Y-129927058D01*
X163157503Y-129927057D01*
X163157501Y-129927056D01*
X162981561Y-129837409D01*
X162981558Y-129837408D01*
X162793763Y-129776389D01*
X162598736Y-129745500D01*
X162598731Y-129745500D01*
X162401269Y-129745500D01*
X162401264Y-129745500D01*
X162206236Y-129776389D01*
X162018439Y-129837409D01*
X162018433Y-129837411D01*
X161951382Y-129871575D01*
X161882713Y-129884471D01*
X161817973Y-129858194D01*
X161777717Y-129801087D01*
X161773473Y-129785286D01*
X161769737Y-129766503D01*
X161763336Y-129751050D01*
X161709397Y-129620827D01*
X161709390Y-129620814D01*
X161621789Y-129489711D01*
X161621786Y-129489707D01*
X161510292Y-129378213D01*
X161510288Y-129378210D01*
X161379185Y-129290609D01*
X161379172Y-129290602D01*
X161233501Y-129230264D01*
X161233489Y-129230261D01*
X161078845Y-129199500D01*
X161078842Y-129199500D01*
X160921158Y-129199500D01*
X160921155Y-129199500D01*
X160766510Y-129230261D01*
X160766498Y-129230264D01*
X160620827Y-129290602D01*
X160620814Y-129290609D01*
X160489711Y-129378210D01*
X160489707Y-129378213D01*
X160378213Y-129489707D01*
X160378210Y-129489711D01*
X160290609Y-129620814D01*
X160290606Y-129620820D01*
X160267737Y-129676031D01*
X160223895Y-129730434D01*
X160157601Y-129752498D01*
X160133778Y-129751050D01*
X160098736Y-129745500D01*
X160098731Y-129745500D01*
X159901269Y-129745500D01*
X159901264Y-129745500D01*
X159706236Y-129776389D01*
X159518441Y-129837408D01*
X159342495Y-129927058D01*
X159182753Y-130043115D01*
X159043115Y-130182753D01*
X158927058Y-130342495D01*
X158837408Y-130518441D01*
X158776389Y-130706236D01*
X158745500Y-130901263D01*
X153648175Y-130901263D01*
X153633012Y-130875000D01*
X154454000Y-130875000D01*
X154454000Y-130323172D01*
X154453999Y-130323155D01*
X154447598Y-130263627D01*
X154447596Y-130263620D01*
X154397354Y-130128913D01*
X154397350Y-130128906D01*
X154311190Y-130013812D01*
X154311187Y-130013809D01*
X154196093Y-129927649D01*
X154196086Y-129927645D01*
X154061379Y-129877403D01*
X154061372Y-129877401D01*
X154001844Y-129871000D01*
X153450000Y-129871000D01*
X153450000Y-130691988D01*
X153392993Y-130659075D01*
X153265826Y-130625000D01*
X153134174Y-130625000D01*
X153007007Y-130659075D01*
X152950000Y-130691988D01*
X152950000Y-129871000D01*
X152938488Y-129859488D01*
X152905003Y-129798165D01*
X152909987Y-129728473D01*
X152938485Y-129684129D01*
X155022297Y-127600319D01*
X155083620Y-127566834D01*
X155109978Y-127564000D01*
X163880559Y-127564000D01*
X163947598Y-127583685D01*
X163968240Y-127600319D01*
X163989707Y-127621786D01*
X163989711Y-127621789D01*
X164120814Y-127709390D01*
X164120827Y-127709397D01*
X164266498Y-127769735D01*
X164266503Y-127769737D01*
X164421153Y-127800499D01*
X164421156Y-127800500D01*
X164421158Y-127800500D01*
X164578844Y-127800500D01*
X164578845Y-127800499D01*
X164733497Y-127769737D01*
X164879179Y-127709394D01*
X165010289Y-127621789D01*
X165121789Y-127510289D01*
X165209394Y-127379179D01*
X165269737Y-127233497D01*
X165300500Y-127078842D01*
X165300500Y-126921158D01*
X165300500Y-126921155D01*
X165300499Y-126921153D01*
X165276499Y-126800499D01*
X165269737Y-126766503D01*
X165256875Y-126735451D01*
X165249407Y-126665982D01*
X165280683Y-126603503D01*
X165340772Y-126567851D01*
X165371437Y-126564000D01*
X166880559Y-126564000D01*
X166947598Y-126583685D01*
X166968240Y-126600319D01*
X166989707Y-126621786D01*
X166989711Y-126621789D01*
X167120814Y-126709390D01*
X167120827Y-126709397D01*
X167258695Y-126766503D01*
X167266503Y-126769737D01*
X167421153Y-126800499D01*
X167421156Y-126800500D01*
X167421158Y-126800500D01*
X167578844Y-126800500D01*
X167578845Y-126800499D01*
X167733497Y-126769737D01*
X167879179Y-126709394D01*
X168010289Y-126621789D01*
X168121789Y-126510289D01*
X168209394Y-126379179D01*
X168269737Y-126233497D01*
X168300500Y-126078842D01*
X168300500Y-125921158D01*
X168300500Y-125921155D01*
X168300499Y-125921153D01*
X168274411Y-125790000D01*
X168269737Y-125766503D01*
X168256875Y-125735451D01*
X168253366Y-125702814D01*
X168248699Y-125670353D01*
X168249652Y-125668265D01*
X168249407Y-125665982D01*
X168264095Y-125636639D01*
X168277724Y-125606797D01*
X168279655Y-125605555D01*
X168280683Y-125603503D01*
X168308905Y-125586757D01*
X168336502Y-125569023D01*
X168339530Y-125568587D01*
X168340772Y-125567851D01*
X168371437Y-125564000D01*
X168415022Y-125564000D01*
X168482061Y-125583685D01*
X168502703Y-125600319D01*
X172443736Y-129541352D01*
X172477221Y-129602675D01*
X172472237Y-129672367D01*
X172430365Y-129728300D01*
X172364901Y-129752717D01*
X172336657Y-129751506D01*
X172298736Y-129745500D01*
X172298731Y-129745500D01*
X172101269Y-129745500D01*
X172101264Y-129745500D01*
X171906236Y-129776389D01*
X171718441Y-129837408D01*
X171542495Y-129927058D01*
X171382754Y-130043114D01*
X171354546Y-130071323D01*
X171293222Y-130104807D01*
X171223531Y-130099821D01*
X171167598Y-130057949D01*
X171163764Y-130052530D01*
X171121792Y-129989715D01*
X171121786Y-129989707D01*
X171010292Y-129878213D01*
X171010288Y-129878210D01*
X170879185Y-129790609D01*
X170879172Y-129790602D01*
X170733501Y-129730264D01*
X170733489Y-129730261D01*
X170578845Y-129699500D01*
X170578842Y-129699500D01*
X170421158Y-129699500D01*
X170421155Y-129699500D01*
X170266510Y-129730261D01*
X170266498Y-129730264D01*
X170120827Y-129790602D01*
X170120814Y-129790609D01*
X169989711Y-129878210D01*
X169989707Y-129878213D01*
X169878213Y-129989707D01*
X169878210Y-129989711D01*
X169790609Y-130120814D01*
X169790602Y-130120827D01*
X169730264Y-130266498D01*
X169730261Y-130266510D01*
X169699500Y-130421153D01*
X169699500Y-130578846D01*
X169730261Y-130733489D01*
X169730264Y-130733501D01*
X169790602Y-130879172D01*
X169790609Y-130879185D01*
X169878210Y-131010288D01*
X169878213Y-131010292D01*
X169989707Y-131121786D01*
X169989711Y-131121789D01*
X170120814Y-131209390D01*
X170120827Y-131209397D01*
X170266498Y-131269735D01*
X170266503Y-131269737D01*
X170387289Y-131293763D01*
X170421153Y-131300499D01*
X170421156Y-131300500D01*
X170421158Y-131300500D01*
X170451522Y-131300500D01*
X170480962Y-131309144D01*
X170510949Y-131315668D01*
X170515964Y-131319422D01*
X170518561Y-131320185D01*
X170539203Y-131336819D01*
X170544346Y-131341962D01*
X170544356Y-131341973D01*
X170548686Y-131346303D01*
X170548687Y-131346304D01*
X170653696Y-131451313D01*
X170653698Y-131451314D01*
X170653699Y-131451315D01*
X170782300Y-131525563D01*
X170782301Y-131525563D01*
X170782304Y-131525565D01*
X170925748Y-131564001D01*
X170925751Y-131564001D01*
X171003428Y-131564001D01*
X171070467Y-131583686D01*
X171113911Y-131631704D01*
X171124176Y-131651848D01*
X171127058Y-131657505D01*
X171243115Y-131817246D01*
X171382753Y-131956884D01*
X171524683Y-132060000D01*
X171542499Y-132072944D01*
X171718439Y-132162591D01*
X171825417Y-132197350D01*
X171906236Y-132223610D01*
X172101264Y-132254500D01*
X172101269Y-132254500D01*
X172298736Y-132254500D01*
X172493763Y-132223610D01*
X172681561Y-132162591D01*
X172857501Y-132072944D01*
X172963288Y-131996086D01*
X173017246Y-131956884D01*
X173017248Y-131956881D01*
X173017252Y-131956879D01*
X173156879Y-131817252D01*
X173156881Y-131817248D01*
X173156884Y-131817246D01*
X173272941Y-131657505D01*
X173272942Y-131657504D01*
X173272944Y-131657501D01*
X173339516Y-131526846D01*
X173387490Y-131476052D01*
X173455311Y-131459257D01*
X173521446Y-131481794D01*
X173560482Y-131526845D01*
X173624166Y-131651830D01*
X173627058Y-131657505D01*
X173743115Y-131817246D01*
X173882753Y-131956884D01*
X174024683Y-132060000D01*
X174042499Y-132072944D01*
X174218439Y-132162591D01*
X174325417Y-132197350D01*
X174406236Y-132223610D01*
X174601264Y-132254500D01*
X174601269Y-132254500D01*
X174798736Y-132254500D01*
X174993763Y-132223610D01*
X175181561Y-132162591D01*
X175357501Y-132072944D01*
X175463288Y-131996086D01*
X175517246Y-131956884D01*
X175517248Y-131956881D01*
X175517252Y-131956879D01*
X175656879Y-131817252D01*
X175668074Y-131801844D01*
X175721681Y-131728059D01*
X175777011Y-131685392D01*
X175846624Y-131679413D01*
X175908419Y-131712018D01*
X175942777Y-131772856D01*
X175945722Y-131798526D01*
X175945823Y-131798521D01*
X175945911Y-131800169D01*
X175946000Y-131800943D01*
X175946000Y-131801844D01*
X175952401Y-131861372D01*
X175952403Y-131861379D01*
X176002645Y-131996086D01*
X176002649Y-131996093D01*
X176088809Y-132111187D01*
X176088812Y-132111190D01*
X176203906Y-132197350D01*
X176203913Y-132197354D01*
X176338620Y-132247596D01*
X176338627Y-132247598D01*
X176398155Y-132253999D01*
X176398172Y-132254000D01*
X176950000Y-132254000D01*
X176950000Y-131433012D01*
X177007007Y-131465925D01*
X177134174Y-131500000D01*
X177265826Y-131500000D01*
X177392993Y-131465925D01*
X177450000Y-131433012D01*
X177450000Y-132254000D01*
X178001828Y-132254000D01*
X178001844Y-132253999D01*
X178061372Y-132247598D01*
X178061379Y-132247596D01*
X178196086Y-132197354D01*
X178196093Y-132197350D01*
X178311187Y-132111190D01*
X178311190Y-132111187D01*
X178397350Y-131996093D01*
X178397354Y-131996086D01*
X178447596Y-131861379D01*
X178447598Y-131861372D01*
X178453999Y-131801844D01*
X178454000Y-131801827D01*
X178454000Y-131250000D01*
X177633012Y-131250000D01*
X177665925Y-131192993D01*
X177700000Y-131065826D01*
X177700000Y-130934174D01*
X177665925Y-130807007D01*
X177633012Y-130750000D01*
X178454000Y-130750000D01*
X178454000Y-130198172D01*
X178453999Y-130198155D01*
X178447598Y-130138627D01*
X178447596Y-130138620D01*
X178397354Y-130003913D01*
X178397350Y-130003906D01*
X178311190Y-129888812D01*
X178311187Y-129888809D01*
X178196093Y-129802649D01*
X178196086Y-129802645D01*
X178061379Y-129752403D01*
X178061372Y-129752401D01*
X178001844Y-129746000D01*
X177450000Y-129746000D01*
X177450000Y-130566988D01*
X177392993Y-130534075D01*
X177265826Y-130500000D01*
X177134174Y-130500000D01*
X177007007Y-130534075D01*
X176950000Y-130566988D01*
X176950000Y-129746000D01*
X176398155Y-129746000D01*
X176338627Y-129752401D01*
X176338620Y-129752403D01*
X176203913Y-129802645D01*
X176203906Y-129802649D01*
X176088812Y-129888809D01*
X176088809Y-129888812D01*
X176002649Y-130003906D01*
X176002645Y-130003913D01*
X175952403Y-130138620D01*
X175952401Y-130138627D01*
X175946000Y-130198155D01*
X175946000Y-130199056D01*
X175945942Y-130199252D01*
X175945823Y-130201479D01*
X175945644Y-130201469D01*
X175945644Y-130201475D01*
X175945540Y-130201463D01*
X175945296Y-130201450D01*
X175926315Y-130266095D01*
X175873511Y-130311850D01*
X175804353Y-130321794D01*
X175740797Y-130292769D01*
X175721682Y-130271941D01*
X175656884Y-130182754D01*
X175656880Y-130182749D01*
X175517246Y-130043115D01*
X175357504Y-129927058D01*
X175357503Y-129927057D01*
X175357501Y-129927056D01*
X175181561Y-129837409D01*
X175181558Y-129837408D01*
X174993763Y-129776389D01*
X174798736Y-129745500D01*
X174798731Y-129745500D01*
X174601269Y-129745500D01*
X174601264Y-129745500D01*
X174406236Y-129776390D01*
X174378699Y-129785337D01*
X174308858Y-129787331D01*
X174252702Y-129755086D01*
X169273297Y-124775681D01*
X169239812Y-124714358D01*
X169244796Y-124644666D01*
X169286668Y-124588733D01*
X169352132Y-124564316D01*
X169360978Y-124564000D01*
X177240741Y-124564000D01*
X177307780Y-124583685D01*
X177353535Y-124636489D01*
X177358445Y-124648991D01*
X177365186Y-124669334D01*
X177457288Y-124818656D01*
X177581344Y-124942712D01*
X177730666Y-125034814D01*
X177897203Y-125089999D01*
X177999991Y-125100500D01*
X179000008Y-125100499D01*
X179000016Y-125100498D01*
X179000019Y-125100498D01*
X179056302Y-125094748D01*
X179102797Y-125089999D01*
X179269334Y-125034814D01*
X179418656Y-124942712D01*
X179542712Y-124818656D01*
X179634814Y-124669334D01*
X179689999Y-124502797D01*
X179700500Y-124400009D01*
X179700499Y-123599992D01*
X179700232Y-123597382D01*
X179689999Y-123497203D01*
X179689998Y-123497200D01*
X179674793Y-123451314D01*
X179634814Y-123330666D01*
X179542712Y-123181344D01*
X179449049Y-123087681D01*
X179415564Y-123026358D01*
X179420548Y-122956666D01*
X179449049Y-122912319D01*
X179542712Y-122818656D01*
X179634814Y-122669334D01*
X179689999Y-122502797D01*
X179700500Y-122400009D01*
X179700499Y-122297475D01*
X179720183Y-122230439D01*
X179772986Y-122184683D01*
X179842145Y-122174739D01*
X179905701Y-122203763D01*
X179912180Y-122209796D01*
X181263181Y-123560797D01*
X181296666Y-123622120D01*
X181299500Y-123648478D01*
X181299500Y-124400001D01*
X181299501Y-124400019D01*
X181310000Y-124502796D01*
X181310001Y-124502799D01*
X181358085Y-124647906D01*
X181365186Y-124669334D01*
X181457288Y-124818656D01*
X181581344Y-124942712D01*
X181730666Y-125034814D01*
X181897203Y-125089999D01*
X181999991Y-125100500D01*
X183000008Y-125100499D01*
X183000016Y-125100498D01*
X183000019Y-125100498D01*
X183056302Y-125094748D01*
X183102797Y-125089999D01*
X183269334Y-125034814D01*
X183418656Y-124942712D01*
X183542712Y-124818656D01*
X183634814Y-124669334D01*
X183689999Y-124502797D01*
X183700500Y-124400009D01*
X183700499Y-123599992D01*
X183700232Y-123597382D01*
X183689999Y-123497203D01*
X183689998Y-123497200D01*
X183674793Y-123451314D01*
X183634814Y-123330666D01*
X183542712Y-123181344D01*
X183449049Y-123087681D01*
X183415564Y-123026358D01*
X183420548Y-122956666D01*
X183449049Y-122912319D01*
X183542712Y-122818656D01*
X183634814Y-122669334D01*
X183689999Y-122502797D01*
X183700500Y-122400009D01*
X183700499Y-121599992D01*
X183689999Y-121497203D01*
X183634814Y-121330666D01*
X183542712Y-121181344D01*
X183418656Y-121057288D01*
X183283089Y-120973670D01*
X183236365Y-120921722D01*
X183225142Y-120852759D01*
X183233625Y-120820679D01*
X183269737Y-120733497D01*
X183300500Y-120578842D01*
X183300500Y-120421158D01*
X183300500Y-120421155D01*
X183300499Y-120421153D01*
X183287848Y-120357554D01*
X183269737Y-120266503D01*
X183256875Y-120235451D01*
X183249407Y-120165982D01*
X183280683Y-120103503D01*
X183340772Y-120067851D01*
X183371437Y-120064000D01*
X185740741Y-120064000D01*
X185807780Y-120083685D01*
X185853535Y-120136489D01*
X185858445Y-120148991D01*
X185865186Y-120169334D01*
X185957288Y-120318656D01*
X186081344Y-120442712D01*
X186230666Y-120534814D01*
X186397203Y-120589999D01*
X186499991Y-120600500D01*
X187500008Y-120600499D01*
X187500016Y-120600498D01*
X187500019Y-120600498D01*
X187556302Y-120594748D01*
X187602797Y-120589999D01*
X187769334Y-120534814D01*
X187918656Y-120442712D01*
X188042712Y-120318656D01*
X188134814Y-120169334D01*
X188189999Y-120002797D01*
X188200500Y-119900009D01*
X188200499Y-119099992D01*
X188200232Y-119097382D01*
X188189478Y-118992101D01*
X188202248Y-118923408D01*
X188250129Y-118872524D01*
X188312836Y-118855500D01*
X189006522Y-118855500D01*
X189035962Y-118864144D01*
X189065949Y-118870668D01*
X189070964Y-118874422D01*
X189073561Y-118875185D01*
X189094203Y-118891819D01*
X189263181Y-119060797D01*
X189296666Y-119122120D01*
X189299500Y-119148478D01*
X189299500Y-119900001D01*
X189299501Y-119900019D01*
X189310000Y-120002796D01*
X189310001Y-120002799D01*
X189349110Y-120120821D01*
X189365186Y-120169334D01*
X189457288Y-120318656D01*
X189581344Y-120442712D01*
X189730666Y-120534814D01*
X189897203Y-120589999D01*
X189999991Y-120600500D01*
X191000008Y-120600499D01*
X191000016Y-120600498D01*
X191000019Y-120600498D01*
X191056302Y-120594748D01*
X191102797Y-120589999D01*
X191269334Y-120534814D01*
X191418656Y-120442712D01*
X191542712Y-120318656D01*
X191634814Y-120169334D01*
X191689999Y-120002797D01*
X191700500Y-119900009D01*
X191700499Y-119099992D01*
X191700232Y-119097382D01*
X191689999Y-118997203D01*
X191689998Y-118997200D01*
X191671766Y-118942179D01*
X191634814Y-118830666D01*
X191542712Y-118681344D01*
X191449049Y-118587681D01*
X191415564Y-118526358D01*
X191420548Y-118456666D01*
X191449049Y-118412319D01*
X191478736Y-118382632D01*
X191542712Y-118318656D01*
X191634814Y-118169334D01*
X191689999Y-118002797D01*
X191700500Y-117900009D01*
X191700499Y-117099992D01*
X191700232Y-117097383D01*
X191689999Y-116997203D01*
X191689998Y-116997200D01*
X191675998Y-116954952D01*
X191634814Y-116830666D01*
X191542712Y-116681344D01*
X191418656Y-116557288D01*
X191269334Y-116465186D01*
X191102797Y-116410001D01*
X191102795Y-116410000D01*
X191000016Y-116399500D01*
X191000009Y-116399500D01*
X190248479Y-116399500D01*
X190181440Y-116379815D01*
X190160798Y-116363181D01*
X186223851Y-112426235D01*
X186190366Y-112364912D01*
X186195350Y-112295220D01*
X186211212Y-112265672D01*
X186272287Y-112181610D01*
X186365220Y-111999219D01*
X186428477Y-111804534D01*
X186460500Y-111602352D01*
X186460500Y-111397648D01*
X186428477Y-111195466D01*
X186427673Y-111192993D01*
X186388523Y-111072500D01*
X186365220Y-111000781D01*
X186365218Y-111000778D01*
X186365218Y-111000776D01*
X186331503Y-110934607D01*
X186272287Y-110818390D01*
X186264556Y-110807749D01*
X186151971Y-110652786D01*
X186007213Y-110508028D01*
X185841613Y-110387715D01*
X185841612Y-110387714D01*
X185841610Y-110387713D01*
X185784653Y-110358691D01*
X185659223Y-110294781D01*
X185464534Y-110231522D01*
X185288850Y-110203697D01*
X185262352Y-110199500D01*
X185057648Y-110199500D01*
X185033329Y-110203351D01*
X184855465Y-110231522D01*
X184660776Y-110294781D01*
X184478386Y-110387715D01*
X184312786Y-110508028D01*
X184168028Y-110652786D01*
X184047715Y-110818386D01*
X184000485Y-110911080D01*
X183952510Y-110961876D01*
X183884689Y-110978671D01*
X183818554Y-110956134D01*
X183779515Y-110911080D01*
X183732419Y-110818650D01*
X183732287Y-110818390D01*
X183724556Y-110807749D01*
X183611971Y-110652786D01*
X183467213Y-110508028D01*
X183301613Y-110387714D01*
X183251703Y-110362283D01*
X183200908Y-110314307D01*
X183184000Y-110251799D01*
X183184000Y-108545750D01*
X183184000Y-108545748D01*
X183145565Y-108402304D01*
X183071313Y-108273696D01*
X182966304Y-108168687D01*
X182966303Y-108168686D01*
X182961973Y-108164356D01*
X182961962Y-108164346D01*
X181458383Y-106660767D01*
X181458381Y-106660764D01*
X181346306Y-106548689D01*
X181346304Y-106548687D01*
X181217696Y-106474435D01*
X181074253Y-106436000D01*
X181074252Y-106436000D01*
X155164978Y-106436000D01*
X155097939Y-106416315D01*
X155077297Y-106399681D01*
X149990713Y-101313097D01*
X149957228Y-101251774D01*
X149962212Y-101182082D01*
X150004084Y-101126149D01*
X150009510Y-101122310D01*
X150009971Y-101122001D01*
X150010289Y-101121789D01*
X150121789Y-101010289D01*
X150209394Y-100879179D01*
X150269737Y-100733497D01*
X150300500Y-100578842D01*
X150300500Y-100548478D01*
X150320185Y-100481439D01*
X150336819Y-100460797D01*
X150697298Y-100100319D01*
X150758621Y-100066834D01*
X150784979Y-100064000D01*
X179454251Y-100064000D01*
X179454253Y-100064000D01*
X179597696Y-100025565D01*
X179726304Y-99951313D01*
X179831313Y-99846304D01*
X179831313Y-99846302D01*
X179841517Y-99836099D01*
X179841521Y-99836094D01*
X182136198Y-97541416D01*
X182197519Y-97507933D01*
X182262194Y-97511167D01*
X182315466Y-97528477D01*
X182517648Y-97560500D01*
X182517649Y-97560500D01*
X182722351Y-97560500D01*
X182722352Y-97560500D01*
X182924534Y-97528477D01*
X183119219Y-97465220D01*
X183301610Y-97372287D01*
X183394590Y-97304732D01*
X183467213Y-97251971D01*
X183467215Y-97251968D01*
X183467219Y-97251966D01*
X183611966Y-97107219D01*
X183611968Y-97107215D01*
X183611971Y-97107213D01*
X183732284Y-96941614D01*
X183732286Y-96941611D01*
X183732287Y-96941610D01*
X183779516Y-96848917D01*
X183827489Y-96798123D01*
X183895310Y-96781328D01*
X183961445Y-96803865D01*
X184000485Y-96848919D01*
X184047715Y-96941614D01*
X184168028Y-97107213D01*
X184312786Y-97251971D01*
X184467749Y-97364556D01*
X184478390Y-97372287D01*
X184583417Y-97425801D01*
X184660776Y-97465218D01*
X184660778Y-97465218D01*
X184660781Y-97465220D01*
X184765137Y-97499127D01*
X184855465Y-97528477D01*
X184937171Y-97541418D01*
X185057648Y-97560500D01*
X185057649Y-97560500D01*
X185262351Y-97560500D01*
X185262352Y-97560500D01*
X185464534Y-97528477D01*
X185659219Y-97465220D01*
X185841610Y-97372287D01*
X185934590Y-97304732D01*
X186007213Y-97251971D01*
X186007215Y-97251968D01*
X186007219Y-97251966D01*
X186151966Y-97107219D01*
X186151968Y-97107215D01*
X186151971Y-97107213D01*
X186204732Y-97034590D01*
X186272287Y-96941610D01*
X186365220Y-96759219D01*
X186428477Y-96564534D01*
X186460500Y-96362352D01*
X186460500Y-96157648D01*
X186428477Y-95955466D01*
X186427673Y-95952993D01*
X186365218Y-95760776D01*
X186272419Y-95578650D01*
X186272287Y-95578390D01*
X186264556Y-95567749D01*
X186151971Y-95412786D01*
X186007213Y-95268028D01*
X185841613Y-95147715D01*
X185841612Y-95147714D01*
X185841610Y-95147713D01*
X185784653Y-95118691D01*
X185659223Y-95054781D01*
X185464534Y-94991522D01*
X185288850Y-94963697D01*
X185262352Y-94959500D01*
X185057648Y-94959500D01*
X185033329Y-94963351D01*
X184855465Y-94991522D01*
X184660776Y-95054781D01*
X184478386Y-95147715D01*
X184312786Y-95268028D01*
X184168028Y-95412786D01*
X184047715Y-95578386D01*
X184000485Y-95671080D01*
X183952510Y-95721876D01*
X183884689Y-95738671D01*
X183818554Y-95716134D01*
X183779515Y-95671080D01*
X183732419Y-95578650D01*
X183732287Y-95578390D01*
X183724556Y-95567749D01*
X183611971Y-95412786D01*
X183467213Y-95268028D01*
X183301613Y-95147715D01*
X183301612Y-95147714D01*
X183301610Y-95147713D01*
X183244653Y-95118691D01*
X183119223Y-95054781D01*
X182924534Y-94991522D01*
X182748850Y-94963697D01*
X182722352Y-94959500D01*
X182517648Y-94959500D01*
X182450254Y-94970174D01*
X182315464Y-94991523D01*
X182262196Y-95008831D01*
X182192355Y-95010826D01*
X182136197Y-94978581D01*
X179423297Y-92265681D01*
X179389812Y-92204358D01*
X179394796Y-92134666D01*
X179436668Y-92078733D01*
X179502132Y-92054316D01*
X179510978Y-92054000D01*
X180151828Y-92054000D01*
X180151844Y-92053999D01*
X180211372Y-92047598D01*
X180211379Y-92047596D01*
X180346086Y-91997354D01*
X180346093Y-91997350D01*
X180461187Y-91911190D01*
X180461190Y-91911187D01*
X180547350Y-91796093D01*
X180547354Y-91796086D01*
X180597596Y-91661379D01*
X180597598Y-91661372D01*
X180603999Y-91601844D01*
X180604000Y-91601827D01*
X180604000Y-91050000D01*
X179783012Y-91050000D01*
X179815925Y-90992993D01*
X179850000Y-90865826D01*
X179850000Y-90734174D01*
X179815925Y-90607007D01*
X179783012Y-90550000D01*
X180604000Y-90550000D01*
X180604000Y-89998172D01*
X180603999Y-89998155D01*
X180597598Y-89938627D01*
X180597596Y-89938620D01*
X180547354Y-89803913D01*
X180547350Y-89803906D01*
X180461190Y-89688812D01*
X180461187Y-89688809D01*
X180346091Y-89602647D01*
X180346088Y-89602646D01*
X180211379Y-89552403D01*
X180211372Y-89552401D01*
X180151844Y-89546000D01*
X179600000Y-89546000D01*
X179600000Y-90366988D01*
X179542993Y-90334075D01*
X179415826Y-90300000D01*
X179284174Y-90300000D01*
X179157007Y-90334075D01*
X179100000Y-90366988D01*
X179100000Y-89546000D01*
X178548155Y-89546000D01*
X178488627Y-89552401D01*
X178488620Y-89552403D01*
X178353913Y-89602645D01*
X178353906Y-89602649D01*
X178238812Y-89688809D01*
X178238809Y-89688812D01*
X178152649Y-89803906D01*
X178152645Y-89803913D01*
X178102403Y-89938620D01*
X178102401Y-89938627D01*
X178096000Y-89998155D01*
X178096000Y-89999056D01*
X178095942Y-89999252D01*
X178095823Y-90001479D01*
X178095644Y-90001469D01*
X178095644Y-90001475D01*
X178095540Y-90001463D01*
X178095296Y-90001450D01*
X178076315Y-90066095D01*
X178023511Y-90111850D01*
X177954353Y-90121794D01*
X177890797Y-90092769D01*
X177871682Y-90071941D01*
X177806884Y-89982754D01*
X177806880Y-89982749D01*
X177667246Y-89843115D01*
X177507504Y-89727058D01*
X177507503Y-89727057D01*
X177507501Y-89727056D01*
X177331561Y-89637409D01*
X177331558Y-89637408D01*
X177143763Y-89576389D01*
X176948736Y-89545500D01*
X176948731Y-89545500D01*
X176751269Y-89545500D01*
X176751264Y-89545500D01*
X176556236Y-89576389D01*
X176368441Y-89637408D01*
X176192495Y-89727058D01*
X176032753Y-89843115D01*
X175893115Y-89982753D01*
X175777058Y-90142495D01*
X175710485Y-90273151D01*
X175662510Y-90323947D01*
X175594689Y-90340742D01*
X175528554Y-90318204D01*
X175489515Y-90273151D01*
X175468350Y-90231613D01*
X175422944Y-90142499D01*
X175407901Y-90121794D01*
X175306884Y-89982753D01*
X175167246Y-89843115D01*
X175007504Y-89727058D01*
X175007503Y-89727057D01*
X175007501Y-89727056D01*
X174831561Y-89637409D01*
X174831558Y-89637408D01*
X174643763Y-89576389D01*
X174448736Y-89545500D01*
X174448731Y-89545500D01*
X174251269Y-89545500D01*
X174251264Y-89545500D01*
X174056236Y-89576389D01*
X173868441Y-89637408D01*
X173692495Y-89727058D01*
X173532753Y-89843115D01*
X173393115Y-89982753D01*
X173277058Y-90142495D01*
X173187408Y-90318441D01*
X173126389Y-90506236D01*
X173095500Y-90701263D01*
X173095500Y-90898736D01*
X173126389Y-91093763D01*
X173184139Y-91271498D01*
X173187409Y-91281561D01*
X173276948Y-91457289D01*
X173277058Y-91457504D01*
X173393115Y-91617246D01*
X173532753Y-91756884D01*
X173662301Y-91851004D01*
X173692499Y-91872944D01*
X173868439Y-91962591D01*
X173975417Y-91997350D01*
X174056236Y-92023610D01*
X174251264Y-92054500D01*
X174251269Y-92054500D01*
X174448736Y-92054500D01*
X174643763Y-92023610D01*
X174831561Y-91962591D01*
X175007501Y-91872944D01*
X175113288Y-91796086D01*
X175167246Y-91756884D01*
X175167248Y-91756881D01*
X175167252Y-91756879D01*
X175306879Y-91617252D01*
X175306881Y-91617248D01*
X175306884Y-91617246D01*
X175422941Y-91457505D01*
X175422942Y-91457504D01*
X175422944Y-91457501D01*
X175489516Y-91326846D01*
X175537490Y-91276052D01*
X175605311Y-91259257D01*
X175671446Y-91281794D01*
X175710482Y-91326845D01*
X175754522Y-91413276D01*
X175777058Y-91457505D01*
X175893115Y-91617246D01*
X176032753Y-91756884D01*
X176162301Y-91851004D01*
X176192499Y-91872944D01*
X176368439Y-91962591D01*
X176475417Y-91997350D01*
X176556236Y-92023610D01*
X176751264Y-92054500D01*
X176751269Y-92054500D01*
X176948736Y-92054500D01*
X177143763Y-92023610D01*
X177331561Y-91962591D01*
X177379417Y-91938206D01*
X177448083Y-91925309D01*
X177512824Y-91951583D01*
X177523393Y-91961009D01*
X180315926Y-94753542D01*
X180349411Y-94814865D01*
X180344427Y-94884557D01*
X180302555Y-94940490D01*
X180237091Y-94964907D01*
X180208850Y-94963697D01*
X180182352Y-94959500D01*
X179977648Y-94959500D01*
X179953329Y-94963351D01*
X179775465Y-94991522D01*
X179580776Y-95054781D01*
X179398386Y-95147715D01*
X179232786Y-95268028D01*
X179088028Y-95412786D01*
X178967715Y-95578386D01*
X178920485Y-95671080D01*
X178872510Y-95721876D01*
X178804689Y-95738671D01*
X178738554Y-95716134D01*
X178699515Y-95671080D01*
X178652419Y-95578650D01*
X178652287Y-95578390D01*
X178644556Y-95567749D01*
X178531971Y-95412786D01*
X178387213Y-95268028D01*
X178221613Y-95147715D01*
X178221612Y-95147714D01*
X178221610Y-95147713D01*
X178164653Y-95118691D01*
X178039223Y-95054781D01*
X177844534Y-94991522D01*
X177668850Y-94963697D01*
X177642352Y-94959500D01*
X177437648Y-94959500D01*
X177413329Y-94963351D01*
X177235465Y-94991522D01*
X177040776Y-95054781D01*
X176858386Y-95147715D01*
X176692786Y-95268028D01*
X176548028Y-95412786D01*
X176427715Y-95578386D01*
X176380485Y-95671080D01*
X176332510Y-95721876D01*
X176264689Y-95738671D01*
X176198554Y-95716134D01*
X176159515Y-95671080D01*
X176112419Y-95578650D01*
X176112287Y-95578390D01*
X176104556Y-95567749D01*
X175991971Y-95412786D01*
X175847213Y-95268028D01*
X175681613Y-95147715D01*
X175681612Y-95147714D01*
X175681610Y-95147713D01*
X175624653Y-95118691D01*
X175499223Y-95054781D01*
X175304534Y-94991522D01*
X175128850Y-94963697D01*
X175102352Y-94959500D01*
X174897648Y-94959500D01*
X174873329Y-94963351D01*
X174695465Y-94991522D01*
X174500776Y-95054781D01*
X174318386Y-95147715D01*
X174152786Y-95268028D01*
X174008028Y-95412786D01*
X173887715Y-95578386D01*
X173840485Y-95671080D01*
X173792510Y-95721876D01*
X173724689Y-95738671D01*
X173658554Y-95716134D01*
X173619515Y-95671080D01*
X173572419Y-95578650D01*
X173572287Y-95578390D01*
X173564556Y-95567749D01*
X173451971Y-95412786D01*
X173307213Y-95268028D01*
X173141613Y-95147715D01*
X173141612Y-95147714D01*
X173141610Y-95147713D01*
X173084653Y-95118691D01*
X172959223Y-95054781D01*
X172764534Y-94991522D01*
X172588850Y-94963697D01*
X172562352Y-94959500D01*
X172357648Y-94959500D01*
X172333329Y-94963351D01*
X172155465Y-94991522D01*
X171960776Y-95054781D01*
X171778386Y-95147715D01*
X171612786Y-95268028D01*
X171468028Y-95412786D01*
X171347715Y-95578386D01*
X171300485Y-95671080D01*
X171252510Y-95721876D01*
X171184689Y-95738671D01*
X171118554Y-95716134D01*
X171079515Y-95671080D01*
X171032419Y-95578650D01*
X171032287Y-95578390D01*
X171024556Y-95567749D01*
X170911971Y-95412786D01*
X170767213Y-95268028D01*
X170601613Y-95147715D01*
X170601612Y-95147714D01*
X170601610Y-95147713D01*
X170544653Y-95118691D01*
X170419223Y-95054781D01*
X170224534Y-94991522D01*
X170048850Y-94963697D01*
X170022352Y-94959500D01*
X169817648Y-94959500D01*
X169793329Y-94963351D01*
X169615465Y-94991522D01*
X169420776Y-95054781D01*
X169238386Y-95147715D01*
X169072786Y-95268028D01*
X168928028Y-95412786D01*
X168807715Y-95578386D01*
X168760485Y-95671080D01*
X168712510Y-95721876D01*
X168644689Y-95738671D01*
X168578554Y-95716134D01*
X168539515Y-95671080D01*
X168492419Y-95578650D01*
X168492287Y-95578390D01*
X168484556Y-95567749D01*
X168371971Y-95412786D01*
X168227213Y-95268028D01*
X168061613Y-95147715D01*
X168061612Y-95147714D01*
X168061610Y-95147713D01*
X168004653Y-95118691D01*
X167879223Y-95054781D01*
X167684534Y-94991522D01*
X167508850Y-94963697D01*
X167482352Y-94959500D01*
X167277648Y-94959500D01*
X167253329Y-94963351D01*
X167075465Y-94991522D01*
X166880776Y-95054781D01*
X166698386Y-95147715D01*
X166532786Y-95268028D01*
X166388028Y-95412786D01*
X166267715Y-95578386D01*
X166220485Y-95671080D01*
X166172510Y-95721876D01*
X166104689Y-95738671D01*
X166038554Y-95716134D01*
X165999515Y-95671080D01*
X165952419Y-95578650D01*
X165952287Y-95578390D01*
X165944556Y-95567749D01*
X165831971Y-95412786D01*
X165687213Y-95268028D01*
X165521613Y-95147715D01*
X165521612Y-95147714D01*
X165521610Y-95147713D01*
X165464653Y-95118691D01*
X165339223Y-95054781D01*
X165144534Y-94991522D01*
X164968850Y-94963697D01*
X164942352Y-94959500D01*
X164737648Y-94959500D01*
X164713329Y-94963351D01*
X164535465Y-94991522D01*
X164340776Y-95054781D01*
X164158386Y-95147715D01*
X163992786Y-95268028D01*
X163848028Y-95412786D01*
X163727715Y-95578386D01*
X163680485Y-95671080D01*
X163632510Y-95721876D01*
X163564689Y-95738671D01*
X163498554Y-95716134D01*
X163459515Y-95671080D01*
X163412419Y-95578650D01*
X163412287Y-95578390D01*
X163404556Y-95567749D01*
X163291971Y-95412786D01*
X163147213Y-95268028D01*
X162981613Y-95147715D01*
X162981612Y-95147714D01*
X162981610Y-95147713D01*
X162924653Y-95118691D01*
X162799223Y-95054781D01*
X162604534Y-94991522D01*
X162428850Y-94963697D01*
X162402352Y-94959500D01*
X162197648Y-94959500D01*
X162173329Y-94963351D01*
X161995465Y-94991522D01*
X161800776Y-95054781D01*
X161618386Y-95147715D01*
X161452786Y-95268028D01*
X161308028Y-95412786D01*
X161187715Y-95578386D01*
X161140485Y-95671080D01*
X161092510Y-95721876D01*
X161024689Y-95738671D01*
X160958554Y-95716134D01*
X160919515Y-95671080D01*
X160872419Y-95578650D01*
X160872287Y-95578390D01*
X160864556Y-95567749D01*
X160751971Y-95412786D01*
X160607213Y-95268028D01*
X160441613Y-95147715D01*
X160441612Y-95147714D01*
X160441610Y-95147713D01*
X160384653Y-95118691D01*
X160259223Y-95054781D01*
X160064534Y-94991522D01*
X159888850Y-94963697D01*
X159862352Y-94959500D01*
X159657648Y-94959500D01*
X159633329Y-94963351D01*
X159455465Y-94991522D01*
X159260776Y-95054781D01*
X159078386Y-95147715D01*
X158912786Y-95268028D01*
X158768028Y-95412786D01*
X158647715Y-95578386D01*
X158600485Y-95671080D01*
X158552510Y-95721876D01*
X158484689Y-95738671D01*
X158418554Y-95716134D01*
X158379515Y-95671080D01*
X158332419Y-95578650D01*
X158332287Y-95578390D01*
X158324556Y-95567749D01*
X158211971Y-95412786D01*
X158067213Y-95268028D01*
X157901613Y-95147715D01*
X157901612Y-95147714D01*
X157901610Y-95147713D01*
X157844653Y-95118691D01*
X157719223Y-95054781D01*
X157524534Y-94991522D01*
X157348850Y-94963697D01*
X157322352Y-94959500D01*
X157117648Y-94959500D01*
X157093329Y-94963351D01*
X156915465Y-94991522D01*
X156720776Y-95054781D01*
X156538386Y-95147715D01*
X156372786Y-95268028D01*
X156228028Y-95412786D01*
X156107715Y-95578386D01*
X156060485Y-95671080D01*
X156012510Y-95721876D01*
X155944689Y-95738671D01*
X155878554Y-95716134D01*
X155839515Y-95671080D01*
X155792419Y-95578650D01*
X155792287Y-95578390D01*
X155784556Y-95567749D01*
X155671971Y-95412786D01*
X155527213Y-95268028D01*
X155361613Y-95147715D01*
X155361612Y-95147714D01*
X155361610Y-95147713D01*
X155304653Y-95118691D01*
X155179223Y-95054781D01*
X154984534Y-94991522D01*
X154808850Y-94963697D01*
X154782352Y-94959500D01*
X154577648Y-94959500D01*
X154553329Y-94963351D01*
X154375465Y-94991522D01*
X154180776Y-95054781D01*
X153998386Y-95147715D01*
X153832786Y-95268028D01*
X153688028Y-95412786D01*
X153567713Y-95578388D01*
X153520203Y-95671630D01*
X153472228Y-95722426D01*
X153404407Y-95739220D01*
X153338272Y-95716682D01*
X153299234Y-95671628D01*
X153251861Y-95578652D01*
X153131582Y-95413105D01*
X153131582Y-95413104D01*
X152986895Y-95268417D01*
X152821349Y-95148140D01*
X152639029Y-95055244D01*
X152444413Y-94992009D01*
X152390000Y-94983390D01*
X152390000Y-95826988D01*
X152332993Y-95794075D01*
X152205826Y-95760000D01*
X152074174Y-95760000D01*
X151947007Y-95794075D01*
X151890000Y-95826988D01*
X151890000Y-94983390D01*
X151835586Y-94992009D01*
X151640970Y-95055244D01*
X151458650Y-95148140D01*
X151293105Y-95268417D01*
X151293104Y-95268417D01*
X151148417Y-95413104D01*
X151148417Y-95413105D01*
X151028140Y-95578650D01*
X150980765Y-95671629D01*
X150932790Y-95722425D01*
X150864969Y-95739220D01*
X150798834Y-95716682D01*
X150759795Y-95671629D01*
X150712419Y-95578650D01*
X150712287Y-95578390D01*
X150704556Y-95567749D01*
X150591971Y-95412786D01*
X150447213Y-95268028D01*
X150281613Y-95147715D01*
X150281612Y-95147714D01*
X150281610Y-95147713D01*
X150224653Y-95118691D01*
X150099223Y-95054781D01*
X149904534Y-94991522D01*
X149728850Y-94963697D01*
X149702352Y-94959500D01*
X149497648Y-94959500D01*
X149473329Y-94963351D01*
X149295465Y-94991522D01*
X149100776Y-95054781D01*
X148918386Y-95147715D01*
X148752786Y-95268028D01*
X148608028Y-95412786D01*
X148487715Y-95578386D01*
X148394781Y-95760776D01*
X148331522Y-95955465D01*
X148299500Y-96157648D01*
X148299500Y-96362351D01*
X148331522Y-96564534D01*
X148394781Y-96759223D01*
X148487715Y-96941613D01*
X148608028Y-97107213D01*
X148752786Y-97251971D01*
X148907749Y-97364556D01*
X148918390Y-97372287D01*
X149023417Y-97425801D01*
X149100776Y-97465218D01*
X149100778Y-97465218D01*
X149100781Y-97465220D01*
X149205137Y-97499127D01*
X149295465Y-97528477D01*
X149377171Y-97541418D01*
X149497648Y-97560500D01*
X149497649Y-97560500D01*
X149702351Y-97560500D01*
X149702352Y-97560500D01*
X149904534Y-97528477D01*
X150099219Y-97465220D01*
X150281610Y-97372287D01*
X150374590Y-97304732D01*
X150447213Y-97251971D01*
X150447215Y-97251968D01*
X150447219Y-97251966D01*
X150591966Y-97107219D01*
X150591968Y-97107215D01*
X150591971Y-97107213D01*
X150712284Y-96941614D01*
X150712286Y-96941611D01*
X150712287Y-96941610D01*
X150759795Y-96848369D01*
X150807770Y-96797574D01*
X150875591Y-96780779D01*
X150941725Y-96803316D01*
X150980765Y-96848370D01*
X151028140Y-96941349D01*
X151148417Y-97106894D01*
X151148417Y-97106895D01*
X151293104Y-97251582D01*
X151458650Y-97371859D01*
X151640968Y-97464754D01*
X151835578Y-97527988D01*
X151890000Y-97536607D01*
X151890000Y-96693012D01*
X151947007Y-96725925D01*
X152074174Y-96760000D01*
X152205826Y-96760000D01*
X152332993Y-96725925D01*
X152390000Y-96693012D01*
X152390000Y-97536606D01*
X152444421Y-97527988D01*
X152639031Y-97464754D01*
X152821349Y-97371859D01*
X152986894Y-97251582D01*
X152986895Y-97251582D01*
X153131582Y-97106895D01*
X153131582Y-97106894D01*
X153251861Y-96941347D01*
X153299234Y-96848371D01*
X153347208Y-96797575D01*
X153415028Y-96780779D01*
X153481164Y-96803316D01*
X153520203Y-96848369D01*
X153567713Y-96941611D01*
X153688028Y-97107213D01*
X153832786Y-97251971D01*
X153987749Y-97364556D01*
X153998390Y-97372287D01*
X154103417Y-97425801D01*
X154180776Y-97465218D01*
X154180778Y-97465218D01*
X154180781Y-97465220D01*
X154285137Y-97499127D01*
X154375465Y-97528477D01*
X154457171Y-97541418D01*
X154577648Y-97560500D01*
X154577649Y-97560500D01*
X154782351Y-97560500D01*
X154782352Y-97560500D01*
X154984534Y-97528477D01*
X155179219Y-97465220D01*
X155361610Y-97372287D01*
X155454590Y-97304732D01*
X155527213Y-97251971D01*
X155527215Y-97251968D01*
X155527219Y-97251966D01*
X155671966Y-97107219D01*
X155671968Y-97107215D01*
X155671971Y-97107213D01*
X155792284Y-96941614D01*
X155792286Y-96941611D01*
X155792287Y-96941610D01*
X155839516Y-96848917D01*
X155887489Y-96798123D01*
X155955310Y-96781328D01*
X156021445Y-96803865D01*
X156060485Y-96848919D01*
X156107715Y-96941614D01*
X156228028Y-97107213D01*
X156372786Y-97251971D01*
X156527749Y-97364556D01*
X156538390Y-97372287D01*
X156643417Y-97425801D01*
X156720776Y-97465218D01*
X156720778Y-97465218D01*
X156720781Y-97465220D01*
X156825137Y-97499127D01*
X156915465Y-97528477D01*
X156997171Y-97541418D01*
X157117648Y-97560500D01*
X157117649Y-97560500D01*
X157322351Y-97560500D01*
X157322352Y-97560500D01*
X157524534Y-97528477D01*
X157719219Y-97465220D01*
X157901610Y-97372287D01*
X157994590Y-97304732D01*
X158067213Y-97251971D01*
X158067215Y-97251968D01*
X158067219Y-97251966D01*
X158211966Y-97107219D01*
X158211968Y-97107215D01*
X158211971Y-97107213D01*
X158332284Y-96941614D01*
X158332286Y-96941611D01*
X158332287Y-96941610D01*
X158379516Y-96848917D01*
X158427489Y-96798123D01*
X158495310Y-96781328D01*
X158561445Y-96803865D01*
X158600485Y-96848919D01*
X158647715Y-96941614D01*
X158768028Y-97107213D01*
X158912786Y-97251971D01*
X159067749Y-97364556D01*
X159078390Y-97372287D01*
X159183417Y-97425801D01*
X159260776Y-97465218D01*
X159260778Y-97465218D01*
X159260781Y-97465220D01*
X159365137Y-97499127D01*
X159455465Y-97528477D01*
X159537171Y-97541418D01*
X159657648Y-97560500D01*
X159657649Y-97560500D01*
X159862351Y-97560500D01*
X159862352Y-97560500D01*
X160064534Y-97528477D01*
X160259219Y-97465220D01*
X160441610Y-97372287D01*
X160534590Y-97304732D01*
X160607213Y-97251971D01*
X160607215Y-97251968D01*
X160607219Y-97251966D01*
X160751966Y-97107219D01*
X160751968Y-97107215D01*
X160751971Y-97107213D01*
X160872284Y-96941614D01*
X160872286Y-96941611D01*
X160872287Y-96941610D01*
X160919516Y-96848917D01*
X160967489Y-96798123D01*
X161035310Y-96781328D01*
X161101445Y-96803865D01*
X161140485Y-96848919D01*
X161187715Y-96941614D01*
X161308028Y-97107213D01*
X161452786Y-97251971D01*
X161607749Y-97364556D01*
X161618390Y-97372287D01*
X161723417Y-97425801D01*
X161800776Y-97465218D01*
X161800778Y-97465218D01*
X161800781Y-97465220D01*
X161905137Y-97499127D01*
X161995465Y-97528477D01*
X162077171Y-97541418D01*
X162197648Y-97560500D01*
X162197649Y-97560500D01*
X162402351Y-97560500D01*
X162402352Y-97560500D01*
X162604534Y-97528477D01*
X162799219Y-97465220D01*
X162981610Y-97372287D01*
X163074590Y-97304732D01*
X163147213Y-97251971D01*
X163147215Y-97251968D01*
X163147219Y-97251966D01*
X163291966Y-97107219D01*
X163291968Y-97107215D01*
X163291971Y-97107213D01*
X163412284Y-96941614D01*
X163412286Y-96941611D01*
X163412287Y-96941610D01*
X163459516Y-96848917D01*
X163507489Y-96798123D01*
X163575310Y-96781328D01*
X163641445Y-96803865D01*
X163680485Y-96848919D01*
X163727715Y-96941614D01*
X163848028Y-97107213D01*
X163992786Y-97251971D01*
X164147749Y-97364556D01*
X164158390Y-97372287D01*
X164263417Y-97425801D01*
X164340776Y-97465218D01*
X164340778Y-97465218D01*
X164340781Y-97465220D01*
X164445137Y-97499127D01*
X164535465Y-97528477D01*
X164617171Y-97541418D01*
X164737648Y-97560500D01*
X164737649Y-97560500D01*
X164942351Y-97560500D01*
X164942352Y-97560500D01*
X165144534Y-97528477D01*
X165339219Y-97465220D01*
X165521610Y-97372287D01*
X165614590Y-97304732D01*
X165687213Y-97251971D01*
X165687215Y-97251968D01*
X165687219Y-97251966D01*
X165831966Y-97107219D01*
X165831968Y-97107215D01*
X165831971Y-97107213D01*
X165952284Y-96941614D01*
X165952286Y-96941611D01*
X165952287Y-96941610D01*
X165999516Y-96848917D01*
X166047489Y-96798123D01*
X166115310Y-96781328D01*
X166181445Y-96803865D01*
X166220485Y-96848919D01*
X166267715Y-96941614D01*
X166388028Y-97107213D01*
X166532786Y-97251971D01*
X166687749Y-97364556D01*
X166698390Y-97372287D01*
X166803417Y-97425801D01*
X166880776Y-97465218D01*
X166880778Y-97465218D01*
X166880781Y-97465220D01*
X166985137Y-97499127D01*
X167075465Y-97528477D01*
X167157171Y-97541418D01*
X167277648Y-97560500D01*
X167277649Y-97560500D01*
X167482351Y-97560500D01*
X167482352Y-97560500D01*
X167684534Y-97528477D01*
X167879219Y-97465220D01*
X168061610Y-97372287D01*
X168154590Y-97304732D01*
X168227213Y-97251971D01*
X168227215Y-97251968D01*
X168227219Y-97251966D01*
X168371966Y-97107219D01*
X168371968Y-97107215D01*
X168371971Y-97107213D01*
X168492284Y-96941614D01*
X168492286Y-96941611D01*
X168492287Y-96941610D01*
X168539516Y-96848917D01*
X168587489Y-96798123D01*
X168655310Y-96781328D01*
X168721445Y-96803865D01*
X168760485Y-96848919D01*
X168807715Y-96941614D01*
X168928028Y-97107213D01*
X169072786Y-97251971D01*
X169227749Y-97364556D01*
X169238390Y-97372287D01*
X169343417Y-97425801D01*
X169420776Y-97465218D01*
X169420778Y-97465218D01*
X169420781Y-97465220D01*
X169525137Y-97499127D01*
X169615465Y-97528477D01*
X169697171Y-97541418D01*
X169817648Y-97560500D01*
X169817649Y-97560500D01*
X170022351Y-97560500D01*
X170022352Y-97560500D01*
X170224534Y-97528477D01*
X170419219Y-97465220D01*
X170601610Y-97372287D01*
X170694590Y-97304732D01*
X170767213Y-97251971D01*
X170767215Y-97251968D01*
X170767219Y-97251966D01*
X170911966Y-97107219D01*
X170911968Y-97107215D01*
X170911971Y-97107213D01*
X171032284Y-96941614D01*
X171032286Y-96941611D01*
X171032287Y-96941610D01*
X171079516Y-96848917D01*
X171127489Y-96798123D01*
X171195310Y-96781328D01*
X171261445Y-96803865D01*
X171300485Y-96848919D01*
X171347715Y-96941614D01*
X171468028Y-97107213D01*
X171612786Y-97251971D01*
X171767749Y-97364556D01*
X171778390Y-97372287D01*
X171883417Y-97425801D01*
X171960776Y-97465218D01*
X171960778Y-97465218D01*
X171960781Y-97465220D01*
X172065137Y-97499127D01*
X172155465Y-97528477D01*
X172237171Y-97541418D01*
X172357648Y-97560500D01*
X172357649Y-97560500D01*
X172562351Y-97560500D01*
X172562352Y-97560500D01*
X172764534Y-97528477D01*
X172959219Y-97465220D01*
X173141610Y-97372287D01*
X173234590Y-97304732D01*
X173307213Y-97251971D01*
X173307215Y-97251968D01*
X173307219Y-97251966D01*
X173451966Y-97107219D01*
X173451968Y-97107215D01*
X173451971Y-97107213D01*
X173572284Y-96941614D01*
X173572286Y-96941611D01*
X173572287Y-96941610D01*
X173619516Y-96848917D01*
X173667489Y-96798123D01*
X173735310Y-96781328D01*
X173801445Y-96803865D01*
X173840485Y-96848919D01*
X173887715Y-96941614D01*
X174008028Y-97107213D01*
X174152786Y-97251971D01*
X174307749Y-97364556D01*
X174318390Y-97372287D01*
X174423417Y-97425801D01*
X174500776Y-97465218D01*
X174500778Y-97465218D01*
X174500781Y-97465220D01*
X174605137Y-97499127D01*
X174695465Y-97528477D01*
X174777171Y-97541418D01*
X174897648Y-97560500D01*
X174897649Y-97560500D01*
X175102351Y-97560500D01*
X175102352Y-97560500D01*
X175304534Y-97528477D01*
X175499219Y-97465220D01*
X175681610Y-97372287D01*
X175774590Y-97304732D01*
X175847213Y-97251971D01*
X175847215Y-97251968D01*
X175847219Y-97251966D01*
X175991966Y-97107219D01*
X175991968Y-97107215D01*
X175991971Y-97107213D01*
X176112284Y-96941614D01*
X176112286Y-96941611D01*
X176112287Y-96941610D01*
X176159516Y-96848917D01*
X176207489Y-96798123D01*
X176275310Y-96781328D01*
X176341445Y-96803865D01*
X176380485Y-96848919D01*
X176427715Y-96941614D01*
X176548028Y-97107213D01*
X176692786Y-97251971D01*
X176847749Y-97364556D01*
X176858390Y-97372287D01*
X176963417Y-97425801D01*
X177040776Y-97465218D01*
X177040778Y-97465218D01*
X177040781Y-97465220D01*
X177145137Y-97499127D01*
X177235465Y-97528477D01*
X177317171Y-97541418D01*
X177437648Y-97560500D01*
X177437649Y-97560500D01*
X177642351Y-97560500D01*
X177642352Y-97560500D01*
X177844534Y-97528477D01*
X178039219Y-97465220D01*
X178221610Y-97372287D01*
X178314590Y-97304732D01*
X178387213Y-97251971D01*
X178387215Y-97251968D01*
X178387219Y-97251966D01*
X178531966Y-97107219D01*
X178531968Y-97107215D01*
X178531971Y-97107213D01*
X178652284Y-96941614D01*
X178652286Y-96941611D01*
X178652287Y-96941610D01*
X178699516Y-96848917D01*
X178747489Y-96798123D01*
X178815310Y-96781328D01*
X178881445Y-96803865D01*
X178920485Y-96848919D01*
X178967715Y-96941614D01*
X179088028Y-97107213D01*
X179232786Y-97251971D01*
X179387749Y-97364556D01*
X179398390Y-97372287D01*
X179503417Y-97425801D01*
X179580776Y-97465218D01*
X179580778Y-97465218D01*
X179580781Y-97465220D01*
X179685137Y-97499127D01*
X179775465Y-97528477D01*
X179857171Y-97541418D01*
X179977648Y-97560500D01*
X179977649Y-97560500D01*
X180182348Y-97560500D01*
X180182352Y-97560500D01*
X180208847Y-97556303D01*
X180278137Y-97565257D01*
X180331590Y-97610252D01*
X180352231Y-97677003D01*
X180333507Y-97744317D01*
X180315925Y-97766457D01*
X179182703Y-98899681D01*
X179121380Y-98933166D01*
X179095022Y-98936000D01*
X150581865Y-98936000D01*
X150581849Y-98935999D01*
X150574253Y-98935999D01*
X150425748Y-98935999D01*
X150309134Y-98967246D01*
X150282300Y-98974436D01*
X150153699Y-99048684D01*
X150153693Y-99048689D01*
X149539203Y-99663181D01*
X149477880Y-99696666D01*
X149451522Y-99699500D01*
X149421155Y-99699500D01*
X149266510Y-99730261D01*
X149266498Y-99730264D01*
X149120827Y-99790602D01*
X149120814Y-99790609D01*
X148989711Y-99878210D01*
X148989707Y-99878213D01*
X148878217Y-99989704D01*
X148878211Y-99989710D01*
X148877682Y-99990503D01*
X148877298Y-99990823D01*
X148874353Y-99994413D01*
X148873671Y-99993854D01*
X148824067Y-100035305D01*
X148754742Y-100044008D01*
X148691716Y-100013850D01*
X148686903Y-100009287D01*
X141953297Y-93275681D01*
X141919812Y-93214358D01*
X141924796Y-93144666D01*
X141966668Y-93088733D01*
X142032132Y-93064316D01*
X142040978Y-93064000D01*
X145807604Y-93064000D01*
X145874643Y-93083685D01*
X145920398Y-93136489D01*
X145925309Y-93148993D01*
X145965186Y-93269334D01*
X146057288Y-93418656D01*
X146181344Y-93542712D01*
X146330666Y-93634814D01*
X146497203Y-93689999D01*
X146599991Y-93700500D01*
X147400008Y-93700499D01*
X147400016Y-93700498D01*
X147400019Y-93700498D01*
X147456302Y-93694748D01*
X147502797Y-93689999D01*
X147669334Y-93634814D01*
X147818656Y-93542712D01*
X147912319Y-93449049D01*
X147973642Y-93415564D01*
X148043334Y-93420548D01*
X148087681Y-93449049D01*
X148181344Y-93542712D01*
X148330666Y-93634814D01*
X148497203Y-93689999D01*
X148599991Y-93700500D01*
X149400008Y-93700499D01*
X149400016Y-93700498D01*
X149400019Y-93700498D01*
X149456302Y-93694748D01*
X149502797Y-93689999D01*
X149669334Y-93634814D01*
X149818656Y-93542712D01*
X149942712Y-93418656D01*
X150034814Y-93269334D01*
X150074690Y-93148995D01*
X150114463Y-93091551D01*
X150178979Y-93064728D01*
X150192396Y-93064000D01*
X164074251Y-93064000D01*
X164074253Y-93064000D01*
X164217696Y-93025565D01*
X164227052Y-93020162D01*
X164261959Y-93000010D01*
X164261960Y-93000009D01*
X164346304Y-92951313D01*
X164451313Y-92846304D01*
X164451313Y-92846302D01*
X164461517Y-92836099D01*
X164461521Y-92836094D01*
X166026118Y-91271496D01*
X166087439Y-91238013D01*
X166152114Y-91241247D01*
X166198393Y-91256285D01*
X166398632Y-91288000D01*
X166398633Y-91288000D01*
X166601367Y-91288000D01*
X166601368Y-91288000D01*
X166801607Y-91256285D01*
X166994420Y-91193637D01*
X167175059Y-91101597D01*
X167339076Y-90982432D01*
X167482432Y-90839076D01*
X167601597Y-90675059D01*
X167693637Y-90494420D01*
X167756285Y-90301607D01*
X167788000Y-90101368D01*
X167788000Y-89898632D01*
X167756285Y-89698393D01*
X167724961Y-89601986D01*
X167693638Y-89505582D01*
X167693637Y-89505579D01*
X167689596Y-89497648D01*
X187199500Y-89497648D01*
X187199500Y-89702352D01*
X187203106Y-89725116D01*
X187231522Y-89904534D01*
X187294781Y-90099223D01*
X187387715Y-90281613D01*
X187508028Y-90447213D01*
X187652786Y-90591971D01*
X187803217Y-90701263D01*
X187818390Y-90712287D01*
X187902647Y-90755218D01*
X188000776Y-90805218D01*
X188000778Y-90805218D01*
X188000781Y-90805220D01*
X188055995Y-90823160D01*
X188195465Y-90868477D01*
X188285852Y-90882793D01*
X188397648Y-90900500D01*
X188397649Y-90900500D01*
X188602351Y-90900500D01*
X188602352Y-90900500D01*
X188804534Y-90868477D01*
X188999219Y-90805220D01*
X189181610Y-90712287D01*
X189326517Y-90607007D01*
X189347213Y-90591971D01*
X189347215Y-90591968D01*
X189347219Y-90591966D01*
X189491966Y-90447219D01*
X189491968Y-90447215D01*
X189491971Y-90447213D01*
X189574169Y-90334075D01*
X189612287Y-90281610D01*
X189705220Y-90099219D01*
X189768477Y-89904534D01*
X189800500Y-89702352D01*
X189800500Y-89497648D01*
X189773278Y-89325776D01*
X189768477Y-89295465D01*
X189725974Y-89164655D01*
X189705220Y-89100781D01*
X189705218Y-89100778D01*
X189705218Y-89100776D01*
X189638794Y-88970413D01*
X189612287Y-88918390D01*
X189585083Y-88880946D01*
X189491971Y-88752786D01*
X189347213Y-88608028D01*
X189181613Y-88487715D01*
X189181612Y-88487714D01*
X189181610Y-88487713D01*
X189095899Y-88444041D01*
X188999223Y-88394781D01*
X188804534Y-88331522D01*
X188629995Y-88303878D01*
X188602352Y-88299500D01*
X188397648Y-88299500D01*
X188373329Y-88303351D01*
X188195465Y-88331522D01*
X188000776Y-88394781D01*
X187818386Y-88487715D01*
X187652786Y-88608028D01*
X187508028Y-88752786D01*
X187387715Y-88918386D01*
X187294781Y-89100776D01*
X187231522Y-89295465D01*
X187209564Y-89434108D01*
X187199500Y-89497648D01*
X167689596Y-89497648D01*
X167650311Y-89420548D01*
X167601597Y-89324941D01*
X167580182Y-89295466D01*
X167482437Y-89160930D01*
X167482433Y-89160925D01*
X167339074Y-89017566D01*
X167339069Y-89017562D01*
X167175062Y-88898405D01*
X167175061Y-88898404D01*
X167175059Y-88898403D01*
X167090488Y-88855312D01*
X166994420Y-88806362D01*
X166994417Y-88806361D01*
X166801608Y-88743715D01*
X166644951Y-88718903D01*
X166601368Y-88712000D01*
X166398632Y-88712000D01*
X166355049Y-88718903D01*
X166198391Y-88743715D01*
X166005582Y-88806361D01*
X166005579Y-88806362D01*
X165824937Y-88898405D01*
X165660930Y-89017562D01*
X165660925Y-89017566D01*
X165517562Y-89160929D01*
X165506002Y-89176841D01*
X165450671Y-89219505D01*
X165381058Y-89225483D01*
X165319263Y-89192875D01*
X165284908Y-89132036D01*
X165282396Y-89117206D01*
X165281096Y-89105120D01*
X165230854Y-88970413D01*
X165230850Y-88970406D01*
X165144690Y-88855312D01*
X165144687Y-88855309D01*
X165029593Y-88769149D01*
X165029586Y-88769145D01*
X164894879Y-88718903D01*
X164894872Y-88718901D01*
X164835344Y-88712500D01*
X164250000Y-88712500D01*
X164250000Y-89538120D01*
X164202642Y-89510778D01*
X164069118Y-89475000D01*
X163930882Y-89475000D01*
X163797358Y-89510778D01*
X163750000Y-89538120D01*
X163750000Y-88712500D01*
X163164655Y-88712500D01*
X163105127Y-88718901D01*
X163105120Y-88718903D01*
X162970413Y-88769145D01*
X162970406Y-88769149D01*
X162855312Y-88855309D01*
X162855309Y-88855312D01*
X162769149Y-88970406D01*
X162769145Y-88970413D01*
X162718903Y-89105120D01*
X162718901Y-89105127D01*
X162712500Y-89164655D01*
X162712500Y-89750000D01*
X163538120Y-89750000D01*
X163510778Y-89797358D01*
X163475000Y-89930882D01*
X163475000Y-90069118D01*
X163510778Y-90202642D01*
X163538120Y-90250000D01*
X162712500Y-90250000D01*
X162712500Y-90835344D01*
X162718901Y-90894872D01*
X162718903Y-90894879D01*
X162769145Y-91029586D01*
X162769149Y-91029593D01*
X162855309Y-91144687D01*
X162855312Y-91144690D01*
X162970406Y-91230850D01*
X162970413Y-91230854D01*
X163105120Y-91281096D01*
X163105127Y-91281098D01*
X163164655Y-91287499D01*
X163164672Y-91287500D01*
X163750000Y-91287500D01*
X163750000Y-90461879D01*
X163797358Y-90489222D01*
X163930882Y-90525000D01*
X164069118Y-90525000D01*
X164202642Y-90489222D01*
X164250000Y-90461879D01*
X164250000Y-91291855D01*
X164278246Y-91343584D01*
X164273262Y-91413276D01*
X164244761Y-91457623D01*
X163802703Y-91899681D01*
X163741380Y-91933166D01*
X163715022Y-91936000D01*
X150192396Y-91936000D01*
X150125357Y-91916315D01*
X150079602Y-91863511D01*
X150074690Y-91851004D01*
X150056492Y-91796086D01*
X150034814Y-91730666D01*
X149942712Y-91581344D01*
X149818656Y-91457288D01*
X149669334Y-91365186D01*
X149502797Y-91310001D01*
X149502795Y-91310000D01*
X149400010Y-91299500D01*
X148599998Y-91299500D01*
X148599980Y-91299501D01*
X148497203Y-91310000D01*
X148497200Y-91310001D01*
X148330668Y-91365185D01*
X148330663Y-91365187D01*
X148181342Y-91457289D01*
X148087681Y-91550951D01*
X148026358Y-91584436D01*
X147956666Y-91579452D01*
X147912319Y-91550951D01*
X147818657Y-91457289D01*
X147818656Y-91457288D01*
X147669334Y-91365186D01*
X147502797Y-91310001D01*
X147502795Y-91310000D01*
X147400010Y-91299500D01*
X146599998Y-91299500D01*
X146599980Y-91299501D01*
X146497203Y-91310000D01*
X146497200Y-91310001D01*
X146330668Y-91365185D01*
X146330663Y-91365187D01*
X146181342Y-91457289D01*
X146057289Y-91581342D01*
X145965187Y-91730663D01*
X145965185Y-91730668D01*
X145925310Y-91851004D01*
X145885537Y-91908449D01*
X145821021Y-91935272D01*
X145807604Y-91936000D01*
X140581865Y-91936000D01*
X140581849Y-91935999D01*
X140574253Y-91935999D01*
X140425748Y-91935999D01*
X140294063Y-91971284D01*
X140282300Y-91974436D01*
X140153695Y-92048687D01*
X140151986Y-92049999D01*
X140150283Y-92050657D01*
X140146657Y-92052751D01*
X140146330Y-92052185D01*
X140086816Y-92075193D01*
X140018372Y-92061154D01*
X139968382Y-92012340D01*
X139952500Y-91951623D01*
X139952500Y-89776478D01*
X139972185Y-89709439D01*
X139988819Y-89688797D01*
X140577297Y-89100319D01*
X140638620Y-89066834D01*
X140664978Y-89064000D01*
X145807604Y-89064000D01*
X145874643Y-89083685D01*
X145920398Y-89136489D01*
X145925309Y-89148993D01*
X145965186Y-89269334D01*
X146057288Y-89418656D01*
X146181344Y-89542712D01*
X146330666Y-89634814D01*
X146497203Y-89689999D01*
X146599991Y-89700500D01*
X147400008Y-89700499D01*
X147400016Y-89700498D01*
X147400019Y-89700498D01*
X147456302Y-89694748D01*
X147502797Y-89689999D01*
X147669334Y-89634814D01*
X147818656Y-89542712D01*
X147912319Y-89449049D01*
X147973642Y-89415564D01*
X148043334Y-89420548D01*
X148087681Y-89449049D01*
X148181344Y-89542712D01*
X148330666Y-89634814D01*
X148497203Y-89689999D01*
X148599991Y-89700500D01*
X149400008Y-89700499D01*
X149400016Y-89700498D01*
X149400019Y-89700498D01*
X149456302Y-89694748D01*
X149502797Y-89689999D01*
X149669334Y-89634814D01*
X149818656Y-89542712D01*
X149942712Y-89418656D01*
X150034814Y-89269334D01*
X150074690Y-89148995D01*
X150114463Y-89091551D01*
X150178979Y-89064728D01*
X150192396Y-89064000D01*
X153088500Y-89064000D01*
X153155539Y-89083685D01*
X153201294Y-89136489D01*
X153212500Y-89188000D01*
X153212500Y-89750000D01*
X154038120Y-89750000D01*
X154010778Y-89797358D01*
X153975000Y-89930882D01*
X153975000Y-90069118D01*
X154010778Y-90202642D01*
X154038120Y-90250000D01*
X153212500Y-90250000D01*
X153212500Y-90835344D01*
X153218901Y-90894872D01*
X153218903Y-90894879D01*
X153269145Y-91029586D01*
X153269149Y-91029593D01*
X153355309Y-91144687D01*
X153355312Y-91144690D01*
X153470406Y-91230850D01*
X153470413Y-91230854D01*
X153605120Y-91281096D01*
X153605127Y-91281098D01*
X153664655Y-91287499D01*
X153664672Y-91287500D01*
X154250000Y-91287500D01*
X154250000Y-90461879D01*
X154297358Y-90489222D01*
X154430882Y-90525000D01*
X154569118Y-90525000D01*
X154702642Y-90489222D01*
X154750000Y-90461879D01*
X154750000Y-91287500D01*
X155335328Y-91287500D01*
X155335344Y-91287499D01*
X155394872Y-91281098D01*
X155394879Y-91281096D01*
X155529586Y-91230854D01*
X155529593Y-91230850D01*
X155644687Y-91144690D01*
X155644690Y-91144687D01*
X155730850Y-91029593D01*
X155730854Y-91029586D01*
X155781096Y-90894879D01*
X155782396Y-90882793D01*
X155809133Y-90818242D01*
X155866525Y-90778392D01*
X155936350Y-90775897D01*
X155996439Y-90811548D01*
X156006004Y-90823160D01*
X156017566Y-90839074D01*
X156160925Y-90982433D01*
X156160930Y-90982437D01*
X156303986Y-91086372D01*
X156324941Y-91101597D01*
X156409516Y-91144690D01*
X156505579Y-91193637D01*
X156505582Y-91193638D01*
X156579845Y-91217767D01*
X156698393Y-91256285D01*
X156898632Y-91288000D01*
X156898633Y-91288000D01*
X157101367Y-91288000D01*
X157101368Y-91288000D01*
X157301607Y-91256285D01*
X157494420Y-91193637D01*
X157675059Y-91101597D01*
X157839076Y-90982432D01*
X157982432Y-90839076D01*
X158101597Y-90675059D01*
X158193637Y-90494420D01*
X158256285Y-90301607D01*
X158288000Y-90101368D01*
X158288000Y-89898632D01*
X158256285Y-89698393D01*
X158224961Y-89601986D01*
X158193638Y-89505582D01*
X158193637Y-89505579D01*
X158150311Y-89420548D01*
X158101597Y-89324941D01*
X158080182Y-89295466D01*
X158035697Y-89234236D01*
X157982437Y-89160930D01*
X157982433Y-89160925D01*
X157839074Y-89017566D01*
X157839069Y-89017562D01*
X157675062Y-88898405D01*
X157675061Y-88898404D01*
X157675059Y-88898403D01*
X157590488Y-88855312D01*
X157494420Y-88806362D01*
X157494417Y-88806361D01*
X157301608Y-88743715D01*
X157144951Y-88718903D01*
X157101368Y-88712000D01*
X156898632Y-88712000D01*
X156855049Y-88718903D01*
X156698391Y-88743715D01*
X156652112Y-88758751D01*
X156582271Y-88760744D01*
X156526116Y-88728500D01*
X155958383Y-88160767D01*
X155958381Y-88160764D01*
X155846306Y-88048689D01*
X155846304Y-88048687D01*
X155717696Y-87974435D01*
X155574253Y-87936000D01*
X155574252Y-87936000D01*
X150192396Y-87936000D01*
X150125357Y-87916315D01*
X150079602Y-87863511D01*
X150074690Y-87851004D01*
X150042346Y-87753397D01*
X150034814Y-87730666D01*
X149942712Y-87581344D01*
X149818656Y-87457288D01*
X149716917Y-87394535D01*
X149669336Y-87365187D01*
X149669331Y-87365185D01*
X149667862Y-87364698D01*
X149502797Y-87310001D01*
X149502795Y-87310000D01*
X149400010Y-87299500D01*
X148599998Y-87299500D01*
X148599980Y-87299501D01*
X148497203Y-87310000D01*
X148497200Y-87310001D01*
X148330668Y-87365185D01*
X148330663Y-87365187D01*
X148181342Y-87457289D01*
X148087681Y-87550951D01*
X148026358Y-87584436D01*
X147956666Y-87579452D01*
X147912319Y-87550951D01*
X147818657Y-87457289D01*
X147818656Y-87457288D01*
X147716917Y-87394535D01*
X147669336Y-87365187D01*
X147669331Y-87365185D01*
X147667862Y-87364698D01*
X147502797Y-87310001D01*
X147502795Y-87310000D01*
X147400010Y-87299500D01*
X146599998Y-87299500D01*
X146599980Y-87299501D01*
X146497203Y-87310000D01*
X146497200Y-87310001D01*
X146330668Y-87365185D01*
X146330663Y-87365187D01*
X146181342Y-87457289D01*
X146057289Y-87581342D01*
X145965187Y-87730663D01*
X145965185Y-87730668D01*
X145925310Y-87851004D01*
X145885537Y-87908449D01*
X145821021Y-87935272D01*
X145807604Y-87936000D01*
X140461865Y-87936000D01*
X140461849Y-87935999D01*
X140454253Y-87935999D01*
X140305748Y-87935999D01*
X140174063Y-87971284D01*
X140162300Y-87974436D01*
X140033699Y-88048684D01*
X140033693Y-88048689D01*
X138937189Y-89145193D01*
X138937185Y-89145199D01*
X138862936Y-89273801D01*
X138862935Y-89273804D01*
X138824500Y-89417248D01*
X138824500Y-94462752D01*
X138862935Y-94606196D01*
X138937187Y-94734804D01*
X138937189Y-94734806D01*
X139049261Y-94846878D01*
X139049267Y-94846883D01*
X149407858Y-105205475D01*
X149441343Y-105266798D01*
X149436359Y-105336490D01*
X149394487Y-105392423D01*
X149344370Y-105414773D01*
X149266507Y-105430261D01*
X149266498Y-105430264D01*
X149120827Y-105490602D01*
X149120814Y-105490609D01*
X148989711Y-105578210D01*
X148989707Y-105578213D01*
X148968240Y-105599681D01*
X148906917Y-105633166D01*
X148880559Y-105636000D01*
X128375747Y-105636000D01*
X128232303Y-105674435D01*
X128205845Y-105689711D01*
X128103699Y-105748685D01*
X128103693Y-105748689D01*
X127998685Y-105853698D01*
X115523482Y-118328900D01*
X115462159Y-118362385D01*
X115397484Y-118359150D01*
X115316244Y-118332754D01*
X115316240Y-118332753D01*
X115142395Y-118305219D01*
X115106287Y-118299500D01*
X114893713Y-118299500D01*
X114857605Y-118305219D01*
X114683760Y-118332753D01*
X114481585Y-118398444D01*
X114292179Y-118494951D01*
X114120213Y-118619890D01*
X113969890Y-118770213D01*
X113844951Y-118942179D01*
X113748444Y-119131585D01*
X113682753Y-119333760D01*
X113649500Y-119543713D01*
X103500500Y-119543713D01*
X103500500Y-97543713D01*
X113649500Y-97543713D01*
X113649500Y-97756286D01*
X113682753Y-97966239D01*
X113748444Y-98168414D01*
X113844951Y-98357820D01*
X113969890Y-98529786D01*
X114120213Y-98680109D01*
X114292179Y-98805048D01*
X114292181Y-98805049D01*
X114292184Y-98805051D01*
X114481588Y-98901557D01*
X114683757Y-98967246D01*
X114893713Y-99000500D01*
X114893714Y-99000500D01*
X115106286Y-99000500D01*
X115106287Y-99000500D01*
X115316243Y-98967246D01*
X115518412Y-98901557D01*
X115707816Y-98805051D01*
X115729789Y-98789086D01*
X115879786Y-98680109D01*
X115879788Y-98680106D01*
X115879792Y-98680104D01*
X115912319Y-98647577D01*
X115973642Y-98614092D01*
X116043334Y-98619076D01*
X116087681Y-98647577D01*
X116120213Y-98680109D01*
X116292179Y-98805048D01*
X116292181Y-98805049D01*
X116292184Y-98805051D01*
X116481588Y-98901557D01*
X116683757Y-98967246D01*
X116893713Y-99000500D01*
X116893714Y-99000500D01*
X117106286Y-99000500D01*
X117106287Y-99000500D01*
X117316243Y-98967246D01*
X117518412Y-98901557D01*
X117707816Y-98805051D01*
X117729789Y-98789086D01*
X117879786Y-98680109D01*
X117879788Y-98680106D01*
X117879792Y-98680104D01*
X117912319Y-98647577D01*
X117973642Y-98614092D01*
X118043334Y-98619076D01*
X118087681Y-98647577D01*
X118120213Y-98680109D01*
X118292179Y-98805048D01*
X118292181Y-98805049D01*
X118292184Y-98805051D01*
X118481588Y-98901557D01*
X118683757Y-98967246D01*
X118893713Y-99000500D01*
X118893714Y-99000500D01*
X119106286Y-99000500D01*
X119106287Y-99000500D01*
X119316243Y-98967246D01*
X119518412Y-98901557D01*
X119707816Y-98805051D01*
X119729789Y-98789086D01*
X119879786Y-98680109D01*
X119879788Y-98680106D01*
X119879792Y-98680104D01*
X119912319Y-98647577D01*
X119973642Y-98614092D01*
X120043334Y-98619076D01*
X120087681Y-98647577D01*
X120120213Y-98680109D01*
X120292179Y-98805048D01*
X120292181Y-98805049D01*
X120292184Y-98805051D01*
X120481588Y-98901557D01*
X120683757Y-98967246D01*
X120893713Y-99000500D01*
X120893714Y-99000500D01*
X121106286Y-99000500D01*
X121106287Y-99000500D01*
X121316243Y-98967246D01*
X121518412Y-98901557D01*
X121707816Y-98805051D01*
X121729789Y-98789086D01*
X121879786Y-98680109D01*
X121879788Y-98680106D01*
X121879792Y-98680104D01*
X121912319Y-98647577D01*
X121973642Y-98614092D01*
X122043334Y-98619076D01*
X122087681Y-98647577D01*
X122120213Y-98680109D01*
X122292179Y-98805048D01*
X122292181Y-98805049D01*
X122292184Y-98805051D01*
X122481588Y-98901557D01*
X122683757Y-98967246D01*
X122893713Y-99000500D01*
X122893714Y-99000500D01*
X123106286Y-99000500D01*
X123106287Y-99000500D01*
X123316243Y-98967246D01*
X123518412Y-98901557D01*
X123707816Y-98805051D01*
X123729789Y-98789086D01*
X123879786Y-98680109D01*
X123879788Y-98680106D01*
X123879792Y-98680104D01*
X123912319Y-98647577D01*
X123973642Y-98614092D01*
X124043334Y-98619076D01*
X124087681Y-98647577D01*
X124120213Y-98680109D01*
X124292179Y-98805048D01*
X124292181Y-98805049D01*
X124292184Y-98805051D01*
X124481588Y-98901557D01*
X124683757Y-98967246D01*
X124893713Y-99000500D01*
X124893714Y-99000500D01*
X125106286Y-99000500D01*
X125106287Y-99000500D01*
X125316243Y-98967246D01*
X125518412Y-98901557D01*
X125707816Y-98805051D01*
X125729789Y-98789086D01*
X125879786Y-98680109D01*
X125879788Y-98680106D01*
X125879792Y-98680104D01*
X125912319Y-98647577D01*
X125973642Y-98614092D01*
X126043334Y-98619076D01*
X126087681Y-98647577D01*
X126120213Y-98680109D01*
X126292179Y-98805048D01*
X126292181Y-98805049D01*
X126292184Y-98805051D01*
X126481588Y-98901557D01*
X126683757Y-98967246D01*
X126893713Y-99000500D01*
X126893714Y-99000500D01*
X127106286Y-99000500D01*
X127106287Y-99000500D01*
X127316243Y-98967246D01*
X127518412Y-98901557D01*
X127707816Y-98805051D01*
X127729789Y-98789086D01*
X127879786Y-98680109D01*
X127879788Y-98680106D01*
X127879792Y-98680104D01*
X127912319Y-98647577D01*
X127973642Y-98614092D01*
X128043334Y-98619076D01*
X128087681Y-98647577D01*
X128120213Y-98680109D01*
X128292179Y-98805048D01*
X128292181Y-98805049D01*
X128292184Y-98805051D01*
X128481588Y-98901557D01*
X128683757Y-98967246D01*
X128893713Y-99000500D01*
X128893714Y-99000500D01*
X129106286Y-99000500D01*
X129106287Y-99000500D01*
X129316243Y-98967246D01*
X129518412Y-98901557D01*
X129707816Y-98805051D01*
X129729789Y-98789086D01*
X129879786Y-98680109D01*
X129879788Y-98680106D01*
X129879792Y-98680104D01*
X129912319Y-98647577D01*
X129973642Y-98614092D01*
X130043334Y-98619076D01*
X130087681Y-98647577D01*
X130120213Y-98680109D01*
X130292179Y-98805048D01*
X130292181Y-98805049D01*
X130292184Y-98805051D01*
X130481588Y-98901557D01*
X130683757Y-98967246D01*
X130893713Y-99000500D01*
X130893714Y-99000500D01*
X131106286Y-99000500D01*
X131106287Y-99000500D01*
X131316243Y-98967246D01*
X131518412Y-98901557D01*
X131707816Y-98805051D01*
X131729789Y-98789086D01*
X131879786Y-98680109D01*
X131879788Y-98680106D01*
X131879792Y-98680104D01*
X131912319Y-98647577D01*
X131973642Y-98614092D01*
X132043334Y-98619076D01*
X132087681Y-98647577D01*
X132120213Y-98680109D01*
X132292179Y-98805048D01*
X132292181Y-98805049D01*
X132292184Y-98805051D01*
X132481588Y-98901557D01*
X132683757Y-98967246D01*
X132893713Y-99000500D01*
X132893714Y-99000500D01*
X133106286Y-99000500D01*
X133106287Y-99000500D01*
X133316243Y-98967246D01*
X133518412Y-98901557D01*
X133707816Y-98805051D01*
X133729789Y-98789086D01*
X133879786Y-98680109D01*
X133879788Y-98680106D01*
X133879792Y-98680104D01*
X134030104Y-98529792D01*
X134030106Y-98529788D01*
X134030109Y-98529786D01*
X134155048Y-98357820D01*
X134155047Y-98357820D01*
X134155051Y-98357816D01*
X134251557Y-98168412D01*
X134317246Y-97966243D01*
X134350500Y-97756287D01*
X134350500Y-97543713D01*
X134317246Y-97333757D01*
X134251557Y-97131588D01*
X134155051Y-96942184D01*
X134155049Y-96942181D01*
X134155048Y-96942179D01*
X134030109Y-96770213D01*
X133879786Y-96619890D01*
X133707820Y-96494951D01*
X133518414Y-96398444D01*
X133518413Y-96398443D01*
X133518412Y-96398443D01*
X133316243Y-96332754D01*
X133316241Y-96332753D01*
X133316240Y-96332753D01*
X133154957Y-96307208D01*
X133106287Y-96299500D01*
X132893713Y-96299500D01*
X132845042Y-96307208D01*
X132683760Y-96332753D01*
X132481585Y-96398444D01*
X132292179Y-96494951D01*
X132120213Y-96619890D01*
X132120209Y-96619894D01*
X132087681Y-96652423D01*
X132026358Y-96685908D01*
X131956666Y-96680924D01*
X131912319Y-96652423D01*
X131879786Y-96619890D01*
X131707820Y-96494951D01*
X131518414Y-96398444D01*
X131518413Y-96398443D01*
X131518412Y-96398443D01*
X131316243Y-96332754D01*
X131316241Y-96332753D01*
X131316240Y-96332753D01*
X131154957Y-96307208D01*
X131106287Y-96299500D01*
X130893713Y-96299500D01*
X130845042Y-96307208D01*
X130683760Y-96332753D01*
X130481585Y-96398444D01*
X130292179Y-96494951D01*
X130120213Y-96619890D01*
X130120209Y-96619894D01*
X130087681Y-96652423D01*
X130026358Y-96685908D01*
X129956666Y-96680924D01*
X129912319Y-96652423D01*
X129879786Y-96619890D01*
X129707820Y-96494951D01*
X129518414Y-96398444D01*
X129518413Y-96398443D01*
X129518412Y-96398443D01*
X129316243Y-96332754D01*
X129316241Y-96332753D01*
X129316240Y-96332753D01*
X129154957Y-96307208D01*
X129106287Y-96299500D01*
X128893713Y-96299500D01*
X128845042Y-96307208D01*
X128683760Y-96332753D01*
X128481585Y-96398444D01*
X128292179Y-96494951D01*
X128120213Y-96619890D01*
X128120209Y-96619894D01*
X128087681Y-96652423D01*
X128026358Y-96685908D01*
X127956666Y-96680924D01*
X127912319Y-96652423D01*
X127879786Y-96619890D01*
X127707820Y-96494951D01*
X127518414Y-96398444D01*
X127518413Y-96398443D01*
X127518412Y-96398443D01*
X127316243Y-96332754D01*
X127316241Y-96332753D01*
X127316240Y-96332753D01*
X127154957Y-96307208D01*
X127106287Y-96299500D01*
X126893713Y-96299500D01*
X126845042Y-96307208D01*
X126683760Y-96332753D01*
X126481585Y-96398444D01*
X126292179Y-96494951D01*
X126120213Y-96619890D01*
X126120209Y-96619894D01*
X126087681Y-96652423D01*
X126026358Y-96685908D01*
X125956666Y-96680924D01*
X125912319Y-96652423D01*
X125879786Y-96619890D01*
X125707820Y-96494951D01*
X125518414Y-96398444D01*
X125518413Y-96398443D01*
X125518412Y-96398443D01*
X125316243Y-96332754D01*
X125316241Y-96332753D01*
X125316240Y-96332753D01*
X125154957Y-96307208D01*
X125106287Y-96299500D01*
X124893713Y-96299500D01*
X124845042Y-96307208D01*
X124683760Y-96332753D01*
X124481585Y-96398444D01*
X124292179Y-96494951D01*
X124120213Y-96619890D01*
X124120209Y-96619894D01*
X124087681Y-96652423D01*
X124026358Y-96685908D01*
X123956666Y-96680924D01*
X123912319Y-96652423D01*
X123879786Y-96619890D01*
X123707820Y-96494951D01*
X123518414Y-96398444D01*
X123518413Y-96398443D01*
X123518412Y-96398443D01*
X123316243Y-96332754D01*
X123316241Y-96332753D01*
X123316240Y-96332753D01*
X123154957Y-96307208D01*
X123106287Y-96299500D01*
X122893713Y-96299500D01*
X122845042Y-96307208D01*
X122683760Y-96332753D01*
X122481585Y-96398444D01*
X122292179Y-96494951D01*
X122120213Y-96619890D01*
X122120209Y-96619894D01*
X122087681Y-96652423D01*
X122026358Y-96685908D01*
X121956666Y-96680924D01*
X121912319Y-96652423D01*
X121879786Y-96619890D01*
X121707820Y-96494951D01*
X121518414Y-96398444D01*
X121518413Y-96398443D01*
X121518412Y-96398443D01*
X121316243Y-96332754D01*
X121316241Y-96332753D01*
X121316240Y-96332753D01*
X121154957Y-96307208D01*
X121106287Y-96299500D01*
X120893713Y-96299500D01*
X120845042Y-96307208D01*
X120683760Y-96332753D01*
X120481585Y-96398444D01*
X120292179Y-96494951D01*
X120120213Y-96619890D01*
X120120209Y-96619894D01*
X120087681Y-96652423D01*
X120026358Y-96685908D01*
X119956666Y-96680924D01*
X119912319Y-96652423D01*
X119879786Y-96619890D01*
X119707820Y-96494951D01*
X119518414Y-96398444D01*
X119518413Y-96398443D01*
X119518412Y-96398443D01*
X119316243Y-96332754D01*
X119316241Y-96332753D01*
X119316240Y-96332753D01*
X119154957Y-96307208D01*
X119106287Y-96299500D01*
X118893713Y-96299500D01*
X118845042Y-96307208D01*
X118683760Y-96332753D01*
X118481585Y-96398444D01*
X118292179Y-96494951D01*
X118120213Y-96619890D01*
X118120209Y-96619894D01*
X118087681Y-96652423D01*
X118026358Y-96685908D01*
X117956666Y-96680924D01*
X117912319Y-96652423D01*
X117879786Y-96619890D01*
X117707820Y-96494951D01*
X117518414Y-96398444D01*
X117518413Y-96398443D01*
X117518412Y-96398443D01*
X117316243Y-96332754D01*
X117316241Y-96332753D01*
X117316240Y-96332753D01*
X117154957Y-96307208D01*
X117106287Y-96299500D01*
X116893713Y-96299500D01*
X116845042Y-96307208D01*
X116683760Y-96332753D01*
X116481585Y-96398444D01*
X116292179Y-96494951D01*
X116120213Y-96619890D01*
X116120209Y-96619894D01*
X116087681Y-96652423D01*
X116026358Y-96685908D01*
X115956666Y-96680924D01*
X115912319Y-96652423D01*
X115879786Y-96619890D01*
X115707820Y-96494951D01*
X115518414Y-96398444D01*
X115518413Y-96398443D01*
X115518412Y-96398443D01*
X115316243Y-96332754D01*
X115316241Y-96332753D01*
X115316240Y-96332753D01*
X115154957Y-96307208D01*
X115106287Y-96299500D01*
X114893713Y-96299500D01*
X114845042Y-96307208D01*
X114683760Y-96332753D01*
X114481585Y-96398444D01*
X114292179Y-96494951D01*
X114120213Y-96619890D01*
X113969890Y-96770213D01*
X113844951Y-96942179D01*
X113748444Y-97131585D01*
X113682753Y-97333760D01*
X113649500Y-97543713D01*
X103500500Y-97543713D01*
X103500500Y-89447648D01*
X106249500Y-89447648D01*
X106249500Y-89652351D01*
X106281522Y-89854534D01*
X106344781Y-90049223D01*
X106437715Y-90231613D01*
X106558028Y-90397213D01*
X106702786Y-90541971D01*
X106857749Y-90654556D01*
X106868390Y-90662287D01*
X106984607Y-90721503D01*
X107050776Y-90755218D01*
X107050778Y-90755218D01*
X107050781Y-90755220D01*
X107155137Y-90789127D01*
X107245465Y-90818477D01*
X107346557Y-90834488D01*
X107447648Y-90850500D01*
X107447649Y-90850500D01*
X107652351Y-90850500D01*
X107652352Y-90850500D01*
X107854534Y-90818477D01*
X108049219Y-90755220D01*
X108231610Y-90662287D01*
X108324590Y-90594732D01*
X108397213Y-90541971D01*
X108397215Y-90541968D01*
X108397219Y-90541966D01*
X108541966Y-90397219D01*
X108541968Y-90397215D01*
X108541971Y-90397213D01*
X108599201Y-90318441D01*
X108662287Y-90231610D01*
X108755220Y-90049219D01*
X108818477Y-89854534D01*
X108850500Y-89652352D01*
X108850500Y-89447648D01*
X108826034Y-89293178D01*
X108818477Y-89245465D01*
X108768467Y-89091551D01*
X108755220Y-89050781D01*
X108755218Y-89050778D01*
X108755218Y-89050776D01*
X108677579Y-88898403D01*
X108662287Y-88868390D01*
X108652783Y-88855309D01*
X108541971Y-88702786D01*
X108397213Y-88558028D01*
X108231613Y-88437715D01*
X108231612Y-88437714D01*
X108231610Y-88437713D01*
X108168359Y-88405485D01*
X108049223Y-88344781D01*
X107854534Y-88281522D01*
X107679995Y-88253878D01*
X107652352Y-88249500D01*
X107447648Y-88249500D01*
X107423329Y-88253351D01*
X107245465Y-88281522D01*
X107050776Y-88344781D01*
X106868386Y-88437715D01*
X106702786Y-88558028D01*
X106558028Y-88702786D01*
X106437715Y-88868386D01*
X106344781Y-89050776D01*
X106281522Y-89245465D01*
X106249500Y-89447648D01*
X103500500Y-89447648D01*
X103500500Y-89153050D01*
X103500649Y-89146966D01*
X103512860Y-88898403D01*
X103517774Y-88798365D01*
X103518967Y-88786258D01*
X103521505Y-88769149D01*
X103569732Y-88444029D01*
X103572100Y-88432122D01*
X103656169Y-88096500D01*
X103659699Y-88084867D01*
X103668367Y-88060644D01*
X103776249Y-87759133D01*
X103780904Y-87747896D01*
X103858214Y-87584436D01*
X103928831Y-87435127D01*
X103934550Y-87424427D01*
X104112425Y-87127662D01*
X104119168Y-87117569D01*
X104325280Y-86839659D01*
X104332983Y-86830274D01*
X104565339Y-86573909D01*
X104573909Y-86565339D01*
X104830274Y-86332983D01*
X104839659Y-86325280D01*
X105117569Y-86119168D01*
X105127662Y-86112425D01*
X105424427Y-85934550D01*
X105435127Y-85928831D01*
X105747896Y-85780904D01*
X105759133Y-85776249D01*
X106084875Y-85659696D01*
X106096500Y-85656169D01*
X106432122Y-85572100D01*
X106444029Y-85569732D01*
X106786261Y-85518966D01*
X106798365Y-85517774D01*
X107146967Y-85500649D01*
X107153051Y-85500500D01*
X107215892Y-85500500D01*
X188434108Y-85500500D01*
X188497128Y-85500500D01*
X188502855Y-85500632D01*
G37*
%TD.AperFunction*%
%TD*%
M02*
