M48
; DRILL file {KiCad 9.0.3} date 2026-04-19T17:09:14-0400
; FORMAT={-:-/ absolute / inch / decimal}
; #@! TF.CreationDate,2026-04-19T17:09:14-04:00
; #@! TF.GenerationSoftware,Kicad,Pcbnew,9.0.3
; #@! TF.FileFunction,Plated,1,2,PTH
FMAT,2
INCH
; #@! TA.AperFunction,Plated,PTH,ViaDrill
T1C0.0118
; #@! TA.AperFunction,Plated,PTH,ComponentDrill
T2C0.0315
; #@! TA.AperFunction,Plated,PTH,ComponentDrill
T3C0.0394
; #@! TA.AperFunction,Plated,PTH,ComponentDrill
T4C0.0413
%
G90
G05
T1
X4.8701Y-4.8441
X5.2378Y-4.7878
X5.8858Y-3.9567
X5.8858Y-4.1811
X5.9449Y-3.6024
X5.997Y-5.0
X6.1909Y-4.4858
X6.2008Y-5.8661
X6.2374Y-5.7638
X6.2402Y-4.9213
X6.3386Y-5.1181
X6.42Y-5.63
X6.437Y-5.8075
X6.4764Y-5.0
X6.5945Y-4.9606
X6.6303Y-5.2118
X6.6535Y-5.5512
X6.7126Y-5.1378
X7.0276Y-4.5079
X7.0276Y-4.7441
X7.17Y-5.67
X7.185Y-4.4882
X7.185Y-4.7441
X7.2835Y-5.2756
T2
X4.5276Y-3.8445
X4.5276Y-4.7106
X4.6063Y-3.8445
X4.6063Y-4.7106
X4.685Y-3.8445
X4.685Y-4.7106
X4.7638Y-3.8445
X4.7638Y-4.7106
X4.8425Y-3.8445
X4.8425Y-4.7106
X4.9213Y-3.8445
X4.9213Y-4.7106
X5.0Y-3.8445
X5.0Y-4.7106
X5.0787Y-3.8445
X5.0787Y-4.7106
X5.1575Y-3.8445
X5.1575Y-4.7106
X5.2362Y-3.8445
X5.2362Y-4.7106
T3
X4.2159Y-5.2091
X4.3144Y-5.2091
X4.4128Y-5.2091
X4.5112Y-5.2091
X5.374Y-5.1575
X5.4724Y-5.1575
X5.5709Y-5.1575
X5.8346Y-5.1624
X5.8898Y-3.7898
X5.8898Y-4.3898
X5.9331Y-5.1624
X5.9898Y-3.7898
X5.9898Y-4.3898
X6.0315Y-5.1624
X6.0898Y-3.7898
X6.0898Y-4.3898
X6.1898Y-3.7898
X6.1898Y-4.3898
X6.2898Y-3.7898
X6.2898Y-4.3898
X6.2992Y-5.1575
X6.3898Y-3.7898
X6.3898Y-4.3898
X6.3976Y-5.1575
X6.4898Y-3.7898
X6.4898Y-4.3898
X6.4961Y-5.1575
X6.5898Y-3.7898
X6.5898Y-4.3898
X6.6898Y-3.7898
X6.6898Y-4.3898
X6.7795Y-5.1575
X6.7898Y-3.7898
X6.7898Y-4.3898
X6.8642Y-3.5748
X6.878Y-5.1575
X6.8898Y-3.7898
X6.8898Y-4.3898
X6.9626Y-3.5748
X6.9764Y-5.1575
X6.9898Y-3.7898
X6.9898Y-4.3898
X7.061Y-3.5748
X7.0898Y-3.7898
X7.0898Y-4.3898
X7.1898Y-3.7898
X7.1898Y-4.3898
X7.2898Y-3.7898
X7.2898Y-4.3898
T4
X5.6693Y-4.6457
X5.7677Y-4.6457
X6.0157Y-4.6496
X6.0827Y-3.5433
X6.1142Y-4.6496
X6.1811Y-3.5433
X6.3583Y-4.6457
X6.4567Y-4.6457
X6.4661Y-3.5421
X6.5646Y-3.5421
X6.7126Y-4.6457
X6.811Y-4.6457
M30
