%TF.GenerationSoftware,KiCad,Pcbnew,9.0.3*%
%TF.CreationDate,2026-01-12T21:03:21-05:00*%
%TF.ProjectId,ElectronicsPCB,456c6563-7472-46f6-9e69-63735043422e,rev?*%
%TF.SameCoordinates,Original*%
%TF.FileFunction,Legend,Top*%
%TF.FilePolarity,Positive*%
%FSLAX46Y46*%
G04 Gerber Fmt 4.6, Leading zero omitted, Abs format (unit mm)*
G04 Created by KiCad (PCBNEW 9.0.3) date 2026-01-12 21:03:21*
%MOMM*%
%LPD*%
G01*
G04 APERTURE LIST*
%ADD10C,0.140000*%
%ADD11C,0.150000*%
%ADD12C,0.100000*%
%ADD13C,0.200000*%
%ADD14C,0.127000*%
%ADD15C,0.120000*%
%ADD16C,0.000000*%
%ADD17C,0.152400*%
G04 APERTURE END LIST*
D10*
X140950012Y-120429323D02*
X140992870Y-120472180D01*
X140992870Y-120472180D02*
X141035727Y-120600752D01*
X141035727Y-120600752D02*
X141035727Y-120686466D01*
X141035727Y-120686466D02*
X140992870Y-120815037D01*
X140992870Y-120815037D02*
X140907155Y-120900752D01*
X140907155Y-120900752D02*
X140821441Y-120943609D01*
X140821441Y-120943609D02*
X140650012Y-120986466D01*
X140650012Y-120986466D02*
X140521441Y-120986466D01*
X140521441Y-120986466D02*
X140350012Y-120943609D01*
X140350012Y-120943609D02*
X140264298Y-120900752D01*
X140264298Y-120900752D02*
X140178584Y-120815037D01*
X140178584Y-120815037D02*
X140135727Y-120686466D01*
X140135727Y-120686466D02*
X140135727Y-120600752D01*
X140135727Y-120600752D02*
X140178584Y-120472180D01*
X140178584Y-120472180D02*
X140221441Y-120429323D01*
X141035727Y-119915037D02*
X140992870Y-120000752D01*
X140992870Y-120000752D02*
X140950012Y-120043609D01*
X140950012Y-120043609D02*
X140864298Y-120086466D01*
X140864298Y-120086466D02*
X140607155Y-120086466D01*
X140607155Y-120086466D02*
X140521441Y-120043609D01*
X140521441Y-120043609D02*
X140478584Y-120000752D01*
X140478584Y-120000752D02*
X140435727Y-119915037D01*
X140435727Y-119915037D02*
X140435727Y-119786466D01*
X140435727Y-119786466D02*
X140478584Y-119700752D01*
X140478584Y-119700752D02*
X140521441Y-119657895D01*
X140521441Y-119657895D02*
X140607155Y-119615037D01*
X140607155Y-119615037D02*
X140864298Y-119615037D01*
X140864298Y-119615037D02*
X140950012Y-119657895D01*
X140950012Y-119657895D02*
X140992870Y-119700752D01*
X140992870Y-119700752D02*
X141035727Y-119786466D01*
X141035727Y-119786466D02*
X141035727Y-119915037D01*
X140435727Y-119229323D02*
X141035727Y-119229323D01*
X140521441Y-119229323D02*
X140478584Y-119186466D01*
X140478584Y-119186466D02*
X140435727Y-119100751D01*
X140435727Y-119100751D02*
X140435727Y-118972180D01*
X140435727Y-118972180D02*
X140478584Y-118886466D01*
X140478584Y-118886466D02*
X140564298Y-118843609D01*
X140564298Y-118843609D02*
X141035727Y-118843609D01*
X140435727Y-118543608D02*
X140435727Y-118200751D01*
X140135727Y-118415037D02*
X140907155Y-118415037D01*
X140907155Y-118415037D02*
X140992870Y-118372180D01*
X140992870Y-118372180D02*
X141035727Y-118286465D01*
X141035727Y-118286465D02*
X141035727Y-118200751D01*
X141035727Y-117900751D02*
X140435727Y-117900751D01*
X140607155Y-117900751D02*
X140521441Y-117857894D01*
X140521441Y-117857894D02*
X140478584Y-117815037D01*
X140478584Y-117815037D02*
X140435727Y-117729322D01*
X140435727Y-117729322D02*
X140435727Y-117643608D01*
X141035727Y-117215036D02*
X140992870Y-117300751D01*
X140992870Y-117300751D02*
X140950012Y-117343608D01*
X140950012Y-117343608D02*
X140864298Y-117386465D01*
X140864298Y-117386465D02*
X140607155Y-117386465D01*
X140607155Y-117386465D02*
X140521441Y-117343608D01*
X140521441Y-117343608D02*
X140478584Y-117300751D01*
X140478584Y-117300751D02*
X140435727Y-117215036D01*
X140435727Y-117215036D02*
X140435727Y-117086465D01*
X140435727Y-117086465D02*
X140478584Y-117000751D01*
X140478584Y-117000751D02*
X140521441Y-116957894D01*
X140521441Y-116957894D02*
X140607155Y-116915036D01*
X140607155Y-116915036D02*
X140864298Y-116915036D01*
X140864298Y-116915036D02*
X140950012Y-116957894D01*
X140950012Y-116957894D02*
X140992870Y-117000751D01*
X140992870Y-117000751D02*
X141035727Y-117086465D01*
X141035727Y-117086465D02*
X141035727Y-117215036D01*
X141035727Y-116400750D02*
X140992870Y-116486465D01*
X140992870Y-116486465D02*
X140907155Y-116529322D01*
X140907155Y-116529322D02*
X140135727Y-116529322D01*
X140992870Y-116100750D02*
X141035727Y-116015036D01*
X141035727Y-116015036D02*
X141035727Y-115843607D01*
X141035727Y-115843607D02*
X140992870Y-115757893D01*
X140992870Y-115757893D02*
X140907155Y-115715036D01*
X140907155Y-115715036D02*
X140864298Y-115715036D01*
X140864298Y-115715036D02*
X140778584Y-115757893D01*
X140778584Y-115757893D02*
X140735727Y-115843607D01*
X140735727Y-115843607D02*
X140735727Y-115972179D01*
X140735727Y-115972179D02*
X140692870Y-116057893D01*
X140692870Y-116057893D02*
X140607155Y-116100750D01*
X140607155Y-116100750D02*
X140564298Y-116100750D01*
X140564298Y-116100750D02*
X140478584Y-116057893D01*
X140478584Y-116057893D02*
X140435727Y-115972179D01*
X140435727Y-115972179D02*
X140435727Y-115843607D01*
X140435727Y-115843607D02*
X140478584Y-115757893D01*
X141035727Y-114643608D02*
X140135727Y-114643608D01*
X140135727Y-114643608D02*
X140135727Y-114300751D01*
X140135727Y-114300751D02*
X140178584Y-114215036D01*
X140178584Y-114215036D02*
X140221441Y-114172179D01*
X140221441Y-114172179D02*
X140307155Y-114129322D01*
X140307155Y-114129322D02*
X140435727Y-114129322D01*
X140435727Y-114129322D02*
X140521441Y-114172179D01*
X140521441Y-114172179D02*
X140564298Y-114215036D01*
X140564298Y-114215036D02*
X140607155Y-114300751D01*
X140607155Y-114300751D02*
X140607155Y-114643608D01*
X140950012Y-113229322D02*
X140992870Y-113272179D01*
X140992870Y-113272179D02*
X141035727Y-113400751D01*
X141035727Y-113400751D02*
X141035727Y-113486465D01*
X141035727Y-113486465D02*
X140992870Y-113615036D01*
X140992870Y-113615036D02*
X140907155Y-113700751D01*
X140907155Y-113700751D02*
X140821441Y-113743608D01*
X140821441Y-113743608D02*
X140650012Y-113786465D01*
X140650012Y-113786465D02*
X140521441Y-113786465D01*
X140521441Y-113786465D02*
X140350012Y-113743608D01*
X140350012Y-113743608D02*
X140264298Y-113700751D01*
X140264298Y-113700751D02*
X140178584Y-113615036D01*
X140178584Y-113615036D02*
X140135727Y-113486465D01*
X140135727Y-113486465D02*
X140135727Y-113400751D01*
X140135727Y-113400751D02*
X140178584Y-113272179D01*
X140178584Y-113272179D02*
X140221441Y-113229322D01*
X140564298Y-112543608D02*
X140607155Y-112415036D01*
X140607155Y-112415036D02*
X140650012Y-112372179D01*
X140650012Y-112372179D02*
X140735727Y-112329322D01*
X140735727Y-112329322D02*
X140864298Y-112329322D01*
X140864298Y-112329322D02*
X140950012Y-112372179D01*
X140950012Y-112372179D02*
X140992870Y-112415036D01*
X140992870Y-112415036D02*
X141035727Y-112500751D01*
X141035727Y-112500751D02*
X141035727Y-112843608D01*
X141035727Y-112843608D02*
X140135727Y-112843608D01*
X140135727Y-112843608D02*
X140135727Y-112543608D01*
X140135727Y-112543608D02*
X140178584Y-112457894D01*
X140178584Y-112457894D02*
X140221441Y-112415036D01*
X140221441Y-112415036D02*
X140307155Y-112372179D01*
X140307155Y-112372179D02*
X140392870Y-112372179D01*
X140392870Y-112372179D02*
X140478584Y-112415036D01*
X140478584Y-112415036D02*
X140521441Y-112457894D01*
X140521441Y-112457894D02*
X140564298Y-112543608D01*
X140564298Y-112543608D02*
X140564298Y-112843608D01*
X142013248Y-120643609D02*
X142013248Y-120943609D01*
X142484677Y-120943609D02*
X141584677Y-120943609D01*
X141584677Y-120943609D02*
X141584677Y-120515037D01*
X142484677Y-119786466D02*
X142013248Y-119786466D01*
X142013248Y-119786466D02*
X141927534Y-119829323D01*
X141927534Y-119829323D02*
X141884677Y-119915037D01*
X141884677Y-119915037D02*
X141884677Y-120086466D01*
X141884677Y-120086466D02*
X141927534Y-120172180D01*
X142441820Y-119786466D02*
X142484677Y-119872180D01*
X142484677Y-119872180D02*
X142484677Y-120086466D01*
X142484677Y-120086466D02*
X142441820Y-120172180D01*
X142441820Y-120172180D02*
X142356105Y-120215037D01*
X142356105Y-120215037D02*
X142270391Y-120215037D01*
X142270391Y-120215037D02*
X142184677Y-120172180D01*
X142184677Y-120172180D02*
X142141820Y-120086466D01*
X142141820Y-120086466D02*
X142141820Y-119872180D01*
X142141820Y-119872180D02*
X142098962Y-119786466D01*
X142484677Y-119229322D02*
X142441820Y-119315037D01*
X142441820Y-119315037D02*
X142356105Y-119357894D01*
X142356105Y-119357894D02*
X141584677Y-119357894D01*
X142484677Y-118757893D02*
X142441820Y-118843608D01*
X142441820Y-118843608D02*
X142356105Y-118886465D01*
X142356105Y-118886465D02*
X141584677Y-118886465D01*
X141670391Y-117772179D02*
X141627534Y-117729322D01*
X141627534Y-117729322D02*
X141584677Y-117643608D01*
X141584677Y-117643608D02*
X141584677Y-117429322D01*
X141584677Y-117429322D02*
X141627534Y-117343608D01*
X141627534Y-117343608D02*
X141670391Y-117300750D01*
X141670391Y-117300750D02*
X141756105Y-117257893D01*
X141756105Y-117257893D02*
X141841820Y-117257893D01*
X141841820Y-117257893D02*
X141970391Y-117300750D01*
X141970391Y-117300750D02*
X142484677Y-117815036D01*
X142484677Y-117815036D02*
X142484677Y-117257893D01*
X141584677Y-116700750D02*
X141584677Y-116615036D01*
X141584677Y-116615036D02*
X141627534Y-116529322D01*
X141627534Y-116529322D02*
X141670391Y-116486465D01*
X141670391Y-116486465D02*
X141756105Y-116443607D01*
X141756105Y-116443607D02*
X141927534Y-116400750D01*
X141927534Y-116400750D02*
X142141820Y-116400750D01*
X142141820Y-116400750D02*
X142313248Y-116443607D01*
X142313248Y-116443607D02*
X142398962Y-116486465D01*
X142398962Y-116486465D02*
X142441820Y-116529322D01*
X142441820Y-116529322D02*
X142484677Y-116615036D01*
X142484677Y-116615036D02*
X142484677Y-116700750D01*
X142484677Y-116700750D02*
X142441820Y-116786465D01*
X142441820Y-116786465D02*
X142398962Y-116829322D01*
X142398962Y-116829322D02*
X142313248Y-116872179D01*
X142313248Y-116872179D02*
X142141820Y-116915036D01*
X142141820Y-116915036D02*
X141927534Y-116915036D01*
X141927534Y-116915036D02*
X141756105Y-116872179D01*
X141756105Y-116872179D02*
X141670391Y-116829322D01*
X141670391Y-116829322D02*
X141627534Y-116786465D01*
X141627534Y-116786465D02*
X141584677Y-116700750D01*
X141670391Y-116057893D02*
X141627534Y-116015036D01*
X141627534Y-116015036D02*
X141584677Y-115929322D01*
X141584677Y-115929322D02*
X141584677Y-115715036D01*
X141584677Y-115715036D02*
X141627534Y-115629322D01*
X141627534Y-115629322D02*
X141670391Y-115586464D01*
X141670391Y-115586464D02*
X141756105Y-115543607D01*
X141756105Y-115543607D02*
X141841820Y-115543607D01*
X141841820Y-115543607D02*
X141970391Y-115586464D01*
X141970391Y-115586464D02*
X142484677Y-116100750D01*
X142484677Y-116100750D02*
X142484677Y-115543607D01*
X141584677Y-114729321D02*
X141584677Y-115157893D01*
X141584677Y-115157893D02*
X142013248Y-115200750D01*
X142013248Y-115200750D02*
X141970391Y-115157893D01*
X141970391Y-115157893D02*
X141927534Y-115072179D01*
X141927534Y-115072179D02*
X141927534Y-114857893D01*
X141927534Y-114857893D02*
X141970391Y-114772179D01*
X141970391Y-114772179D02*
X142013248Y-114729321D01*
X142013248Y-114729321D02*
X142098962Y-114686464D01*
X142098962Y-114686464D02*
X142313248Y-114686464D01*
X142313248Y-114686464D02*
X142398962Y-114729321D01*
X142398962Y-114729321D02*
X142441820Y-114772179D01*
X142441820Y-114772179D02*
X142484677Y-114857893D01*
X142484677Y-114857893D02*
X142484677Y-115072179D01*
X142484677Y-115072179D02*
X142441820Y-115157893D01*
X142441820Y-115157893D02*
X142398962Y-115200750D01*
X143933627Y-120515037D02*
X143933627Y-120943609D01*
X143933627Y-120943609D02*
X143033627Y-120943609D01*
X143933627Y-120215038D02*
X143333627Y-120215038D01*
X143033627Y-120215038D02*
X143076484Y-120257895D01*
X143076484Y-120257895D02*
X143119341Y-120215038D01*
X143119341Y-120215038D02*
X143076484Y-120172181D01*
X143076484Y-120172181D02*
X143033627Y-120215038D01*
X143033627Y-120215038D02*
X143119341Y-120215038D01*
X143333627Y-119872181D02*
X143933627Y-119657895D01*
X143333627Y-119443610D02*
X143933627Y-119657895D01*
X143933627Y-119657895D02*
X144147912Y-119743610D01*
X144147912Y-119743610D02*
X144190770Y-119786467D01*
X144190770Y-119786467D02*
X144233627Y-119872181D01*
X143933627Y-118715039D02*
X143462198Y-118715039D01*
X143462198Y-118715039D02*
X143376484Y-118757896D01*
X143376484Y-118757896D02*
X143333627Y-118843610D01*
X143333627Y-118843610D02*
X143333627Y-119015039D01*
X143333627Y-119015039D02*
X143376484Y-119100753D01*
X143890770Y-118715039D02*
X143933627Y-118800753D01*
X143933627Y-118800753D02*
X143933627Y-119015039D01*
X143933627Y-119015039D02*
X143890770Y-119100753D01*
X143890770Y-119100753D02*
X143805055Y-119143610D01*
X143805055Y-119143610D02*
X143719341Y-119143610D01*
X143719341Y-119143610D02*
X143633627Y-119100753D01*
X143633627Y-119100753D02*
X143590770Y-119015039D01*
X143590770Y-119015039D02*
X143590770Y-118800753D01*
X143590770Y-118800753D02*
X143547912Y-118715039D01*
X143933627Y-117600753D02*
X143033627Y-117600753D01*
X143033627Y-117600753D02*
X143676484Y-117300753D01*
X143676484Y-117300753D02*
X143033627Y-117000753D01*
X143033627Y-117000753D02*
X143933627Y-117000753D01*
X143890770Y-116229325D02*
X143933627Y-116315039D01*
X143933627Y-116315039D02*
X143933627Y-116486468D01*
X143933627Y-116486468D02*
X143890770Y-116572182D01*
X143890770Y-116572182D02*
X143805055Y-116615039D01*
X143805055Y-116615039D02*
X143462198Y-116615039D01*
X143462198Y-116615039D02*
X143376484Y-116572182D01*
X143376484Y-116572182D02*
X143333627Y-116486468D01*
X143333627Y-116486468D02*
X143333627Y-116315039D01*
X143333627Y-116315039D02*
X143376484Y-116229325D01*
X143376484Y-116229325D02*
X143462198Y-116186468D01*
X143462198Y-116186468D02*
X143547912Y-116186468D01*
X143547912Y-116186468D02*
X143633627Y-116615039D01*
X143933627Y-115800753D02*
X143333627Y-115800753D01*
X143033627Y-115800753D02*
X143076484Y-115843610D01*
X143076484Y-115843610D02*
X143119341Y-115800753D01*
X143119341Y-115800753D02*
X143076484Y-115757896D01*
X143076484Y-115757896D02*
X143033627Y-115800753D01*
X143033627Y-115800753D02*
X143119341Y-115800753D01*
X144482577Y-120686466D02*
X145125434Y-120686466D01*
X145125434Y-120686466D02*
X145254005Y-120729323D01*
X145254005Y-120729323D02*
X145339720Y-120815037D01*
X145339720Y-120815037D02*
X145382577Y-120943609D01*
X145382577Y-120943609D02*
X145382577Y-121029323D01*
X145382577Y-120129323D02*
X145339720Y-120215038D01*
X145339720Y-120215038D02*
X145296862Y-120257895D01*
X145296862Y-120257895D02*
X145211148Y-120300752D01*
X145211148Y-120300752D02*
X144954005Y-120300752D01*
X144954005Y-120300752D02*
X144868291Y-120257895D01*
X144868291Y-120257895D02*
X144825434Y-120215038D01*
X144825434Y-120215038D02*
X144782577Y-120129323D01*
X144782577Y-120129323D02*
X144782577Y-120000752D01*
X144782577Y-120000752D02*
X144825434Y-119915038D01*
X144825434Y-119915038D02*
X144868291Y-119872181D01*
X144868291Y-119872181D02*
X144954005Y-119829323D01*
X144954005Y-119829323D02*
X145211148Y-119829323D01*
X145211148Y-119829323D02*
X145296862Y-119872181D01*
X145296862Y-119872181D02*
X145339720Y-119915038D01*
X145339720Y-119915038D02*
X145382577Y-120000752D01*
X145382577Y-120000752D02*
X145382577Y-120129323D01*
X144782577Y-119443609D02*
X145382577Y-119443609D01*
X144868291Y-119443609D02*
X144825434Y-119400752D01*
X144825434Y-119400752D02*
X144782577Y-119315037D01*
X144782577Y-119315037D02*
X144782577Y-119186466D01*
X144782577Y-119186466D02*
X144825434Y-119100752D01*
X144825434Y-119100752D02*
X144911148Y-119057895D01*
X144911148Y-119057895D02*
X145382577Y-119057895D01*
X145382577Y-118243609D02*
X144911148Y-118243609D01*
X144911148Y-118243609D02*
X144825434Y-118286466D01*
X144825434Y-118286466D02*
X144782577Y-118372180D01*
X144782577Y-118372180D02*
X144782577Y-118543609D01*
X144782577Y-118543609D02*
X144825434Y-118629323D01*
X145339720Y-118243609D02*
X145382577Y-118329323D01*
X145382577Y-118329323D02*
X145382577Y-118543609D01*
X145382577Y-118543609D02*
X145339720Y-118629323D01*
X145339720Y-118629323D02*
X145254005Y-118672180D01*
X145254005Y-118672180D02*
X145168291Y-118672180D01*
X145168291Y-118672180D02*
X145082577Y-118629323D01*
X145082577Y-118629323D02*
X145039720Y-118543609D01*
X145039720Y-118543609D02*
X145039720Y-118329323D01*
X145039720Y-118329323D02*
X144996862Y-118243609D01*
X145382577Y-117815037D02*
X144482577Y-117815037D01*
X145382577Y-117429323D02*
X144911148Y-117429323D01*
X144911148Y-117429323D02*
X144825434Y-117472180D01*
X144825434Y-117472180D02*
X144782577Y-117557894D01*
X144782577Y-117557894D02*
X144782577Y-117686465D01*
X144782577Y-117686465D02*
X144825434Y-117772180D01*
X144825434Y-117772180D02*
X144868291Y-117815037D01*
X145296862Y-115800751D02*
X145339720Y-115843608D01*
X145339720Y-115843608D02*
X145382577Y-115972180D01*
X145382577Y-115972180D02*
X145382577Y-116057894D01*
X145382577Y-116057894D02*
X145339720Y-116186465D01*
X145339720Y-116186465D02*
X145254005Y-116272180D01*
X145254005Y-116272180D02*
X145168291Y-116315037D01*
X145168291Y-116315037D02*
X144996862Y-116357894D01*
X144996862Y-116357894D02*
X144868291Y-116357894D01*
X144868291Y-116357894D02*
X144696862Y-116315037D01*
X144696862Y-116315037D02*
X144611148Y-116272180D01*
X144611148Y-116272180D02*
X144525434Y-116186465D01*
X144525434Y-116186465D02*
X144482577Y-116057894D01*
X144482577Y-116057894D02*
X144482577Y-115972180D01*
X144482577Y-115972180D02*
X144525434Y-115843608D01*
X144525434Y-115843608D02*
X144568291Y-115800751D01*
X145382577Y-115286465D02*
X145339720Y-115372180D01*
X145339720Y-115372180D02*
X145296862Y-115415037D01*
X145296862Y-115415037D02*
X145211148Y-115457894D01*
X145211148Y-115457894D02*
X144954005Y-115457894D01*
X144954005Y-115457894D02*
X144868291Y-115415037D01*
X144868291Y-115415037D02*
X144825434Y-115372180D01*
X144825434Y-115372180D02*
X144782577Y-115286465D01*
X144782577Y-115286465D02*
X144782577Y-115157894D01*
X144782577Y-115157894D02*
X144825434Y-115072180D01*
X144825434Y-115072180D02*
X144868291Y-115029323D01*
X144868291Y-115029323D02*
X144954005Y-114986465D01*
X144954005Y-114986465D02*
X145211148Y-114986465D01*
X145211148Y-114986465D02*
X145296862Y-115029323D01*
X145296862Y-115029323D02*
X145339720Y-115072180D01*
X145339720Y-115072180D02*
X145382577Y-115157894D01*
X145382577Y-115157894D02*
X145382577Y-115286465D01*
X144782577Y-114600751D02*
X145382577Y-114600751D01*
X144868291Y-114600751D02*
X144825434Y-114557894D01*
X144825434Y-114557894D02*
X144782577Y-114472179D01*
X144782577Y-114472179D02*
X144782577Y-114343608D01*
X144782577Y-114343608D02*
X144825434Y-114257894D01*
X144825434Y-114257894D02*
X144911148Y-114215037D01*
X144911148Y-114215037D02*
X145382577Y-114215037D01*
X145382577Y-113657893D02*
X145339720Y-113743608D01*
X145339720Y-113743608D02*
X145296862Y-113786465D01*
X145296862Y-113786465D02*
X145211148Y-113829322D01*
X145211148Y-113829322D02*
X144954005Y-113829322D01*
X144954005Y-113829322D02*
X144868291Y-113786465D01*
X144868291Y-113786465D02*
X144825434Y-113743608D01*
X144825434Y-113743608D02*
X144782577Y-113657893D01*
X144782577Y-113657893D02*
X144782577Y-113529322D01*
X144782577Y-113529322D02*
X144825434Y-113443608D01*
X144825434Y-113443608D02*
X144868291Y-113400751D01*
X144868291Y-113400751D02*
X144954005Y-113357893D01*
X144954005Y-113357893D02*
X145211148Y-113357893D01*
X145211148Y-113357893D02*
X145296862Y-113400751D01*
X145296862Y-113400751D02*
X145339720Y-113443608D01*
X145339720Y-113443608D02*
X145382577Y-113529322D01*
X145382577Y-113529322D02*
X145382577Y-113657893D01*
X145382577Y-112843607D02*
X145339720Y-112929322D01*
X145339720Y-112929322D02*
X145254005Y-112972179D01*
X145254005Y-112972179D02*
X144482577Y-112972179D01*
X145382577Y-112372178D02*
X145339720Y-112457893D01*
X145339720Y-112457893D02*
X145254005Y-112500750D01*
X145254005Y-112500750D02*
X144482577Y-112500750D01*
X144782577Y-112115035D02*
X145382577Y-111900749D01*
X144782577Y-111686464D02*
X145382577Y-111900749D01*
X145382577Y-111900749D02*
X145596862Y-111986464D01*
X145596862Y-111986464D02*
X145639720Y-112029321D01*
X145639720Y-112029321D02*
X145682577Y-112115035D01*
D11*
X119064332Y-56844755D02*
X119109327Y-56889749D01*
X119109327Y-56889749D02*
X119154321Y-57024733D01*
X119154321Y-57024733D02*
X119154321Y-57114721D01*
X119154321Y-57114721D02*
X119109327Y-57249704D01*
X119109327Y-57249704D02*
X119019338Y-57339693D01*
X119019338Y-57339693D02*
X118929349Y-57384688D01*
X118929349Y-57384688D02*
X118749371Y-57429682D01*
X118749371Y-57429682D02*
X118614388Y-57429682D01*
X118614388Y-57429682D02*
X118434411Y-57384688D01*
X118434411Y-57384688D02*
X118344422Y-57339693D01*
X118344422Y-57339693D02*
X118254433Y-57249704D01*
X118254433Y-57249704D02*
X118209439Y-57114721D01*
X118209439Y-57114721D02*
X118209439Y-57024733D01*
X118209439Y-57024733D02*
X118254433Y-56889749D01*
X118254433Y-56889749D02*
X118299428Y-56844755D01*
X118884355Y-56484800D02*
X118884355Y-56034856D01*
X119154321Y-56574789D02*
X118209439Y-56259828D01*
X118209439Y-56259828D02*
X119154321Y-55944867D01*
X119154321Y-55629907D02*
X118209439Y-55629907D01*
X118209439Y-55629907D02*
X118884355Y-55314946D01*
X118884355Y-55314946D02*
X118209439Y-54999985D01*
X118209439Y-54999985D02*
X119154321Y-54999985D01*
X118659383Y-54550042D02*
X118659383Y-54235081D01*
X119154321Y-54100098D02*
X119154321Y-54550042D01*
X119154321Y-54550042D02*
X118209439Y-54550042D01*
X118209439Y-54550042D02*
X118209439Y-54100098D01*
X119154321Y-53155216D02*
X118704377Y-53470177D01*
X119154321Y-53695149D02*
X118209439Y-53695149D01*
X118209439Y-53695149D02*
X118209439Y-53335194D01*
X118209439Y-53335194D02*
X118254433Y-53245205D01*
X118254433Y-53245205D02*
X118299428Y-53200210D01*
X118299428Y-53200210D02*
X118389416Y-53155216D01*
X118389416Y-53155216D02*
X118524400Y-53155216D01*
X118524400Y-53155216D02*
X118614388Y-53200210D01*
X118614388Y-53200210D02*
X118659383Y-53245205D01*
X118659383Y-53245205D02*
X118704377Y-53335194D01*
X118704377Y-53335194D02*
X118704377Y-53695149D01*
X118884355Y-52795261D02*
X118884355Y-52345317D01*
X119154321Y-52885250D02*
X118209439Y-52570289D01*
X118209439Y-52570289D02*
X119154321Y-52255328D01*
X137084327Y-54682339D02*
X137129321Y-54547356D01*
X137129321Y-54547356D02*
X137129321Y-54322384D01*
X137129321Y-54322384D02*
X137084327Y-54232395D01*
X137084327Y-54232395D02*
X137039332Y-54187401D01*
X137039332Y-54187401D02*
X136949343Y-54142406D01*
X136949343Y-54142406D02*
X136859355Y-54142406D01*
X136859355Y-54142406D02*
X136769366Y-54187401D01*
X136769366Y-54187401D02*
X136724371Y-54232395D01*
X136724371Y-54232395D02*
X136679377Y-54322384D01*
X136679377Y-54322384D02*
X136634383Y-54502361D01*
X136634383Y-54502361D02*
X136589388Y-54592350D01*
X136589388Y-54592350D02*
X136544394Y-54637345D01*
X136544394Y-54637345D02*
X136454405Y-54682339D01*
X136454405Y-54682339D02*
X136364416Y-54682339D01*
X136364416Y-54682339D02*
X136274428Y-54637345D01*
X136274428Y-54637345D02*
X136229433Y-54592350D01*
X136229433Y-54592350D02*
X136184439Y-54502361D01*
X136184439Y-54502361D02*
X136184439Y-54277390D01*
X136184439Y-54277390D02*
X136229433Y-54142406D01*
X136859355Y-53782451D02*
X136859355Y-53332507D01*
X137129321Y-53872440D02*
X136184439Y-53557479D01*
X136184439Y-53557479D02*
X137129321Y-53242518D01*
X137129321Y-52927558D02*
X136184439Y-52927558D01*
X137129321Y-52027670D02*
X137129321Y-52477614D01*
X137129321Y-52477614D02*
X136184439Y-52477614D01*
X127184439Y-54682339D02*
X127184439Y-54142406D01*
X128129321Y-54412372D02*
X127184439Y-54412372D01*
X127859355Y-53872440D02*
X127859355Y-53422496D01*
X128129321Y-53962429D02*
X127184439Y-53647468D01*
X127184439Y-53647468D02*
X128129321Y-53332507D01*
X128129321Y-53017547D02*
X127184439Y-53017547D01*
X128129321Y-52117659D02*
X128129321Y-52567603D01*
X128129321Y-52567603D02*
X127184439Y-52567603D01*
X160473866Y-39080951D02*
X160473866Y-38319047D01*
X160854819Y-38699999D02*
X160092914Y-38699999D01*
X142454819Y-76399047D02*
X142454819Y-75827619D01*
X143454819Y-76113333D02*
X142454819Y-76113333D01*
X142931009Y-75494285D02*
X142931009Y-75160952D01*
X143454819Y-75018095D02*
X143454819Y-75494285D01*
X143454819Y-75494285D02*
X142454819Y-75494285D01*
X142454819Y-75494285D02*
X142454819Y-75018095D01*
X142931009Y-74589523D02*
X142931009Y-74256190D01*
X143454819Y-74113333D02*
X143454819Y-74589523D01*
X143454819Y-74589523D02*
X142454819Y-74589523D01*
X142454819Y-74589523D02*
X142454819Y-74113333D01*
X143454819Y-73684761D02*
X142454819Y-73684761D01*
X142454819Y-73684761D02*
X143454819Y-73113333D01*
X143454819Y-73113333D02*
X142454819Y-73113333D01*
X143407200Y-72684761D02*
X143454819Y-72541904D01*
X143454819Y-72541904D02*
X143454819Y-72303809D01*
X143454819Y-72303809D02*
X143407200Y-72208571D01*
X143407200Y-72208571D02*
X143359580Y-72160952D01*
X143359580Y-72160952D02*
X143264342Y-72113333D01*
X143264342Y-72113333D02*
X143169104Y-72113333D01*
X143169104Y-72113333D02*
X143073866Y-72160952D01*
X143073866Y-72160952D02*
X143026247Y-72208571D01*
X143026247Y-72208571D02*
X142978628Y-72303809D01*
X142978628Y-72303809D02*
X142931009Y-72494285D01*
X142931009Y-72494285D02*
X142883390Y-72589523D01*
X142883390Y-72589523D02*
X142835771Y-72637142D01*
X142835771Y-72637142D02*
X142740533Y-72684761D01*
X142740533Y-72684761D02*
X142645295Y-72684761D01*
X142645295Y-72684761D02*
X142550057Y-72637142D01*
X142550057Y-72637142D02*
X142502438Y-72589523D01*
X142502438Y-72589523D02*
X142454819Y-72494285D01*
X142454819Y-72494285D02*
X142454819Y-72256190D01*
X142454819Y-72256190D02*
X142502438Y-72113333D01*
X142978628Y-71494285D02*
X143454819Y-71494285D01*
X142454819Y-71827618D02*
X142978628Y-71494285D01*
X142978628Y-71494285D02*
X142454819Y-71160952D01*
X134609819Y-106749999D02*
X133609819Y-106749999D01*
X133609819Y-106749999D02*
X134324104Y-106416666D01*
X134324104Y-106416666D02*
X133609819Y-106083333D01*
X133609819Y-106083333D02*
X134609819Y-106083333D01*
X134324104Y-105654761D02*
X134324104Y-105178571D01*
X134609819Y-105749999D02*
X133609819Y-105416666D01*
X133609819Y-105416666D02*
X134609819Y-105083333D01*
X133609819Y-104845237D02*
X134609819Y-104178571D01*
X133609819Y-104178571D02*
X134609819Y-104845237D01*
X133609819Y-103892856D02*
X133609819Y-103273809D01*
X133609819Y-103273809D02*
X133990771Y-103607142D01*
X133990771Y-103607142D02*
X133990771Y-103464285D01*
X133990771Y-103464285D02*
X134038390Y-103369047D01*
X134038390Y-103369047D02*
X134086009Y-103321428D01*
X134086009Y-103321428D02*
X134181247Y-103273809D01*
X134181247Y-103273809D02*
X134419342Y-103273809D01*
X134419342Y-103273809D02*
X134514580Y-103321428D01*
X134514580Y-103321428D02*
X134562200Y-103369047D01*
X134562200Y-103369047D02*
X134609819Y-103464285D01*
X134609819Y-103464285D02*
X134609819Y-103749999D01*
X134609819Y-103749999D02*
X134562200Y-103845237D01*
X134562200Y-103845237D02*
X134514580Y-103892856D01*
X133609819Y-102940475D02*
X133609819Y-102321428D01*
X133609819Y-102321428D02*
X133990771Y-102654761D01*
X133990771Y-102654761D02*
X133990771Y-102511904D01*
X133990771Y-102511904D02*
X134038390Y-102416666D01*
X134038390Y-102416666D02*
X134086009Y-102369047D01*
X134086009Y-102369047D02*
X134181247Y-102321428D01*
X134181247Y-102321428D02*
X134419342Y-102321428D01*
X134419342Y-102321428D02*
X134514580Y-102369047D01*
X134514580Y-102369047D02*
X134562200Y-102416666D01*
X134562200Y-102416666D02*
X134609819Y-102511904D01*
X134609819Y-102511904D02*
X134609819Y-102797618D01*
X134609819Y-102797618D02*
X134562200Y-102892856D01*
X134562200Y-102892856D02*
X134514580Y-102940475D01*
X133705057Y-101940475D02*
X133657438Y-101892856D01*
X133657438Y-101892856D02*
X133609819Y-101797618D01*
X133609819Y-101797618D02*
X133609819Y-101559523D01*
X133609819Y-101559523D02*
X133657438Y-101464285D01*
X133657438Y-101464285D02*
X133705057Y-101416666D01*
X133705057Y-101416666D02*
X133800295Y-101369047D01*
X133800295Y-101369047D02*
X133895533Y-101369047D01*
X133895533Y-101369047D02*
X134038390Y-101416666D01*
X134038390Y-101416666D02*
X134609819Y-101988094D01*
X134609819Y-101988094D02*
X134609819Y-101369047D01*
X133609819Y-101035713D02*
X133609819Y-100416666D01*
X133609819Y-100416666D02*
X133990771Y-100749999D01*
X133990771Y-100749999D02*
X133990771Y-100607142D01*
X133990771Y-100607142D02*
X134038390Y-100511904D01*
X134038390Y-100511904D02*
X134086009Y-100464285D01*
X134086009Y-100464285D02*
X134181247Y-100416666D01*
X134181247Y-100416666D02*
X134419342Y-100416666D01*
X134419342Y-100416666D02*
X134514580Y-100464285D01*
X134514580Y-100464285D02*
X134562200Y-100511904D01*
X134562200Y-100511904D02*
X134609819Y-100607142D01*
X134609819Y-100607142D02*
X134609819Y-100892856D01*
X134609819Y-100892856D02*
X134562200Y-100988094D01*
X134562200Y-100988094D02*
X134514580Y-101035713D01*
X134086009Y-99988094D02*
X134086009Y-99654761D01*
X134609819Y-99511904D02*
X134609819Y-99988094D01*
X134609819Y-99988094D02*
X133609819Y-99988094D01*
X133609819Y-99988094D02*
X133609819Y-99511904D01*
X134086009Y-99083332D02*
X134086009Y-98749999D01*
X134609819Y-98607142D02*
X134609819Y-99083332D01*
X134609819Y-99083332D02*
X133609819Y-99083332D01*
X133609819Y-99083332D02*
X133609819Y-98607142D01*
X134609819Y-98178570D02*
X133609819Y-98178570D01*
X133609819Y-98178570D02*
X133609819Y-97797618D01*
X133609819Y-97797618D02*
X133657438Y-97702380D01*
X133657438Y-97702380D02*
X133705057Y-97654761D01*
X133705057Y-97654761D02*
X133800295Y-97607142D01*
X133800295Y-97607142D02*
X133943152Y-97607142D01*
X133943152Y-97607142D02*
X134038390Y-97654761D01*
X134038390Y-97654761D02*
X134086009Y-97702380D01*
X134086009Y-97702380D02*
X134133628Y-97797618D01*
X134133628Y-97797618D02*
X134133628Y-98178570D01*
X134086009Y-97178570D02*
X134086009Y-96845237D01*
X134609819Y-96702380D02*
X134609819Y-97178570D01*
X134609819Y-97178570D02*
X133609819Y-97178570D01*
X133609819Y-97178570D02*
X133609819Y-96702380D01*
D12*
X113208646Y-117372419D02*
X113875312Y-118372419D01*
X113875312Y-117372419D02*
X113208646Y-118372419D01*
X114589598Y-117848609D02*
X114732455Y-117896228D01*
X114732455Y-117896228D02*
X114780074Y-117943847D01*
X114780074Y-117943847D02*
X114827693Y-118039085D01*
X114827693Y-118039085D02*
X114827693Y-118181942D01*
X114827693Y-118181942D02*
X114780074Y-118277180D01*
X114780074Y-118277180D02*
X114732455Y-118324800D01*
X114732455Y-118324800D02*
X114637217Y-118372419D01*
X114637217Y-118372419D02*
X114256265Y-118372419D01*
X114256265Y-118372419D02*
X114256265Y-117372419D01*
X114256265Y-117372419D02*
X114589598Y-117372419D01*
X114589598Y-117372419D02*
X114684836Y-117420038D01*
X114684836Y-117420038D02*
X114732455Y-117467657D01*
X114732455Y-117467657D02*
X114780074Y-117562895D01*
X114780074Y-117562895D02*
X114780074Y-117658133D01*
X114780074Y-117658133D02*
X114732455Y-117753371D01*
X114732455Y-117753371D02*
X114684836Y-117800990D01*
X114684836Y-117800990D02*
X114589598Y-117848609D01*
X114589598Y-117848609D02*
X114256265Y-117848609D01*
X115637217Y-118324800D02*
X115541979Y-118372419D01*
X115541979Y-118372419D02*
X115351503Y-118372419D01*
X115351503Y-118372419D02*
X115256265Y-118324800D01*
X115256265Y-118324800D02*
X115208646Y-118229561D01*
X115208646Y-118229561D02*
X115208646Y-117848609D01*
X115208646Y-117848609D02*
X115256265Y-117753371D01*
X115256265Y-117753371D02*
X115351503Y-117705752D01*
X115351503Y-117705752D02*
X115541979Y-117705752D01*
X115541979Y-117705752D02*
X115637217Y-117753371D01*
X115637217Y-117753371D02*
X115684836Y-117848609D01*
X115684836Y-117848609D02*
X115684836Y-117943847D01*
X115684836Y-117943847D02*
X115208646Y-118039085D01*
X116494360Y-118324800D02*
X116399122Y-118372419D01*
X116399122Y-118372419D02*
X116208646Y-118372419D01*
X116208646Y-118372419D02*
X116113408Y-118324800D01*
X116113408Y-118324800D02*
X116065789Y-118229561D01*
X116065789Y-118229561D02*
X116065789Y-117848609D01*
X116065789Y-117848609D02*
X116113408Y-117753371D01*
X116113408Y-117753371D02*
X116208646Y-117705752D01*
X116208646Y-117705752D02*
X116399122Y-117705752D01*
X116399122Y-117705752D02*
X116494360Y-117753371D01*
X116494360Y-117753371D02*
X116541979Y-117848609D01*
X116541979Y-117848609D02*
X116541979Y-117943847D01*
X116541979Y-117943847D02*
X116065789Y-118039085D01*
D11*
X101954819Y-46952381D02*
X101954819Y-47428571D01*
X101954819Y-47428571D02*
X102431009Y-47476190D01*
X102431009Y-47476190D02*
X102383390Y-47428571D01*
X102383390Y-47428571D02*
X102335771Y-47333333D01*
X102335771Y-47333333D02*
X102335771Y-47095238D01*
X102335771Y-47095238D02*
X102383390Y-47000000D01*
X102383390Y-47000000D02*
X102431009Y-46952381D01*
X102431009Y-46952381D02*
X102526247Y-46904762D01*
X102526247Y-46904762D02*
X102764342Y-46904762D01*
X102764342Y-46904762D02*
X102859580Y-46952381D01*
X102859580Y-46952381D02*
X102907200Y-47000000D01*
X102907200Y-47000000D02*
X102954819Y-47095238D01*
X102954819Y-47095238D02*
X102954819Y-47333333D01*
X102954819Y-47333333D02*
X102907200Y-47428571D01*
X102907200Y-47428571D02*
X102859580Y-47476190D01*
X101954819Y-46619047D02*
X102954819Y-46285714D01*
X102954819Y-46285714D02*
X101954819Y-45952381D01*
X103050057Y-45857143D02*
X103050057Y-45095238D01*
X102907200Y-44904761D02*
X102954819Y-44761904D01*
X102954819Y-44761904D02*
X102954819Y-44523809D01*
X102954819Y-44523809D02*
X102907200Y-44428571D01*
X102907200Y-44428571D02*
X102859580Y-44380952D01*
X102859580Y-44380952D02*
X102764342Y-44333333D01*
X102764342Y-44333333D02*
X102669104Y-44333333D01*
X102669104Y-44333333D02*
X102573866Y-44380952D01*
X102573866Y-44380952D02*
X102526247Y-44428571D01*
X102526247Y-44428571D02*
X102478628Y-44523809D01*
X102478628Y-44523809D02*
X102431009Y-44714285D01*
X102431009Y-44714285D02*
X102383390Y-44809523D01*
X102383390Y-44809523D02*
X102335771Y-44857142D01*
X102335771Y-44857142D02*
X102240533Y-44904761D01*
X102240533Y-44904761D02*
X102145295Y-44904761D01*
X102145295Y-44904761D02*
X102050057Y-44857142D01*
X102050057Y-44857142D02*
X102002438Y-44809523D01*
X102002438Y-44809523D02*
X101954819Y-44714285D01*
X101954819Y-44714285D02*
X101954819Y-44476190D01*
X101954819Y-44476190D02*
X102002438Y-44333333D01*
X102478628Y-43714285D02*
X102954819Y-43714285D01*
X101954819Y-44047618D02*
X102478628Y-43714285D01*
X102478628Y-43714285D02*
X101954819Y-43380952D01*
X102907200Y-43095237D02*
X102954819Y-42952380D01*
X102954819Y-42952380D02*
X102954819Y-42714285D01*
X102954819Y-42714285D02*
X102907200Y-42619047D01*
X102907200Y-42619047D02*
X102859580Y-42571428D01*
X102859580Y-42571428D02*
X102764342Y-42523809D01*
X102764342Y-42523809D02*
X102669104Y-42523809D01*
X102669104Y-42523809D02*
X102573866Y-42571428D01*
X102573866Y-42571428D02*
X102526247Y-42619047D01*
X102526247Y-42619047D02*
X102478628Y-42714285D01*
X102478628Y-42714285D02*
X102431009Y-42904761D01*
X102431009Y-42904761D02*
X102383390Y-42999999D01*
X102383390Y-42999999D02*
X102335771Y-43047618D01*
X102335771Y-43047618D02*
X102240533Y-43095237D01*
X102240533Y-43095237D02*
X102145295Y-43095237D01*
X102145295Y-43095237D02*
X102050057Y-43047618D01*
X102050057Y-43047618D02*
X102002438Y-42999999D01*
X102002438Y-42999999D02*
X101954819Y-42904761D01*
X101954819Y-42904761D02*
X101954819Y-42666666D01*
X101954819Y-42666666D02*
X102002438Y-42523809D01*
X102659355Y-83409448D02*
X102659355Y-82959504D01*
X102929321Y-83499437D02*
X101984439Y-83184476D01*
X101984439Y-83184476D02*
X102929321Y-82869515D01*
X102929321Y-82554555D02*
X101984439Y-82554555D01*
X101984439Y-82554555D02*
X102929321Y-82014622D01*
X102929321Y-82014622D02*
X101984439Y-82014622D01*
X102434383Y-81564679D02*
X102434383Y-81249718D01*
X102929321Y-81114735D02*
X102929321Y-81564679D01*
X102929321Y-81564679D02*
X101984439Y-81564679D01*
X101984439Y-81564679D02*
X101984439Y-81114735D01*
X102929321Y-80709786D02*
X101984439Y-80709786D01*
X101984439Y-80709786D02*
X102659355Y-80394825D01*
X102659355Y-80394825D02*
X101984439Y-80079864D01*
X101984439Y-80079864D02*
X102929321Y-80079864D01*
X101984439Y-79449943D02*
X101984439Y-79269966D01*
X101984439Y-79269966D02*
X102029433Y-79179977D01*
X102029433Y-79179977D02*
X102119422Y-79089988D01*
X102119422Y-79089988D02*
X102299400Y-79044994D01*
X102299400Y-79044994D02*
X102614360Y-79044994D01*
X102614360Y-79044994D02*
X102794338Y-79089988D01*
X102794338Y-79089988D02*
X102884327Y-79179977D01*
X102884327Y-79179977D02*
X102929321Y-79269966D01*
X102929321Y-79269966D02*
X102929321Y-79449943D01*
X102929321Y-79449943D02*
X102884327Y-79539932D01*
X102884327Y-79539932D02*
X102794338Y-79629921D01*
X102794338Y-79629921D02*
X102614360Y-79674915D01*
X102614360Y-79674915D02*
X102299400Y-79674915D01*
X102299400Y-79674915D02*
X102119422Y-79629921D01*
X102119422Y-79629921D02*
X102029433Y-79539932D01*
X102029433Y-79539932D02*
X101984439Y-79449943D01*
X102929321Y-78640045D02*
X101984439Y-78640045D01*
X101984439Y-78640045D02*
X102659355Y-78325084D01*
X102659355Y-78325084D02*
X101984439Y-78010123D01*
X101984439Y-78010123D02*
X102929321Y-78010123D01*
X102434383Y-77560180D02*
X102434383Y-77245219D01*
X102929321Y-77110236D02*
X102929321Y-77560180D01*
X102929321Y-77560180D02*
X101984439Y-77560180D01*
X101984439Y-77560180D02*
X101984439Y-77110236D01*
X101984439Y-76840270D02*
X101984439Y-76300337D01*
X102929321Y-76570303D02*
X101984439Y-76570303D01*
X102434383Y-75985377D02*
X102434383Y-75670416D01*
X102929321Y-75535433D02*
X102929321Y-75985377D01*
X102929321Y-75985377D02*
X101984439Y-75985377D01*
X101984439Y-75985377D02*
X101984439Y-75535433D01*
X102929321Y-74590551D02*
X102479377Y-74905512D01*
X102929321Y-75130484D02*
X101984439Y-75130484D01*
X101984439Y-75130484D02*
X101984439Y-74770529D01*
X101984439Y-74770529D02*
X102029433Y-74680540D01*
X102029433Y-74680540D02*
X102074428Y-74635545D01*
X102074428Y-74635545D02*
X102164416Y-74590551D01*
X102164416Y-74590551D02*
X102299400Y-74590551D01*
X102299400Y-74590551D02*
X102389388Y-74635545D01*
X102389388Y-74635545D02*
X102434383Y-74680540D01*
X102434383Y-74680540D02*
X102479377Y-74770529D01*
X102479377Y-74770529D02*
X102479377Y-75130484D01*
X147754819Y-59738094D02*
X147754819Y-59119047D01*
X147754819Y-59119047D02*
X148135771Y-59452380D01*
X148135771Y-59452380D02*
X148135771Y-59309523D01*
X148135771Y-59309523D02*
X148183390Y-59214285D01*
X148183390Y-59214285D02*
X148231009Y-59166666D01*
X148231009Y-59166666D02*
X148326247Y-59119047D01*
X148326247Y-59119047D02*
X148564342Y-59119047D01*
X148564342Y-59119047D02*
X148659580Y-59166666D01*
X148659580Y-59166666D02*
X148707200Y-59214285D01*
X148707200Y-59214285D02*
X148754819Y-59309523D01*
X148754819Y-59309523D02*
X148754819Y-59595237D01*
X148754819Y-59595237D02*
X148707200Y-59690475D01*
X148707200Y-59690475D02*
X148659580Y-59738094D01*
X148659580Y-58690475D02*
X148707200Y-58642856D01*
X148707200Y-58642856D02*
X148754819Y-58690475D01*
X148754819Y-58690475D02*
X148707200Y-58738094D01*
X148707200Y-58738094D02*
X148659580Y-58690475D01*
X148659580Y-58690475D02*
X148754819Y-58690475D01*
X147754819Y-58309523D02*
X147754819Y-57690476D01*
X147754819Y-57690476D02*
X148135771Y-58023809D01*
X148135771Y-58023809D02*
X148135771Y-57880952D01*
X148135771Y-57880952D02*
X148183390Y-57785714D01*
X148183390Y-57785714D02*
X148231009Y-57738095D01*
X148231009Y-57738095D02*
X148326247Y-57690476D01*
X148326247Y-57690476D02*
X148564342Y-57690476D01*
X148564342Y-57690476D02*
X148659580Y-57738095D01*
X148659580Y-57738095D02*
X148707200Y-57785714D01*
X148707200Y-57785714D02*
X148754819Y-57880952D01*
X148754819Y-57880952D02*
X148754819Y-58166666D01*
X148754819Y-58166666D02*
X148707200Y-58261904D01*
X148707200Y-58261904D02*
X148659580Y-58309523D01*
X147754819Y-57404761D02*
X148754819Y-57071428D01*
X148754819Y-57071428D02*
X147754819Y-56738095D01*
X148850057Y-56642857D02*
X148850057Y-55880952D01*
X148707200Y-55690475D02*
X148754819Y-55547618D01*
X148754819Y-55547618D02*
X148754819Y-55309523D01*
X148754819Y-55309523D02*
X148707200Y-55214285D01*
X148707200Y-55214285D02*
X148659580Y-55166666D01*
X148659580Y-55166666D02*
X148564342Y-55119047D01*
X148564342Y-55119047D02*
X148469104Y-55119047D01*
X148469104Y-55119047D02*
X148373866Y-55166666D01*
X148373866Y-55166666D02*
X148326247Y-55214285D01*
X148326247Y-55214285D02*
X148278628Y-55309523D01*
X148278628Y-55309523D02*
X148231009Y-55499999D01*
X148231009Y-55499999D02*
X148183390Y-55595237D01*
X148183390Y-55595237D02*
X148135771Y-55642856D01*
X148135771Y-55642856D02*
X148040533Y-55690475D01*
X148040533Y-55690475D02*
X147945295Y-55690475D01*
X147945295Y-55690475D02*
X147850057Y-55642856D01*
X147850057Y-55642856D02*
X147802438Y-55595237D01*
X147802438Y-55595237D02*
X147754819Y-55499999D01*
X147754819Y-55499999D02*
X147754819Y-55261904D01*
X147754819Y-55261904D02*
X147802438Y-55119047D01*
X148278628Y-54499999D02*
X148754819Y-54499999D01*
X147754819Y-54833332D02*
X148278628Y-54499999D01*
X148278628Y-54499999D02*
X147754819Y-54166666D01*
X148707200Y-53880951D02*
X148754819Y-53738094D01*
X148754819Y-53738094D02*
X148754819Y-53499999D01*
X148754819Y-53499999D02*
X148707200Y-53404761D01*
X148707200Y-53404761D02*
X148659580Y-53357142D01*
X148659580Y-53357142D02*
X148564342Y-53309523D01*
X148564342Y-53309523D02*
X148469104Y-53309523D01*
X148469104Y-53309523D02*
X148373866Y-53357142D01*
X148373866Y-53357142D02*
X148326247Y-53404761D01*
X148326247Y-53404761D02*
X148278628Y-53499999D01*
X148278628Y-53499999D02*
X148231009Y-53690475D01*
X148231009Y-53690475D02*
X148183390Y-53785713D01*
X148183390Y-53785713D02*
X148135771Y-53833332D01*
X148135771Y-53833332D02*
X148040533Y-53880951D01*
X148040533Y-53880951D02*
X147945295Y-53880951D01*
X147945295Y-53880951D02*
X147850057Y-53833332D01*
X147850057Y-53833332D02*
X147802438Y-53785713D01*
X147802438Y-53785713D02*
X147754819Y-53690475D01*
X147754819Y-53690475D02*
X147754819Y-53452380D01*
X147754819Y-53452380D02*
X147802438Y-53309523D01*
X101884439Y-72719516D02*
X101884439Y-72134589D01*
X101884439Y-72134589D02*
X102244394Y-72449550D01*
X102244394Y-72449550D02*
X102244394Y-72314567D01*
X102244394Y-72314567D02*
X102289388Y-72224578D01*
X102289388Y-72224578D02*
X102334383Y-72179584D01*
X102334383Y-72179584D02*
X102424371Y-72134589D01*
X102424371Y-72134589D02*
X102649343Y-72134589D01*
X102649343Y-72134589D02*
X102739332Y-72179584D01*
X102739332Y-72179584D02*
X102784327Y-72224578D01*
X102784327Y-72224578D02*
X102829321Y-72314567D01*
X102829321Y-72314567D02*
X102829321Y-72584533D01*
X102829321Y-72584533D02*
X102784327Y-72674522D01*
X102784327Y-72674522D02*
X102739332Y-72719516D01*
X102739332Y-71729640D02*
X102784327Y-71684645D01*
X102784327Y-71684645D02*
X102829321Y-71729640D01*
X102829321Y-71729640D02*
X102784327Y-71774634D01*
X102784327Y-71774634D02*
X102739332Y-71729640D01*
X102739332Y-71729640D02*
X102829321Y-71729640D01*
X101884439Y-71369684D02*
X101884439Y-70784757D01*
X101884439Y-70784757D02*
X102244394Y-71099718D01*
X102244394Y-71099718D02*
X102244394Y-70964735D01*
X102244394Y-70964735D02*
X102289388Y-70874746D01*
X102289388Y-70874746D02*
X102334383Y-70829752D01*
X102334383Y-70829752D02*
X102424371Y-70784757D01*
X102424371Y-70784757D02*
X102649343Y-70784757D01*
X102649343Y-70784757D02*
X102739332Y-70829752D01*
X102739332Y-70829752D02*
X102784327Y-70874746D01*
X102784327Y-70874746D02*
X102829321Y-70964735D01*
X102829321Y-70964735D02*
X102829321Y-71234701D01*
X102829321Y-71234701D02*
X102784327Y-71324690D01*
X102784327Y-71324690D02*
X102739332Y-71369684D01*
X101884439Y-70514791D02*
X102829321Y-70199830D01*
X102829321Y-70199830D02*
X101884439Y-69884869D01*
X102919310Y-69794881D02*
X102919310Y-69074970D01*
X102334383Y-68849999D02*
X102334383Y-68535038D01*
X102829321Y-68400055D02*
X102829321Y-68849999D01*
X102829321Y-68849999D02*
X101884439Y-68849999D01*
X101884439Y-68849999D02*
X101884439Y-68400055D01*
X101884439Y-68085094D02*
X102829321Y-67455173D01*
X101884439Y-67455173D02*
X102829321Y-68085094D01*
X101884439Y-67230201D02*
X101884439Y-66690268D01*
X102829321Y-66960234D02*
X101884439Y-66960234D01*
X102829321Y-65835375D02*
X102379377Y-66150336D01*
X102829321Y-66375308D02*
X101884439Y-66375308D01*
X101884439Y-66375308D02*
X101884439Y-66015353D01*
X101884439Y-66015353D02*
X101929433Y-65925364D01*
X101929433Y-65925364D02*
X101974428Y-65880369D01*
X101974428Y-65880369D02*
X102064416Y-65835375D01*
X102064416Y-65835375D02*
X102199400Y-65835375D01*
X102199400Y-65835375D02*
X102289388Y-65880369D01*
X102289388Y-65880369D02*
X102334383Y-65925364D01*
X102334383Y-65925364D02*
X102379377Y-66015353D01*
X102379377Y-66015353D02*
X102379377Y-66375308D01*
X102559355Y-65475420D02*
X102559355Y-65025476D01*
X102829321Y-65565409D02*
X101884439Y-65250448D01*
X101884439Y-65250448D02*
X102829321Y-64935487D01*
X108184439Y-58054668D02*
X108184439Y-58504612D01*
X108184439Y-58504612D02*
X108634383Y-58549606D01*
X108634383Y-58549606D02*
X108589388Y-58504612D01*
X108589388Y-58504612D02*
X108544394Y-58414623D01*
X108544394Y-58414623D02*
X108544394Y-58189651D01*
X108544394Y-58189651D02*
X108589388Y-58099662D01*
X108589388Y-58099662D02*
X108634383Y-58054668D01*
X108634383Y-58054668D02*
X108724371Y-58009673D01*
X108724371Y-58009673D02*
X108949343Y-58009673D01*
X108949343Y-58009673D02*
X109039332Y-58054668D01*
X109039332Y-58054668D02*
X109084327Y-58099662D01*
X109084327Y-58099662D02*
X109129321Y-58189651D01*
X109129321Y-58189651D02*
X109129321Y-58414623D01*
X109129321Y-58414623D02*
X109084327Y-58504612D01*
X109084327Y-58504612D02*
X109039332Y-58549606D01*
X108184439Y-57739707D02*
X109129321Y-57424746D01*
X109129321Y-57424746D02*
X108184439Y-57109785D01*
X109219310Y-57019797D02*
X109219310Y-56299886D01*
X108634383Y-56074915D02*
X108634383Y-55759954D01*
X109129321Y-55624971D02*
X109129321Y-56074915D01*
X109129321Y-56074915D02*
X108184439Y-56074915D01*
X108184439Y-56074915D02*
X108184439Y-55624971D01*
X108184439Y-55310010D02*
X109129321Y-54680089D01*
X108184439Y-54680089D02*
X109129321Y-55310010D01*
X108184439Y-54455117D02*
X108184439Y-53915184D01*
X109129321Y-54185150D02*
X108184439Y-54185150D01*
X109129321Y-53060291D02*
X108679377Y-53375252D01*
X109129321Y-53600224D02*
X108184439Y-53600224D01*
X108184439Y-53600224D02*
X108184439Y-53240269D01*
X108184439Y-53240269D02*
X108229433Y-53150280D01*
X108229433Y-53150280D02*
X108274428Y-53105285D01*
X108274428Y-53105285D02*
X108364416Y-53060291D01*
X108364416Y-53060291D02*
X108499400Y-53060291D01*
X108499400Y-53060291D02*
X108589388Y-53105285D01*
X108589388Y-53105285D02*
X108634383Y-53150280D01*
X108634383Y-53150280D02*
X108679377Y-53240269D01*
X108679377Y-53240269D02*
X108679377Y-53600224D01*
X108859355Y-52700336D02*
X108859355Y-52250392D01*
X109129321Y-52790325D02*
X108184439Y-52475364D01*
X108184439Y-52475364D02*
X109129321Y-52160403D01*
D13*
%TO.C,5V_BULK2*%
X133150000Y-47100000D02*
G75*
G02*
X132950000Y-47100000I-100000J0D01*
G01*
X132950000Y-47100000D02*
G75*
G02*
X133150000Y-47100000I100000J0D01*
G01*
D14*
X131900000Y-48350000D02*
X131900000Y-46320000D01*
X131900000Y-43680000D02*
X131900000Y-41650000D01*
X131900000Y-41650000D02*
X130100000Y-39850000D01*
X130100000Y-50150000D02*
X131900000Y-48350000D01*
X130100000Y-39850000D02*
X121600000Y-39850000D01*
X121600000Y-50150000D02*
X130100000Y-50150000D01*
X121600000Y-46320000D02*
X121600000Y-50150000D01*
X121600000Y-39850000D02*
X121600000Y-43680000D01*
D15*
%TO.C,VectorNavInput1*%
X146875662Y-103615000D02*
X147308675Y-103865000D01*
X146875662Y-104115000D02*
X146875662Y-103615000D01*
X147308675Y-103865000D02*
X146875662Y-104115000D01*
X147770000Y-123830000D02*
X147770000Y-94980000D01*
X148830000Y-93920000D02*
X159330000Y-93920000D01*
X150070000Y-115636689D02*
X150070000Y-103173311D01*
X152018256Y-101538530D02*
X156718256Y-102367267D01*
X156718256Y-116442733D02*
X152018256Y-117271470D01*
X158090000Y-104002048D02*
X158090000Y-114807952D01*
X159330000Y-124890000D02*
X148830000Y-124890000D01*
X160390000Y-94980000D02*
X160390000Y-123830000D01*
X147770000Y-94980000D02*
G75*
G02*
X148830000Y-93920000I1060000J0D01*
G01*
X148830000Y-124890000D02*
G75*
G02*
X147770000Y-123830000I1J1060001D01*
G01*
X150070000Y-103173311D02*
G75*
G02*
X152018256Y-101538529I1660000J1D01*
G01*
X152018256Y-117271470D02*
G75*
G02*
X150070000Y-115636689I-288256J1634781D01*
G01*
X156718256Y-102367267D02*
G75*
G02*
X158090000Y-104002048I-288255J-1634780D01*
G01*
X158090000Y-114807952D02*
G75*
G02*
X156718256Y-116442733I-1659999J-1D01*
G01*
X159330000Y-93920000D02*
G75*
G02*
X160390000Y-94980000I0J-1060000D01*
G01*
X160390000Y-123830000D02*
G75*
G02*
X159330000Y-124890000I-1060001J1D01*
G01*
D14*
%TO.C,CAMERA*%
X119925000Y-51912500D02*
X125675000Y-51912500D01*
X119925000Y-61812500D02*
X119925000Y-51912500D01*
X125675000Y-51912500D02*
X125675000Y-61812500D01*
X125675000Y-61812500D02*
X119925000Y-61812500D01*
D13*
X122375000Y-62612500D02*
G75*
G02*
X122175000Y-62612500I-100000J0D01*
G01*
X122175000Y-62612500D02*
G75*
G02*
X122375000Y-62612500I100000J0D01*
G01*
D14*
%TO.C,5V_BULK1*%
X136600000Y-39850000D02*
X136600000Y-43680000D01*
X136600000Y-46320000D02*
X136600000Y-50150000D01*
X136600000Y-50150000D02*
X145100000Y-50150000D01*
X145100000Y-39850000D02*
X136600000Y-39850000D01*
X145100000Y-50150000D02*
X146900000Y-48350000D01*
X146900000Y-41650000D02*
X145100000Y-39850000D01*
X146900000Y-43680000D02*
X146900000Y-41650000D01*
X146900000Y-48350000D02*
X146900000Y-46320000D01*
D13*
X148150000Y-47100000D02*
G75*
G02*
X147950000Y-47100000I-100000J0D01*
G01*
X147950000Y-47100000D02*
G75*
G02*
X148150000Y-47100000I100000J0D01*
G01*
D14*
%TO.C,SAIL*%
X138025000Y-51787500D02*
X143775000Y-51787500D01*
X138025000Y-61687500D02*
X138025000Y-51787500D01*
X143775000Y-51787500D02*
X143775000Y-61687500D01*
X143775000Y-61687500D02*
X138025000Y-61687500D01*
D13*
X140475000Y-62487500D02*
G75*
G02*
X140275000Y-62487500I-100000J0D01*
G01*
X140275000Y-62487500D02*
G75*
G02*
X140475000Y-62487500I100000J0D01*
G01*
D14*
%TO.C,5V_MID1*%
X103950000Y-54920000D02*
X103950000Y-54080000D01*
X106450000Y-54920000D02*
X106450000Y-54080000D01*
D16*
%TO.C,G\u002A\u002A\u002A*%
G36*
X142778672Y-125353033D02*
G01*
X142914895Y-125367611D01*
X143004809Y-125384924D01*
X143060418Y-125415760D01*
X143093723Y-125470903D01*
X143116728Y-125561139D01*
X143137507Y-125675484D01*
X143160495Y-125800253D01*
X143181286Y-125907028D01*
X143196672Y-125979596D01*
X143201104Y-125997197D01*
X143200340Y-126020520D01*
X143171381Y-126016741D01*
X143105918Y-125983482D01*
X143059673Y-125956691D01*
X142744347Y-125802266D01*
X142382867Y-125684167D01*
X141975125Y-125602358D01*
X141946465Y-125598218D01*
X141916122Y-125589315D01*
X141922188Y-125572331D01*
X141970556Y-125542119D01*
X142065282Y-125494422D01*
X142320200Y-125397407D01*
X142575915Y-125351237D01*
X142778672Y-125353033D01*
G37*
G36*
X142476434Y-122374624D02*
G01*
X142623390Y-122393620D01*
X142736230Y-122423471D01*
X142966044Y-122539869D01*
X143192121Y-122711045D01*
X143411425Y-122932917D01*
X143620922Y-123201404D01*
X143817575Y-123512422D01*
X143998350Y-123861891D01*
X144160212Y-124245727D01*
X144225166Y-124425935D01*
X144345692Y-124817610D01*
X144431775Y-125186258D01*
X144482566Y-125526275D01*
X144497211Y-125832057D01*
X144477145Y-126083988D01*
X144453655Y-126209565D01*
X144424003Y-126338512D01*
X144409223Y-126393026D01*
X144367875Y-126533836D01*
X144347560Y-126283662D01*
X144330333Y-126110786D01*
X144308390Y-125948970D01*
X144283934Y-125811173D01*
X144259166Y-125710356D01*
X144243244Y-125669492D01*
X144220023Y-125671162D01*
X144178278Y-125727797D01*
X144117766Y-125839737D01*
X144107310Y-125860801D01*
X144010542Y-126031255D01*
X143891015Y-126187878D01*
X143780723Y-126305736D01*
X143689714Y-126394870D01*
X143613196Y-126465734D01*
X143561017Y-126509442D01*
X143544307Y-126519120D01*
X143534873Y-126491301D01*
X143515436Y-126412104D01*
X143487295Y-126287923D01*
X143451751Y-126125149D01*
X143410103Y-125930173D01*
X143363651Y-125709389D01*
X143313694Y-125469188D01*
X143261533Y-125215961D01*
X143208468Y-124956102D01*
X143155797Y-124696002D01*
X143104821Y-124442052D01*
X143056839Y-124200646D01*
X143013151Y-123978175D01*
X142975058Y-123781031D01*
X142943859Y-123615606D01*
X142920853Y-123488292D01*
X142907340Y-123405481D01*
X142904620Y-123373566D01*
X142904671Y-123373504D01*
X142930722Y-123385150D01*
X142988576Y-123426376D01*
X143063711Y-123486615D01*
X143151195Y-123554910D01*
X143198651Y-123580473D01*
X143205447Y-123563807D01*
X143170956Y-123505413D01*
X143122038Y-123440142D01*
X142963919Y-123277877D01*
X142779277Y-123153217D01*
X142582003Y-123074616D01*
X142491556Y-123056353D01*
X142374828Y-123052996D01*
X142285610Y-123081952D01*
X142221581Y-123147784D01*
X142180423Y-123255055D01*
X142159816Y-123408332D01*
X142157439Y-123612176D01*
X142160973Y-123706791D01*
X142169035Y-123849145D01*
X142178420Y-123972701D01*
X142187949Y-124064004D01*
X142196247Y-124109113D01*
X142234523Y-124143150D01*
X142316548Y-124180419D01*
X142400271Y-124206943D01*
X142586615Y-124264925D01*
X142735581Y-124326824D01*
X142840726Y-124389327D01*
X142895604Y-124449120D01*
X142900973Y-124464397D01*
X142933542Y-124620531D01*
X142964004Y-124776512D01*
X142990467Y-124921443D01*
X143011042Y-125044429D01*
X143023840Y-125134572D01*
X143026969Y-125180977D01*
X143025892Y-125184613D01*
X142992425Y-125183892D01*
X142922334Y-125166470D01*
X142869012Y-125149257D01*
X142734581Y-125116170D01*
X142563695Y-125093578D01*
X142378023Y-125082662D01*
X142199231Y-125084600D01*
X142048989Y-125100575D01*
X142032849Y-125103710D01*
X141883573Y-125146382D01*
X141715430Y-125212505D01*
X141552358Y-125291376D01*
X141418296Y-125372295D01*
X141396575Y-125388161D01*
X141315923Y-125442652D01*
X141268283Y-125451526D01*
X141245486Y-125411228D01*
X141239372Y-125319757D01*
X141212834Y-125075715D01*
X141133805Y-124829416D01*
X141103924Y-124762729D01*
X141063048Y-124671889D01*
X141046692Y-124614891D01*
X141052545Y-124573183D01*
X141075294Y-124532772D01*
X141205320Y-124384439D01*
X141376675Y-124264505D01*
X141575413Y-124181135D01*
X141733184Y-124147621D01*
X141824657Y-124133000D01*
X141868405Y-124115295D01*
X141875526Y-124089125D01*
X141872640Y-124079993D01*
X141833366Y-123958752D01*
X141792303Y-123799621D01*
X141754092Y-123623220D01*
X141723375Y-123450171D01*
X141711269Y-123363163D01*
X141696809Y-123138487D01*
X141708363Y-122933079D01*
X141744606Y-122760260D01*
X141779927Y-122673328D01*
X141857794Y-122563315D01*
X141962205Y-122465700D01*
X142070351Y-122401682D01*
X142073468Y-122400482D01*
X142179849Y-122377306D01*
X142321379Y-122368936D01*
X142476434Y-122374624D01*
G37*
D14*
%TO.C,TAIL*%
X129025000Y-51987500D02*
X134775000Y-51987500D01*
X129025000Y-61887500D02*
X129025000Y-51987500D01*
X134775000Y-51987500D02*
X134775000Y-61887500D01*
X134775000Y-61887500D02*
X129025000Y-61887500D01*
D13*
X131475000Y-62687500D02*
G75*
G02*
X131275000Y-62687500I-100000J0D01*
G01*
X131275000Y-62687500D02*
G75*
G02*
X131475000Y-62687500I100000J0D01*
G01*
D16*
%TO.C,G\u002A\u002A\u002A*%
G36*
X118410861Y-76554034D02*
G01*
X118445972Y-76562477D01*
X118479435Y-76577886D01*
X118508956Y-76599236D01*
X118529703Y-76621924D01*
X118547596Y-76653011D01*
X118559594Y-76688172D01*
X118565209Y-76724773D01*
X118563954Y-76760175D01*
X118559168Y-76781471D01*
X118542547Y-76820545D01*
X118519447Y-76852816D01*
X118489448Y-76878769D01*
X118461540Y-76894679D01*
X118443427Y-76902543D01*
X118427922Y-76906986D01*
X118410725Y-76908921D01*
X118392815Y-76909277D01*
X118371262Y-76908706D01*
X118354876Y-76906384D01*
X118339383Y-76901395D01*
X118324089Y-76894547D01*
X118288463Y-76872537D01*
X118259518Y-76843813D01*
X118237380Y-76808497D01*
X118236919Y-76807539D01*
X118229806Y-76791705D01*
X118225427Y-76778348D01*
X118223133Y-76764135D01*
X118222278Y-76745733D01*
X118222186Y-76731704D01*
X118222500Y-76709307D01*
X118223882Y-76693011D01*
X118226988Y-76679446D01*
X118232477Y-76665242D01*
X118237138Y-76655117D01*
X118258166Y-76621155D01*
X118285754Y-76592883D01*
X118318490Y-76571331D01*
X118354962Y-76557529D01*
X118376398Y-76553580D01*
X118410861Y-76554034D01*
G37*
G36*
X118573585Y-75559146D02*
G01*
X118646898Y-75572336D01*
X118717559Y-75594489D01*
X118768252Y-75616626D01*
X118831584Y-75652564D01*
X118889694Y-75695384D01*
X118941857Y-75744285D01*
X118987350Y-75798465D01*
X119025449Y-75857124D01*
X119055430Y-75919461D01*
X119064875Y-75944915D01*
X119075864Y-75979456D01*
X119083862Y-76010787D01*
X119089302Y-76041705D01*
X119092619Y-76075006D01*
X119094247Y-76113487D01*
X119094568Y-76136346D01*
X119095145Y-76216395D01*
X119124648Y-76237564D01*
X119154150Y-76258733D01*
X119183635Y-76244218D01*
X119256193Y-76211998D01*
X119336072Y-76182904D01*
X119421494Y-76157407D01*
X119510681Y-76135978D01*
X119601852Y-76119088D01*
X119693231Y-76107208D01*
X119705709Y-76105993D01*
X119796070Y-76101073D01*
X119890527Y-76102488D01*
X119987274Y-76109942D01*
X120084504Y-76123140D01*
X120180410Y-76141787D01*
X120273184Y-76165589D01*
X120361020Y-76194249D01*
X120437987Y-76225591D01*
X120522277Y-76265957D01*
X120599567Y-76307647D01*
X120672335Y-76352117D01*
X120743059Y-76400825D01*
X120769770Y-76420639D01*
X120796620Y-76441681D01*
X120816910Y-76459706D01*
X120832209Y-76476573D01*
X120844085Y-76494140D01*
X120854109Y-76514266D01*
X120859186Y-76526553D01*
X120864844Y-76540786D01*
X120872820Y-76560668D01*
X120881856Y-76583071D01*
X120887345Y-76596623D01*
X120943314Y-76746713D01*
X120989955Y-76898244D01*
X121027357Y-77051539D01*
X121055604Y-77206917D01*
X121060572Y-77241221D01*
X121064648Y-77271411D01*
X121068460Y-77300971D01*
X121071719Y-77327556D01*
X121074137Y-77348825D01*
X121075209Y-77359713D01*
X121076889Y-77379081D01*
X121079079Y-77403979D01*
X121081435Y-77430495D01*
X121082737Y-77445027D01*
X121084653Y-77471971D01*
X121086302Y-77506028D01*
X121087631Y-77544832D01*
X121088586Y-77586019D01*
X121089113Y-77627226D01*
X121089159Y-77666086D01*
X121088671Y-77700236D01*
X121088589Y-77703340D01*
X121079907Y-77861071D01*
X121062685Y-78017495D01*
X121037093Y-78171972D01*
X121003300Y-78323863D01*
X120961476Y-78472529D01*
X120911790Y-78617331D01*
X120854413Y-78757628D01*
X120789512Y-78892783D01*
X120757041Y-78953299D01*
X120747297Y-78968610D01*
X120735050Y-78983317D01*
X120719411Y-78998054D01*
X120699495Y-79013455D01*
X120674415Y-79030156D01*
X120643282Y-79048790D01*
X120605212Y-79069993D01*
X120561223Y-79093400D01*
X120458499Y-79143399D01*
X120355595Y-79185660D01*
X120251449Y-79220433D01*
X120144994Y-79247967D01*
X120035167Y-79268512D01*
X119920903Y-79282317D01*
X119801137Y-79289631D01*
X119717578Y-79291025D01*
X119717558Y-79291025D01*
X119593240Y-79287696D01*
X119474936Y-79277496D01*
X119361924Y-79260221D01*
X119253479Y-79235666D01*
X119148880Y-79203629D01*
X119047401Y-79163904D01*
X118948321Y-79116290D01*
X118850916Y-79060581D01*
X118812278Y-79035996D01*
X118782175Y-79015538D01*
X118750607Y-78992752D01*
X118718906Y-78968723D01*
X118688407Y-78944534D01*
X118660444Y-78921266D01*
X118636350Y-78900004D01*
X118617460Y-78881830D01*
X118605108Y-78867827D01*
X118605031Y-78867724D01*
X118594821Y-78850753D01*
X118588671Y-78832009D01*
X118586743Y-78810653D01*
X118589202Y-78785846D01*
X118596213Y-78756748D01*
X118607939Y-78722520D01*
X118624544Y-78682321D01*
X118646193Y-78635313D01*
X118653348Y-78620470D01*
X118697340Y-78539041D01*
X118748963Y-78459372D01*
X118807112Y-78382699D01*
X118870688Y-78310258D01*
X118938587Y-78243286D01*
X119009707Y-78183019D01*
X119082946Y-78130694D01*
X119099084Y-78120463D01*
X119113410Y-78111182D01*
X119121108Y-78104488D01*
X119123814Y-78098319D01*
X119123161Y-78090613D01*
X119123076Y-78090184D01*
X119120622Y-78074182D01*
X119117919Y-78050106D01*
X119115055Y-78019354D01*
X119112120Y-77983325D01*
X119109203Y-77943418D01*
X119106392Y-77901031D01*
X119103776Y-77857564D01*
X119101445Y-77814416D01*
X119099488Y-77772984D01*
X119097992Y-77734669D01*
X119097048Y-77700868D01*
X119096744Y-77676087D01*
X119096131Y-77650844D01*
X119094354Y-77634764D01*
X119091344Y-77627595D01*
X119087035Y-77629083D01*
X119085047Y-77631861D01*
X119077965Y-77638255D01*
X119063602Y-77647443D01*
X119043477Y-77658690D01*
X119019106Y-77671261D01*
X118992007Y-77684419D01*
X118963697Y-77697430D01*
X118935694Y-77709557D01*
X118909514Y-77720064D01*
X118886676Y-77728217D01*
X118885546Y-77728583D01*
X118796135Y-77752573D01*
X118705779Y-77767464D01*
X118615177Y-77773227D01*
X118525027Y-77769837D01*
X118436030Y-77757266D01*
X118392815Y-77747687D01*
X118308528Y-77722123D01*
X118227427Y-77688445D01*
X118150284Y-77647212D01*
X118077871Y-77598984D01*
X118010963Y-77544321D01*
X117950330Y-77483781D01*
X117896746Y-77417925D01*
X117859182Y-77361301D01*
X117816652Y-77283031D01*
X117783280Y-77204714D01*
X117758788Y-77125367D01*
X117742901Y-77044002D01*
X117735342Y-76959636D01*
X117734597Y-76916552D01*
X117734896Y-76908948D01*
X117930772Y-76908948D01*
X117933501Y-76982667D01*
X117944791Y-77055852D01*
X117964700Y-77127757D01*
X117993285Y-77197640D01*
X118030600Y-77264756D01*
X118032720Y-77268064D01*
X118078612Y-77330632D01*
X118131082Y-77386860D01*
X118189386Y-77436426D01*
X118252781Y-77479008D01*
X118320522Y-77514285D01*
X118391864Y-77541937D01*
X118466064Y-77561641D01*
X118542377Y-77573076D01*
X118620059Y-77575922D01*
X118698366Y-77569856D01*
X118722937Y-77566066D01*
X118799942Y-77548488D01*
X118872498Y-77523020D01*
X118941180Y-77489353D01*
X119006563Y-77447179D01*
X119069223Y-77396193D01*
X119105860Y-77361130D01*
X119127941Y-77339455D01*
X119147857Y-77321201D01*
X119164331Y-77307478D01*
X119176084Y-77299394D01*
X119178266Y-77298329D01*
X119205599Y-77291699D01*
X119232838Y-77293673D01*
X119258362Y-77303500D01*
X119280551Y-77320427D01*
X119297784Y-77343703D01*
X119303662Y-77356493D01*
X119306167Y-77363732D01*
X119307898Y-77371253D01*
X119308846Y-77380448D01*
X119309005Y-77392710D01*
X119308367Y-77409432D01*
X119306925Y-77432005D01*
X119304671Y-77461823D01*
X119302992Y-77482950D01*
X119298861Y-77549526D01*
X119296497Y-77622217D01*
X119295856Y-77698589D01*
X119296897Y-77776204D01*
X119299578Y-77852627D01*
X119303857Y-77925422D01*
X119309692Y-77992152D01*
X119312115Y-78013790D01*
X119315930Y-78045803D01*
X119319529Y-78076091D01*
X119322700Y-78102878D01*
X119325234Y-78124388D01*
X119326921Y-78138846D01*
X119327255Y-78141762D01*
X119327481Y-78170030D01*
X119320860Y-78194877D01*
X119306772Y-78217227D01*
X119284593Y-78238004D01*
X119253700Y-78258130D01*
X119245959Y-78262409D01*
X119176485Y-78304783D01*
X119108752Y-78355860D01*
X119043527Y-78414910D01*
X118981576Y-78481207D01*
X118923665Y-78554022D01*
X118893574Y-78596945D01*
X118876140Y-78624029D01*
X118858550Y-78653215D01*
X118841721Y-78682802D01*
X118826567Y-78711085D01*
X118814006Y-78736363D01*
X118804952Y-78756933D01*
X118800618Y-78769771D01*
X118800117Y-78775752D01*
X118802553Y-78781769D01*
X118809149Y-78789247D01*
X118821128Y-78799613D01*
X118837004Y-78812184D01*
X118927484Y-78876666D01*
X119022735Y-78933012D01*
X119122497Y-78981120D01*
X119226513Y-79020891D01*
X119334525Y-79052224D01*
X119446275Y-79075019D01*
X119544560Y-79087658D01*
X119579416Y-79090183D01*
X119621337Y-79091947D01*
X119668124Y-79092961D01*
X119717578Y-79093238D01*
X119767502Y-79092790D01*
X119815697Y-79091629D01*
X119859964Y-79089767D01*
X119898106Y-79087215D01*
X119914633Y-79085637D01*
X120015533Y-79071509D01*
X120115635Y-79051375D01*
X120212567Y-79025804D01*
X120303955Y-78995366D01*
X120326076Y-78986898D01*
X120361006Y-78972326D01*
X120399550Y-78954861D01*
X120439462Y-78935631D01*
X120478498Y-78915765D01*
X120514411Y-78896393D01*
X120544956Y-78878642D01*
X120558746Y-78869919D01*
X120592031Y-78847976D01*
X120633414Y-78765031D01*
X120688818Y-78644695D01*
X120738349Y-78517965D01*
X120781660Y-78386150D01*
X120818406Y-78250558D01*
X120848239Y-78112495D01*
X120870814Y-77973271D01*
X120885785Y-77834192D01*
X120888082Y-77802874D01*
X120889378Y-77775700D01*
X120890230Y-77741085D01*
X120890657Y-77700905D01*
X120890683Y-77657039D01*
X120890329Y-77611363D01*
X120889618Y-77565756D01*
X120888570Y-77522095D01*
X120887209Y-77482257D01*
X120885557Y-77448121D01*
X120883635Y-77421563D01*
X120883613Y-77421329D01*
X120865250Y-77267297D01*
X120839282Y-77117415D01*
X120805826Y-76972173D01*
X120765002Y-76832058D01*
X120716926Y-76697557D01*
X120695881Y-76645885D01*
X120674064Y-76594198D01*
X120625938Y-76559131D01*
X120530347Y-76495040D01*
X120431859Y-76439933D01*
X120330592Y-76393847D01*
X120226664Y-76356823D01*
X120120191Y-76328899D01*
X120011291Y-76310113D01*
X119900082Y-76300505D01*
X119840790Y-76299147D01*
X119778024Y-76299943D01*
X119721632Y-76302699D01*
X119668659Y-76307689D01*
X119616152Y-76315183D01*
X119566203Y-76324426D01*
X119501454Y-76338818D01*
X119441773Y-76355033D01*
X119384444Y-76374016D01*
X119326756Y-76396710D01*
X119265993Y-76424060D01*
X119231048Y-76441048D01*
X119205619Y-76453477D01*
X119186603Y-76462115D01*
X119172050Y-76467637D01*
X119160013Y-76470718D01*
X119148543Y-76472034D01*
X119140994Y-76472258D01*
X119124547Y-76471678D01*
X119110397Y-76468953D01*
X119096523Y-76463109D01*
X119080902Y-76453170D01*
X119061513Y-76438159D01*
X119049215Y-76427980D01*
X118983836Y-76379021D01*
X118960345Y-76365318D01*
X118915105Y-76338929D01*
X118843030Y-76307707D01*
X118767623Y-76285358D01*
X118688893Y-76271887D01*
X118606851Y-76267298D01*
X118604445Y-76267297D01*
X118522827Y-76271886D01*
X118444031Y-76285299D01*
X118368531Y-76307325D01*
X118296800Y-76337752D01*
X118229311Y-76376368D01*
X118166537Y-76422961D01*
X118108951Y-76477321D01*
X118091059Y-76497052D01*
X118043596Y-76558360D01*
X118004357Y-76623597D01*
X117973398Y-76692018D01*
X117950778Y-76762879D01*
X117936550Y-76835437D01*
X117930772Y-76908948D01*
X117734896Y-76908948D01*
X117737396Y-76845304D01*
X117745306Y-76779538D01*
X117758769Y-76716487D01*
X117774902Y-76662978D01*
X117804544Y-76585483D01*
X117838696Y-76515083D01*
X117878429Y-76450040D01*
X117924811Y-76388617D01*
X117978911Y-76329077D01*
X117982740Y-76325210D01*
X118040220Y-76272326D01*
X118101473Y-76225741D01*
X118167952Y-76184516D01*
X118241109Y-76147715D01*
X118289971Y-76126903D01*
X118300881Y-76122534D01*
X118300519Y-75873433D01*
X118300455Y-75816002D01*
X118300482Y-75767273D01*
X118300659Y-75726468D01*
X118301046Y-75692809D01*
X118301107Y-75690270D01*
X118433102Y-75690270D01*
X118433102Y-75889065D01*
X118433102Y-76087859D01*
X118446136Y-76085197D01*
X118482554Y-76079363D01*
X118525351Y-76075100D01*
X118571673Y-76072489D01*
X118618668Y-76071611D01*
X118663484Y-76072547D01*
X118703269Y-76075377D01*
X118719854Y-76077449D01*
X118767856Y-76085965D01*
X118818380Y-76097414D01*
X118868436Y-76110984D01*
X118915035Y-76125864D01*
X118955189Y-76141242D01*
X118955653Y-76141441D01*
X118960345Y-76142403D01*
X118962846Y-76138892D01*
X118963820Y-76129036D01*
X118963948Y-76117981D01*
X118962950Y-76101138D01*
X118960281Y-76078794D01*
X118956422Y-76054680D01*
X118954339Y-76043815D01*
X118937359Y-75983698D01*
X118911968Y-75927187D01*
X118878772Y-75874969D01*
X118838379Y-75827732D01*
X118791397Y-75786161D01*
X118738432Y-75750945D01*
X118680092Y-75722771D01*
X118665745Y-75717274D01*
X118644768Y-75709989D01*
X118624150Y-75703445D01*
X118607722Y-75698847D01*
X118605103Y-75698228D01*
X118579142Y-75693662D01*
X118548052Y-75690077D01*
X118515587Y-75687755D01*
X118485500Y-75686978D01*
X118464985Y-75687711D01*
X118433102Y-75690270D01*
X118301107Y-75690270D01*
X118301702Y-75665519D01*
X118302685Y-75643821D01*
X118304055Y-75626937D01*
X118305871Y-75614089D01*
X118308192Y-75604500D01*
X118311078Y-75597392D01*
X118314587Y-75591988D01*
X118318778Y-75587510D01*
X118322513Y-75584198D01*
X118339723Y-75574292D01*
X118365559Y-75566287D01*
X118399336Y-75560300D01*
X118440371Y-75556446D01*
X118487980Y-75554840D01*
X118497088Y-75554798D01*
X118573585Y-75559146D01*
G37*
D13*
%TO.C,3.3V_BULK*%
X154600000Y-41200000D02*
X156200000Y-39600000D01*
X154600000Y-46400000D02*
X154600000Y-41200000D01*
X154600000Y-46400000D02*
X156900000Y-46400000D01*
X156200000Y-39600000D02*
X156900000Y-39600000D01*
X159800000Y-39600000D02*
X159100000Y-39600000D01*
X161400000Y-41200000D02*
X159800000Y-39600000D01*
X161400000Y-46400000D02*
X159100000Y-46400000D01*
X161400000Y-46400000D02*
X161400000Y-41200000D01*
D14*
%TO.C,HEADERS1*%
X102710000Y-84810000D02*
X153910000Y-84810000D01*
X102710000Y-89850000D02*
X102710000Y-84810000D01*
X153910000Y-84810000D02*
X153910000Y-89850000D01*
X153910000Y-89850000D02*
X102710000Y-89850000D01*
D13*
X154520000Y-88600000D02*
G75*
G02*
X154320000Y-88600000I-100000J0D01*
G01*
X154320000Y-88600000D02*
G75*
G02*
X154520000Y-88600000I100000J0D01*
G01*
D16*
%TO.C,G\u002A\u002A\u002A*%
G36*
X118512678Y-80541595D02*
G01*
X118547539Y-80563562D01*
X118568673Y-80589739D01*
X118587268Y-80635496D01*
X118591276Y-80682034D01*
X118582504Y-80719135D01*
X118557750Y-80756598D01*
X118537799Y-80773025D01*
X118489620Y-80795877D01*
X118443824Y-80801405D01*
X118401421Y-80789725D01*
X118363423Y-80760955D01*
X118355372Y-80751885D01*
X118330101Y-80709141D01*
X118322106Y-80663564D01*
X118331662Y-80616868D01*
X118333130Y-80613282D01*
X118357308Y-80575984D01*
X118391081Y-80549794D01*
X118430719Y-80535082D01*
X118472495Y-80532227D01*
X118512678Y-80541595D01*
G37*
G36*
X118836343Y-80030854D02*
G01*
X118865782Y-80038933D01*
X118901654Y-80061853D01*
X118940370Y-80100731D01*
X118980765Y-80154121D01*
X119021674Y-80220575D01*
X119041136Y-80256660D01*
X119104255Y-80396424D01*
X119155126Y-80546861D01*
X119193416Y-80705337D01*
X119218801Y-80869225D01*
X119230951Y-81035894D01*
X119229537Y-81202712D01*
X119214232Y-81367051D01*
X119194259Y-81483175D01*
X119167674Y-81597316D01*
X119136260Y-81704308D01*
X119098196Y-81809152D01*
X119051657Y-81916847D01*
X118994822Y-82032396D01*
X118992320Y-82037232D01*
X118933705Y-82150288D01*
X118952405Y-82254567D01*
X118964937Y-82335678D01*
X118975946Y-82428671D01*
X118985061Y-82528358D01*
X118991910Y-82629554D01*
X118996120Y-82727069D01*
X118997322Y-82815716D01*
X118996280Y-82867001D01*
X118994331Y-82904712D01*
X118990818Y-82929022D01*
X118983987Y-82944391D01*
X118972085Y-82955277D01*
X118958394Y-82963392D01*
X118936456Y-82971576D01*
X118913823Y-82969163D01*
X118897163Y-82962966D01*
X118871505Y-82948822D01*
X118835966Y-82924724D01*
X118793564Y-82893076D01*
X118747318Y-82856283D01*
X118700247Y-82816744D01*
X118655368Y-82776866D01*
X118615700Y-82739048D01*
X118614916Y-82738265D01*
X118584679Y-82708492D01*
X118564233Y-82689926D01*
X118551101Y-82680792D01*
X118542806Y-82679314D01*
X118537618Y-82682850D01*
X118505818Y-82716519D01*
X118464177Y-82758388D01*
X118416353Y-82804954D01*
X118366005Y-82852720D01*
X118316792Y-82898184D01*
X118272370Y-82937847D01*
X118259158Y-82949262D01*
X118192951Y-83005012D01*
X118134685Y-83051991D01*
X118079496Y-83093885D01*
X118022519Y-83134379D01*
X117958892Y-83177159D01*
X117955245Y-83179558D01*
X117865260Y-83238698D01*
X117884253Y-83294960D01*
X117904092Y-83365350D01*
X117921513Y-83450284D01*
X117936197Y-83546571D01*
X117947842Y-83651020D01*
X117956131Y-83760438D01*
X117960756Y-83871633D01*
X117961406Y-83981413D01*
X117959008Y-84062855D01*
X117955839Y-84125260D01*
X117952536Y-84172282D01*
X117948480Y-84206394D01*
X117943056Y-84230072D01*
X117935645Y-84245787D01*
X117925632Y-84256013D01*
X117912397Y-84263222D01*
X117908603Y-84264806D01*
X117886527Y-84270986D01*
X117865619Y-84269357D01*
X117842685Y-84258427D01*
X117814532Y-84236703D01*
X117780007Y-84204672D01*
X117660959Y-84077502D01*
X117550573Y-83935185D01*
X117449389Y-83778473D01*
X117366159Y-83624787D01*
X117359898Y-83615793D01*
X117350242Y-83612813D01*
X117333089Y-83616075D01*
X117304339Y-83625803D01*
X117296613Y-83628627D01*
X117173562Y-83666124D01*
X117036742Y-83693369D01*
X116887100Y-83710232D01*
X116725583Y-83716585D01*
X116656912Y-83716136D01*
X116656115Y-83716108D01*
X116601566Y-83714228D01*
X116561090Y-83710445D01*
X116532520Y-83704044D01*
X116512903Y-83694289D01*
X116499278Y-83680437D01*
X116496274Y-83675949D01*
X116488090Y-83658018D01*
X116487441Y-83639528D01*
X116495531Y-83617958D01*
X116513562Y-83590791D01*
X116523255Y-83579066D01*
X116714286Y-83579066D01*
X116724077Y-83579102D01*
X116748404Y-83578103D01*
X116783980Y-83576233D01*
X116827517Y-83573658D01*
X116845085Y-83572552D01*
X116953982Y-83563288D01*
X117049535Y-83549875D01*
X117135960Y-83531437D01*
X117217470Y-83507102D01*
X117286152Y-83481080D01*
X117336178Y-83461068D01*
X117372708Y-83448214D01*
X117398281Y-83441806D01*
X117415436Y-83441135D01*
X117422252Y-83442974D01*
X117435528Y-83453365D01*
X117450653Y-83475096D01*
X117468925Y-83510284D01*
X117484099Y-83543628D01*
X117533102Y-83645742D01*
X117588964Y-83743054D01*
X117655678Y-83842480D01*
X117660818Y-83849644D01*
X117685745Y-83883385D01*
X117713463Y-83919512D01*
X117741846Y-83955427D01*
X117768768Y-83988533D01*
X117792105Y-84016234D01*
X117809732Y-84035930D01*
X117819523Y-84045026D01*
X117820764Y-84045124D01*
X117822220Y-84032394D01*
X117822933Y-84005080D01*
X117822960Y-83966446D01*
X117822361Y-83919751D01*
X117821194Y-83868258D01*
X117819518Y-83815226D01*
X117817393Y-83763919D01*
X117814876Y-83717597D01*
X117814869Y-83717488D01*
X117803521Y-83591394D01*
X117785899Y-83478458D01*
X117761291Y-83374868D01*
X117736525Y-83297358D01*
X117720496Y-83249875D01*
X117712016Y-83215324D01*
X117711507Y-83190259D01*
X117719390Y-83171233D01*
X117736087Y-83154801D01*
X117755592Y-83141509D01*
X117859822Y-83074570D01*
X117951002Y-83012986D01*
X118032223Y-82954470D01*
X118106582Y-82896736D01*
X118177170Y-82837494D01*
X118226786Y-82793180D01*
X118281109Y-82742436D01*
X118336269Y-82688985D01*
X118388666Y-82636436D01*
X118434700Y-82588399D01*
X118470371Y-82548946D01*
X118494767Y-82521972D01*
X118512953Y-82506431D01*
X118529553Y-82499552D01*
X118549189Y-82498563D01*
X118553948Y-82498832D01*
X118568512Y-82501712D01*
X118583666Y-82509982D01*
X118602675Y-82526130D01*
X118628805Y-82552649D01*
X118639640Y-82564203D01*
X118669722Y-82595498D01*
X118704238Y-82629812D01*
X118740437Y-82664587D01*
X118775564Y-82697272D01*
X118806866Y-82725309D01*
X118831588Y-82746144D01*
X118846979Y-82757223D01*
X118848411Y-82757927D01*
X118851810Y-82751310D01*
X118853506Y-82729577D01*
X118853643Y-82695378D01*
X118852364Y-82651361D01*
X118849816Y-82600177D01*
X118846141Y-82544475D01*
X118841485Y-82486905D01*
X118835992Y-82430116D01*
X118829807Y-82376759D01*
X118826139Y-82349667D01*
X118818815Y-82301680D01*
X118810619Y-82252506D01*
X118802806Y-82209509D01*
X118799037Y-82190730D01*
X118785910Y-82128890D01*
X118845274Y-82016309D01*
X118909523Y-81888002D01*
X118962097Y-81768201D01*
X119004377Y-81653224D01*
X119037742Y-81539385D01*
X119059420Y-81444291D01*
X119077589Y-81353769D01*
X119014036Y-81363007D01*
X118947179Y-81371455D01*
X118887516Y-81375738D01*
X118827028Y-81376143D01*
X118757698Y-81372962D01*
X118750955Y-81372523D01*
X118611177Y-81354604D01*
X118471963Y-81319995D01*
X118385281Y-81287971D01*
X118335955Y-81269748D01*
X118205802Y-81204913D01*
X118084144Y-81126540D01*
X118033014Y-81087248D01*
X117995384Y-81053873D01*
X117951361Y-81010369D01*
X117904976Y-80961115D01*
X117860259Y-80910484D01*
X117821242Y-80862855D01*
X117799579Y-80833786D01*
X117788102Y-80817381D01*
X117779355Y-80807832D01*
X117770996Y-80806569D01*
X117760683Y-80815022D01*
X117746077Y-80834619D01*
X117724834Y-80866790D01*
X117711175Y-80887759D01*
X117644159Y-80998742D01*
X117581360Y-81118926D01*
X117537818Y-81214528D01*
X117495762Y-81313606D01*
X117446544Y-81342123D01*
X117357371Y-81397177D01*
X117263034Y-81461449D01*
X117168242Y-81531388D01*
X117077701Y-81603443D01*
X116996121Y-81674064D01*
X116954582Y-81713145D01*
X116929162Y-81737975D01*
X116976427Y-81743326D01*
X117035275Y-81748922D01*
X117100646Y-81753405D01*
X117165652Y-81756417D01*
X117223398Y-81757603D01*
X117248091Y-81757384D01*
X117294927Y-81757739D01*
X117328649Y-81762849D01*
X117350955Y-81774991D01*
X117363544Y-81796442D01*
X117368113Y-81829481D01*
X117366360Y-81876385D01*
X117363035Y-81911607D01*
X117345461Y-82146344D01*
X117343088Y-82373857D01*
X117355999Y-82596433D01*
X117384277Y-82816359D01*
X117398381Y-82896107D01*
X117406990Y-82944846D01*
X117413489Y-82988349D01*
X117417454Y-83023182D01*
X117418466Y-83045913D01*
X117417559Y-83052139D01*
X117406483Y-83062975D01*
X117382101Y-83078502D01*
X117347690Y-83096784D01*
X117318922Y-83110397D01*
X117209760Y-83166922D01*
X117096562Y-83239452D01*
X116980710Y-83326972D01*
X116863593Y-83428466D01*
X116794635Y-83494320D01*
X116763915Y-83525054D01*
X116738802Y-83550904D01*
X116721519Y-83569529D01*
X116714287Y-83578582D01*
X116714286Y-83579066D01*
X116523255Y-83579066D01*
X116542737Y-83555500D01*
X116566361Y-83529083D01*
X116657595Y-83433311D01*
X116753117Y-83341395D01*
X116850631Y-83255190D01*
X116947841Y-83176550D01*
X117042449Y-83107327D01*
X117132161Y-83049376D01*
X117214680Y-83004549D01*
X117218331Y-83002803D01*
X117271658Y-82977451D01*
X117254782Y-82887293D01*
X117230893Y-82733589D01*
X117214209Y-82568866D01*
X117205004Y-82398567D01*
X117203550Y-82228138D01*
X117210122Y-82063019D01*
X117212052Y-82035938D01*
X117215438Y-81989967D01*
X117218120Y-81950670D01*
X117219889Y-81921323D01*
X117220537Y-81905200D01*
X117220437Y-81903191D01*
X117211521Y-81901208D01*
X117188256Y-81898898D01*
X117154145Y-81896543D01*
X117112688Y-81894426D01*
X117111479Y-81894374D01*
X117059769Y-81891022D01*
X116998153Y-81885288D01*
X116934298Y-81877970D01*
X116875878Y-81869867D01*
X116875079Y-81869742D01*
X116824825Y-81861812D01*
X116789226Y-81855619D01*
X116765274Y-81850262D01*
X116749957Y-81844830D01*
X116740268Y-81838421D01*
X116733196Y-81830126D01*
X116730527Y-81826227D01*
X116716569Y-81799789D01*
X116714011Y-81775871D01*
X116723802Y-81750788D01*
X116746893Y-81720857D01*
X116761818Y-81704883D01*
X116822972Y-81644813D01*
X116895110Y-81579156D01*
X116974589Y-81510866D01*
X117057764Y-81442894D01*
X117140995Y-81378195D01*
X117220636Y-81319719D01*
X117293046Y-81270421D01*
X117315299Y-81256318D01*
X117382166Y-81214900D01*
X117438163Y-81095468D01*
X117514877Y-80944407D01*
X117596950Y-80808100D01*
X117686447Y-80683743D01*
X117691692Y-80677639D01*
X117870060Y-80677639D01*
X117883822Y-80705485D01*
X117902015Y-80736372D01*
X117929335Y-80775525D01*
X117962355Y-80818496D01*
X117997651Y-80860839D01*
X118031799Y-80898108D01*
X118033513Y-80899858D01*
X118115230Y-80973764D01*
X118210187Y-81043590D01*
X118313774Y-81105966D01*
X118319886Y-81109249D01*
X118438360Y-81162925D01*
X118564568Y-81202397D01*
X118695293Y-81227155D01*
X118827316Y-81236686D01*
X118957419Y-81230484D01*
X119023271Y-81220864D01*
X119047813Y-81216568D01*
X119066322Y-81212260D01*
X119079522Y-81205617D01*
X119088140Y-81194317D01*
X119092902Y-81176040D01*
X119094534Y-81148463D01*
X119093762Y-81109261D01*
X119091310Y-81056118D01*
X119089038Y-81010483D01*
X119073004Y-80838753D01*
X119041594Y-80674143D01*
X118994112Y-80513601D01*
X118949731Y-80399163D01*
X118911680Y-80316118D01*
X118874664Y-80247846D01*
X118839408Y-80195654D01*
X118832193Y-80186738D01*
X118817829Y-80171835D01*
X118803223Y-80165282D01*
X118780427Y-80163994D01*
X118773885Y-80164102D01*
X118722136Y-80169711D01*
X118658812Y-80183803D01*
X118587317Y-80205132D01*
X118511056Y-80232453D01*
X118433435Y-80264520D01*
X118357858Y-80300089D01*
X118287731Y-80337913D01*
X118270225Y-80348320D01*
X118185583Y-80403697D01*
X118099821Y-80466924D01*
X118018757Y-80533455D01*
X117948210Y-80598747D01*
X117943434Y-80603540D01*
X117870060Y-80677639D01*
X117691692Y-80677639D01*
X117785432Y-80568536D01*
X117895973Y-80459676D01*
X117927581Y-80431434D01*
X118001563Y-80368684D01*
X118069600Y-80315893D01*
X118137085Y-80269210D01*
X118209406Y-80224790D01*
X118247200Y-80203265D01*
X118327830Y-80161508D01*
X118411067Y-80124301D01*
X118494612Y-80092255D01*
X118576159Y-80065982D01*
X118653409Y-80046094D01*
X118724057Y-80033202D01*
X118785802Y-80027918D01*
X118836343Y-80030854D01*
G37*
G36*
X120448123Y-65053103D02*
G01*
X120487927Y-65066104D01*
X120521675Y-65089843D01*
X120545769Y-65123269D01*
X120555557Y-65155457D01*
X120555657Y-65204849D01*
X120541940Y-65249499D01*
X120519909Y-65280612D01*
X120482924Y-65306075D01*
X120458271Y-65313832D01*
X120405040Y-65316971D01*
X120360509Y-65304941D01*
X120325568Y-65278227D01*
X120301115Y-65237318D01*
X120297047Y-65225892D01*
X120289629Y-65176794D01*
X120299289Y-65131541D01*
X120325642Y-65091826D01*
X120328347Y-65089050D01*
X120364736Y-65063525D01*
X120405860Y-65051894D01*
X120448123Y-65053103D01*
G37*
G36*
X120673250Y-64666454D02*
G01*
X120758701Y-64672643D01*
X120837776Y-64683141D01*
X120908110Y-64697653D01*
X120967338Y-64715884D01*
X121013099Y-64737539D01*
X121037368Y-64756058D01*
X121062041Y-64790747D01*
X121083375Y-64841298D01*
X121100828Y-64905932D01*
X121113864Y-64982872D01*
X121118391Y-65023620D01*
X121124557Y-65176852D01*
X121115368Y-65335390D01*
X121091505Y-65496671D01*
X121053648Y-65658135D01*
X121002478Y-65817219D01*
X120938677Y-65971360D01*
X120862924Y-66118000D01*
X120800904Y-66218186D01*
X120733496Y-66314056D01*
X120664290Y-66401490D01*
X120589722Y-66484440D01*
X120506229Y-66566859D01*
X120410247Y-66652704D01*
X120406116Y-66656251D01*
X120309417Y-66739116D01*
X120287692Y-66842808D01*
X120268927Y-66922707D01*
X120244298Y-67013052D01*
X120215406Y-67108895D01*
X120183848Y-67205288D01*
X120151222Y-67297280D01*
X120119128Y-67379922D01*
X120098951Y-67427082D01*
X120083017Y-67461318D01*
X120070653Y-67482542D01*
X120058562Y-67494232D01*
X120043448Y-67499866D01*
X120027714Y-67502263D01*
X120004308Y-67501632D01*
X119984227Y-67490917D01*
X119971102Y-67478930D01*
X119952611Y-67456204D01*
X119928686Y-67420547D01*
X119901227Y-67375320D01*
X119872132Y-67323882D01*
X119843300Y-67269589D01*
X119816628Y-67215803D01*
X119794015Y-67165879D01*
X119793581Y-67164859D01*
X119776699Y-67125927D01*
X119764697Y-67101054D01*
X119755943Y-67087666D01*
X119748805Y-67083188D01*
X119742671Y-67084523D01*
X119700573Y-67103828D01*
X119646281Y-67127049D01*
X119584495Y-67152309D01*
X119519920Y-67177736D01*
X119457259Y-67201454D01*
X119401214Y-67221588D01*
X119384687Y-67227222D01*
X119302417Y-67254111D01*
X119230795Y-67275843D01*
X119163931Y-67294012D01*
X119095933Y-67310214D01*
X119020914Y-67326044D01*
X119016634Y-67326902D01*
X118911047Y-67348027D01*
X118907580Y-67407306D01*
X118899607Y-67480002D01*
X118883941Y-67565277D01*
X118861488Y-67660055D01*
X118833157Y-67761260D01*
X118799853Y-67865816D01*
X118762488Y-67970647D01*
X118721966Y-68072677D01*
X118689233Y-68147290D01*
X118662919Y-68203964D01*
X118642241Y-68246324D01*
X118625702Y-68276434D01*
X118611802Y-68296355D01*
X118599045Y-68308150D01*
X118585929Y-68313880D01*
X118570958Y-68315606D01*
X118566847Y-68315653D01*
X118544063Y-68313113D01*
X118525288Y-68303771D01*
X118508119Y-68285046D01*
X118490153Y-68254357D01*
X118470141Y-68211725D01*
X118407400Y-68049220D01*
X118358365Y-67875914D01*
X118323255Y-67692709D01*
X118303657Y-67519035D01*
X118301221Y-67508351D01*
X118293385Y-67501971D01*
X118276258Y-67498570D01*
X118245957Y-67496819D01*
X118237737Y-67496543D01*
X118109599Y-67485214D01*
X117972536Y-67459221D01*
X117827473Y-67418800D01*
X117675337Y-67364185D01*
X117611835Y-67338044D01*
X117611106Y-67337720D01*
X117561233Y-67315542D01*
X117525121Y-67296871D01*
X117501030Y-67280235D01*
X117486496Y-67263841D01*
X117479052Y-67245893D01*
X117477948Y-67240607D01*
X117477587Y-67232448D01*
X117716378Y-67232448D01*
X117725443Y-67236149D01*
X117748373Y-67244336D01*
X117782059Y-67255929D01*
X117823390Y-67269850D01*
X117840093Y-67275406D01*
X117944531Y-67307610D01*
X118038151Y-67330969D01*
X118125189Y-67346249D01*
X118209880Y-67354220D01*
X118283309Y-67355821D01*
X118337189Y-67356006D01*
X118375875Y-67357773D01*
X118401985Y-67361411D01*
X118418143Y-67367215D01*
X118423774Y-67371474D01*
X118432191Y-67386082D01*
X118438073Y-67411896D01*
X118441834Y-67451367D01*
X118443411Y-67487967D01*
X118450594Y-67601002D01*
X118465935Y-67712155D01*
X118490545Y-67829332D01*
X118492627Y-67837900D01*
X118503100Y-67878522D01*
X118515265Y-67922402D01*
X118528128Y-67966334D01*
X118540688Y-68007115D01*
X118551949Y-68041541D01*
X118560914Y-68066406D01*
X118566584Y-68078507D01*
X118567698Y-68079063D01*
X118573817Y-68067805D01*
X118584710Y-68042748D01*
X118599207Y-68006936D01*
X118616145Y-67963417D01*
X118634353Y-67915236D01*
X118652665Y-67865438D01*
X118669914Y-67817071D01*
X118684933Y-67773179D01*
X118684967Y-67773076D01*
X118721681Y-67651912D01*
X118747649Y-67540599D01*
X118763638Y-67435334D01*
X118769711Y-67354190D01*
X118772637Y-67304160D01*
X118777717Y-67268948D01*
X118786635Y-67245517D01*
X118801071Y-67230830D01*
X118822708Y-67221849D01*
X118845772Y-67216831D01*
X118967488Y-67193813D01*
X119075098Y-67170869D01*
X119172326Y-67147041D01*
X119262898Y-67121366D01*
X119350539Y-67092880D01*
X119413142Y-67070380D01*
X119482518Y-67043680D01*
X119553685Y-67014784D01*
X119621951Y-66985690D01*
X119682629Y-66958395D01*
X119730481Y-66935178D01*
X119763206Y-66919307D01*
X119785890Y-66911710D01*
X119803858Y-66911551D01*
X119822434Y-66917990D01*
X119826746Y-66920022D01*
X119839171Y-66928148D01*
X119850124Y-66941491D01*
X119861699Y-66963585D01*
X119875991Y-66997962D01*
X119881710Y-67012733D01*
X119897878Y-67053019D01*
X119917027Y-67097764D01*
X119937563Y-67143567D01*
X119957888Y-67187030D01*
X119976408Y-67224752D01*
X119991525Y-67253331D01*
X120001645Y-67269369D01*
X120002708Y-67270558D01*
X120008339Y-67265697D01*
X120018053Y-67246181D01*
X120030991Y-67214523D01*
X120046294Y-67173233D01*
X120063105Y-67124820D01*
X120080564Y-67071798D01*
X120097814Y-67016676D01*
X120113994Y-66961965D01*
X120128247Y-66910176D01*
X120134995Y-66883683D01*
X120146181Y-66836446D01*
X120157003Y-66787783D01*
X120165865Y-66744990D01*
X120169405Y-66726166D01*
X120180400Y-66663911D01*
X120277615Y-66581767D01*
X120385250Y-66486870D01*
X120478874Y-66395488D01*
X120561147Y-66304722D01*
X120634727Y-66211671D01*
X120690448Y-66131620D01*
X120741205Y-66054497D01*
X120678820Y-66039255D01*
X120613666Y-66022043D01*
X120556743Y-66003664D01*
X120500508Y-65981380D01*
X120437418Y-65952459D01*
X120431330Y-65949526D01*
X120308443Y-65880550D01*
X120192330Y-65796311D01*
X120123957Y-65734147D01*
X120085050Y-65698773D01*
X119988661Y-65589902D01*
X119905221Y-65471663D01*
X119872533Y-65416079D01*
X119850146Y-65371037D01*
X119825625Y-65314210D01*
X119801068Y-65251166D01*
X119778575Y-65187470D01*
X119760240Y-65128693D01*
X119751044Y-65093626D01*
X119746549Y-65074116D01*
X119742016Y-65061986D01*
X119734738Y-65057684D01*
X119722010Y-65061658D01*
X119701126Y-65074356D01*
X119669378Y-65096227D01*
X119648859Y-65110553D01*
X119545148Y-65188349D01*
X119441900Y-65276257D01*
X119365715Y-65348587D01*
X119289606Y-65424696D01*
X119233290Y-65432698D01*
X119129986Y-65450339D01*
X119018442Y-65474592D01*
X118904352Y-65503928D01*
X118793412Y-65536819D01*
X118691317Y-65571738D01*
X118638163Y-65592413D01*
X118605293Y-65605911D01*
X118647112Y-65628579D01*
X118699578Y-65655813D01*
X118758509Y-65684457D01*
X118817653Y-65711602D01*
X118870751Y-65734333D01*
X118893728Y-65743381D01*
X118937020Y-65761255D01*
X118966373Y-65778625D01*
X118982506Y-65798239D01*
X118986143Y-65822844D01*
X118978002Y-65855188D01*
X118958806Y-65898021D01*
X118942529Y-65929432D01*
X118838301Y-66140493D01*
X118750873Y-66350551D01*
X118679465Y-66561756D01*
X118623297Y-66776262D01*
X118606501Y-66855486D01*
X118596225Y-66903901D01*
X118585954Y-66946670D01*
X118576582Y-66980453D01*
X118569006Y-67001907D01*
X118565832Y-67007340D01*
X118551503Y-67013238D01*
X118523080Y-67018501D01*
X118484326Y-67022561D01*
X118452554Y-67024406D01*
X118330165Y-67035922D01*
X118198040Y-67060766D01*
X118057839Y-67098514D01*
X117911229Y-67148745D01*
X117822623Y-67183971D01*
X117782627Y-67200960D01*
X117749659Y-67215520D01*
X117726658Y-67226314D01*
X117716561Y-67231999D01*
X117716378Y-67232448D01*
X117477587Y-67232448D01*
X117477077Y-67220916D01*
X117483402Y-67203529D01*
X117498983Y-67186561D01*
X117525879Y-67168125D01*
X117566149Y-67146334D01*
X117597949Y-67130691D01*
X117718416Y-67076069D01*
X117841415Y-67026630D01*
X117964121Y-66983231D01*
X118083712Y-66946732D01*
X118197362Y-66917991D01*
X118302251Y-66897866D01*
X118395554Y-66887216D01*
X118399593Y-66886964D01*
X118458534Y-66883435D01*
X118476660Y-66793520D01*
X118512089Y-66642059D01*
X118558326Y-66483081D01*
X118613586Y-66321735D01*
X118676083Y-66163171D01*
X118744031Y-66012537D01*
X118755965Y-65988151D01*
X118776326Y-65946795D01*
X118793533Y-65911364D01*
X118806166Y-65884817D01*
X118812807Y-65870111D01*
X118813467Y-65868210D01*
X118805943Y-65863032D01*
X118785237Y-65852175D01*
X118754492Y-65837213D01*
X118716847Y-65819721D01*
X118715746Y-65819219D01*
X118669057Y-65796741D01*
X118614074Y-65768341D01*
X118557611Y-65737637D01*
X118506480Y-65708240D01*
X118505786Y-65707825D01*
X118462162Y-65681646D01*
X118431476Y-65662569D01*
X118411275Y-65648628D01*
X118399108Y-65637855D01*
X118392526Y-65628283D01*
X118389076Y-65617943D01*
X118388060Y-65613327D01*
X118385024Y-65583586D01*
X118391612Y-65560451D01*
X118410087Y-65540862D01*
X118442708Y-65521761D01*
X118462530Y-65512541D01*
X118541734Y-65479754D01*
X118633215Y-65445902D01*
X118732488Y-65412357D01*
X118835071Y-65380493D01*
X118936477Y-65351683D01*
X119032224Y-65327300D01*
X119117829Y-65308716D01*
X119143745Y-65303977D01*
X119221258Y-65290624D01*
X119317918Y-65200865D01*
X119445634Y-65089541D01*
X119572792Y-64993904D01*
X119602344Y-64975252D01*
X119874887Y-64975252D01*
X119877215Y-65006225D01*
X119882514Y-65041679D01*
X119893177Y-65088215D01*
X119907695Y-65140426D01*
X119924559Y-65192909D01*
X119942260Y-65240256D01*
X119943193Y-65242520D01*
X119991274Y-65341657D01*
X120053160Y-65441969D01*
X120125838Y-65538609D01*
X120130275Y-65543942D01*
X120220014Y-65638090D01*
X120322246Y-65721966D01*
X120434177Y-65793892D01*
X120553016Y-65852186D01*
X120675969Y-65895172D01*
X120740629Y-65910922D01*
X120764994Y-65916132D01*
X120783769Y-65919071D01*
X120798496Y-65917857D01*
X120810720Y-65910609D01*
X120821982Y-65895446D01*
X120833826Y-65870488D01*
X120847794Y-65833853D01*
X120865430Y-65783660D01*
X120880418Y-65740497D01*
X120929883Y-65575265D01*
X120962424Y-65410875D01*
X120978540Y-65244236D01*
X120980259Y-65121505D01*
X120976088Y-65030254D01*
X120967343Y-64953086D01*
X120954205Y-64891487D01*
X120950856Y-64880518D01*
X120943121Y-64861319D01*
X120932033Y-64849772D01*
X120911379Y-64840038D01*
X120905273Y-64837687D01*
X120855191Y-64823503D01*
X120791200Y-64812846D01*
X120716920Y-64805840D01*
X120635978Y-64802604D01*
X120551996Y-64803259D01*
X120468598Y-64807926D01*
X120389409Y-64816726D01*
X120369278Y-64819816D01*
X120270056Y-64839454D01*
X120166853Y-64865950D01*
X120066769Y-64897269D01*
X119976900Y-64931380D01*
X119970676Y-64934035D01*
X119874887Y-64975252D01*
X119602344Y-64975252D01*
X119702357Y-64912129D01*
X119837292Y-64842392D01*
X119980563Y-64782867D01*
X120020450Y-64768523D01*
X120112551Y-64738056D01*
X120195411Y-64714595D01*
X120275468Y-64696592D01*
X120359163Y-64682498D01*
X120402269Y-64676699D01*
X120492670Y-64668187D01*
X120583784Y-64664870D01*
X120673250Y-64666454D01*
G37*
D14*
%TO.C,TEENSY*%
X124870000Y-64890000D02*
X161130000Y-64890000D01*
X124870000Y-82670000D02*
X124870000Y-64890000D01*
X161130000Y-64890000D02*
X161130000Y-82670000D01*
X161130000Y-82670000D02*
X124870000Y-82670000D01*
D16*
%TO.C,G\u002A\u002A\u002A*%
G36*
X121010861Y-68554034D02*
G01*
X121045972Y-68562477D01*
X121079435Y-68577886D01*
X121108956Y-68599236D01*
X121129703Y-68621924D01*
X121147596Y-68653011D01*
X121159594Y-68688172D01*
X121165209Y-68724773D01*
X121163954Y-68760175D01*
X121159168Y-68781471D01*
X121142547Y-68820545D01*
X121119447Y-68852816D01*
X121089448Y-68878769D01*
X121061540Y-68894679D01*
X121043427Y-68902543D01*
X121027922Y-68906986D01*
X121010725Y-68908921D01*
X120992815Y-68909277D01*
X120971262Y-68908706D01*
X120954876Y-68906384D01*
X120939383Y-68901395D01*
X120924089Y-68894547D01*
X120888463Y-68872537D01*
X120859518Y-68843813D01*
X120837380Y-68808497D01*
X120836919Y-68807539D01*
X120829806Y-68791705D01*
X120825427Y-68778348D01*
X120823133Y-68764135D01*
X120822278Y-68745733D01*
X120822186Y-68731704D01*
X120822500Y-68709307D01*
X120823882Y-68693011D01*
X120826988Y-68679446D01*
X120832477Y-68665242D01*
X120837138Y-68655117D01*
X120858166Y-68621155D01*
X120885754Y-68592883D01*
X120918490Y-68571331D01*
X120954962Y-68557529D01*
X120976398Y-68553580D01*
X121010861Y-68554034D01*
G37*
G36*
X121173585Y-67559146D02*
G01*
X121246898Y-67572336D01*
X121317559Y-67594489D01*
X121368252Y-67616626D01*
X121431584Y-67652564D01*
X121489694Y-67695384D01*
X121541857Y-67744285D01*
X121587350Y-67798465D01*
X121625449Y-67857124D01*
X121655430Y-67919461D01*
X121664875Y-67944915D01*
X121675864Y-67979456D01*
X121683862Y-68010787D01*
X121689302Y-68041705D01*
X121692619Y-68075006D01*
X121694247Y-68113487D01*
X121694568Y-68136346D01*
X121695145Y-68216395D01*
X121724648Y-68237564D01*
X121754150Y-68258733D01*
X121783635Y-68244218D01*
X121856193Y-68211998D01*
X121936072Y-68182904D01*
X122021494Y-68157407D01*
X122110681Y-68135978D01*
X122201852Y-68119088D01*
X122293231Y-68107208D01*
X122305709Y-68105993D01*
X122396070Y-68101073D01*
X122490527Y-68102488D01*
X122587274Y-68109942D01*
X122684504Y-68123140D01*
X122780410Y-68141787D01*
X122873184Y-68165589D01*
X122961020Y-68194249D01*
X123037987Y-68225591D01*
X123122277Y-68265957D01*
X123199567Y-68307647D01*
X123272335Y-68352117D01*
X123343059Y-68400825D01*
X123369770Y-68420639D01*
X123396620Y-68441681D01*
X123416910Y-68459706D01*
X123432209Y-68476573D01*
X123444085Y-68494140D01*
X123454109Y-68514266D01*
X123459186Y-68526553D01*
X123464844Y-68540786D01*
X123472820Y-68560668D01*
X123481856Y-68583071D01*
X123487345Y-68596623D01*
X123543314Y-68746713D01*
X123589955Y-68898244D01*
X123627357Y-69051539D01*
X123655604Y-69206917D01*
X123660572Y-69241221D01*
X123664648Y-69271411D01*
X123668460Y-69300971D01*
X123671719Y-69327556D01*
X123674137Y-69348825D01*
X123675209Y-69359713D01*
X123676889Y-69379081D01*
X123679079Y-69403979D01*
X123681435Y-69430495D01*
X123682737Y-69445027D01*
X123684653Y-69471971D01*
X123686302Y-69506028D01*
X123687631Y-69544832D01*
X123688586Y-69586019D01*
X123689113Y-69627226D01*
X123689159Y-69666086D01*
X123688671Y-69700236D01*
X123688589Y-69703340D01*
X123679907Y-69861071D01*
X123662685Y-70017495D01*
X123637093Y-70171972D01*
X123603300Y-70323863D01*
X123561476Y-70472529D01*
X123511790Y-70617331D01*
X123454413Y-70757628D01*
X123389512Y-70892783D01*
X123357041Y-70953299D01*
X123347297Y-70968610D01*
X123335050Y-70983317D01*
X123319411Y-70998054D01*
X123299495Y-71013455D01*
X123274415Y-71030156D01*
X123243282Y-71048790D01*
X123205212Y-71069993D01*
X123161223Y-71093400D01*
X123058499Y-71143399D01*
X122955595Y-71185660D01*
X122851449Y-71220433D01*
X122744994Y-71247967D01*
X122635167Y-71268512D01*
X122520903Y-71282317D01*
X122401137Y-71289631D01*
X122317578Y-71291025D01*
X122317558Y-71291025D01*
X122193240Y-71287696D01*
X122074936Y-71277496D01*
X121961924Y-71260221D01*
X121853479Y-71235666D01*
X121748880Y-71203629D01*
X121647401Y-71163904D01*
X121548321Y-71116290D01*
X121450916Y-71060581D01*
X121412278Y-71035996D01*
X121382175Y-71015538D01*
X121350607Y-70992752D01*
X121318906Y-70968723D01*
X121288407Y-70944534D01*
X121260444Y-70921266D01*
X121236350Y-70900004D01*
X121217460Y-70881830D01*
X121205108Y-70867827D01*
X121205031Y-70867724D01*
X121194821Y-70850753D01*
X121188671Y-70832009D01*
X121186743Y-70810653D01*
X121189202Y-70785846D01*
X121196213Y-70756748D01*
X121207939Y-70722520D01*
X121224544Y-70682321D01*
X121246193Y-70635313D01*
X121253348Y-70620470D01*
X121297340Y-70539041D01*
X121348963Y-70459372D01*
X121407112Y-70382699D01*
X121470688Y-70310258D01*
X121538587Y-70243286D01*
X121609707Y-70183019D01*
X121682946Y-70130694D01*
X121699084Y-70120463D01*
X121713410Y-70111182D01*
X121721108Y-70104488D01*
X121723814Y-70098319D01*
X121723161Y-70090613D01*
X121723076Y-70090184D01*
X121720622Y-70074182D01*
X121717919Y-70050106D01*
X121715055Y-70019354D01*
X121712120Y-69983325D01*
X121709203Y-69943418D01*
X121706392Y-69901031D01*
X121703776Y-69857564D01*
X121701445Y-69814416D01*
X121699488Y-69772984D01*
X121697992Y-69734669D01*
X121697048Y-69700868D01*
X121696744Y-69676087D01*
X121696131Y-69650844D01*
X121694354Y-69634764D01*
X121691344Y-69627595D01*
X121687035Y-69629083D01*
X121685047Y-69631861D01*
X121677965Y-69638255D01*
X121663602Y-69647443D01*
X121643477Y-69658690D01*
X121619106Y-69671261D01*
X121592007Y-69684419D01*
X121563697Y-69697430D01*
X121535694Y-69709557D01*
X121509514Y-69720064D01*
X121486676Y-69728217D01*
X121485546Y-69728583D01*
X121396135Y-69752573D01*
X121305779Y-69767464D01*
X121215177Y-69773227D01*
X121125027Y-69769837D01*
X121036030Y-69757266D01*
X120992815Y-69747687D01*
X120908528Y-69722123D01*
X120827427Y-69688445D01*
X120750284Y-69647212D01*
X120677871Y-69598984D01*
X120610963Y-69544321D01*
X120550330Y-69483781D01*
X120496746Y-69417925D01*
X120459182Y-69361301D01*
X120416652Y-69283031D01*
X120383280Y-69204714D01*
X120358788Y-69125367D01*
X120342901Y-69044002D01*
X120335342Y-68959636D01*
X120334597Y-68916552D01*
X120334896Y-68908948D01*
X120530772Y-68908948D01*
X120533501Y-68982667D01*
X120544791Y-69055852D01*
X120564700Y-69127757D01*
X120593285Y-69197640D01*
X120630600Y-69264756D01*
X120632720Y-69268064D01*
X120678612Y-69330632D01*
X120731082Y-69386860D01*
X120789386Y-69436426D01*
X120852781Y-69479008D01*
X120920522Y-69514285D01*
X120991864Y-69541937D01*
X121066064Y-69561641D01*
X121142377Y-69573076D01*
X121220059Y-69575922D01*
X121298366Y-69569856D01*
X121322937Y-69566066D01*
X121399942Y-69548488D01*
X121472498Y-69523020D01*
X121541180Y-69489353D01*
X121606563Y-69447179D01*
X121669223Y-69396193D01*
X121705860Y-69361130D01*
X121727941Y-69339455D01*
X121747857Y-69321201D01*
X121764331Y-69307478D01*
X121776084Y-69299394D01*
X121778266Y-69298329D01*
X121805599Y-69291699D01*
X121832838Y-69293673D01*
X121858362Y-69303500D01*
X121880551Y-69320427D01*
X121897784Y-69343703D01*
X121903662Y-69356493D01*
X121906167Y-69363732D01*
X121907898Y-69371253D01*
X121908846Y-69380448D01*
X121909005Y-69392710D01*
X121908367Y-69409432D01*
X121906925Y-69432005D01*
X121904671Y-69461823D01*
X121902992Y-69482950D01*
X121898861Y-69549526D01*
X121896497Y-69622217D01*
X121895856Y-69698589D01*
X121896897Y-69776204D01*
X121899578Y-69852627D01*
X121903857Y-69925422D01*
X121909692Y-69992152D01*
X121912115Y-70013790D01*
X121915930Y-70045803D01*
X121919529Y-70076091D01*
X121922700Y-70102878D01*
X121925234Y-70124388D01*
X121926921Y-70138846D01*
X121927255Y-70141762D01*
X121927481Y-70170030D01*
X121920860Y-70194877D01*
X121906772Y-70217227D01*
X121884593Y-70238004D01*
X121853700Y-70258130D01*
X121845959Y-70262409D01*
X121776485Y-70304783D01*
X121708752Y-70355860D01*
X121643527Y-70414910D01*
X121581576Y-70481207D01*
X121523665Y-70554022D01*
X121493574Y-70596945D01*
X121476140Y-70624029D01*
X121458550Y-70653215D01*
X121441721Y-70682802D01*
X121426567Y-70711085D01*
X121414006Y-70736363D01*
X121404952Y-70756933D01*
X121400618Y-70769771D01*
X121400117Y-70775752D01*
X121402553Y-70781769D01*
X121409149Y-70789247D01*
X121421128Y-70799613D01*
X121437004Y-70812184D01*
X121527484Y-70876666D01*
X121622735Y-70933012D01*
X121722497Y-70981120D01*
X121826513Y-71020891D01*
X121934525Y-71052224D01*
X122046275Y-71075019D01*
X122144560Y-71087658D01*
X122179416Y-71090183D01*
X122221337Y-71091947D01*
X122268124Y-71092961D01*
X122317578Y-71093238D01*
X122367502Y-71092790D01*
X122415697Y-71091629D01*
X122459964Y-71089767D01*
X122498106Y-71087215D01*
X122514633Y-71085637D01*
X122615533Y-71071509D01*
X122715635Y-71051375D01*
X122812567Y-71025804D01*
X122903955Y-70995366D01*
X122926076Y-70986898D01*
X122961006Y-70972326D01*
X122999550Y-70954861D01*
X123039462Y-70935631D01*
X123078498Y-70915765D01*
X123114411Y-70896393D01*
X123144956Y-70878642D01*
X123158746Y-70869919D01*
X123192031Y-70847976D01*
X123233414Y-70765031D01*
X123288818Y-70644695D01*
X123338349Y-70517965D01*
X123381660Y-70386150D01*
X123418406Y-70250558D01*
X123448239Y-70112495D01*
X123470814Y-69973271D01*
X123485785Y-69834192D01*
X123488082Y-69802874D01*
X123489378Y-69775700D01*
X123490230Y-69741085D01*
X123490657Y-69700905D01*
X123490683Y-69657039D01*
X123490329Y-69611363D01*
X123489618Y-69565756D01*
X123488570Y-69522095D01*
X123487209Y-69482257D01*
X123485557Y-69448121D01*
X123483635Y-69421563D01*
X123483613Y-69421329D01*
X123465250Y-69267297D01*
X123439282Y-69117415D01*
X123405826Y-68972173D01*
X123365002Y-68832058D01*
X123316926Y-68697557D01*
X123295881Y-68645885D01*
X123274064Y-68594198D01*
X123225938Y-68559131D01*
X123130347Y-68495040D01*
X123031859Y-68439933D01*
X122930592Y-68393847D01*
X122826664Y-68356823D01*
X122720191Y-68328899D01*
X122611291Y-68310113D01*
X122500082Y-68300505D01*
X122440790Y-68299147D01*
X122378024Y-68299943D01*
X122321632Y-68302699D01*
X122268659Y-68307689D01*
X122216152Y-68315183D01*
X122166203Y-68324426D01*
X122101454Y-68338818D01*
X122041773Y-68355033D01*
X121984444Y-68374016D01*
X121926756Y-68396710D01*
X121865993Y-68424060D01*
X121831048Y-68441048D01*
X121805619Y-68453477D01*
X121786603Y-68462115D01*
X121772050Y-68467637D01*
X121760013Y-68470718D01*
X121748543Y-68472034D01*
X121740994Y-68472258D01*
X121724547Y-68471678D01*
X121710397Y-68468953D01*
X121696523Y-68463109D01*
X121680902Y-68453170D01*
X121661513Y-68438159D01*
X121649215Y-68427980D01*
X121583836Y-68379021D01*
X121560345Y-68365318D01*
X121515105Y-68338929D01*
X121443030Y-68307707D01*
X121367623Y-68285358D01*
X121288893Y-68271887D01*
X121206851Y-68267298D01*
X121204445Y-68267297D01*
X121122827Y-68271886D01*
X121044031Y-68285299D01*
X120968531Y-68307325D01*
X120896800Y-68337752D01*
X120829311Y-68376368D01*
X120766537Y-68422961D01*
X120708951Y-68477321D01*
X120691059Y-68497052D01*
X120643596Y-68558360D01*
X120604357Y-68623597D01*
X120573398Y-68692018D01*
X120550778Y-68762879D01*
X120536550Y-68835437D01*
X120530772Y-68908948D01*
X120334896Y-68908948D01*
X120337396Y-68845304D01*
X120345306Y-68779538D01*
X120358769Y-68716487D01*
X120374902Y-68662978D01*
X120404544Y-68585483D01*
X120438696Y-68515083D01*
X120478429Y-68450040D01*
X120524811Y-68388617D01*
X120578911Y-68329077D01*
X120582740Y-68325210D01*
X120640220Y-68272326D01*
X120701473Y-68225741D01*
X120767952Y-68184516D01*
X120841109Y-68147715D01*
X120889971Y-68126903D01*
X120900881Y-68122534D01*
X120900519Y-67873433D01*
X120900455Y-67816002D01*
X120900482Y-67767273D01*
X120900659Y-67726468D01*
X120901046Y-67692809D01*
X120901107Y-67690270D01*
X121033102Y-67690270D01*
X121033102Y-67889065D01*
X121033102Y-68087859D01*
X121046136Y-68085197D01*
X121082554Y-68079363D01*
X121125351Y-68075100D01*
X121171673Y-68072489D01*
X121218668Y-68071611D01*
X121263484Y-68072547D01*
X121303269Y-68075377D01*
X121319854Y-68077449D01*
X121367856Y-68085965D01*
X121418380Y-68097414D01*
X121468436Y-68110984D01*
X121515035Y-68125864D01*
X121555189Y-68141242D01*
X121555653Y-68141441D01*
X121560345Y-68142403D01*
X121562846Y-68138892D01*
X121563820Y-68129036D01*
X121563948Y-68117981D01*
X121562950Y-68101138D01*
X121560281Y-68078794D01*
X121556422Y-68054680D01*
X121554339Y-68043815D01*
X121537359Y-67983698D01*
X121511968Y-67927187D01*
X121478772Y-67874969D01*
X121438379Y-67827732D01*
X121391397Y-67786161D01*
X121338432Y-67750945D01*
X121280092Y-67722771D01*
X121265745Y-67717274D01*
X121244768Y-67709989D01*
X121224150Y-67703445D01*
X121207722Y-67698847D01*
X121205103Y-67698228D01*
X121179142Y-67693662D01*
X121148052Y-67690077D01*
X121115587Y-67687755D01*
X121085500Y-67686978D01*
X121064985Y-67687711D01*
X121033102Y-67690270D01*
X120901107Y-67690270D01*
X120901702Y-67665519D01*
X120902685Y-67643821D01*
X120904055Y-67626937D01*
X120905871Y-67614089D01*
X120908192Y-67604500D01*
X120911078Y-67597392D01*
X120914587Y-67591988D01*
X120918778Y-67587510D01*
X120922513Y-67584198D01*
X120939723Y-67574292D01*
X120965559Y-67566287D01*
X120999336Y-67560300D01*
X121040371Y-67556446D01*
X121087980Y-67554840D01*
X121097088Y-67554798D01*
X121173585Y-67559146D01*
G37*
D17*
%TO.C,MAX3323EEPE*%
X130091000Y-93846361D02*
X130091000Y-94413639D01*
X130091000Y-96386361D02*
X130091000Y-96953639D01*
X130091000Y-98926361D02*
X130091000Y-99493639D01*
X130091000Y-101466361D02*
X130091000Y-102033639D01*
X130091000Y-104006361D02*
X130091000Y-104573639D01*
X130091000Y-106546361D02*
X130091000Y-107113639D01*
X130091000Y-109086361D02*
X130091000Y-109653639D01*
X130705787Y-111592500D02*
X137080235Y-111592500D01*
X137604213Y-91907500D02*
X130705787Y-91907500D01*
X138219000Y-94413639D02*
X138219000Y-93846361D01*
X138219000Y-96953639D02*
X138219000Y-96386361D01*
X138219000Y-99493639D02*
X138219000Y-98926361D01*
X138219000Y-102033639D02*
X138219000Y-101466361D01*
X138219000Y-104573639D02*
X138219000Y-104006361D01*
X138219000Y-107113639D02*
X138219000Y-106546361D01*
X138219000Y-109621460D02*
X138219000Y-109086361D01*
D12*
%TO.C,XBEE1*%
X102500000Y-91000000D02*
X127500000Y-91000000D01*
X102500000Y-127000000D02*
X102500000Y-91000000D01*
X127500000Y-91000000D02*
X127500000Y-127000000D01*
X127500000Y-127000000D02*
X102500000Y-127000000D01*
D15*
%TO.C,5V_SYS*%
X103995000Y-40390000D02*
X109195000Y-40390000D01*
X103995000Y-50210000D02*
X103995000Y-40390000D01*
X109195000Y-38990000D02*
X111005000Y-38990000D01*
X109195000Y-40390000D02*
X109195000Y-38990000D01*
X111005000Y-50210000D02*
X103995000Y-50210000D01*
X111005000Y-50210000D02*
X118015000Y-50210000D01*
X112815000Y-38990000D02*
X111005000Y-38990000D01*
X112815000Y-40390000D02*
X112815000Y-38990000D01*
X115405000Y-50450000D02*
X118255000Y-50450000D01*
X118015000Y-40390000D02*
X112815000Y-40390000D01*
X118015000Y-50210000D02*
X118015000Y-40390000D01*
X118255000Y-50450000D02*
X118255000Y-47600000D01*
D16*
%TO.C,G\u002A\u002A\u002A*%
G36*
X113025278Y-99797341D02*
G01*
X113032539Y-99835760D01*
X113017877Y-99882119D01*
X112984858Y-99904070D01*
X112949937Y-99895310D01*
X112935065Y-99873087D01*
X112929764Y-99817951D01*
X112952376Y-99778268D01*
X112990964Y-99769113D01*
X113025278Y-99797341D01*
G37*
G36*
X111818894Y-99168058D02*
G01*
X111849595Y-99219033D01*
X111848928Y-99278123D01*
X111821224Y-99326127D01*
X111780431Y-99334199D01*
X111738809Y-99302497D01*
X111723633Y-99276508D01*
X111706066Y-99209107D01*
X111721568Y-99163432D01*
X111763358Y-99147992D01*
X111818894Y-99168058D01*
G37*
G36*
X116648880Y-104163840D02*
G01*
X116689768Y-104189301D01*
X116688187Y-104228770D01*
X116649879Y-104280043D01*
X116603246Y-104330368D01*
X116546379Y-104392469D01*
X116533123Y-104407049D01*
X116469661Y-104465150D01*
X116418791Y-104482037D01*
X116373645Y-104459750D01*
X116369402Y-104455667D01*
X116341885Y-104400224D01*
X116350868Y-104336111D01*
X116388514Y-104271509D01*
X116446988Y-104214603D01*
X116518451Y-104173575D01*
X116595068Y-104156609D01*
X116648880Y-104163840D01*
G37*
G36*
X112994704Y-99056514D02*
G01*
X113007230Y-99071780D01*
X113014938Y-99106582D01*
X113018979Y-99168579D01*
X113020499Y-99265427D01*
X113020681Y-99349579D01*
X113019879Y-99474799D01*
X113016883Y-99559827D01*
X113010809Y-99611887D01*
X113000770Y-99638200D01*
X112985884Y-99645991D01*
X112984362Y-99646031D01*
X112946796Y-99629596D01*
X112938887Y-99616386D01*
X112929264Y-99562601D01*
X112921055Y-99477011D01*
X112914971Y-99375239D01*
X112911720Y-99272909D01*
X112912014Y-99185641D01*
X112916562Y-99129060D01*
X112916706Y-99128326D01*
X112939307Y-99070425D01*
X112976213Y-99053127D01*
X112994704Y-99056514D01*
G37*
G36*
X112206802Y-99480351D02*
G01*
X112243712Y-99503099D01*
X112300001Y-99574023D01*
X112323957Y-99662851D01*
X112316662Y-99755498D01*
X112279199Y-99837881D01*
X112213534Y-99895463D01*
X112164886Y-99918634D01*
X112138958Y-99927219D01*
X112138432Y-99927071D01*
X112112435Y-99921309D01*
X112066627Y-99913688D01*
X112006589Y-99888294D01*
X111952256Y-99840843D01*
X111951718Y-99840164D01*
X111913895Y-99761824D01*
X111912672Y-99705111D01*
X112000886Y-99705111D01*
X112019558Y-99769892D01*
X112072537Y-99803899D01*
X112130780Y-99807184D01*
X112190639Y-99787636D01*
X112224166Y-99735649D01*
X112224851Y-99733715D01*
X112233574Y-99657872D01*
X112201520Y-99604835D01*
X112131331Y-99578925D01*
X112130103Y-99578777D01*
X112060591Y-99590569D01*
X112014880Y-99639111D01*
X112000886Y-99705111D01*
X111912672Y-99705111D01*
X111912118Y-99679429D01*
X111939612Y-99600800D01*
X111989603Y-99533757D01*
X112055315Y-99486120D01*
X112129973Y-99465712D01*
X112206802Y-99480351D01*
G37*
G36*
X112470729Y-99099516D02*
G01*
X112484191Y-99137156D01*
X112493834Y-99209419D01*
X112498925Y-99277777D01*
X112510784Y-99466853D01*
X112610457Y-99486467D01*
X112715530Y-99528550D01*
X112771632Y-99579172D01*
X112808024Y-99630110D01*
X112824886Y-99682243D01*
X112827428Y-99755314D01*
X112826113Y-99785514D01*
X112818255Y-99866525D01*
X112803869Y-99908238D01*
X112783519Y-99918767D01*
X112759365Y-99902628D01*
X112742972Y-99849915D01*
X112735186Y-99791686D01*
X112711875Y-99686588D01*
X112667507Y-99623196D01*
X112602552Y-99602088D01*
X112582104Y-99603633D01*
X112554152Y-99614763D01*
X112538182Y-99645652D01*
X112529751Y-99707779D01*
X112527446Y-99744854D01*
X112517285Y-99824078D01*
X112498664Y-99885828D01*
X112475943Y-99922141D01*
X112453482Y-99925054D01*
X112440495Y-99903651D01*
X112436234Y-99869983D01*
X112431859Y-99797585D01*
X112427739Y-99695158D01*
X112424246Y-99571400D01*
X112422427Y-99480018D01*
X112420522Y-99333435D01*
X112420751Y-99227888D01*
X112423586Y-99157010D01*
X112429502Y-99114435D01*
X112438970Y-99093793D01*
X112451493Y-99088701D01*
X112470729Y-99099516D01*
G37*
G36*
X119152020Y-107200948D02*
G01*
X119173898Y-107276443D01*
X119175637Y-107286270D01*
X119205706Y-107407216D01*
X119257529Y-107523868D01*
X119328019Y-107638375D01*
X119394166Y-107758146D01*
X119417691Y-107859528D01*
X119398924Y-107944245D01*
X119389838Y-107959779D01*
X119310003Y-108043701D01*
X119208897Y-108094627D01*
X119098775Y-108109437D01*
X118991891Y-108085008D01*
X118961246Y-108068929D01*
X118911192Y-108029863D01*
X118844410Y-107966566D01*
X118774057Y-107891638D01*
X118763241Y-107879289D01*
X118695527Y-107804417D01*
X118645883Y-107760059D01*
X118603892Y-107738805D01*
X118559139Y-107733241D01*
X118557996Y-107733239D01*
X118463903Y-107724389D01*
X118413480Y-107697909D01*
X118404248Y-107671411D01*
X118418034Y-107651663D01*
X118464374Y-107641241D01*
X118544502Y-107638375D01*
X118684757Y-107638375D01*
X118807576Y-107792723D01*
X118888998Y-107891079D01*
X118953125Y-107956394D01*
X119009048Y-107995041D01*
X119065860Y-108013392D01*
X119128733Y-108017833D01*
X119220410Y-107999982D01*
X119289297Y-107951905D01*
X119325584Y-107881819D01*
X119328782Y-107850291D01*
X119316693Y-107803847D01*
X119284883Y-107731044D01*
X119239442Y-107645315D01*
X119223502Y-107618151D01*
X119165315Y-107509988D01*
X119119604Y-107402863D01*
X119089322Y-107306389D01*
X119077418Y-107230180D01*
X119086843Y-107183848D01*
X119089318Y-107180979D01*
X119123229Y-107168398D01*
X119152020Y-107200948D01*
G37*
G36*
X111290275Y-99108859D02*
G01*
X111419463Y-99164184D01*
X111524756Y-99245314D01*
X111590805Y-99337721D01*
X111636250Y-99474630D01*
X111635916Y-99603429D01*
X111590613Y-99720525D01*
X111501152Y-99822327D01*
X111477295Y-99841083D01*
X111401014Y-99880178D01*
X111299325Y-99909293D01*
X111186312Y-99926967D01*
X111076062Y-99931737D01*
X110982659Y-99922142D01*
X110922711Y-99898648D01*
X110894714Y-99859962D01*
X110907942Y-99826624D01*
X110956875Y-99812052D01*
X110958323Y-99812044D01*
X110985237Y-99806240D01*
X111003920Y-99784367D01*
X111015558Y-99739729D01*
X111021338Y-99665633D01*
X111022445Y-99555383D01*
X111021697Y-99498635D01*
X111021153Y-99457398D01*
X111018705Y-99346716D01*
X111014716Y-99274504D01*
X111007007Y-99231806D01*
X110993396Y-99209663D01*
X110971702Y-99199118D01*
X110957376Y-99195451D01*
X110943376Y-99189179D01*
X111123389Y-99189179D01*
X111123389Y-99498635D01*
X111124861Y-99637630D01*
X111129560Y-99733896D01*
X111137908Y-99792053D01*
X111150329Y-99816721D01*
X111152617Y-99817834D01*
X111198598Y-99819836D01*
X111270403Y-99810497D01*
X111348859Y-99793476D01*
X111414792Y-99772430D01*
X111431792Y-99764562D01*
X111486505Y-99713423D01*
X111529149Y-99634562D01*
X111549700Y-99547645D01*
X111550279Y-99532135D01*
X111528463Y-99436705D01*
X111469839Y-99345504D01*
X111384644Y-99268816D01*
X111283113Y-99216925D01*
X111222129Y-99202422D01*
X111123389Y-99189179D01*
X110943376Y-99189179D01*
X110907362Y-99173044D01*
X110900256Y-99144292D01*
X110933257Y-99115521D01*
X111002609Y-99093247D01*
X111147790Y-99083745D01*
X111290275Y-99108859D01*
G37*
G36*
X112334371Y-98077103D02*
G01*
X112560439Y-98094193D01*
X112760273Y-98124991D01*
X112943903Y-98171195D01*
X113121362Y-98234506D01*
X113181569Y-98260008D01*
X113243386Y-98283177D01*
X113290326Y-98294087D01*
X113293500Y-98294210D01*
X113334376Y-98305674D01*
X113397137Y-98333987D01*
X113463978Y-98370028D01*
X113517092Y-98404679D01*
X113529392Y-98415026D01*
X113572693Y-98435393D01*
X113584055Y-98436507D01*
X113631328Y-98452132D01*
X113702362Y-98493919D01*
X113787633Y-98554238D01*
X113877615Y-98625458D01*
X113962786Y-98699950D01*
X114033621Y-98770082D01*
X114080595Y-98828224D01*
X114087365Y-98839744D01*
X114121828Y-98895933D01*
X114170131Y-98964376D01*
X114186204Y-98985391D01*
X114227016Y-99044088D01*
X114251134Y-99091553D01*
X114253921Y-99104323D01*
X114264536Y-99144282D01*
X114291129Y-99205302D01*
X114302914Y-99228247D01*
X114336383Y-99330407D01*
X114348383Y-99460998D01*
X114340828Y-99607185D01*
X114315633Y-99756130D01*
X114274713Y-99894999D01*
X114219982Y-100010954D01*
X114177617Y-100068272D01*
X114129745Y-100125732D01*
X114073069Y-100201397D01*
X114043317Y-100244153D01*
X113987718Y-100318689D01*
X113924804Y-100383440D01*
X113844312Y-100447060D01*
X113735977Y-100518203D01*
X113672875Y-100556490D01*
X113561369Y-100625793D01*
X113487463Y-100679393D01*
X113446023Y-100722169D01*
X113431915Y-100758997D01*
X113435079Y-100782408D01*
X113461928Y-100825853D01*
X113517171Y-100889529D01*
X113591767Y-100964540D01*
X113676675Y-101041991D01*
X113762851Y-101112988D01*
X113797385Y-101138840D01*
X113865303Y-101192060D01*
X113897744Y-101230667D01*
X113892305Y-101256834D01*
X113846585Y-101272735D01*
X113758183Y-101280542D01*
X113638700Y-101282445D01*
X113532627Y-101280753D01*
X113445164Y-101276167D01*
X113386517Y-101269427D01*
X113367070Y-101262782D01*
X113339068Y-101247223D01*
X113278945Y-101227041D01*
X113217444Y-101210927D01*
X113095441Y-101167993D01*
X112952292Y-101090531D01*
X112875364Y-101040861D01*
X112776380Y-100976180D01*
X112703876Y-100935130D01*
X112646525Y-100912696D01*
X112593000Y-100903867D01*
X112563836Y-100902987D01*
X112480539Y-100911072D01*
X112405067Y-100931198D01*
X112388985Y-100938415D01*
X112331920Y-100954619D01*
X112239115Y-100966338D01*
X112122049Y-100973573D01*
X111992201Y-100976324D01*
X111861050Y-100974591D01*
X111740076Y-100968373D01*
X111640758Y-100957672D01*
X111574576Y-100942486D01*
X111565356Y-100938415D01*
X111494346Y-100914284D01*
X111412624Y-100903085D01*
X111405612Y-100902987D01*
X111317229Y-100896213D01*
X111214024Y-100878746D01*
X111116780Y-100854867D01*
X111046633Y-100829037D01*
X110993132Y-100810951D01*
X110969628Y-100808122D01*
X110932975Y-100797414D01*
X110867428Y-100768974D01*
X110785430Y-100728327D01*
X110761790Y-100715819D01*
X110659280Y-100660931D01*
X110552942Y-100604182D01*
X110465059Y-100557462D01*
X110461800Y-100555735D01*
X110390806Y-100509929D01*
X110300794Y-100440111D01*
X110205030Y-100357018D01*
X110141632Y-100296656D01*
X110044331Y-100194980D01*
X109971691Y-100104346D01*
X109915439Y-100010744D01*
X109867303Y-99900165D01*
X109819010Y-99758598D01*
X109813446Y-99740896D01*
X109794694Y-99639751D01*
X109792804Y-99593620D01*
X109861757Y-99593620D01*
X109898863Y-99784681D01*
X109977941Y-99968265D01*
X110096306Y-100142114D01*
X110251275Y-100303969D01*
X110440164Y-100451574D01*
X110660287Y-100582669D01*
X110908963Y-100694998D01*
X111183505Y-100786302D01*
X111481231Y-100854324D01*
X111629073Y-100877700D01*
X111801615Y-100893967D01*
X111986925Y-100899007D01*
X112173191Y-100893514D01*
X112348597Y-100878185D01*
X112501330Y-100853712D01*
X112619575Y-100820790D01*
X112623618Y-100819230D01*
X112666091Y-100816849D01*
X112722066Y-100841946D01*
X112798512Y-100898190D01*
X112839274Y-100932743D01*
X112919490Y-100990070D01*
X113031175Y-101053223D01*
X113160168Y-101115073D01*
X113292307Y-101168491D01*
X113340849Y-101185244D01*
X113425370Y-101207247D01*
X113518915Y-101223073D01*
X113610090Y-101231974D01*
X113687500Y-101233204D01*
X113739753Y-101226016D01*
X113755882Y-101212436D01*
X113737869Y-101187279D01*
X113691720Y-101147343D01*
X113653731Y-101119578D01*
X113553708Y-101040945D01*
X113465625Y-100953518D01*
X113395615Y-100865447D01*
X113349811Y-100784879D01*
X113334344Y-100719965D01*
X113338071Y-100700086D01*
X113363164Y-100674423D01*
X113418059Y-100635269D01*
X113487265Y-100593210D01*
X113722345Y-100440620D01*
X113921762Y-100270054D01*
X114081657Y-100085280D01*
X114190081Y-99906909D01*
X114225362Y-99831280D01*
X114247536Y-99768512D01*
X114259553Y-99703187D01*
X114264363Y-99619888D01*
X114264964Y-99515592D01*
X114263560Y-99404182D01*
X114257988Y-99324517D01*
X114244846Y-99260918D01*
X114220730Y-99197703D01*
X114182237Y-99119192D01*
X114176516Y-99108048D01*
X114050222Y-98912922D01*
X113882390Y-98734696D01*
X113676532Y-98575427D01*
X113436157Y-98437168D01*
X113164778Y-98321975D01*
X112865904Y-98231901D01*
X112581932Y-98174889D01*
X112462135Y-98161922D01*
X112308966Y-98153945D01*
X112135589Y-98150820D01*
X111955169Y-98152411D01*
X111780870Y-98158579D01*
X111625857Y-98169188D01*
X111503296Y-98184101D01*
X111490989Y-98186247D01*
X111177567Y-98258445D01*
X110890850Y-98354869D01*
X110633537Y-98473505D01*
X110408326Y-98612336D01*
X110217914Y-98769349D01*
X110065000Y-98942529D01*
X109952281Y-99129861D01*
X109882455Y-99329329D01*
X109869306Y-99397340D01*
X109861757Y-99593620D01*
X109792804Y-99593620D01*
X109789462Y-99512037D01*
X109797822Y-99376672D01*
X109811730Y-99287828D01*
X109840239Y-99196197D01*
X109886697Y-99092606D01*
X109941217Y-98996692D01*
X109991740Y-98930294D01*
X110024742Y-98891064D01*
X110068189Y-98833343D01*
X110078417Y-98818984D01*
X110128888Y-98756474D01*
X110196565Y-98683904D01*
X110238214Y-98643566D01*
X110278015Y-98607744D01*
X110316076Y-98576771D01*
X110359205Y-98546642D01*
X110414214Y-98513353D01*
X110487911Y-98472899D01*
X110587108Y-98421274D01*
X110718614Y-98354473D01*
X110796970Y-98314957D01*
X110849360Y-98297052D01*
X110872099Y-98294210D01*
X110911172Y-98284085D01*
X110975306Y-98258063D01*
X111024091Y-98234920D01*
X111102318Y-98201234D01*
X111173650Y-98179754D01*
X111204745Y-98175629D01*
X111274862Y-98162759D01*
X111319881Y-98142718D01*
X111390246Y-98116395D01*
X111507526Y-98096163D01*
X111671599Y-98082032D01*
X111882337Y-98074014D01*
X112072035Y-98072019D01*
X112334371Y-98077103D01*
G37*
G36*
X116257691Y-99103746D02*
G01*
X116321847Y-99112115D01*
X116352530Y-99123876D01*
X116352800Y-99124276D01*
X116385099Y-99141840D01*
X116432463Y-99147992D01*
X116489250Y-99156046D01*
X116521162Y-99171684D01*
X116553918Y-99185440D01*
X116621784Y-99202417D01*
X116712819Y-99219837D01*
X116761668Y-99227605D01*
X116887907Y-99250168D01*
X116982527Y-99277432D01*
X117061340Y-99314459D01*
X117092532Y-99333492D01*
X117236135Y-99447801D01*
X117335609Y-99577753D01*
X117392387Y-99725799D01*
X117408169Y-99873643D01*
X117410573Y-99963937D01*
X117421553Y-100025557D01*
X117446759Y-100077172D01*
X117485696Y-100129769D01*
X117602525Y-100312955D01*
X117675458Y-100513854D01*
X117682953Y-100547245D01*
X117689955Y-100608088D01*
X117694872Y-100705224D01*
X117697729Y-100827556D01*
X117698552Y-100963992D01*
X117697364Y-101103437D01*
X117694192Y-101234798D01*
X117689059Y-101346980D01*
X117681992Y-101428890D01*
X117680952Y-101436600D01*
X117665879Y-101512292D01*
X117646727Y-101570996D01*
X117637022Y-101588272D01*
X117623707Y-101630837D01*
X117616347Y-101715442D01*
X117615337Y-101837024D01*
X117615821Y-101860837D01*
X117616339Y-101990383D01*
X117609945Y-102083340D01*
X117595590Y-102150186D01*
X117583831Y-102179806D01*
X117561605Y-102244752D01*
X117556846Y-102299110D01*
X117557878Y-102304307D01*
X117557805Y-102368973D01*
X117536166Y-102456863D01*
X117498309Y-102552149D01*
X117449587Y-102638999D01*
X117440298Y-102652210D01*
X117357814Y-102757423D01*
X117284460Y-102836316D01*
X117225602Y-102883601D01*
X117193747Y-102895144D01*
X117151218Y-102908986D01*
X117104882Y-102954122D01*
X117049875Y-103035969D01*
X117019211Y-103089437D01*
X116973970Y-103193464D01*
X116958802Y-103283318D01*
X116974755Y-103350195D01*
X116986367Y-103365069D01*
X116999116Y-103384575D01*
X117011010Y-103420029D01*
X117023068Y-103477389D01*
X117036310Y-103562613D01*
X117051756Y-103681657D01*
X117070426Y-103840478D01*
X117075698Y-103886933D01*
X117089726Y-103990179D01*
X117106715Y-104085029D01*
X117123421Y-104153864D01*
X117126518Y-104163165D01*
X117143045Y-104234887D01*
X117130697Y-104300226D01*
X117125298Y-104313953D01*
X117077751Y-104382888D01*
X117000623Y-104449775D01*
X116910537Y-104501850D01*
X116855582Y-104521071D01*
X116806342Y-104547869D01*
X116799017Y-104586905D01*
X116833992Y-104627507D01*
X116851385Y-104637685D01*
X116996356Y-104722944D01*
X117129750Y-104827510D01*
X117236227Y-104930186D01*
X117301995Y-105000023D01*
X117352788Y-105057734D01*
X117381074Y-105094581D01*
X117384453Y-105102094D01*
X117399382Y-105132969D01*
X117416952Y-105153573D01*
X117460691Y-105211970D01*
X117499723Y-105287413D01*
X117523664Y-105358170D01*
X117526750Y-105383337D01*
X117511730Y-105429133D01*
X117473791Y-105489390D01*
X117452256Y-105515966D01*
X117407582Y-105572040D01*
X117392138Y-105611574D01*
X117400445Y-105650353D01*
X117403330Y-105656926D01*
X117446250Y-105730901D01*
X117513876Y-105824436D01*
X117598150Y-105928529D01*
X117691013Y-106034176D01*
X117784408Y-106132375D01*
X117870276Y-106214122D01*
X117940561Y-106270415D01*
X117965944Y-106285531D01*
X118026933Y-106318752D01*
X118072221Y-106348877D01*
X118140018Y-106392432D01*
X118242954Y-106444264D01*
X118370561Y-106499623D01*
X118512370Y-106553755D01*
X118560440Y-106570520D01*
X118694013Y-106615821D01*
X118790430Y-106647941D01*
X118857385Y-106669130D01*
X118902572Y-106681640D01*
X118933686Y-106687723D01*
X118958421Y-106689630D01*
X118967790Y-106689728D01*
X119014945Y-106699738D01*
X119032726Y-106713445D01*
X119061465Y-106723897D01*
X119126143Y-106731998D01*
X119215279Y-106736567D01*
X119263674Y-106737161D01*
X119431459Y-106730480D01*
X119564445Y-106709183D01*
X119673524Y-106671383D01*
X119690096Y-106663370D01*
X119828355Y-106618826D01*
X119975286Y-106614819D01*
X120121771Y-106647917D01*
X120258694Y-106714687D01*
X120376939Y-106811697D01*
X120467387Y-106935513D01*
X120480252Y-106960886D01*
X120507157Y-107060040D01*
X120488077Y-107147818D01*
X120439078Y-107210827D01*
X120407297Y-107234238D01*
X120365719Y-107248688D01*
X120303003Y-107256200D01*
X120207810Y-107258794D01*
X120169384Y-107258916D01*
X119951307Y-107258916D01*
X119899193Y-107387315D01*
X119869232Y-107476141D01*
X119867047Y-107541301D01*
X119897401Y-107593203D01*
X119965056Y-107642253D01*
X120032188Y-107677985D01*
X120166376Y-107766942D01*
X120246230Y-107851820D01*
X120288232Y-107911137D01*
X120311142Y-107959079D01*
X120319453Y-108013295D01*
X120317661Y-108091435D01*
X120315677Y-108124556D01*
X120302395Y-108281153D01*
X120282333Y-108396560D01*
X120251432Y-108476940D01*
X120205628Y-108528456D01*
X120140863Y-108557272D01*
X120053074Y-108569551D01*
X120021573Y-108570934D01*
X119935733Y-108570479D01*
X119879715Y-108559745D01*
X119836252Y-108534135D01*
X119815797Y-108516166D01*
X119768936Y-108454361D01*
X119731698Y-108375150D01*
X119725835Y-108356082D01*
X119699011Y-108285032D01*
X119664726Y-108259277D01*
X119616610Y-108277055D01*
X119572166Y-108313644D01*
X119531295Y-108357180D01*
X119521725Y-108395150D01*
X119537502Y-108451350D01*
X119537627Y-108451696D01*
X119565547Y-108594232D01*
X119554268Y-108747498D01*
X119504992Y-108896821D01*
X119430534Y-109017717D01*
X119337602Y-109113869D01*
X119235034Y-109178148D01*
X119131672Y-109203427D01*
X119124558Y-109203552D01*
X119044920Y-109193242D01*
X118964803Y-109166742D01*
X118900567Y-109130962D01*
X118869589Y-109095862D01*
X118854868Y-109015504D01*
X118857110Y-108912726D01*
X118874421Y-108808630D01*
X118902573Y-108728757D01*
X118950291Y-108635222D01*
X118864239Y-108539973D01*
X118796465Y-108475981D01*
X118737620Y-108447698D01*
X118709476Y-108444724D01*
X118643844Y-108437576D01*
X118599584Y-108423775D01*
X118545206Y-108398381D01*
X118499112Y-108378706D01*
X118442045Y-108354694D01*
X118365108Y-108321379D01*
X118327429Y-108304790D01*
X118251563Y-108275630D01*
X118185204Y-108257548D01*
X118161416Y-108254689D01*
X118084895Y-108243623D01*
X117975490Y-108213499D01*
X117841967Y-108167947D01*
X117693095Y-108110599D01*
X117537643Y-108045085D01*
X117384379Y-107975036D01*
X117242070Y-107904084D01*
X117119485Y-107835858D01*
X117060846Y-107798945D01*
X116998761Y-107760736D01*
X116950786Y-107737040D01*
X116936336Y-107733239D01*
X116923351Y-107755131D01*
X116915205Y-107813979D01*
X116912004Y-107899547D01*
X116913857Y-108001594D01*
X116920872Y-108109883D01*
X116931398Y-108202198D01*
X116938831Y-108288863D01*
X116930052Y-108338564D01*
X116920026Y-108351487D01*
X116904875Y-108352910D01*
X116893288Y-108324268D01*
X116883828Y-108259547D01*
X116876066Y-108167122D01*
X116864521Y-108032548D01*
X116848600Y-107904839D01*
X116826096Y-107770817D01*
X116794801Y-107617304D01*
X116753528Y-107435470D01*
X116662984Y-107094626D01*
X116559446Y-106792991D01*
X116440044Y-106523437D01*
X116301909Y-106278834D01*
X116265597Y-106222969D01*
X116201065Y-106128375D01*
X116155363Y-106068846D01*
X116122387Y-106039098D01*
X116096032Y-106033849D01*
X116070192Y-106047814D01*
X116066595Y-106050730D01*
X116035269Y-106069443D01*
X116018570Y-106057730D01*
X116015464Y-106010879D01*
X116016260Y-106003577D01*
X116197559Y-106003577D01*
X116219421Y-106029629D01*
X116246382Y-106055723D01*
X116289762Y-106115258D01*
X116344270Y-106199500D01*
X116404615Y-106299718D01*
X116465504Y-106407179D01*
X116521647Y-106513152D01*
X116559597Y-106591008D01*
X116616732Y-106719617D01*
X116665556Y-106842835D01*
X116710556Y-106973692D01*
X116756218Y-107125218D01*
X116805906Y-107306217D01*
X116835822Y-107408127D01*
X116866733Y-107496106D01*
X116893956Y-107557517D01*
X116905656Y-107575386D01*
X116953948Y-107617610D01*
X117033477Y-107675394D01*
X117133625Y-107741982D01*
X117243776Y-107810617D01*
X117353312Y-107874542D01*
X117451614Y-107927002D01*
X117479318Y-107940429D01*
X117610938Y-107998678D01*
X117740278Y-108047593D01*
X117883939Y-108092925D01*
X118050187Y-108138272D01*
X118170555Y-108174314D01*
X118301764Y-108220987D01*
X118410383Y-108265991D01*
X118516516Y-108309710D01*
X118629453Y-108348414D01*
X118724416Y-108373645D01*
X118817103Y-108394689D01*
X118877685Y-108418657D01*
X118920922Y-108455781D01*
X118961575Y-108516295D01*
X118982053Y-108552263D01*
X119039612Y-108655247D01*
X118982807Y-108767450D01*
X118943482Y-108867522D01*
X118926962Y-108960702D01*
X118935100Y-109033381D01*
X118944153Y-109051512D01*
X119002718Y-109099681D01*
X119085608Y-109122628D01*
X119176459Y-109119505D01*
X119258904Y-109089462D01*
X119286346Y-109069283D01*
X119355776Y-108992083D01*
X119422630Y-108893660D01*
X119473757Y-108794692D01*
X119489959Y-108749163D01*
X119500508Y-108691035D01*
X119494897Y-108633254D01*
X119470513Y-108557784D01*
X119457436Y-108524780D01*
X119401178Y-108386360D01*
X119501546Y-108282921D01*
X119564139Y-108223585D01*
X119621569Y-108177768D01*
X119652270Y-108159677D01*
X119694887Y-108123254D01*
X119719396Y-108073057D01*
X119746838Y-108000310D01*
X119782288Y-107955361D01*
X119804865Y-107946684D01*
X119811950Y-107968554D01*
X119814742Y-108027120D01*
X119812963Y-108111816D01*
X119810411Y-108158546D01*
X119796685Y-108370408D01*
X119869417Y-108443140D01*
X119952621Y-108501338D01*
X120037472Y-108515311D01*
X120117321Y-108484619D01*
X120144831Y-108461292D01*
X120177911Y-108414805D01*
X120203539Y-108344293D01*
X120225325Y-108239156D01*
X120229707Y-108211964D01*
X120243965Y-108115786D01*
X120249280Y-108052572D01*
X120244192Y-108008449D01*
X120227244Y-107969543D01*
X120199661Y-107926034D01*
X120143562Y-107852325D01*
X120074512Y-107786013D01*
X119981302Y-107717422D01*
X119892436Y-107660889D01*
X119826201Y-107616541D01*
X119792429Y-107579659D01*
X119780938Y-107536941D01*
X119780305Y-107514387D01*
X119796020Y-107421720D01*
X119835520Y-107320793D01*
X119888976Y-107233892D01*
X119917796Y-107202726D01*
X119974046Y-107171498D01*
X120045656Y-107173509D01*
X120168301Y-107195778D01*
X120254161Y-107206330D01*
X120312559Y-107204579D01*
X120352817Y-107189937D01*
X120384260Y-107161817D01*
X120392597Y-107151647D01*
X120427884Y-107093857D01*
X120443767Y-107042296D01*
X120443837Y-107039756D01*
X120424892Y-106979696D01*
X120374803Y-106907472D01*
X120303687Y-106834312D01*
X120221662Y-106771445D01*
X120180947Y-106747999D01*
X120073763Y-106706526D01*
X119960320Y-106690951D01*
X119831128Y-106701542D01*
X119676694Y-106738570D01*
X119594274Y-106764652D01*
X119490669Y-106798628D01*
X119416438Y-106819009D01*
X119356051Y-106827478D01*
X119293979Y-106825717D01*
X119214691Y-106815409D01*
X119177884Y-106809766D01*
X118919286Y-106758789D01*
X118660497Y-106687415D01*
X118411836Y-106599548D01*
X118183624Y-106499091D01*
X117986180Y-106389948D01*
X117885430Y-106320904D01*
X117771484Y-106222181D01*
X117645752Y-106091817D01*
X117517162Y-105940838D01*
X117394644Y-105780272D01*
X117287128Y-105621146D01*
X117209463Y-105486134D01*
X117171276Y-105434352D01*
X117119248Y-105411040D01*
X117044585Y-105414927D01*
X116938495Y-105444743D01*
X116933846Y-105446329D01*
X116685795Y-105553734D01*
X116465546Y-105695230D01*
X116359447Y-105785458D01*
X116267096Y-105879768D01*
X116212887Y-105952905D01*
X116197559Y-106003577D01*
X116016260Y-106003577D01*
X116024914Y-105924178D01*
X116030520Y-105886606D01*
X116038119Y-105825169D01*
X116118197Y-105825169D01*
X116121327Y-105864831D01*
X116122357Y-105867811D01*
X116143423Y-105863767D01*
X116187064Y-105832784D01*
X116231061Y-105793545D01*
X116309540Y-105722634D01*
X116399711Y-105647532D01*
X116443996Y-105613117D01*
X116598565Y-105515577D01*
X116783084Y-105428170D01*
X116857907Y-105401439D01*
X117265630Y-105401439D01*
X117278532Y-105461812D01*
X117280268Y-105466407D01*
X117313499Y-105498460D01*
X117363652Y-105499231D01*
X117403426Y-105475461D01*
X117428488Y-105427877D01*
X117431885Y-105404313D01*
X117420344Y-105374387D01*
X117378275Y-105362569D01*
X117348879Y-105361624D01*
X117287537Y-105370400D01*
X117265630Y-105401439D01*
X116857907Y-105401439D01*
X116980187Y-105357754D01*
X117172504Y-105311183D01*
X117231432Y-105302281D01*
X117327719Y-105286960D01*
X117382052Y-105267994D01*
X117399911Y-105241302D01*
X117386774Y-105202804D01*
X117379848Y-105191706D01*
X117293441Y-105080189D01*
X117179506Y-104961197D01*
X117052678Y-104848981D01*
X116947697Y-104770923D01*
X116846378Y-104704266D01*
X116774369Y-104662292D01*
X116722067Y-104642567D01*
X116679866Y-104642654D01*
X116638163Y-104660117D01*
X116601476Y-104683126D01*
X116530039Y-104721798D01*
X116460716Y-104746267D01*
X116445118Y-104749031D01*
X116402915Y-104757510D01*
X116383349Y-104779342D01*
X116378418Y-104828358D01*
X116378855Y-104863585D01*
X116380341Y-104930005D01*
X116382612Y-105029824D01*
X116385347Y-105149021D01*
X116387967Y-105262390D01*
X116388855Y-105376359D01*
X116386318Y-105473307D01*
X116380846Y-105543257D01*
X116372930Y-105576235D01*
X116372528Y-105576687D01*
X116338991Y-105578564D01*
X116281825Y-105548085D01*
X116269872Y-105539553D01*
X116207807Y-105497544D01*
X116167414Y-105484809D01*
X116143261Y-105505925D01*
X116129917Y-105565466D01*
X116122179Y-105664005D01*
X116118477Y-105753870D01*
X116118197Y-105825169D01*
X116038119Y-105825169D01*
X116047815Y-105746787D01*
X116054789Y-105607514D01*
X116051409Y-105455089D01*
X116037639Y-105275816D01*
X116028800Y-105189682D01*
X116012467Y-105062703D01*
X115995720Y-104978053D01*
X115979032Y-104937888D01*
X115973035Y-104934733D01*
X115948690Y-104953321D01*
X115905860Y-105003372D01*
X115851500Y-105076314D01*
X115814309Y-105130391D01*
X115710698Y-105281219D01*
X115619929Y-105404451D01*
X115544736Y-105496737D01*
X115487849Y-105554726D01*
X115452001Y-105575067D01*
X115451764Y-105575069D01*
X115421844Y-105556399D01*
X115378347Y-105507813D01*
X115337530Y-105450103D01*
X115302616Y-105390979D01*
X115255934Y-105305627D01*
X115201836Y-105202744D01*
X115144675Y-105091026D01*
X115088804Y-104979170D01*
X115038576Y-104875872D01*
X114998343Y-104789829D01*
X114972459Y-104729737D01*
X114964990Y-104705812D01*
X114949674Y-104679902D01*
X114909592Y-104629897D01*
X114852889Y-104565856D01*
X114843094Y-104555275D01*
X114774309Y-104477754D01*
X114694138Y-104381766D01*
X114610573Y-104277528D01*
X114531608Y-104175257D01*
X114465235Y-104085168D01*
X114419448Y-104017478D01*
X114410588Y-104002469D01*
X114341797Y-103884853D01*
X114289738Y-103810397D01*
X114254709Y-103779505D01*
X114246389Y-103779105D01*
X114229990Y-103805029D01*
X114210847Y-103865204D01*
X114192953Y-103946926D01*
X114192039Y-103952046D01*
X114154177Y-104124440D01*
X114101916Y-104303831D01*
X114041412Y-104470917D01*
X113990276Y-104584598D01*
X113972338Y-104647438D01*
X113972221Y-104714260D01*
X113988202Y-104758048D01*
X114007402Y-104793597D01*
X114031811Y-104854152D01*
X114038442Y-104873035D01*
X114075050Y-104963162D01*
X114122289Y-105055112D01*
X114173594Y-105138608D01*
X114222401Y-105203377D01*
X114262146Y-105239141D01*
X114274813Y-105243043D01*
X114305300Y-105225813D01*
X114360745Y-105177720D01*
X114435528Y-105104161D01*
X114524029Y-105010535D01*
X114571162Y-104958449D01*
X114658413Y-104862198D01*
X114735611Y-104779865D01*
X114796935Y-104717435D01*
X114836568Y-104680893D01*
X114847858Y-104673855D01*
X114868028Y-104682342D01*
X114863020Y-104710097D01*
X114830622Y-104760568D01*
X114768623Y-104837199D01*
X114674883Y-104943357D01*
X114552915Y-105077287D01*
X114457991Y-105178956D01*
X114386259Y-105252096D01*
X114333871Y-105300441D01*
X114296976Y-105327721D01*
X114271725Y-105337669D01*
X114267911Y-105337908D01*
X114232224Y-105320308D01*
X114186936Y-105276498D01*
X114174355Y-105260830D01*
X114135804Y-105203238D01*
X114090342Y-105125862D01*
X114044479Y-105041128D01*
X114004728Y-104961466D01*
X113977599Y-104899304D01*
X113969327Y-104869484D01*
X113953858Y-104830474D01*
X113904633Y-104805014D01*
X113817426Y-104791899D01*
X113690103Y-104789881D01*
X113586344Y-104793499D01*
X113518805Y-104800883D01*
X113476291Y-104814440D01*
X113447608Y-104836576D01*
X113441643Y-104843309D01*
X113410793Y-104885961D01*
X113400139Y-104910722D01*
X113418939Y-104927716D01*
X113468976Y-104962910D01*
X113540705Y-105010282D01*
X113624580Y-105063809D01*
X113711058Y-105117470D01*
X113790593Y-105165243D01*
X113853640Y-105201106D01*
X113886022Y-105217270D01*
X113924090Y-105239608D01*
X113990003Y-105284514D01*
X114074421Y-105345107D01*
X114168007Y-105414509D01*
X114261420Y-105485838D01*
X114345323Y-105552215D01*
X114384360Y-105584395D01*
X114473125Y-105660718D01*
X114542657Y-105725987D01*
X114603092Y-105791610D01*
X114664568Y-105868996D01*
X114737221Y-105969556D01*
X114776450Y-106025676D01*
X114865537Y-106151917D01*
X114937764Y-106246262D01*
X115002464Y-106316362D01*
X115068969Y-106369865D01*
X115146612Y-106414420D01*
X115244728Y-106457676D01*
X115356722Y-106501237D01*
X115451303Y-106541540D01*
X115543967Y-106587985D01*
X115593883Y-106617357D01*
X115679269Y-106693715D01*
X115761736Y-106804133D01*
X115832899Y-106935554D01*
X115881693Y-107065545D01*
X115902210Y-107146658D01*
X115905805Y-107204351D01*
X115892975Y-107259325D01*
X115886738Y-107276443D01*
X115826223Y-107374165D01*
X115733064Y-107438197D01*
X115626238Y-107465248D01*
X115555280Y-107467596D01*
X115497694Y-107451344D01*
X115430875Y-107409664D01*
X115422725Y-107403769D01*
X115333788Y-107318065D01*
X115273906Y-107223761D01*
X115240766Y-107158889D01*
X115209874Y-107127178D01*
X115167468Y-107117141D01*
X115145580Y-107116619D01*
X115019370Y-107138870D01*
X114900302Y-107201092D01*
X114837804Y-107255569D01*
X114769493Y-107327256D01*
X114796301Y-107507500D01*
X114816749Y-107686218D01*
X114817849Y-107829005D01*
X114798177Y-107943842D01*
X114756310Y-108038713D01*
X114690825Y-108121601D01*
X114685953Y-108126529D01*
X114593284Y-108190499D01*
X114492510Y-108211287D01*
X114391224Y-108190474D01*
X114297019Y-108129636D01*
X114217485Y-108030355D01*
X114216650Y-108028935D01*
X114183900Y-107965408D01*
X114163864Y-107901610D01*
X114153005Y-107821500D01*
X114148021Y-107717505D01*
X114144129Y-107617521D01*
X114137445Y-107554097D01*
X114125082Y-107516363D01*
X114104153Y-107493447D01*
X114085421Y-107481808D01*
X114010517Y-107454150D01*
X113945516Y-107462842D01*
X113886906Y-107510662D01*
X113831170Y-107600387D01*
X113778727Y-107724165D01*
X113715409Y-107853489D01*
X113638374Y-107947254D01*
X113553036Y-108003875D01*
X113464811Y-108021767D01*
X113379111Y-107999345D01*
X113301353Y-107935023D01*
X113260837Y-107875794D01*
X113218106Y-107752757D01*
X113216686Y-107608523D01*
X113256574Y-107442051D01*
X113259159Y-107434540D01*
X113287192Y-107353528D01*
X113310152Y-107286324D01*
X113321020Y-107253737D01*
X113314461Y-107209376D01*
X113279044Y-107141085D01*
X113248554Y-107096404D01*
X113203180Y-107031171D01*
X113172152Y-106980020D01*
X113162978Y-106957492D01*
X113140492Y-106915661D01*
X113075600Y-106865797D01*
X112972154Y-106810367D01*
X112854668Y-106759883D01*
X112595347Y-106640866D01*
X112343707Y-106493519D01*
X112109854Y-106325072D01*
X111903892Y-106142755D01*
X111745682Y-105966386D01*
X111690804Y-105896908D01*
X111639268Y-105832561D01*
X111622732Y-105812231D01*
X111574104Y-105752940D01*
X111422496Y-105910495D01*
X111206297Y-106167517D01*
X111032626Y-106445361D01*
X110900845Y-106745190D01*
X110826335Y-106996693D01*
X110810171Y-107076351D01*
X110809199Y-107137009D01*
X110825056Y-107202380D01*
X110844240Y-107256168D01*
X110950830Y-107480333D01*
X111098783Y-107691810D01*
X111289924Y-107892776D01*
X111526078Y-108085409D01*
X111558904Y-108109047D01*
X111933444Y-108346629D01*
X112340038Y-108550166D01*
X112777264Y-108719217D01*
X113243706Y-108853344D01*
X113737942Y-108952109D01*
X114258554Y-109015072D01*
X114550373Y-109034042D01*
X115013101Y-109040485D01*
X115447811Y-109016013D01*
X115852442Y-108960946D01*
X116224932Y-108875602D01*
X116563223Y-108760300D01*
X116696685Y-108702046D01*
X116787916Y-108657302D01*
X116843918Y-108621513D01*
X116873238Y-108585383D01*
X116884426Y-108539614D01*
X116886051Y-108496109D01*
X116894643Y-108440793D01*
X116914050Y-108425853D01*
X116935770Y-108448345D01*
X116951301Y-108505323D01*
X116952802Y-108519231D01*
X116947547Y-108590693D01*
X116910691Y-108650412D01*
X116896207Y-108665624D01*
X116844044Y-108707580D01*
X116797785Y-108728713D01*
X116791549Y-108729318D01*
X116749526Y-108745463D01*
X116697339Y-108784298D01*
X116650977Y-108831414D01*
X116626425Y-108872408D01*
X116625536Y-108878910D01*
X116639729Y-108915480D01*
X116658078Y-108940896D01*
X116688850Y-108983463D01*
X116737748Y-109059444D01*
X116800006Y-109160706D01*
X116870860Y-109279121D01*
X116945545Y-109406557D01*
X117019296Y-109534883D01*
X117087348Y-109655970D01*
X117144937Y-109761686D01*
X117187298Y-109843901D01*
X117187427Y-109844165D01*
X117273383Y-110021902D01*
X117341002Y-110167782D01*
X117394046Y-110291920D01*
X117436272Y-110404431D01*
X117471441Y-110515429D01*
X117503312Y-110635029D01*
X117535645Y-110773347D01*
X117539941Y-110792614D01*
X117552139Y-110873414D01*
X117561829Y-110988105D01*
X117568892Y-111126278D01*
X117573210Y-111277524D01*
X117574665Y-111431434D01*
X117573140Y-111577599D01*
X117568517Y-111705610D01*
X117560677Y-111805058D01*
X117551999Y-111857098D01*
X117537216Y-111924072D01*
X117519603Y-112017946D01*
X117502921Y-112118647D01*
X117502602Y-112120727D01*
X117483905Y-112231630D01*
X117459177Y-112363370D01*
X117433211Y-112490603D01*
X117428562Y-112512044D01*
X117404210Y-112624250D01*
X117380676Y-112734715D01*
X117362072Y-112824088D01*
X117358031Y-112844070D01*
X117338712Y-112938544D01*
X117318624Y-113033605D01*
X117312495Y-113061772D01*
X117303196Y-113126342D01*
X117309658Y-113183591D01*
X117336450Y-113242101D01*
X117388141Y-113310455D01*
X117469300Y-113397236D01*
X117515865Y-113443807D01*
X117652875Y-113591288D01*
X117757312Y-113734345D01*
X117839504Y-113888786D01*
X117892030Y-114019565D01*
X117937222Y-114169623D01*
X117951683Y-114287415D01*
X117935182Y-114377001D01*
X117887488Y-114442441D01*
X117867100Y-114457946D01*
X117761557Y-114511298D01*
X117617574Y-114558342D01*
X117443896Y-114597612D01*
X117249268Y-114627643D01*
X117042434Y-114646972D01*
X116832139Y-114654133D01*
X116708543Y-114652003D01*
X116502701Y-114641525D01*
X116335365Y-114626430D01*
X116197699Y-114605076D01*
X116080872Y-114575826D01*
X115976048Y-114537041D01*
X115903832Y-114502696D01*
X115814795Y-114459014D01*
X115750497Y-114435453D01*
X115694823Y-114428032D01*
X115631658Y-114432771D01*
X115624551Y-114433727D01*
X115528841Y-114454000D01*
X115474958Y-114485849D01*
X115457698Y-114534657D01*
X115468472Y-114595248D01*
X115480677Y-114672239D01*
X115460810Y-114742447D01*
X115460314Y-114743487D01*
X115410710Y-114804901D01*
X115328404Y-114864571D01*
X115227645Y-114914035D01*
X115122686Y-114944833D01*
X115120530Y-114945220D01*
X115052642Y-114957193D01*
X114955584Y-114974260D01*
X114846910Y-114993333D01*
X114811250Y-114999584D01*
X114637179Y-115022260D01*
X114440681Y-115034888D01*
X114234875Y-115037678D01*
X114032881Y-115030842D01*
X113847817Y-115014590D01*
X113692803Y-114989135D01*
X113659016Y-114981029D01*
X113431831Y-114900792D01*
X113273949Y-114818861D01*
X113092469Y-114709783D01*
X112994374Y-114757178D01*
X112896036Y-114786125D01*
X112776845Y-114792935D01*
X112646332Y-114780378D01*
X112514023Y-114751226D01*
X112389449Y-114708249D01*
X112282137Y-114654219D01*
X112201616Y-114591907D01*
X112157414Y-114524084D01*
X112154342Y-114512875D01*
X112148797Y-114422923D01*
X112161309Y-114300375D01*
X112189288Y-114155338D01*
X112230145Y-113997921D01*
X112281291Y-113838228D01*
X112340136Y-113686369D01*
X112397024Y-113565724D01*
X112445897Y-113466592D01*
X112471261Y-113397982D01*
X112475990Y-113350999D01*
X112471923Y-113333914D01*
X112464752Y-113273916D01*
X112465841Y-113263164D01*
X112577657Y-113263164D01*
X112591378Y-113305089D01*
X112626886Y-113344167D01*
X112689880Y-113388384D01*
X112786055Y-113445724D01*
X112829813Y-113471068D01*
X113004087Y-113557129D01*
X113207722Y-113629509D01*
X113446369Y-113689888D01*
X113725680Y-113739945D01*
X113744024Y-113742682D01*
X113822481Y-113748784D01*
X113937084Y-113750665D01*
X114076777Y-113748808D01*
X114230506Y-113743694D01*
X114387217Y-113735804D01*
X114535856Y-113725619D01*
X114665369Y-113713621D01*
X114764701Y-113700290D01*
X114779484Y-113697601D01*
X114889450Y-113672152D01*
X114976561Y-113643802D01*
X115029236Y-113616387D01*
X115032111Y-113613894D01*
X115056707Y-113578397D01*
X115090718Y-113513336D01*
X115129670Y-113429446D01*
X115169088Y-113337457D01*
X115204497Y-113248102D01*
X115231423Y-113172115D01*
X115245390Y-113120227D01*
X115245130Y-113112633D01*
X115377204Y-113112633D01*
X115377852Y-113136338D01*
X115406846Y-113153564D01*
X115470783Y-113177927D01*
X115558350Y-113206069D01*
X115658234Y-113234635D01*
X115759120Y-113260269D01*
X115849694Y-113279617D01*
X115876395Y-113284208D01*
X115974354Y-113293888D01*
X116106043Y-113298856D01*
X116260000Y-113299480D01*
X116424762Y-113296130D01*
X116588866Y-113289174D01*
X116740848Y-113278982D01*
X116869245Y-113265921D01*
X116962593Y-113250361D01*
X116967951Y-113249082D01*
X117055748Y-113225925D01*
X117128760Y-113203910D01*
X117171397Y-113187744D01*
X117171765Y-113187549D01*
X117191223Y-113157819D01*
X117214442Y-113094825D01*
X117238456Y-113011228D01*
X117260297Y-112919689D01*
X117276997Y-112832870D01*
X117285589Y-112763431D01*
X117283106Y-112724035D01*
X117281121Y-112720974D01*
X117253139Y-112718475D01*
X117190268Y-112723491D01*
X117104264Y-112734947D01*
X117071126Y-112740235D01*
X116959523Y-112753645D01*
X116811760Y-112763636D01*
X116639023Y-112769642D01*
X116459523Y-112771133D01*
X116283591Y-112769043D01*
X116137733Y-112763366D01*
X116006363Y-112752453D01*
X115873896Y-112734657D01*
X115724745Y-112708329D01*
X115567318Y-112676795D01*
X115518945Y-112670282D01*
X115494401Y-112685029D01*
X115480190Y-112732300D01*
X115476245Y-112752786D01*
X115458521Y-112827558D01*
X115431424Y-112921143D01*
X115412189Y-112979976D01*
X115389205Y-113055210D01*
X115377204Y-113112633D01*
X115245130Y-113112633D01*
X115244825Y-113103727D01*
X115218518Y-113104320D01*
X115157592Y-113115238D01*
X115073194Y-113134345D01*
X115034439Y-113144038D01*
X114863704Y-113175866D01*
X114661939Y-113193615D01*
X114437185Y-113198201D01*
X114197486Y-113190539D01*
X113950885Y-113171544D01*
X113705423Y-113142132D01*
X113469145Y-113103219D01*
X113250092Y-113055719D01*
X113056307Y-113000548D01*
X112895834Y-112938621D01*
X112805380Y-112890331D01*
X112748032Y-112853838D01*
X112707102Y-112832434D01*
X112678169Y-112831287D01*
X112656812Y-112855564D01*
X112638609Y-112910433D01*
X112619141Y-113001063D01*
X112593985Y-113132621D01*
X112592793Y-113138833D01*
X112580028Y-113210407D01*
X112577657Y-113263164D01*
X112465841Y-113263164D01*
X112474582Y-113176896D01*
X112501751Y-113041137D01*
X112546599Y-112864921D01*
X112603583Y-112666199D01*
X112634221Y-112561363D01*
X112662328Y-112461627D01*
X112682947Y-112384675D01*
X112686673Y-112369747D01*
X112709611Y-112279442D01*
X112734527Y-112187125D01*
X112736529Y-112180018D01*
X112786228Y-111976141D01*
X112822618Y-111767843D01*
X112843845Y-111569382D01*
X112848055Y-111395017D01*
X112845254Y-111343415D01*
X112833320Y-111245410D01*
X112811296Y-111155793D01*
X112773971Y-111057600D01*
X112725046Y-110952099D01*
X112675111Y-110851056D01*
X112627999Y-110758551D01*
X112590544Y-110687875D01*
X112575975Y-110662184D01*
X112539164Y-110600428D01*
X112491688Y-110520321D01*
X112463429Y-110472455D01*
X112422066Y-110403713D01*
X112388575Y-110350611D01*
X112374376Y-110330158D01*
X112351474Y-110299665D01*
X112310253Y-110243025D01*
X112262145Y-110176003D01*
X112166259Y-110042356D01*
X112089626Y-109937112D01*
X112034609Y-109863471D01*
X112003574Y-109824634D01*
X111999307Y-109820261D01*
X111978269Y-109790224D01*
X111969496Y-109772828D01*
X111947922Y-109737232D01*
X111906011Y-109676511D01*
X111852386Y-109603109D01*
X111846264Y-109594957D01*
X111781967Y-109507063D01*
X111708120Y-109402067D01*
X111629359Y-109287035D01*
X111550321Y-109169031D01*
X111475640Y-109055119D01*
X111409951Y-108952363D01*
X111357891Y-108867829D01*
X111324095Y-108808581D01*
X111313118Y-108782440D01*
X111303255Y-108753047D01*
X111277447Y-108694352D01*
X111242714Y-108621991D01*
X111206299Y-108542890D01*
X111180597Y-108475983D01*
X111171565Y-108438473D01*
X111160210Y-108380775D01*
X111150000Y-108355466D01*
X111091855Y-108226243D01*
X111058877Y-108120182D01*
X111052240Y-108065860D01*
X111044847Y-108011391D01*
X111028524Y-107982259D01*
X111011578Y-107950269D01*
X111004808Y-107896380D01*
X111004074Y-107890876D01*
X111107813Y-107890876D01*
X111120817Y-107936713D01*
X111141297Y-108010428D01*
X111159630Y-108077123D01*
X111225370Y-108290643D01*
X111304265Y-108503474D01*
X111390257Y-108700688D01*
X111477291Y-108867355D01*
X111486525Y-108882944D01*
X111565565Y-109010209D01*
X111663353Y-109161182D01*
X111770851Y-109322443D01*
X111879022Y-109480572D01*
X111978829Y-109622147D01*
X112045874Y-109713538D01*
X112235840Y-109973333D01*
X112408683Y-110224954D01*
X112562064Y-110464340D01*
X112693647Y-110687425D01*
X112801093Y-110890148D01*
X112882065Y-111068446D01*
X112934226Y-111218255D01*
X112949222Y-111283741D01*
X112958638Y-111407789D01*
X112951557Y-111567359D01*
X112929277Y-111754007D01*
X112893100Y-111959288D01*
X112844327Y-112174760D01*
X112784256Y-112391977D01*
X112772837Y-112429037D01*
X112739728Y-112538451D01*
X112722786Y-112612942D01*
X112723271Y-112662615D01*
X112742441Y-112697575D01*
X112781556Y-112727927D01*
X112812388Y-112746529D01*
X113006712Y-112843615D01*
X113225714Y-112924800D01*
X113447283Y-112981972D01*
X113461485Y-112984708D01*
X113843681Y-113046839D01*
X114188787Y-113082149D01*
X114498765Y-113090737D01*
X114775577Y-113072702D01*
X114885221Y-113056731D01*
X114995551Y-113033717D01*
X115101868Y-113004824D01*
X115185287Y-112975356D01*
X115201826Y-112967795D01*
X115238751Y-112949832D01*
X115266983Y-112933502D01*
X115289433Y-112912275D01*
X115309012Y-112879624D01*
X115328630Y-112829019D01*
X115351198Y-112753933D01*
X115379626Y-112647836D01*
X115416826Y-112504200D01*
X115428339Y-112459729D01*
X115498411Y-112152196D01*
X115540898Y-111868649D01*
X115555043Y-111600044D01*
X115540090Y-111337341D01*
X115495282Y-111071497D01*
X115419863Y-110793469D01*
X115313075Y-110494216D01*
X115251141Y-110342016D01*
X115208280Y-110239627D01*
X115165819Y-110137403D01*
X115132470Y-110056328D01*
X115130605Y-110051747D01*
X115109581Y-110000070D01*
X115249999Y-110000070D01*
X115258729Y-110033527D01*
X115281883Y-110097981D01*
X115314907Y-110180959D01*
X115323856Y-110202386D01*
X115448665Y-110513235D01*
X115546481Y-110792781D01*
X115618252Y-111048049D01*
X115664929Y-111286065D01*
X115687459Y-111513853D01*
X115686792Y-111738440D01*
X115663878Y-111966850D01*
X115619665Y-112206108D01*
X115603865Y-112274882D01*
X115582822Y-112366136D01*
X115566949Y-112440620D01*
X115558942Y-112485503D01*
X115558475Y-112491056D01*
X115579622Y-112511584D01*
X115635994Y-112539294D01*
X115716694Y-112570301D01*
X115810823Y-112600721D01*
X115907484Y-112626667D01*
X115981982Y-112642047D01*
X116075379Y-112652369D01*
X116204445Y-112659133D01*
X116357553Y-112662367D01*
X116523076Y-112662097D01*
X116689386Y-112658353D01*
X116844856Y-112651161D01*
X116977859Y-112640550D01*
X116986238Y-112639657D01*
X117119643Y-112624202D01*
X117213359Y-112609539D01*
X117274951Y-112592383D01*
X117311987Y-112569446D01*
X117332033Y-112537443D01*
X117342656Y-112493088D01*
X117344041Y-112484268D01*
X117353622Y-112424794D01*
X117369251Y-112331808D01*
X117388688Y-112218499D01*
X117407794Y-112108869D01*
X117456588Y-111787522D01*
X117483750Y-111492192D01*
X117487832Y-111216016D01*
X117467387Y-110952129D01*
X117420967Y-110693669D01*
X117347123Y-110433772D01*
X117244408Y-110165575D01*
X117111375Y-109882214D01*
X116946575Y-109576826D01*
X116832367Y-109381040D01*
X116798560Y-109324143D01*
X116751199Y-109244120D01*
X116702806Y-109162137D01*
X116657534Y-109089795D01*
X116619493Y-109037014D01*
X116596222Y-109014154D01*
X116594900Y-109013911D01*
X116571785Y-109029950D01*
X116522132Y-109074051D01*
X116452388Y-109140191D01*
X116369000Y-109222347D01*
X116333145Y-109258469D01*
X116156992Y-109423580D01*
X115970008Y-109570395D01*
X115761321Y-109706460D01*
X115520056Y-109839321D01*
X115433799Y-109882587D01*
X115350852Y-109926308D01*
X115287367Y-109965360D01*
X115253226Y-109993428D01*
X115249999Y-110000070D01*
X115109581Y-110000070D01*
X115084879Y-109939350D01*
X115137794Y-109906697D01*
X115178121Y-109883781D01*
X115250882Y-109844267D01*
X115346385Y-109793357D01*
X115454937Y-109736251D01*
X115475303Y-109725617D01*
X115632458Y-109642064D01*
X115759451Y-109570099D01*
X115869228Y-109501522D01*
X115974734Y-109428135D01*
X116088915Y-109341740D01*
X116120534Y-109316989D01*
X116191387Y-109256301D01*
X116269623Y-109181467D01*
X116347554Y-109100888D01*
X116417496Y-109022960D01*
X116471762Y-108956084D01*
X116502666Y-108908656D01*
X116506955Y-108894761D01*
X116486274Y-108893023D01*
X116430761Y-108904987D01*
X116350213Y-108928290D01*
X116299439Y-108944862D01*
X116143857Y-108995339D01*
X116002633Y-109035372D01*
X115867010Y-109066098D01*
X115728233Y-109088659D01*
X115577542Y-109104194D01*
X115406183Y-109113843D01*
X115205396Y-109118746D01*
X114966426Y-109120042D01*
X114953547Y-109120033D01*
X114645842Y-109117161D01*
X114375338Y-109108468D01*
X114132044Y-109092909D01*
X113905970Y-109069439D01*
X113687127Y-109037013D01*
X113465523Y-108994587D01*
X113231168Y-108941114D01*
X113222268Y-108938946D01*
X112908609Y-108853335D01*
X112604727Y-108752945D01*
X112319216Y-108641246D01*
X112060669Y-108521708D01*
X111837679Y-108397800D01*
X111763725Y-108350068D01*
X111683296Y-108297472D01*
X111607282Y-108250731D01*
X111561534Y-108224993D01*
X111513890Y-108194251D01*
X111441852Y-108140318D01*
X111356370Y-108071634D01*
X111292352Y-108017530D01*
X111211917Y-107950699D01*
X111150952Y-107905401D01*
X111114878Y-107885355D01*
X111107813Y-107890876D01*
X111004074Y-107890876D01*
X110992637Y-107805075D01*
X110959430Y-107688961D01*
X110910147Y-107562902D01*
X110858124Y-107456832D01*
X110821571Y-107382513D01*
X110797322Y-107319056D01*
X110791362Y-107289633D01*
X110778450Y-107237950D01*
X110765312Y-107218636D01*
X110753071Y-107182195D01*
X110749927Y-107115981D01*
X110754339Y-107032747D01*
X110764766Y-106945245D01*
X110779667Y-106866228D01*
X110797500Y-106808450D01*
X110816723Y-106784662D01*
X110817770Y-106784593D01*
X110834995Y-106764755D01*
X110838795Y-106738277D01*
X110844390Y-106694135D01*
X110863481Y-106632500D01*
X110899529Y-106542986D01*
X110918174Y-106499999D01*
X110942769Y-106455348D01*
X110987559Y-106383862D01*
X111045073Y-106297236D01*
X111081234Y-106244782D01*
X111138883Y-106160765D01*
X111184568Y-106091170D01*
X111212446Y-106045075D01*
X111218253Y-106031894D01*
X111233968Y-106009003D01*
X111276379Y-105960680D01*
X111338387Y-105894775D01*
X111389829Y-105842205D01*
X111467128Y-105762970D01*
X111514962Y-105708803D01*
X111538257Y-105672103D01*
X111541936Y-105645269D01*
X111532125Y-105622595D01*
X111508173Y-105564210D01*
X111502847Y-105528763D01*
X111493665Y-105474991D01*
X111471379Y-105408274D01*
X111469552Y-105403932D01*
X111429797Y-105300569D01*
X111404442Y-105203751D01*
X111391389Y-105098970D01*
X111388540Y-104971717D01*
X111390783Y-104887301D01*
X111491654Y-104887301D01*
X111493157Y-105060411D01*
X111499733Y-105197901D01*
X111513491Y-105311490D01*
X111536539Y-105412897D01*
X111570986Y-105513842D01*
X111618940Y-105626044D01*
X111628188Y-105646218D01*
X111721426Y-105805553D01*
X111853678Y-105970504D01*
X112017881Y-106135441D01*
X112206968Y-106294736D01*
X112413874Y-106442761D01*
X112631534Y-106573887D01*
X112852883Y-106682487D01*
X113002017Y-106740634D01*
X113089359Y-106773487D01*
X113144680Y-106804124D01*
X113181767Y-106842635D01*
X113211924Y-106894259D01*
X113256750Y-106969456D01*
X113316910Y-107055760D01*
X113355893Y-107105704D01*
X113403494Y-107166851D01*
X113434186Y-107213215D01*
X113441240Y-107232815D01*
X113354660Y-107411624D01*
X113304840Y-107569612D01*
X113292280Y-107704400D01*
X113317482Y-107813606D01*
X113318456Y-107815685D01*
X113375348Y-107898213D01*
X113443078Y-107937995D01*
X113515954Y-107936744D01*
X113588282Y-107896174D01*
X113654370Y-107817998D01*
X113708524Y-107703928D01*
X113710697Y-107697665D01*
X113768729Y-107555954D01*
X113832334Y-107458549D01*
X113904735Y-107402384D01*
X113989155Y-107384391D01*
X114035507Y-107388516D01*
X114110573Y-107404333D01*
X114161986Y-107427585D01*
X114195057Y-107466907D01*
X114215093Y-107530936D01*
X114227403Y-107628306D01*
X114233587Y-107710732D01*
X114246974Y-107850325D01*
X114267866Y-107951511D01*
X114299961Y-108023165D01*
X114346958Y-108074158D01*
X114398504Y-108106419D01*
X114485449Y-108133658D01*
X114565609Y-108118043D01*
X114638934Y-108067098D01*
X114716386Y-107997782D01*
X114717104Y-107646136D01*
X114719616Y-107479374D01*
X114726287Y-107354172D01*
X114736962Y-107272664D01*
X114746449Y-107243249D01*
X114805702Y-107177983D01*
X114902861Y-107118607D01*
X115028402Y-107070386D01*
X115087416Y-107054701D01*
X115177587Y-107036547D01*
X115236599Y-107038009D01*
X115278879Y-107065595D01*
X115318854Y-107125814D01*
X115342200Y-107169648D01*
X115393376Y-107261987D01*
X115436668Y-107320482D01*
X115482307Y-107355128D01*
X115540524Y-107375918D01*
X115557490Y-107379953D01*
X115663618Y-107386914D01*
X115743373Y-107357129D01*
X115794718Y-107294565D01*
X115815618Y-107203188D01*
X115804036Y-107086965D01*
X115767112Y-106971556D01*
X115702289Y-106839494D01*
X115623746Y-106737148D01*
X115522523Y-106656987D01*
X115389663Y-106591479D01*
X115261857Y-106546810D01*
X115141181Y-106500676D01*
X115037252Y-106439162D01*
X114941169Y-106354703D01*
X114844029Y-106239731D01*
X114758359Y-106118894D01*
X114637242Y-105951185D01*
X114509658Y-105802050D01*
X114366712Y-105663023D01*
X114199511Y-105525636D01*
X113999160Y-105381422D01*
X113945611Y-105345160D01*
X113879486Y-105301992D01*
X113798128Y-105250557D01*
X113711357Y-105196839D01*
X113628990Y-105146822D01*
X113560843Y-105106491D01*
X113516736Y-105081828D01*
X113505709Y-105077030D01*
X113475786Y-105065098D01*
X113421617Y-105034669D01*
X113355658Y-104993794D01*
X113290365Y-104950524D01*
X113238194Y-104912910D01*
X113211602Y-104889003D01*
X113210410Y-104886165D01*
X113231024Y-104870309D01*
X113280688Y-104863586D01*
X113281559Y-104863585D01*
X113331527Y-104857604D01*
X113352702Y-104843194D01*
X113352707Y-104842949D01*
X113365194Y-104816166D01*
X113399147Y-104758774D01*
X113447935Y-104681514D01*
X113553622Y-104681514D01*
X113554417Y-104697771D01*
X113585464Y-104711578D01*
X113646078Y-104719160D01*
X113718824Y-104720493D01*
X113786270Y-104715551D01*
X113830981Y-104704310D01*
X113838516Y-104698174D01*
X113836039Y-104665384D01*
X113814182Y-104610034D01*
X113781382Y-104547980D01*
X113746080Y-104495079D01*
X113716714Y-104467187D01*
X113715293Y-104466644D01*
X113688131Y-104479517D01*
X113648912Y-104521047D01*
X113607106Y-104577628D01*
X113572186Y-104635653D01*
X113553622Y-104681514D01*
X113447935Y-104681514D01*
X113449303Y-104679347D01*
X113507166Y-104591291D01*
X113661625Y-104360269D01*
X113614465Y-104283963D01*
X113571030Y-104227277D01*
X113499661Y-104148799D01*
X113409038Y-104056894D01*
X113307837Y-103959927D01*
X113204736Y-103866265D01*
X113108414Y-103784272D01*
X113044397Y-103734408D01*
X112757604Y-103549536D01*
X112447912Y-103400943D01*
X112429815Y-103393617D01*
X112230266Y-103313566D01*
X112082006Y-103470057D01*
X111864975Y-103729228D01*
X111691825Y-104001810D01*
X111563795Y-104285805D01*
X111548320Y-104329971D01*
X111526915Y-104398243D01*
X111511683Y-104462618D01*
X111501584Y-104533347D01*
X111495575Y-104620679D01*
X111492613Y-104734866D01*
X111491656Y-104886158D01*
X111491654Y-104887301D01*
X111390783Y-104887301D01*
X111391413Y-104863585D01*
X111402862Y-104668859D01*
X111421190Y-104514146D01*
X111447454Y-104392382D01*
X111473133Y-104318113D01*
X111495271Y-104258075D01*
X111520862Y-104179162D01*
X111528949Y-104152100D01*
X111550377Y-104085522D01*
X111576050Y-104025127D01*
X111612115Y-103959686D01*
X111664715Y-103877966D01*
X111734080Y-103777200D01*
X111783255Y-103702531D01*
X111819142Y-103639861D01*
X111834704Y-103601601D01*
X111834873Y-103599414D01*
X111824668Y-103562005D01*
X111798026Y-103497360D01*
X111764025Y-103426170D01*
X111716257Y-103321197D01*
X111701453Y-103265233D01*
X111771688Y-103265233D01*
X111778434Y-103312417D01*
X111800952Y-103362882D01*
X111849435Y-103452375D01*
X111888189Y-103500040D01*
X111925969Y-103507729D01*
X111971530Y-103477298D01*
X112032486Y-103411910D01*
X112080251Y-103354382D01*
X112111844Y-103311167D01*
X112119467Y-103295764D01*
X112098036Y-103283855D01*
X112041815Y-103268216D01*
X111962914Y-103252209D01*
X111961864Y-103252026D01*
X111859066Y-103238024D01*
X111797119Y-103241431D01*
X111771688Y-103265233D01*
X111701453Y-103265233D01*
X111695982Y-103244551D01*
X111701791Y-103186953D01*
X111722221Y-103150919D01*
X111735860Y-103136311D01*
X111846109Y-103136311D01*
X111874290Y-103161045D01*
X111942574Y-103176536D01*
X111977404Y-103180522D01*
X112113244Y-103201990D01*
X112257203Y-103242319D01*
X112418204Y-103304644D01*
X112605168Y-103392101D01*
X112664089Y-103421880D01*
X112972895Y-103599588D01*
X113241667Y-103796962D01*
X113475215Y-104018211D01*
X113678348Y-104267545D01*
X113749177Y-104371474D01*
X113806279Y-104457231D01*
X113854649Y-104525731D01*
X113888225Y-104568632D01*
X113899967Y-104578991D01*
X113926959Y-104562808D01*
X113939246Y-104549346D01*
X113960264Y-104507334D01*
X113989008Y-104429540D01*
X114022412Y-104326370D01*
X114057411Y-104208232D01*
X114090940Y-104085531D01*
X114119934Y-103968674D01*
X114141326Y-103868068D01*
X114143580Y-103855648D01*
X114161251Y-103693993D01*
X114163003Y-103514988D01*
X114149837Y-103336144D01*
X114122755Y-103174969D01*
X114099950Y-103093162D01*
X114030687Y-102949768D01*
X114163768Y-102949768D01*
X114169931Y-102998781D01*
X114178106Y-103034167D01*
X114205324Y-103160929D01*
X114232958Y-103314452D01*
X114257438Y-103474233D01*
X114265975Y-103538718D01*
X114289874Y-103624583D01*
X114340776Y-103737549D01*
X114413659Y-103869729D01*
X114503495Y-104013239D01*
X114605260Y-104160194D01*
X114713929Y-104302709D01*
X114824477Y-104432899D01*
X114860946Y-104472268D01*
X114930146Y-104551638D01*
X114992140Y-104639072D01*
X115054197Y-104746157D01*
X115123583Y-104884477D01*
X115136199Y-104911017D01*
X115225637Y-105095301D01*
X115302796Y-105243966D01*
X115366487Y-105354965D01*
X115415520Y-105426249D01*
X115448706Y-105455768D01*
X115452922Y-105456488D01*
X115488573Y-105440399D01*
X115517034Y-105414985D01*
X115546198Y-105378643D01*
X115594964Y-105313956D01*
X115655574Y-105231327D01*
X115698381Y-105171895D01*
X115774089Y-105060158D01*
X115820532Y-104976525D01*
X115841027Y-104914632D01*
X115842703Y-104895169D01*
X115841990Y-104881968D01*
X116063918Y-104881968D01*
X116076633Y-104932630D01*
X116091636Y-105007495D01*
X116101495Y-105104228D01*
X116103781Y-105171060D01*
X116106076Y-105255841D01*
X116116824Y-105310301D01*
X116141817Y-105351477D01*
X116177437Y-105387683D01*
X116246562Y-105440478D01*
X116297990Y-105454765D01*
X116328222Y-105429641D01*
X116329292Y-105426843D01*
X116331135Y-105393440D01*
X116328869Y-105322331D01*
X116322984Y-105223021D01*
X116313970Y-105105013D01*
X116310761Y-105067745D01*
X116297192Y-104927912D01*
X116284359Y-104828916D01*
X116271010Y-104764200D01*
X116255898Y-104727209D01*
X116243372Y-104714157D01*
X116184888Y-104701276D01*
X116126383Y-104734865D01*
X116089873Y-104780378D01*
X116064896Y-104830488D01*
X116063918Y-104881968D01*
X115841990Y-104881968D01*
X115838463Y-104816696D01*
X115825860Y-104788077D01*
X115919252Y-104788077D01*
X115924089Y-104808101D01*
X115942498Y-104832139D01*
X115973623Y-104815919D01*
X116003603Y-104775552D01*
X116008916Y-104753958D01*
X115991817Y-104726701D01*
X115955939Y-104723822D01*
X115925208Y-104746140D01*
X115919252Y-104788077D01*
X115825860Y-104788077D01*
X115818561Y-104771503D01*
X115773007Y-104750618D01*
X115691810Y-104745068D01*
X115675510Y-104745004D01*
X115453226Y-104723518D01*
X115246025Y-104660730D01*
X115060144Y-104559144D01*
X114921851Y-104442410D01*
X114778844Y-104269427D01*
X114675415Y-104085825D01*
X114613462Y-103896850D01*
X114595439Y-103713351D01*
X114718394Y-103713351D01*
X114724611Y-103874052D01*
X114748260Y-104004097D01*
X114794776Y-104118722D01*
X114869598Y-104233162D01*
X114930858Y-104308682D01*
X115080002Y-104447365D01*
X115258600Y-104550051D01*
X115464202Y-104615847D01*
X115694358Y-104643855D01*
X115842903Y-104642167D01*
X115950871Y-104633386D01*
X116048963Y-104620769D01*
X116121851Y-104606473D01*
X116142296Y-104600084D01*
X116198181Y-104583836D01*
X116241150Y-104593924D01*
X116282349Y-104622735D01*
X116360936Y-104659605D01*
X116452457Y-104654955D01*
X116559691Y-104608266D01*
X116637394Y-104556421D01*
X116720972Y-104501976D01*
X116808949Y-104455993D01*
X116858272Y-104436488D01*
X116954918Y-104391375D01*
X117023036Y-104329973D01*
X117058117Y-104260211D01*
X117055652Y-104190020D01*
X117026045Y-104141428D01*
X117012539Y-104104929D01*
X117005062Y-104042121D01*
X117004569Y-104022847D01*
X116997968Y-103899567D01*
X116980710Y-103766210D01*
X116955083Y-103631167D01*
X116923372Y-103502827D01*
X116887862Y-103389580D01*
X116850841Y-103299816D01*
X116814594Y-103241924D01*
X116786932Y-103224110D01*
X116745952Y-103223345D01*
X116677771Y-103224925D01*
X116641895Y-103226395D01*
X116490557Y-103211400D01*
X116328635Y-103154567D01*
X116162503Y-103058356D01*
X116112631Y-103022057D01*
X116004377Y-102947046D01*
X115906425Y-102900322D01*
X115801155Y-102876213D01*
X115670949Y-102869045D01*
X115637871Y-102869170D01*
X115425371Y-102888254D01*
X115235398Y-102942467D01*
X115145477Y-102983408D01*
X115055875Y-103043477D01*
X114958288Y-103130968D01*
X114866885Y-103231363D01*
X114795837Y-103330146D01*
X114780691Y-103357139D01*
X114751485Y-103419589D01*
X114733136Y-103478899D01*
X114723155Y-103549314D01*
X114719049Y-103645078D01*
X114718394Y-103713351D01*
X114595439Y-103713351D01*
X114594889Y-103707750D01*
X114608717Y-103578101D01*
X114650021Y-103420187D01*
X114710718Y-103286468D01*
X114799419Y-103161247D01*
X114892998Y-103059969D01*
X115007199Y-102954634D01*
X115112526Y-102880324D01*
X115225075Y-102827737D01*
X115360944Y-102787573D01*
X115366891Y-102786141D01*
X115551911Y-102756106D01*
X115721889Y-102761143D01*
X115887210Y-102803317D01*
X116058260Y-102884693D01*
X116151213Y-102942063D01*
X116269748Y-103018510D01*
X116359693Y-103071475D01*
X116430994Y-103105138D01*
X116493596Y-103123676D01*
X116557444Y-103131265D01*
X116604114Y-103132305D01*
X116735485Y-103115744D01*
X116834889Y-103066830D01*
X116897870Y-102990785D01*
X116926181Y-102926896D01*
X116930025Y-102876447D01*
X116909456Y-102815945D01*
X116898329Y-102791891D01*
X116876842Y-102753769D01*
X116847956Y-102723202D01*
X116803057Y-102695290D01*
X116733535Y-102665134D01*
X116630776Y-102627833D01*
X116578104Y-102609701D01*
X116492956Y-102579518D01*
X116421222Y-102552149D01*
X116380499Y-102534488D01*
X116340409Y-102527484D01*
X116287602Y-102548431D01*
X116244364Y-102576163D01*
X116151679Y-102640394D01*
X116026936Y-102545420D01*
X115898631Y-102456930D01*
X115781869Y-102398906D01*
X115660044Y-102363641D01*
X115619499Y-102356260D01*
X115541248Y-102337539D01*
X115498825Y-102315558D01*
X115494748Y-102295252D01*
X115531537Y-102281551D01*
X115579795Y-102278524D01*
X115711760Y-102297848D01*
X115860818Y-102353586D01*
X116018207Y-102442385D01*
X116032004Y-102451562D01*
X116103783Y-102497797D01*
X116149731Y-102519468D01*
X116182053Y-102520350D01*
X116209563Y-102506503D01*
X116250189Y-102467991D01*
X116257230Y-102454351D01*
X116416740Y-102454351D01*
X116455357Y-102481686D01*
X116537709Y-102515677D01*
X116648458Y-102550437D01*
X116787649Y-102602809D01*
X116896083Y-102670115D01*
X116966663Y-102747565D01*
X116980384Y-102774404D01*
X117024378Y-102832456D01*
X117089815Y-102848786D01*
X117174748Y-102822936D01*
X117178496Y-102821032D01*
X117251023Y-102773619D01*
X117307422Y-102718504D01*
X117335733Y-102668014D01*
X117337021Y-102657655D01*
X117314428Y-102618814D01*
X117250698Y-102577752D01*
X117151904Y-102536833D01*
X117024120Y-102498422D01*
X116873418Y-102464883D01*
X116815265Y-102454547D01*
X116662813Y-102432732D01*
X116544894Y-102422863D01*
X116463349Y-102423882D01*
X116420018Y-102434730D01*
X116416740Y-102454351D01*
X116257230Y-102454351D01*
X116264881Y-102439530D01*
X116252175Y-102403428D01*
X116210653Y-102346781D01*
X116148903Y-102278207D01*
X116075512Y-102206329D01*
X115999070Y-102139766D01*
X115928163Y-102087138D01*
X115893335Y-102066589D01*
X115773459Y-102013802D01*
X115633566Y-101964963D01*
X115491586Y-101925411D01*
X115365447Y-101900484D01*
X115318685Y-101895466D01*
X115245952Y-101892085D01*
X115206639Y-101898833D01*
X115186863Y-101922312D01*
X115174013Y-101964285D01*
X115150664Y-102023672D01*
X115125130Y-102039045D01*
X115100478Y-102008886D01*
X115097705Y-102002086D01*
X115095056Y-101940215D01*
X115119208Y-101855140D01*
X115164977Y-101758680D01*
X115227180Y-101662656D01*
X115268952Y-101611590D01*
X115347631Y-101534901D01*
X115428914Y-101473646D01*
X115503741Y-101432933D01*
X115563052Y-101417873D01*
X115593856Y-101428357D01*
X115598790Y-101458154D01*
X115573477Y-101480560D01*
X115453088Y-101557225D01*
X115368589Y-101617353D01*
X115313555Y-101665834D01*
X115287128Y-101698434D01*
X115262872Y-101740934D01*
X115269595Y-101762310D01*
X115302683Y-101777111D01*
X115378288Y-101803617D01*
X115467298Y-101832806D01*
X115556862Y-101860727D01*
X115634128Y-101883429D01*
X115686245Y-101896962D01*
X115699380Y-101899065D01*
X115746104Y-101911014D01*
X115818585Y-101942195D01*
X115903064Y-101985610D01*
X115985778Y-102034262D01*
X116044490Y-102074560D01*
X116114331Y-102133322D01*
X116193827Y-102208326D01*
X116243965Y-102260046D01*
X116299799Y-102318149D01*
X116343298Y-102359029D01*
X116364083Y-102373389D01*
X116388152Y-102352477D01*
X116415018Y-102299548D01*
X116439313Y-102229306D01*
X116455670Y-102156459D01*
X116459523Y-102111889D01*
X116450594Y-102038450D01*
X116416101Y-101982206D01*
X116385485Y-101952610D01*
X116338589Y-101905333D01*
X116273598Y-101832209D01*
X116200990Y-101745256D01*
X116161200Y-101695375D01*
X116086278Y-101605618D01*
X116009553Y-101523495D01*
X115942722Y-101461137D01*
X115915070Y-101440090D01*
X115847406Y-101388679D01*
X115821964Y-101352573D01*
X115839278Y-101333071D01*
X115869698Y-101329878D01*
X115913822Y-101348588D01*
X115981370Y-101402454D01*
X116068142Y-101488073D01*
X116077215Y-101497717D01*
X116204727Y-101633873D01*
X116304138Y-101739274D01*
X116379695Y-101817855D01*
X116435645Y-101873551D01*
X116476237Y-101910297D01*
X116505716Y-101932028D01*
X116528332Y-101942680D01*
X116548331Y-101946186D01*
X116561626Y-101946498D01*
X116620281Y-101930359D01*
X116688077Y-101889181D01*
X116704919Y-101875349D01*
X116764811Y-101825625D01*
X116798368Y-101807840D01*
X116812750Y-101820351D01*
X116815265Y-101850018D01*
X116793570Y-101898013D01*
X116733799Y-101950722D01*
X116643927Y-102001487D01*
X116622262Y-102011155D01*
X116591044Y-102028031D01*
X116569311Y-102053330D01*
X116553584Y-102096712D01*
X116540387Y-102167836D01*
X116526239Y-102276361D01*
X116525977Y-102278524D01*
X116525005Y-102309747D01*
X116537969Y-102329135D01*
X116574652Y-102341457D01*
X116644837Y-102351482D01*
X116684827Y-102355954D01*
X116865652Y-102380632D01*
X117014871Y-102413194D01*
X117148148Y-102457599D01*
X117233689Y-102494708D01*
X117310704Y-102529346D01*
X117371617Y-102553954D01*
X117402815Y-102563118D01*
X117422249Y-102542355D01*
X117443747Y-102490037D01*
X117451630Y-102462324D01*
X117463432Y-102333627D01*
X117438436Y-102207741D01*
X117389241Y-102114346D01*
X117359285Y-102080767D01*
X117323891Y-102062862D01*
X117268504Y-102056381D01*
X117192009Y-102056743D01*
X117082305Y-102061770D01*
X116965762Y-102070823D01*
X116904201Y-102077467D01*
X116819198Y-102084672D01*
X116775762Y-102079056D01*
X116767833Y-102068015D01*
X116763058Y-102027549D01*
X116761904Y-102023575D01*
X116780100Y-102011977D01*
X116833388Y-101999642D01*
X116898272Y-101990659D01*
X117005283Y-101978743D01*
X117118750Y-101965307D01*
X117171008Y-101958781D01*
X117248284Y-101951036D01*
X117299688Y-101956946D01*
X117346203Y-101982785D01*
X117400081Y-102027272D01*
X117463178Y-102080512D01*
X117500999Y-102105228D01*
X117523895Y-102104207D01*
X117542219Y-102080238D01*
X117549206Y-102067433D01*
X117560206Y-102013848D01*
X117546201Y-101933100D01*
X117540462Y-101913142D01*
X117525714Y-101857229D01*
X117520838Y-101808315D01*
X117527052Y-101752474D01*
X117545577Y-101675781D01*
X117568180Y-101596549D01*
X117592486Y-101507578D01*
X117609512Y-101426895D01*
X117620593Y-101342314D01*
X117627063Y-101241653D01*
X117630254Y-101112727D01*
X117631120Y-101021568D01*
X117631228Y-100873385D01*
X117628705Y-100761991D01*
X117622545Y-100676770D01*
X117611741Y-100607108D01*
X117595288Y-100542389D01*
X117581656Y-100499634D01*
X117499329Y-100301190D01*
X117393160Y-100130874D01*
X117259340Y-99985777D01*
X117094061Y-99862989D01*
X116893517Y-99759600D01*
X116653898Y-99672699D01*
X116417120Y-99609732D01*
X116304221Y-99585494D01*
X116227198Y-99576104D01*
X116176351Y-99583268D01*
X116141978Y-99608694D01*
X116114381Y-99654087D01*
X116109710Y-99663818D01*
X116072382Y-99722020D01*
X116041509Y-99737955D01*
X116024258Y-99716784D01*
X116027800Y-99663667D01*
X116043822Y-99616386D01*
X116048419Y-99588207D01*
X116022704Y-99576973D01*
X115981808Y-99575716D01*
X115915742Y-99581233D01*
X115825459Y-99594698D01*
X115749132Y-99609359D01*
X115638207Y-99641543D01*
X115569442Y-99683238D01*
X115537931Y-99738099D01*
X115534593Y-99769145D01*
X115519663Y-99804247D01*
X115487227Y-99809462D01*
X115455811Y-99785742D01*
X115446600Y-99764612D01*
X115434438Y-99731522D01*
X115414837Y-99721468D01*
X115378595Y-99736228D01*
X115316511Y-99777579D01*
X115293114Y-99794257D01*
X115147071Y-99922702D01*
X115015515Y-100083460D01*
X114907901Y-100262514D01*
X114833687Y-100445845D01*
X114820434Y-100494965D01*
X114783852Y-100660204D01*
X114746916Y-100846807D01*
X114714625Y-101029006D01*
X114704461Y-101092716D01*
X114687678Y-101196181D01*
X114669973Y-101295983D01*
X114655281Y-101370025D01*
X114639526Y-101462200D01*
X114634180Y-101541132D01*
X114639314Y-101595601D01*
X114653758Y-101614472D01*
X114668833Y-101593317D01*
X114693865Y-101536044D01*
X114725097Y-101451943D01*
X114752086Y-101371381D01*
X114808532Y-101210595D01*
X114860210Y-101094628D01*
X114906727Y-101023903D01*
X114947691Y-100998842D01*
X114982708Y-101019867D01*
X115011386Y-101087400D01*
X115012547Y-101091637D01*
X115022390Y-101152492D01*
X115028922Y-101242921D01*
X115032335Y-101353531D01*
X115032823Y-101474928D01*
X115030576Y-101597719D01*
X115025786Y-101712512D01*
X115018647Y-101809914D01*
X115009349Y-101880532D01*
X114998085Y-101914972D01*
X114995678Y-101916671D01*
X114983729Y-101908309D01*
X114974636Y-101871013D01*
X114967913Y-101799970D01*
X114963073Y-101690366D01*
X114960104Y-101564826D01*
X114956132Y-101413548D01*
X114950251Y-101305261D01*
X114942030Y-101235551D01*
X114931039Y-101199999D01*
X114923915Y-101193486D01*
X114892091Y-101202599D01*
X114885322Y-101215254D01*
X114840220Y-101365334D01*
X114793977Y-101503198D01*
X114750597Y-101617586D01*
X114714084Y-101697236D01*
X114713640Y-101698051D01*
X114682747Y-101760990D01*
X114675410Y-101803094D01*
X114689230Y-101843232D01*
X114694057Y-101852206D01*
X114719206Y-101912909D01*
X114726838Y-101964549D01*
X114715422Y-101992400D01*
X114708805Y-101993930D01*
X114681359Y-101977696D01*
X114640990Y-101938253D01*
X114637813Y-101934640D01*
X114565996Y-101885249D01*
X114478482Y-101877720D01*
X114433732Y-101889745D01*
X114399138Y-101914523D01*
X114407448Y-101937262D01*
X114451374Y-101946498D01*
X114514422Y-101967649D01*
X114570834Y-102021075D01*
X114610673Y-102091732D01*
X114624003Y-102164576D01*
X114617362Y-102197805D01*
X114588587Y-102228388D01*
X114552251Y-102221237D01*
X114526242Y-102182354D01*
X114500962Y-102145982D01*
X114471663Y-102150979D01*
X114453431Y-102193047D01*
X114437559Y-102245949D01*
X114415931Y-102258891D01*
X114394560Y-102237860D01*
X114379458Y-102188845D01*
X114376637Y-102117836D01*
X114376719Y-102116642D01*
X114377905Y-102046218D01*
X114366580Y-102010656D01*
X114345125Y-101999217D01*
X114307639Y-102012297D01*
X114279969Y-102059753D01*
X114265363Y-102128990D01*
X114267072Y-102207407D01*
X114278514Y-102257466D01*
X114329326Y-102351191D01*
X114408512Y-102407175D01*
X114481355Y-102424808D01*
X114536439Y-102442340D01*
X114550444Y-102470558D01*
X114524708Y-102498919D01*
X114469822Y-102515685D01*
X114403618Y-102538044D01*
X114363100Y-102574132D01*
X114338061Y-102616955D01*
X114296779Y-102685840D01*
X114247855Y-102766445D01*
X114244189Y-102772445D01*
X114197104Y-102851623D01*
X114171562Y-102905723D01*
X114163768Y-102949768D01*
X114030687Y-102949768D01*
X114018716Y-102924984D01*
X113899732Y-102778425D01*
X113849879Y-102739591D01*
X114001090Y-102739591D01*
X114004362Y-102774864D01*
X114031050Y-102817185D01*
X114063633Y-102817397D01*
X114092045Y-102778054D01*
X114100281Y-102750503D01*
X114105298Y-102684685D01*
X114088247Y-102652258D01*
X114054201Y-102658400D01*
X114030663Y-102679439D01*
X114001090Y-102739591D01*
X113849879Y-102739591D01*
X113750996Y-102662563D01*
X113692450Y-102630481D01*
X113618429Y-102595403D01*
X113558056Y-102572590D01*
X113497381Y-102559441D01*
X113422453Y-102553353D01*
X113319322Y-102551726D01*
X113270152Y-102551736D01*
X113148888Y-102554924D01*
X113031713Y-102563132D01*
X112934928Y-102574974D01*
X112890242Y-102584078D01*
X112622522Y-102664943D01*
X112391410Y-102755038D01*
X112186302Y-102859048D01*
X112006772Y-102974375D01*
X111911890Y-103046204D01*
X111858489Y-103099106D01*
X111846109Y-103136311D01*
X111735860Y-103136311D01*
X111761231Y-103109136D01*
X111821611Y-103053148D01*
X111893309Y-102991251D01*
X111966272Y-102931741D01*
X112030447Y-102882913D01*
X112075782Y-102853063D01*
X112089647Y-102847712D01*
X112117348Y-102834838D01*
X112119467Y-102827300D01*
X112139164Y-102805442D01*
X112189638Y-102771936D01*
X112257969Y-102733578D01*
X112331232Y-102697161D01*
X112396506Y-102669478D01*
X112440868Y-102657324D01*
X112442955Y-102657228D01*
X112496635Y-102642682D01*
X112533104Y-102621654D01*
X112592384Y-102594812D01*
X112644356Y-102586834D01*
X112697416Y-102579035D01*
X112724229Y-102563118D01*
X112755955Y-102546701D01*
X112812713Y-102539422D01*
X112815960Y-102539402D01*
X112885380Y-102528755D01*
X112939070Y-102504582D01*
X112987375Y-102487021D01*
X113069866Y-102475041D01*
X113173627Y-102468642D01*
X113285741Y-102467823D01*
X113393291Y-102472586D01*
X113483360Y-102482928D01*
X113543033Y-102498852D01*
X113552898Y-102504582D01*
X113604035Y-102532176D01*
X113636328Y-102539402D01*
X113678446Y-102552088D01*
X113738077Y-102583767D01*
X113757636Y-102596422D01*
X113858879Y-102650674D01*
X113946279Y-102662620D01*
X114027899Y-102632022D01*
X114044573Y-102618633D01*
X114163156Y-102618633D01*
X114168052Y-102651694D01*
X114198406Y-102653882D01*
X114234929Y-102630850D01*
X114242063Y-102610225D01*
X114227259Y-102580018D01*
X114196116Y-102578289D01*
X114168539Y-102602916D01*
X114163156Y-102618633D01*
X114044573Y-102618633D01*
X114084174Y-102586834D01*
X114152431Y-102535567D01*
X114225389Y-102516636D01*
X114252989Y-102515685D01*
X114347354Y-102515685D01*
X114265124Y-102379318D01*
X114208116Y-102267718D01*
X114186264Y-102172426D01*
X114198247Y-102079434D01*
X114229421Y-102001152D01*
X114275383Y-101927055D01*
X114335074Y-101858059D01*
X114396782Y-101805585D01*
X114448794Y-101781055D01*
X114455730Y-101780485D01*
X114490095Y-101759076D01*
X114508064Y-101699297D01*
X114508109Y-101607819D01*
X114503763Y-101570626D01*
X114489196Y-101491459D01*
X114468663Y-101406449D01*
X114446738Y-101332533D01*
X114427993Y-101286645D01*
X114426420Y-101284177D01*
X114408899Y-101287653D01*
X114384652Y-101320773D01*
X114362182Y-101368259D01*
X114349992Y-101414834D01*
X114349540Y-101422307D01*
X114340142Y-101481776D01*
X114316975Y-101562368D01*
X114285842Y-101648496D01*
X114252543Y-101724570D01*
X114222880Y-101775000D01*
X114215308Y-101783006D01*
X114190033Y-101790335D01*
X114182634Y-101758070D01*
X114192680Y-101690374D01*
X114219741Y-101591411D01*
X114242063Y-101524187D01*
X114270817Y-101437337D01*
X114291886Y-101365026D01*
X114301214Y-101321330D01*
X114301353Y-101318465D01*
X114311818Y-101286589D01*
X114320887Y-101282445D01*
X114338446Y-101261837D01*
X114357795Y-101210630D01*
X114362390Y-101193510D01*
X114385583Y-101130716D01*
X114418058Y-101105978D01*
X114431792Y-101104574D01*
X114462857Y-101113462D01*
X114480772Y-101147778D01*
X114491082Y-101211297D01*
X114502552Y-101278971D01*
X114521329Y-101310702D01*
X114550373Y-101318020D01*
X114575247Y-101312672D01*
X114591659Y-101290203D01*
X114603080Y-101240972D01*
X114612981Y-101155340D01*
X114614420Y-101140149D01*
X114636025Y-100953553D01*
X114661732Y-100811579D01*
X114691314Y-100715401D01*
X114700157Y-100697030D01*
X114719637Y-100637226D01*
X114728224Y-100563607D01*
X114728244Y-100560340D01*
X114733975Y-100490886D01*
X114747900Y-100436973D01*
X114749193Y-100434271D01*
X114773303Y-100382668D01*
X114799392Y-100321941D01*
X114826924Y-100257985D01*
X114849592Y-100209611D01*
X114867709Y-100156020D01*
X114870541Y-100132442D01*
X114887387Y-100099285D01*
X114932505Y-100043624D01*
X114997767Y-99973365D01*
X115075043Y-99896412D01*
X115156204Y-99820671D01*
X115233120Y-99754048D01*
X115297664Y-99704448D01*
X115332025Y-99683660D01*
X115371798Y-99662622D01*
X115407392Y-99636463D01*
X115445666Y-99597766D01*
X115493474Y-99539116D01*
X115525916Y-99495647D01*
X115630571Y-99495647D01*
X115663303Y-99519022D01*
X115740041Y-99527277D01*
X115758497Y-99527450D01*
X115832770Y-99523415D01*
X115886031Y-99513041D01*
X115902193Y-99503734D01*
X115933440Y-99488274D01*
X115991927Y-99480309D01*
X116006033Y-99480018D01*
X116020104Y-99477852D01*
X116291708Y-99477852D01*
X116297339Y-99491753D01*
X116327955Y-99503594D01*
X116386333Y-99515412D01*
X116403223Y-99517833D01*
X116494579Y-99533715D01*
X116585678Y-99555815D01*
X116661252Y-99579873D01*
X116706033Y-99601628D01*
X116707357Y-99602722D01*
X116751203Y-99620318D01*
X116800529Y-99617596D01*
X116825372Y-99601432D01*
X116818900Y-99572608D01*
X116788720Y-99520425D01*
X116743473Y-99456215D01*
X116691800Y-99391308D01*
X116650697Y-99346202D01*
X116770278Y-99346202D01*
X116796611Y-99399977D01*
X116809336Y-99415296D01*
X116844185Y-99466518D01*
X116879991Y-99537916D01*
X116888832Y-99559460D01*
X116933389Y-99639329D01*
X117005842Y-99707003D01*
X117042987Y-99732356D01*
X117122504Y-99786162D01*
X117197564Y-99841510D01*
X117230298Y-99868005D01*
X117288576Y-99914009D01*
X117321080Y-99925365D01*
X117334816Y-99901702D01*
X117337021Y-99862373D01*
X117318061Y-99761444D01*
X117266642Y-99651931D01*
X117190952Y-99542829D01*
X117099182Y-99443133D01*
X116999519Y-99361840D01*
X116900154Y-99307943D01*
X116816210Y-99290289D01*
X116777008Y-99306058D01*
X116770278Y-99346202D01*
X116650697Y-99346202D01*
X116642344Y-99337036D01*
X116603745Y-99304729D01*
X116596486Y-99301302D01*
X116548476Y-99301602D01*
X116484963Y-99322712D01*
X116416738Y-99357762D01*
X116354593Y-99399883D01*
X116309319Y-99442203D01*
X116291708Y-99477852D01*
X116020104Y-99477852D01*
X116079194Y-99468756D01*
X116157920Y-99430757D01*
X116215953Y-99391082D01*
X116287164Y-99339397D01*
X116348545Y-99296178D01*
X116380321Y-99274958D01*
X116411408Y-99243677D01*
X116398499Y-99218299D01*
X116344817Y-99200260D01*
X116253587Y-99190996D01*
X116189997Y-99190148D01*
X116020493Y-99209562D01*
X115866413Y-99261365D01*
X115738522Y-99341292D01*
X115689620Y-99388369D01*
X115639970Y-99453361D01*
X115630571Y-99495647D01*
X115525916Y-99495647D01*
X115557673Y-99453097D01*
X115603339Y-99390210D01*
X115725447Y-99260360D01*
X115874796Y-99166487D01*
X116043663Y-99112513D01*
X116173580Y-99100559D01*
X116257691Y-99103746D01*
G37*
D14*
%TO.C,ANEMOMETER*%
X103437500Y-75625000D02*
X115837500Y-75625000D01*
X103437500Y-81375000D02*
X103437500Y-75625000D01*
X115837500Y-75625000D02*
X115837500Y-81375000D01*
X115837500Y-81375000D02*
X103437500Y-81375000D01*
D13*
X116737500Y-79025000D02*
G75*
G02*
X116537500Y-79025000I-100000J0D01*
G01*
X116537500Y-79025000D02*
G75*
G02*
X116737500Y-79025000I100000J0D01*
G01*
D16*
%TO.C,G\u002A\u002A\u002A*%
G36*
X121974184Y-79456363D02*
G01*
X122010272Y-79471141D01*
X122028642Y-79482873D01*
X122053537Y-79506708D01*
X122073457Y-79536829D01*
X122087422Y-79570920D01*
X122094451Y-79606667D01*
X122094152Y-79637410D01*
X122086037Y-79672349D01*
X122070831Y-79706246D01*
X122049976Y-79736845D01*
X122024915Y-79761880D01*
X122006890Y-79774190D01*
X121968087Y-79791432D01*
X121929182Y-79799279D01*
X121889543Y-79797802D01*
X121858281Y-79790403D01*
X121839672Y-79783802D01*
X121825302Y-79776477D01*
X121811406Y-79766164D01*
X121798064Y-79754209D01*
X121782691Y-79739093D01*
X121772289Y-79726219D01*
X121764361Y-79712005D01*
X121757847Y-79696565D01*
X121746802Y-79656172D01*
X121745224Y-79615423D01*
X121753117Y-79574496D01*
X121753434Y-79573482D01*
X121759030Y-79557051D01*
X121764937Y-79544295D01*
X121772954Y-79532337D01*
X121784878Y-79518295D01*
X121794380Y-79507972D01*
X121809883Y-79491806D01*
X121822007Y-79480830D01*
X121833529Y-79473027D01*
X121847231Y-79466383D01*
X121857546Y-79462157D01*
X121896086Y-79451660D01*
X121935544Y-79449799D01*
X121974184Y-79456363D01*
G37*
G36*
X122650350Y-78737164D02*
G01*
X122669692Y-78741655D01*
X122694047Y-78753420D01*
X122722833Y-78772077D01*
X122755473Y-78797245D01*
X122791386Y-78828539D01*
X122798077Y-78834719D01*
X122851058Y-78890071D01*
X122895680Y-78949717D01*
X122932250Y-79014109D01*
X122954227Y-79064872D01*
X122976035Y-79134348D01*
X122989331Y-79205295D01*
X122994130Y-79276634D01*
X122990451Y-79347285D01*
X122978309Y-79416168D01*
X122957722Y-79482205D01*
X122947271Y-79507263D01*
X122931751Y-79540019D01*
X122916232Y-79568389D01*
X122899125Y-79594710D01*
X122878840Y-79621327D01*
X122853786Y-79650579D01*
X122838431Y-79667518D01*
X122784260Y-79726455D01*
X122791399Y-79762059D01*
X122798538Y-79797661D01*
X122830002Y-79807154D01*
X122905042Y-79833074D01*
X122983303Y-79866274D01*
X123063166Y-79905884D01*
X123143008Y-79951037D01*
X123221205Y-80000864D01*
X123296138Y-80054495D01*
X123306092Y-80062116D01*
X123375533Y-80120145D01*
X123443650Y-80185598D01*
X123509322Y-80257031D01*
X123571431Y-80332994D01*
X123628856Y-80412040D01*
X123680473Y-80492719D01*
X123725166Y-80573584D01*
X123760080Y-80648996D01*
X123794197Y-80736005D01*
X123822291Y-80819207D01*
X123845181Y-80901358D01*
X123863688Y-80985213D01*
X123869709Y-81017922D01*
X123874995Y-81051623D01*
X123877542Y-81078642D01*
X123877227Y-81101412D01*
X123873932Y-81122360D01*
X123867537Y-81143915D01*
X123862871Y-81156364D01*
X123857302Y-81170632D01*
X123849575Y-81190612D01*
X123840905Y-81213159D01*
X123835677Y-81226816D01*
X123774249Y-81374754D01*
X123705016Y-81517386D01*
X123627824Y-81655007D01*
X123542514Y-81787907D01*
X123522752Y-81816383D01*
X123505144Y-81841243D01*
X123487772Y-81865462D01*
X123472024Y-81887128D01*
X123459288Y-81904331D01*
X123452647Y-81913026D01*
X123440666Y-81928336D01*
X123425287Y-81948039D01*
X123408925Y-81969038D01*
X123399967Y-81980555D01*
X123382993Y-82001567D01*
X123360973Y-82027598D01*
X123335480Y-82056885D01*
X123308089Y-82087659D01*
X123280372Y-82118156D01*
X123253902Y-82146607D01*
X123230256Y-82171250D01*
X123228078Y-82173464D01*
X123114157Y-82282900D01*
X122994880Y-82385555D01*
X122870811Y-82481079D01*
X122742507Y-82569119D01*
X122610529Y-82649321D01*
X122475436Y-82721337D01*
X122337790Y-82784814D01*
X122198149Y-82839398D01*
X122133130Y-82861511D01*
X122115563Y-82866063D01*
X122096575Y-82868466D01*
X122075086Y-82868579D01*
X122050018Y-82866260D01*
X122020285Y-82861370D01*
X121984807Y-82853765D01*
X121942503Y-82843309D01*
X121894368Y-82830427D01*
X121785142Y-82796936D01*
X121681061Y-82757663D01*
X121581179Y-82712068D01*
X121484543Y-82659602D01*
X121390210Y-82599726D01*
X121297227Y-82531895D01*
X121204648Y-82455563D01*
X121142586Y-82399596D01*
X121142572Y-82399583D01*
X121053922Y-82312364D01*
X120974356Y-82224220D01*
X120903486Y-82134512D01*
X120840920Y-82042595D01*
X120786271Y-81947828D01*
X120739146Y-81849566D01*
X120699155Y-81747171D01*
X120665912Y-81639998D01*
X120654420Y-81595666D01*
X120646357Y-81560174D01*
X120638809Y-81521979D01*
X120632013Y-81482786D01*
X120626205Y-81444295D01*
X120622240Y-81413072D01*
X120820415Y-81413072D01*
X120822106Y-81428822D01*
X120825143Y-81448843D01*
X120847340Y-81557709D01*
X120878574Y-81663880D01*
X120918725Y-81767102D01*
X120967675Y-81867127D01*
X121025300Y-81963707D01*
X121091483Y-82056591D01*
X121154745Y-82132864D01*
X121178515Y-82158483D01*
X121207971Y-82188364D01*
X121241497Y-82221013D01*
X121277476Y-82254943D01*
X121314293Y-82288664D01*
X121350334Y-82320684D01*
X121383978Y-82349512D01*
X121413613Y-82373658D01*
X121426776Y-82383775D01*
X121510205Y-82442257D01*
X121597147Y-82495802D01*
X121685478Y-82543208D01*
X121773074Y-82583273D01*
X121795027Y-82592166D01*
X121830512Y-82605331D01*
X121870612Y-82618843D01*
X121912917Y-82632001D01*
X121955014Y-82644094D01*
X121994492Y-82654419D01*
X122028936Y-82662268D01*
X122044971Y-82665294D01*
X122084279Y-82671946D01*
X122171113Y-82639507D01*
X122293701Y-82589285D01*
X122416356Y-82530380D01*
X122537929Y-82463514D01*
X122657277Y-82389409D01*
X122773255Y-82308782D01*
X122884715Y-82222357D01*
X122990516Y-82130851D01*
X123013555Y-82109511D01*
X123033035Y-82090523D01*
X123057265Y-82065788D01*
X123084981Y-82036694D01*
X123114917Y-82004630D01*
X123145808Y-81970983D01*
X123176392Y-81937143D01*
X123205403Y-81904497D01*
X123231577Y-81874433D01*
X123253649Y-81848341D01*
X123270356Y-81827607D01*
X123270500Y-81827420D01*
X123362119Y-81702245D01*
X123445347Y-81574919D01*
X123519933Y-81445878D01*
X123585635Y-81315562D01*
X123642203Y-81184406D01*
X123662053Y-81132263D01*
X123681347Y-81079583D01*
X123670066Y-81021115D01*
X123643865Y-80909049D01*
X123609419Y-80801578D01*
X123566787Y-80698809D01*
X123516029Y-80600852D01*
X123457203Y-80507816D01*
X123390371Y-80419807D01*
X123315591Y-80336935D01*
X123273153Y-80295505D01*
X123226707Y-80253280D01*
X123183585Y-80216838D01*
X123141439Y-80184359D01*
X123097927Y-80154030D01*
X123055093Y-80126727D01*
X122997923Y-80093092D01*
X122943217Y-80064249D01*
X122888342Y-80039034D01*
X122830675Y-80016288D01*
X122767583Y-79994850D01*
X122730440Y-79983442D01*
X122703366Y-79975189D01*
X122683567Y-79968538D01*
X122669158Y-79962651D01*
X122658253Y-79956695D01*
X122648966Y-79949835D01*
X122643294Y-79944851D01*
X122631661Y-79933209D01*
X122623171Y-79921566D01*
X122617009Y-79907830D01*
X122612363Y-79889908D01*
X122608420Y-79865706D01*
X122606367Y-79849874D01*
X122591943Y-79769480D01*
X122584108Y-79743438D01*
X122569018Y-79693285D01*
X122537600Y-79621293D01*
X122497694Y-79553522D01*
X122449300Y-79489977D01*
X122392428Y-79430668D01*
X122390669Y-79429027D01*
X122327848Y-79376719D01*
X122261071Y-79332790D01*
X122190834Y-79297408D01*
X122117622Y-79270740D01*
X122041929Y-79252955D01*
X121964241Y-79244220D01*
X121885052Y-79244703D01*
X121858512Y-79246930D01*
X121781987Y-79259398D01*
X121708797Y-79280349D01*
X121639492Y-79309275D01*
X121574621Y-79345671D01*
X121514731Y-79389035D01*
X121460372Y-79438855D01*
X121412091Y-79494632D01*
X121370436Y-79555855D01*
X121335957Y-79622022D01*
X121309203Y-79692627D01*
X121290721Y-79767160D01*
X121290014Y-79771025D01*
X121280907Y-79848083D01*
X121280934Y-79924990D01*
X121289770Y-80001004D01*
X121307094Y-80075381D01*
X121332578Y-80147381D01*
X121365895Y-80216260D01*
X121406724Y-80281273D01*
X121454737Y-80341683D01*
X121509608Y-80396743D01*
X121571015Y-80445711D01*
X121591571Y-80459697D01*
X121659877Y-80499358D01*
X121730310Y-80530216D01*
X121803502Y-80552434D01*
X121880083Y-80566180D01*
X121960682Y-80571627D01*
X122011390Y-80570969D01*
X122042320Y-80570176D01*
X122069335Y-80570409D01*
X122090743Y-80571609D01*
X122104852Y-80573712D01*
X122107174Y-80574420D01*
X122131685Y-80588212D01*
X122150260Y-80608233D01*
X122162225Y-80632828D01*
X122166909Y-80660340D01*
X122163639Y-80689117D01*
X122159215Y-80702478D01*
X122156110Y-80709481D01*
X122152246Y-80716162D01*
X122146668Y-80723533D01*
X122138422Y-80732610D01*
X122126551Y-80744405D01*
X122110100Y-80759930D01*
X122088118Y-80780200D01*
X122072481Y-80794506D01*
X122024056Y-80840380D01*
X121972751Y-80891930D01*
X121920197Y-80947348D01*
X121868024Y-81004821D01*
X121817864Y-81062542D01*
X121771349Y-81118700D01*
X121730107Y-81171482D01*
X121717121Y-81188960D01*
X121698079Y-81214975D01*
X121680054Y-81239581D01*
X121664105Y-81261334D01*
X121651287Y-81278793D01*
X121642662Y-81290518D01*
X121640917Y-81292878D01*
X121621804Y-81313706D01*
X121600016Y-81327363D01*
X121574471Y-81334100D01*
X121544079Y-81334169D01*
X121507760Y-81327820D01*
X121499181Y-81325669D01*
X121419470Y-81309279D01*
X121335099Y-81300440D01*
X121247125Y-81299145D01*
X121156603Y-81305380D01*
X121064590Y-81319139D01*
X121013309Y-81330008D01*
X120982087Y-81337926D01*
X120949317Y-81347276D01*
X120916832Y-81357437D01*
X120886459Y-81367786D01*
X120860034Y-81377707D01*
X120839383Y-81386576D01*
X120827459Y-81393009D01*
X120823013Y-81397043D01*
X120820691Y-81403104D01*
X120820415Y-81413072D01*
X120622240Y-81413072D01*
X120621622Y-81408208D01*
X120618501Y-81376225D01*
X120617080Y-81350052D01*
X120617597Y-81331386D01*
X120617610Y-81331258D01*
X120621719Y-81311884D01*
X120630004Y-81293981D01*
X120643159Y-81277046D01*
X120661876Y-81260581D01*
X120686848Y-81244081D01*
X120718768Y-81227046D01*
X120758327Y-81208971D01*
X120806219Y-81189356D01*
X120821575Y-81183380D01*
X120909283Y-81153829D01*
X121001372Y-81130770D01*
X121096190Y-81114353D01*
X121192091Y-81104732D01*
X121287424Y-81102058D01*
X121380541Y-81106485D01*
X121469789Y-81118165D01*
X121488569Y-81121690D01*
X121505377Y-81124671D01*
X121515572Y-81125026D01*
X121521759Y-81122359D01*
X121526536Y-81116279D01*
X121526766Y-81115907D01*
X121535886Y-81102530D01*
X121550327Y-81083079D01*
X121569206Y-81058635D01*
X121591631Y-81030283D01*
X121616715Y-80999107D01*
X121643566Y-80966191D01*
X121671297Y-80932618D01*
X121699019Y-80899470D01*
X121725845Y-80867835D01*
X121750882Y-80838792D01*
X121773243Y-80813428D01*
X121789921Y-80795096D01*
X121806690Y-80776218D01*
X121816356Y-80763245D01*
X121819044Y-80755950D01*
X121814878Y-80754099D01*
X121811529Y-80754776D01*
X121801988Y-80754621D01*
X121785218Y-80751545D01*
X121762829Y-80746046D01*
X121736432Y-80738619D01*
X121707639Y-80729761D01*
X121678061Y-80719969D01*
X121649311Y-80709739D01*
X121622999Y-80699570D01*
X121600734Y-80689956D01*
X121599659Y-80689454D01*
X121517908Y-80646020D01*
X121441668Y-80595289D01*
X121371477Y-80537713D01*
X121307857Y-80473752D01*
X121251342Y-80403862D01*
X121226269Y-80367384D01*
X121182061Y-80291204D01*
X121145715Y-80211263D01*
X121117417Y-80128495D01*
X121097350Y-80043839D01*
X121085696Y-79958230D01*
X121082640Y-79872601D01*
X121088365Y-79787893D01*
X121099509Y-79720861D01*
X121121785Y-79634614D01*
X121150790Y-79554577D01*
X121186993Y-79479842D01*
X121230865Y-79409501D01*
X121282873Y-79342645D01*
X121311711Y-79310626D01*
X121362349Y-79260427D01*
X121412987Y-79217725D01*
X121465629Y-79180937D01*
X122387734Y-79180937D01*
X122399082Y-79187880D01*
X122429694Y-79208451D01*
X122463903Y-79234521D01*
X122499561Y-79264202D01*
X122534529Y-79295611D01*
X122566668Y-79326859D01*
X122593834Y-79356063D01*
X122604550Y-79368889D01*
X122633849Y-79407854D01*
X122662992Y-79450685D01*
X122690346Y-79494748D01*
X122714279Y-79537411D01*
X122733157Y-79576042D01*
X122733360Y-79576504D01*
X122736136Y-79580408D01*
X122740359Y-79579546D01*
X122747793Y-79573001D01*
X122755426Y-79565003D01*
X122766184Y-79552005D01*
X122779470Y-79533844D01*
X122793094Y-79513575D01*
X122798980Y-79504208D01*
X122827561Y-79448662D01*
X122847532Y-79390016D01*
X122858867Y-79329186D01*
X122861540Y-79267091D01*
X122855531Y-79204647D01*
X122840813Y-79142770D01*
X122817360Y-79082376D01*
X122810616Y-79068572D01*
X122800244Y-79048937D01*
X122789627Y-79030090D01*
X122780747Y-79015524D01*
X122779255Y-79013284D01*
X122763382Y-78992240D01*
X122743089Y-78968414D01*
X122720930Y-78944575D01*
X122699455Y-78923487D01*
X122683951Y-78910033D01*
X122658889Y-78890160D01*
X122523311Y-79035549D01*
X122387734Y-79180937D01*
X121465629Y-79180937D01*
X121465835Y-79180793D01*
X121514126Y-79152662D01*
X121588656Y-79116202D01*
X121661646Y-79088006D01*
X121735064Y-79067534D01*
X121810877Y-79054244D01*
X121891050Y-79047596D01*
X121896486Y-79047379D01*
X121974592Y-79047903D01*
X122051160Y-79055608D01*
X122127894Y-79070796D01*
X122206497Y-79093775D01*
X122256427Y-79111879D01*
X122267385Y-79116123D01*
X122437007Y-78933695D01*
X122476128Y-78891650D01*
X122509381Y-78856030D01*
X122537339Y-78826307D01*
X122560577Y-78801955D01*
X122579670Y-78782444D01*
X122595186Y-78767244D01*
X122607702Y-78755830D01*
X122617793Y-78747673D01*
X122626030Y-78742243D01*
X122632989Y-78739013D01*
X122639240Y-78737454D01*
X122645359Y-78737037D01*
X122650350Y-78737164D01*
G37*
D17*
%TO.C,C7*%
X128376000Y-117318997D02*
X128376000Y-118881003D01*
X131424000Y-118881003D02*
X131424000Y-117318997D01*
D15*
%TO.C,3.3V_SYS*%
X149650000Y-59200000D02*
X149650000Y-62050000D01*
X149650000Y-62050000D02*
X152500000Y-62050000D01*
X149890000Y-51990000D02*
X159710000Y-51990000D01*
X149890000Y-56900000D02*
X149890000Y-51990000D01*
X149890000Y-56900000D02*
X149890000Y-61810000D01*
X149890000Y-61810000D02*
X159710000Y-61810000D01*
X159710000Y-51990000D02*
X159710000Y-55090000D01*
X159710000Y-55090000D02*
X161110000Y-55090000D01*
X159710000Y-58710000D02*
X161110000Y-58710000D01*
X159710000Y-61810000D02*
X159710000Y-58710000D01*
X161110000Y-55090000D02*
X161110000Y-56900000D01*
X161110000Y-58710000D02*
X161110000Y-56900000D01*
D14*
%TO.C,3.3V_EXTRA*%
X103837500Y-65875000D02*
X116237500Y-65875000D01*
X103837500Y-71625000D02*
X103837500Y-65875000D01*
X116237500Y-65875000D02*
X116237500Y-71625000D01*
X116237500Y-71625000D02*
X103837500Y-71625000D01*
D13*
X117137500Y-69275000D02*
G75*
G02*
X116937500Y-69275000I-100000J0D01*
G01*
X116937500Y-69275000D02*
G75*
G02*
X117137500Y-69275000I100000J0D01*
G01*
D14*
%TO.C,5V_EXTRA*%
X110150000Y-51950000D02*
X115900000Y-51950000D01*
X110150000Y-61850000D02*
X110150000Y-51950000D01*
X115900000Y-51950000D02*
X115900000Y-61850000D01*
X115900000Y-61850000D02*
X110150000Y-61850000D01*
D13*
X112600000Y-62650000D02*
G75*
G02*
X112400000Y-62650000I-100000J0D01*
G01*
X112400000Y-62650000D02*
G75*
G02*
X112600000Y-62650000I100000J0D01*
G01*
%TD*%
M02*
