%TF.GenerationSoftware,KiCad,Pcbnew,9.0.3*%
%TF.CreationDate,2026-02-17T15:16:53-05:00*%
%TF.ProjectId,ElectronicsPCB,456c6563-7472-46f6-9e69-63735043422e,rev?*%
%TF.SameCoordinates,Original*%
%TF.FileFunction,AssemblyDrawing,Top*%
%FSLAX46Y46*%
G04 Gerber Fmt 4.6, Leading zero omitted, Abs format (unit mm)*
G04 Created by KiCad (PCBNEW 9.0.3) date 2026-02-17 15:16:53*
%MOMM*%
%LPD*%
G01*
G04 APERTURE LIST*
%ADD10C,0.150000*%
%ADD11C,0.098425*%
%ADD12C,0.100000*%
%ADD13C,0.127000*%
%ADD14C,0.200000*%
%ADD15C,0.025400*%
G04 APERTURE END LIST*
D10*
X161844819Y-119262143D02*
X160844819Y-119262143D01*
X160844819Y-119262143D02*
X160844819Y-119024048D01*
X160844819Y-119024048D02*
X160892438Y-118881191D01*
X160892438Y-118881191D02*
X160987676Y-118785953D01*
X160987676Y-118785953D02*
X161082914Y-118738334D01*
X161082914Y-118738334D02*
X161273390Y-118690715D01*
X161273390Y-118690715D02*
X161416247Y-118690715D01*
X161416247Y-118690715D02*
X161606723Y-118738334D01*
X161606723Y-118738334D02*
X161701961Y-118785953D01*
X161701961Y-118785953D02*
X161797200Y-118881191D01*
X161797200Y-118881191D02*
X161844819Y-119024048D01*
X161844819Y-119024048D02*
X161844819Y-119262143D01*
X161321009Y-118262143D02*
X161321009Y-117928810D01*
X161844819Y-117785953D02*
X161844819Y-118262143D01*
X161844819Y-118262143D02*
X160844819Y-118262143D01*
X160844819Y-118262143D02*
X160844819Y-117785953D01*
X161844819Y-117309762D02*
X161844819Y-117119286D01*
X161844819Y-117119286D02*
X161797200Y-117024048D01*
X161797200Y-117024048D02*
X161749580Y-116976429D01*
X161749580Y-116976429D02*
X161606723Y-116881191D01*
X161606723Y-116881191D02*
X161416247Y-116833572D01*
X161416247Y-116833572D02*
X161035295Y-116833572D01*
X161035295Y-116833572D02*
X160940057Y-116881191D01*
X160940057Y-116881191D02*
X160892438Y-116928810D01*
X160892438Y-116928810D02*
X160844819Y-117024048D01*
X160844819Y-117024048D02*
X160844819Y-117214524D01*
X160844819Y-117214524D02*
X160892438Y-117309762D01*
X160892438Y-117309762D02*
X160940057Y-117357381D01*
X160940057Y-117357381D02*
X161035295Y-117405000D01*
X161035295Y-117405000D02*
X161273390Y-117405000D01*
X161273390Y-117405000D02*
X161368628Y-117357381D01*
X161368628Y-117357381D02*
X161416247Y-117309762D01*
X161416247Y-117309762D02*
X161463866Y-117214524D01*
X161463866Y-117214524D02*
X161463866Y-117024048D01*
X161463866Y-117024048D02*
X161416247Y-116928810D01*
X161416247Y-116928810D02*
X161368628Y-116881191D01*
X161368628Y-116881191D02*
X161273390Y-116833572D01*
X161940057Y-116643096D02*
X161940057Y-115881191D01*
X161797200Y-115690714D02*
X161844819Y-115547857D01*
X161844819Y-115547857D02*
X161844819Y-115309762D01*
X161844819Y-115309762D02*
X161797200Y-115214524D01*
X161797200Y-115214524D02*
X161749580Y-115166905D01*
X161749580Y-115166905D02*
X161654342Y-115119286D01*
X161654342Y-115119286D02*
X161559104Y-115119286D01*
X161559104Y-115119286D02*
X161463866Y-115166905D01*
X161463866Y-115166905D02*
X161416247Y-115214524D01*
X161416247Y-115214524D02*
X161368628Y-115309762D01*
X161368628Y-115309762D02*
X161321009Y-115500238D01*
X161321009Y-115500238D02*
X161273390Y-115595476D01*
X161273390Y-115595476D02*
X161225771Y-115643095D01*
X161225771Y-115643095D02*
X161130533Y-115690714D01*
X161130533Y-115690714D02*
X161035295Y-115690714D01*
X161035295Y-115690714D02*
X160940057Y-115643095D01*
X160940057Y-115643095D02*
X160892438Y-115595476D01*
X160892438Y-115595476D02*
X160844819Y-115500238D01*
X160844819Y-115500238D02*
X160844819Y-115262143D01*
X160844819Y-115262143D02*
X160892438Y-115119286D01*
X161844819Y-114547857D02*
X161797200Y-114643095D01*
X161797200Y-114643095D02*
X161749580Y-114690714D01*
X161749580Y-114690714D02*
X161654342Y-114738333D01*
X161654342Y-114738333D02*
X161368628Y-114738333D01*
X161368628Y-114738333D02*
X161273390Y-114690714D01*
X161273390Y-114690714D02*
X161225771Y-114643095D01*
X161225771Y-114643095D02*
X161178152Y-114547857D01*
X161178152Y-114547857D02*
X161178152Y-114405000D01*
X161178152Y-114405000D02*
X161225771Y-114309762D01*
X161225771Y-114309762D02*
X161273390Y-114262143D01*
X161273390Y-114262143D02*
X161368628Y-114214524D01*
X161368628Y-114214524D02*
X161654342Y-114214524D01*
X161654342Y-114214524D02*
X161749580Y-114262143D01*
X161749580Y-114262143D02*
X161797200Y-114309762D01*
X161797200Y-114309762D02*
X161844819Y-114405000D01*
X161844819Y-114405000D02*
X161844819Y-114547857D01*
X161797200Y-113357381D02*
X161844819Y-113452619D01*
X161844819Y-113452619D02*
X161844819Y-113643095D01*
X161844819Y-113643095D02*
X161797200Y-113738333D01*
X161797200Y-113738333D02*
X161749580Y-113785952D01*
X161749580Y-113785952D02*
X161654342Y-113833571D01*
X161654342Y-113833571D02*
X161368628Y-113833571D01*
X161368628Y-113833571D02*
X161273390Y-113785952D01*
X161273390Y-113785952D02*
X161225771Y-113738333D01*
X161225771Y-113738333D02*
X161178152Y-113643095D01*
X161178152Y-113643095D02*
X161178152Y-113452619D01*
X161178152Y-113452619D02*
X161225771Y-113357381D01*
X161844819Y-112928809D02*
X160844819Y-112928809D01*
X161463866Y-112833571D02*
X161844819Y-112547857D01*
X161178152Y-112547857D02*
X161559104Y-112928809D01*
X161797200Y-111738333D02*
X161844819Y-111833571D01*
X161844819Y-111833571D02*
X161844819Y-112024047D01*
X161844819Y-112024047D02*
X161797200Y-112119285D01*
X161797200Y-112119285D02*
X161701961Y-112166904D01*
X161701961Y-112166904D02*
X161321009Y-112166904D01*
X161321009Y-112166904D02*
X161225771Y-112119285D01*
X161225771Y-112119285D02*
X161178152Y-112024047D01*
X161178152Y-112024047D02*
X161178152Y-111833571D01*
X161178152Y-111833571D02*
X161225771Y-111738333D01*
X161225771Y-111738333D02*
X161321009Y-111690714D01*
X161321009Y-111690714D02*
X161416247Y-111690714D01*
X161416247Y-111690714D02*
X161511485Y-112166904D01*
X161178152Y-111404999D02*
X161178152Y-111024047D01*
X160844819Y-111262142D02*
X161701961Y-111262142D01*
X161701961Y-111262142D02*
X161797200Y-111214523D01*
X161797200Y-111214523D02*
X161844819Y-111119285D01*
X161844819Y-111119285D02*
X161844819Y-111024047D01*
X161940057Y-110928809D02*
X161940057Y-110166904D01*
X161844819Y-109928808D02*
X160844819Y-109928808D01*
X160844819Y-109928808D02*
X161559104Y-109595475D01*
X161559104Y-109595475D02*
X160844819Y-109262142D01*
X160844819Y-109262142D02*
X161844819Y-109262142D01*
X161844819Y-108643094D02*
X161797200Y-108738332D01*
X161797200Y-108738332D02*
X161749580Y-108785951D01*
X161749580Y-108785951D02*
X161654342Y-108833570D01*
X161654342Y-108833570D02*
X161368628Y-108833570D01*
X161368628Y-108833570D02*
X161273390Y-108785951D01*
X161273390Y-108785951D02*
X161225771Y-108738332D01*
X161225771Y-108738332D02*
X161178152Y-108643094D01*
X161178152Y-108643094D02*
X161178152Y-108500237D01*
X161178152Y-108500237D02*
X161225771Y-108404999D01*
X161225771Y-108404999D02*
X161273390Y-108357380D01*
X161273390Y-108357380D02*
X161368628Y-108309761D01*
X161368628Y-108309761D02*
X161654342Y-108309761D01*
X161654342Y-108309761D02*
X161749580Y-108357380D01*
X161749580Y-108357380D02*
X161797200Y-108404999D01*
X161797200Y-108404999D02*
X161844819Y-108500237D01*
X161844819Y-108500237D02*
X161844819Y-108643094D01*
X161178152Y-107452618D02*
X161844819Y-107452618D01*
X161178152Y-107881189D02*
X161701961Y-107881189D01*
X161701961Y-107881189D02*
X161797200Y-107833570D01*
X161797200Y-107833570D02*
X161844819Y-107738332D01*
X161844819Y-107738332D02*
X161844819Y-107595475D01*
X161844819Y-107595475D02*
X161797200Y-107500237D01*
X161797200Y-107500237D02*
X161749580Y-107452618D01*
X161178152Y-106976427D02*
X161844819Y-106976427D01*
X161273390Y-106976427D02*
X161225771Y-106928808D01*
X161225771Y-106928808D02*
X161178152Y-106833570D01*
X161178152Y-106833570D02*
X161178152Y-106690713D01*
X161178152Y-106690713D02*
X161225771Y-106595475D01*
X161225771Y-106595475D02*
X161321009Y-106547856D01*
X161321009Y-106547856D02*
X161844819Y-106547856D01*
X161178152Y-106214522D02*
X161178152Y-105833570D01*
X160844819Y-106071665D02*
X161701961Y-106071665D01*
X161701961Y-106071665D02*
X161797200Y-106024046D01*
X161797200Y-106024046D02*
X161844819Y-105928808D01*
X161844819Y-105928808D02*
X161844819Y-105833570D01*
X161844819Y-105500236D02*
X161178152Y-105500236D01*
X160844819Y-105500236D02*
X160892438Y-105547855D01*
X160892438Y-105547855D02*
X160940057Y-105500236D01*
X160940057Y-105500236D02*
X160892438Y-105452617D01*
X160892438Y-105452617D02*
X160844819Y-105500236D01*
X160844819Y-105500236D02*
X160940057Y-105500236D01*
X161178152Y-105024046D02*
X161844819Y-105024046D01*
X161273390Y-105024046D02*
X161225771Y-104976427D01*
X161225771Y-104976427D02*
X161178152Y-104881189D01*
X161178152Y-104881189D02*
X161178152Y-104738332D01*
X161178152Y-104738332D02*
X161225771Y-104643094D01*
X161225771Y-104643094D02*
X161321009Y-104595475D01*
X161321009Y-104595475D02*
X161844819Y-104595475D01*
X161178152Y-103690713D02*
X161987676Y-103690713D01*
X161987676Y-103690713D02*
X162082914Y-103738332D01*
X162082914Y-103738332D02*
X162130533Y-103785951D01*
X162130533Y-103785951D02*
X162178152Y-103881189D01*
X162178152Y-103881189D02*
X162178152Y-104024046D01*
X162178152Y-104024046D02*
X162130533Y-104119284D01*
X161797200Y-103690713D02*
X161844819Y-103785951D01*
X161844819Y-103785951D02*
X161844819Y-103976427D01*
X161844819Y-103976427D02*
X161797200Y-104071665D01*
X161797200Y-104071665D02*
X161749580Y-104119284D01*
X161749580Y-104119284D02*
X161654342Y-104166903D01*
X161654342Y-104166903D02*
X161368628Y-104166903D01*
X161368628Y-104166903D02*
X161273390Y-104119284D01*
X161273390Y-104119284D02*
X161225771Y-104071665D01*
X161225771Y-104071665D02*
X161178152Y-103976427D01*
X161178152Y-103976427D02*
X161178152Y-103785951D01*
X161178152Y-103785951D02*
X161225771Y-103690713D01*
X161844819Y-103214522D02*
X160844819Y-103214522D01*
X161321009Y-103214522D02*
X161321009Y-102643094D01*
X161844819Y-102643094D02*
X160844819Y-102643094D01*
X161844819Y-102024046D02*
X161797200Y-102119284D01*
X161797200Y-102119284D02*
X161749580Y-102166903D01*
X161749580Y-102166903D02*
X161654342Y-102214522D01*
X161654342Y-102214522D02*
X161368628Y-102214522D01*
X161368628Y-102214522D02*
X161273390Y-102166903D01*
X161273390Y-102166903D02*
X161225771Y-102119284D01*
X161225771Y-102119284D02*
X161178152Y-102024046D01*
X161178152Y-102024046D02*
X161178152Y-101881189D01*
X161178152Y-101881189D02*
X161225771Y-101785951D01*
X161225771Y-101785951D02*
X161273390Y-101738332D01*
X161273390Y-101738332D02*
X161368628Y-101690713D01*
X161368628Y-101690713D02*
X161654342Y-101690713D01*
X161654342Y-101690713D02*
X161749580Y-101738332D01*
X161749580Y-101738332D02*
X161797200Y-101785951D01*
X161797200Y-101785951D02*
X161844819Y-101881189D01*
X161844819Y-101881189D02*
X161844819Y-102024046D01*
X161844819Y-101119284D02*
X161797200Y-101214522D01*
X161797200Y-101214522D02*
X161701961Y-101262141D01*
X161701961Y-101262141D02*
X160844819Y-101262141D01*
X161797200Y-100357379D02*
X161844819Y-100452617D01*
X161844819Y-100452617D02*
X161844819Y-100643093D01*
X161844819Y-100643093D02*
X161797200Y-100738331D01*
X161797200Y-100738331D02*
X161701961Y-100785950D01*
X161701961Y-100785950D02*
X161321009Y-100785950D01*
X161321009Y-100785950D02*
X161225771Y-100738331D01*
X161225771Y-100738331D02*
X161178152Y-100643093D01*
X161178152Y-100643093D02*
X161178152Y-100452617D01*
X161178152Y-100452617D02*
X161225771Y-100357379D01*
X161225771Y-100357379D02*
X161321009Y-100309760D01*
X161321009Y-100309760D02*
X161416247Y-100309760D01*
X161416247Y-100309760D02*
X161511485Y-100785950D01*
X161797200Y-99928807D02*
X161844819Y-99833569D01*
X161844819Y-99833569D02*
X161844819Y-99643093D01*
X161844819Y-99643093D02*
X161797200Y-99547855D01*
X161797200Y-99547855D02*
X161701961Y-99500236D01*
X161701961Y-99500236D02*
X161654342Y-99500236D01*
X161654342Y-99500236D02*
X161559104Y-99547855D01*
X161559104Y-99547855D02*
X161511485Y-99643093D01*
X161511485Y-99643093D02*
X161511485Y-99785950D01*
X161511485Y-99785950D02*
X161463866Y-99881188D01*
X161463866Y-99881188D02*
X161368628Y-99928807D01*
X161368628Y-99928807D02*
X161321009Y-99928807D01*
X161321009Y-99928807D02*
X161225771Y-99881188D01*
X161225771Y-99881188D02*
X161178152Y-99785950D01*
X161178152Y-99785950D02*
X161178152Y-99643093D01*
X161178152Y-99643093D02*
X161225771Y-99547855D01*
X153534819Y-115357381D02*
X154534819Y-115024048D01*
X154534819Y-115024048D02*
X153534819Y-114690715D01*
X154487200Y-113976429D02*
X154534819Y-114071667D01*
X154534819Y-114071667D02*
X154534819Y-114262143D01*
X154534819Y-114262143D02*
X154487200Y-114357381D01*
X154487200Y-114357381D02*
X154391961Y-114405000D01*
X154391961Y-114405000D02*
X154011009Y-114405000D01*
X154011009Y-114405000D02*
X153915771Y-114357381D01*
X153915771Y-114357381D02*
X153868152Y-114262143D01*
X153868152Y-114262143D02*
X153868152Y-114071667D01*
X153868152Y-114071667D02*
X153915771Y-113976429D01*
X153915771Y-113976429D02*
X154011009Y-113928810D01*
X154011009Y-113928810D02*
X154106247Y-113928810D01*
X154106247Y-113928810D02*
X154201485Y-114405000D01*
X154487200Y-113071667D02*
X154534819Y-113166905D01*
X154534819Y-113166905D02*
X154534819Y-113357381D01*
X154534819Y-113357381D02*
X154487200Y-113452619D01*
X154487200Y-113452619D02*
X154439580Y-113500238D01*
X154439580Y-113500238D02*
X154344342Y-113547857D01*
X154344342Y-113547857D02*
X154058628Y-113547857D01*
X154058628Y-113547857D02*
X153963390Y-113500238D01*
X153963390Y-113500238D02*
X153915771Y-113452619D01*
X153915771Y-113452619D02*
X153868152Y-113357381D01*
X153868152Y-113357381D02*
X153868152Y-113166905D01*
X153868152Y-113166905D02*
X153915771Y-113071667D01*
X153868152Y-112785952D02*
X153868152Y-112405000D01*
X153534819Y-112643095D02*
X154391961Y-112643095D01*
X154391961Y-112643095D02*
X154487200Y-112595476D01*
X154487200Y-112595476D02*
X154534819Y-112500238D01*
X154534819Y-112500238D02*
X154534819Y-112405000D01*
X154534819Y-111928809D02*
X154487200Y-112024047D01*
X154487200Y-112024047D02*
X154439580Y-112071666D01*
X154439580Y-112071666D02*
X154344342Y-112119285D01*
X154344342Y-112119285D02*
X154058628Y-112119285D01*
X154058628Y-112119285D02*
X153963390Y-112071666D01*
X153963390Y-112071666D02*
X153915771Y-112024047D01*
X153915771Y-112024047D02*
X153868152Y-111928809D01*
X153868152Y-111928809D02*
X153868152Y-111785952D01*
X153868152Y-111785952D02*
X153915771Y-111690714D01*
X153915771Y-111690714D02*
X153963390Y-111643095D01*
X153963390Y-111643095D02*
X154058628Y-111595476D01*
X154058628Y-111595476D02*
X154344342Y-111595476D01*
X154344342Y-111595476D02*
X154439580Y-111643095D01*
X154439580Y-111643095D02*
X154487200Y-111690714D01*
X154487200Y-111690714D02*
X154534819Y-111785952D01*
X154534819Y-111785952D02*
X154534819Y-111928809D01*
X154534819Y-111166904D02*
X153868152Y-111166904D01*
X154058628Y-111166904D02*
X153963390Y-111119285D01*
X153963390Y-111119285D02*
X153915771Y-111071666D01*
X153915771Y-111071666D02*
X153868152Y-110976428D01*
X153868152Y-110976428D02*
X153868152Y-110881190D01*
X154534819Y-110547856D02*
X153534819Y-110547856D01*
X153534819Y-110547856D02*
X154534819Y-109976428D01*
X154534819Y-109976428D02*
X153534819Y-109976428D01*
X154534819Y-109071666D02*
X154011009Y-109071666D01*
X154011009Y-109071666D02*
X153915771Y-109119285D01*
X153915771Y-109119285D02*
X153868152Y-109214523D01*
X153868152Y-109214523D02*
X153868152Y-109404999D01*
X153868152Y-109404999D02*
X153915771Y-109500237D01*
X154487200Y-109071666D02*
X154534819Y-109166904D01*
X154534819Y-109166904D02*
X154534819Y-109404999D01*
X154534819Y-109404999D02*
X154487200Y-109500237D01*
X154487200Y-109500237D02*
X154391961Y-109547856D01*
X154391961Y-109547856D02*
X154296723Y-109547856D01*
X154296723Y-109547856D02*
X154201485Y-109500237D01*
X154201485Y-109500237D02*
X154153866Y-109404999D01*
X154153866Y-109404999D02*
X154153866Y-109166904D01*
X154153866Y-109166904D02*
X154106247Y-109071666D01*
X153868152Y-108690713D02*
X154534819Y-108452618D01*
X154534819Y-108452618D02*
X153868152Y-108214523D01*
X154534819Y-107833570D02*
X153534819Y-107833570D01*
X153868152Y-107357380D02*
X154534819Y-107357380D01*
X153963390Y-107357380D02*
X153915771Y-107309761D01*
X153915771Y-107309761D02*
X153868152Y-107214523D01*
X153868152Y-107214523D02*
X153868152Y-107071666D01*
X153868152Y-107071666D02*
X153915771Y-106976428D01*
X153915771Y-106976428D02*
X154011009Y-106928809D01*
X154011009Y-106928809D02*
X154534819Y-106928809D01*
X153868152Y-106452618D02*
X154868152Y-106452618D01*
X153915771Y-106452618D02*
X153868152Y-106357380D01*
X153868152Y-106357380D02*
X153868152Y-106166904D01*
X153868152Y-106166904D02*
X153915771Y-106071666D01*
X153915771Y-106071666D02*
X153963390Y-106024047D01*
X153963390Y-106024047D02*
X154058628Y-105976428D01*
X154058628Y-105976428D02*
X154344342Y-105976428D01*
X154344342Y-105976428D02*
X154439580Y-106024047D01*
X154439580Y-106024047D02*
X154487200Y-106071666D01*
X154487200Y-106071666D02*
X154534819Y-106166904D01*
X154534819Y-106166904D02*
X154534819Y-106357380D01*
X154534819Y-106357380D02*
X154487200Y-106452618D01*
X153868152Y-105119285D02*
X154534819Y-105119285D01*
X153868152Y-105547856D02*
X154391961Y-105547856D01*
X154391961Y-105547856D02*
X154487200Y-105500237D01*
X154487200Y-105500237D02*
X154534819Y-105404999D01*
X154534819Y-105404999D02*
X154534819Y-105262142D01*
X154534819Y-105262142D02*
X154487200Y-105166904D01*
X154487200Y-105166904D02*
X154439580Y-105119285D01*
X153868152Y-104785951D02*
X153868152Y-104404999D01*
X153534819Y-104643094D02*
X154391961Y-104643094D01*
X154391961Y-104643094D02*
X154487200Y-104595475D01*
X154487200Y-104595475D02*
X154534819Y-104500237D01*
X154534819Y-104500237D02*
X154534819Y-104404999D01*
X154534819Y-103547856D02*
X154534819Y-104119284D01*
X154534819Y-103833570D02*
X153534819Y-103833570D01*
X153534819Y-103833570D02*
X153677676Y-103928808D01*
X153677676Y-103928808D02*
X153772914Y-104024046D01*
X153772914Y-104024046D02*
X153820533Y-104119284D01*
D11*
X103069449Y-59633313D02*
X103106944Y-59633313D01*
X103106944Y-59633313D02*
X103144439Y-59652061D01*
X103144439Y-59652061D02*
X103163187Y-59670809D01*
X103163187Y-59670809D02*
X103181935Y-59708304D01*
X103181935Y-59708304D02*
X103200682Y-59783295D01*
X103200682Y-59783295D02*
X103200682Y-59877033D01*
X103200682Y-59877033D02*
X103181935Y-59952024D01*
X103181935Y-59952024D02*
X103163187Y-59989519D01*
X103163187Y-59989519D02*
X103144439Y-60008267D01*
X103144439Y-60008267D02*
X103106944Y-60027014D01*
X103106944Y-60027014D02*
X103069449Y-60027014D01*
X103069449Y-60027014D02*
X103031953Y-60008267D01*
X103031953Y-60008267D02*
X103013206Y-59989519D01*
X103013206Y-59989519D02*
X102994458Y-59952024D01*
X102994458Y-59952024D02*
X102975710Y-59877033D01*
X102975710Y-59877033D02*
X102975710Y-59783295D01*
X102975710Y-59783295D02*
X102994458Y-59708304D01*
X102994458Y-59708304D02*
X103013206Y-59670809D01*
X103013206Y-59670809D02*
X103031953Y-59652061D01*
X103031953Y-59652061D02*
X103069449Y-59633313D01*
X103369411Y-59989519D02*
X103388159Y-60008267D01*
X103388159Y-60008267D02*
X103369411Y-60027014D01*
X103369411Y-60027014D02*
X103350663Y-60008267D01*
X103350663Y-60008267D02*
X103369411Y-59989519D01*
X103369411Y-59989519D02*
X103369411Y-60027014D01*
X103763112Y-60027014D02*
X103538140Y-60027014D01*
X103650626Y-60027014D02*
X103650626Y-59633313D01*
X103650626Y-59633313D02*
X103613131Y-59689556D01*
X103613131Y-59689556D02*
X103575636Y-59727052D01*
X103575636Y-59727052D02*
X103538140Y-59745799D01*
X104100570Y-59764547D02*
X104100570Y-60027014D01*
X103931841Y-59764547D02*
X103931841Y-59970771D01*
X103931841Y-59970771D02*
X103950589Y-60008267D01*
X103950589Y-60008267D02*
X103988084Y-60027014D01*
X103988084Y-60027014D02*
X104044327Y-60027014D01*
X104044327Y-60027014D02*
X104081822Y-60008267D01*
X104081822Y-60008267D02*
X104100570Y-59989519D01*
X104231804Y-59764547D02*
X104381785Y-59764547D01*
X104288047Y-60027014D02*
X104288047Y-59689556D01*
X104288047Y-59689556D02*
X104306795Y-59652061D01*
X104306795Y-59652061D02*
X104344290Y-59633313D01*
X104344290Y-59633313D02*
X104381785Y-59633313D01*
X142583313Y-102854916D02*
X142583313Y-102817420D01*
X142583313Y-102817420D02*
X142602061Y-102779925D01*
X142602061Y-102779925D02*
X142620809Y-102761177D01*
X142620809Y-102761177D02*
X142658304Y-102742430D01*
X142658304Y-102742430D02*
X142733295Y-102723682D01*
X142733295Y-102723682D02*
X142827033Y-102723682D01*
X142827033Y-102723682D02*
X142902024Y-102742430D01*
X142902024Y-102742430D02*
X142939519Y-102761177D01*
X142939519Y-102761177D02*
X142958267Y-102779925D01*
X142958267Y-102779925D02*
X142977014Y-102817420D01*
X142977014Y-102817420D02*
X142977014Y-102854916D01*
X142977014Y-102854916D02*
X142958267Y-102892411D01*
X142958267Y-102892411D02*
X142939519Y-102911159D01*
X142939519Y-102911159D02*
X142902024Y-102929906D01*
X142902024Y-102929906D02*
X142827033Y-102948654D01*
X142827033Y-102948654D02*
X142733295Y-102948654D01*
X142733295Y-102948654D02*
X142658304Y-102929906D01*
X142658304Y-102929906D02*
X142620809Y-102911159D01*
X142620809Y-102911159D02*
X142602061Y-102892411D01*
X142602061Y-102892411D02*
X142583313Y-102854916D01*
X142939519Y-102554953D02*
X142958267Y-102536206D01*
X142958267Y-102536206D02*
X142977014Y-102554953D01*
X142977014Y-102554953D02*
X142958267Y-102573701D01*
X142958267Y-102573701D02*
X142939519Y-102554953D01*
X142939519Y-102554953D02*
X142977014Y-102554953D01*
X142977014Y-102161252D02*
X142977014Y-102386224D01*
X142977014Y-102273738D02*
X142583313Y-102273738D01*
X142583313Y-102273738D02*
X142639556Y-102311233D01*
X142639556Y-102311233D02*
X142677052Y-102348729D01*
X142677052Y-102348729D02*
X142695799Y-102386224D01*
X142714547Y-101992523D02*
X143108248Y-101992523D01*
X142920771Y-101805047D02*
X142958267Y-101786299D01*
X142958267Y-101786299D02*
X142977014Y-101748804D01*
X142920771Y-101992523D02*
X142958267Y-101973776D01*
X142958267Y-101973776D02*
X142977014Y-101936280D01*
X142977014Y-101936280D02*
X142977014Y-101861290D01*
X142977014Y-101861290D02*
X142958267Y-101823794D01*
X142958267Y-101823794D02*
X142920771Y-101805047D01*
X142920771Y-101805047D02*
X142714547Y-101805047D01*
X142770790Y-101448841D02*
X142770790Y-101580074D01*
X142977014Y-101580074D02*
X142583313Y-101580074D01*
X142583313Y-101580074D02*
X142583313Y-101392598D01*
D10*
X118334383Y-62237078D02*
X118379377Y-62102095D01*
X118379377Y-62102095D02*
X118424371Y-62057100D01*
X118424371Y-62057100D02*
X118514360Y-62012106D01*
X118514360Y-62012106D02*
X118649343Y-62012106D01*
X118649343Y-62012106D02*
X118739332Y-62057100D01*
X118739332Y-62057100D02*
X118784327Y-62102095D01*
X118784327Y-62102095D02*
X118829321Y-62192084D01*
X118829321Y-62192084D02*
X118829321Y-62552039D01*
X118829321Y-62552039D02*
X117884439Y-62552039D01*
X117884439Y-62552039D02*
X117884439Y-62237078D01*
X117884439Y-62237078D02*
X117929433Y-62147089D01*
X117929433Y-62147089D02*
X117974428Y-62102095D01*
X117974428Y-62102095D02*
X118064416Y-62057100D01*
X118064416Y-62057100D02*
X118154405Y-62057100D01*
X118154405Y-62057100D02*
X118244394Y-62102095D01*
X118244394Y-62102095D02*
X118289388Y-62147089D01*
X118289388Y-62147089D02*
X118334383Y-62237078D01*
X118334383Y-62237078D02*
X118334383Y-62552039D01*
X117884439Y-61697145D02*
X117884439Y-61112218D01*
X117884439Y-61112218D02*
X118244394Y-61427179D01*
X118244394Y-61427179D02*
X118244394Y-61292196D01*
X118244394Y-61292196D02*
X118289388Y-61202207D01*
X118289388Y-61202207D02*
X118334383Y-61157213D01*
X118334383Y-61157213D02*
X118424371Y-61112218D01*
X118424371Y-61112218D02*
X118649343Y-61112218D01*
X118649343Y-61112218D02*
X118739332Y-61157213D01*
X118739332Y-61157213D02*
X118784327Y-61202207D01*
X118784327Y-61202207D02*
X118829321Y-61292196D01*
X118829321Y-61292196D02*
X118829321Y-61562162D01*
X118829321Y-61562162D02*
X118784327Y-61652151D01*
X118784327Y-61652151D02*
X118739332Y-61697145D01*
X118334383Y-60392308D02*
X118379377Y-60257325D01*
X118379377Y-60257325D02*
X118424371Y-60212330D01*
X118424371Y-60212330D02*
X118514360Y-60167336D01*
X118514360Y-60167336D02*
X118649343Y-60167336D01*
X118649343Y-60167336D02*
X118739332Y-60212330D01*
X118739332Y-60212330D02*
X118784327Y-60257325D01*
X118784327Y-60257325D02*
X118829321Y-60347314D01*
X118829321Y-60347314D02*
X118829321Y-60707269D01*
X118829321Y-60707269D02*
X117884439Y-60707269D01*
X117884439Y-60707269D02*
X117884439Y-60392308D01*
X117884439Y-60392308D02*
X117929433Y-60302319D01*
X117929433Y-60302319D02*
X117974428Y-60257325D01*
X117974428Y-60257325D02*
X118064416Y-60212330D01*
X118064416Y-60212330D02*
X118154405Y-60212330D01*
X118154405Y-60212330D02*
X118244394Y-60257325D01*
X118244394Y-60257325D02*
X118289388Y-60302319D01*
X118289388Y-60302319D02*
X118334383Y-60392308D01*
X118334383Y-60392308D02*
X118334383Y-60707269D01*
X118469366Y-59762387D02*
X118469366Y-59042477D01*
X117884439Y-58682521D02*
X118829321Y-58052600D01*
X117884439Y-58052600D02*
X118829321Y-58682521D01*
X118829321Y-57692645D02*
X117884439Y-57692645D01*
X118334383Y-57692645D02*
X118334383Y-57152712D01*
X118829321Y-57152712D02*
X117884439Y-57152712D01*
X118469366Y-56702769D02*
X118469366Y-55982859D01*
X118559355Y-55577909D02*
X118559355Y-55127965D01*
X118829321Y-55667898D02*
X117884439Y-55352937D01*
X117884439Y-55352937D02*
X118829321Y-55037976D01*
D11*
X102985084Y-57433313D02*
X103022579Y-57433313D01*
X103022579Y-57433313D02*
X103060074Y-57452061D01*
X103060074Y-57452061D02*
X103078822Y-57470809D01*
X103078822Y-57470809D02*
X103097570Y-57508304D01*
X103097570Y-57508304D02*
X103116317Y-57583295D01*
X103116317Y-57583295D02*
X103116317Y-57677033D01*
X103116317Y-57677033D02*
X103097570Y-57752024D01*
X103097570Y-57752024D02*
X103078822Y-57789519D01*
X103078822Y-57789519D02*
X103060074Y-57808267D01*
X103060074Y-57808267D02*
X103022579Y-57827014D01*
X103022579Y-57827014D02*
X102985084Y-57827014D01*
X102985084Y-57827014D02*
X102947588Y-57808267D01*
X102947588Y-57808267D02*
X102928841Y-57789519D01*
X102928841Y-57789519D02*
X102910093Y-57752024D01*
X102910093Y-57752024D02*
X102891345Y-57677033D01*
X102891345Y-57677033D02*
X102891345Y-57583295D01*
X102891345Y-57583295D02*
X102910093Y-57508304D01*
X102910093Y-57508304D02*
X102928841Y-57470809D01*
X102928841Y-57470809D02*
X102947588Y-57452061D01*
X102947588Y-57452061D02*
X102985084Y-57433313D01*
X103285046Y-57789519D02*
X103303794Y-57808267D01*
X103303794Y-57808267D02*
X103285046Y-57827014D01*
X103285046Y-57827014D02*
X103266298Y-57808267D01*
X103266298Y-57808267D02*
X103285046Y-57789519D01*
X103285046Y-57789519D02*
X103285046Y-57827014D01*
X103678747Y-57827014D02*
X103453775Y-57827014D01*
X103566261Y-57827014D02*
X103566261Y-57433313D01*
X103566261Y-57433313D02*
X103528766Y-57489556D01*
X103528766Y-57489556D02*
X103491271Y-57527052D01*
X103491271Y-57527052D02*
X103453775Y-57545799D01*
X103847476Y-57564547D02*
X103847476Y-57958248D01*
X104034953Y-57770771D02*
X104053700Y-57808267D01*
X104053700Y-57808267D02*
X104091196Y-57827014D01*
X103847476Y-57770771D02*
X103866224Y-57808267D01*
X103866224Y-57808267D02*
X103903719Y-57827014D01*
X103903719Y-57827014D02*
X103978710Y-57827014D01*
X103978710Y-57827014D02*
X104016205Y-57808267D01*
X104016205Y-57808267D02*
X104034953Y-57770771D01*
X104034953Y-57770771D02*
X104034953Y-57564547D01*
X104391159Y-57620790D02*
X104259925Y-57620790D01*
X104259925Y-57827014D02*
X104259925Y-57433313D01*
X104259925Y-57433313D02*
X104447402Y-57433313D01*
D10*
X134529047Y-38919819D02*
X133957619Y-38919819D01*
X134243333Y-38919819D02*
X134243333Y-37919819D01*
X134243333Y-37919819D02*
X134148095Y-38062676D01*
X134148095Y-38062676D02*
X134052857Y-38157914D01*
X134052857Y-38157914D02*
X133957619Y-38205533D01*
X135148095Y-37919819D02*
X135243333Y-37919819D01*
X135243333Y-37919819D02*
X135338571Y-37967438D01*
X135338571Y-37967438D02*
X135386190Y-38015057D01*
X135386190Y-38015057D02*
X135433809Y-38110295D01*
X135433809Y-38110295D02*
X135481428Y-38300771D01*
X135481428Y-38300771D02*
X135481428Y-38538866D01*
X135481428Y-38538866D02*
X135433809Y-38729342D01*
X135433809Y-38729342D02*
X135386190Y-38824580D01*
X135386190Y-38824580D02*
X135338571Y-38872200D01*
X135338571Y-38872200D02*
X135243333Y-38919819D01*
X135243333Y-38919819D02*
X135148095Y-38919819D01*
X135148095Y-38919819D02*
X135052857Y-38872200D01*
X135052857Y-38872200D02*
X135005238Y-38824580D01*
X135005238Y-38824580D02*
X134957619Y-38729342D01*
X134957619Y-38729342D02*
X134910000Y-38538866D01*
X134910000Y-38538866D02*
X134910000Y-38300771D01*
X134910000Y-38300771D02*
X134957619Y-38110295D01*
X134957619Y-38110295D02*
X135005238Y-38015057D01*
X135005238Y-38015057D02*
X135052857Y-37967438D01*
X135052857Y-37967438D02*
X135148095Y-37919819D01*
X136100476Y-37919819D02*
X136195714Y-37919819D01*
X136195714Y-37919819D02*
X136290952Y-37967438D01*
X136290952Y-37967438D02*
X136338571Y-38015057D01*
X136338571Y-38015057D02*
X136386190Y-38110295D01*
X136386190Y-38110295D02*
X136433809Y-38300771D01*
X136433809Y-38300771D02*
X136433809Y-38538866D01*
X136433809Y-38538866D02*
X136386190Y-38729342D01*
X136386190Y-38729342D02*
X136338571Y-38824580D01*
X136338571Y-38824580D02*
X136290952Y-38872200D01*
X136290952Y-38872200D02*
X136195714Y-38919819D01*
X136195714Y-38919819D02*
X136100476Y-38919819D01*
X136100476Y-38919819D02*
X136005238Y-38872200D01*
X136005238Y-38872200D02*
X135957619Y-38824580D01*
X135957619Y-38824580D02*
X135910000Y-38729342D01*
X135910000Y-38729342D02*
X135862381Y-38538866D01*
X135862381Y-38538866D02*
X135862381Y-38300771D01*
X135862381Y-38300771D02*
X135910000Y-38110295D01*
X135910000Y-38110295D02*
X135957619Y-38015057D01*
X135957619Y-38015057D02*
X136005238Y-37967438D01*
X136005238Y-37967438D02*
X136100476Y-37919819D01*
X137052857Y-37919819D02*
X137148095Y-37919819D01*
X137148095Y-37919819D02*
X137243333Y-37967438D01*
X137243333Y-37967438D02*
X137290952Y-38015057D01*
X137290952Y-38015057D02*
X137338571Y-38110295D01*
X137338571Y-38110295D02*
X137386190Y-38300771D01*
X137386190Y-38300771D02*
X137386190Y-38538866D01*
X137386190Y-38538866D02*
X137338571Y-38729342D01*
X137338571Y-38729342D02*
X137290952Y-38824580D01*
X137290952Y-38824580D02*
X137243333Y-38872200D01*
X137243333Y-38872200D02*
X137148095Y-38919819D01*
X137148095Y-38919819D02*
X137052857Y-38919819D01*
X137052857Y-38919819D02*
X136957619Y-38872200D01*
X136957619Y-38872200D02*
X136910000Y-38824580D01*
X136910000Y-38824580D02*
X136862381Y-38729342D01*
X136862381Y-38729342D02*
X136814762Y-38538866D01*
X136814762Y-38538866D02*
X136814762Y-38300771D01*
X136814762Y-38300771D02*
X136862381Y-38110295D01*
X136862381Y-38110295D02*
X136910000Y-38015057D01*
X136910000Y-38015057D02*
X136957619Y-37967438D01*
X136957619Y-37967438D02*
X137052857Y-37919819D01*
X138243333Y-38253152D02*
X138243333Y-38919819D01*
X137814762Y-38253152D02*
X137814762Y-38776961D01*
X137814762Y-38776961D02*
X137862381Y-38872200D01*
X137862381Y-38872200D02*
X137957619Y-38919819D01*
X137957619Y-38919819D02*
X138100476Y-38919819D01*
X138100476Y-38919819D02*
X138195714Y-38872200D01*
X138195714Y-38872200D02*
X138243333Y-38824580D01*
X138576667Y-38253152D02*
X138957619Y-38253152D01*
X138719524Y-38919819D02*
X138719524Y-38062676D01*
X138719524Y-38062676D02*
X138767143Y-37967438D01*
X138767143Y-37967438D02*
X138862381Y-37919819D01*
X138862381Y-37919819D02*
X138957619Y-37919819D01*
X136434383Y-62112078D02*
X136479377Y-61977095D01*
X136479377Y-61977095D02*
X136524371Y-61932100D01*
X136524371Y-61932100D02*
X136614360Y-61887106D01*
X136614360Y-61887106D02*
X136749343Y-61887106D01*
X136749343Y-61887106D02*
X136839332Y-61932100D01*
X136839332Y-61932100D02*
X136884327Y-61977095D01*
X136884327Y-61977095D02*
X136929321Y-62067084D01*
X136929321Y-62067084D02*
X136929321Y-62427039D01*
X136929321Y-62427039D02*
X135984439Y-62427039D01*
X135984439Y-62427039D02*
X135984439Y-62112078D01*
X135984439Y-62112078D02*
X136029433Y-62022089D01*
X136029433Y-62022089D02*
X136074428Y-61977095D01*
X136074428Y-61977095D02*
X136164416Y-61932100D01*
X136164416Y-61932100D02*
X136254405Y-61932100D01*
X136254405Y-61932100D02*
X136344394Y-61977095D01*
X136344394Y-61977095D02*
X136389388Y-62022089D01*
X136389388Y-62022089D02*
X136434383Y-62112078D01*
X136434383Y-62112078D02*
X136434383Y-62427039D01*
X135984439Y-61572145D02*
X135984439Y-60987218D01*
X135984439Y-60987218D02*
X136344394Y-61302179D01*
X136344394Y-61302179D02*
X136344394Y-61167196D01*
X136344394Y-61167196D02*
X136389388Y-61077207D01*
X136389388Y-61077207D02*
X136434383Y-61032213D01*
X136434383Y-61032213D02*
X136524371Y-60987218D01*
X136524371Y-60987218D02*
X136749343Y-60987218D01*
X136749343Y-60987218D02*
X136839332Y-61032213D01*
X136839332Y-61032213D02*
X136884327Y-61077207D01*
X136884327Y-61077207D02*
X136929321Y-61167196D01*
X136929321Y-61167196D02*
X136929321Y-61437162D01*
X136929321Y-61437162D02*
X136884327Y-61527151D01*
X136884327Y-61527151D02*
X136839332Y-61572145D01*
X136434383Y-60267308D02*
X136479377Y-60132325D01*
X136479377Y-60132325D02*
X136524371Y-60087330D01*
X136524371Y-60087330D02*
X136614360Y-60042336D01*
X136614360Y-60042336D02*
X136749343Y-60042336D01*
X136749343Y-60042336D02*
X136839332Y-60087330D01*
X136839332Y-60087330D02*
X136884327Y-60132325D01*
X136884327Y-60132325D02*
X136929321Y-60222314D01*
X136929321Y-60222314D02*
X136929321Y-60582269D01*
X136929321Y-60582269D02*
X135984439Y-60582269D01*
X135984439Y-60582269D02*
X135984439Y-60267308D01*
X135984439Y-60267308D02*
X136029433Y-60177319D01*
X136029433Y-60177319D02*
X136074428Y-60132325D01*
X136074428Y-60132325D02*
X136164416Y-60087330D01*
X136164416Y-60087330D02*
X136254405Y-60087330D01*
X136254405Y-60087330D02*
X136344394Y-60132325D01*
X136344394Y-60132325D02*
X136389388Y-60177319D01*
X136389388Y-60177319D02*
X136434383Y-60267308D01*
X136434383Y-60267308D02*
X136434383Y-60582269D01*
X136569366Y-59637387D02*
X136569366Y-58917477D01*
X135984439Y-58557521D02*
X136929321Y-57927600D01*
X135984439Y-57927600D02*
X136929321Y-58557521D01*
X136929321Y-57567645D02*
X135984439Y-57567645D01*
X136434383Y-57567645D02*
X136434383Y-57027712D01*
X136929321Y-57027712D02*
X135984439Y-57027712D01*
X136569366Y-56577769D02*
X136569366Y-55857859D01*
X136659355Y-55452909D02*
X136659355Y-55002965D01*
X136929321Y-55542898D02*
X135984439Y-55227937D01*
X135984439Y-55227937D02*
X136929321Y-54912976D01*
D11*
X106970809Y-54200551D02*
X106952061Y-54181803D01*
X106952061Y-54181803D02*
X106933313Y-54144308D01*
X106933313Y-54144308D02*
X106933313Y-54050570D01*
X106933313Y-54050570D02*
X106952061Y-54013074D01*
X106952061Y-54013074D02*
X106970809Y-53994327D01*
X106970809Y-53994327D02*
X107008304Y-53975579D01*
X107008304Y-53975579D02*
X107045799Y-53975579D01*
X107045799Y-53975579D02*
X107102042Y-53994327D01*
X107102042Y-53994327D02*
X107327014Y-54219299D01*
X107327014Y-54219299D02*
X107327014Y-53975579D01*
X106970809Y-53825598D02*
X106952061Y-53806850D01*
X106952061Y-53806850D02*
X106933313Y-53769355D01*
X106933313Y-53769355D02*
X106933313Y-53675617D01*
X106933313Y-53675617D02*
X106952061Y-53638121D01*
X106952061Y-53638121D02*
X106970809Y-53619374D01*
X106970809Y-53619374D02*
X107008304Y-53600626D01*
X107008304Y-53600626D02*
X107045799Y-53600626D01*
X107045799Y-53600626D02*
X107102042Y-53619374D01*
X107102042Y-53619374D02*
X107327014Y-53844346D01*
X107327014Y-53844346D02*
X107327014Y-53600626D01*
X107064547Y-53263168D02*
X107327014Y-53263168D01*
X107064547Y-53431897D02*
X107270771Y-53431897D01*
X107270771Y-53431897D02*
X107308267Y-53413150D01*
X107308267Y-53413150D02*
X107327014Y-53375654D01*
X107327014Y-53375654D02*
X107327014Y-53319411D01*
X107327014Y-53319411D02*
X107308267Y-53281916D01*
X107308267Y-53281916D02*
X107289519Y-53263168D01*
X107064547Y-53131934D02*
X107064547Y-52981953D01*
X107327014Y-53075691D02*
X106989556Y-53075691D01*
X106989556Y-53075691D02*
X106952061Y-53056944D01*
X106952061Y-53056944D02*
X106933313Y-53019448D01*
X106933313Y-53019448D02*
X106933313Y-52981953D01*
X150733313Y-42985551D02*
X150733313Y-42948055D01*
X150733313Y-42948055D02*
X150752061Y-42910560D01*
X150752061Y-42910560D02*
X150770809Y-42891812D01*
X150770809Y-42891812D02*
X150808304Y-42873065D01*
X150808304Y-42873065D02*
X150883295Y-42854317D01*
X150883295Y-42854317D02*
X150977033Y-42854317D01*
X150977033Y-42854317D02*
X151052024Y-42873065D01*
X151052024Y-42873065D02*
X151089519Y-42891812D01*
X151089519Y-42891812D02*
X151108267Y-42910560D01*
X151108267Y-42910560D02*
X151127014Y-42948055D01*
X151127014Y-42948055D02*
X151127014Y-42985551D01*
X151127014Y-42985551D02*
X151108267Y-43023046D01*
X151108267Y-43023046D02*
X151089519Y-43041794D01*
X151089519Y-43041794D02*
X151052024Y-43060541D01*
X151052024Y-43060541D02*
X150977033Y-43079289D01*
X150977033Y-43079289D02*
X150883295Y-43079289D01*
X150883295Y-43079289D02*
X150808304Y-43060541D01*
X150808304Y-43060541D02*
X150770809Y-43041794D01*
X150770809Y-43041794D02*
X150752061Y-43023046D01*
X150752061Y-43023046D02*
X150733313Y-42985551D01*
X151089519Y-42685588D02*
X151108267Y-42666841D01*
X151108267Y-42666841D02*
X151127014Y-42685588D01*
X151127014Y-42685588D02*
X151108267Y-42704336D01*
X151108267Y-42704336D02*
X151089519Y-42685588D01*
X151089519Y-42685588D02*
X151127014Y-42685588D01*
X151127014Y-42291887D02*
X151127014Y-42516859D01*
X151127014Y-42404373D02*
X150733313Y-42404373D01*
X150733313Y-42404373D02*
X150789556Y-42441868D01*
X150789556Y-42441868D02*
X150827052Y-42479364D01*
X150827052Y-42479364D02*
X150845799Y-42516859D01*
X150864547Y-41954429D02*
X151127014Y-41954429D01*
X150864547Y-42123158D02*
X151070771Y-42123158D01*
X151070771Y-42123158D02*
X151108267Y-42104411D01*
X151108267Y-42104411D02*
X151127014Y-42066915D01*
X151127014Y-42066915D02*
X151127014Y-42010672D01*
X151127014Y-42010672D02*
X151108267Y-41973177D01*
X151108267Y-41973177D02*
X151089519Y-41954429D01*
X150864547Y-41823195D02*
X150864547Y-41673214D01*
X151127014Y-41766952D02*
X150789556Y-41766952D01*
X150789556Y-41766952D02*
X150752061Y-41748205D01*
X150752061Y-41748205D02*
X150733313Y-41710709D01*
X150733313Y-41710709D02*
X150733313Y-41673214D01*
D10*
X127434383Y-62312078D02*
X127479377Y-62177095D01*
X127479377Y-62177095D02*
X127524371Y-62132100D01*
X127524371Y-62132100D02*
X127614360Y-62087106D01*
X127614360Y-62087106D02*
X127749343Y-62087106D01*
X127749343Y-62087106D02*
X127839332Y-62132100D01*
X127839332Y-62132100D02*
X127884327Y-62177095D01*
X127884327Y-62177095D02*
X127929321Y-62267084D01*
X127929321Y-62267084D02*
X127929321Y-62627039D01*
X127929321Y-62627039D02*
X126984439Y-62627039D01*
X126984439Y-62627039D02*
X126984439Y-62312078D01*
X126984439Y-62312078D02*
X127029433Y-62222089D01*
X127029433Y-62222089D02*
X127074428Y-62177095D01*
X127074428Y-62177095D02*
X127164416Y-62132100D01*
X127164416Y-62132100D02*
X127254405Y-62132100D01*
X127254405Y-62132100D02*
X127344394Y-62177095D01*
X127344394Y-62177095D02*
X127389388Y-62222089D01*
X127389388Y-62222089D02*
X127434383Y-62312078D01*
X127434383Y-62312078D02*
X127434383Y-62627039D01*
X126984439Y-61772145D02*
X126984439Y-61187218D01*
X126984439Y-61187218D02*
X127344394Y-61502179D01*
X127344394Y-61502179D02*
X127344394Y-61367196D01*
X127344394Y-61367196D02*
X127389388Y-61277207D01*
X127389388Y-61277207D02*
X127434383Y-61232213D01*
X127434383Y-61232213D02*
X127524371Y-61187218D01*
X127524371Y-61187218D02*
X127749343Y-61187218D01*
X127749343Y-61187218D02*
X127839332Y-61232213D01*
X127839332Y-61232213D02*
X127884327Y-61277207D01*
X127884327Y-61277207D02*
X127929321Y-61367196D01*
X127929321Y-61367196D02*
X127929321Y-61637162D01*
X127929321Y-61637162D02*
X127884327Y-61727151D01*
X127884327Y-61727151D02*
X127839332Y-61772145D01*
X127434383Y-60467308D02*
X127479377Y-60332325D01*
X127479377Y-60332325D02*
X127524371Y-60287330D01*
X127524371Y-60287330D02*
X127614360Y-60242336D01*
X127614360Y-60242336D02*
X127749343Y-60242336D01*
X127749343Y-60242336D02*
X127839332Y-60287330D01*
X127839332Y-60287330D02*
X127884327Y-60332325D01*
X127884327Y-60332325D02*
X127929321Y-60422314D01*
X127929321Y-60422314D02*
X127929321Y-60782269D01*
X127929321Y-60782269D02*
X126984439Y-60782269D01*
X126984439Y-60782269D02*
X126984439Y-60467308D01*
X126984439Y-60467308D02*
X127029433Y-60377319D01*
X127029433Y-60377319D02*
X127074428Y-60332325D01*
X127074428Y-60332325D02*
X127164416Y-60287330D01*
X127164416Y-60287330D02*
X127254405Y-60287330D01*
X127254405Y-60287330D02*
X127344394Y-60332325D01*
X127344394Y-60332325D02*
X127389388Y-60377319D01*
X127389388Y-60377319D02*
X127434383Y-60467308D01*
X127434383Y-60467308D02*
X127434383Y-60782269D01*
X127569366Y-59837387D02*
X127569366Y-59117477D01*
X126984439Y-58757521D02*
X127929321Y-58127600D01*
X126984439Y-58127600D02*
X127929321Y-58757521D01*
X127929321Y-57767645D02*
X126984439Y-57767645D01*
X127434383Y-57767645D02*
X127434383Y-57227712D01*
X127929321Y-57227712D02*
X126984439Y-57227712D01*
X127569366Y-56777769D02*
X127569366Y-56057859D01*
X127659355Y-55652909D02*
X127659355Y-55202965D01*
X127929321Y-55742898D02*
X126984439Y-55427937D01*
X126984439Y-55427937D02*
X127929321Y-55112976D01*
X162030485Y-45780953D02*
X161992390Y-45742857D01*
X161992390Y-45742857D02*
X161954295Y-45666667D01*
X161954295Y-45666667D02*
X161954295Y-45476191D01*
X161954295Y-45476191D02*
X161992390Y-45400000D01*
X161992390Y-45400000D02*
X162030485Y-45361905D01*
X162030485Y-45361905D02*
X162106676Y-45323810D01*
X162106676Y-45323810D02*
X162182866Y-45323810D01*
X162182866Y-45323810D02*
X162297152Y-45361905D01*
X162297152Y-45361905D02*
X162754295Y-45819048D01*
X162754295Y-45819048D02*
X162754295Y-45323810D01*
X162030485Y-45019048D02*
X161992390Y-44980952D01*
X161992390Y-44980952D02*
X161954295Y-44904762D01*
X161954295Y-44904762D02*
X161954295Y-44714286D01*
X161954295Y-44714286D02*
X161992390Y-44638095D01*
X161992390Y-44638095D02*
X162030485Y-44600000D01*
X162030485Y-44600000D02*
X162106676Y-44561905D01*
X162106676Y-44561905D02*
X162182866Y-44561905D01*
X162182866Y-44561905D02*
X162297152Y-44600000D01*
X162297152Y-44600000D02*
X162754295Y-45057143D01*
X162754295Y-45057143D02*
X162754295Y-44561905D01*
X161954295Y-44066666D02*
X161954295Y-43990476D01*
X161954295Y-43990476D02*
X161992390Y-43914285D01*
X161992390Y-43914285D02*
X162030485Y-43876190D01*
X162030485Y-43876190D02*
X162106676Y-43838095D01*
X162106676Y-43838095D02*
X162259057Y-43800000D01*
X162259057Y-43800000D02*
X162449533Y-43800000D01*
X162449533Y-43800000D02*
X162601914Y-43838095D01*
X162601914Y-43838095D02*
X162678104Y-43876190D01*
X162678104Y-43876190D02*
X162716200Y-43914285D01*
X162716200Y-43914285D02*
X162754295Y-43990476D01*
X162754295Y-43990476D02*
X162754295Y-44066666D01*
X162754295Y-44066666D02*
X162716200Y-44142857D01*
X162716200Y-44142857D02*
X162678104Y-44180952D01*
X162678104Y-44180952D02*
X162601914Y-44219047D01*
X162601914Y-44219047D02*
X162449533Y-44257143D01*
X162449533Y-44257143D02*
X162259057Y-44257143D01*
X162259057Y-44257143D02*
X162106676Y-44219047D01*
X162106676Y-44219047D02*
X162030485Y-44180952D01*
X162030485Y-44180952D02*
X161992390Y-44142857D01*
X161992390Y-44142857D02*
X161954295Y-44066666D01*
X162220961Y-43114285D02*
X162754295Y-43114285D01*
X162220961Y-43457142D02*
X162640009Y-43457142D01*
X162640009Y-43457142D02*
X162716200Y-43419047D01*
X162716200Y-43419047D02*
X162754295Y-43342857D01*
X162754295Y-43342857D02*
X162754295Y-43228571D01*
X162754295Y-43228571D02*
X162716200Y-43152380D01*
X162716200Y-43152380D02*
X162678104Y-43114285D01*
X162220961Y-42847618D02*
X162220961Y-42542856D01*
X162754295Y-42733332D02*
X162068580Y-42733332D01*
X162068580Y-42733332D02*
X161992390Y-42695237D01*
X161992390Y-42695237D02*
X161954295Y-42619047D01*
X161954295Y-42619047D02*
X161954295Y-42542856D01*
X153614285Y-92504819D02*
X153614285Y-91504819D01*
X153614285Y-91504819D02*
X153947618Y-92219104D01*
X153947618Y-92219104D02*
X154280951Y-91504819D01*
X154280951Y-91504819D02*
X154280951Y-92504819D01*
X154899999Y-92504819D02*
X154804761Y-92457200D01*
X154804761Y-92457200D02*
X154757142Y-92409580D01*
X154757142Y-92409580D02*
X154709523Y-92314342D01*
X154709523Y-92314342D02*
X154709523Y-92028628D01*
X154709523Y-92028628D02*
X154757142Y-91933390D01*
X154757142Y-91933390D02*
X154804761Y-91885771D01*
X154804761Y-91885771D02*
X154899999Y-91838152D01*
X154899999Y-91838152D02*
X155042856Y-91838152D01*
X155042856Y-91838152D02*
X155138094Y-91885771D01*
X155138094Y-91885771D02*
X155185713Y-91933390D01*
X155185713Y-91933390D02*
X155233332Y-92028628D01*
X155233332Y-92028628D02*
X155233332Y-92314342D01*
X155233332Y-92314342D02*
X155185713Y-92409580D01*
X155185713Y-92409580D02*
X155138094Y-92457200D01*
X155138094Y-92457200D02*
X155042856Y-92504819D01*
X155042856Y-92504819D02*
X154899999Y-92504819D01*
X156090475Y-91838152D02*
X156090475Y-92504819D01*
X155661904Y-91838152D02*
X155661904Y-92361961D01*
X155661904Y-92361961D02*
X155709523Y-92457200D01*
X155709523Y-92457200D02*
X155804761Y-92504819D01*
X155804761Y-92504819D02*
X155947618Y-92504819D01*
X155947618Y-92504819D02*
X156042856Y-92457200D01*
X156042856Y-92457200D02*
X156090475Y-92409580D01*
X156566666Y-91838152D02*
X156566666Y-92504819D01*
X156566666Y-91933390D02*
X156614285Y-91885771D01*
X156614285Y-91885771D02*
X156709523Y-91838152D01*
X156709523Y-91838152D02*
X156852380Y-91838152D01*
X156852380Y-91838152D02*
X156947618Y-91885771D01*
X156947618Y-91885771D02*
X156995237Y-91981009D01*
X156995237Y-91981009D02*
X156995237Y-92504819D01*
X157328571Y-91838152D02*
X157709523Y-91838152D01*
X157471428Y-91504819D02*
X157471428Y-92361961D01*
X157471428Y-92361961D02*
X157519047Y-92457200D01*
X157519047Y-92457200D02*
X157614285Y-92504819D01*
X157614285Y-92504819D02*
X157709523Y-92504819D01*
X158042857Y-92504819D02*
X158042857Y-91838152D01*
X158042857Y-91504819D02*
X157995238Y-91552438D01*
X157995238Y-91552438D02*
X158042857Y-91600057D01*
X158042857Y-91600057D02*
X158090476Y-91552438D01*
X158090476Y-91552438D02*
X158042857Y-91504819D01*
X158042857Y-91504819D02*
X158042857Y-91600057D01*
X158519047Y-91838152D02*
X158519047Y-92504819D01*
X158519047Y-91933390D02*
X158566666Y-91885771D01*
X158566666Y-91885771D02*
X158661904Y-91838152D01*
X158661904Y-91838152D02*
X158804761Y-91838152D01*
X158804761Y-91838152D02*
X158899999Y-91885771D01*
X158899999Y-91885771D02*
X158947618Y-91981009D01*
X158947618Y-91981009D02*
X158947618Y-92504819D01*
X159852380Y-91838152D02*
X159852380Y-92647676D01*
X159852380Y-92647676D02*
X159804761Y-92742914D01*
X159804761Y-92742914D02*
X159757142Y-92790533D01*
X159757142Y-92790533D02*
X159661904Y-92838152D01*
X159661904Y-92838152D02*
X159519047Y-92838152D01*
X159519047Y-92838152D02*
X159423809Y-92790533D01*
X159852380Y-92457200D02*
X159757142Y-92504819D01*
X159757142Y-92504819D02*
X159566666Y-92504819D01*
X159566666Y-92504819D02*
X159471428Y-92457200D01*
X159471428Y-92457200D02*
X159423809Y-92409580D01*
X159423809Y-92409580D02*
X159376190Y-92314342D01*
X159376190Y-92314342D02*
X159376190Y-92028628D01*
X159376190Y-92028628D02*
X159423809Y-91933390D01*
X159423809Y-91933390D02*
X159471428Y-91885771D01*
X159471428Y-91885771D02*
X159566666Y-91838152D01*
X159566666Y-91838152D02*
X159757142Y-91838152D01*
X159757142Y-91838152D02*
X159852380Y-91885771D01*
X160328571Y-92504819D02*
X160328571Y-91504819D01*
X160328571Y-91981009D02*
X160899999Y-91981009D01*
X160899999Y-92504819D02*
X160899999Y-91504819D01*
X161519047Y-92504819D02*
X161423809Y-92457200D01*
X161423809Y-92457200D02*
X161376190Y-92409580D01*
X161376190Y-92409580D02*
X161328571Y-92314342D01*
X161328571Y-92314342D02*
X161328571Y-92028628D01*
X161328571Y-92028628D02*
X161376190Y-91933390D01*
X161376190Y-91933390D02*
X161423809Y-91885771D01*
X161423809Y-91885771D02*
X161519047Y-91838152D01*
X161519047Y-91838152D02*
X161661904Y-91838152D01*
X161661904Y-91838152D02*
X161757142Y-91885771D01*
X161757142Y-91885771D02*
X161804761Y-91933390D01*
X161804761Y-91933390D02*
X161852380Y-92028628D01*
X161852380Y-92028628D02*
X161852380Y-92314342D01*
X161852380Y-92314342D02*
X161804761Y-92409580D01*
X161804761Y-92409580D02*
X161757142Y-92457200D01*
X161757142Y-92457200D02*
X161661904Y-92504819D01*
X161661904Y-92504819D02*
X161519047Y-92504819D01*
X162423809Y-92504819D02*
X162328571Y-92457200D01*
X162328571Y-92457200D02*
X162280952Y-92361961D01*
X162280952Y-92361961D02*
X162280952Y-91504819D01*
X163185714Y-92457200D02*
X163090476Y-92504819D01*
X163090476Y-92504819D02*
X162900000Y-92504819D01*
X162900000Y-92504819D02*
X162804762Y-92457200D01*
X162804762Y-92457200D02*
X162757143Y-92361961D01*
X162757143Y-92361961D02*
X162757143Y-91981009D01*
X162757143Y-91981009D02*
X162804762Y-91885771D01*
X162804762Y-91885771D02*
X162900000Y-91838152D01*
X162900000Y-91838152D02*
X163090476Y-91838152D01*
X163090476Y-91838152D02*
X163185714Y-91885771D01*
X163185714Y-91885771D02*
X163233333Y-91981009D01*
X163233333Y-91981009D02*
X163233333Y-92076247D01*
X163233333Y-92076247D02*
X162757143Y-92171485D01*
X157638095Y-88854819D02*
X157638095Y-87854819D01*
X157638095Y-88331009D02*
X158209523Y-88331009D01*
X158209523Y-88854819D02*
X158209523Y-87854819D01*
X158590476Y-87854819D02*
X159209523Y-87854819D01*
X159209523Y-87854819D02*
X158876190Y-88235771D01*
X158876190Y-88235771D02*
X159019047Y-88235771D01*
X159019047Y-88235771D02*
X159114285Y-88283390D01*
X159114285Y-88283390D02*
X159161904Y-88331009D01*
X159161904Y-88331009D02*
X159209523Y-88426247D01*
X159209523Y-88426247D02*
X159209523Y-88664342D01*
X159209523Y-88664342D02*
X159161904Y-88759580D01*
X159161904Y-88759580D02*
X159114285Y-88807200D01*
X159114285Y-88807200D02*
X159019047Y-88854819D01*
X159019047Y-88854819D02*
X158733333Y-88854819D01*
X158733333Y-88854819D02*
X158638095Y-88807200D01*
X158638095Y-88807200D02*
X158590476Y-88759580D01*
D11*
X142583313Y-99084916D02*
X142583313Y-99047420D01*
X142583313Y-99047420D02*
X142602061Y-99009925D01*
X142602061Y-99009925D02*
X142620809Y-98991177D01*
X142620809Y-98991177D02*
X142658304Y-98972430D01*
X142658304Y-98972430D02*
X142733295Y-98953682D01*
X142733295Y-98953682D02*
X142827033Y-98953682D01*
X142827033Y-98953682D02*
X142902024Y-98972430D01*
X142902024Y-98972430D02*
X142939519Y-98991177D01*
X142939519Y-98991177D02*
X142958267Y-99009925D01*
X142958267Y-99009925D02*
X142977014Y-99047420D01*
X142977014Y-99047420D02*
X142977014Y-99084916D01*
X142977014Y-99084916D02*
X142958267Y-99122411D01*
X142958267Y-99122411D02*
X142939519Y-99141159D01*
X142939519Y-99141159D02*
X142902024Y-99159906D01*
X142902024Y-99159906D02*
X142827033Y-99178654D01*
X142827033Y-99178654D02*
X142733295Y-99178654D01*
X142733295Y-99178654D02*
X142658304Y-99159906D01*
X142658304Y-99159906D02*
X142620809Y-99141159D01*
X142620809Y-99141159D02*
X142602061Y-99122411D01*
X142602061Y-99122411D02*
X142583313Y-99084916D01*
X142939519Y-98784953D02*
X142958267Y-98766206D01*
X142958267Y-98766206D02*
X142977014Y-98784953D01*
X142977014Y-98784953D02*
X142958267Y-98803701D01*
X142958267Y-98803701D02*
X142939519Y-98784953D01*
X142939519Y-98784953D02*
X142977014Y-98784953D01*
X142977014Y-98391252D02*
X142977014Y-98616224D01*
X142977014Y-98503738D02*
X142583313Y-98503738D01*
X142583313Y-98503738D02*
X142639556Y-98541233D01*
X142639556Y-98541233D02*
X142677052Y-98578729D01*
X142677052Y-98578729D02*
X142695799Y-98616224D01*
X142714547Y-98222523D02*
X143108248Y-98222523D01*
X142920771Y-98035047D02*
X142958267Y-98016299D01*
X142958267Y-98016299D02*
X142977014Y-97978804D01*
X142920771Y-98222523D02*
X142958267Y-98203776D01*
X142958267Y-98203776D02*
X142977014Y-98166280D01*
X142977014Y-98166280D02*
X142977014Y-98091290D01*
X142977014Y-98091290D02*
X142958267Y-98053794D01*
X142958267Y-98053794D02*
X142920771Y-98035047D01*
X142920771Y-98035047D02*
X142714547Y-98035047D01*
X142770790Y-97678841D02*
X142770790Y-97810074D01*
X142977014Y-97810074D02*
X142583313Y-97810074D01*
X142583313Y-97810074D02*
X142583313Y-97622598D01*
D10*
X108891905Y-91399819D02*
X108891905Y-90399819D01*
X108891905Y-90399819D02*
X109225238Y-91114104D01*
X109225238Y-91114104D02*
X109558571Y-90399819D01*
X109558571Y-90399819D02*
X109558571Y-91399819D01*
X109987143Y-90495057D02*
X110034762Y-90447438D01*
X110034762Y-90447438D02*
X110130000Y-90399819D01*
X110130000Y-90399819D02*
X110368095Y-90399819D01*
X110368095Y-90399819D02*
X110463333Y-90447438D01*
X110463333Y-90447438D02*
X110510952Y-90495057D01*
X110510952Y-90495057D02*
X110558571Y-90590295D01*
X110558571Y-90590295D02*
X110558571Y-90685533D01*
X110558571Y-90685533D02*
X110510952Y-90828390D01*
X110510952Y-90828390D02*
X109939524Y-91399819D01*
X109939524Y-91399819D02*
X110558571Y-91399819D01*
X111177619Y-90399819D02*
X111272857Y-90399819D01*
X111272857Y-90399819D02*
X111368095Y-90447438D01*
X111368095Y-90447438D02*
X111415714Y-90495057D01*
X111415714Y-90495057D02*
X111463333Y-90590295D01*
X111463333Y-90590295D02*
X111510952Y-90780771D01*
X111510952Y-90780771D02*
X111510952Y-91018866D01*
X111510952Y-91018866D02*
X111463333Y-91209342D01*
X111463333Y-91209342D02*
X111415714Y-91304580D01*
X111415714Y-91304580D02*
X111368095Y-91352200D01*
X111368095Y-91352200D02*
X111272857Y-91399819D01*
X111272857Y-91399819D02*
X111177619Y-91399819D01*
X111177619Y-91399819D02*
X111082381Y-91352200D01*
X111082381Y-91352200D02*
X111034762Y-91304580D01*
X111034762Y-91304580D02*
X110987143Y-91209342D01*
X110987143Y-91209342D02*
X110939524Y-91018866D01*
X110939524Y-91018866D02*
X110939524Y-90780771D01*
X110939524Y-90780771D02*
X110987143Y-90590295D01*
X110987143Y-90590295D02*
X111034762Y-90495057D01*
X111034762Y-90495057D02*
X111082381Y-90447438D01*
X111082381Y-90447438D02*
X111177619Y-90399819D01*
X111939524Y-91018866D02*
X112701429Y-91018866D01*
X113082381Y-90399819D02*
X113749047Y-90399819D01*
X113749047Y-90399819D02*
X113320476Y-91399819D01*
X114272857Y-90828390D02*
X114177619Y-90780771D01*
X114177619Y-90780771D02*
X114130000Y-90733152D01*
X114130000Y-90733152D02*
X114082381Y-90637914D01*
X114082381Y-90637914D02*
X114082381Y-90590295D01*
X114082381Y-90590295D02*
X114130000Y-90495057D01*
X114130000Y-90495057D02*
X114177619Y-90447438D01*
X114177619Y-90447438D02*
X114272857Y-90399819D01*
X114272857Y-90399819D02*
X114463333Y-90399819D01*
X114463333Y-90399819D02*
X114558571Y-90447438D01*
X114558571Y-90447438D02*
X114606190Y-90495057D01*
X114606190Y-90495057D02*
X114653809Y-90590295D01*
X114653809Y-90590295D02*
X114653809Y-90637914D01*
X114653809Y-90637914D02*
X114606190Y-90733152D01*
X114606190Y-90733152D02*
X114558571Y-90780771D01*
X114558571Y-90780771D02*
X114463333Y-90828390D01*
X114463333Y-90828390D02*
X114272857Y-90828390D01*
X114272857Y-90828390D02*
X114177619Y-90876009D01*
X114177619Y-90876009D02*
X114130000Y-90923628D01*
X114130000Y-90923628D02*
X114082381Y-91018866D01*
X114082381Y-91018866D02*
X114082381Y-91209342D01*
X114082381Y-91209342D02*
X114130000Y-91304580D01*
X114130000Y-91304580D02*
X114177619Y-91352200D01*
X114177619Y-91352200D02*
X114272857Y-91399819D01*
X114272857Y-91399819D02*
X114463333Y-91399819D01*
X114463333Y-91399819D02*
X114558571Y-91352200D01*
X114558571Y-91352200D02*
X114606190Y-91304580D01*
X114606190Y-91304580D02*
X114653809Y-91209342D01*
X114653809Y-91209342D02*
X114653809Y-91018866D01*
X114653809Y-91018866D02*
X114606190Y-90923628D01*
X114606190Y-90923628D02*
X114558571Y-90876009D01*
X114558571Y-90876009D02*
X114463333Y-90828390D01*
X114987143Y-90399819D02*
X115606190Y-90399819D01*
X115606190Y-90399819D02*
X115272857Y-90780771D01*
X115272857Y-90780771D02*
X115415714Y-90780771D01*
X115415714Y-90780771D02*
X115510952Y-90828390D01*
X115510952Y-90828390D02*
X115558571Y-90876009D01*
X115558571Y-90876009D02*
X115606190Y-90971247D01*
X115606190Y-90971247D02*
X115606190Y-91209342D01*
X115606190Y-91209342D02*
X115558571Y-91304580D01*
X115558571Y-91304580D02*
X115510952Y-91352200D01*
X115510952Y-91352200D02*
X115415714Y-91399819D01*
X115415714Y-91399819D02*
X115130000Y-91399819D01*
X115130000Y-91399819D02*
X115034762Y-91352200D01*
X115034762Y-91352200D02*
X114987143Y-91304580D01*
X115987143Y-90495057D02*
X116034762Y-90447438D01*
X116034762Y-90447438D02*
X116130000Y-90399819D01*
X116130000Y-90399819D02*
X116368095Y-90399819D01*
X116368095Y-90399819D02*
X116463333Y-90447438D01*
X116463333Y-90447438D02*
X116510952Y-90495057D01*
X116510952Y-90495057D02*
X116558571Y-90590295D01*
X116558571Y-90590295D02*
X116558571Y-90685533D01*
X116558571Y-90685533D02*
X116510952Y-90828390D01*
X116510952Y-90828390D02*
X115939524Y-91399819D01*
X115939524Y-91399819D02*
X116558571Y-91399819D01*
X117177619Y-90399819D02*
X117272857Y-90399819D01*
X117272857Y-90399819D02*
X117368095Y-90447438D01*
X117368095Y-90447438D02*
X117415714Y-90495057D01*
X117415714Y-90495057D02*
X117463333Y-90590295D01*
X117463333Y-90590295D02*
X117510952Y-90780771D01*
X117510952Y-90780771D02*
X117510952Y-91018866D01*
X117510952Y-91018866D02*
X117463333Y-91209342D01*
X117463333Y-91209342D02*
X117415714Y-91304580D01*
X117415714Y-91304580D02*
X117368095Y-91352200D01*
X117368095Y-91352200D02*
X117272857Y-91399819D01*
X117272857Y-91399819D02*
X117177619Y-91399819D01*
X117177619Y-91399819D02*
X117082381Y-91352200D01*
X117082381Y-91352200D02*
X117034762Y-91304580D01*
X117034762Y-91304580D02*
X116987143Y-91209342D01*
X116987143Y-91209342D02*
X116939524Y-91018866D01*
X116939524Y-91018866D02*
X116939524Y-90780771D01*
X116939524Y-90780771D02*
X116987143Y-90590295D01*
X116987143Y-90590295D02*
X117034762Y-90495057D01*
X117034762Y-90495057D02*
X117082381Y-90447438D01*
X117082381Y-90447438D02*
X117177619Y-90399819D01*
X118368095Y-90733152D02*
X118368095Y-91399819D01*
X118130000Y-90352200D02*
X117891905Y-91066485D01*
X117891905Y-91066485D02*
X118510952Y-91066485D01*
X119320476Y-90399819D02*
X119130000Y-90399819D01*
X119130000Y-90399819D02*
X119034762Y-90447438D01*
X119034762Y-90447438D02*
X118987143Y-90495057D01*
X118987143Y-90495057D02*
X118891905Y-90637914D01*
X118891905Y-90637914D02*
X118844286Y-90828390D01*
X118844286Y-90828390D02*
X118844286Y-91209342D01*
X118844286Y-91209342D02*
X118891905Y-91304580D01*
X118891905Y-91304580D02*
X118939524Y-91352200D01*
X118939524Y-91352200D02*
X119034762Y-91399819D01*
X119034762Y-91399819D02*
X119225238Y-91399819D01*
X119225238Y-91399819D02*
X119320476Y-91352200D01*
X119320476Y-91352200D02*
X119368095Y-91304580D01*
X119368095Y-91304580D02*
X119415714Y-91209342D01*
X119415714Y-91209342D02*
X119415714Y-90971247D01*
X119415714Y-90971247D02*
X119368095Y-90876009D01*
X119368095Y-90876009D02*
X119320476Y-90828390D01*
X119320476Y-90828390D02*
X119225238Y-90780771D01*
X119225238Y-90780771D02*
X119034762Y-90780771D01*
X119034762Y-90780771D02*
X118939524Y-90828390D01*
X118939524Y-90828390D02*
X118891905Y-90876009D01*
X118891905Y-90876009D02*
X118844286Y-90971247D01*
X123419819Y-79192856D02*
X122419819Y-79192856D01*
X122419819Y-79192856D02*
X122419819Y-78954761D01*
X122419819Y-78954761D02*
X122467438Y-78811904D01*
X122467438Y-78811904D02*
X122562676Y-78716666D01*
X122562676Y-78716666D02*
X122657914Y-78669047D01*
X122657914Y-78669047D02*
X122848390Y-78621428D01*
X122848390Y-78621428D02*
X122991247Y-78621428D01*
X122991247Y-78621428D02*
X123181723Y-78669047D01*
X123181723Y-78669047D02*
X123276961Y-78716666D01*
X123276961Y-78716666D02*
X123372200Y-78811904D01*
X123372200Y-78811904D02*
X123419819Y-78954761D01*
X123419819Y-78954761D02*
X123419819Y-79192856D01*
X122896009Y-78192856D02*
X122896009Y-77859523D01*
X123419819Y-77716666D02*
X123419819Y-78192856D01*
X123419819Y-78192856D02*
X122419819Y-78192856D01*
X122419819Y-78192856D02*
X122419819Y-77716666D01*
X122419819Y-77430951D02*
X123419819Y-77097618D01*
X123419819Y-77097618D02*
X122419819Y-76764285D01*
X123038866Y-76430951D02*
X123038866Y-75669047D01*
X123419819Y-74669047D02*
X123419819Y-75240475D01*
X123419819Y-74954761D02*
X122419819Y-74954761D01*
X122419819Y-74954761D02*
X122562676Y-75049999D01*
X122562676Y-75049999D02*
X122657914Y-75145237D01*
X122657914Y-75145237D02*
X122705533Y-75240475D01*
X122419819Y-73764285D02*
X122419819Y-74240475D01*
X122419819Y-74240475D02*
X122896009Y-74288094D01*
X122896009Y-74288094D02*
X122848390Y-74240475D01*
X122848390Y-74240475D02*
X122800771Y-74145237D01*
X122800771Y-74145237D02*
X122800771Y-73907142D01*
X122800771Y-73907142D02*
X122848390Y-73811904D01*
X122848390Y-73811904D02*
X122896009Y-73764285D01*
X122896009Y-73764285D02*
X122991247Y-73716666D01*
X122991247Y-73716666D02*
X123229342Y-73716666D01*
X123229342Y-73716666D02*
X123324580Y-73764285D01*
X123324580Y-73764285D02*
X123372200Y-73811904D01*
X123372200Y-73811904D02*
X123419819Y-73907142D01*
X123419819Y-73907142D02*
X123419819Y-74145237D01*
X123419819Y-74145237D02*
X123372200Y-74240475D01*
X123372200Y-74240475D02*
X123324580Y-74288094D01*
X122419819Y-72811904D02*
X122419819Y-73288094D01*
X122419819Y-73288094D02*
X122896009Y-73335713D01*
X122896009Y-73335713D02*
X122848390Y-73288094D01*
X122848390Y-73288094D02*
X122800771Y-73192856D01*
X122800771Y-73192856D02*
X122800771Y-72954761D01*
X122800771Y-72954761D02*
X122848390Y-72859523D01*
X122848390Y-72859523D02*
X122896009Y-72811904D01*
X122896009Y-72811904D02*
X122991247Y-72764285D01*
X122991247Y-72764285D02*
X123229342Y-72764285D01*
X123229342Y-72764285D02*
X123324580Y-72811904D01*
X123324580Y-72811904D02*
X123372200Y-72859523D01*
X123372200Y-72859523D02*
X123419819Y-72954761D01*
X123419819Y-72954761D02*
X123419819Y-73192856D01*
X123419819Y-73192856D02*
X123372200Y-73288094D01*
X123372200Y-73288094D02*
X123324580Y-73335713D01*
X122848390Y-72192856D02*
X122800771Y-72288094D01*
X122800771Y-72288094D02*
X122753152Y-72335713D01*
X122753152Y-72335713D02*
X122657914Y-72383332D01*
X122657914Y-72383332D02*
X122610295Y-72383332D01*
X122610295Y-72383332D02*
X122515057Y-72335713D01*
X122515057Y-72335713D02*
X122467438Y-72288094D01*
X122467438Y-72288094D02*
X122419819Y-72192856D01*
X122419819Y-72192856D02*
X122419819Y-72002380D01*
X122419819Y-72002380D02*
X122467438Y-71907142D01*
X122467438Y-71907142D02*
X122515057Y-71859523D01*
X122515057Y-71859523D02*
X122610295Y-71811904D01*
X122610295Y-71811904D02*
X122657914Y-71811904D01*
X122657914Y-71811904D02*
X122753152Y-71859523D01*
X122753152Y-71859523D02*
X122800771Y-71907142D01*
X122800771Y-71907142D02*
X122848390Y-72002380D01*
X122848390Y-72002380D02*
X122848390Y-72192856D01*
X122848390Y-72192856D02*
X122896009Y-72288094D01*
X122896009Y-72288094D02*
X122943628Y-72335713D01*
X122943628Y-72335713D02*
X123038866Y-72383332D01*
X123038866Y-72383332D02*
X123229342Y-72383332D01*
X123229342Y-72383332D02*
X123324580Y-72335713D01*
X123324580Y-72335713D02*
X123372200Y-72288094D01*
X123372200Y-72288094D02*
X123419819Y-72192856D01*
X123419819Y-72192856D02*
X123419819Y-72002380D01*
X123419819Y-72002380D02*
X123372200Y-71907142D01*
X123372200Y-71907142D02*
X123324580Y-71859523D01*
X123324580Y-71859523D02*
X123229342Y-71811904D01*
X123229342Y-71811904D02*
X123038866Y-71811904D01*
X123038866Y-71811904D02*
X122943628Y-71859523D01*
X122943628Y-71859523D02*
X122896009Y-71907142D01*
X122896009Y-71907142D02*
X122848390Y-72002380D01*
X122419819Y-71478570D02*
X122419819Y-70859523D01*
X122419819Y-70859523D02*
X122800771Y-71192856D01*
X122800771Y-71192856D02*
X122800771Y-71049999D01*
X122800771Y-71049999D02*
X122848390Y-70954761D01*
X122848390Y-70954761D02*
X122896009Y-70907142D01*
X122896009Y-70907142D02*
X122991247Y-70859523D01*
X122991247Y-70859523D02*
X123229342Y-70859523D01*
X123229342Y-70859523D02*
X123324580Y-70907142D01*
X123324580Y-70907142D02*
X123372200Y-70954761D01*
X123372200Y-70954761D02*
X123419819Y-71049999D01*
X123419819Y-71049999D02*
X123419819Y-71335713D01*
X123419819Y-71335713D02*
X123372200Y-71430951D01*
X123372200Y-71430951D02*
X123324580Y-71478570D01*
X133700180Y-96202381D02*
X134366847Y-96202381D01*
X134271609Y-96202381D02*
X134319228Y-96250000D01*
X134319228Y-96250000D02*
X134366847Y-96345238D01*
X134366847Y-96345238D02*
X134366847Y-96488095D01*
X134366847Y-96488095D02*
X134319228Y-96583333D01*
X134319228Y-96583333D02*
X134223990Y-96630952D01*
X134223990Y-96630952D02*
X133700180Y-96630952D01*
X134223990Y-96630952D02*
X134319228Y-96678571D01*
X134319228Y-96678571D02*
X134366847Y-96773809D01*
X134366847Y-96773809D02*
X134366847Y-96916666D01*
X134366847Y-96916666D02*
X134319228Y-97011905D01*
X134319228Y-97011905D02*
X134223990Y-97059524D01*
X134223990Y-97059524D02*
X133700180Y-97059524D01*
X133700180Y-97964285D02*
X134223990Y-97964285D01*
X134223990Y-97964285D02*
X134319228Y-97916666D01*
X134319228Y-97916666D02*
X134366847Y-97821428D01*
X134366847Y-97821428D02*
X134366847Y-97630952D01*
X134366847Y-97630952D02*
X134319228Y-97535714D01*
X133747800Y-97964285D02*
X133700180Y-97869047D01*
X133700180Y-97869047D02*
X133700180Y-97630952D01*
X133700180Y-97630952D02*
X133747800Y-97535714D01*
X133747800Y-97535714D02*
X133843038Y-97488095D01*
X133843038Y-97488095D02*
X133938276Y-97488095D01*
X133938276Y-97488095D02*
X134033514Y-97535714D01*
X134033514Y-97535714D02*
X134081133Y-97630952D01*
X134081133Y-97630952D02*
X134081133Y-97869047D01*
X134081133Y-97869047D02*
X134128752Y-97964285D01*
X133700180Y-98345238D02*
X134366847Y-98869047D01*
X134366847Y-98345238D02*
X133700180Y-98869047D01*
X134700180Y-99154762D02*
X134700180Y-99773809D01*
X134700180Y-99773809D02*
X134319228Y-99440476D01*
X134319228Y-99440476D02*
X134319228Y-99583333D01*
X134319228Y-99583333D02*
X134271609Y-99678571D01*
X134271609Y-99678571D02*
X134223990Y-99726190D01*
X134223990Y-99726190D02*
X134128752Y-99773809D01*
X134128752Y-99773809D02*
X133890657Y-99773809D01*
X133890657Y-99773809D02*
X133795419Y-99726190D01*
X133795419Y-99726190D02*
X133747800Y-99678571D01*
X133747800Y-99678571D02*
X133700180Y-99583333D01*
X133700180Y-99583333D02*
X133700180Y-99297619D01*
X133700180Y-99297619D02*
X133747800Y-99202381D01*
X133747800Y-99202381D02*
X133795419Y-99154762D01*
X134700180Y-100107143D02*
X134700180Y-100726190D01*
X134700180Y-100726190D02*
X134319228Y-100392857D01*
X134319228Y-100392857D02*
X134319228Y-100535714D01*
X134319228Y-100535714D02*
X134271609Y-100630952D01*
X134271609Y-100630952D02*
X134223990Y-100678571D01*
X134223990Y-100678571D02*
X134128752Y-100726190D01*
X134128752Y-100726190D02*
X133890657Y-100726190D01*
X133890657Y-100726190D02*
X133795419Y-100678571D01*
X133795419Y-100678571D02*
X133747800Y-100630952D01*
X133747800Y-100630952D02*
X133700180Y-100535714D01*
X133700180Y-100535714D02*
X133700180Y-100250000D01*
X133700180Y-100250000D02*
X133747800Y-100154762D01*
X133747800Y-100154762D02*
X133795419Y-100107143D01*
X134604942Y-101107143D02*
X134652561Y-101154762D01*
X134652561Y-101154762D02*
X134700180Y-101250000D01*
X134700180Y-101250000D02*
X134700180Y-101488095D01*
X134700180Y-101488095D02*
X134652561Y-101583333D01*
X134652561Y-101583333D02*
X134604942Y-101630952D01*
X134604942Y-101630952D02*
X134509704Y-101678571D01*
X134509704Y-101678571D02*
X134414466Y-101678571D01*
X134414466Y-101678571D02*
X134271609Y-101630952D01*
X134271609Y-101630952D02*
X133700180Y-101059524D01*
X133700180Y-101059524D02*
X133700180Y-101678571D01*
X134700180Y-102011905D02*
X134700180Y-102630952D01*
X134700180Y-102630952D02*
X134319228Y-102297619D01*
X134319228Y-102297619D02*
X134319228Y-102440476D01*
X134319228Y-102440476D02*
X134271609Y-102535714D01*
X134271609Y-102535714D02*
X134223990Y-102583333D01*
X134223990Y-102583333D02*
X134128752Y-102630952D01*
X134128752Y-102630952D02*
X133890657Y-102630952D01*
X133890657Y-102630952D02*
X133795419Y-102583333D01*
X133795419Y-102583333D02*
X133747800Y-102535714D01*
X133747800Y-102535714D02*
X133700180Y-102440476D01*
X133700180Y-102440476D02*
X133700180Y-102154762D01*
X133700180Y-102154762D02*
X133747800Y-102059524D01*
X133747800Y-102059524D02*
X133795419Y-102011905D01*
X133747800Y-103440476D02*
X133700180Y-103345238D01*
X133700180Y-103345238D02*
X133700180Y-103154762D01*
X133700180Y-103154762D02*
X133747800Y-103059524D01*
X133747800Y-103059524D02*
X133843038Y-103011905D01*
X133843038Y-103011905D02*
X134223990Y-103011905D01*
X134223990Y-103011905D02*
X134319228Y-103059524D01*
X134319228Y-103059524D02*
X134366847Y-103154762D01*
X134366847Y-103154762D02*
X134366847Y-103345238D01*
X134366847Y-103345238D02*
X134319228Y-103440476D01*
X134319228Y-103440476D02*
X134223990Y-103488095D01*
X134223990Y-103488095D02*
X134128752Y-103488095D01*
X134128752Y-103488095D02*
X134033514Y-103011905D01*
X133747800Y-104297619D02*
X133700180Y-104202381D01*
X133700180Y-104202381D02*
X133700180Y-104011905D01*
X133700180Y-104011905D02*
X133747800Y-103916667D01*
X133747800Y-103916667D02*
X133843038Y-103869048D01*
X133843038Y-103869048D02*
X134223990Y-103869048D01*
X134223990Y-103869048D02*
X134319228Y-103916667D01*
X134319228Y-103916667D02*
X134366847Y-104011905D01*
X134366847Y-104011905D02*
X134366847Y-104202381D01*
X134366847Y-104202381D02*
X134319228Y-104297619D01*
X134319228Y-104297619D02*
X134223990Y-104345238D01*
X134223990Y-104345238D02*
X134128752Y-104345238D01*
X134128752Y-104345238D02*
X134033514Y-103869048D01*
X134366847Y-104773810D02*
X133366847Y-104773810D01*
X134319228Y-104773810D02*
X134366847Y-104869048D01*
X134366847Y-104869048D02*
X134366847Y-105059524D01*
X134366847Y-105059524D02*
X134319228Y-105154762D01*
X134319228Y-105154762D02*
X134271609Y-105202381D01*
X134271609Y-105202381D02*
X134176371Y-105250000D01*
X134176371Y-105250000D02*
X133890657Y-105250000D01*
X133890657Y-105250000D02*
X133795419Y-105202381D01*
X133795419Y-105202381D02*
X133747800Y-105154762D01*
X133747800Y-105154762D02*
X133700180Y-105059524D01*
X133700180Y-105059524D02*
X133700180Y-104869048D01*
X133700180Y-104869048D02*
X133747800Y-104773810D01*
X133747800Y-106059524D02*
X133700180Y-105964286D01*
X133700180Y-105964286D02*
X133700180Y-105773810D01*
X133700180Y-105773810D02*
X133747800Y-105678572D01*
X133747800Y-105678572D02*
X133843038Y-105630953D01*
X133843038Y-105630953D02*
X134223990Y-105630953D01*
X134223990Y-105630953D02*
X134319228Y-105678572D01*
X134319228Y-105678572D02*
X134366847Y-105773810D01*
X134366847Y-105773810D02*
X134366847Y-105964286D01*
X134366847Y-105964286D02*
X134319228Y-106059524D01*
X134319228Y-106059524D02*
X134223990Y-106107143D01*
X134223990Y-106107143D02*
X134128752Y-106107143D01*
X134128752Y-106107143D02*
X134033514Y-105630953D01*
X134081133Y-106535715D02*
X134081133Y-107297620D01*
X133700180Y-106916667D02*
X134462085Y-106916667D01*
X137838000Y-110094819D02*
X137838000Y-110332914D01*
X137599905Y-110237676D02*
X137838000Y-110332914D01*
X137838000Y-110332914D02*
X138076095Y-110237676D01*
X137695143Y-110523390D02*
X137838000Y-110332914D01*
X137838000Y-110332914D02*
X137980857Y-110523390D01*
X134609819Y-106749999D02*
X133609819Y-106749999D01*
X133609819Y-106749999D02*
X134324104Y-106416666D01*
X134324104Y-106416666D02*
X133609819Y-106083333D01*
X133609819Y-106083333D02*
X134609819Y-106083333D01*
X134324104Y-105654761D02*
X134324104Y-105178571D01*
X134609819Y-105749999D02*
X133609819Y-105416666D01*
X133609819Y-105416666D02*
X134609819Y-105083333D01*
X133609819Y-104845237D02*
X134609819Y-104178571D01*
X133609819Y-104178571D02*
X134609819Y-104845237D01*
X133609819Y-103892856D02*
X133609819Y-103273809D01*
X133609819Y-103273809D02*
X133990771Y-103607142D01*
X133990771Y-103607142D02*
X133990771Y-103464285D01*
X133990771Y-103464285D02*
X134038390Y-103369047D01*
X134038390Y-103369047D02*
X134086009Y-103321428D01*
X134086009Y-103321428D02*
X134181247Y-103273809D01*
X134181247Y-103273809D02*
X134419342Y-103273809D01*
X134419342Y-103273809D02*
X134514580Y-103321428D01*
X134514580Y-103321428D02*
X134562200Y-103369047D01*
X134562200Y-103369047D02*
X134609819Y-103464285D01*
X134609819Y-103464285D02*
X134609819Y-103749999D01*
X134609819Y-103749999D02*
X134562200Y-103845237D01*
X134562200Y-103845237D02*
X134514580Y-103892856D01*
X133609819Y-102940475D02*
X133609819Y-102321428D01*
X133609819Y-102321428D02*
X133990771Y-102654761D01*
X133990771Y-102654761D02*
X133990771Y-102511904D01*
X133990771Y-102511904D02*
X134038390Y-102416666D01*
X134038390Y-102416666D02*
X134086009Y-102369047D01*
X134086009Y-102369047D02*
X134181247Y-102321428D01*
X134181247Y-102321428D02*
X134419342Y-102321428D01*
X134419342Y-102321428D02*
X134514580Y-102369047D01*
X134514580Y-102369047D02*
X134562200Y-102416666D01*
X134562200Y-102416666D02*
X134609819Y-102511904D01*
X134609819Y-102511904D02*
X134609819Y-102797618D01*
X134609819Y-102797618D02*
X134562200Y-102892856D01*
X134562200Y-102892856D02*
X134514580Y-102940475D01*
X133705057Y-101940475D02*
X133657438Y-101892856D01*
X133657438Y-101892856D02*
X133609819Y-101797618D01*
X133609819Y-101797618D02*
X133609819Y-101559523D01*
X133609819Y-101559523D02*
X133657438Y-101464285D01*
X133657438Y-101464285D02*
X133705057Y-101416666D01*
X133705057Y-101416666D02*
X133800295Y-101369047D01*
X133800295Y-101369047D02*
X133895533Y-101369047D01*
X133895533Y-101369047D02*
X134038390Y-101416666D01*
X134038390Y-101416666D02*
X134609819Y-101988094D01*
X134609819Y-101988094D02*
X134609819Y-101369047D01*
X133609819Y-101035713D02*
X133609819Y-100416666D01*
X133609819Y-100416666D02*
X133990771Y-100749999D01*
X133990771Y-100749999D02*
X133990771Y-100607142D01*
X133990771Y-100607142D02*
X134038390Y-100511904D01*
X134038390Y-100511904D02*
X134086009Y-100464285D01*
X134086009Y-100464285D02*
X134181247Y-100416666D01*
X134181247Y-100416666D02*
X134419342Y-100416666D01*
X134419342Y-100416666D02*
X134514580Y-100464285D01*
X134514580Y-100464285D02*
X134562200Y-100511904D01*
X134562200Y-100511904D02*
X134609819Y-100607142D01*
X134609819Y-100607142D02*
X134609819Y-100892856D01*
X134609819Y-100892856D02*
X134562200Y-100988094D01*
X134562200Y-100988094D02*
X134514580Y-101035713D01*
X134086009Y-99988094D02*
X134086009Y-99654761D01*
X134609819Y-99511904D02*
X134609819Y-99988094D01*
X134609819Y-99988094D02*
X133609819Y-99988094D01*
X133609819Y-99988094D02*
X133609819Y-99511904D01*
X134086009Y-99083332D02*
X134086009Y-98749999D01*
X134609819Y-98607142D02*
X134609819Y-99083332D01*
X134609819Y-99083332D02*
X133609819Y-99083332D01*
X133609819Y-99083332D02*
X133609819Y-98607142D01*
X134609819Y-98178570D02*
X133609819Y-98178570D01*
X133609819Y-98178570D02*
X133609819Y-97797618D01*
X133609819Y-97797618D02*
X133657438Y-97702380D01*
X133657438Y-97702380D02*
X133705057Y-97654761D01*
X133705057Y-97654761D02*
X133800295Y-97607142D01*
X133800295Y-97607142D02*
X133943152Y-97607142D01*
X133943152Y-97607142D02*
X134038390Y-97654761D01*
X134038390Y-97654761D02*
X134086009Y-97702380D01*
X134086009Y-97702380D02*
X134133628Y-97797618D01*
X134133628Y-97797618D02*
X134133628Y-98178570D01*
X134086009Y-97178570D02*
X134086009Y-96845237D01*
X134609819Y-96702380D02*
X134609819Y-97178570D01*
X134609819Y-97178570D02*
X133609819Y-97178570D01*
X133609819Y-97178570D02*
X133609819Y-96702380D01*
X137838000Y-110094819D02*
X137838000Y-110332914D01*
X137599905Y-110237676D02*
X137838000Y-110332914D01*
X137838000Y-110332914D02*
X138076095Y-110237676D01*
X137695143Y-110523390D02*
X137838000Y-110332914D01*
X137838000Y-110332914D02*
X137980857Y-110523390D01*
D11*
X130765084Y-114633313D02*
X130802579Y-114633313D01*
X130802579Y-114633313D02*
X130840074Y-114652061D01*
X130840074Y-114652061D02*
X130858822Y-114670809D01*
X130858822Y-114670809D02*
X130877570Y-114708304D01*
X130877570Y-114708304D02*
X130896317Y-114783295D01*
X130896317Y-114783295D02*
X130896317Y-114877033D01*
X130896317Y-114877033D02*
X130877570Y-114952024D01*
X130877570Y-114952024D02*
X130858822Y-114989519D01*
X130858822Y-114989519D02*
X130840074Y-115008267D01*
X130840074Y-115008267D02*
X130802579Y-115027014D01*
X130802579Y-115027014D02*
X130765084Y-115027014D01*
X130765084Y-115027014D02*
X130727588Y-115008267D01*
X130727588Y-115008267D02*
X130708841Y-114989519D01*
X130708841Y-114989519D02*
X130690093Y-114952024D01*
X130690093Y-114952024D02*
X130671345Y-114877033D01*
X130671345Y-114877033D02*
X130671345Y-114783295D01*
X130671345Y-114783295D02*
X130690093Y-114708304D01*
X130690093Y-114708304D02*
X130708841Y-114670809D01*
X130708841Y-114670809D02*
X130727588Y-114652061D01*
X130727588Y-114652061D02*
X130765084Y-114633313D01*
X131065046Y-114989519D02*
X131083794Y-115008267D01*
X131083794Y-115008267D02*
X131065046Y-115027014D01*
X131065046Y-115027014D02*
X131046298Y-115008267D01*
X131046298Y-115008267D02*
X131065046Y-114989519D01*
X131065046Y-114989519D02*
X131065046Y-115027014D01*
X131458747Y-115027014D02*
X131233775Y-115027014D01*
X131346261Y-115027014D02*
X131346261Y-114633313D01*
X131346261Y-114633313D02*
X131308766Y-114689556D01*
X131308766Y-114689556D02*
X131271271Y-114727052D01*
X131271271Y-114727052D02*
X131233775Y-114745799D01*
X131627476Y-114764547D02*
X131627476Y-115158248D01*
X131814953Y-114970771D02*
X131833700Y-115008267D01*
X131833700Y-115008267D02*
X131871196Y-115027014D01*
X131627476Y-114970771D02*
X131646224Y-115008267D01*
X131646224Y-115008267D02*
X131683719Y-115027014D01*
X131683719Y-115027014D02*
X131758710Y-115027014D01*
X131758710Y-115027014D02*
X131796205Y-115008267D01*
X131796205Y-115008267D02*
X131814953Y-114970771D01*
X131814953Y-114970771D02*
X131814953Y-114764547D01*
X132171159Y-114820790D02*
X132039925Y-114820790D01*
X132039925Y-115027014D02*
X132039925Y-114633313D01*
X132039925Y-114633313D02*
X132227402Y-114633313D01*
X143583313Y-107884916D02*
X143583313Y-107847420D01*
X143583313Y-107847420D02*
X143602061Y-107809925D01*
X143602061Y-107809925D02*
X143620809Y-107791177D01*
X143620809Y-107791177D02*
X143658304Y-107772430D01*
X143658304Y-107772430D02*
X143733295Y-107753682D01*
X143733295Y-107753682D02*
X143827033Y-107753682D01*
X143827033Y-107753682D02*
X143902024Y-107772430D01*
X143902024Y-107772430D02*
X143939519Y-107791177D01*
X143939519Y-107791177D02*
X143958267Y-107809925D01*
X143958267Y-107809925D02*
X143977014Y-107847420D01*
X143977014Y-107847420D02*
X143977014Y-107884916D01*
X143977014Y-107884916D02*
X143958267Y-107922411D01*
X143958267Y-107922411D02*
X143939519Y-107941159D01*
X143939519Y-107941159D02*
X143902024Y-107959906D01*
X143902024Y-107959906D02*
X143827033Y-107978654D01*
X143827033Y-107978654D02*
X143733295Y-107978654D01*
X143733295Y-107978654D02*
X143658304Y-107959906D01*
X143658304Y-107959906D02*
X143620809Y-107941159D01*
X143620809Y-107941159D02*
X143602061Y-107922411D01*
X143602061Y-107922411D02*
X143583313Y-107884916D01*
X143939519Y-107584953D02*
X143958267Y-107566206D01*
X143958267Y-107566206D02*
X143977014Y-107584953D01*
X143977014Y-107584953D02*
X143958267Y-107603701D01*
X143958267Y-107603701D02*
X143939519Y-107584953D01*
X143939519Y-107584953D02*
X143977014Y-107584953D01*
X143977014Y-107191252D02*
X143977014Y-107416224D01*
X143977014Y-107303738D02*
X143583313Y-107303738D01*
X143583313Y-107303738D02*
X143639556Y-107341233D01*
X143639556Y-107341233D02*
X143677052Y-107378729D01*
X143677052Y-107378729D02*
X143695799Y-107416224D01*
X143714547Y-107022523D02*
X144108248Y-107022523D01*
X143920771Y-106835047D02*
X143958267Y-106816299D01*
X143958267Y-106816299D02*
X143977014Y-106778804D01*
X143920771Y-107022523D02*
X143958267Y-107003776D01*
X143958267Y-107003776D02*
X143977014Y-106966280D01*
X143977014Y-106966280D02*
X143977014Y-106891290D01*
X143977014Y-106891290D02*
X143958267Y-106853794D01*
X143958267Y-106853794D02*
X143920771Y-106835047D01*
X143920771Y-106835047D02*
X143714547Y-106835047D01*
X143770790Y-106478841D02*
X143770790Y-106610074D01*
X143977014Y-106610074D02*
X143583313Y-106610074D01*
X143583313Y-106610074D02*
X143583313Y-106422598D01*
D10*
X114714285Y-113545180D02*
X114047619Y-112545180D01*
X114047619Y-113545180D02*
X114714285Y-112545180D01*
X113333333Y-113068990D02*
X113190476Y-113021371D01*
X113190476Y-113021371D02*
X113142857Y-112973752D01*
X113142857Y-112973752D02*
X113095238Y-112878514D01*
X113095238Y-112878514D02*
X113095238Y-112735657D01*
X113095238Y-112735657D02*
X113142857Y-112640419D01*
X113142857Y-112640419D02*
X113190476Y-112592800D01*
X113190476Y-112592800D02*
X113285714Y-112545180D01*
X113285714Y-112545180D02*
X113666666Y-112545180D01*
X113666666Y-112545180D02*
X113666666Y-113545180D01*
X113666666Y-113545180D02*
X113333333Y-113545180D01*
X113333333Y-113545180D02*
X113238095Y-113497561D01*
X113238095Y-113497561D02*
X113190476Y-113449942D01*
X113190476Y-113449942D02*
X113142857Y-113354704D01*
X113142857Y-113354704D02*
X113142857Y-113259466D01*
X113142857Y-113259466D02*
X113190476Y-113164228D01*
X113190476Y-113164228D02*
X113238095Y-113116609D01*
X113238095Y-113116609D02*
X113333333Y-113068990D01*
X113333333Y-113068990D02*
X113666666Y-113068990D01*
X112666666Y-113068990D02*
X112333333Y-113068990D01*
X112190476Y-112545180D02*
X112666666Y-112545180D01*
X112666666Y-112545180D02*
X112666666Y-113545180D01*
X112666666Y-113545180D02*
X112190476Y-113545180D01*
X111761904Y-113068990D02*
X111428571Y-113068990D01*
X111285714Y-112545180D02*
X111761904Y-112545180D01*
X111761904Y-112545180D02*
X111761904Y-113545180D01*
X111761904Y-113545180D02*
X111285714Y-113545180D01*
X110333333Y-112545180D02*
X110904761Y-112545180D01*
X110619047Y-112545180D02*
X110619047Y-113545180D01*
X110619047Y-113545180D02*
X110714285Y-113402323D01*
X110714285Y-113402323D02*
X110809523Y-113307085D01*
X110809523Y-113307085D02*
X110904761Y-113259466D01*
D11*
X150877014Y-48030579D02*
X150877014Y-48255551D01*
X150877014Y-48143065D02*
X150483313Y-48143065D01*
X150483313Y-48143065D02*
X150539556Y-48180560D01*
X150539556Y-48180560D02*
X150577052Y-48218056D01*
X150577052Y-48218056D02*
X150595799Y-48255551D01*
X150483313Y-47786860D02*
X150483313Y-47749364D01*
X150483313Y-47749364D02*
X150502061Y-47711869D01*
X150502061Y-47711869D02*
X150520809Y-47693121D01*
X150520809Y-47693121D02*
X150558304Y-47674374D01*
X150558304Y-47674374D02*
X150633295Y-47655626D01*
X150633295Y-47655626D02*
X150727033Y-47655626D01*
X150727033Y-47655626D02*
X150802024Y-47674374D01*
X150802024Y-47674374D02*
X150839519Y-47693121D01*
X150839519Y-47693121D02*
X150858267Y-47711869D01*
X150858267Y-47711869D02*
X150877014Y-47749364D01*
X150877014Y-47749364D02*
X150877014Y-47786860D01*
X150877014Y-47786860D02*
X150858267Y-47824355D01*
X150858267Y-47824355D02*
X150839519Y-47843103D01*
X150839519Y-47843103D02*
X150802024Y-47861850D01*
X150802024Y-47861850D02*
X150727033Y-47880598D01*
X150727033Y-47880598D02*
X150633295Y-47880598D01*
X150633295Y-47880598D02*
X150558304Y-47861850D01*
X150558304Y-47861850D02*
X150520809Y-47843103D01*
X150520809Y-47843103D02*
X150502061Y-47824355D01*
X150502061Y-47824355D02*
X150483313Y-47786860D01*
X150614547Y-47318168D02*
X150877014Y-47318168D01*
X150614547Y-47486897D02*
X150820771Y-47486897D01*
X150820771Y-47486897D02*
X150858267Y-47468150D01*
X150858267Y-47468150D02*
X150877014Y-47430654D01*
X150877014Y-47430654D02*
X150877014Y-47374411D01*
X150877014Y-47374411D02*
X150858267Y-47336916D01*
X150858267Y-47336916D02*
X150839519Y-47318168D01*
X150614547Y-47186934D02*
X150614547Y-47036953D01*
X150877014Y-47130691D02*
X150539556Y-47130691D01*
X150539556Y-47130691D02*
X150502061Y-47111944D01*
X150502061Y-47111944D02*
X150483313Y-47074448D01*
X150483313Y-47074448D02*
X150483313Y-47036953D01*
D10*
X99981188Y-38259580D02*
X99933569Y-38307200D01*
X99933569Y-38307200D02*
X99790712Y-38354819D01*
X99790712Y-38354819D02*
X99695474Y-38354819D01*
X99695474Y-38354819D02*
X99552617Y-38307200D01*
X99552617Y-38307200D02*
X99457379Y-38211961D01*
X99457379Y-38211961D02*
X99409760Y-38116723D01*
X99409760Y-38116723D02*
X99362141Y-37926247D01*
X99362141Y-37926247D02*
X99362141Y-37783390D01*
X99362141Y-37783390D02*
X99409760Y-37592914D01*
X99409760Y-37592914D02*
X99457379Y-37497676D01*
X99457379Y-37497676D02*
X99552617Y-37402438D01*
X99552617Y-37402438D02*
X99695474Y-37354819D01*
X99695474Y-37354819D02*
X99790712Y-37354819D01*
X99790712Y-37354819D02*
X99933569Y-37402438D01*
X99933569Y-37402438D02*
X99981188Y-37450057D01*
X100552617Y-38354819D02*
X100457379Y-38307200D01*
X100457379Y-38307200D02*
X100409760Y-38259580D01*
X100409760Y-38259580D02*
X100362141Y-38164342D01*
X100362141Y-38164342D02*
X100362141Y-37878628D01*
X100362141Y-37878628D02*
X100409760Y-37783390D01*
X100409760Y-37783390D02*
X100457379Y-37735771D01*
X100457379Y-37735771D02*
X100552617Y-37688152D01*
X100552617Y-37688152D02*
X100695474Y-37688152D01*
X100695474Y-37688152D02*
X100790712Y-37735771D01*
X100790712Y-37735771D02*
X100838331Y-37783390D01*
X100838331Y-37783390D02*
X100885950Y-37878628D01*
X100885950Y-37878628D02*
X100885950Y-38164342D01*
X100885950Y-38164342D02*
X100838331Y-38259580D01*
X100838331Y-38259580D02*
X100790712Y-38307200D01*
X100790712Y-38307200D02*
X100695474Y-38354819D01*
X100695474Y-38354819D02*
X100552617Y-38354819D01*
X101314522Y-37688152D02*
X101314522Y-38354819D01*
X101314522Y-37783390D02*
X101362141Y-37735771D01*
X101362141Y-37735771D02*
X101457379Y-37688152D01*
X101457379Y-37688152D02*
X101600236Y-37688152D01*
X101600236Y-37688152D02*
X101695474Y-37735771D01*
X101695474Y-37735771D02*
X101743093Y-37831009D01*
X101743093Y-37831009D02*
X101743093Y-38354819D01*
X102219284Y-37688152D02*
X102219284Y-38354819D01*
X102219284Y-37783390D02*
X102266903Y-37735771D01*
X102266903Y-37735771D02*
X102362141Y-37688152D01*
X102362141Y-37688152D02*
X102504998Y-37688152D01*
X102504998Y-37688152D02*
X102600236Y-37735771D01*
X102600236Y-37735771D02*
X102647855Y-37831009D01*
X102647855Y-37831009D02*
X102647855Y-38354819D01*
X102885951Y-38450057D02*
X103647855Y-38450057D01*
X104076427Y-37354819D02*
X104171665Y-37354819D01*
X104171665Y-37354819D02*
X104266903Y-37402438D01*
X104266903Y-37402438D02*
X104314522Y-37450057D01*
X104314522Y-37450057D02*
X104362141Y-37545295D01*
X104362141Y-37545295D02*
X104409760Y-37735771D01*
X104409760Y-37735771D02*
X104409760Y-37973866D01*
X104409760Y-37973866D02*
X104362141Y-38164342D01*
X104362141Y-38164342D02*
X104314522Y-38259580D01*
X104314522Y-38259580D02*
X104266903Y-38307200D01*
X104266903Y-38307200D02*
X104171665Y-38354819D01*
X104171665Y-38354819D02*
X104076427Y-38354819D01*
X104076427Y-38354819D02*
X103981189Y-38307200D01*
X103981189Y-38307200D02*
X103933570Y-38259580D01*
X103933570Y-38259580D02*
X103885951Y-38164342D01*
X103885951Y-38164342D02*
X103838332Y-37973866D01*
X103838332Y-37973866D02*
X103838332Y-37735771D01*
X103838332Y-37735771D02*
X103885951Y-37545295D01*
X103885951Y-37545295D02*
X103933570Y-37450057D01*
X103933570Y-37450057D02*
X103981189Y-37402438D01*
X103981189Y-37402438D02*
X104076427Y-37354819D01*
X104790713Y-37450057D02*
X104838332Y-37402438D01*
X104838332Y-37402438D02*
X104933570Y-37354819D01*
X104933570Y-37354819D02*
X105171665Y-37354819D01*
X105171665Y-37354819D02*
X105266903Y-37402438D01*
X105266903Y-37402438D02*
X105314522Y-37450057D01*
X105314522Y-37450057D02*
X105362141Y-37545295D01*
X105362141Y-37545295D02*
X105362141Y-37640533D01*
X105362141Y-37640533D02*
X105314522Y-37783390D01*
X105314522Y-37783390D02*
X104743094Y-38354819D01*
X104743094Y-38354819D02*
X105362141Y-38354819D01*
X105695475Y-38354819D02*
X106219284Y-37688152D01*
X105695475Y-37688152D02*
X106219284Y-38354819D01*
X106790713Y-37354819D02*
X106885951Y-37354819D01*
X106885951Y-37354819D02*
X106981189Y-37402438D01*
X106981189Y-37402438D02*
X107028808Y-37450057D01*
X107028808Y-37450057D02*
X107076427Y-37545295D01*
X107076427Y-37545295D02*
X107124046Y-37735771D01*
X107124046Y-37735771D02*
X107124046Y-37973866D01*
X107124046Y-37973866D02*
X107076427Y-38164342D01*
X107076427Y-38164342D02*
X107028808Y-38259580D01*
X107028808Y-38259580D02*
X106981189Y-38307200D01*
X106981189Y-38307200D02*
X106885951Y-38354819D01*
X106885951Y-38354819D02*
X106790713Y-38354819D01*
X106790713Y-38354819D02*
X106695475Y-38307200D01*
X106695475Y-38307200D02*
X106647856Y-38259580D01*
X106647856Y-38259580D02*
X106600237Y-38164342D01*
X106600237Y-38164342D02*
X106552618Y-37973866D01*
X106552618Y-37973866D02*
X106552618Y-37735771D01*
X106552618Y-37735771D02*
X106600237Y-37545295D01*
X106600237Y-37545295D02*
X106647856Y-37450057D01*
X106647856Y-37450057D02*
X106695475Y-37402438D01*
X106695475Y-37402438D02*
X106790713Y-37354819D01*
X107457380Y-37354819D02*
X108076427Y-37354819D01*
X108076427Y-37354819D02*
X107743094Y-37735771D01*
X107743094Y-37735771D02*
X107885951Y-37735771D01*
X107885951Y-37735771D02*
X107981189Y-37783390D01*
X107981189Y-37783390D02*
X108028808Y-37831009D01*
X108028808Y-37831009D02*
X108076427Y-37926247D01*
X108076427Y-37926247D02*
X108076427Y-38164342D01*
X108076427Y-38164342D02*
X108028808Y-38259580D01*
X108028808Y-38259580D02*
X107981189Y-38307200D01*
X107981189Y-38307200D02*
X107885951Y-38354819D01*
X107885951Y-38354819D02*
X107600237Y-38354819D01*
X107600237Y-38354819D02*
X107504999Y-38307200D01*
X107504999Y-38307200D02*
X107457380Y-38259580D01*
X108266904Y-38450057D02*
X109028808Y-38450057D01*
X109838332Y-38259580D02*
X109790713Y-38307200D01*
X109790713Y-38307200D02*
X109647856Y-38354819D01*
X109647856Y-38354819D02*
X109552618Y-38354819D01*
X109552618Y-38354819D02*
X109409761Y-38307200D01*
X109409761Y-38307200D02*
X109314523Y-38211961D01*
X109314523Y-38211961D02*
X109266904Y-38116723D01*
X109266904Y-38116723D02*
X109219285Y-37926247D01*
X109219285Y-37926247D02*
X109219285Y-37783390D01*
X109219285Y-37783390D02*
X109266904Y-37592914D01*
X109266904Y-37592914D02*
X109314523Y-37497676D01*
X109314523Y-37497676D02*
X109409761Y-37402438D01*
X109409761Y-37402438D02*
X109552618Y-37354819D01*
X109552618Y-37354819D02*
X109647856Y-37354819D01*
X109647856Y-37354819D02*
X109790713Y-37402438D01*
X109790713Y-37402438D02*
X109838332Y-37450057D01*
X110409761Y-38354819D02*
X110314523Y-38307200D01*
X110314523Y-38307200D02*
X110266904Y-38259580D01*
X110266904Y-38259580D02*
X110219285Y-38164342D01*
X110219285Y-38164342D02*
X110219285Y-37878628D01*
X110219285Y-37878628D02*
X110266904Y-37783390D01*
X110266904Y-37783390D02*
X110314523Y-37735771D01*
X110314523Y-37735771D02*
X110409761Y-37688152D01*
X110409761Y-37688152D02*
X110552618Y-37688152D01*
X110552618Y-37688152D02*
X110647856Y-37735771D01*
X110647856Y-37735771D02*
X110695475Y-37783390D01*
X110695475Y-37783390D02*
X110743094Y-37878628D01*
X110743094Y-37878628D02*
X110743094Y-38164342D01*
X110743094Y-38164342D02*
X110695475Y-38259580D01*
X110695475Y-38259580D02*
X110647856Y-38307200D01*
X110647856Y-38307200D02*
X110552618Y-38354819D01*
X110552618Y-38354819D02*
X110409761Y-38354819D01*
X111600237Y-37688152D02*
X111600237Y-38354819D01*
X111171666Y-37688152D02*
X111171666Y-38211961D01*
X111171666Y-38211961D02*
X111219285Y-38307200D01*
X111219285Y-38307200D02*
X111314523Y-38354819D01*
X111314523Y-38354819D02*
X111457380Y-38354819D01*
X111457380Y-38354819D02*
X111552618Y-38307200D01*
X111552618Y-38307200D02*
X111600237Y-38259580D01*
X112076428Y-37688152D02*
X112076428Y-38354819D01*
X112076428Y-37783390D02*
X112124047Y-37735771D01*
X112124047Y-37735771D02*
X112219285Y-37688152D01*
X112219285Y-37688152D02*
X112362142Y-37688152D01*
X112362142Y-37688152D02*
X112457380Y-37735771D01*
X112457380Y-37735771D02*
X112504999Y-37831009D01*
X112504999Y-37831009D02*
X112504999Y-38354819D01*
X112838333Y-37688152D02*
X113219285Y-37688152D01*
X112981190Y-37354819D02*
X112981190Y-38211961D01*
X112981190Y-38211961D02*
X113028809Y-38307200D01*
X113028809Y-38307200D02*
X113124047Y-38354819D01*
X113124047Y-38354819D02*
X113219285Y-38354819D01*
X113933571Y-38307200D02*
X113838333Y-38354819D01*
X113838333Y-38354819D02*
X113647857Y-38354819D01*
X113647857Y-38354819D02*
X113552619Y-38307200D01*
X113552619Y-38307200D02*
X113505000Y-38211961D01*
X113505000Y-38211961D02*
X113505000Y-37831009D01*
X113505000Y-37831009D02*
X113552619Y-37735771D01*
X113552619Y-37735771D02*
X113647857Y-37688152D01*
X113647857Y-37688152D02*
X113838333Y-37688152D01*
X113838333Y-37688152D02*
X113933571Y-37735771D01*
X113933571Y-37735771D02*
X113981190Y-37831009D01*
X113981190Y-37831009D02*
X113981190Y-37926247D01*
X113981190Y-37926247D02*
X113505000Y-38021485D01*
X114409762Y-38354819D02*
X114409762Y-37688152D01*
X114409762Y-37878628D02*
X114457381Y-37783390D01*
X114457381Y-37783390D02*
X114505000Y-37735771D01*
X114505000Y-37735771D02*
X114600238Y-37688152D01*
X114600238Y-37688152D02*
X114695476Y-37688152D01*
X114790715Y-38450057D02*
X115552619Y-38450057D01*
X116362143Y-38259580D02*
X116314524Y-38307200D01*
X116314524Y-38307200D02*
X116171667Y-38354819D01*
X116171667Y-38354819D02*
X116076429Y-38354819D01*
X116076429Y-38354819D02*
X115933572Y-38307200D01*
X115933572Y-38307200D02*
X115838334Y-38211961D01*
X115838334Y-38211961D02*
X115790715Y-38116723D01*
X115790715Y-38116723D02*
X115743096Y-37926247D01*
X115743096Y-37926247D02*
X115743096Y-37783390D01*
X115743096Y-37783390D02*
X115790715Y-37592914D01*
X115790715Y-37592914D02*
X115838334Y-37497676D01*
X115838334Y-37497676D02*
X115933572Y-37402438D01*
X115933572Y-37402438D02*
X116076429Y-37354819D01*
X116076429Y-37354819D02*
X116171667Y-37354819D01*
X116171667Y-37354819D02*
X116314524Y-37402438D01*
X116314524Y-37402438D02*
X116362143Y-37450057D01*
X116933572Y-38354819D02*
X116838334Y-38307200D01*
X116838334Y-38307200D02*
X116790715Y-38211961D01*
X116790715Y-38211961D02*
X116790715Y-37354819D01*
X117457382Y-38354819D02*
X117362144Y-38307200D01*
X117362144Y-38307200D02*
X117314525Y-38259580D01*
X117314525Y-38259580D02*
X117266906Y-38164342D01*
X117266906Y-38164342D02*
X117266906Y-37878628D01*
X117266906Y-37878628D02*
X117314525Y-37783390D01*
X117314525Y-37783390D02*
X117362144Y-37735771D01*
X117362144Y-37735771D02*
X117457382Y-37688152D01*
X117457382Y-37688152D02*
X117600239Y-37688152D01*
X117600239Y-37688152D02*
X117695477Y-37735771D01*
X117695477Y-37735771D02*
X117743096Y-37783390D01*
X117743096Y-37783390D02*
X117790715Y-37878628D01*
X117790715Y-37878628D02*
X117790715Y-38164342D01*
X117790715Y-38164342D02*
X117743096Y-38259580D01*
X117743096Y-38259580D02*
X117695477Y-38307200D01*
X117695477Y-38307200D02*
X117600239Y-38354819D01*
X117600239Y-38354819D02*
X117457382Y-38354819D01*
X118647858Y-38307200D02*
X118552620Y-38354819D01*
X118552620Y-38354819D02*
X118362144Y-38354819D01*
X118362144Y-38354819D02*
X118266906Y-38307200D01*
X118266906Y-38307200D02*
X118219287Y-38259580D01*
X118219287Y-38259580D02*
X118171668Y-38164342D01*
X118171668Y-38164342D02*
X118171668Y-37878628D01*
X118171668Y-37878628D02*
X118219287Y-37783390D01*
X118219287Y-37783390D02*
X118266906Y-37735771D01*
X118266906Y-37735771D02*
X118362144Y-37688152D01*
X118362144Y-37688152D02*
X118552620Y-37688152D01*
X118552620Y-37688152D02*
X118647858Y-37735771D01*
X119076430Y-38354819D02*
X119076430Y-37354819D01*
X119171668Y-37973866D02*
X119457382Y-38354819D01*
X119457382Y-37688152D02*
X119076430Y-38069104D01*
X119790716Y-37688152D02*
X119981192Y-38354819D01*
X119981192Y-38354819D02*
X120171668Y-37878628D01*
X120171668Y-37878628D02*
X120362144Y-38354819D01*
X120362144Y-38354819D02*
X120552620Y-37688152D01*
X120933573Y-38354819D02*
X120933573Y-37688152D01*
X120933573Y-37354819D02*
X120885954Y-37402438D01*
X120885954Y-37402438D02*
X120933573Y-37450057D01*
X120933573Y-37450057D02*
X120981192Y-37402438D01*
X120981192Y-37402438D02*
X120933573Y-37354819D01*
X120933573Y-37354819D02*
X120933573Y-37450057D01*
X121362144Y-38307200D02*
X121457382Y-38354819D01*
X121457382Y-38354819D02*
X121647858Y-38354819D01*
X121647858Y-38354819D02*
X121743096Y-38307200D01*
X121743096Y-38307200D02*
X121790715Y-38211961D01*
X121790715Y-38211961D02*
X121790715Y-38164342D01*
X121790715Y-38164342D02*
X121743096Y-38069104D01*
X121743096Y-38069104D02*
X121647858Y-38021485D01*
X121647858Y-38021485D02*
X121505001Y-38021485D01*
X121505001Y-38021485D02*
X121409763Y-37973866D01*
X121409763Y-37973866D02*
X121362144Y-37878628D01*
X121362144Y-37878628D02*
X121362144Y-37831009D01*
X121362144Y-37831009D02*
X121409763Y-37735771D01*
X121409763Y-37735771D02*
X121505001Y-37688152D01*
X121505001Y-37688152D02*
X121647858Y-37688152D01*
X121647858Y-37688152D02*
X121743096Y-37735771D01*
X122600239Y-38307200D02*
X122505001Y-38354819D01*
X122505001Y-38354819D02*
X122314525Y-38354819D01*
X122314525Y-38354819D02*
X122219287Y-38307200D01*
X122219287Y-38307200D02*
X122171668Y-38211961D01*
X122171668Y-38211961D02*
X122171668Y-37831009D01*
X122171668Y-37831009D02*
X122219287Y-37735771D01*
X122219287Y-37735771D02*
X122314525Y-37688152D01*
X122314525Y-37688152D02*
X122505001Y-37688152D01*
X122505001Y-37688152D02*
X122600239Y-37735771D01*
X122600239Y-37735771D02*
X122647858Y-37831009D01*
X122647858Y-37831009D02*
X122647858Y-37926247D01*
X122647858Y-37926247D02*
X122171668Y-38021485D01*
X109052618Y-48854819D02*
X108576428Y-48854819D01*
X108576428Y-48854819D02*
X108528809Y-49331009D01*
X108528809Y-49331009D02*
X108576428Y-49283390D01*
X108576428Y-49283390D02*
X108671666Y-49235771D01*
X108671666Y-49235771D02*
X108909761Y-49235771D01*
X108909761Y-49235771D02*
X109004999Y-49283390D01*
X109004999Y-49283390D02*
X109052618Y-49331009D01*
X109052618Y-49331009D02*
X109100237Y-49426247D01*
X109100237Y-49426247D02*
X109100237Y-49664342D01*
X109100237Y-49664342D02*
X109052618Y-49759580D01*
X109052618Y-49759580D02*
X109004999Y-49807200D01*
X109004999Y-49807200D02*
X108909761Y-49854819D01*
X108909761Y-49854819D02*
X108671666Y-49854819D01*
X108671666Y-49854819D02*
X108576428Y-49807200D01*
X108576428Y-49807200D02*
X108528809Y-49759580D01*
X109385952Y-48854819D02*
X109719285Y-49854819D01*
X109719285Y-49854819D02*
X110052618Y-48854819D01*
X110147857Y-49950057D02*
X110909761Y-49950057D01*
X111100238Y-49807200D02*
X111243095Y-49854819D01*
X111243095Y-49854819D02*
X111481190Y-49854819D01*
X111481190Y-49854819D02*
X111576428Y-49807200D01*
X111576428Y-49807200D02*
X111624047Y-49759580D01*
X111624047Y-49759580D02*
X111671666Y-49664342D01*
X111671666Y-49664342D02*
X111671666Y-49569104D01*
X111671666Y-49569104D02*
X111624047Y-49473866D01*
X111624047Y-49473866D02*
X111576428Y-49426247D01*
X111576428Y-49426247D02*
X111481190Y-49378628D01*
X111481190Y-49378628D02*
X111290714Y-49331009D01*
X111290714Y-49331009D02*
X111195476Y-49283390D01*
X111195476Y-49283390D02*
X111147857Y-49235771D01*
X111147857Y-49235771D02*
X111100238Y-49140533D01*
X111100238Y-49140533D02*
X111100238Y-49045295D01*
X111100238Y-49045295D02*
X111147857Y-48950057D01*
X111147857Y-48950057D02*
X111195476Y-48902438D01*
X111195476Y-48902438D02*
X111290714Y-48854819D01*
X111290714Y-48854819D02*
X111528809Y-48854819D01*
X111528809Y-48854819D02*
X111671666Y-48902438D01*
X112290714Y-49378628D02*
X112290714Y-49854819D01*
X111957381Y-48854819D02*
X112290714Y-49378628D01*
X112290714Y-49378628D02*
X112624047Y-48854819D01*
X112909762Y-49807200D02*
X113052619Y-49854819D01*
X113052619Y-49854819D02*
X113290714Y-49854819D01*
X113290714Y-49854819D02*
X113385952Y-49807200D01*
X113385952Y-49807200D02*
X113433571Y-49759580D01*
X113433571Y-49759580D02*
X113481190Y-49664342D01*
X113481190Y-49664342D02*
X113481190Y-49569104D01*
X113481190Y-49569104D02*
X113433571Y-49473866D01*
X113433571Y-49473866D02*
X113385952Y-49426247D01*
X113385952Y-49426247D02*
X113290714Y-49378628D01*
X113290714Y-49378628D02*
X113100238Y-49331009D01*
X113100238Y-49331009D02*
X113005000Y-49283390D01*
X113005000Y-49283390D02*
X112957381Y-49235771D01*
X112957381Y-49235771D02*
X112909762Y-49140533D01*
X112909762Y-49140533D02*
X112909762Y-49045295D01*
X112909762Y-49045295D02*
X112957381Y-48950057D01*
X112957381Y-48950057D02*
X113005000Y-48902438D01*
X113005000Y-48902438D02*
X113100238Y-48854819D01*
X113100238Y-48854819D02*
X113338333Y-48854819D01*
X113338333Y-48854819D02*
X113481190Y-48902438D01*
X107225421Y-82534383D02*
X107360404Y-82579377D01*
X107360404Y-82579377D02*
X107405399Y-82624371D01*
X107405399Y-82624371D02*
X107450393Y-82714360D01*
X107450393Y-82714360D02*
X107450393Y-82849343D01*
X107450393Y-82849343D02*
X107405399Y-82939332D01*
X107405399Y-82939332D02*
X107360404Y-82984327D01*
X107360404Y-82984327D02*
X107270415Y-83029321D01*
X107270415Y-83029321D02*
X106910460Y-83029321D01*
X106910460Y-83029321D02*
X106910460Y-82084439D01*
X106910460Y-82084439D02*
X107225421Y-82084439D01*
X107225421Y-82084439D02*
X107315410Y-82129433D01*
X107315410Y-82129433D02*
X107360404Y-82174428D01*
X107360404Y-82174428D02*
X107405399Y-82264416D01*
X107405399Y-82264416D02*
X107405399Y-82354405D01*
X107405399Y-82354405D02*
X107360404Y-82444394D01*
X107360404Y-82444394D02*
X107315410Y-82489388D01*
X107315410Y-82489388D02*
X107225421Y-82534383D01*
X107225421Y-82534383D02*
X106910460Y-82534383D01*
X108260292Y-82399400D02*
X108260292Y-83029321D01*
X108035320Y-82039445D02*
X107810348Y-82714360D01*
X107810348Y-82714360D02*
X108395275Y-82714360D01*
X109070191Y-82534383D02*
X109205174Y-82579377D01*
X109205174Y-82579377D02*
X109250169Y-82624371D01*
X109250169Y-82624371D02*
X109295163Y-82714360D01*
X109295163Y-82714360D02*
X109295163Y-82849343D01*
X109295163Y-82849343D02*
X109250169Y-82939332D01*
X109250169Y-82939332D02*
X109205174Y-82984327D01*
X109205174Y-82984327D02*
X109115185Y-83029321D01*
X109115185Y-83029321D02*
X108755230Y-83029321D01*
X108755230Y-83029321D02*
X108755230Y-82084439D01*
X108755230Y-82084439D02*
X109070191Y-82084439D01*
X109070191Y-82084439D02*
X109160180Y-82129433D01*
X109160180Y-82129433D02*
X109205174Y-82174428D01*
X109205174Y-82174428D02*
X109250169Y-82264416D01*
X109250169Y-82264416D02*
X109250169Y-82354405D01*
X109250169Y-82354405D02*
X109205174Y-82444394D01*
X109205174Y-82444394D02*
X109160180Y-82489388D01*
X109160180Y-82489388D02*
X109070191Y-82534383D01*
X109070191Y-82534383D02*
X108755230Y-82534383D01*
X109700112Y-82669366D02*
X110420023Y-82669366D01*
X110779978Y-82084439D02*
X111409899Y-83029321D01*
X111409899Y-82084439D02*
X110779978Y-83029321D01*
X111769854Y-83029321D02*
X111769854Y-82084439D01*
X111769854Y-82534383D02*
X112309787Y-82534383D01*
X112309787Y-83029321D02*
X112309787Y-82084439D01*
X112759730Y-82669366D02*
X113479641Y-82669366D01*
X113884590Y-82759355D02*
X114334534Y-82759355D01*
X113794601Y-83029321D02*
X114109562Y-82084439D01*
X114109562Y-82084439D02*
X114424523Y-83029321D01*
X131114285Y-128004819D02*
X131114285Y-127004819D01*
X131114285Y-127004819D02*
X131447618Y-127719104D01*
X131447618Y-127719104D02*
X131780951Y-127004819D01*
X131780951Y-127004819D02*
X131780951Y-128004819D01*
X132399999Y-128004819D02*
X132304761Y-127957200D01*
X132304761Y-127957200D02*
X132257142Y-127909580D01*
X132257142Y-127909580D02*
X132209523Y-127814342D01*
X132209523Y-127814342D02*
X132209523Y-127528628D01*
X132209523Y-127528628D02*
X132257142Y-127433390D01*
X132257142Y-127433390D02*
X132304761Y-127385771D01*
X132304761Y-127385771D02*
X132399999Y-127338152D01*
X132399999Y-127338152D02*
X132542856Y-127338152D01*
X132542856Y-127338152D02*
X132638094Y-127385771D01*
X132638094Y-127385771D02*
X132685713Y-127433390D01*
X132685713Y-127433390D02*
X132733332Y-127528628D01*
X132733332Y-127528628D02*
X132733332Y-127814342D01*
X132733332Y-127814342D02*
X132685713Y-127909580D01*
X132685713Y-127909580D02*
X132638094Y-127957200D01*
X132638094Y-127957200D02*
X132542856Y-128004819D01*
X132542856Y-128004819D02*
X132399999Y-128004819D01*
X133590475Y-127338152D02*
X133590475Y-128004819D01*
X133161904Y-127338152D02*
X133161904Y-127861961D01*
X133161904Y-127861961D02*
X133209523Y-127957200D01*
X133209523Y-127957200D02*
X133304761Y-128004819D01*
X133304761Y-128004819D02*
X133447618Y-128004819D01*
X133447618Y-128004819D02*
X133542856Y-127957200D01*
X133542856Y-127957200D02*
X133590475Y-127909580D01*
X134066666Y-127338152D02*
X134066666Y-128004819D01*
X134066666Y-127433390D02*
X134114285Y-127385771D01*
X134114285Y-127385771D02*
X134209523Y-127338152D01*
X134209523Y-127338152D02*
X134352380Y-127338152D01*
X134352380Y-127338152D02*
X134447618Y-127385771D01*
X134447618Y-127385771D02*
X134495237Y-127481009D01*
X134495237Y-127481009D02*
X134495237Y-128004819D01*
X134828571Y-127338152D02*
X135209523Y-127338152D01*
X134971428Y-127004819D02*
X134971428Y-127861961D01*
X134971428Y-127861961D02*
X135019047Y-127957200D01*
X135019047Y-127957200D02*
X135114285Y-128004819D01*
X135114285Y-128004819D02*
X135209523Y-128004819D01*
X135542857Y-128004819D02*
X135542857Y-127338152D01*
X135542857Y-127004819D02*
X135495238Y-127052438D01*
X135495238Y-127052438D02*
X135542857Y-127100057D01*
X135542857Y-127100057D02*
X135590476Y-127052438D01*
X135590476Y-127052438D02*
X135542857Y-127004819D01*
X135542857Y-127004819D02*
X135542857Y-127100057D01*
X136019047Y-127338152D02*
X136019047Y-128004819D01*
X136019047Y-127433390D02*
X136066666Y-127385771D01*
X136066666Y-127385771D02*
X136161904Y-127338152D01*
X136161904Y-127338152D02*
X136304761Y-127338152D01*
X136304761Y-127338152D02*
X136399999Y-127385771D01*
X136399999Y-127385771D02*
X136447618Y-127481009D01*
X136447618Y-127481009D02*
X136447618Y-128004819D01*
X137352380Y-127338152D02*
X137352380Y-128147676D01*
X137352380Y-128147676D02*
X137304761Y-128242914D01*
X137304761Y-128242914D02*
X137257142Y-128290533D01*
X137257142Y-128290533D02*
X137161904Y-128338152D01*
X137161904Y-128338152D02*
X137019047Y-128338152D01*
X137019047Y-128338152D02*
X136923809Y-128290533D01*
X137352380Y-127957200D02*
X137257142Y-128004819D01*
X137257142Y-128004819D02*
X137066666Y-128004819D01*
X137066666Y-128004819D02*
X136971428Y-127957200D01*
X136971428Y-127957200D02*
X136923809Y-127909580D01*
X136923809Y-127909580D02*
X136876190Y-127814342D01*
X136876190Y-127814342D02*
X136876190Y-127528628D01*
X136876190Y-127528628D02*
X136923809Y-127433390D01*
X136923809Y-127433390D02*
X136971428Y-127385771D01*
X136971428Y-127385771D02*
X137066666Y-127338152D01*
X137066666Y-127338152D02*
X137257142Y-127338152D01*
X137257142Y-127338152D02*
X137352380Y-127385771D01*
X137828571Y-128004819D02*
X137828571Y-127004819D01*
X137828571Y-127481009D02*
X138399999Y-127481009D01*
X138399999Y-128004819D02*
X138399999Y-127004819D01*
X139019047Y-128004819D02*
X138923809Y-127957200D01*
X138923809Y-127957200D02*
X138876190Y-127909580D01*
X138876190Y-127909580D02*
X138828571Y-127814342D01*
X138828571Y-127814342D02*
X138828571Y-127528628D01*
X138828571Y-127528628D02*
X138876190Y-127433390D01*
X138876190Y-127433390D02*
X138923809Y-127385771D01*
X138923809Y-127385771D02*
X139019047Y-127338152D01*
X139019047Y-127338152D02*
X139161904Y-127338152D01*
X139161904Y-127338152D02*
X139257142Y-127385771D01*
X139257142Y-127385771D02*
X139304761Y-127433390D01*
X139304761Y-127433390D02*
X139352380Y-127528628D01*
X139352380Y-127528628D02*
X139352380Y-127814342D01*
X139352380Y-127814342D02*
X139304761Y-127909580D01*
X139304761Y-127909580D02*
X139257142Y-127957200D01*
X139257142Y-127957200D02*
X139161904Y-128004819D01*
X139161904Y-128004819D02*
X139019047Y-128004819D01*
X139923809Y-128004819D02*
X139828571Y-127957200D01*
X139828571Y-127957200D02*
X139780952Y-127861961D01*
X139780952Y-127861961D02*
X139780952Y-127004819D01*
X140685714Y-127957200D02*
X140590476Y-128004819D01*
X140590476Y-128004819D02*
X140400000Y-128004819D01*
X140400000Y-128004819D02*
X140304762Y-127957200D01*
X140304762Y-127957200D02*
X140257143Y-127861961D01*
X140257143Y-127861961D02*
X140257143Y-127481009D01*
X140257143Y-127481009D02*
X140304762Y-127385771D01*
X140304762Y-127385771D02*
X140400000Y-127338152D01*
X140400000Y-127338152D02*
X140590476Y-127338152D01*
X140590476Y-127338152D02*
X140685714Y-127385771D01*
X140685714Y-127385771D02*
X140733333Y-127481009D01*
X140733333Y-127481009D02*
X140733333Y-127576247D01*
X140733333Y-127576247D02*
X140257143Y-127671485D01*
X135138095Y-124354819D02*
X135138095Y-123354819D01*
X135138095Y-123831009D02*
X135709523Y-123831009D01*
X135709523Y-124354819D02*
X135709523Y-123354819D01*
X136709523Y-124354819D02*
X136138095Y-124354819D01*
X136423809Y-124354819D02*
X136423809Y-123354819D01*
X136423809Y-123354819D02*
X136328571Y-123497676D01*
X136328571Y-123497676D02*
X136233333Y-123592914D01*
X136233333Y-123592914D02*
X136138095Y-123640533D01*
X116714285Y-77104819D02*
X116714285Y-76104819D01*
X116714285Y-76104819D02*
X117047618Y-76819104D01*
X117047618Y-76819104D02*
X117380951Y-76104819D01*
X117380951Y-76104819D02*
X117380951Y-77104819D01*
X117999999Y-77104819D02*
X117904761Y-77057200D01*
X117904761Y-77057200D02*
X117857142Y-77009580D01*
X117857142Y-77009580D02*
X117809523Y-76914342D01*
X117809523Y-76914342D02*
X117809523Y-76628628D01*
X117809523Y-76628628D02*
X117857142Y-76533390D01*
X117857142Y-76533390D02*
X117904761Y-76485771D01*
X117904761Y-76485771D02*
X117999999Y-76438152D01*
X117999999Y-76438152D02*
X118142856Y-76438152D01*
X118142856Y-76438152D02*
X118238094Y-76485771D01*
X118238094Y-76485771D02*
X118285713Y-76533390D01*
X118285713Y-76533390D02*
X118333332Y-76628628D01*
X118333332Y-76628628D02*
X118333332Y-76914342D01*
X118333332Y-76914342D02*
X118285713Y-77009580D01*
X118285713Y-77009580D02*
X118238094Y-77057200D01*
X118238094Y-77057200D02*
X118142856Y-77104819D01*
X118142856Y-77104819D02*
X117999999Y-77104819D01*
X119190475Y-76438152D02*
X119190475Y-77104819D01*
X118761904Y-76438152D02*
X118761904Y-76961961D01*
X118761904Y-76961961D02*
X118809523Y-77057200D01*
X118809523Y-77057200D02*
X118904761Y-77104819D01*
X118904761Y-77104819D02*
X119047618Y-77104819D01*
X119047618Y-77104819D02*
X119142856Y-77057200D01*
X119142856Y-77057200D02*
X119190475Y-77009580D01*
X119666666Y-76438152D02*
X119666666Y-77104819D01*
X119666666Y-76533390D02*
X119714285Y-76485771D01*
X119714285Y-76485771D02*
X119809523Y-76438152D01*
X119809523Y-76438152D02*
X119952380Y-76438152D01*
X119952380Y-76438152D02*
X120047618Y-76485771D01*
X120047618Y-76485771D02*
X120095237Y-76581009D01*
X120095237Y-76581009D02*
X120095237Y-77104819D01*
X120428571Y-76438152D02*
X120809523Y-76438152D01*
X120571428Y-76104819D02*
X120571428Y-76961961D01*
X120571428Y-76961961D02*
X120619047Y-77057200D01*
X120619047Y-77057200D02*
X120714285Y-77104819D01*
X120714285Y-77104819D02*
X120809523Y-77104819D01*
X121142857Y-77104819D02*
X121142857Y-76438152D01*
X121142857Y-76104819D02*
X121095238Y-76152438D01*
X121095238Y-76152438D02*
X121142857Y-76200057D01*
X121142857Y-76200057D02*
X121190476Y-76152438D01*
X121190476Y-76152438D02*
X121142857Y-76104819D01*
X121142857Y-76104819D02*
X121142857Y-76200057D01*
X121619047Y-76438152D02*
X121619047Y-77104819D01*
X121619047Y-76533390D02*
X121666666Y-76485771D01*
X121666666Y-76485771D02*
X121761904Y-76438152D01*
X121761904Y-76438152D02*
X121904761Y-76438152D01*
X121904761Y-76438152D02*
X121999999Y-76485771D01*
X121999999Y-76485771D02*
X122047618Y-76581009D01*
X122047618Y-76581009D02*
X122047618Y-77104819D01*
X122952380Y-76438152D02*
X122952380Y-77247676D01*
X122952380Y-77247676D02*
X122904761Y-77342914D01*
X122904761Y-77342914D02*
X122857142Y-77390533D01*
X122857142Y-77390533D02*
X122761904Y-77438152D01*
X122761904Y-77438152D02*
X122619047Y-77438152D01*
X122619047Y-77438152D02*
X122523809Y-77390533D01*
X122952380Y-77057200D02*
X122857142Y-77104819D01*
X122857142Y-77104819D02*
X122666666Y-77104819D01*
X122666666Y-77104819D02*
X122571428Y-77057200D01*
X122571428Y-77057200D02*
X122523809Y-77009580D01*
X122523809Y-77009580D02*
X122476190Y-76914342D01*
X122476190Y-76914342D02*
X122476190Y-76628628D01*
X122476190Y-76628628D02*
X122523809Y-76533390D01*
X122523809Y-76533390D02*
X122571428Y-76485771D01*
X122571428Y-76485771D02*
X122666666Y-76438152D01*
X122666666Y-76438152D02*
X122857142Y-76438152D01*
X122857142Y-76438152D02*
X122952380Y-76485771D01*
X123428571Y-77104819D02*
X123428571Y-76104819D01*
X123428571Y-76581009D02*
X123999999Y-76581009D01*
X123999999Y-77104819D02*
X123999999Y-76104819D01*
X124619047Y-77104819D02*
X124523809Y-77057200D01*
X124523809Y-77057200D02*
X124476190Y-77009580D01*
X124476190Y-77009580D02*
X124428571Y-76914342D01*
X124428571Y-76914342D02*
X124428571Y-76628628D01*
X124428571Y-76628628D02*
X124476190Y-76533390D01*
X124476190Y-76533390D02*
X124523809Y-76485771D01*
X124523809Y-76485771D02*
X124619047Y-76438152D01*
X124619047Y-76438152D02*
X124761904Y-76438152D01*
X124761904Y-76438152D02*
X124857142Y-76485771D01*
X124857142Y-76485771D02*
X124904761Y-76533390D01*
X124904761Y-76533390D02*
X124952380Y-76628628D01*
X124952380Y-76628628D02*
X124952380Y-76914342D01*
X124952380Y-76914342D02*
X124904761Y-77009580D01*
X124904761Y-77009580D02*
X124857142Y-77057200D01*
X124857142Y-77057200D02*
X124761904Y-77104819D01*
X124761904Y-77104819D02*
X124619047Y-77104819D01*
X125523809Y-77104819D02*
X125428571Y-77057200D01*
X125428571Y-77057200D02*
X125380952Y-76961961D01*
X125380952Y-76961961D02*
X125380952Y-76104819D01*
X126285714Y-77057200D02*
X126190476Y-77104819D01*
X126190476Y-77104819D02*
X126000000Y-77104819D01*
X126000000Y-77104819D02*
X125904762Y-77057200D01*
X125904762Y-77057200D02*
X125857143Y-76961961D01*
X125857143Y-76961961D02*
X125857143Y-76581009D01*
X125857143Y-76581009D02*
X125904762Y-76485771D01*
X125904762Y-76485771D02*
X126000000Y-76438152D01*
X126000000Y-76438152D02*
X126190476Y-76438152D01*
X126190476Y-76438152D02*
X126285714Y-76485771D01*
X126285714Y-76485771D02*
X126333333Y-76581009D01*
X126333333Y-76581009D02*
X126333333Y-76676247D01*
X126333333Y-76676247D02*
X125857143Y-76771485D01*
X120738095Y-73454819D02*
X120738095Y-72454819D01*
X120738095Y-72931009D02*
X121309523Y-72931009D01*
X121309523Y-73454819D02*
X121309523Y-72454819D01*
X121738095Y-72550057D02*
X121785714Y-72502438D01*
X121785714Y-72502438D02*
X121880952Y-72454819D01*
X121880952Y-72454819D02*
X122119047Y-72454819D01*
X122119047Y-72454819D02*
X122214285Y-72502438D01*
X122214285Y-72502438D02*
X122261904Y-72550057D01*
X122261904Y-72550057D02*
X122309523Y-72645295D01*
X122309523Y-72645295D02*
X122309523Y-72740533D01*
X122309523Y-72740533D02*
X122261904Y-72883390D01*
X122261904Y-72883390D02*
X121690476Y-73454819D01*
X121690476Y-73454819D02*
X122309523Y-73454819D01*
X129688152Y-119338095D02*
X130354819Y-119338095D01*
X129307200Y-119576190D02*
X130021485Y-119814285D01*
X130021485Y-119814285D02*
X130021485Y-119195238D01*
X129354819Y-118909523D02*
X129354819Y-118242857D01*
X129354819Y-118242857D02*
X130354819Y-118671428D01*
X129688152Y-117861904D02*
X130688152Y-117861904D01*
X130211961Y-117385714D02*
X130307200Y-117338095D01*
X130307200Y-117338095D02*
X130354819Y-117242857D01*
X130211961Y-117861904D02*
X130307200Y-117814285D01*
X130307200Y-117814285D02*
X130354819Y-117719047D01*
X130354819Y-117719047D02*
X130354819Y-117528571D01*
X130354819Y-117528571D02*
X130307200Y-117433333D01*
X130307200Y-117433333D02*
X130211961Y-117385714D01*
X130211961Y-117385714D02*
X129688152Y-117385714D01*
X129831009Y-116480952D02*
X129831009Y-116814285D01*
X130354819Y-116814285D02*
X129354819Y-116814285D01*
X129354819Y-116814285D02*
X129354819Y-116338095D01*
X130259580Y-118266666D02*
X130307200Y-118314285D01*
X130307200Y-118314285D02*
X130354819Y-118457142D01*
X130354819Y-118457142D02*
X130354819Y-118552380D01*
X130354819Y-118552380D02*
X130307200Y-118695237D01*
X130307200Y-118695237D02*
X130211961Y-118790475D01*
X130211961Y-118790475D02*
X130116723Y-118838094D01*
X130116723Y-118838094D02*
X129926247Y-118885713D01*
X129926247Y-118885713D02*
X129783390Y-118885713D01*
X129783390Y-118885713D02*
X129592914Y-118838094D01*
X129592914Y-118838094D02*
X129497676Y-118790475D01*
X129497676Y-118790475D02*
X129402438Y-118695237D01*
X129402438Y-118695237D02*
X129354819Y-118552380D01*
X129354819Y-118552380D02*
X129354819Y-118457142D01*
X129354819Y-118457142D02*
X129402438Y-118314285D01*
X129402438Y-118314285D02*
X129450057Y-118266666D01*
X129354819Y-117933332D02*
X129354819Y-117266666D01*
X129354819Y-117266666D02*
X130354819Y-117695237D01*
X119529047Y-38919819D02*
X118957619Y-38919819D01*
X119243333Y-38919819D02*
X119243333Y-37919819D01*
X119243333Y-37919819D02*
X119148095Y-38062676D01*
X119148095Y-38062676D02*
X119052857Y-38157914D01*
X119052857Y-38157914D02*
X118957619Y-38205533D01*
X120148095Y-37919819D02*
X120243333Y-37919819D01*
X120243333Y-37919819D02*
X120338571Y-37967438D01*
X120338571Y-37967438D02*
X120386190Y-38015057D01*
X120386190Y-38015057D02*
X120433809Y-38110295D01*
X120433809Y-38110295D02*
X120481428Y-38300771D01*
X120481428Y-38300771D02*
X120481428Y-38538866D01*
X120481428Y-38538866D02*
X120433809Y-38729342D01*
X120433809Y-38729342D02*
X120386190Y-38824580D01*
X120386190Y-38824580D02*
X120338571Y-38872200D01*
X120338571Y-38872200D02*
X120243333Y-38919819D01*
X120243333Y-38919819D02*
X120148095Y-38919819D01*
X120148095Y-38919819D02*
X120052857Y-38872200D01*
X120052857Y-38872200D02*
X120005238Y-38824580D01*
X120005238Y-38824580D02*
X119957619Y-38729342D01*
X119957619Y-38729342D02*
X119910000Y-38538866D01*
X119910000Y-38538866D02*
X119910000Y-38300771D01*
X119910000Y-38300771D02*
X119957619Y-38110295D01*
X119957619Y-38110295D02*
X120005238Y-38015057D01*
X120005238Y-38015057D02*
X120052857Y-37967438D01*
X120052857Y-37967438D02*
X120148095Y-37919819D01*
X121100476Y-37919819D02*
X121195714Y-37919819D01*
X121195714Y-37919819D02*
X121290952Y-37967438D01*
X121290952Y-37967438D02*
X121338571Y-38015057D01*
X121338571Y-38015057D02*
X121386190Y-38110295D01*
X121386190Y-38110295D02*
X121433809Y-38300771D01*
X121433809Y-38300771D02*
X121433809Y-38538866D01*
X121433809Y-38538866D02*
X121386190Y-38729342D01*
X121386190Y-38729342D02*
X121338571Y-38824580D01*
X121338571Y-38824580D02*
X121290952Y-38872200D01*
X121290952Y-38872200D02*
X121195714Y-38919819D01*
X121195714Y-38919819D02*
X121100476Y-38919819D01*
X121100476Y-38919819D02*
X121005238Y-38872200D01*
X121005238Y-38872200D02*
X120957619Y-38824580D01*
X120957619Y-38824580D02*
X120910000Y-38729342D01*
X120910000Y-38729342D02*
X120862381Y-38538866D01*
X120862381Y-38538866D02*
X120862381Y-38300771D01*
X120862381Y-38300771D02*
X120910000Y-38110295D01*
X120910000Y-38110295D02*
X120957619Y-38015057D01*
X120957619Y-38015057D02*
X121005238Y-37967438D01*
X121005238Y-37967438D02*
X121100476Y-37919819D01*
X122052857Y-37919819D02*
X122148095Y-37919819D01*
X122148095Y-37919819D02*
X122243333Y-37967438D01*
X122243333Y-37967438D02*
X122290952Y-38015057D01*
X122290952Y-38015057D02*
X122338571Y-38110295D01*
X122338571Y-38110295D02*
X122386190Y-38300771D01*
X122386190Y-38300771D02*
X122386190Y-38538866D01*
X122386190Y-38538866D02*
X122338571Y-38729342D01*
X122338571Y-38729342D02*
X122290952Y-38824580D01*
X122290952Y-38824580D02*
X122243333Y-38872200D01*
X122243333Y-38872200D02*
X122148095Y-38919819D01*
X122148095Y-38919819D02*
X122052857Y-38919819D01*
X122052857Y-38919819D02*
X121957619Y-38872200D01*
X121957619Y-38872200D02*
X121910000Y-38824580D01*
X121910000Y-38824580D02*
X121862381Y-38729342D01*
X121862381Y-38729342D02*
X121814762Y-38538866D01*
X121814762Y-38538866D02*
X121814762Y-38300771D01*
X121814762Y-38300771D02*
X121862381Y-38110295D01*
X121862381Y-38110295D02*
X121910000Y-38015057D01*
X121910000Y-38015057D02*
X121957619Y-37967438D01*
X121957619Y-37967438D02*
X122052857Y-37919819D01*
X123243333Y-38253152D02*
X123243333Y-38919819D01*
X122814762Y-38253152D02*
X122814762Y-38776961D01*
X122814762Y-38776961D02*
X122862381Y-38872200D01*
X122862381Y-38872200D02*
X122957619Y-38919819D01*
X122957619Y-38919819D02*
X123100476Y-38919819D01*
X123100476Y-38919819D02*
X123195714Y-38872200D01*
X123195714Y-38872200D02*
X123243333Y-38824580D01*
X123576667Y-38253152D02*
X123957619Y-38253152D01*
X123719524Y-38919819D02*
X123719524Y-38062676D01*
X123719524Y-38062676D02*
X123767143Y-37967438D01*
X123767143Y-37967438D02*
X123862381Y-37919819D01*
X123862381Y-37919819D02*
X123957619Y-37919819D01*
X162559580Y-67923811D02*
X162607200Y-67971430D01*
X162607200Y-67971430D02*
X162654819Y-68114287D01*
X162654819Y-68114287D02*
X162654819Y-68209525D01*
X162654819Y-68209525D02*
X162607200Y-68352382D01*
X162607200Y-68352382D02*
X162511961Y-68447620D01*
X162511961Y-68447620D02*
X162416723Y-68495239D01*
X162416723Y-68495239D02*
X162226247Y-68542858D01*
X162226247Y-68542858D02*
X162083390Y-68542858D01*
X162083390Y-68542858D02*
X161892914Y-68495239D01*
X161892914Y-68495239D02*
X161797676Y-68447620D01*
X161797676Y-68447620D02*
X161702438Y-68352382D01*
X161702438Y-68352382D02*
X161654819Y-68209525D01*
X161654819Y-68209525D02*
X161654819Y-68114287D01*
X161654819Y-68114287D02*
X161702438Y-67971430D01*
X161702438Y-67971430D02*
X161750057Y-67923811D01*
X162654819Y-67352382D02*
X162607200Y-67447620D01*
X162607200Y-67447620D02*
X162559580Y-67495239D01*
X162559580Y-67495239D02*
X162464342Y-67542858D01*
X162464342Y-67542858D02*
X162178628Y-67542858D01*
X162178628Y-67542858D02*
X162083390Y-67495239D01*
X162083390Y-67495239D02*
X162035771Y-67447620D01*
X162035771Y-67447620D02*
X161988152Y-67352382D01*
X161988152Y-67352382D02*
X161988152Y-67209525D01*
X161988152Y-67209525D02*
X162035771Y-67114287D01*
X162035771Y-67114287D02*
X162083390Y-67066668D01*
X162083390Y-67066668D02*
X162178628Y-67019049D01*
X162178628Y-67019049D02*
X162464342Y-67019049D01*
X162464342Y-67019049D02*
X162559580Y-67066668D01*
X162559580Y-67066668D02*
X162607200Y-67114287D01*
X162607200Y-67114287D02*
X162654819Y-67209525D01*
X162654819Y-67209525D02*
X162654819Y-67352382D01*
X161988152Y-66590477D02*
X162654819Y-66590477D01*
X162083390Y-66590477D02*
X162035771Y-66542858D01*
X162035771Y-66542858D02*
X161988152Y-66447620D01*
X161988152Y-66447620D02*
X161988152Y-66304763D01*
X161988152Y-66304763D02*
X162035771Y-66209525D01*
X162035771Y-66209525D02*
X162131009Y-66161906D01*
X162131009Y-66161906D02*
X162654819Y-66161906D01*
X161988152Y-65685715D02*
X162654819Y-65685715D01*
X162083390Y-65685715D02*
X162035771Y-65638096D01*
X162035771Y-65638096D02*
X161988152Y-65542858D01*
X161988152Y-65542858D02*
X161988152Y-65400001D01*
X161988152Y-65400001D02*
X162035771Y-65304763D01*
X162035771Y-65304763D02*
X162131009Y-65257144D01*
X162131009Y-65257144D02*
X162654819Y-65257144D01*
X162750057Y-65019049D02*
X162750057Y-64257144D01*
X161654819Y-63828572D02*
X161654819Y-63733334D01*
X161654819Y-63733334D02*
X161702438Y-63638096D01*
X161702438Y-63638096D02*
X161750057Y-63590477D01*
X161750057Y-63590477D02*
X161845295Y-63542858D01*
X161845295Y-63542858D02*
X162035771Y-63495239D01*
X162035771Y-63495239D02*
X162273866Y-63495239D01*
X162273866Y-63495239D02*
X162464342Y-63542858D01*
X162464342Y-63542858D02*
X162559580Y-63590477D01*
X162559580Y-63590477D02*
X162607200Y-63638096D01*
X162607200Y-63638096D02*
X162654819Y-63733334D01*
X162654819Y-63733334D02*
X162654819Y-63828572D01*
X162654819Y-63828572D02*
X162607200Y-63923810D01*
X162607200Y-63923810D02*
X162559580Y-63971429D01*
X162559580Y-63971429D02*
X162464342Y-64019048D01*
X162464342Y-64019048D02*
X162273866Y-64066667D01*
X162273866Y-64066667D02*
X162035771Y-64066667D01*
X162035771Y-64066667D02*
X161845295Y-64019048D01*
X161845295Y-64019048D02*
X161750057Y-63971429D01*
X161750057Y-63971429D02*
X161702438Y-63923810D01*
X161702438Y-63923810D02*
X161654819Y-63828572D01*
X161750057Y-63114286D02*
X161702438Y-63066667D01*
X161702438Y-63066667D02*
X161654819Y-62971429D01*
X161654819Y-62971429D02*
X161654819Y-62733334D01*
X161654819Y-62733334D02*
X161702438Y-62638096D01*
X161702438Y-62638096D02*
X161750057Y-62590477D01*
X161750057Y-62590477D02*
X161845295Y-62542858D01*
X161845295Y-62542858D02*
X161940533Y-62542858D01*
X161940533Y-62542858D02*
X162083390Y-62590477D01*
X162083390Y-62590477D02*
X162654819Y-63161905D01*
X162654819Y-63161905D02*
X162654819Y-62542858D01*
X162654819Y-62209524D02*
X161988152Y-61685715D01*
X161988152Y-62209524D02*
X162654819Y-61685715D01*
X161654819Y-61114286D02*
X161654819Y-61019048D01*
X161654819Y-61019048D02*
X161702438Y-60923810D01*
X161702438Y-60923810D02*
X161750057Y-60876191D01*
X161750057Y-60876191D02*
X161845295Y-60828572D01*
X161845295Y-60828572D02*
X162035771Y-60780953D01*
X162035771Y-60780953D02*
X162273866Y-60780953D01*
X162273866Y-60780953D02*
X162464342Y-60828572D01*
X162464342Y-60828572D02*
X162559580Y-60876191D01*
X162559580Y-60876191D02*
X162607200Y-60923810D01*
X162607200Y-60923810D02*
X162654819Y-61019048D01*
X162654819Y-61019048D02*
X162654819Y-61114286D01*
X162654819Y-61114286D02*
X162607200Y-61209524D01*
X162607200Y-61209524D02*
X162559580Y-61257143D01*
X162559580Y-61257143D02*
X162464342Y-61304762D01*
X162464342Y-61304762D02*
X162273866Y-61352381D01*
X162273866Y-61352381D02*
X162035771Y-61352381D01*
X162035771Y-61352381D02*
X161845295Y-61304762D01*
X161845295Y-61304762D02*
X161750057Y-61257143D01*
X161750057Y-61257143D02*
X161702438Y-61209524D01*
X161702438Y-61209524D02*
X161654819Y-61114286D01*
X161750057Y-60400000D02*
X161702438Y-60352381D01*
X161702438Y-60352381D02*
X161654819Y-60257143D01*
X161654819Y-60257143D02*
X161654819Y-60019048D01*
X161654819Y-60019048D02*
X161702438Y-59923810D01*
X161702438Y-59923810D02*
X161750057Y-59876191D01*
X161750057Y-59876191D02*
X161845295Y-59828572D01*
X161845295Y-59828572D02*
X161940533Y-59828572D01*
X161940533Y-59828572D02*
X162083390Y-59876191D01*
X162083390Y-59876191D02*
X162654819Y-60447619D01*
X162654819Y-60447619D02*
X162654819Y-59828572D01*
X162750057Y-59638096D02*
X162750057Y-58876191D01*
X162559580Y-58066667D02*
X162607200Y-58114286D01*
X162607200Y-58114286D02*
X162654819Y-58257143D01*
X162654819Y-58257143D02*
X162654819Y-58352381D01*
X162654819Y-58352381D02*
X162607200Y-58495238D01*
X162607200Y-58495238D02*
X162511961Y-58590476D01*
X162511961Y-58590476D02*
X162416723Y-58638095D01*
X162416723Y-58638095D02*
X162226247Y-58685714D01*
X162226247Y-58685714D02*
X162083390Y-58685714D01*
X162083390Y-58685714D02*
X161892914Y-58638095D01*
X161892914Y-58638095D02*
X161797676Y-58590476D01*
X161797676Y-58590476D02*
X161702438Y-58495238D01*
X161702438Y-58495238D02*
X161654819Y-58352381D01*
X161654819Y-58352381D02*
X161654819Y-58257143D01*
X161654819Y-58257143D02*
X161702438Y-58114286D01*
X161702438Y-58114286D02*
X161750057Y-58066667D01*
X162654819Y-57495238D02*
X162607200Y-57590476D01*
X162607200Y-57590476D02*
X162559580Y-57638095D01*
X162559580Y-57638095D02*
X162464342Y-57685714D01*
X162464342Y-57685714D02*
X162178628Y-57685714D01*
X162178628Y-57685714D02*
X162083390Y-57638095D01*
X162083390Y-57638095D02*
X162035771Y-57590476D01*
X162035771Y-57590476D02*
X161988152Y-57495238D01*
X161988152Y-57495238D02*
X161988152Y-57352381D01*
X161988152Y-57352381D02*
X162035771Y-57257143D01*
X162035771Y-57257143D02*
X162083390Y-57209524D01*
X162083390Y-57209524D02*
X162178628Y-57161905D01*
X162178628Y-57161905D02*
X162464342Y-57161905D01*
X162464342Y-57161905D02*
X162559580Y-57209524D01*
X162559580Y-57209524D02*
X162607200Y-57257143D01*
X162607200Y-57257143D02*
X162654819Y-57352381D01*
X162654819Y-57352381D02*
X162654819Y-57495238D01*
X161988152Y-56304762D02*
X162654819Y-56304762D01*
X161988152Y-56733333D02*
X162511961Y-56733333D01*
X162511961Y-56733333D02*
X162607200Y-56685714D01*
X162607200Y-56685714D02*
X162654819Y-56590476D01*
X162654819Y-56590476D02*
X162654819Y-56447619D01*
X162654819Y-56447619D02*
X162607200Y-56352381D01*
X162607200Y-56352381D02*
X162559580Y-56304762D01*
X161988152Y-55828571D02*
X162654819Y-55828571D01*
X162083390Y-55828571D02*
X162035771Y-55780952D01*
X162035771Y-55780952D02*
X161988152Y-55685714D01*
X161988152Y-55685714D02*
X161988152Y-55542857D01*
X161988152Y-55542857D02*
X162035771Y-55447619D01*
X162035771Y-55447619D02*
X162131009Y-55400000D01*
X162131009Y-55400000D02*
X162654819Y-55400000D01*
X161988152Y-55066666D02*
X161988152Y-54685714D01*
X161654819Y-54923809D02*
X162511961Y-54923809D01*
X162511961Y-54923809D02*
X162607200Y-54876190D01*
X162607200Y-54876190D02*
X162654819Y-54780952D01*
X162654819Y-54780952D02*
X162654819Y-54685714D01*
X162607200Y-53971428D02*
X162654819Y-54066666D01*
X162654819Y-54066666D02*
X162654819Y-54257142D01*
X162654819Y-54257142D02*
X162607200Y-54352380D01*
X162607200Y-54352380D02*
X162511961Y-54399999D01*
X162511961Y-54399999D02*
X162131009Y-54399999D01*
X162131009Y-54399999D02*
X162035771Y-54352380D01*
X162035771Y-54352380D02*
X161988152Y-54257142D01*
X161988152Y-54257142D02*
X161988152Y-54066666D01*
X161988152Y-54066666D02*
X162035771Y-53971428D01*
X162035771Y-53971428D02*
X162131009Y-53923809D01*
X162131009Y-53923809D02*
X162226247Y-53923809D01*
X162226247Y-53923809D02*
X162321485Y-54399999D01*
X162654819Y-53495237D02*
X161988152Y-53495237D01*
X162178628Y-53495237D02*
X162083390Y-53447618D01*
X162083390Y-53447618D02*
X162035771Y-53399999D01*
X162035771Y-53399999D02*
X161988152Y-53304761D01*
X161988152Y-53304761D02*
X161988152Y-53209523D01*
X162750057Y-53114285D02*
X162750057Y-52352380D01*
X162559580Y-51542856D02*
X162607200Y-51590475D01*
X162607200Y-51590475D02*
X162654819Y-51733332D01*
X162654819Y-51733332D02*
X162654819Y-51828570D01*
X162654819Y-51828570D02*
X162607200Y-51971427D01*
X162607200Y-51971427D02*
X162511961Y-52066665D01*
X162511961Y-52066665D02*
X162416723Y-52114284D01*
X162416723Y-52114284D02*
X162226247Y-52161903D01*
X162226247Y-52161903D02*
X162083390Y-52161903D01*
X162083390Y-52161903D02*
X161892914Y-52114284D01*
X161892914Y-52114284D02*
X161797676Y-52066665D01*
X161797676Y-52066665D02*
X161702438Y-51971427D01*
X161702438Y-51971427D02*
X161654819Y-51828570D01*
X161654819Y-51828570D02*
X161654819Y-51733332D01*
X161654819Y-51733332D02*
X161702438Y-51590475D01*
X161702438Y-51590475D02*
X161750057Y-51542856D01*
X162654819Y-50971427D02*
X162607200Y-51066665D01*
X162607200Y-51066665D02*
X162511961Y-51114284D01*
X162511961Y-51114284D02*
X161654819Y-51114284D01*
X162654819Y-50447617D02*
X162607200Y-50542855D01*
X162607200Y-50542855D02*
X162559580Y-50590474D01*
X162559580Y-50590474D02*
X162464342Y-50638093D01*
X162464342Y-50638093D02*
X162178628Y-50638093D01*
X162178628Y-50638093D02*
X162083390Y-50590474D01*
X162083390Y-50590474D02*
X162035771Y-50542855D01*
X162035771Y-50542855D02*
X161988152Y-50447617D01*
X161988152Y-50447617D02*
X161988152Y-50304760D01*
X161988152Y-50304760D02*
X162035771Y-50209522D01*
X162035771Y-50209522D02*
X162083390Y-50161903D01*
X162083390Y-50161903D02*
X162178628Y-50114284D01*
X162178628Y-50114284D02*
X162464342Y-50114284D01*
X162464342Y-50114284D02*
X162559580Y-50161903D01*
X162559580Y-50161903D02*
X162607200Y-50209522D01*
X162607200Y-50209522D02*
X162654819Y-50304760D01*
X162654819Y-50304760D02*
X162654819Y-50447617D01*
X162607200Y-49257141D02*
X162654819Y-49352379D01*
X162654819Y-49352379D02*
X162654819Y-49542855D01*
X162654819Y-49542855D02*
X162607200Y-49638093D01*
X162607200Y-49638093D02*
X162559580Y-49685712D01*
X162559580Y-49685712D02*
X162464342Y-49733331D01*
X162464342Y-49733331D02*
X162178628Y-49733331D01*
X162178628Y-49733331D02*
X162083390Y-49685712D01*
X162083390Y-49685712D02*
X162035771Y-49638093D01*
X162035771Y-49638093D02*
X161988152Y-49542855D01*
X161988152Y-49542855D02*
X161988152Y-49352379D01*
X161988152Y-49352379D02*
X162035771Y-49257141D01*
X162654819Y-48828569D02*
X161654819Y-48828569D01*
X162273866Y-48733331D02*
X162654819Y-48447617D01*
X161988152Y-48447617D02*
X162369104Y-48828569D01*
X161988152Y-48114283D02*
X162654819Y-47923807D01*
X162654819Y-47923807D02*
X162178628Y-47733331D01*
X162178628Y-47733331D02*
X162654819Y-47542855D01*
X162654819Y-47542855D02*
X161988152Y-47352379D01*
X162654819Y-46971426D02*
X161988152Y-46971426D01*
X161654819Y-46971426D02*
X161702438Y-47019045D01*
X161702438Y-47019045D02*
X161750057Y-46971426D01*
X161750057Y-46971426D02*
X161702438Y-46923807D01*
X161702438Y-46923807D02*
X161654819Y-46971426D01*
X161654819Y-46971426D02*
X161750057Y-46971426D01*
X162607200Y-46542855D02*
X162654819Y-46447617D01*
X162654819Y-46447617D02*
X162654819Y-46257141D01*
X162654819Y-46257141D02*
X162607200Y-46161903D01*
X162607200Y-46161903D02*
X162511961Y-46114284D01*
X162511961Y-46114284D02*
X162464342Y-46114284D01*
X162464342Y-46114284D02*
X162369104Y-46161903D01*
X162369104Y-46161903D02*
X162321485Y-46257141D01*
X162321485Y-46257141D02*
X162321485Y-46399998D01*
X162321485Y-46399998D02*
X162273866Y-46495236D01*
X162273866Y-46495236D02*
X162178628Y-46542855D01*
X162178628Y-46542855D02*
X162131009Y-46542855D01*
X162131009Y-46542855D02*
X162035771Y-46495236D01*
X162035771Y-46495236D02*
X161988152Y-46399998D01*
X161988152Y-46399998D02*
X161988152Y-46257141D01*
X161988152Y-46257141D02*
X162035771Y-46161903D01*
X162607200Y-45304760D02*
X162654819Y-45399998D01*
X162654819Y-45399998D02*
X162654819Y-45590474D01*
X162654819Y-45590474D02*
X162607200Y-45685712D01*
X162607200Y-45685712D02*
X162511961Y-45733331D01*
X162511961Y-45733331D02*
X162131009Y-45733331D01*
X162131009Y-45733331D02*
X162035771Y-45685712D01*
X162035771Y-45685712D02*
X161988152Y-45590474D01*
X161988152Y-45590474D02*
X161988152Y-45399998D01*
X161988152Y-45399998D02*
X162035771Y-45304760D01*
X162035771Y-45304760D02*
X162131009Y-45257141D01*
X162131009Y-45257141D02*
X162226247Y-45257141D01*
X162226247Y-45257141D02*
X162321485Y-45733331D01*
X150154819Y-60138094D02*
X150154819Y-59519047D01*
X150154819Y-59519047D02*
X150535771Y-59852380D01*
X150535771Y-59852380D02*
X150535771Y-59709523D01*
X150535771Y-59709523D02*
X150583390Y-59614285D01*
X150583390Y-59614285D02*
X150631009Y-59566666D01*
X150631009Y-59566666D02*
X150726247Y-59519047D01*
X150726247Y-59519047D02*
X150964342Y-59519047D01*
X150964342Y-59519047D02*
X151059580Y-59566666D01*
X151059580Y-59566666D02*
X151107200Y-59614285D01*
X151107200Y-59614285D02*
X151154819Y-59709523D01*
X151154819Y-59709523D02*
X151154819Y-59995237D01*
X151154819Y-59995237D02*
X151107200Y-60090475D01*
X151107200Y-60090475D02*
X151059580Y-60138094D01*
X151059580Y-59090475D02*
X151107200Y-59042856D01*
X151107200Y-59042856D02*
X151154819Y-59090475D01*
X151154819Y-59090475D02*
X151107200Y-59138094D01*
X151107200Y-59138094D02*
X151059580Y-59090475D01*
X151059580Y-59090475D02*
X151154819Y-59090475D01*
X150154819Y-58709523D02*
X150154819Y-58090476D01*
X150154819Y-58090476D02*
X150535771Y-58423809D01*
X150535771Y-58423809D02*
X150535771Y-58280952D01*
X150535771Y-58280952D02*
X150583390Y-58185714D01*
X150583390Y-58185714D02*
X150631009Y-58138095D01*
X150631009Y-58138095D02*
X150726247Y-58090476D01*
X150726247Y-58090476D02*
X150964342Y-58090476D01*
X150964342Y-58090476D02*
X151059580Y-58138095D01*
X151059580Y-58138095D02*
X151107200Y-58185714D01*
X151107200Y-58185714D02*
X151154819Y-58280952D01*
X151154819Y-58280952D02*
X151154819Y-58566666D01*
X151154819Y-58566666D02*
X151107200Y-58661904D01*
X151107200Y-58661904D02*
X151059580Y-58709523D01*
X150154819Y-57804761D02*
X151154819Y-57471428D01*
X151154819Y-57471428D02*
X150154819Y-57138095D01*
X151250057Y-57042857D02*
X151250057Y-56280952D01*
X151107200Y-56090475D02*
X151154819Y-55947618D01*
X151154819Y-55947618D02*
X151154819Y-55709523D01*
X151154819Y-55709523D02*
X151107200Y-55614285D01*
X151107200Y-55614285D02*
X151059580Y-55566666D01*
X151059580Y-55566666D02*
X150964342Y-55519047D01*
X150964342Y-55519047D02*
X150869104Y-55519047D01*
X150869104Y-55519047D02*
X150773866Y-55566666D01*
X150773866Y-55566666D02*
X150726247Y-55614285D01*
X150726247Y-55614285D02*
X150678628Y-55709523D01*
X150678628Y-55709523D02*
X150631009Y-55899999D01*
X150631009Y-55899999D02*
X150583390Y-55995237D01*
X150583390Y-55995237D02*
X150535771Y-56042856D01*
X150535771Y-56042856D02*
X150440533Y-56090475D01*
X150440533Y-56090475D02*
X150345295Y-56090475D01*
X150345295Y-56090475D02*
X150250057Y-56042856D01*
X150250057Y-56042856D02*
X150202438Y-55995237D01*
X150202438Y-55995237D02*
X150154819Y-55899999D01*
X150154819Y-55899999D02*
X150154819Y-55661904D01*
X150154819Y-55661904D02*
X150202438Y-55519047D01*
X150678628Y-54899999D02*
X151154819Y-54899999D01*
X150154819Y-55233332D02*
X150678628Y-54899999D01*
X150678628Y-54899999D02*
X150154819Y-54566666D01*
X151107200Y-54280951D02*
X151154819Y-54138094D01*
X151154819Y-54138094D02*
X151154819Y-53899999D01*
X151154819Y-53899999D02*
X151107200Y-53804761D01*
X151107200Y-53804761D02*
X151059580Y-53757142D01*
X151059580Y-53757142D02*
X150964342Y-53709523D01*
X150964342Y-53709523D02*
X150869104Y-53709523D01*
X150869104Y-53709523D02*
X150773866Y-53757142D01*
X150773866Y-53757142D02*
X150726247Y-53804761D01*
X150726247Y-53804761D02*
X150678628Y-53899999D01*
X150678628Y-53899999D02*
X150631009Y-54090475D01*
X150631009Y-54090475D02*
X150583390Y-54185713D01*
X150583390Y-54185713D02*
X150535771Y-54233332D01*
X150535771Y-54233332D02*
X150440533Y-54280951D01*
X150440533Y-54280951D02*
X150345295Y-54280951D01*
X150345295Y-54280951D02*
X150250057Y-54233332D01*
X150250057Y-54233332D02*
X150202438Y-54185713D01*
X150202438Y-54185713D02*
X150154819Y-54090475D01*
X150154819Y-54090475D02*
X150154819Y-53852380D01*
X150154819Y-53852380D02*
X150202438Y-53709523D01*
X107662921Y-73084383D02*
X107797904Y-73129377D01*
X107797904Y-73129377D02*
X107842899Y-73174371D01*
X107842899Y-73174371D02*
X107887893Y-73264360D01*
X107887893Y-73264360D02*
X107887893Y-73399343D01*
X107887893Y-73399343D02*
X107842899Y-73489332D01*
X107842899Y-73489332D02*
X107797904Y-73534327D01*
X107797904Y-73534327D02*
X107707915Y-73579321D01*
X107707915Y-73579321D02*
X107347960Y-73579321D01*
X107347960Y-73579321D02*
X107347960Y-72634439D01*
X107347960Y-72634439D02*
X107662921Y-72634439D01*
X107662921Y-72634439D02*
X107752910Y-72679433D01*
X107752910Y-72679433D02*
X107797904Y-72724428D01*
X107797904Y-72724428D02*
X107842899Y-72814416D01*
X107842899Y-72814416D02*
X107842899Y-72904405D01*
X107842899Y-72904405D02*
X107797904Y-72994394D01*
X107797904Y-72994394D02*
X107752910Y-73039388D01*
X107752910Y-73039388D02*
X107662921Y-73084383D01*
X107662921Y-73084383D02*
X107347960Y-73084383D01*
X108697792Y-72949400D02*
X108697792Y-73579321D01*
X108472820Y-72589445D02*
X108247848Y-73264360D01*
X108247848Y-73264360D02*
X108832775Y-73264360D01*
X109507691Y-73084383D02*
X109642674Y-73129377D01*
X109642674Y-73129377D02*
X109687669Y-73174371D01*
X109687669Y-73174371D02*
X109732663Y-73264360D01*
X109732663Y-73264360D02*
X109732663Y-73399343D01*
X109732663Y-73399343D02*
X109687669Y-73489332D01*
X109687669Y-73489332D02*
X109642674Y-73534327D01*
X109642674Y-73534327D02*
X109552685Y-73579321D01*
X109552685Y-73579321D02*
X109192730Y-73579321D01*
X109192730Y-73579321D02*
X109192730Y-72634439D01*
X109192730Y-72634439D02*
X109507691Y-72634439D01*
X109507691Y-72634439D02*
X109597680Y-72679433D01*
X109597680Y-72679433D02*
X109642674Y-72724428D01*
X109642674Y-72724428D02*
X109687669Y-72814416D01*
X109687669Y-72814416D02*
X109687669Y-72904405D01*
X109687669Y-72904405D02*
X109642674Y-72994394D01*
X109642674Y-72994394D02*
X109597680Y-73039388D01*
X109597680Y-73039388D02*
X109507691Y-73084383D01*
X109507691Y-73084383D02*
X109192730Y-73084383D01*
X110137612Y-73219366D02*
X110857523Y-73219366D01*
X111217478Y-72634439D02*
X111847399Y-73579321D01*
X111847399Y-72634439D02*
X111217478Y-73579321D01*
X112207354Y-73579321D02*
X112207354Y-72634439D01*
X112207354Y-73084383D02*
X112747287Y-73084383D01*
X112747287Y-73579321D02*
X112747287Y-72634439D01*
X113197230Y-73219366D02*
X113917141Y-73219366D01*
X114322090Y-73309355D02*
X114772034Y-73309355D01*
X114232101Y-73579321D02*
X114547062Y-72634439D01*
X114547062Y-72634439D02*
X114862023Y-73579321D01*
X108559383Y-62274578D02*
X108604377Y-62139595D01*
X108604377Y-62139595D02*
X108649371Y-62094600D01*
X108649371Y-62094600D02*
X108739360Y-62049606D01*
X108739360Y-62049606D02*
X108874343Y-62049606D01*
X108874343Y-62049606D02*
X108964332Y-62094600D01*
X108964332Y-62094600D02*
X109009327Y-62139595D01*
X109009327Y-62139595D02*
X109054321Y-62229584D01*
X109054321Y-62229584D02*
X109054321Y-62589539D01*
X109054321Y-62589539D02*
X108109439Y-62589539D01*
X108109439Y-62589539D02*
X108109439Y-62274578D01*
X108109439Y-62274578D02*
X108154433Y-62184589D01*
X108154433Y-62184589D02*
X108199428Y-62139595D01*
X108199428Y-62139595D02*
X108289416Y-62094600D01*
X108289416Y-62094600D02*
X108379405Y-62094600D01*
X108379405Y-62094600D02*
X108469394Y-62139595D01*
X108469394Y-62139595D02*
X108514388Y-62184589D01*
X108514388Y-62184589D02*
X108559383Y-62274578D01*
X108559383Y-62274578D02*
X108559383Y-62589539D01*
X108109439Y-61734645D02*
X108109439Y-61149718D01*
X108109439Y-61149718D02*
X108469394Y-61464679D01*
X108469394Y-61464679D02*
X108469394Y-61329696D01*
X108469394Y-61329696D02*
X108514388Y-61239707D01*
X108514388Y-61239707D02*
X108559383Y-61194713D01*
X108559383Y-61194713D02*
X108649371Y-61149718D01*
X108649371Y-61149718D02*
X108874343Y-61149718D01*
X108874343Y-61149718D02*
X108964332Y-61194713D01*
X108964332Y-61194713D02*
X109009327Y-61239707D01*
X109009327Y-61239707D02*
X109054321Y-61329696D01*
X109054321Y-61329696D02*
X109054321Y-61599662D01*
X109054321Y-61599662D02*
X109009327Y-61689651D01*
X109009327Y-61689651D02*
X108964332Y-61734645D01*
X108559383Y-60429808D02*
X108604377Y-60294825D01*
X108604377Y-60294825D02*
X108649371Y-60249830D01*
X108649371Y-60249830D02*
X108739360Y-60204836D01*
X108739360Y-60204836D02*
X108874343Y-60204836D01*
X108874343Y-60204836D02*
X108964332Y-60249830D01*
X108964332Y-60249830D02*
X109009327Y-60294825D01*
X109009327Y-60294825D02*
X109054321Y-60384814D01*
X109054321Y-60384814D02*
X109054321Y-60744769D01*
X109054321Y-60744769D02*
X108109439Y-60744769D01*
X108109439Y-60744769D02*
X108109439Y-60429808D01*
X108109439Y-60429808D02*
X108154433Y-60339819D01*
X108154433Y-60339819D02*
X108199428Y-60294825D01*
X108199428Y-60294825D02*
X108289416Y-60249830D01*
X108289416Y-60249830D02*
X108379405Y-60249830D01*
X108379405Y-60249830D02*
X108469394Y-60294825D01*
X108469394Y-60294825D02*
X108514388Y-60339819D01*
X108514388Y-60339819D02*
X108559383Y-60429808D01*
X108559383Y-60429808D02*
X108559383Y-60744769D01*
X108694366Y-59799887D02*
X108694366Y-59079977D01*
X108109439Y-58720021D02*
X109054321Y-58090100D01*
X108109439Y-58090100D02*
X109054321Y-58720021D01*
X109054321Y-57730145D02*
X108109439Y-57730145D01*
X108559383Y-57730145D02*
X108559383Y-57190212D01*
X109054321Y-57190212D02*
X108109439Y-57190212D01*
X108694366Y-56740269D02*
X108694366Y-56020359D01*
X108784355Y-55615409D02*
X108784355Y-55165465D01*
X109054321Y-55705398D02*
X108109439Y-55390437D01*
X108109439Y-55390437D02*
X109054321Y-55075476D01*
D11*
X141583313Y-107884916D02*
X141583313Y-107847420D01*
X141583313Y-107847420D02*
X141602061Y-107809925D01*
X141602061Y-107809925D02*
X141620809Y-107791177D01*
X141620809Y-107791177D02*
X141658304Y-107772430D01*
X141658304Y-107772430D02*
X141733295Y-107753682D01*
X141733295Y-107753682D02*
X141827033Y-107753682D01*
X141827033Y-107753682D02*
X141902024Y-107772430D01*
X141902024Y-107772430D02*
X141939519Y-107791177D01*
X141939519Y-107791177D02*
X141958267Y-107809925D01*
X141958267Y-107809925D02*
X141977014Y-107847420D01*
X141977014Y-107847420D02*
X141977014Y-107884916D01*
X141977014Y-107884916D02*
X141958267Y-107922411D01*
X141958267Y-107922411D02*
X141939519Y-107941159D01*
X141939519Y-107941159D02*
X141902024Y-107959906D01*
X141902024Y-107959906D02*
X141827033Y-107978654D01*
X141827033Y-107978654D02*
X141733295Y-107978654D01*
X141733295Y-107978654D02*
X141658304Y-107959906D01*
X141658304Y-107959906D02*
X141620809Y-107941159D01*
X141620809Y-107941159D02*
X141602061Y-107922411D01*
X141602061Y-107922411D02*
X141583313Y-107884916D01*
X141939519Y-107584953D02*
X141958267Y-107566206D01*
X141958267Y-107566206D02*
X141977014Y-107584953D01*
X141977014Y-107584953D02*
X141958267Y-107603701D01*
X141958267Y-107603701D02*
X141939519Y-107584953D01*
X141939519Y-107584953D02*
X141977014Y-107584953D01*
X141977014Y-107191252D02*
X141977014Y-107416224D01*
X141977014Y-107303738D02*
X141583313Y-107303738D01*
X141583313Y-107303738D02*
X141639556Y-107341233D01*
X141639556Y-107341233D02*
X141677052Y-107378729D01*
X141677052Y-107378729D02*
X141695799Y-107416224D01*
X141714547Y-107022523D02*
X142108248Y-107022523D01*
X141920771Y-106835047D02*
X141958267Y-106816299D01*
X141958267Y-106816299D02*
X141977014Y-106778804D01*
X141920771Y-107022523D02*
X141958267Y-107003776D01*
X141958267Y-107003776D02*
X141977014Y-106966280D01*
X141977014Y-106966280D02*
X141977014Y-106891290D01*
X141977014Y-106891290D02*
X141958267Y-106853794D01*
X141958267Y-106853794D02*
X141920771Y-106835047D01*
X141920771Y-106835047D02*
X141714547Y-106835047D01*
X141770790Y-106478841D02*
X141770790Y-106610074D01*
X141977014Y-106610074D02*
X141583313Y-106610074D01*
X141583313Y-106610074D02*
X141583313Y-106422598D01*
D12*
%TO.C,VectorNavInput1*%
X147830000Y-123830000D02*
X147830000Y-94980000D01*
X148830000Y-93980000D02*
X159330000Y-93980000D01*
X150130000Y-115648194D02*
X150130000Y-103161806D01*
X152007837Y-101586113D02*
X156707837Y-102414850D01*
X156707837Y-116395150D02*
X152007837Y-117223887D01*
X158030000Y-103990543D02*
X158030000Y-114819457D01*
X159330000Y-124830000D02*
X148830000Y-124830000D01*
X160330000Y-94980000D02*
X160330000Y-123830000D01*
X147830000Y-94980000D02*
G75*
G02*
X148830000Y-93980000I1000000J0D01*
G01*
X148830000Y-124830000D02*
G75*
G02*
X147830000Y-123830000I-1J999999D01*
G01*
X150130000Y-103161806D02*
G75*
G02*
X152007837Y-101586113I1600001J-1D01*
G01*
X152007837Y-117223887D02*
G75*
G02*
X150130000Y-115648194I-277836J1575694D01*
G01*
X156707837Y-102414850D02*
G75*
G02*
X158030000Y-103990543I-277837J-1575692D01*
G01*
X158030000Y-114819457D02*
G75*
G02*
X156707837Y-116395150I-1600000J-1D01*
G01*
X159330000Y-93980000D02*
G75*
G02*
X160330000Y-94980000I0J-1000000D01*
G01*
X160330000Y-123830000D02*
G75*
G02*
X159330000Y-124830000I-999999J-1D01*
G01*
D13*
%TO.C,5V_LOW1*%
X104400000Y-60500000D02*
X104400000Y-61300000D01*
X104400000Y-60500000D02*
X106000000Y-60500000D01*
X104400000Y-61300000D02*
X106000000Y-61300000D01*
X106000000Y-60500000D02*
X106000000Y-61300000D01*
%TO.C,C2*%
X141350000Y-102920000D02*
X141350000Y-104520000D01*
X142150000Y-102920000D02*
X141350000Y-102920000D01*
X142150000Y-102920000D02*
X142150000Y-104520000D01*
X142150000Y-104520000D02*
X141350000Y-104520000D01*
%TO.C,CAMERA*%
X119925000Y-51912500D02*
X125675000Y-51912500D01*
X119925000Y-61812500D02*
X119925000Y-51912500D01*
X125675000Y-51912500D02*
X125675000Y-61812500D01*
X125675000Y-61812500D02*
X119925000Y-61812500D01*
D14*
X122375000Y-62612500D02*
G75*
G02*
X122175000Y-62612500I-100000J0D01*
G01*
X122175000Y-62612500D02*
G75*
G02*
X122375000Y-62612500I100000J0D01*
G01*
D13*
%TO.C,TeensyC0.1*%
X104400000Y-58300000D02*
X104400000Y-59100000D01*
X104400000Y-58300000D02*
X106000000Y-58300000D01*
X104400000Y-59100000D02*
X106000000Y-59100000D01*
X106000000Y-58300000D02*
X106000000Y-59100000D01*
%TO.C,5V_BULK1*%
X136600000Y-39850000D02*
X136600000Y-50150000D01*
X136600000Y-50150000D02*
X145100000Y-50150000D01*
X145100000Y-39850000D02*
X136600000Y-39850000D01*
X145100000Y-50150000D02*
X146900000Y-48350000D01*
X146900000Y-41650000D02*
X145100000Y-39850000D01*
X146900000Y-48350000D02*
X146900000Y-41650000D01*
D14*
X148150000Y-47100000D02*
G75*
G02*
X147950000Y-47100000I-100000J0D01*
G01*
X147950000Y-47100000D02*
G75*
G02*
X148150000Y-47100000I100000J0D01*
G01*
D13*
%TO.C,SAIL*%
X138025000Y-51787500D02*
X143775000Y-51787500D01*
X138025000Y-61687500D02*
X138025000Y-51787500D01*
X143775000Y-51787500D02*
X143775000Y-61687500D01*
X143775000Y-61687500D02*
X138025000Y-61687500D01*
D14*
X140475000Y-62487500D02*
G75*
G02*
X140275000Y-62487500I-100000J0D01*
G01*
X140275000Y-62487500D02*
G75*
G02*
X140475000Y-62487500I100000J0D01*
G01*
D13*
%TO.C,5V_MID1*%
X103950000Y-52900000D02*
X103950000Y-56100000D01*
X106450000Y-52900000D02*
X103950000Y-52900000D01*
X106450000Y-52900000D02*
X106450000Y-56100000D01*
X106450000Y-56100000D02*
X103950000Y-56100000D01*
%TO.C,3.3V_LOW1*%
X151600000Y-40055000D02*
X152400000Y-40055000D01*
X151600000Y-41655000D02*
X151600000Y-40055000D01*
X151600000Y-41655000D02*
X152400000Y-41655000D01*
X152400000Y-41655000D02*
X152400000Y-40055000D01*
%TO.C,TAIL*%
X129025000Y-51987500D02*
X134775000Y-51987500D01*
X129025000Y-61887500D02*
X129025000Y-51987500D01*
X134775000Y-51987500D02*
X134775000Y-61887500D01*
X134775000Y-61887500D02*
X129025000Y-61887500D01*
D14*
X131475000Y-62687500D02*
G75*
G02*
X131275000Y-62687500I-100000J0D01*
G01*
X131275000Y-62687500D02*
G75*
G02*
X131475000Y-62687500I100000J0D01*
G01*
D12*
%TO.C,3.3V_BULK*%
X154700000Y-41250000D02*
X154700000Y-46300000D01*
X154700000Y-46300000D02*
X161300000Y-46300000D01*
X156250000Y-39700000D02*
X154700000Y-41250000D01*
X159750000Y-39700000D02*
X156250000Y-39700000D01*
X161300000Y-41250000D02*
X159750000Y-39700000D01*
X161300000Y-46300000D02*
X161300000Y-41250000D01*
X161150000Y-43000000D02*
G75*
G02*
X154850000Y-43000000I-3150000J0D01*
G01*
X154850000Y-43000000D02*
G75*
G02*
X161150000Y-43000000I3150000J0D01*
G01*
D13*
%TO.C,C1*%
X141350000Y-99150000D02*
X141350000Y-100750000D01*
X142150000Y-99150000D02*
X141350000Y-99150000D01*
X142150000Y-99150000D02*
X142150000Y-100750000D01*
X142150000Y-100750000D02*
X141350000Y-100750000D01*
%TO.C,HEADERS1*%
X102710000Y-84810000D02*
X153910000Y-84810000D01*
X102710000Y-89850000D02*
X102710000Y-84810000D01*
X153910000Y-84810000D02*
X153910000Y-89850000D01*
X153910000Y-89850000D02*
X102710000Y-89850000D01*
D14*
X154520000Y-88600000D02*
G75*
G02*
X154320000Y-88600000I-100000J0D01*
G01*
X154320000Y-88600000D02*
G75*
G02*
X154520000Y-88600000I100000J0D01*
G01*
D13*
%TO.C,TEENSY*%
X124870000Y-64890000D02*
X161130000Y-64890000D01*
X124870000Y-82670000D02*
X124870000Y-64890000D01*
X161130000Y-64890000D02*
X161130000Y-82670000D01*
X161130000Y-82670000D02*
X124870000Y-82670000D01*
D15*
%TO.C,MAX3323EEPE*%
X129913200Y-92428200D02*
X129913200Y-93291800D01*
X129913200Y-93291800D02*
X130218000Y-93291800D01*
X129913200Y-94968200D02*
X129913200Y-95831800D01*
X129913200Y-95831800D02*
X130218000Y-95831800D01*
X129913200Y-97508200D02*
X129913200Y-98371800D01*
X129913200Y-98371800D02*
X130218000Y-98371800D01*
X129913200Y-100048200D02*
X129913200Y-100911800D01*
X129913200Y-100911800D02*
X130218000Y-100911800D01*
X129913200Y-102588200D02*
X129913200Y-103451800D01*
X129913200Y-103451800D02*
X130218000Y-103451800D01*
X129913200Y-105128200D02*
X129913200Y-105991800D01*
X129913200Y-105991800D02*
X130218000Y-105991800D01*
X129913200Y-107668200D02*
X129913200Y-108531800D01*
X129913200Y-108531800D02*
X130218000Y-108531800D01*
X129913200Y-110208200D02*
X129913200Y-111071800D01*
X129913200Y-111071800D02*
X130218000Y-111071800D01*
X130218000Y-92034500D02*
X130218000Y-111465500D01*
X130218000Y-92428200D02*
X129913200Y-92428200D01*
X130218000Y-93291800D02*
X130218000Y-92428200D01*
X130218000Y-94968200D02*
X129913200Y-94968200D01*
X130218000Y-95831800D02*
X130218000Y-94968200D01*
X130218000Y-97508200D02*
X129913200Y-97508200D01*
X130218000Y-98371800D02*
X130218000Y-97508200D01*
X130218000Y-100048200D02*
X129913200Y-100048200D01*
X130218000Y-100911800D02*
X130218000Y-100048200D01*
X130218000Y-102588200D02*
X129913200Y-102588200D01*
X130218000Y-103451800D02*
X130218000Y-102588200D01*
X130218000Y-105128200D02*
X129913200Y-105128200D01*
X130218000Y-105991800D02*
X130218000Y-105128200D01*
X130218000Y-107668200D02*
X129913200Y-107668200D01*
X130218000Y-108531800D02*
X130218000Y-107668200D01*
X130218000Y-110208200D02*
X129913200Y-110208200D01*
X130218000Y-111071800D02*
X130218000Y-110208200D01*
X130218000Y-111465500D02*
X138092000Y-111465500D01*
X138092000Y-92034500D02*
X130218000Y-92034500D01*
X138092000Y-92428200D02*
X138092000Y-93291800D01*
X138092000Y-93291800D02*
X138396800Y-93291800D01*
X138092000Y-94968200D02*
X138092000Y-95831800D01*
X138092000Y-95831800D02*
X138396800Y-95831800D01*
X138092000Y-97508200D02*
X138092000Y-98371800D01*
X138092000Y-98371800D02*
X138396800Y-98371800D01*
X138092000Y-100048200D02*
X138092000Y-100911800D01*
X138092000Y-100911800D02*
X138396800Y-100911800D01*
X138092000Y-102588200D02*
X138092000Y-103451800D01*
X138092000Y-103451800D02*
X138396800Y-103451800D01*
X138092000Y-105128200D02*
X138092000Y-105991800D01*
X138092000Y-105991800D02*
X138396800Y-105991800D01*
X138092000Y-107668200D02*
X138092000Y-108531800D01*
X138092000Y-108531800D02*
X138396800Y-108531800D01*
X138092000Y-110208200D02*
X138092000Y-111071800D01*
X138092000Y-111071800D02*
X138396800Y-111071800D01*
X138092000Y-111465500D02*
X138092000Y-92034500D01*
X138396800Y-92428200D02*
X138092000Y-92428200D01*
X138396800Y-93291800D02*
X138396800Y-92428200D01*
X138396800Y-94968200D02*
X138092000Y-94968200D01*
X138396800Y-95831800D02*
X138396800Y-94968200D01*
X138396800Y-97508200D02*
X138092000Y-97508200D01*
X138396800Y-98371800D02*
X138396800Y-97508200D01*
X138396800Y-100048200D02*
X138092000Y-100048200D01*
X138396800Y-100911800D02*
X138396800Y-100048200D01*
X138396800Y-102588200D02*
X138092000Y-102588200D01*
X138396800Y-103451800D02*
X138396800Y-102588200D01*
X138396800Y-105128200D02*
X138092000Y-105128200D01*
X138396800Y-105991800D02*
X138396800Y-105128200D01*
X138396800Y-107668200D02*
X138092000Y-107668200D01*
X138396800Y-108531800D02*
X138396800Y-107668200D01*
X138396800Y-110208200D02*
X138092000Y-110208200D01*
X138396800Y-111071800D02*
X138396800Y-110208200D01*
X133850200Y-111465500D02*
G75*
G02*
X134459800Y-111465500I304800J0D01*
G01*
D13*
%TO.C,C5*%
X129100000Y-114200000D02*
X129100000Y-113400000D01*
X130700000Y-113400000D02*
X129100000Y-113400000D01*
X130700000Y-114200000D02*
X129100000Y-114200000D01*
X130700000Y-114200000D02*
X130700000Y-113400000D01*
%TO.C,C3*%
X142350000Y-107950000D02*
X142350000Y-109550000D01*
X143150000Y-107950000D02*
X142350000Y-107950000D01*
X143150000Y-107950000D02*
X143150000Y-109550000D01*
X143150000Y-109550000D02*
X142350000Y-109550000D01*
%TO.C,3.3V_MID1*%
X151370000Y-45105000D02*
X152630000Y-45105000D01*
X151370000Y-47105000D02*
X151370000Y-45105000D01*
X151370000Y-47105000D02*
X152630000Y-47105000D01*
X152630000Y-47105000D02*
X152630000Y-45105000D01*
D12*
%TO.C,5V_SYS*%
X105155000Y-45550000D02*
X108455000Y-45550000D01*
X105155000Y-48025000D02*
X105155000Y-45550000D01*
X105980000Y-48850000D02*
X105155000Y-48025000D01*
X107630000Y-48850000D02*
X105980000Y-48850000D01*
X108455000Y-45550000D02*
X108455000Y-48025000D01*
X108455000Y-48025000D02*
X107630000Y-48850000D01*
X109305000Y-39100000D02*
X109305000Y-40500000D01*
X109355000Y-45550000D02*
X112655000Y-45550000D01*
X109355000Y-48025000D02*
X109355000Y-45550000D01*
X110180000Y-48850000D02*
X109355000Y-48025000D01*
X111830000Y-48850000D02*
X110180000Y-48850000D01*
X112655000Y-45550000D02*
X112655000Y-48025000D01*
X112655000Y-48025000D02*
X111830000Y-48850000D01*
X112705000Y-39100000D02*
X109305000Y-39100000D01*
X112705000Y-40500000D02*
X112705000Y-39100000D01*
X113555000Y-41350000D02*
X116855000Y-41350000D01*
X113555000Y-43825000D02*
X113555000Y-41350000D01*
X114380000Y-44650000D02*
X113555000Y-43825000D01*
X115405000Y-50450000D02*
X118255000Y-50450000D01*
X116030000Y-44650000D02*
X114380000Y-44650000D01*
X116855000Y-41350000D02*
X116855000Y-43825000D01*
X116855000Y-43825000D02*
X116030000Y-44650000D01*
X118255000Y-50450000D02*
X118255000Y-47600000D01*
X108455000Y-44650000D02*
X105155000Y-44650000D01*
X105155000Y-41350000D01*
X108455000Y-41350000D01*
X108455000Y-44650000D01*
X112655000Y-44650000D02*
X109355000Y-44650000D01*
X109355000Y-41350000D01*
X112655000Y-41350000D01*
X112655000Y-44650000D01*
X116855000Y-48850000D02*
X113555000Y-48850000D01*
X113555000Y-45550000D01*
X116855000Y-45550000D01*
X116855000Y-48850000D01*
X117905000Y-50100000D02*
X104105000Y-50100000D01*
X104105000Y-40500000D01*
X117905000Y-40500000D01*
X117905000Y-50100000D01*
D13*
%TO.C,ANEMOMETER*%
X103437500Y-75625000D02*
X115837500Y-75625000D01*
X103437500Y-81375000D02*
X103437500Y-75625000D01*
X115837500Y-75625000D02*
X115837500Y-81375000D01*
X115837500Y-81375000D02*
X103437500Y-81375000D01*
D14*
X116737500Y-79025000D02*
G75*
G02*
X116537500Y-79025000I-100000J0D01*
G01*
X116537500Y-79025000D02*
G75*
G02*
X116737500Y-79025000I100000J0D01*
G01*
D15*
%TO.C,C7*%
X128503000Y-116296600D02*
X128503000Y-119903400D01*
X128503000Y-119903400D02*
X131297000Y-119903400D01*
X131297000Y-116296600D02*
X128503000Y-116296600D01*
X131297000Y-119903400D02*
X131297000Y-116296600D01*
D13*
%TO.C,5V_BULK2*%
X121600000Y-39850000D02*
X121600000Y-50150000D01*
X121600000Y-50150000D02*
X130100000Y-50150000D01*
X130100000Y-39850000D02*
X121600000Y-39850000D01*
X130100000Y-50150000D02*
X131900000Y-48350000D01*
X131900000Y-41650000D02*
X130100000Y-39850000D01*
X131900000Y-48350000D02*
X131900000Y-41650000D01*
D14*
X133150000Y-47100000D02*
G75*
G02*
X132950000Y-47100000I-100000J0D01*
G01*
X132950000Y-47100000D02*
G75*
G02*
X133150000Y-47100000I100000J0D01*
G01*
D12*
%TO.C,3.3V_SYS*%
X149650000Y-59200000D02*
X149650000Y-62050000D01*
X149650000Y-62050000D02*
X152500000Y-62050000D01*
X151250000Y-53975000D02*
X152075000Y-53150000D01*
X151250000Y-55625000D02*
X151250000Y-53975000D01*
X152075000Y-53150000D02*
X154550000Y-53150000D01*
X152075000Y-56450000D02*
X151250000Y-55625000D01*
X154550000Y-53150000D02*
X154550000Y-56450000D01*
X154550000Y-56450000D02*
X152075000Y-56450000D01*
X155450000Y-58175000D02*
X156275000Y-57350000D01*
X155450000Y-59825000D02*
X155450000Y-58175000D01*
X156275000Y-57350000D02*
X158750000Y-57350000D01*
X156275000Y-60650000D02*
X155450000Y-59825000D01*
X158750000Y-57350000D02*
X158750000Y-60650000D01*
X158750000Y-60650000D02*
X156275000Y-60650000D01*
X159600000Y-58600000D02*
X161000000Y-58600000D01*
X161000000Y-55200000D02*
X159600000Y-55200000D01*
X161000000Y-58600000D02*
X161000000Y-55200000D01*
X150000000Y-61700000D02*
X159600000Y-61700000D01*
X159600000Y-52100000D01*
X150000000Y-52100000D01*
X150000000Y-61700000D01*
X151250000Y-60650000D02*
X154550000Y-60650000D01*
X154550000Y-57350000D01*
X151250000Y-57350000D01*
X151250000Y-60650000D01*
X155450000Y-56450000D02*
X158750000Y-56450000D01*
X158750000Y-53150000D01*
X155450000Y-53150000D01*
X155450000Y-56450000D01*
D13*
%TO.C,3.3V_EXTRA*%
X103837500Y-65875000D02*
X116237500Y-65875000D01*
X103837500Y-71625000D02*
X103837500Y-65875000D01*
X116237500Y-65875000D02*
X116237500Y-71625000D01*
X116237500Y-71625000D02*
X103837500Y-71625000D01*
D14*
X117137500Y-69275000D02*
G75*
G02*
X116937500Y-69275000I-100000J0D01*
G01*
X116937500Y-69275000D02*
G75*
G02*
X117137500Y-69275000I100000J0D01*
G01*
D13*
%TO.C,5V_EXTRA*%
X110150000Y-51950000D02*
X115900000Y-51950000D01*
X110150000Y-61850000D02*
X110150000Y-51950000D01*
X115900000Y-51950000D02*
X115900000Y-61850000D01*
X115900000Y-61850000D02*
X110150000Y-61850000D01*
D14*
X112600000Y-62650000D02*
G75*
G02*
X112400000Y-62650000I-100000J0D01*
G01*
X112400000Y-62650000D02*
G75*
G02*
X112600000Y-62650000I100000J0D01*
G01*
D13*
%TO.C,C4*%
X140350000Y-107950000D02*
X140350000Y-109550000D01*
X141150000Y-107950000D02*
X140350000Y-107950000D01*
X141150000Y-107950000D02*
X141150000Y-109550000D01*
X141150000Y-109550000D02*
X140350000Y-109550000D01*
%TD*%
M02*
