%TF.GenerationSoftware,KiCad,Pcbnew,9.0.3*%
%TF.CreationDate,2026-03-06T12:15:15-05:00*%
%TF.ProjectId,ElectronicsPCB,456c6563-7472-46f6-9e69-63735043422e,rev?*%
%TF.SameCoordinates,Original*%
%TF.FileFunction,Soldermask,Bot*%
%TF.FilePolarity,Negative*%
%FSLAX46Y46*%
G04 Gerber Fmt 4.6, Leading zero omitted, Abs format (unit mm)*
G04 Created by KiCad (PCBNEW 9.0.3) date 2026-03-06 12:15:15*
%MOMM*%
%LPD*%
G01*
G04 APERTURE LIST*
G04 Aperture macros list*
%AMRoundRect*
0 Rectangle with rounded corners*
0 $1 Rounding radius*
0 $2 $3 $4 $5 $6 $7 $8 $9 X,Y pos of 4 corners*
0 Add a 4 corners polygon primitive as box body*
4,1,4,$2,$3,$4,$5,$6,$7,$8,$9,$2,$3,0*
0 Add four circle primitives for the rounded corners*
1,1,$1+$1,$2,$3*
1,1,$1+$1,$4,$5*
1,1,$1+$1,$6,$7*
1,1,$1+$1,$8,$9*
0 Add four rect primitives between the rounded corners*
20,1,$1+$1,$2,$3,$4,$5,0*
20,1,$1+$1,$4,$5,$6,$7,0*
20,1,$1+$1,$6,$7,$8,$9,0*
20,1,$1+$1,$8,$9,$2,$3,0*%
G04 Aperture macros list end*
%ADD10C,4.000000*%
%ADD11R,1.600000X1.600000*%
%ADD12C,1.600000*%
%ADD13RoundRect,0.102000X-0.754000X0.754000X-0.754000X-0.754000X0.754000X-0.754000X0.754000X0.754000X0*%
%ADD14C,1.712000*%
%ADD15C,3.200000*%
%ADD16RoundRect,0.102000X-0.754000X-0.754000X0.754000X-0.754000X0.754000X0.754000X-0.754000X0.754000X0*%
%ADD17R,1.371600X1.371600*%
%ADD18C,1.371600*%
%ADD19C,1.700000*%
%ADD20RoundRect,0.250001X1.099999X1.399999X-1.099999X1.399999X-1.099999X-1.399999X1.099999X-1.399999X0*%
%ADD21O,2.700000X3.300000*%
%ADD22RoundRect,0.250001X1.399999X-1.099999X1.399999X1.099999X-1.399999X1.099999X-1.399999X-1.099999X0*%
%ADD23O,3.300000X2.700000*%
%ADD24C,1.734000*%
G04 APERTURE END LIST*
D10*
%TO.C,VectorNavInput1*%
X154080000Y-121905000D03*
X154080000Y-96905000D03*
D11*
X152660000Y-103865000D03*
D12*
X152660000Y-106635000D03*
X152660000Y-109405000D03*
X152660000Y-112175000D03*
X152660000Y-114945000D03*
X155500000Y-105250000D03*
X155500000Y-108020000D03*
X155500000Y-110790000D03*
X155500000Y-113560000D03*
%TD*%
D13*
%TO.C,CAMERA*%
X122475000Y-60100000D03*
D14*
X122475000Y-57600000D03*
X122475000Y-55100000D03*
%TD*%
D13*
%TO.C,SAIL*%
X140375000Y-60000000D03*
D14*
X140375000Y-57500000D03*
X140375000Y-55000000D03*
%TD*%
D13*
%TO.C,TAIL*%
X131475000Y-60037500D03*
D14*
X131475000Y-57537500D03*
X131475000Y-55037500D03*
%TD*%
D15*
%TO.C,H3*%
X158390000Y-89500000D03*
%TD*%
D16*
%TO.C,HEADERS1*%
X152440000Y-88600000D03*
D14*
X152440000Y-86060000D03*
X149900000Y-88600000D03*
X149900000Y-86060000D03*
X147360000Y-88600000D03*
X147360000Y-86060000D03*
X144820000Y-88600000D03*
X144820000Y-86060000D03*
X142280000Y-88600000D03*
X142280000Y-86060000D03*
X139740000Y-88600000D03*
X139740000Y-86060000D03*
X137200000Y-88600000D03*
X137200000Y-86060000D03*
X134660000Y-88600000D03*
X134660000Y-86060000D03*
X132120000Y-88600000D03*
X132120000Y-86060000D03*
X129580000Y-88600000D03*
X129580000Y-86060000D03*
X127040000Y-88600000D03*
X127040000Y-86060000D03*
X124500000Y-88600000D03*
X124500000Y-86060000D03*
X121960000Y-88600000D03*
X121960000Y-86060000D03*
X119420000Y-88600000D03*
X119420000Y-86060000D03*
X116880000Y-88600000D03*
X116880000Y-86060000D03*
X114340000Y-88600000D03*
X114340000Y-86060000D03*
X111800000Y-88600000D03*
X111800000Y-86060000D03*
X109260000Y-88600000D03*
X109260000Y-86060000D03*
X106720000Y-88600000D03*
X106720000Y-86060000D03*
X104180000Y-88600000D03*
X104180000Y-86060000D03*
%TD*%
D17*
%TO.C,MAX3323EEPE*%
X140450000Y-111090000D03*
D18*
X140450000Y-108550000D03*
X140450000Y-106010000D03*
X140450000Y-103470000D03*
X140450000Y-100930000D03*
X140450000Y-98390000D03*
X140450000Y-95850000D03*
X140450000Y-93310000D03*
X132830000Y-93310000D03*
X132830000Y-95850000D03*
X132830000Y-98390000D03*
X132830000Y-100930000D03*
X132830000Y-103470000D03*
X132830000Y-106010000D03*
X132830000Y-108550000D03*
X132830000Y-111090000D03*
%TD*%
D19*
%TO.C,XBEE1*%
X126000000Y-116000000D03*
X126000000Y-114000000D03*
X126000000Y-112000000D03*
X126000000Y-110000000D03*
X126000000Y-108000000D03*
X126000000Y-106000000D03*
X126000000Y-104000000D03*
X126000000Y-102000000D03*
X126000000Y-100000000D03*
X126000000Y-98000000D03*
X104000000Y-98000000D03*
X104000000Y-100000000D03*
X104000000Y-102000000D03*
X104000000Y-104000000D03*
X104000000Y-106000000D03*
X104000000Y-108000000D03*
X104000000Y-110000000D03*
X104000000Y-112000000D03*
X104000000Y-114000000D03*
X104000000Y-116000000D03*
%TD*%
D20*
%TO.C,5V_SYS*%
X115300000Y-47700000D03*
D21*
X111100000Y-47700000D03*
X106900000Y-47700000D03*
X115300000Y-42200000D03*
X111100000Y-42200000D03*
X106900000Y-42200000D03*
%TD*%
D16*
%TO.C,ANEMOMETER*%
X113387500Y-79025000D03*
D14*
X110887500Y-79025000D03*
X108387500Y-79025000D03*
X105887500Y-79025000D03*
%TD*%
D15*
%TO.C,H1*%
X135900000Y-123900000D03*
%TD*%
%TO.C,H2*%
X120230000Y-72810000D03*
%TD*%
D22*
%TO.C,3.3V_SYS*%
X152250000Y-59000000D03*
D23*
X152250000Y-54800000D03*
X157750000Y-59000000D03*
X157750000Y-54800000D03*
%TD*%
D16*
%TO.C,3.3V_EXTRA*%
X113787500Y-69275000D03*
D14*
X111287500Y-69275000D03*
X108787500Y-69275000D03*
X106287500Y-69275000D03*
%TD*%
D13*
%TO.C,5V_EXTRA*%
X113375000Y-60100000D03*
D14*
X113375000Y-57600000D03*
X113375000Y-55100000D03*
%TD*%
D24*
%TO.C,TEENSY 4.0*%
X156620000Y-66160000D03*
X154080000Y-66160000D03*
X151540000Y-66160000D03*
X149000000Y-66160000D03*
X126140000Y-71240000D03*
X154080000Y-81400000D03*
X146460000Y-66160000D03*
X143920000Y-66160000D03*
X141380000Y-66160000D03*
X138840000Y-66160000D03*
X136300000Y-66160000D03*
X133760000Y-66160000D03*
X131220000Y-66160000D03*
X128680000Y-66160000D03*
X126140000Y-66160000D03*
X126140000Y-81400000D03*
X128680000Y-81400000D03*
X131220000Y-81400000D03*
X133760000Y-81400000D03*
X136300000Y-81400000D03*
X138840000Y-81400000D03*
X141380000Y-81400000D03*
X143920000Y-81400000D03*
X146460000Y-81400000D03*
X149000000Y-81400000D03*
X151540000Y-81400000D03*
X159160000Y-66160000D03*
X126140000Y-73780000D03*
X156620000Y-81400000D03*
X126140000Y-78860000D03*
X126140000Y-76320000D03*
X126140000Y-68700000D03*
X159160000Y-81400000D03*
%TD*%
M02*
