M48
; DRILL file {KiCad 9.0.3} date 2026-03-06T12:14:55-0500
; FORMAT={-:-/ absolute / metric / decimal}
; #@! TF.CreationDate,2026-03-06T12:14:55-05:00
; #@! TF.GenerationSoftware,Kicad,Pcbnew,9.0.3
; #@! TF.FileFunction,Plated,1,2,PTH
FMAT,2
METRIC
; #@! TA.AperFunction,Plated,PTH,ViaDrill
T1C0.300
; #@! TA.AperFunction,Plated,PTH,ViaDrill
T2C0.400
; #@! TA.AperFunction,Plated,PTH,ComponentDrill
T3C0.800
; #@! TA.AperFunction,Plated,PTH,ComponentDrill
T4C0.864
; #@! TA.AperFunction,Plated,PTH,ComponentDrill
T5C1.000
; #@! TA.AperFunction,Plated,PTH,ComponentDrill
T6C1.020
; #@! TA.AperFunction,Plated,PTH,ComponentDrill
T7C1.400
; #@! TA.AperFunction,Plated,PTH,ComponentDrill
T8C3.200
%
G90
G05
T1
X105.2Y-52.1
X107.51Y-82.56
X109.2Y-52.73
X109.2Y-73.2
X118.73Y-55.21
X120.0Y-45.0
X120.04Y-38.96
X127.72Y-54.99
X132.103Y-116.297
X132.2Y-113.8
X135.25Y-42.9
X136.61Y-54.99
X142.085Y-109.95
X144.485Y-98.85
X152.0Y-42.705
X152.0Y-48.205
X156.105Y-84.345
X158.0Y-49.0
X160.63Y-84.56
T2
X128.58Y-92.6
X130.42Y-92.74
X146.835Y-91.655
T3
X104.0Y-98.0
X104.0Y-100.0
X104.0Y-102.0
X104.0Y-104.0
X104.0Y-106.0
X104.0Y-108.0
X104.0Y-110.0
X104.0Y-112.0
X104.0Y-114.0
X104.0Y-116.0
X126.0Y-98.0
X126.0Y-100.0
X126.0Y-102.0
X126.0Y-104.0
X126.0Y-106.0
X126.0Y-108.0
X126.0Y-110.0
X126.0Y-112.0
X126.0Y-114.0
X126.0Y-116.0
T4
X132.83Y-93.31
X132.83Y-95.85
X132.83Y-98.39
X132.83Y-100.93
X132.83Y-103.47
X132.83Y-106.01
X132.83Y-108.55
X132.83Y-111.09
X140.45Y-93.31
X140.45Y-95.85
X140.45Y-98.39
X140.45Y-100.93
X140.45Y-103.47
X140.45Y-106.01
X140.45Y-108.55
X140.45Y-111.09
T5
X104.18Y-86.06
X104.18Y-88.6
X105.887Y-79.025
X106.287Y-69.275
X106.72Y-86.06
X106.72Y-88.6
X108.387Y-79.025
X108.787Y-69.275
X109.26Y-86.06
X109.26Y-88.6
X110.887Y-79.025
X111.287Y-69.275
X111.8Y-86.06
X111.8Y-88.6
X113.375Y-55.1
X113.375Y-57.6
X113.375Y-60.1
X113.387Y-79.025
X113.787Y-69.275
X114.34Y-86.06
X114.34Y-88.6
X116.88Y-86.06
X116.88Y-88.6
X119.42Y-86.06
X119.42Y-88.6
X121.96Y-86.06
X121.96Y-88.6
X122.475Y-55.1
X122.475Y-57.6
X122.475Y-60.1
X124.5Y-86.06
X124.5Y-88.6
X127.04Y-86.06
X127.04Y-88.6
X129.58Y-86.06
X129.58Y-88.6
X131.475Y-55.037
X131.475Y-57.537
X131.475Y-60.037
X132.12Y-86.06
X132.12Y-88.6
X134.66Y-86.06
X134.66Y-88.6
X137.2Y-86.06
X137.2Y-88.6
X139.74Y-86.06
X139.74Y-88.6
X140.375Y-55.0
X140.375Y-57.5
X140.375Y-60.0
X142.28Y-86.06
X142.28Y-88.6
X144.82Y-86.06
X144.82Y-88.6
X147.36Y-86.06
X147.36Y-88.6
X149.9Y-86.06
X149.9Y-88.6
X152.44Y-86.06
X152.44Y-88.6
X152.66Y-103.865
X152.66Y-106.635
X152.66Y-109.405
X152.66Y-112.175
X152.66Y-114.945
X155.5Y-105.25
X155.5Y-108.02
X155.5Y-110.79
X155.5Y-113.56
T6
X126.14Y-66.16
X126.14Y-68.7
X126.14Y-71.24
X126.14Y-73.78
X126.14Y-76.32
X126.14Y-78.86
X126.14Y-81.4
X128.68Y-66.16
X128.68Y-81.4
X131.22Y-66.16
X131.22Y-81.4
X133.76Y-66.16
X133.76Y-81.4
X136.3Y-66.16
X136.3Y-81.4
X138.84Y-66.16
X138.84Y-81.4
X141.38Y-66.16
X141.38Y-81.4
X143.92Y-66.16
X143.92Y-81.4
X146.46Y-66.16
X146.46Y-81.4
X149.0Y-66.16
X149.0Y-81.4
X151.54Y-66.16
X151.54Y-81.4
X154.08Y-66.16
X154.08Y-81.4
X156.62Y-66.16
X156.62Y-81.4
X159.16Y-66.16
X159.16Y-81.4
T7
X106.9Y-42.2
X106.9Y-47.7
X111.1Y-42.2
X111.1Y-47.7
X115.3Y-42.2
X115.3Y-47.7
X152.25Y-54.8
X152.25Y-59.0
X157.75Y-54.8
X157.75Y-59.0
T8
X154.08Y-96.905
X154.08Y-121.905
M30
